<svg viewBox="0 0 282 80" xmlns="http://www.w3.org/2000/svg"><path d="m.65339 40.48473h280.69321v18.76099h-280.69321z" fill="#ffe9cd" transform="matrix(.98958896 -.14392253 .14392253 .98958896 -5.70877 20.81222)"/><g fill="#0d6a86" stroke="#0d6a86" stroke-miterlimit="10" stroke-width=".3"><path d="m16.17807 47.22778-.91766-1.39233a47.24537 47.24537 0 0 1 6.69959-3.93045q3.54253-1.70655 7.175-3.28455l.91516.39136.30908.81323-.793.44922q-2.51358 1.08069-5.14557 2.32165a40.38489 40.38489 0 0 0 -4.13488 2.22254q-2.0354 1.25046-4.10772 2.40933zm.79846 20.24341-.871-1.39905q5.239-2.33534 10.795-4.62146a53.966 53.966 0 0 1 11.55908-3.30237 8.05533 8.05533 0 0 1 4.81867.34827l.12225.84033-1.63257.90515a4.27041 4.27041 0 0 0 -3.15637-.06555l-.67322.2887-1.2412-.01021-.67321.2887-.54078-.11218a45.30867 45.30867 0 0 0 -9.3977 3.08325q-4.44955 2.03077-9.10895 3.75642zm1.14118-10.51258-.68335-1.09261a29.8501 29.8501 0 0 1 7.24041-3.8186q3.916-1.42749 7.76337-2.84546l.68335 1.09277q-3.61221 1.71772-7.52905 3.14515a45.43035 45.43035 0 0 0 -7.47473 3.51875z"/><path d="m55.28665 69.004a1.24032 1.24032 0 0 1 -.71051-1.27941l1.09259-.68335.54077.11206a52.62561 52.62561 0 0 1 5.82813-1.56287 11.42324 11.42324 0 0 0 .31176-6.053l-.86083-.01782a33.92715 33.92715 0 0 1 -4.00464 2.29883l-.61634-.95935q2.44428-1.881 4.95545-3.62915l-.01013-1.38123-.68085-.0918-1.37116 1.39136-.08483.72766-1.147.30982-1.28953-.67075a29.13342 29.13342 0 0 0 -1.995-5.19311 20.22261 20.22261 0 0 1 -1.76147-5.22689l.92627-.51624.94232.57825 1.31159 4.10034.68084.0918 2.81012-2.316-.05688-1.37439-.21472-.49329-.51367.07471-.87787 1.17676-.17743 1.0747-.70044.10181-.36414-1.52045a2.91188 2.91188 0 0 1 1.175-2.41186l.93219-.80322-.1969-1.354-.54419-1.44665-1.24121-.01013q-3.39955 1.54374-6.66094 3.37656-3.2625 1.8333-6.37923 4.00305l-.87018-1.0653 1.53162-1.27185a57.14543 57.14543 0 0 1 6.30017-3.5625q3.29544-1.59888 6.53448-3.26282l-.22656-2.54187-.26233-.82007q.22422-.74781 1.2793-.71057a2.765 2.765 0 0 1 .9458 1.91272l.02966 1.18774.708.27844q2.93289-1.14165 5.79974-2.25 2.86633-1.10742 5.61969-2.17626l.98987.90515-1.81762 1.59936-2.40174.20618a27.83138 27.83138 0 0 1 -4.05627 1.61511 29.43783 29.43783 0 0 0 -4.10314 1.62179l.10443 1.70129.47626.97974.53405.06531a7.23737 7.23737 0 0 1 3.48072-.983l1.09509.31763.72839.41858 1.09436 2.6062a16.4219 16.4219 0 0 1 -1.46814 7.93774l-1.63336.57142.26923-1.75562-.84058.12219-.905.99.20636 2.40161.70124.23169 2.28619-.99987 1.0484.32421.12231.84058-1.4569 1.78516-1.02731.1494-1.07562-.51111-.23175.7013.28943 1.007a10.39948 10.39948 0 0 1 .09759 4.277l.888.20459a99.8933 99.8933 0 0 1 12.09185-2.42604l.93555.53149.33618 1-.97974.47632a4.19162 4.19162 0 0 0 -2.78289-.11981l-1.96027.61889-1.37445.05677a76.4357 76.4357 0 0 0 -8.06171 2.26916 58.79952 58.79952 0 0 1 -8.03552 2.12218zm2.43635-34.06443a1.94511 1.94511 0 0 0 -2.08246-.22168l-.48645.26148-3.43664-.02466-.1969-1.354.82007-.26245a6.78311 6.78311 0 0 0 2.89581-.08728l.48651-.26147 1.19452.017q2.46541-1.07373 4.70575-2.06714l.523.9729a8.13415 8.13415 0 0 1 -4.42321 3.0273zm1.858 19.66043 1.63086-1.57239-.25122-1.72766-.70117-.23181-2.43659 2.26148-.06451.86779 1.3634.85071zm6.66107-7.3103-.14935-1.02734a3.80375 3.80375 0 0 0 -1.13251-1.88562l-1.38122.01013-2.04517 1.34655q.08268 1.22845.20624 2.40174l.51367-.07471 2.72608-1.25488a1.4873 1.4873 0 0 0 1.26219.4841zm-1.6784 3.86767a2.85713 2.85713 0 0 1 1.39148-1.25146l.26916-1.75562-.51367.07471-.95251.66309a1.80407 1.80407 0 0 1 -1.399.87109l-.88806-.20459.197 1.354.449.793.54077.11206z"/><path d="m95.44089 60.92321a8.20518 8.20518 0 0 1 -2.93476-4.77038l1.86005 1.97046.68085.09167q-.52011-4.88268-1.40564-9.6654l.03735-1.0542-.57129-1.63355-.54077-.11206a45.45047 45.45047 0 0 0 -5.00513 2.46825q-2.39941 1.37477-4.8446 2.588l-.89819-1.58582a21.76152 21.76152 0 0 0 -.134-5.5116 13.31965 13.31965 0 0 1 .25989-5.42565l.82007-.26233a1.35931 1.35931 0 0 1 .731 1.41943 26.90185 26.90185 0 0 0 -.00611 8.15417l1.02808.18433q4.54541-2.18646 9.17773-4.26709 4.63257-2.07953 9.36536-3.96057l1.12915.551-.62317 1.61634-1.84058.45837-1.05438-.03735q-3.23959 1.32953-6.49884 2.85229l-.11206.5409.775.41162.59851 1.82019.03735 1.56824.2547.43957-.085.72766.38379 1.32691-.017 1.19458.26153.48632a3.0566 3.0566 0 0 0 -.02813 2.10193l.21478.49341a14.26294 14.26294 0 0 1 -.01543 4.48415zm-10.65778-3.12268-.07471-.51367a5.09526 5.09526 0 0 0 2.90271-2.66308 11.1946 11.1946 0 0 0 1.79053-4.40857l.62659-.28174.775.41162.12219.84045a8.8318 8.8318 0 0 1 -3.86279 5.56824 3.14445 3.14445 0 0 1 -2.27952 1.04675zm5.12122-14.61987-1.98993-.56885-.534-2.68774a12.19276 12.19276 0 0 1 -.00244-3.62341l-.45837-1.84046.11206-.54089-1.56281-5.828 1.18689-.3634a8.08152 8.08152 0 0 1 1.56451 3.87293q.3328 2.28845.83869 4.45544a14.99881 14.99881 0 0 0 .33868 4.62341l.53394.06531a15.81323 15.81323 0 0 1 6.9353-4.44153l.10193-1.922-1.07478-.17747-.85748 1.31677a11.81459 11.81459 0 0 0 -4.025 2.15881l-.47631-.97986a14.25635 14.25635 0 0 1 3.78049-3.83972l2.30671-.86-.00934-1.04749-.67408-.045-1.00683.28955-1.07483-.17749-1.81085 1.646-.905.99-.75806-1.60632.9253-.84973 4.34936-3.2074-.01019-1.3811-.66309-.95264-.86761-.06445q-1.98038.813-3.88568 1.80481l-.03742 1.0542-.65369.09509-.28869-.67322 1.08252-2.06457 5.3587-2.49573.96271.718a45.18481 45.18481 0 0 1 1.87424 12.88729l.28863.67321-.1189.49414.33619 1-.92536.84986-1.90509-1.29639a13.49279 13.49279 0 0 0 -5.67529 3.92456zm19.31867 13.49719-2.19366-1.9696a12.609 12.609 0 0 0 -2.69788-3.46973 9.8557 9.8557 0 0 1 -2.51794-3.54358l.88708-.129a28.33657 28.33657 0 0 1 4.82971 4.68543 6.18635 6.18635 0 0 1 2.29206 3.95788z"/><path d="m139.16428 49.31945a15.74927 15.74927 0 0 1 -1.39307-4.66076l.0849-.72754-.26148-.48645-.60095-5.44361a46.369 46.369 0 0 0 -1.17865-5.6455 21.86308 21.86308 0 0 0 -2.15832-5.16931l.81329-.30909 1.55017.82337a23.12039 23.12039 0 0 1 1.5127 4.50049q.53238 2.35417 1.1792 4.50122l.51355-.07471a12.34272 12.34272 0 0 1 3.66-1.3905l-.32849-5.86463-1.02722.14942-.93219.8031-.52381 1.31579-.48645.26148a6.58022 6.58022 0 0 1 -.88714-2.49341 23.85736 23.85736 0 0 1 5.58874-2.5531q3.01053-.93841 6.0379-1.76013a5.95189 5.95189 0 0 1 2.71741.65368l.83289 2.11988-.03736 1.05444.41083 1.51379-.11212.54053.30908.81348.04651 2.6156.21484.49316-.06543.53406a40.91866 40.91866 0 0 1 .69269 4.7627 19.7114 19.7114 0 0 0 1.26154 2.7727l-.57813.94238-1.30664.52393-1.50348-.83045-.48645.26148-1.568.03735q-2.8873.802-5.73474 1.5492l-.7276-.08484a7.56238 7.56238 0 0 0 -4.41882 2.073l.32934.95349zm7.291-6.25744 7.24854-1.96009q-.3209-2.52831-.55347-5.11669l-.26148-.48645a36.12482 36.12482 0 0 0 -.36584-4.81019 6.47272 6.47272 0 0 0 -1.71057-3.56567l-2.47547.02625-3.47314 1.36328a22.06005 22.06005 0 0 1 .049 6.239l1.75488-.06445a22.841 22.841 0 0 1 4.00714-1.29785l1.22413 1.20459a4.165 4.165 0 0 1 -2.25147 1.56713 3.30949 3.30949 0 0 0 -2.78284-.11987l-1.63269.90515a22.293 22.293 0 0 1 -.23266 5.61231l-.51367.0747a8.58313 8.58313 0 0 1 -1.21644-3.44677l.14942-1.5951-.989-.57141a7.725 7.725 0 0 0 -3.37122 2.06372l.41327 5.13709 1.40851.17664a31.08847 31.08847 0 0 1 5.57502-1.33533z"/><path d="m172.5975 35.35022-.94244-.57825a69.92831 69.92831 0 0 1 -3.13709-6.98181q-1.41466-3.65643-2.67114-7.38355a1.45069 1.45069 0 0 1 1.46619-.73767 17.86656 17.86656 0 0 0 1.5459 4.40027 23.30958 23.30958 0 0 1 1.63836 4.053l.51361-.07471a32.44681 32.44681 0 0 1 4.58191-3.57483 13.61264 13.61264 0 0 0 -.5636-3.87561l-.70037.10181a9.42262 9.42262 0 0 0 -2.27619 2.38135l-.84973-.9253a5.8681 5.8681 0 0 1 2.20813-2.84839 30.81568 30.81568 0 0 1 4.7428-1.977q2.43621-.78332 5.16467-1.371a6.72685 6.72685 0 0 1 4.86707 1.00867l.80566 1.9331a35.02837 35.02837 0 0 0 -.17285 5.53223 10.99039 10.99039 0 0 1 -1.06775 5.281q-2.501.50684-4.97577.86657l-1.40167-.12976a24.99624 24.99624 0 0 0 -4.51856 2.20667q-2.16531 1.34067-4.25714 2.69321zm-.96148-18.7417-1.591-1.10364a24.00308 24.00308 0 0 1 -1.91766-3.67859l.20459-.88806 1.02722-.14929 2.68518 3.70984 1.08154.22424.30988 1.14709a1.58641 1.58641 0 0 1 -1.79977.73841zm1.948 15.68969 2.88483-1.80224-.23675-3.9231-1.04761.00928-3.55469 3.42566.05 1.32764.85059 1.259.54083.11206zm1.5072-16.19221q1.34142-2.57849 2.35681-4.77685a34.87331 34.87331 0 0 0 1.72351-4.542l.82007-.26233.98224.52465.12225.84046a37.18245 37.18245 0 0 1 -3.188 5.947 7.242 7.242 0 0 1 -2.81688 2.26907zm4.13464 33.34729a4.121 4.121 0 0 1 -.97546-3.10034l-.376-3.569a37.23076 37.23076 0 0 1 -1.67908-6.95581l.39136-.91492 1.30658-.52392 1.0094.71155.51367-.07471a8.90274 8.90274 0 0 1 4.77887-2.22083l1.10193.36414a3.91915 3.91915 0 0 1 1.58154 2.67859 24.50834 24.50834 0 0 1 .90564 7.21106l.47626.97973-1.24884 2.23182-2.39063-.70118-4.126 1.792-.50348 1.45593zm7.51453-20.785a32.31074 32.31074 0 0 0 .31762-5.02857q-.037-2.545-.21637-5.09423l-1.71064-.94349-4.18286.4176-3.827 1.22424.1153 3.41614.93475.19788a9.97469 9.97469 0 0 1 5.1532-1.94153l.74793.225.26232.82019-1.29644 1.905a4.40241 4.40241 0 0 0 -2.49341.88721l-.07471-.51367.09174-.681-2.58509 1.56811.21045 4.07a2.17154 2.17154 0 0 0 1.77515.07544l4.20068-1.27832 1.2887.33716.6087.57885zm-1.74646 8.64587-.03736-1.56787-.449-.79309-1.77527-.07568a17.42384 17.42384 0 0 0 -3.9494 3.0061l-.04413 1.00794.74786.22485a21.55325 21.55325 0 0 1 4.63959-1.86682zm-.15125 6.17285.95252-.66308.20379-1.22156-.26147-.48645-.05768-1.70813-.72076-.03821-1.46619.73767-1.47547-.30993-2.61224 1.38122.00928 1.04761.90069 2.58679.84046-.12219z"/><path d="m207.11429 43.58545-.77515-.41175-.45837-1.84045-.28089-5.53784q-.70056-2.51971-1.49408-5.02759a8.03792 8.03792 0 0 0 -2.933-4.103l-1.102-.36426-.50336-1.1665a51.87129 51.87129 0 0 1 3.58106-7.506 44.33568 44.33568 0 0 0 3.44775-7.439l1.51367-.41089.66388 1.28626a45.79211 45.79211 0 0 1 -4.14557 7.23047 13.86577 13.86577 0 0 0 -3.40027 6.45459l2.03754.89575a19.27273 19.27273 0 0 1 3.3345 7.19155l.55188-.79553q2.445-1.21382 4.98547-2.27454 2.53912-1.05981 5.17322-1.96826a1.27669 1.27669 0 0 1 .89734 1.25232l-.41175.775q-2.708.728-5.17737 1.61109a14.52723 14.52723 0 0 0 -4.46779 2.55713l-1.5238-.97045.095.65368.50336 1.16663-.112.54065.45831 1.84057.15967 2.40845.45581.83972.70044-.10193q3.16736-.84172 6.22076-1.97754 3.05337-1.13451 6.2005-2.11755l.08472-.72754a42.65345 42.65345 0 0 1 -1.08557-4.51477q-.44055-2.36791-.97962-4.76868l.03736-1.05432-.35657-1.14026.085-.72741-1.2887-2.95972-1.0476.0094q-2.10022.97394-4.309 2.0094a21.5628 21.5628 0 0 0 -4.09406 2.50281l-.76575.63562-.8125-1.97974q2.88483-1.80194 5.79383-3.27417a24.69423 24.69423 0 0 1 6.29028-2.15466 9.99683 9.99683 0 0 1 2.41016 5.75256 40.9692 40.9692 0 0 0 .421 5.51734q.512 2.21429.9851 4.31494a25.34032 25.34032 0 0 0 1.28479 4.08056l-2.27942 1.04676-1.0543-.03735q-3.47442 1.03033-6.97143 2.06275a32.50357 32.50357 0 0 0 -6.54248 2.7157z"/><path d="m235.80276 21.58068-.61889-1.96032-.51367.0747a10.67668 10.67668 0 0 1 -4.67872 2.25391l-.8302-1.1189q1.91217-.94518 3.79834-2.07812a4.89224 4.89224 0 0 1 2.93323-1.14185l1.017 1.09192a5.38332 5.38332 0 0 1 -1.10709 2.87866zm.8805-8.043-.28186-.62659.09179-.68079-4.98767-1.182-.871-1.399 1.14014-.35645 7.37231 2.17.242.68a4.32556 4.32556 0 0 1 -2.70571 1.39487zm-.30457 27.41284a1.34261 1.34261 0 0 1 -.71045-1.27942q1.26654-3.093 2.707-6.13916a32.285 32.285 0 0 0 2.21289-6.25806l1.23194-1.03747 1.7268-3.20728-.866 3.2251 1.16723-.1698 2.26673-.80628-.08472-1.89489-.2616-.48645.11219-.5409q-1.11621-3.07947-2.17749-6.12024-1.0622-3.03918-2.15711-5.9801l.8855-.79626 5.48371-8.52169.84046-.12219.68335 1.09265-6.21192 8.10315.10181.70044q1.35663 3.42663 2.61633 6.84314 1.259 3.41728 2.30982 7.03064l.54077.11206 2.44678-.88038a19.35051 19.35051 0 0 0 .04-7.92065l-.81567-3.31445-2.19458.31921-1.09277.68323-.41846.72851-.51367.07471-.3302-1.287a8.44061 8.44061 0 0 1 3.90857-1.97509q2.26354-.49568 4.43176-1.00208l2.24878.05432 1.28027-.37683.663.95252-.41846.72839-1.79395.45166a3.14358 3.14358 0 0 0 -2.48315-.354 2.64864 2.64864 0 0 0 -1.906.99243l.65625.90576-.11206.54077a9.08393 9.08393 0 0 1 .843 3.5011 11.9797 11.9797 0 0 1 -.38647 5.53943l2.73535-.20716.62659-.28186q2.96941.09357 6.00549-.015l.49328-.21484 1.1698.83105.10193.70044a1.843 1.843 0 0 1 -1.49328.551l-.68091-.09168-.48645.26148a14.0344 14.0344 0 0 0 -5.02576-.46119 23.08568 23.08568 0 0 0 -5.60071 1.81592l-1.18762.02954-1.63354.57141-.86768-.06457-2.2793 1.04675-.6809-.09167-2.39917 1.207q-.96094 2.9057-2.08741 5.81091-1.12719 2.90607-2.08715 5.81055zm9.22583-3.77344-1.0553-.371-.42187-.6062.62659-.28186.89477.25134a12.84935 12.84935 0 0 0 3.21-5.1394 8.12092 8.12092 0 0 0 .44324-4.165l.95349-.32947a3.31028 3.31028 0 0 1 .90747 2.63354 12.97278 12.97278 0 0 1 -3.27209 7.00806zm18.98609-1.903a21.26543 21.26543 0 0 0 -5.03077-5.08533l-2.37109-.8949a3.36193 3.36193 0 0 1 -1.2727-1.86511l.76586-.636 2.04517 1.27613 3.1665 1.44665a13.70653 13.70653 0 0 1 3.78882 4.74158l-.57812.94226z"/></g></svg>