<?xml version="1.0" encoding="UTF-8"?>
<svg id="_レイヤー_1" data-name="レイヤー 1" xmlns="http://www.w3.org/2000/svg" viewBox="0 0 434 220">
  <defs>
    <style>
      .cls-1 {
        fill: #fff;
      }
    </style>
  </defs>
  <g id="_レイヤー_2" data-name="レイヤー 2">
    <g id="mv">
      <path class="cls-1" d="m25.84176,61.68765V.3525h15.22186v61.33515h-15.22186Z"/>
      <path class="cls-1" d="m70.44534,62.39266c-9.55791,0-17.34585-1.41-23.36378-8.10752l9.55791-9.51752c3.89396,3.17251,8.84992,4.58251,13.80588,4.23001,6.01795,0,8.84992-1.7625,8.84992-5.64002,0-1.41-.35399-2.46751-1.41599-3.52501-1.41599-1.0575-2.47798-1.41-4.24796-1.41l-7.78793-1.0575c-4.60195-.705-8.49591-2.46751-12.03588-5.64002-2.83197-3.52501-4.60195-7.75502-4.24796-12.33753,0-10.92753,8.49593-19.38755,22.6558-19.38755,8.84992,0,15.57586,1.7625,20.53181,7.40252l-9.55791,9.51752c-3.18598-2.82001-7.43393-4.23001-11.68189-3.52501-5.30995,0-7.43393,3.17251-7.43393,5.64001,0,1.0575.35399,2.115,1.41599,2.82001,1.41599,1.0575,2.47798,1.41,4.24796,1.7625l7.07992,1.0575c4.60195.3525,8.49593,2.115,12.03589,4.93501,3.18598,3.87751,4.95596,8.46002,4.60197,13.39503.35396,12.33753-10.26592,19.38755-23.00981,19.38755Z"/>
      <path class="cls-1" d="m102.30505,61.68765V.3525h42.12562v13.39503h-26.90375v10.22253h23.00979v13.39503h-23.00979v10.92753h26.90375v13.39503h-42.12562Z"/>
      <path class="cls-1" d="m172.7504,62.39266c-9.5579,0-17.34585-1.41-23.36378-8.10752l9.91192-9.51752c3.89396,3.17251,8.84992,4.58251,13.80588,4.58251,6.01793,0,8.84992-1.7625,8.84992-5.64002,0-1.41-.35399-2.46751-1.41599-3.52501-1.41599-1.0575-2.47797-1.41-4.24795-1.41l-7.78792-1.41c-4.60197-.3525-8.84992-2.11501-12.38989-5.28751-2.83198-3.52501-4.60197-7.75502-4.24795-12.33753,0-10.92753,8.49593-19.38755,22.6558-19.38755,8.84992,0,15.57586,1.7625,20.53182,7.40252l-9.5579,9.51752c-3.18598-2.82001-7.43393-4.23001-11.6819-3.52501-5.30995,0-7.43393,3.17251-7.43393,5.64001,0,1.0575.35399,2.115,1.41599,2.82001,1.41599,1.0575,2.47797,1.41,4.24795,1.7625l7.78786.705c4.60197.3525,8.49593,2.115,12.03589,4.93501,3.18598,3.87751,4.95596,8.46002,4.60197,13.39503.35399,12.33753-10.61993,19.38755-23.7178,19.38755Z"/>
      <path class="cls-1" d="m236.11582,61.68765v-24.32256h-16.28384v24.32256h-15.22187V.3525h15.22187v23.61756h16.28384V.3525h15.22187v61.33515h-15.22187Z"/>
      <path class="cls-1" d="m262.31159,61.68765V.3525h15.22187v61.33515h-15.22187Z"/>
      <path class="cls-1" d="m330.63297,61.68765v-29.25757l-8.84992,15.15754h-9.91192l-8.84992-15.15754v29.61007h-15.22187V.3525h14.86785l14.15987,26.79006L330.98693.3525h14.86785v61.33515h-15.22182Z"/>
      <path class="cls-1" d="m392.58239,61.68765l-2.83198-9.16502h-19.1158l-3.18595,9.16502h-15.92991L373.82056.3525h11.6819l22.65577,61.33515h-15.57583Zm-12.03592-38.07009l-5.30995,16.56754h10.97392l-5.66397-16.56754Z"/>
      <path class="cls-1" d="m23.36378,141.35284c-9.55791,0-16.99184-1.41001-23.36378-8.10752l9.55791-9.51753c3.89396,3.17251,8.84992,4.58251,13.80588,4.58251,6.01795,0,8.84992-1.7625,8.84992-5.64001,0-1.41001-.35399-2.46751-1.41599-3.52501-1.41599-1.0575-2.47798-1.41001-4.24796-1.41001l-7.43393-1.41001c-4.60195-.3525-8.84992-2.115-12.38989-5.28751-2.83197-3.52501-4.60195-7.75502-4.24796-12.33753,0-10.92753,8.49593-19.38755,22.6558-19.38755,8.84992,0,15.57586,1.7625,20.53181,7.40252l-9.55791,9.51753c-3.18598-2.82-7.43393-4.23001-11.68189-3.52501-5.30995,0-7.43393,2.82-7.43393,5.64002,0,1.0575.35399,2.11501,1.41599,2.82,1.41599,1.0575,2.47798,1.41,4.24796,1.7625l7.43393,1.0575c4.60195.3525,8.84992,2.11501,12.03589,4.93501,3.18598,3.87751,4.95596,8.46002,4.60195,13.39504.70797,11.98503-10.26592,19.03505-23.36381,19.03505Z"/>
      <path class="cls-1" d="m89.91516,140.64785l-14.15987-25.38006-4.95596,5.99252v19.38755h-14.86787v-61.33516h14.86787v21.85506l17.69984-21.85506h18.40782l-20.88581,24.67506,21.5938,36.30759-17.69981.35251Z"/>
      <path class="cls-1" d="m144.07667,115.62028v25.02756h-15.22187v-25.02756l-18.40782-36.30759h16.63784l9.5579,22.20755,9.5579-22.20755h16.63784l-18.76178,36.30759Z"/>
      <path class="cls-1" d="m208.15007,134.65533c-4.60197,4.23001-10.6199,6.34501-16.63784,5.99252h-22.6558v-61.33516h23.00979c6.01793-.3525,12.03589,2.11501,16.63784,6.34501,7.43393,7.40252,6.37195,14.80504,6.37195,24.67506s.70798,16.92004-6.72594,24.32256Zm-10.26591-38.77509c-1.41599-2.46751-4.60197-3.87751-7.43393-3.52501h-6.72594v34.54508h6.72594c2.83198.3525,5.66394-1.0575,7.43393-3.52501,1.41599-1.41001,1.41599-3.52501,1.41599-13.74753s-.35399-11.63253-1.41599-13.74753Z"/>
      <path class="cls-1" d="m223.72594,140.64785v-61.33516h14.86785v61.33516h-14.86785Z"/>
      <path class="cls-1" d="m276.47145,140.64785h-10.97389l-20.53182-61.33515h15.57586l10.6199,34.19258,10.26591-34.19259h15.92985l-20.88581,61.33516Z"/>
      <path class="cls-1" d="m302.66719,140.64785v-61.33516h15.22187v61.33516h-15.22187Z"/>
      <path class="cls-1" d="m363.55462,140.64785l-19.82384-31.02007v31.02007h-15.22187v-61.33516h13.45189l19.82384,31.02007v-31.02007h15.22187v61.33516h-13.45189Z"/>
      <path class="cls-1" d="m427.62805,134.30282c-9.91192,9.16502-25.13379,9.16502-35.04565,0-6.37195-6.34501-6.37195-15.15753-6.37195-24.32256s-.35402-17.62504,6.37195-24.32256c4.60197-4.58251,10.97392-7.40252,17.34582-7.05002,15.92985,0,22.65577,10.22252,24.07179,20.44505h-15.22187c-.70798-4.58251-4.60197-7.40252-8.84992-7.05002-2.124,0-4.60197,1.0575-6.01793,2.46751-1.41597,1.7625-2.124,3.87751-2.124,15.15753s1.062,13.39503,2.124,15.15753c1.41597,1.7625,3.89399,2.82,6.01793,2.46751,2.47797.3525,4.95593-.705,6.72592-2.46751,1.41597-1.7625,2.47797-4.23001,2.124-6.69752v-1.0575h-9.20394v-12.69003h24.07179v8.81253c0,10.92753-1.41597,16.56754-6.01793,21.15005Z"/>
      <path class="cls-1" d="m138.05871,219.96054c-6.37195.3525-12.74388-2.115-17.34585-7.05002-6.37195-6.34501-6.37195-15.15753-6.37195-24.32256s0-17.62504,6.37195-24.32256c4.60197-4.58251,10.97389-7.05002,17.34585-7.05002,11.6819-.705,22.3018,8.10752,23.36378,20.09255h-15.57586c-.70798-3.8775-3.89396-6.69752-7.78792-6.69752-2.12397,0-4.60197,1.0575-6.01793,2.46751-1.41599,1.7625-2.12397,4.23001-2.12397,15.15753s1.062,13.39503,2.12397,15.15753c1.41599,1.7625,3.89396,2.82,6.01793,2.46751,3.89396.3525,7.43393-2.46751,7.78792-6.69752h15.57586c-1.06197,12.69004-11.32788,21.50256-23.36378,20.79757Z"/>
      <path class="cls-1" d="m168.85644,219.60803v-61.33514h15.22187v47.94011h25.84175v13.39503h-41.06362Z"/>
      <path class="cls-1" d="m239.3018,219.96054c-12.74388,0-23.36378-8.46003-23.36378-22.20755v-39.4801h15.22187v39.4801c0,5.64001,3.18598,8.81252,8.14194,8.81252,4.60197.3525,8.14194-3.17251,8.14194-7.75502v-40.5376h15.22187v39.83259c-.00005,13.39503-10.61996,21.85506-23.36383,21.85506Z"/>
      <path class="cls-1" d="m300.18922,219.60803h-26.90375v-61.33514h25.48775c12.74388,0,19.82381,7.40251,19.82381,17.62504,0,4.93502-2.47797,9.51753-6.72594,11.98503,4.95596,2.46751,7.78794,7.75502,7.78794,13.39503-.35402,11.98502-8.84992,18.33003-19.46982,18.33003Zm-2.47797-47.94011h-9.5579v10.22253h9.5579c2.83198.3525,5.30995-1.41001,5.66394-4.58251.35399-2.82-1.41599-5.28751-4.60197-5.64001-.35399-.00001-.70798-.00001-1.06197-.00001Zm.70798,23.61756h-10.26591v10.92752h10.26591c2.83198.3525,5.30995-1.7625,5.30995-4.58251v-1.0575c0-2.82-1.76998-4.93502-4.60197-5.28751h-.70798Z"/>
    </g>
  </g>
</svg>