<svg viewBox="0 0 398 126" xmlns="http://www.w3.org/2000/svg" xmlns:xlink="http://www.w3.org/1999/xlink"><clipPath id="a"><path d="m-402.30572-234.62037a54.883 54.883 0 0 0 -15.17908-23.71363 54.04946 54.04946 0 0 0 -24.95581-12.81177c-9.62207-2.16186-19.72656-3.3418-28.50635-.592a28.52953 28.52953 0 0 0 -9.23364 5.11255q-.91588-1.37329-1.8269-2.748c-5.74366-8.70849-11.74622-16.667-20.45276-21.01562a58.05861 58.05861 0 0 0 -29.205-5.83887c-.459.02686-.91772.06592-1.37634.105-3.411-5.82324-7.35877-11.543-11.15479-17.29858-9.25793-14.03638-18.933-26.86426-32.9663-33.87329a93.57934 93.57934 0 0 0 -47.07312-9.41114 92.15252 92.15252 0 0 0 -45.25086 15.48926c-14.03638 9.25781-27.43738 20.26978-34.44641 34.30322-7.2312 14.47779-4.76733 31.80054-3.82043 47.95606.918 15.65967 1.21911 32.46484 10.47692 46.501 9.25782 14.03663 22.13306 25.84327 36.16651 32.8523 14.47778 7.2312 31.89807 11.613 48.05359 10.666 15.65942-.918 30.86364-9.387 44.9-18.64478a58.9274 58.9274 0 0 0 5.31983-3.96826 52.6568 52.6568 0 0 0 8.29394 5.20044c8.98218 4.48608 19.79 7.20483 29.81323 6.61719 8.09449-.47437 15.99121-4.20386 23.43787-8.75611a51.54451 51.54451 0 0 0 9.04114 11.282c6.75964 6.241 16.5238 9.21729 26.146 11.3794 9.62207 2.16186 18.52613-.16651 27.306-2.91626 9.058-2.83667 19.07825-4.87647 25.51722-11.85059 6.24108-6.75952 7.91943-16.69482 10.08129-26.31689 2.16219-9.62245 3.64388-18.92884.89425-27.70863z"/></clipPath><g fill-rule="evenodd"><path d="m62.92261 41.38177c-.02-3.044.73193-4.47 3.51874-1.67006 3.28725 1.81764 6.24772 4.23852 9.91227 5.35937.78764.37311 1.57753.74313 2.37159 1.12159a17.092 17.092 0 0 0 5.78412 2.48821c5.37812 1.617 10.32783 4.34392 15.269 6.87475 5.02371 2.57144 4.89891 4.03754.962 7.95878a102.80269 102.80269 0 0 0 -27.57248 17.72059c-1.21429 1.06746-1.84927.68021-2.33018-.05563-1.22638-1.86579-2.89446-3.511-3.43254-5.77068-2.004-8.534-4.15817-17.03782-4.60161-25.84688-.05552-2.72871-.43527-5.4527.11909-8.18004z" fill="#d0171a"/><path d="m170.539 78.30823c-3.8548.73574-6.05854 4.03808-8.98449 6.11788-7.18672 5.1123-13.766 11.088-20.58045 16.72638a6.62186 6.62186 0 0 1 -7.0996.93279c-2.066-.90543-2.72788-3.18783-2.87869-5.55989-.60653-9.30223-1.28281-18.6153-4.89593-27.37853a1.83532 1.83532 0 0 1 .09248-2.1102c.57207-.60566 1.172-.08138 1.70918.16092 1.082.47865 2.58367.17953 3.16362 1.61266-.27456 1.0263-2.64042-.96536-1.656.861.67439 1.24342-.10231 4.845 2.92308 3.62175 6.0744-2.45653 11.73485-1.88364 17.877.051 5.98872 1.89045 12.39941 2.47108 18.62248 3.61447a1.82178 1.82178 0 0 1 1.70732 1.34977z" fill="#e7dac6"/><path d="m313.602 89.78033c.46907-.09458.94237-.19225 1.408-.28 2.99179.80279 5.9595-.04779 8.72076-.78659 4.08743-1.09071 8.27307-1.216 12.37187-1.99309a3.23637 3.23637 0 0 1 3.53547 1.4624c-1.3964 3.38032-2.4423 6.812-4.76817 9.87428-2.70617 3.57253-2.99559 8.40083-4.84623 12.501a38.038 38.038 0 0 1 -2.08156 4.27282 18.37325 18.37325 0 0 0 2.39876-5.03333c.28382-.73258.8088-1.32834 1.70416-1.08757a1.08149 1.08149 0 0 1 .796 1.45953c-1.25638 3.68989.081 8.04386-2.89084 11.33825-.91671 1.00252-1.49312 2.36112-3.20282 2.12208-5.2424-3.95887-10.416-7.99267-14.36235-13.34-1.6604-4.10378-5.71223-6.51174-7.42225-10.61054-.5698-1.36092-2.06884-1.62486-3.50062-1.74635a2.246 2.246 0 0 1 -2.03631-1.42013c-.41474-1.12975.81-1.27754 1.17836-1.88746 2.55707-4.15986 6.485-4.30492 10.64023-4.03231a2.52318 2.52318 0 0 0 2.35754-.81299z" fill="#e77e9c"/><path d="m239.118 91.87136c1.59349.17534 3.19155.35524 4.78392.52638 5.51567 1.80149 11.29608 1.88283 16.97794 2.13388 3.75888.17288 7.8182.62333 11.2886-1.78778 2.15288.049 4.58168-2.58341 6.26024-.48542 1.67939 2.09419-1.30917 3.96645-1.84176 6.06117a3.37073 3.37073 0 0 1 -1.939 2.62383c-4.5853 1.21022-7.17743 4.16178-8.03324 8.83074-.29995 1.63108-1.74148 2.73584-2.93206 3.79281a57.66017 57.66017 0 0 0 -5.4042 5.73181c-3.353 3.98319-6.78749 3.78211-8.94732-.82421-3.5896-7.65807-8.15479-14.91323-9.95478-23.34539-.2342-1.08384-.85568-2.10228-.25834-3.25782z" fill="#96bcbe"/><path d="m382.02786 106.607c.97189 5.726.13507 6.55479-4.86065 4.84823.37433-1.53329-.35077-2.67485-1.27783-3.74627-5.3681-6.20936-8.38562-13.91665-13.05934-20.56917-1.07634-1.51908-1.29622-3.10139 1.26308-3.50218a1.75058 1.75058 0 0 0 1.01692-.46817c3.51512-3.88626 8.26255-3.94677 12.9547-4.27933a25.048 25.048 0 0 0 10.56365-3.72617c2.11463-1.19858 4.0403-1.43468 5.87581.22619 1.86887 1.68745 1.27476 3.4853.13248 5.396-4.49647 7.50682-7.50407 15.82748-12.58593 23.01529-.70028.98237-1.18614 1.85113-.02289 2.80558z" fill="#f8e9cf"/><path d="m204.86151 86.21029c3.24027-.112 6.48809-.20336 9.73774-.3333 2.30379-.09367 3.53677 1.49371 4.79867 2.82693-6.40525 7.315-13.20627 14.134-19.13777 21.70892a6.45014 6.45014 0 0 1 -2.54473 2.16079c-1.34548-1.43257-.22387-2.81506.10973-4.1942.40795-1.68974 1.0647-3.40025-.74044-4.82938-1.24134 1.369-.37923 4.37418-2.87842 4.39091-2.75344.0256-2.264-2.83653-3.0404-4.53269-.73061-1.5933-1.07318-3.35691-1.75942-4.9567-1.22233-2.83653-1.67975-5.47592.70829-7.7516-.37744-1.21536-1.31625-.8938-1.96315-1.15183a1.62848 1.62848 0 0 1 -1.13647-2.06044 1.9352 1.9352 0 0 1 2.265-1.51292 2.51562 2.51562 0 0 1 1.43952.36792c4.48386 3.52188 10.17329 1.49662 15.03867 3.28455a1.10855 1.10855 0 0 0 1.34976-.49856c-.15456-1.3933-2.70015-1.04014-2.24658-2.9184z" fill="#b1c05e"/><path d="m204.86151 86.21029c.25508.27192.44555.66623.74931.80082 1.388.5747 3.88233.40488 3.2175 2.63868-.57867 1.93686-2.81434 1.00734-4.34877.837-3.10995-.34588-6.05649-2.2197-9.38151-.70271-1.15739.53544-1.95661-.84357-2.87349-1.43082-.93128-.60185-1.63338-1.55185-2.8663-1.68562-1.03018-.11776-1.79878.09588-1.804 1.265-.014.98015.73137 1.4418 1.49266 1.07894a1.66272 1.66272 0 0 1 2.45694.86787c.543 1.122-.35228 1.84923-1.22187 2.41079-1.64 1.07016-1.34424 2.24866-.694 3.87185 1.18788 2.96135 2.05378 6.076 2.94586 9.15.28864 1.00943.446 2.12748 1.68784 2.08046 1.16794-.04362.83289-1.33118 1.22836-2.04043.61292-1.09015-1.1-3.759 1.57884-3.24047 2.08641.41619 2.6692 2.44856 2.24457 4.74891-.36828 1.96205-1.8995 3.58828-1.558 5.71306a2.95261 2.95261 0 0 1 -3.759 2.12452 3.06708 3.06708 0 0 1 -2.54456-3.53735 7.71269 7.71269 0 0 0 -1.99965-5.69195c-2.6238-6.51234-4.1835-13.47885-8.149-19.44039-.79342-1.18712-1.36508-2.50186-.55694-3.84587.994-1.65875 2.451-.54839 3.71057-.3584a19.16231 19.16231 0 0 0 3.345.4384 35.82619 35.82619 0 0 1 10.34391 2.35719 19.08233 19.08233 0 0 0 6.75573 1.59052z" fill="#9dad3f"/><path d="m382.02786 106.607c-1.26376-.82055-1.43048 1.20821-2.535.94608-.93283-1.06111-.0879-1.74453.53137-2.51052 6.32845-7.81336 9.164-17.59313 14.59868-25.91122a2.25244 2.25244 0 0 0 -.45351-3.07c-1.14814-.827-2.56353-1.88558-4.09337-.80357a29.3965 29.3965 0 0 1 -14.31167 5.02911c-1.07375.11378-1.90636.6211-3.1327-.00085-1.35182-.67208-2.47963-.26649-3.56252 1.45459-1.26778 2.01614-3.86157 2.79848-6.46419 3.43128 1.79574 2.56191 4.55268 5.01717 5.40811 7.68659 1.262 3.9686 3.63479 7.007 5.59544 10.42065a16.15631 16.15631 0 0 0 3.27729 4.05842c1.27438 1.14521 2.13174 2.61777.28146 4.1177-3.13439-4.71227-6.37241-9.34148-9.35594-14.13434a47.59566 47.59566 0 0 0 -7.92741-9.92459c-1.248-1.15154-2.43732-2.75314-1.74117-4.265.66312-1.48387 2.59178-1.92511 4.26281-2.44456 8.94951-2.79819 18.63147-2.75089 27.20823-6.8952 3.1297-1.51191 5.12053.44266 6.93721 2.01793 1.50547 1.30337.244 3.29736-.564 4.813-4.6225 8.67679-9.3024 17.3224-13.95912 25.9845z" fill="#cabeaa"/><path d="m239.118 91.87136c2.65243 9.68992 7.2412 18.5633 11.3202 27.6667.563 1.24683.92012 1.39634 2.38728 1.32315 7.03227-.3405 8.25375-7.48195 12.8855-10.55583-1.55851-4.63022 4.12178-5.82554 4.52627-9.54118.14994-1.41021 1.31854-1.86167 1.91666-.56837.72484 1.5455 1.7889.20532 2.49405.74759a86.45761 86.45761 0 0 1 -11.58581 14.06235 61.35158 61.35158 0 0 0 -6.875 8.3926 4.56292 4.56292 0 0 1 -4.44009 2.15495c-1.63121-.22635-1.20173-2.21043-1.72913-3.41506a113.30065 113.30065 0 0 0 -6.08069-12.86336 100.04927 100.04927 0 0 1 -8.84669-17.575c1.24081.21667 2.60402-.87726 4.02745.17146z" fill="#80a0a1"/><path d="m38.78343 23.56618c3.82706 1.38822 5.93856 5.14483 9.51751 6.92335a2.32206 2.32206 0 0 1 1.151 3.19114 3.54337 3.54337 0 0 1 -3.1181 2.27222 78.68859 78.68859 0 0 0 -34.67769 11.87339c-3.80749 2.45214-6.46516 1.33943-9.37583-.9037-2.63494-2.02534-1.20468-4.411-.602-6.8096.65586-2.6206 2.45469-4.60153 3.47734-7.00012 1.29138-.55354.85738-3.41364 3.28207-2.467 1.0648 1.83943.11068 3.36656-.79756 4.88751-.70247 1.17655-1.63545 2.21819-2.25017 3.44805-.8874 1.79764-2.027 3.70489-.36458 5.55864 1.8349 2.05717 4.04611 1.47376 6.19883.44248a9.32625 9.32625 0 0 0 1.95275-1.11277c5.54-4.47862 12.28282-6.01977 18.94661-7.65532a48.92808 48.92808 0 0 0 8.12953-2.81677c2.73962-1.22143 2.989-2.45131 1.02389-4.855a13.8628 13.8628 0 0 1 -2.49461-3.27041 2.03284 2.03284 0 0 1 .00101-1.70609z" fill="#ba6924"/><path d="m313.602 89.78033c.76753 2.32436-1.118 1.92378-2.07235 1.6665-4.7854-1.30445-8.1 1.17879-11.34056 4.03516-.34788.311-.49221.6887-.17577.91912.46644.37493 1.3403.94548 1.54789.7834 1.84707-1.43056 3.27948.26169 3.64637 1.15958 1.77438 4.27168 6.08845 6.75486 7.5483 11.16192-2.75132-.196-3.409-2.835-5.02707-4.34857-.37821-.3331.17763.06878-.21068-.243-.26852-.20869-.45995-.00458-.37862.35461-4.787-4.78355-11.20366-7.7791-15.45949-13.79077 7.45629-1.71595 14.71974-1.42462 21.92198-1.69795z" fill="#ca6984"/><path d="m327.34851 123.27978c4.63685-3.66746 3.614-9.14393 4.53637-14.04393-2.03494 2.49836-2.18171 6.22617-5.81 8.52971 4.639-10.244 6.87221-20.74642 13.32664-29.3645.51479-.02676.71.1974.57769.70186.46425 2.48919-1.55447 4.07753-2.20567 6.17411-2.161 6.94184-4.582 13.809-4.63641 21.237-.00423 2.44419-4.00239 7.44063-6.05717 7.95657a.92787.92787 0 0 1 .26855-1.19082z" fill="#c06881"/><path d="m100.74035 63.51441c-.12362-.9282.71184-1.20923 1.14249-1.78245 1.16458-1.521 1.80353-2.72624-.64673-4.08266a144.10878 144.10878 0 0 0 -17.977-8.52633c-1.67008-.64657-3.76206-.82672-4.53392-2.9303 7.601 1.53722 14.59421 4.912 21.8794 7.3772 1.6373.55363 3.38958.81326 4.98152 1.46233 1.37281.56391 2.35862 1.6323-.0121 2.17027-1.405.32761-.80975 1.28595-1.06967 1.98858-.7097 1.913-1.56506 3.70595-3.76399 4.32336z" fill="#c94645"/><path d="m7.97657 30.44673c-1.47589.32409-.46242 3.28381-2.82086 2.66613 1.24929-5.93468 3.90129-11.43881 5.18354-17.40112.75923-3.50813 1.49656-6.99743 2.018-10.54017a.987.987 0 0 1 1.18264-.911c1.05231 4.06773 2.14582 8.13267-.18023 12.15493a4.9283 4.9283 0 0 0 -.802 3.19973c.68476 4.56123-2.03128 7.65761-4.58109 10.8315z" fill="#b15521"/><path d="m187.76183 82.26259c-1.59692 1.0212-3.15343.12292-4.67438-.17274-1.92058-.40047-2.32912.48831-1.81991 1.9884a19.93684 19.93684 0 0 0 1.92841 3.97762c3.28774 5.3825 4.78129 11.37888 6.21628 17.413-1.962-4.43215-4.13547-8.7926-5.81522-13.33554a32.09417 32.09417 0 0 0 -5.279-9.00052c-.73159-.9292-1.65414-1.57218-.64474-2.79183.85751-1.04614 1.902-.94883 3.04353-.53116 2.3392.85437 4.69528 1.63872 7.04503 2.45277z" fill="#b8c17c"/><path d="m38.78343 23.56618c.28748.53911.57724 1.07871.86428 1.6217-1.17444.78059-2.25035.1906-3.12028-.45275-7.08661-5.35769-14.37243-10.50097-19.81943-17.70267a10.00741 10.00741 0 0 1 -1.785-3.29042c-.09507-.65784-.15521-1.3003.62137-1.60579 6.83812 8.12694 15.14935 14.6543 23.23906 21.42993z" fill="#ac5d25"/><path d="m272.16848 92.74384c-1.52016 2.3705-3.64662 2.3076-6.30675 2.57035-6.60277.59892-12.91953-1.24819-19.40167-1.28079-1.00134.00141-2.79184.58106-2.55812-1.63566 9.41299.82999 18.82034 2.12489 28.26654.3461z" fill="#7b999b"/><path d="m339.97925 89.10292c-.18778-.24209-.38486-.46666-.57578-.70146-3.61658-1.89556-7.22188-.1197-10.79524.15123-3.5326.27959-7.00776 1.31371-10.52437 1.904a3.08 3.08 0 0 1 -3.07382-.95634c7.35055-1.19033 14.68989-2.36355 21.81871-4.62353 2.84259-.91182 3.70061.3197 3.1505 4.2261z" fill="#a8516d"/><path d="m327.34851 123.27978c-.08646.39757-.17972.78971-.26273 1.18046-8.14016-4.83522-14.06474-11.99429-19.94623-19.19117-.19287-.54608-.39108-1.08572-.79319-2.16622 2.46325 2.34629 4.0048 4.82316 6.40956 6.40316 3.96713 5.54199 9.31034 9.62772 14.59259 13.77377z" fill="#a04665"/><path d="m76.35362 45.07108c-4.02566-.4628-7.05456-2.75454-9.91227-5.35937 3.62982 1.18312 6.64636 3.50686 9.91227 5.35937z" fill="#c94645"/><path d="m15.54429 2.13625c-.09059.33461-.1907.66718-.29343.99523-.42506.648-1.21156.79976-1.75287 1.27186-.38325.24894-.76271.50625-1.14077.76823a7.65811 7.65811 0 0 1 .12987-2.20376c.3076-.8521-.61552-2.25306.85844-2.53059 1.16927-.22603 1.7098.7987 2.19876 1.69903z" fill="#c1936a"/><path d="m62.92261 41.38177a21.597 21.597 0 0 1 -.12633 8.17853c-.79809-2.73883-1.32894-5.46348.12633-8.17853z" fill="#c94645"/><path d="m13.498 4.40334c-.437-1.83064.70332-1.49882 1.75287-1.27186 6.27774 9.403 14.89579 16.22476 24.39685 22.0564 1.1561 1.2992 2.40367 2.50877 3.442 3.8956 1.54175 2.03748.974 3.76731-1.234 4.84894-5.028 2.48857-10.54832 3.56225-15.89381 5.03089a35.48149 35.48149 0 0 0 -9.83276 4.14569c-2.19511 1.39562-4.254 2.9989-6.87285 3.71741-3.61865.98811-6.766-1.69776-6.00956-5.35017a14.24354 14.24354 0 0 1 2.99066-5.54124c1.19683-1.59971 2.4196-3.256 1.73917-5.48827a51.43378 51.43378 0 0 0 5.52143-26.04339z" fill="#db7a11"/></g><g clip-path="url(#a)"><path d="m119.53407 7.80687v-3.17339c-3.2934-3.41724-7.63167-3.91619-12.00854-3.74343-13.3.52558-17.20305-6.2802-16.06747-17.83424.35662-3.62638.34739-7.29816.91537-10.93711 3.165-20.27421 7.624-23.28591 27.23-18.25928v-38.08069c-12.06424 1.09093-21.011-5.6355-30.42294-11.1864a6.71483 6.71483 0 0 0 -3.90812 2.05976c-.289 3.29606-1.41769 4.33429-3.72336 3.30375-6.09243-2.72358-16.06237-.77168-16.24473 1.90708-.70847 10.41077-9.79459 4.23018-13.27917 7.84644-3.44237 9.29621-1.89863 18.58 5.43986 24.592 6.18584 5.06752 9.774-4.24406 14.97747-6.26837 1.7784.00638 4.15178-2.42647 4.99755.40141.22547.75367-3.71266.61393-5.46138 1.6863-9.30544 7.5103-18.955 14.76513-21.75422 27.0888-.59273 3.94676-.44849 7.7791 1.80222 11.31414 8.2516.89735 10.83586 4.40313 10.91179 13.11035.06115 7.02261-7.84607 16.52178 3.73536 21.98733l3.36491-.00281c5.51582-3.3559 11.03-4.97186 16.53828.01369q11.53895-.00845 23.07793-.01707h9.87915z" fill="#393939"/><path d="m119.53407 4.63348c-9.94559-3.16495-24.35865 7.41839-30.03673-7.29179-5.44734-14.11219-2.74422-28.35737 3.64852-42.44405 3.3015-7.2749 10.35526-8.53822 15.35956-11.11268 5.95475-3.06347 4.14935 9.55581 11.09805 10.07446v3.17339c-1.21319 1.12976-1.53229 2.63242-1.97872 4.1197-1.64747 5.48825-5.87016.41417-8.51942 1.86937 6.99125 9.64322-6.6265 25.5068 10.49814 32.09142 0 3.1734-.0694 6.34679-.0694 9.52018z" fill="#3d3d3d"/><path d="m-58.79288-52.48737q-.00282-1.58575-.004-3.17132c-1.82641-1.90858-1.72643-4.04956-.82589-6.28507 6.075-.45018 11.98869.61881 18.04451-2.92336 7.75265-4.53443 15.40983-3.05334 20.07257 5.56966.68146 5.24534-4.35755 8.32682-5.33726 12.92878-1.50622 7.07289-.63381 12.799 8.77682 13.2456 2.66712-.00488 6.07085-.37159 7.55476 1.50923 7.87814 9.98629 16.09729 5.96806 24.49989 1.07067 9.33148-3.03027 18.0417-3.15707 24.96021 4.97674a13.98909 13.98909 0 0 1 1.45127 4.57363c-1.01248 15.69401-15.16954 23.27481-23.22644 34.63363q-41.33154-.02054-82.66271-.04089c-4.19642-2.33306-8.39266-4.66611-13.95031-7.75622 8.51814-2.28654 12.74721-6.7163 8.687-15.42784-2.225-4.77359-3.53841-11.80615.60924-14.948 5.30256-4.01692 10.34475 2.60447 13.67608 5.56947 7.36925 6.5593 15.75985 8.34276 25.56345 9.96228-2.35711-12.96481-12.38561-18.24242-21.27365-24.44814-.11292-7.01718-6.18547-12.12348-6.61554-19.03885z" fill="#2b2b2b"/><path d="m17.17356 13.64082c-1.17084-8.13043 5.81389-11.79114 9.82844-17.23362 3.91709-5.31062 11.34092-8.97733 10.01683-17.16141 11.4394 5.00693 13.55449 14.51421 13.25475 25.20386a21.74294 21.74294 0 0 1 1.67335 3.70573 5.26223 5.26223 0 0 1 -1.73206 5.47906q-16.52074.00338-33.04131.00638z" fill="#2f2f2f"/><path d="m53.534-20.74971c4.30672-1.96522 8.61325-3.93063 13.20152-6.02434 1.21589 14.0456-2.91473 27.20941-.06172 40.39536q-3.3181-.00366-6.63639-.0075c-3.31876-1.86018-7.21357-2.82282-9.80791-5.81069v.003c2.03181-9.41926-1.87144-19.47212 3.3045-28.55583z" fill="#3b3b3b"/><path d="m70.03871 13.6185c1.37323-7.54126 8.23059-7.2614 13.44649-7.43978 3.63107-.12436 2.775 4.59314 3.09179 7.45347q-8.26923-.00675-16.53828-.01369z" fill="#3b3b3b"/><g fill="#333"><path d="m50.2295 7.80312a10.22935 10.22935 0 0 1 9.80791 5.8105l-9.82254.02082z"/><path d="m43.62217-33.451q4.9517.00393 9.903.00769c.00281 4.23112 1.17969 8.46638 1.18247 12.6975 2.017 9.85162-.14256 19.37854-4.47816 28.55189-2.72226-2.80158-13.06363-1.77008-4.58206-10.57993 1.7844-1.85362-5.51508-11.77595-8.62882-17.98036q-.00675-1.58434-.00225-3.16889c2.78399-2.80368 2.59079-7.51162 6.60582-9.5279z"/></g></g></svg>