<?xml version="1.0" encoding="UTF-8"?>
<svg id="_レイヤー_1" data-name="レイヤー 1" xmlns="http://www.w3.org/2000/svg" viewBox="0 0 546 248">
  <defs>
    <style>
      .cls-1, .cls-2 {
        fill: #fff;
      }

      .cls-2 {
        fill-rule: evenodd;
      }
    </style>
  </defs>
  <g id="_レイヤー_2" data-name="レイヤー 2">
    <g id="mv">
      <path class="cls-1" d="m11.36645,188.77338h-3.82303c-3.56645,0-4.46447.4638-5.67039,3.04044-.33355.79875-.51316.90182-.69276.90182-.42912-.03967-.8383-.20045-1.18026-.4638l1.25724-7.13729c0-.28343,0-.3865.71842-.3865s1.15461,0,1.38553.66993c.51316,1.36562,1.12895,1.36562,13.39342,1.36562,6.59408,0,7.44079-.33496,8.74934-1.59753.19648-.27331.51105-.43604.84671-.43802.35921,0,1.1546.15459,1.1546.3865s-1.25724,3.76189-2.23224,7.3692c-.10679.04437-.22676.04437-.33355,0-.45153-.03882-.89362-.15198-1.30855-.33496.25143-.73919.38985-1.51237.41053-2.29321,0-.79875-.30789-1.31409-3.82303-1.31409h-4.54145v19.60825c0,3.27233.51316,3.78767,4.43882,3.78767.38487,0,.43618,0,.43618.66993s0,.92759-.43618.92759c-.84671,0-3.13026-.3092-6.59408-.3092s-5.74737.3092-6.59408.3092c-.38487,0-.46184-.23189-.46184-.92759s0-.66993.46184-.66993c3.92566,0,4.43881-.51532,4.43881-3.78767v-19.37636Z"/>
      <path class="cls-1" d="m45.44013,188.87644c1.07124-1.15985,2.31818-2.14249,3.69474-2.9116.23092,0,.38487.23189,1.74474,3.55576l8.13355,19.60825c.60069,1.96946,2.5001,3.24109,4.54145,3.04044.3079,0,.35921,0,.35921.66993s0,.92759-.46184.92759-2.4375-.3092-4.66974-.3092c-4.25921,0-6.3375.3092-7.1329.3092s-.69276-.3092-.69276-.97912.1796-.61839.69276-.61839h.84671c1.6421,0,2.25789-.36073,2.25789-1.44291-.0657-.62653-.23934-1.23684-.51316-1.80364l-2.10395-5.43672h-9.75c-1.0932,2.05788-1.78961,4.30456-2.05263,6.62197,0,1.77789,1.41118,2.00978,3.92566,2.00978.13328.19955.21284.43034.23092.66993,0,.69568-.23092.92759-.59013.92759-1.50573-.19994-3.02263-.30321-4.54145-.3092-.7954,0-5.13158.3092-5.56776.3092s-.56447,0-.56447-.87605c-.01055-.25284.05181-.50335.1796-.72146,2.07529.29426,4.0441-1.0091,4.59276-3.04044l7.44079-20.20092Zm-2.28355,12.88321h8.15921l-4.51579-10.95073-3.64342,10.95073Z"/>
      <path class="cls-1" d="m89.80262,192.71563c0,.3865-.1796.48957-.51316.48957-.36525.00855-.72938-.04368-1.07763-.15459-.3019-2.83869-2.62501-5.02924-5.46513-5.15328-2.27956-.13598-4.26029,1.5576-4.49013,3.83919,0,6.4416,13.23947,5.15328,13.23947,14.6611,0,4.38028-3.92565,7.91029-9.59605,7.91029-2.44236.04089-4.85985-.49763-7.05592-1.57175-.33596-1.90893-.55872-3.83622-.66711-5.77167l.28224-.28343h.38487c.27405-.01946.54837.03385.79539.15459.5534,3.16482,3.26647,5.48934,6.46579,5.53978,2.59734.22943,4.8881-1.69904,5.11655-4.30737.01714-.19558.02215-.39204.01502-.58825,0-6.4416-12.82895-5.15328-12.82895-14.04269,0-3.58153,2.56579-7.47227,8.69802-7.47227,2.26413-.01673,4.50788.43042,6.59408,1.31409l.10263,5.4367Z"/>
      <path class="cls-1" d="m118.28288,185.96485c10.26316,0,15.80526,6.85388,15.80526,13.63044-.00868,8.11131-6.56355,14.67977-14.64071,14.67107-.17442-.0002-.34881-.00352-.5231-.00997-10.26316,0-15.80526-6.8281-15.80526-13.55314-.01913-8.12553,6.52465-14.72817,14.61597-14.74738.18265-.00043.36531.00256.54785.00898Zm.84672,26.41058c6.49144,0,9.82698-6.02933,9.82698-11.10532,0-7.3692-3.97697-13.4243-10.9046-13.4243-6.46579,0-9.82698,5.72015-9.82698,11.18262,0,6.0551,3.64342,13.34701,10.9046,13.34701Z"/>
      <path class="cls-1" d="m169.85524,191.83959c0-3.24657-.51315-3.76189-4.43882-3.76189-.38487,0-.46184,0-.46184-.66993s0-.92759.46184-.92759c.84672,0,3.13027.28343,6.59408.28343,8.69802,0,10.95591-.28343,14.26578-.28343.43618,0,.56448.12884.56448.4638-.21406,1.03345-.30876,2.08825-.28224,3.14351.00836.7641.10305,1.52479.28224,2.26744,0,.18036-.51315.28343-.92369.28343s-.66711-.15459-.66711-.43802c-.01359-1.17462-.4408-2.30648-1.20592-3.19503-.79539-.69568-2.15525-.92759-4.82368-.92759-5.13158,0-5.13158.8503-5.13158,2.9116v7.72993h3.97698c1.40732.06951,2.81175-.18612,4.10526-.74723.66711-.33496,1.00066-2.16437,1.00066-2.57664s0-.64416.79539-.64416.79539,0,.79539.18036-.28224,2.11285-.28224,3.94226c-.01304,1.60987.07266,3.21903.25661,4.81833,0,.3865,0,.51532-.89802.51532s-.69275,0-.69275-.59264-.33355-2.37051-.89802-2.73123c-.9515-.53488-2.04792-.75147-3.13027-.61839h-5.13158v8.1422c0,3.27233.51315,3.78767,4.43882,3.78767.38487,0,.46184,0,.46184.66993s0,.92759-.46184.92759c-.84672,0-3.13027-.3092-6.59408-.3092s-5.74736.3092-6.59408.3092c-.38487,0-.46184-.23189-.46184-.92759s0-.66993.46184-.66993c3.92565,0,4.43882-.51532,4.43882-3.78767l.17957-16.56781Z"/>
      <path class="cls-1" d="m212.7296,185.96485c10.26316,0,15.77961,6.85388,15.77961,13.63044-.00869,8.11131-6.56356,14.67977-14.64071,14.67107-.17442-.0002-.34879-.00352-.52309-.00997-10.26316,0-15.77961-6.8281-15.77961-13.55314-.01914-8.12553,6.52464-14.72817,14.61597-14.74738.18266-.00043.3653.00256.54784.00898Zm.84672,26.41058c6.49144,0,9.82698-6.02933,9.82698-11.10532,0-7.3692-3.97698-13.4243-10.9046-13.4243-6.46578,0-9.82698,5.72015-9.82698,11.18262.02564,6.0551,3.64342,13.34701,10.9046,13.34701Z"/>
      <path class="cls-1" d="m243.90392,191.83959c0-3.24657-.51315-3.76189-4.41316-3.76189-.41054,0-.46184,0-.46184-.66993s0-.92759.46184-.92759c.84672,0,3.1046.28343,6.56841.28343,2.33488,0,4.66974-.28343,7.28683-.28343,5.85,0,9.1342,2.57664,9.1342,6.4416s-3.1046,5.6686-7.15855,6.33854c2.44436,2.15106,4.53932,4.67219,6.20921,7.47227,3.00197,4.40606,3.97698,5.15328,5.95263,5.15328.41054,0,.51315,0,.51315.69568,0,1.13373,0,1.21102-.33355,1.21102-.9914-.23558-2.0093-.33954-3.02763-.3092-1.28289,0-2.56579.3092-2.87369.3092-1.91679-1.73057-3.56821-3.73628-4.90067-5.95204-4.82368-7.34343-5.38815-7.57533-8.62105-7.57533v8.1422c0,3.27233.51315,3.78767,4.41316,3.78767.41054,0,.46184,0,.46184.66993s0,.92759-.46184.92759c-.84672,0-3.1046-.3092-6.59408-.3092s-5.72172.3092-6.56841.3092c-.41054,0-.46184-.23189-.46184-.92759s0-.66993.46184-.66993c3.89999,0,4.41316-.51532,4.41316-3.78767l.00004-16.56781Zm4.33619,6.69926c.69737.09318,1.40046.13623,2.10395.12884,5.33685,0,7.44079-2.57664,7.44079-5.53978s-2.84803-4.74101-6.20921-4.74101-3.4125,1.08218-3.4125,5.87474c0,2.55087.07697,3.52999.07697,4.27722Z"/>
      <path class="cls-1" d="m282.8526,191.83959c0-3.24657-.48751-3.76189-4.41316-3.76189-.41054,0-.46184,0-.46184-.66993s0-.92759.46184-.92759c.84672,0,3.13027.28343,6.59408.28343,6.64538,0,11.85395-.28343,15.39474-.28343.15394,0,.20527.23189.20527.51532-.2177,1.14602-.31231,2.31218-.28224,3.47846.00979.63685.10471,1.26949.28224,1.88096.03764.16969.03764.34563,0,.51532h-1.48816c-.43618-3.65883-.89802-4.79256-6.97895-4.79256-4.54144,0-4.875.18036-4.875,3.9938v6.46738h3.74605c2.33488,0,3.64342-.28343,4.49013-3.01467.23091-.74723.33355-.87605,1.02632-.87605s.56448,0,.56448.36073c0,.8503-.1796,4.14839-.1796,5.64285,0,1.93248.1796,2.96314.1796,3.2981s0,.28343-.79539.28343-.79539,0-.79539-.3865c-.02578-1.1032-.40353-2.16897-1.07763-3.04044-.69275-.51532-1.1546-.66993-3.02763-.66993h-4.13092v6.1324c-.06779,1.61427.10518,3.22965.51315,4.79256.61578.56686,1.51381.8503,5.13158.8503,1.73123.18856,3.48256-.00489,5.13158-.56686,2.07828-.79875,3.28421-4.66372,3.79738-4.66372s1.30856.3865,1.30856.61839-1.92434,4.61219-2.23224,5.59131c-.3079.97912-.28224.92759-.61578.92759-2.33488,0-11.08421-.3092-14.9842-.3092-3.46381,0-5.74736.3092-6.59408.3092-.41054,0-.46184-.23189-.46184-.92759s0-.66993.46184-.66993c3.92565,0,4.41316-.51532,4.41316-3.78767l-.30792-16.59356Z"/>
      <path class="cls-1" d="m329.39604,192.71563c0,.3865-.15394.48957-.51315.48957-.36504.00497-.7286-.04718-1.07763-.15459-.28989-2.83462-2.60472-5.02765-5.43948-5.15328-2.27956-.13598-4.26028,1.5576-4.49013,3.83919,0,6.4416,13.23946,5.15328,13.23946,14.6611,0,4.38028-3.92565,7.91029-9.59605,7.91029-2.44237.04089-4.85985-.49763-7.05592-1.57175-.33282-1.91017-.56407-3.83679-.69275-5.77167l.3079-.28343h.38487c.27404-.01946.54837.03385.79539.15459.49246,3.17362,3.16627,5.54474,6.36317,5.64285,2.59734.22943,4.8881-1.69904,5.11656-4.30737.01713-.19558.02214-.39204.01501-.58825,0-6.4416-12.82895-5.15328-12.82895-14.04269,0-3.58153,2.56579-7.47227,8.69802-7.47227,2.26386-.01386,4.50702.43317,6.59408,1.31409l.17958,5.33363Z"/>
      <path class="cls-1" d="m351.92366,188.77338h-3.82304c-3.56645,0-4.49013.4638-5.67041,3.04044-.33357.79875-.51315.90182-.69277.90182-.41649-.00147-.82463-.1173-1.18028-.33496l1.25725-7.13729c0-.28343,0-.3865.71842-.3865s1.1546,0,1.38551.66993c.48751,1.36562,1.12895,1.36562,13.39342,1.36562,6.5941,0,7.44077-.33496,8.74935-1.59753.1965-.27331.51104-.43604.84672-.43802.33357,0,1.12895.15459,1.12895.3865s-1.23157,3.76189-2.20658,7.3692c-.1068.04439-.22676.04439-.33357,0-.45153-.03882-.89362-.15198-1.30854-.33496.24669-.73954.37651-1.51333.38485-2.29321,0-.79875-.28224-1.31409-3.79736-1.31409h-4.54146v19.60825c0,3.27233.51315,3.78767,4.4388,3.78767.38485,0,.43618,0,.43618.66993s0,.92759-.43618.92759c-.87236,0-3.13027-.3092-6.5941-.3092s-5.74738.3092-6.5941.3092c-.41054,0-.46182-.23189-.46182-.92759s0-.66993.46182-.66993c3.92565,0,4.4388-.51532,4.4388-3.78767l.00012-19.5052Z"/>
      <path class="cls-1" d="m420.99471,193.95243c-.94878-3.87975-4.58304-6.47721-8.54408-6.10665-6.4658,0-9.82698,6.0551-9.82698,11.18264,0,6.0551,3.64342,13.34701,10.9046,13.34701,2.98071.28249,5.81257-1.36174,7.05592-4.09685l1.41119-3.24657,1.48816.23189c-.46182,1.70059-1.0263,4.61219-1.48816,6.95693-2.75054,1.18101-5.68552,1.86991-8.67238,2.03555-10.26316,0-15.80527-6.8281-15.80527-13.55314-.01914-8.12553,6.52464-14.72817,14.61595-14.74738.18268-.00043.36532.00256.54788.00898,3.04715-.00417,6.07069.53679,8.92894,1.59753.13668,2.14418.40227,4.2781.79539,6.39008h-1.41115Z"/>
      <path class="cls-1" d="m445.11311,188.87644c1.07606-1.15459,2.32211-2.13653,3.69474-2.9116.23091,0,.41054.23189,1.7704,3.55576l8.2362,19.60825c.59212,1.97587,2.49751,3.25153,4.54146,3.04044.28224,0,.33357,0,.33357.66993s0,.92759-.46182.92759-2.43749-.3092-4.64407-.3092c-4.25922,0-6.36315.3092-7.15853.3092s-.69277-.3092-.69277-.97912.17962-.61839.69277-.61839h.84672c1.6421,0,2.28355-.36073,2.28355-1.44291-.07873-.62391-.25178-1.23214-.51315-1.80364l-2.10397-5.43672h-9.77565c-1.09321,2.05788-1.78962,4.30456-2.05264,6.62197,0,1.77789,1.43684,2.00978,3.92565,2.00978.13327.19955.21282.43034.23091.66993,0,.69568-.23091.92759-.56448.92759-1.50602-.19709-3.02272-.30036-4.54146-.3092-.79539,0-5.13158.3092-5.56776.3092s-.56448,0-.56448-.87605c-.00642-.24934.04635-.49665.15394-.72146,2.07903.28461,4.04914-1.01236,4.61843-3.04044l7.31244-20.20092Zm-2.25791,12.88321h8.2362l-4.64407-10.95073-3.59213,10.95073Z"/>
      <path class="cls-1" d="m505.81969,204.23323c0,7.52379.6158,7.93606,4.25922,7.93606.79539,0,.97501.20614.97501.66993s-.17962.92759-.41054.92759c-.74406,0-2.33488-.3092-6.31186-.3092-1.59078,0-5.13158.3092-6.4658.3092-.33357,0-.46182,0-.46182-.79875s0-.79875.56448-.79875c3.5408,0,3.92565-.69568,3.92565-4.9214v-16.77394h0c-2.38617,5.53978-8.74935,20.09781-9.8783,23.78241h-1.18028c-1.07763-3.91649-6.02962-14.81569-9.31383-22.46832h-.1283c-.17962,5.35942-.38485,11.23416-.38485,16.15554,0,3.42694.66709,4.22569,3.90001,4.22569.51315,0,.69277,0,.69277.90182s0,.69568-.41054.69568-3.23288-.3092-4.87498-.3092c-1.98902-.04038-3.97839.06295-5.95265.3092-.28224,0-.35921,0-.35921-.69568s0-.90182.64145-.90182c3.56645,0,3.97698-1.31409,4.20789-4.97292.23091-3.65883.56448-9.86854.56448-14.94453,0-3.42694-.51315-4.17417-4.49013-4.17417-.46182,0-.51315,0-.51315-.56686s0-1.03066.38485-1.03066,2.38617.28343,4.95195.28343c.86148-.02475,1.71954-.11954,2.56579-.28343.74406,0,.89804.12884,1.12895.64416l9.10856,19.78861,8.44143-19.27329c.46182-1.10796.51315-1.15948.87236-1.15948s3.46383.28343,5.13158.28343c.98868-.02955,1.97434-.12422,2.95064-.28343.41054,0,.51315,0,.51315.8503s0,.74723-.43618.74723c-3.82304,0-4.15657.23189-4.15657,5.15328l-.05125,11.00227Z"/>
      <path class="cls-1" d="m526.73086,191.91688c0-3.09196-.15394-3.83919-2.43749-3.83919-.6158,0-1.74472.28343-2.02696.28343s-.35921-.15459-.35921-.51532c.01727-.36657.07756-.72981.17962-1.08218,2.20658-.28343,8.80064-.79875,11.52041-.79875,7.69737,0,12.39277,2.57664,12.39277,8.16795,0,5.30788-5.90132,7.72993-10.00656,7.72993-.87267.01423-1.74108-.1253-2.56579-.41227-.02666-.18801-.02666-.37885,0-.56686,0-.51532,0-.66993.33357-.66993h1.20592c3.4127.12805,6.28261-2.54639,6.41013-5.97352.00258-.0701.00403-.14026.00427-.21042.31704-3.25746-2.05554-6.15627-5.2993-6.47463-.40509-.03977-.8132-.03733-1.21779.00725-3.13027,0-3.69474,1.15948-3.69474,4.0711v16.74817c0,3.27233.51315,3.78767,4.41316,3.78767.41054,0,.46182,0,.46182.66993s0,.92759-.46182.92759c-.84672,0-3.10462-.3092-6.56841-.3092s-5.74738.3092-6.5941.3092c-.41054,0-.46182-.23189-.46182-.92759s0-.66993.46182-.66993c3.92565,0,4.41316-.51532,4.41316-3.78767l-.10265-16.46474Z"/>
      <path class="cls-1" d="m243.95525,241.95526c0-.8503,0-1.00489-1.18026-1.00489,0,0-.1283,0-.1283-.18036s0-.23189.1283-.23189h5.85c-.03369.30828-.03369.61931,0,.92759-.02147.17111-.02147.34422,0,.51532h-.41054c-.1283-.97912-.23091-1.28832-1.84737-1.28832s-1.30856,0-1.30856,1.08218v1.75212h1.00066c.61578,0,.94935,0,1.18026-.82452,0-.18036,0-.20614.28224-.20614s.15394,0,.15394,0v2.39626c0,.10305,0,0-.20527,0h-.23091c-.00368-.29812-.10263-.58715-.28224-.82452-.1796-.12884-.3079-.18036-.79539-.18036h-1.10329v1.59753c-.06323.42709-.06323.86123,0,1.28832.1796.15459.41054.23189,1.35987.23189.45041.03135.90272-.02105,1.3342-.15459.53881-.20614.87236-1.26255,1.00066-1.26255s.35921,0,.35921.18036-.51315,1.2368-.59014,1.49446,0,.23189-.1796.23189h-5.74736c-.23093,0-.1283,0-.1283-.23189s0-.18036.1283-.18036c1.05198,0,1.18026-.15459,1.18026-1.00489l.17964-4.12262Z"/>
      <path class="cls-1" d="m256.8355,242.18717v.15459h-.28224c-.0757-.76421-.69853-1.35675-1.4625-1.39139-.6102-.03098-1.13882.4208-1.20592,1.03066,0,1.70059,3.54078,1.36562,3.54078,3.89073-.10498,1.27639-1.22043,2.22564-2.49144,2.12024-.02482-.00206-.0496-.00452-.07435-.00739-.64818.01496-1.29051-.1264-1.87303-.41227-.1053-.50897-.16539-1.02634-.1796-1.54598h.3079c.13323.84636.84104,1.48176,1.69343,1.52021.69066.07189,1.30858-.43207,1.38016-1.12565.00646-.06259.00826-.12558.00536-.18844,0-1.72635-3.43815-1.39139-3.43815-3.73612,0-.95336.66711-1.98401,2.33488-1.98401.59787-.00478,1.19079.10906,1.74474.33496l-.00002,1.33986Z"/>
      <path class="cls-1" d="m263.32694,241.15651h-1.02632c-.94935,0-1.18026,0-1.51381.82452,0,.20614,0,.23189-.1796.23189-.10134.0232-.20656.0232-.3079,0l.33355-1.90671h.1796c.1796,0,.3079,0,.38487.18036s.28224.36073,3.56645.36073c1.74474,0,1.97565,0,2.33488-.43802.07345-.03307.15746-.03307.23091,0h.3079s-.33355,1.00489-.59014,1.95825h-.35921c.02878-.20511.02878-.41327,0-.61839,0-.20614,0-.36073-1.02632-.36073h-1.20592v5.15328c0,.8503,0,1.00489,1.18026,1.00489v.41225h-3.51514c-.23093,0,0,0,0-.23189s0-.18036,0-.18036c1.05198,0,1.18026-.15459,1.18026-1.00489l.02568-5.38519Z"/>
      <path class="cls-1" d="m275.51444,247.72693c-.1796,0-.20527,0-.20527-.15459s0,0,.25658-.25766l.23091-.18036c2.56579-2.08707,3.20724-3.09196,3.20724-4.01956.00237-.68306-.54709-1.2387-1.22728-1.24108-.03569-.00014-.07135.0013-.10692.00429-.40915.01535-.79601.19112-1.07763.48957-.1796.20614-.20527.23189-.23091.23189s-.28224,0-.28224-.23189,0,0,.3079-.43802c.44094-.64888,1.16787-1.04269,1.95001-1.05643,1.00447-.05736,1.86509.71385,1.92221,1.72259.003.05272.0037.10556.00213.15837,0,.97912-.61578,1.64905-2.20658,3.01467l-.82105.72146h4.0796c-.18859.45711-.45806.87615-.79539,1.2368l-5.0033-.00002Z"/>
      <path class="cls-1" d="m287.98418,240.87308c1.92009.28772,3.24439,2.08407,2.9579,4.01228-.22817,1.53566-1.42873,2.74128-2.9579,2.97042-1.91281.02847-3.48642-1.50564-3.51477-3.42655-.00025-.0173-.00037-.03462-.00037-.05192-.04338-1.89214,1.44887-3.46134,3.33305-3.5049.06068-.0014.12141-.00118.18209.00067Zm0,5.92628c1.32911.0883,2.47786-.92215,2.56579-2.25688.00701-.10647.00701-.21329,0-.31976,0-1.64905-1.25723-2.26744-2.56579-2.26744-1.29873-.11406-2.44362.85077-2.5572,2.15499-.00476.05455-.00761.10924-.00859.16399.02768,1.39292,1.15289,2.51146,2.54015,2.5251h.02564Z"/>
      <path class="cls-1" d="m294.42432,247.72693c-.1796,0-.20527,0-.20527-.15459s0,0,.25658-.25766l.20527-.18036c2.56579-2.08707,3.2329-3.09196,3.2329-4.01956-.01184-.69718-.58425-1.25274-1.27849-1.24085-.02717.00047-.0543.00183-.08138.00405-.40147.01651-.77992.19265-1.05198.48957-.1796.20614-.20527.23189-.23091.23189s-.3079,0-.3079-.23189,0,0,.33355-.43802c.43275-.64485,1.15019-1.0387,1.92434-1.05643,1.01869-.05705,1.89055.72602,1.94736,1.74901.00245.04394.00333.08795.00264.13195,0,.97912-.61578,1.64905-2.20658,3.01467l-.84672.72146h4.10526c-.17933.45595-.44021.87512-.76974,1.2368l-5.02893-.00002Z"/>
      <path class="cls-1" d="m306.86839,240.87308c1.92009.16582,3.3428,1.86336,3.17768,3.79158-.14541,1.69823-1.48658,3.04508-3.17768,3.19112-1.91297.01423-3.4752-1.53155-3.48938-3.45261-.00006-.00861-.0001-.01724-.0001-.02585-.05757-1.87752,1.41139-3.44642,3.281-3.50423.06947-.00214.13901-.00214.20848,0Zm0,5.92628c1.32911.0883,2.47786-.92215,2.56579-2.25688.00701-.10647.00701-.21329,0-.31976,0-1.64905-1.23159-2.26744-2.56579-2.26744-1.31408-.10018-2.46022.88837-2.55998,2.20799-.0028.03696-.00474.07395-.00581.11099.02795,1.40287,1.16855,2.52537,2.56579,2.5251Z"/>
      <path class="cls-2" d="m233.48682,106.4239c1.87756.30959,3.79284.30959,5.67039,0,3.69721-.65184,7.35495-1.51208,10.95591-2.57664,2.65519-.70258,5.1656-1.87151,7.41513-3.4527,1.66777-1.23679,3.25854-2.57664,4.90067-3.86496,1.31523-1.20178,2.70342-2.32047,4.15659-3.34963.77814-.7059,1.97876-.64466,2.6817.13676.0129.01434.02559.02888.03804.0436,2.20658,1.93248,1.89868,1.41715,2.05264,4.09686.08339,2.13644.37559,4.25947.87236,6.33854.20527.8503.28224,1.72635.43618,2.57664.16512,1.4203.73535,2.76243,1.6421,3.86496.31859.45946.56921.96284.74408,1.49446.61578,1.33985,1.18026,2.57664,1.84737,4.01956.23091.43802.51315,1.08218,1.25723.8503.54911.43143,1.06383.90525,1.53947,1.41715.63877.79215,1.38097,1.49416,2.20658,2.08708.20527,0,.48751.3865.66711.33497.87236-.25766,1.28289.3865,1.79604.8503s1.05198.90182,1.5908,1.33985c.2147.03625.41731.12471.59014.25766.74408.56686,1.4625,1.13372,2.25789,1.62329.30499-.39519.44321-.89486.38487-1.39139-.09719-.55793-.0257-1.13231.20527-1.64905.15729-.50228.69025-.78139,1.19042-.62344.00519.00163.01036.00331.0155.00504.61578,0,1.18026.28343,1.79604.3865.45415.1362.94361-.04158,1.20592-.43802.27004-.39013.73876-.59042,1.20592-.51533,1.07594.10742,2.14231-.28113,2.89933-1.05642.35279-.30614.82311-.43838,1.28289-.36073l1.35987.20614,2.23224.3865c1.27452.29701,2.59983.29701,3.87435,0,.17361-.36513.39826-.70351.66711-1.00489.33509-.21826.71018-.36718,1.10329-.43802.3975-.08717.80038-.14744,1.20592-.18036.75226-.05307,1.48164-.28252,2.12961-.66992.9784-.5737,2.10113-.85109,3.2329-.79876h3.02763c1.00066,0,1.82171,0,2.71973-.2319l2.00131-.18036c-.07807-.15029-.16371-.29648-.25658-.43802-.74408-.69569-1.4625-1.41715-2.23224-2.06131s-2.18092-1.70058-3.30987-2.44781c-1.04351-.73807-1.99158-1.60359-2.82236-2.57664l.38487-.59263c-.51802-.52835-1.11545-.97177-1.7704-1.31408-.55508-.34419-.95876-.88777-1.12895-1.52022.10905-.17082.22905-.33435.35921-.48956-1.23787-.92365-2.56103-1.72608-3.95132-2.39628-.18342-.08847-.37191-.16591-.56448-.2319-.66711-.33497-.66711-.36073-.56448-1.39139-.95853-.72493-2.001-1.33056-3.1046-1.80365-.84672-.33497-1.69343-.72146-2.56579-1.08218s-.92369-.28343-1.23159-.79876-.74408-.48956-1.1546-.69569l-1.00066-.64421c-.06356-.87161.55093-1.64577,1.41119-1.77788,1.07763-.32638,2.15527-.63557,3.2329-.92759,1.20473-.28214,2.28007-.96274,3.05328-1.93248.74152-.90912,1.73145-1.58082,2.84803-1.93248,1.15141-.27685,2.14735-.99917,2.77106-2.00978.3302-.45537.73854-.84801,1.20592-1.15949,1.35987-1.13372,2.77106-2.21591,4.15659-3.32387.22623-.20187.44043-.41697.64145-.64416.17939-.19691.17939-.49878,0-.69569-.17596-.18835-.17596-.48158,0-.66993.33355-.36073.33355-.69569-.23091-.97912l2.41185-2.31898,1.89868-1.75212c.48751-.4638,1.00066-.92759.82105-1.70058.49561-1.22158,1.16074-2.36664,1.97565-3.40117.82105-.97912,1.66777-1.93248,2.56579-2.9116.35921-.4638.84672-.92759.56448-1.62328.28224-.74723.20527-1.59752.76974-2.24168.3198-.39987.6113-.82175.87236-1.26255.88434-1.10913,1.5308-2.38991,1.8987-3.7619.11698-.34269.2719-.67112.46182-.97912,1.07179-1.91299,2.37293-3.6869,3.87433-5.28211l3.4125-3.6846,1.30854-1.59752c-.17962-.43803-.46182-.33496-.69277-.28343l-6.97895,1.59752c-1.12895.25767-2.25791.59263-3.38686.85029-1.11789.36075-2.32025.36075-3.43815,0-.20452-.02482-.41126-.02482-.61578,0-1.36568.09915-2.70327.43932-3.95132,1.00489-.88912.51551-1.98458.51551-2.87369,0l-.28224-.1546h-.23091c-.89434.21187-1.75703.54108-2.56579.97912-.71137.41979-1.55321.55763-2.36052.3865-.34423-.07206-.70287-.00742-1.00066.18036l-2.05264,1.00489c-.23005.10413-.47104.18193-.71842.2319-.46781.11574-.94048-.17126-1.05572-.64105-.01065-.04336-.01797-.08746-.0219-.13194-.02562-.46344-.02562-.92795,0-1.39139v-1.08219c-.37538.03789-.75358.03789-1.12895,0-.30021-.01932-.59507-.08899-.87236-.20613-.43921-.16121-.66511-.64946-.50458-1.09052.0053-.01456.01098-.02896.01707-.0432,0-.28343.25658-.56686.38487-.85029.41054-1.03066.84672-2.06131,1.25723-3.11774.24714-.63114.30074-1.32205.15394-1.98402-.35024.02409-.70174.02409-1.05198,0-.46762-.00022-.84654-.38109-.8463-.85069.00002-.06935.00852-.13844.02525-.20573,0-.33496.20527-.66993.28224-1.03066.33355-1.36562.69275-2.75701,1.02632-4.14839.02625-.30003.02625-.60179,0-.90183-.40713-.0816-.80968-.18481-1.20592-.3092-.3477-.14025-.55077-.50518-.48751-.87606.04592-.35229.13202-.69811.25658-1.03066.33355-1.29274.33355-2.64952,0-3.94226-.04297-.24392-.15938-.46875-.33355-.64416-.35298-.37973-.48845-.91416-.35921-1.41715,0-.82452.23091-1.62328.28224-2.44781.05133-.90968.05133-1.82156,0-2.73124.01323-.71478-.21263-1.41337-.64145-1.98401-.4446-.62906-.6536-1.39562-.59014-2.16438,0-2.57664.23091-4.99869.35921-7.49803,0-1.62328.15394-3.24657.25658-4.86985.10263-1.62328.28224-2.73124.41054-4.09686V.13742c0-.3092-.3079,0-.35921,0-1.65146,1.99194-3.14422,4.11133-4.46447,6.33854-1.4625,2.26745-2.87369,4.56066-4.36183,6.8281-.78182.93076-1.47747,1.93121-2.07828,2.9889,0,.20613-.35921.48956-.56448.4638-.82105,0-1.10329.61839-1.4625,1.13372-.65133.82656-1.2594,1.68661-1.82171,2.57664-.34431.83759-1.26778,1.27334-2.12961,1.00489h-.28224c-.9553,1.37721-1.72326,2.87631-2.28355,4.45759-.38487,1.33985-.59014,1.49445-1.97565,1.64905h-.25658c-.78108.82166-1.35319,1.82046-1.66777,2.91161-.15833.59915-.47791,1.14295-.92369,1.57175-.17091.1714-.30994.3721-.41054.59263,0,.18036,0,.3865-.20527.59263-.53881,1.21102-.79539,1.36562-2.25789,1.39139-.44589.81343-.79057,1.67879-1.02632,2.57664-.14723.53303-.34484,1.05071-.59014,1.54599-.33355.72146-.43618.74723-1.53947.79876-.21139.31259-.38374.65008-.51315,1.00489-.45703,1.40947-.72453,2.87393-.79539,4.35453.0535.24618.0535.50105,0,.74723,0,.25767-.35921.66993-.53881.66993-.87236,0-.97499.77299-1.4625,1.15949s-.46184,1.08219-.56448,1.59752c-.10263.51533-.38487-.18036-.43618-.3092-.20527-.56686-.38487-1.15949-.56448-1.75212-.20431-.53002-.65529-.9251-1.20592-1.05642,0,0-.35921,0-.64145.18036s-.1796-.48956-.23091-.72146c-.16939-.79033-.50148-1.53635-.97499-2.19015-.26139-.3807-.44456-.80992-.53881-1.26255-.20527-.59263-.38487-1.15949-.56448-1.75212-.15249-.45689-.55066-.78677-1.02632-.85029l-1.4625.59263c-.46012-.89688-.82972-1.83775-1.10329-2.80854-.488-.53595-1.26103-.70156-1.92434-.41226-.66711-1.21102-1.30856-2.39628-1.95001-3.53-.16958-.47965-.49493-.88806-.92369-1.15949-.48751-.2319-.89802,0-1.3342,0h-.3079c-1.7704-2.03555-3.00197-4.61219-5.54211-6.00358-.28224.18036-.51315.36073-.76974.48956-.19981.10599-.40539.20061-.61578.28343l-.92369-.82452c-.81716-.72918-1.72226-1.35245-2.69405-1.85518-.60284-.37334-1.13314-.85352-1.56513-1.41715-1.00066-1.41715-2.28355-2.80854-3.56645-4.12263-1.28289-1.31409-2.07828-2.24168-3.1046-3.34963-.28224-.3092-.59014-.54109-.97499-.90182-.23686.84241-.23686,1.73423,0,2.57664.48751,1.98401.97499,3.96803,1.48816,5.92628.36757,1.44194.58258,2.9188.64145,4.40606.00879.75902.06879,1.51657.1796,2.26745.15394.85029,0,1.39139-.87236,1.67482,0,0-.15394.12883-.28224.28343.23091,1.49445.43618,3.0662.69275,4.61219.25658,1.54599.28224,1.52022-1.00066,2.57664.35921.95336.69275,1.95825,1.07763,2.96314.23091.61839.48751,1.21102.71842,1.82941.26844.51978.19748,1.15093-.1796,1.59752-.23829.26657-.30767.64478-.1796.97912,0,.48956.28224.97912.38487,1.46869s.15394,1.10796.25658,1.67482l-1.20592,1.05642c.61578,1.39139,1.25723,2.75701,1.89868,4.14839.15394.36073.35921.72146.48751,1.10796.1283.3865.1796.90183.28224,1.39139l-.76974.90183c.42901,1.21121,1.02495,2.35607,1.7704,3.40117.55128.67399.9379,1.46814,1.12895,2.31898l-.53881.66993c.34433,1.57888,1.25829,2.97396,2.56579,3.9165.54382.37476.96376.90414,1.20592,1.52022.24824.61999.72664,1.11888,1.3342,1.39139.46184.2319.87236.48956,1.3342.77299-.04115,1.09665.57532,2.11153,1.56513,2.57664l1.4625.79876c.75408.3612,1.44678.83944,2.05264,1.41715-.82105.28343-1.38553-.3865-2.07828-.20613v.41226c-.59141-.36334-1.2089-.682-1.84737-.95336-.67247-.23648-1.35779-.43434-2.05264-.59263h-.43618l-5.59342-.33496c-.45489-.0532-.89742-.1839-1.30856-.3865-1.06394-.38634-2.1644-.66261-3.28421-.82452-.44064.90831-1.53107,1.28592-2.43555.84342-.04434-.0217-.0878-.04519-.13024-.07043-1.13154-.34974-2.30585-.54051-3.48947-.56686-.1465.12163-.26844.27032-.35921.43803-.2646.45878-.79096.69716-1.30856.59263l-1.20592-.20613-2.56579-.20613q-.84672.97912-2.00131,1.00489h-6.23487c-.78719.01181-1.55392.25355-2.20658.69569,0,.2319.1796.48956.35921.61839.60731.46194,1.26081.85917,1.95001,1.18525,1.63506.82239,3.14661,1.87194,4.49013,3.11774.79539.64416,1.43684,1.44292,2.20658,2.19014-.25783,1.12067.25519,2.27723,1.25723,2.8343.69275.48956,1.43684.92759,2.10395,1.36562.20527.69569-.28224,1.13372-.38487,1.67482.11841.50511.44483.93595.89802,1.18525l.76974.48956,4.43882,2.31898c.08676.04744.15803.11902.20527.20614l-.51315,1.31408c.59014.87606,1.53947.87606,2.30921,1.23679l2.30921,1.13372,2.36052.95335c.15394.48956-.38487.56686-.46184,1.00489-.07697.43802.33355.36073.64145.33497.91124-.11227,1.83559-.04221,2.71973.20614.52697.15925,1.04153.35733,1.53947.59263.89802.36073,1.7704.74723,2.7967,1.21102l3.97698-.79876c-.25278.51882-.72337.8969-1.28289,1.03066l-1.92434.51533c-.70716.09332-1.36012.43029-1.84737.95335-.25714.2509-.59227.40552-.94935.43802-2.28355.43802-4.59277.79876-6.87632,1.23679-.56448,0-1.07763-.25766-1.61644,0s-1.05198.36073-1.5908.54109l-.74408.28343c.6158.18038.84672.46382.84672.82454Zm39.17961-25.76642c.0913.7647-.16283,1.53032-.69275,2.08708-.69275.79876-1.43684,1.57175-2.10395,2.42204-.56172.81361-1.43578,1.35522-2.41185,1.49446,0-.43802-.1796-.87606-.23091-1.31408,0-.92759,0-1.85519-.25658-2.75701-.12773-.5422-.12773-1.10685,0-1.64905.1919-.58578.1919-1.21788,0-1.80365-.13895-.45354-.04264-.94682.25658-1.31409.55438-.80536,1.019-1.66942,1.38553-2.57664.51315-1.00489,1.25723-1.23679,2.07828,0,.11197.16597.21476.33801.3079.51533.94514,1.49183,1.52539,3.18704,1.69339,4.94714l-.02564-.05153Zm1.02632,9.09554c-1.4706.74916-3.23969.57853-4.54144-.43802.2666-1.11971.8989-2.11753,1.79604-2.8343.70569-.57548,1.35834-1.21364,1.95001-1.90672,1.35896-1.37025,3.20581-2.13993,5.13158-2.13861.5263-.08224,1.02777.2535,1.1546.773.15394.54109.23091,1.10796.33355,1.64905.08801.40951-.01603.83693-.28224,1.15949-.25658.30919-.51315.6184-.79539.90182-1.32588,1.3213-2.94334,2.31-4.72106,2.88584l-.02564-.05153Zm-3.54078,1.93248c.56358-.60263,1.40912-.84947,2.20658-.64416l4.36183,1.15949c.15394,0,.3079.18036.69275.3865-1.539.37586-3.11241.59171-4.6954.64416-1.04993-.01331-2.01519-.58121-2.54013-1.49446l-.02564-.05153Zm-8.74935-4.58642c-.51041-.26468-.83542-.78886-.84672-1.36562.02243-.82452-.34958-1.61001-1.00066-2.11285-.48751-.51533-1.00066-1.03066-1.51381-1.52022l-2.10395-2.00978c-.13971-.1379-.26051-.29387-.35921-.4638-.06417-.12987-.06417-.2824,0-.41226.07762-.12499.21257-.20245.35921-.20613.93336.21856,1.88971.32238,2.84803.3092.72106-.05667,1.42881.21815,1.92434.74723.47713.45806,1.04556.80934,1.66777,1.03066,1.2946.33958,2.3742,1.2352,2.95066,2.44781.42539.7903.63767,1.67855.61578,2.57664.03739.66558-.21549,1.31454-.69275,1.77788-.20472.27077-.37694.56482-.51315.87606h-.33355c-.64495-.56563-1.40763-.97938-2.23224-1.21102-.2713-.09001-.52362-.22979-.74412-.41226l-.02564-.05153Z"/>
      <path class="cls-1" d="m225.17367,147.00601h-6.13223c-.23093,0-.1283,0-.1283-.2319s0-.18036.1283-.18036c1.05198,0,1.18026-.1546,1.18026-1.00489v-4.27723c0-.87606,0-1.00489-1.18026-1.00489,0,0-.1283,0-.1283-.18036s0-.25766.1283-.25766h3.51514c.23093,0,.1283,0,.1283.25766s0,.18036-.1283.18036c-1.05198,0-1.18026.12883-1.18026,1.00489v3.99379c0,1.13372.38487,1.33985,1.51381,1.33985s1.79604-.2319,2.00131-.6184l.3079-.64416h.38487c.01959.15397.01959.30982,0,.4638l-.41054,1.15949Z"/>
      <path class="cls-1" d="m229.61247,141.31164c0-.87606,0-1.00489-1.18026-1.00489v-.43802h3.51514c.23093,0,0,0,0,.25766s0,.18036,0,.18036c-1.05198,0-1.18026.12883-1.18026,1.00489v2.96314c0,1.75212.84672,2.42204,2.10395,2.42204s1.95001-.92759,1.95001-2.57664v-2.42204c0-1.33985,0-1.39139-1.05198-1.39139v-.43802c.4529.02654.90697.02654,1.35987,0h1.41119c.1796,0,0,0,0,.2319s0,.20614,0,.20614h-.20527c-.66711,0-.84672.25766-.84672,1.05642v3.24656c0,1.95824-1.18026,2.57664-2.84803,2.57664-.87727.03032-1.73522-.26299-2.41185-.82452-.51315-.51533-.64145-.90182-.64145-2.13862l.02566-2.91161Z"/>
      <path class="cls-1" d="m242.64669,143.88828c.07047-.0689.11569-.1597.1283-.25766l-.20527-.36073-1.6421-2.37051c-.17354-.39166-.57538-.62964-1.00066-.59263h0v-.30919c.46128.03256.92425.03256,1.38553,0h1.35987q.20527,0,.20527.20614c0,.20614,0,.2319-.15394.2319-.56448,0-.59014,0-.59014.18036s0,.2319.38487.66992l1.05198,1.54598,1.07763-1.54598c.15574-.18479.26174-.40655.3079-.64416,0-.18036,0-.20614-.41054-.20614s-.23091,0-.23091-.1546,0-.28343.1283-.28343h2.18092c.23091,0,0,0,0,.20614v.2319c-.46184,0-.82105,0-1.3342.87606l-1.3342,1.85519h0l1.74474,2.57664c.59014.90182.74408,1.00489,1.20592,1.00489s.15394,0,.15394.20614v.20614c-.48715-.02624-.97535-.02624-1.4625,0-.5042-.02845-1.0096-.02845-1.51381,0v-.2319c0-.2319,0-.18036.15394-.18036s.64145,0,.64145-.30919,0-.28343-.43618-.79876l-1.05198-1.49446h0l-1.18026,1.64905c-.15974.20192-.26568.44133-.3079.69569,0,.1546,0,.2319.69275.2319v.41226c-.46429-.09474-.93753-.13795-1.41121-.12885-.4528-.0302-.90707-.0302-1.35987,0v-.41226c.69275,0,.76974,0,1.28289-.77299l1.53947-1.93248Z"/>
      <path class="cls-1" d="m251.44735,141.31164c0-.82452,0-1.00489-.64145-1.00489h-.53881v-.12883c-.01683-.09372-.01682-.18971,0-.28343.59014,0,2.33488-.20614,3.07894-.20614,2.02698,0,3.28421.64416,3.28421,2.16438s-1.56513,2.06131-2.56579,2.06131c-.22972.03348-.46304.03348-.69275,0-.012-.05083-.012-.10378,0-.1546v-.18036h.3079c.90591.04269,1.67476-.6602,1.71727-1.56994.00123-.02635.00182-.05272.0018-.0791.0913-.8632-.53149-1.63728-1.39105-1.72898-.11763-.01254-.23628-.01166-.35369.00263-.82105,0-.97499.30919-.97499,1.08218v4.43183c0,.8503,0,1.00489,1.18026,1.00489v.41226h-3.51514c-.23093,0,0,0,0-.2319s0-.18036,0-.18036c1.05198,0,1.18026-.1546,1.18026-1.00489l-.07697-4.40606Z"/>
      <path class="cls-1" d="m261.12036,141.31164c0-.87606,0-1.00489-1.18026-1.00489v-.43802h5.87566v.12883c-.0314.3084-.0314.61919,0,.92759-.02147.17111-.02147.34423,0,.51533h-.38487c0-.97913-.25658-1.26256-1.87303-1.26256-1.20592,0-1.30856,0-1.30856,1.05642v1.75212h1.00066c.61578,0,.97499,0,1.20592-.82452,0-.18036,0-.20614.28224-.20614s0,0,0,0v2.39628c0,.10307,0,0-.20527,0h-.20527c-.00368-.29811-.10263-.58714-.28224-.82452-.1796,0-.3079-.18036-.82105-.18036h-1.10329v1.59752c-.01672.43491.03524.86973.15394,1.28832.15394.1546.41054.2319,1.3342.2319.45053.03705.90391-.01549,1.3342-.1546.56448-.20614.87236-1.26256,1.02632-1.26256s.33355,0,.33355.18036-.51315,1.23679-.59014,1.49446,0,.2319-.15394.2319l-3.84863.05153h-1.7704c-.23093,0,0,0,0-.2319s0-.18036,0-.18036c1.05198,0,1.18026-.1546,1.18026-1.00489v-4.27723Z"/>
      <path class="cls-1" d="m270.87037,141.85273c0-1.28832,0-1.41715-.69275-1.41715-.16169-.02291-.32581-.02291-.48751,0v-.25766c0-.25766,0-.1546.25658-.18036,1.14107-.13932,2.28878-.21672,3.43815-.2319,2.07601-.29885,4.0002,1.14893,4.29778,3.23372.02498.17496.0378.35144.03841.52818.0219.95368-.32795,1.87823-.97499,2.57664-.8908.83631-2.09584,1.24906-3.30987,1.13372h-3.64344c-.23093,0,0,0,0-.2319s0-.18036,0-.18036c1.05198,0,1.18026-.1546,1.18026-1.00489l-.10261-3.96803Zm1.1546,2.86007c0,1.33985,0,1.57175.25658,1.70058.31052.23206.69086.35027,1.07763.33497,1.87303,0,2.87369-1.21102,2.87369-3.24656.14294-1.60161-1.03407-3.01635-2.62894-3.1599-.12401-.01117-.24861-.01429-.37303-.00937-1.10329,0-1.20592.36073-1.20592.95335v3.42693Z"/>
      <path class="cls-1" d="m282.23682,141.31164c0-.87606,0-1.00489-1.18026-1.00489v-.43802h3.51514c.23093,0,0,0,0,.25766s0,.18036,0,.18036c-1.05198,0-1.18026.12883-1.18026,1.00489v4.40606c0,.8503,0,1.00489,1.18026,1.00489v.41226h-3.51514c-.23093,0,0,0,0-.2319s0-.18036,0-.18036c1.05198,0,1.18026-.1546,1.18026-1.00489v-4.40606Z"/>
      <path class="cls-1" d="m290.75524,140.48711h-1.02632c-.94935,0-1.18026,0-1.51381.79876,0,.20614,0,.2319-.1796.2319-.10134.0232-.20656.0232-.3079,0l.33355-1.90672h.1796c.1796,0,.3079,0,.38487.18036s.28224.36073,3.56645.36073c1.74474,0,1.97565,0,2.33488-.43802.07345-.03307.15746-.03307.23091,0h.3079s-.33355,1.00489-.59014,1.95824h-.35921c.02878-.20512.02878-.41327,0-.6184,0-.20614,0-.33497-1.02632-.33497h-1.20592v5.15328c0,.8503,0,1.00489,1.18026,1.00489v.41226h-3.51514c-.23093,0,0,0,0-.2319s0-.18036,0-.18036c1.05198,0,1.18026-.1546,1.18026-1.00489l.02568-5.38517Z"/>
      <path class="cls-1" d="m299.53023,141.31164c0-.87606,0-1.00489-1.18026-1.00489v-.43802h3.51514c.23093,0,0,0,0,.25766s0,.18036,0,.18036c-1.05198,0-1.18026.12883-1.18026,1.00489v4.40606c0,.8503,0,1.00489,1.18026,1.00489v.41226h-3.51514c-.23093,0,0,0,0-.2319s0-.18036,0-.18036c1.05198,0,1.18026-.1546,1.18026-1.00489v-4.40606Z"/>
      <path class="cls-1" d="m309.35721,139.73988c2.10042-.21595,3.97747,1.31892,4.19251,3.42823.00695.06813.01208.13643.01539.20484.00117,2.16302-1.74397,3.91744-3.8979,3.91862-.04346.00002-.08693-.00069-.13039-.00212-2.11599.20251-3.99479-1.35592-4.19646-3.48084-.00482-.05066-.00861-.10142-.01143-.15222-.00117-2.16302,1.74397-3.91744,3.8979-3.91862.04346-.00002.08693.00069.13039.00212Zm.23091,7.03423c1.5217-.11001,2.66862-1.43454,2.56579-2.96314,0-1.95824-1.05198-3.58153-2.89933-3.58153-1.51336.09397-2.66431,1.40215-2.57072,2.9219.00137.02235.00301.04469.00493.06701-.16439,1.78203,1.12727,3.36612,2.89933,3.55577Z"/>
      <path class="cls-1" d="m318.15787,140.82207c-.26163-.38586-.72083-.58636-1.18026-.51533-.20527,0-.23091,0-.23091-.18036s0-.25766.20527-.25766h2.23224c.10263,0,0,0,0,0,1.51381,1.93248,2.74539,3.55577,4.18223,5.15328v-3.86496c0-.79876-.20527-1.00489-1.00066-1.00489,0,0-.15394,0-.15394-.2319s0-.20614.1796-.20614h2.59145c.07699,0,0,0,0,.20614s0,.2319-.3079.2319c-.76974,0-.84672.1546-.84672,1.00489v5.97781h-.33355c-2.56579-2.86007-4.66974-6.02934-5.13158-6.08088v4.66373c0,.8503,0,1.00489,1.18026,1.00489v.41226h-2.95064c-.23091,0-.1283,0-.1283-.2319s0-.18036.1283-.18036c1.05198,0,1.18026-.1546,1.18026-1.00489l.38483-4.89562Z"/>
      <path class="cls-1" d="m332.55195,141.51776s0,.1546-.1283.1546h-.28224c-.08598-.75911-.70307-1.34619-1.46252-1.39139-.6102-.03098-1.13882.4208-1.20592,1.03066,0,1.70058,3.5408,1.36562,3.5408,3.9165-.10496,1.27639-1.22045,2.22564-2.49144,2.12023-.02482-.00205-.0496-.00452-.07435-.00738-.65041.00799-1.29303-.1423-1.87302-.43802-.10528-.50898-.16539-1.02634-.1796-1.54598h0c.06673-.02166.13854-.02166.20525,0,.14411.83618.84914,1.45839,1.69343,1.49446.69066.07188,1.30858-.4321,1.38015-1.12567.00646-.06258.00826-.12557.00536-.18841,0-1.70058-3.43815-1.39139-3.43815-3.73613,0-.95335.66709-1.98402,2.33488-1.98402.59787-.00477,1.19077.10906,1.74472.33497l.23095,1.3656Z"/>
    </g>
  </g>
</svg>