<svg viewBox="0 0 692 260.194" xmlns="http://www.w3.org/2000/svg" xmlns:xlink="http://www.w3.org/1999/xlink"><clipPath id="a"><path d="m-1436.41 34.475-31.59 191.768 36.103 82.348s21.436 33.841 25.949 36.098c4.513 2.256 38.359 12.409 44 12.409s113.949-24.817 119.59-27.073 118.462-28.201 118.462-28.201l7.897-99.268-19.179-91.372-44.001-111.679-144.41-12.409-112.821 47.378z"/></clipPath><g clip-path="url(#a)"><image height="1200" transform="matrix(2.079 0 0 2.079 -2558.388 15.139)" width="1600" xlink:href="../../../../../Volumes/Untitled/221118_tasoTOP/Links/23166078.png"/></g><g fill="#0f6689"><path d="m12.904 194.049c-1.617-.064-2.838-.129-4.284-.129-4.059 0-5.098.514-6.425 3.416-.386.91-.578 1.071-.771 1.071-.504-.004-.998-.149-1.424-.418l1.424-8.064c.064-.332.129-.46.835-.46.964 0 1.285.064 1.542.782.589 1.542 1.296 1.542 15.228 1.542 7.496 0 8.449-.386 9.938-1.799.386-.396.578-.525.964-.525s1.296.203 1.296.46-1.424 4.284-2.517 8.321c-.102.099-.244.146-.386.129-.513-.051-1.015-.181-1.489-.386.283-.832.435-1.702.45-2.581 0-.91-.321-1.489-4.284-1.489-.975 0-3.213.064-5.162.129v22.189c0 3.684.578 4.284 5.033 4.284.45 0 .514.064.514.771s-.064 1.071-.514 1.071c-.975 0-3.555-.321-7.496-.321s-6.522.321-7.496.321c-.45 0-.514-.257-.514-1.071s.064-.771.514-.771c4.455 0 5.033-.578 5.033-4.284l-.011-22.189z"/><path d="m50.675 194.177c.321-.835 4.059-3.288 4.187-3.288s.45.257 2.003 3.994l9.349 22.2c.687 2.223 2.847 3.653 5.162 3.416.332 0 .396.129.396.771 0 .975-.064 1.071-.525 1.071s-2.774-.321-5.29-.321c-4.83 0-7.218.321-8.128.321-.578 0-.771-.321-.771-1.071 0-.45.193-.707.771-.707.257 0 .46.064.975.064 1.863 0 2.581-.386 2.581-1.606-.081-.717-.28-1.415-.589-2.067l-2.377-6.136h-11.105c-1.671 4.134-2.313 5.687-2.313 7.496 0 2.003 1.606 2.26 4.444 2.26.152.23.24.496.257.771 0 .782-.257 1.071-.643 1.071-1.713-.206-3.436-.314-5.162-.321-.9 0-5.804.321-6.318.321s-.643-.129-.643-.975c-.005-.29.061-.577.193-.835 2.452-.064 4.187-.514 5.226-3.416l8.321-23.014zm-2.581 14.457h9.349l-5.226-12.39z"/><path d="m100.259 198.504c0 .45-.193.578-.578.578-.419.008-.835-.057-1.232-.193-.643-3.095-2.645-5.869-6.19-5.869-2.838 0-5.098 2.056-5.098 4.284 0 7.293 14.993 5.815 14.993 16.588 0 4.958-4.455 8.964-10.902 8.964-2.966 0-6.586-.835-8-1.81-.387-2.153-.648-4.327-.782-6.511l.332-.321c.129 0 .257-.064.45-.064.312-.023.624.044.9.193.545 3.604 3.585 6.306 7.229 6.425 3.673 0 5.869-2.324 5.869-5.547 0-7.293-14.586-5.933-14.586-15.871 0-4.059 2.849-8.449 9.874-8.449 2.573-.024 5.124.479 7.496 1.478l.225 6.126z"/><path d="m131.775 190.89c11.684 0 17.938 7.743 17.938 15.421 0 8.899-6.972 16.578-17.231 16.578-11.673 0-17.927-7.743-17.927-15.357.032-8.964 6.961-16.642 17.22-16.642zm.975 29.868c7.346 0 11.159-6.832 11.159-12.583 0-8.321-4.519-15.153-12.39-15.153-7.357 0-11.159 6.425-11.159 12.637 0 6.843 4.123 15.1 12.433 15.1h-.043z"/><path d="m190.354 197.529c0-3.673-.589-4.284-5.033-4.284-.46 0-.525-.064-.525-.771s.064-1.071.525-1.071c.964 0 3.545.321 7.496.321 9.874 0 12.455-.321 16.192-.321.525 0 .653.129.653.514-.243 1.169-.351 2.362-.321 3.555.01.87.117 1.735.321 2.581 0 .193-.589.321-1.071.321s-.771-.193-.771-.514c-.022-1.325-.499-2.603-1.349-3.62-.91-.771-2.452-1.071-5.483-1.071-5.751 0-5.751.964-5.751 3.288v8.642h4.519c1.592.075 3.181-.21 4.648-.835.771-.386 1.157-2.452 1.157-2.774 0-.578.064-.707.91-.707s.9.064.9.193c0 .45-.321 2.388-.321 4.444-.004 1.79.103 3.578.321 5.355 0 .46-.129.589-1.071.589-.589 0-.782-.064-.782-.653s-.386-2.709-1.071-3.095c-.846-.578-1.746-.707-3.545-.707h-5.751v9.221c0 3.684.589 4.284 5.033 4.284.45 0 .514.064.514.771s-.064 1.071-.514 1.071c-.964 0-3.545-.321-7.496-.321s-6.511.321-7.496.321c-.46 0-.525-.257-.525-1.071s.064-.771.525-.771c4.444 0 5.033-.578 5.033-4.284l.128-18.602z"/><path d="m238.17 190.89c11.673 0 17.938 7.743 17.938 15.421 0 8.899-6.972 16.578-17.231 16.578-11.673 0-17.938-7.743-17.938-15.357 0-8.964 6.972-16.642 17.231-16.642zm.964 29.868c7.357 0 11.159-6.832 11.159-12.583 0-8.321-4.509-15.153-12.38-15.153-7.357 0-11.159 6.425-11.159 12.637 0 6.843 4.123 15.1 12.38 15.1z"/><path d="m272.643 197.529c0-3.673-.578-4.284-5.033-4.284-.45 0-.514-.064-.514-.771s.064-1.071.514-1.071c.964 0 3.545.321 7.496.321 2.645 0 5.29-.321 8.257-.321 6.64 0 10.388 2.966 10.388 7.293 0 3.93-3.555 6.425-8.128 7.164 2.581 1.799 5.226 5.804 7.025 8.449 3.427 4.969 4.519 5.804 6.779 5.804.45 0 .578.129.578.771 0 1.296-.064 1.36-.386 1.36-1.121-.246-2.269-.353-3.416-.321-1.489 0-2.774.321-3.298.321s-3.416-3.491-5.547-6.715c-5.483-8.321-6.126-8.567-9.799-8.567v9.221c0 3.684.578 4.284 5.023 4.284.46 0 .525.064.525.771s-.064 1.071-.525 1.071c-.964 0-3.545-.321-7.496-.321s-6.522.321-7.496.321c-.45 0-.514-.257-.514-1.071s.064-.771.514-.771c4.455 0 5.033-.578 5.033-4.284l.021-18.655zm4.905 7.55c.79.086 1.583.129 2.377.129 6.072 0 8.46-2.774 8.46-6.254s-3.213-5.355-7.036-5.355-3.866 1.221-3.866 6.64c0 2.913.064 4.005.064 4.841z"/><path d="m316.154 197.529c0-3.673-.578-4.284-5.033-4.284-.45 0-.514-.064-.514-.771s.064-1.071.514-1.071c.975 0 3.555.321 7.496.321 7.55 0 13.483-.321 17.488-.321.193 0 .257.257.257.578-.249 1.298-.356 2.62-.321 3.941.012.725.12 1.445.321 2.142.003.2-.041.398-.129.578h-1.681c-.514-4.134-1.071-5.419-7.935-5.419-5.162 0-5.547.193-5.547 4.519v7.411h4.284c2.645 0 4.123-.321 5.098-3.416.257-.835.386-.964 1.157-.964.514 0 .643.129.643.386 0 .964-.193 4.712-.193 6.425 0 2.195.193 3.352.193 3.748s-.064.321-.9.321-.9-.064-.9-.45c0-.846-.46-2.838-1.232-3.427-.771-.589-1.285-.771-3.416-.771h-4.712v6.779c0 2.142.257 5.087.578 5.419.718.643 1.746.964 5.74.964 3.812 0 4.648-.257 5.687-.643 2.377-.91 3.737-5.29 4.284-5.29.321 0 1.489.45 1.489.707s-2.195 5.226-2.517 6.318-.321 1.071-.707 1.071c-2.645 0-12.583-.321-17.038-.321-3.93 0-6.511.321-7.496.321-.45 0-.514-.257-.514-1.071s.064-.771.514-.771c4.455 0 5.033-.578 5.033-4.284l.011-18.677z"/><path d="m368.221 198.504c0 .45-.193.578-.578.578-.419.009-.836-.056-1.232-.193-.643-3.095-2.645-5.869-6.19-5.869-2.838 0-5.098 2.056-5.098 4.284 0 7.293 14.993 5.815 14.993 16.588 0 4.958-4.455 8.964-10.902 8.964-2.966 0-6.586-.835-8-1.81-.392-2.153-.653-4.327-.782-6.511l.332-.321c.129 0 .257-.064.45-.064.312-.023.624.044.9.193.545 3.604 3.585 6.306 7.229 6.425 3.673 0 5.869-2.324 5.869-5.547 0-7.293-14.586-5.933-14.586-15.871 0-4.059 2.838-8.449 9.874-8.449 2.573-.024 5.124.479 7.496 1.478l.225 6.126z"/><path d="m393.024 194.049c-1.617-.064-2.838-.129-4.284-.129-4.059 0-5.098.514-6.425 3.416-.386.91-.578 1.071-.782 1.071-.476-.007-.941-.14-1.349-.386l1.414-8.064c.064-.332.139-.46.846-.46.964 0 1.285.064 1.542.782.589 1.542 1.296 1.542 15.228 1.542 7.496 0 8.449-.386 9.938-1.799.386-.396.578-.525.964-.525s1.296.203 1.296.46-1.424 4.284-2.517 8.321c-.102.099-.244.146-.386.129-.513-.049-1.016-.18-1.489-.386.283-.832.435-1.702.45-2.581 0-.91-.321-1.489-4.284-1.489-.975 0-3.213.064-5.162.129v22.189c0 3.684.578 4.284 5.033 4.284.45 0 .514.064.514.771s-.064 1.071-.514 1.071c-.975 0-3.555-.321-7.496-.321s-6.522.321-7.496.321c-.45 0-.514-.257-.514-1.071s.064-.771.514-.771c4.455 0 5.033-.578 5.033-4.284l-.075-22.221z"/><path d="m479.36 211.537c0 8.514.707 8.964 4.83 8.964.91 0 1.071.257 1.071.771 0 .718-.193 1.071-.45 1.071-.846 0-2.645-.321-7.164-.321-1.81 0-5.869.321-7.357.321-.386 0-.514-.064-.514-.91s0-.9.643-.9c4.005 0 4.455-.771 4.455-5.547 0-6.425-.129-12.776-.129-18.966h-.129c-2.709 6.254-9.938 22.703-11.223 26.901h-1.36c-1.221-4.455-6.832-16.77-10.581-25.423h-.129c-.193 6.072-.45 12.712-.45 18.259 0 3.877.771 4.776 4.455 4.776.578 0 .771.064.771 1.071 0 .653-.129.782-.45.782-.578 0-3.684-.321-5.547-.321-2.264-.042-4.529.065-6.779.321-.321 0-.386-.129-.386-.782 0-.9.064-1.071.707-1.071 4.069 0 4.519-1.489 4.776-5.612.321-4.519.643-11.159.643-16.899 0-3.877-.578-4.712-5.098-4.712-.514 0-.578-.064-.578-.643 0-1.071.064-1.167.45-1.167.782 0 2.709.321 5.612.321 1.021-.023 2.038-.131 3.041-.321.835 0 1.071.129 1.285.707l10.324 22.393 9.638-21.804c.514-1.232.578-1.296.964-1.296.643 0 3.93.321 5.933.321 1.123-.036 2.243-.143 3.352-.321.46 0 .589.064.589.975s-.064.835-.525.835c-4.284 0-4.701.257-4.701 5.74z"/><path d="m509.753 194.177c.321-.835 4.059-3.288 4.198-3.288s.45.257 1.992 3.994l9.36 22.2c.683 2.226 2.846 3.657 5.162 3.416.321 0 .386.129.386.771 0 .975-.064 1.071-.514 1.071s-2.774-.321-5.29-.321c-4.84 0-7.229.321-8.128.321-.589 0-.782-.321-.782-1.071 0-.45.193-.707.782-.707.257 0 .45.064.964.064 1.874 0 2.581-.386 2.581-1.606-.081-.715-.276-1.413-.578-2.067l-2.388-6.136h-11.052c-1.681 4.134-2.324 5.687-2.324 7.496 0 2.003 1.606 2.26 4.444 2.26.155.229.247.495.268.771 0 .782-.268 1.071-.653 1.071-1.713-.207-3.436-.314-5.162-.321-.9 0-5.804.321-6.318.321s-.643-.129-.643-.975c-.005-.29.061-.577.193-.835 2.452-.064 4.187-.514 5.226-3.416l8.278-23.014zm-2.581 14.457h9.349l-5.226-12.39z"/><path d="m547.438 197.529c0-3.673-.589-4.284-5.033-4.284-.45 0-.525-.064-.525-.771s.075-1.071.525-1.071c.964 0 3.545.321 7.496.321 2.645 0 5.301-.321 8.267-.321 6.64 0 10.377 2.966 10.377 7.293 0 3.93-3.545 6.425-8.128 7.164 2.581 1.799 5.226 5.804 7.036 8.449 3.416 4.969 4.519 5.804 6.779 5.804.45 0 .578.129.578.771 0 1.296-.064 1.36-.386 1.36-1.125-.245-2.276-.353-3.427-.321-1.478 0-2.774.321-3.288.321s-3.416-3.491-5.547-6.715c-5.483-8.321-6.126-8.567-9.809-8.567v9.221c0 3.684.589 4.284 5.033 4.284.45 0 .514.064.514.771s-.064 1.071-.514 1.071c-.964 0-3.545-.321-7.496-.321s-6.511.321-7.496.321c-.45 0-.525-.257-.525-1.071s.075-.771.525-.771c4.444 0 5.033-.578 5.033-4.284l.011-18.655zm4.894 7.55c.793.085 1.59.128 2.388.129 6.072 0 8.449-2.774 8.449-6.254s-3.213-5.355-7.025-5.355-3.877 1.221-3.877 6.64c0 2.913.064 4.005.064 4.841z"/><path d="m591.217 197.529c0-3.673-.578-4.284-5.033-4.284-.45 0-.514-.064-.514-.771s.064-1.071.514-1.071c.964 0 3.545.321 7.496.321s6.511-.321 7.496-.321c.45 0 .514.257.514 1.071s-.064.771-.514.771c-4.455 0-5.033.578-5.033 4.284v18.709c0 3.684.578 4.284 5.033 4.284.45 0 .514.064.514.771s-.064 1.071-.514 1.071c-.974 0-3.555-.321-7.496-.321s-6.522.321-7.496.321c-.45 0-.514-.257-.514-1.071s.064-.771.514-.771c4.455 0 5.033-.578 5.033-4.284z"/><path d="m618.921 195.537c-1.928-2.067-2.442-2.26-5.023-2.26-.846 0-.974-.129-.974-.771 0-.975.129-1.071.91-1.071s2.142.321 5.226.321c1.671 0 3.866-.321 4.284-.321.193 0 .321.064.578.386 6.425 8.192 11.619 15.164 17.809 22.136v-16.428c0-3.352-.9-4.284-4.284-4.284-.45 0-.643-.129-.643-.964s.129-.846.707-.846c1.071 0 3.427.321 5.815.321 2.142 0 4.958-.321 5.226-.321s.514.257.514.9-.193.91-1.232.91c-3.288 0-3.609.707-3.609 4.284v25.359h-1.489c-10.838-12.069-19.865-25.488-21.29-25.702v19.094c0 3.684.589 4.284 5.033 4.284.46 0 .514.064.514.771s-.054 1.071-.514 1.071c-.964 0-3.545-.321-6.425-.321-2.645 0-5.226.321-6.19.321-.46 0-.525-.257-.525-1.071s.064-.771.525-.771c4.444 0 5.023-.578 5.023-4.284l.032-20.744z"/><path d="m670.903 194.177c.321-.835 4.069-3.288 4.198-3.288s.45.257 2.003 3.994l9.349 22.2c.683 2.226 2.846 3.657 5.162 3.416.321 0 .386.129.386.771 0 .975-.064 1.071-.514 1.071s-2.774-.321-5.29-.321c-4.841 0-7.229.321-8.128.321-.578 0-.771-.321-.771-1.071 0-.45.193-.707.771-.707.257 0 .45.064.964.064 1.874 0 2.581-.386 2.581-1.606-.081-.715-.276-1.413-.578-2.067l-2.388-6.136h-11.095c-1.681 4.134-2.324 5.687-2.324 7.496 0 2.003 1.617 2.26 4.455 2.26.152.23.24.496.257.771 0 .782-.257 1.071-.643 1.071-1.713-.206-3.436-.314-5.162-.321-.91 0-5.804.321-6.329.321s-.643-.129-.643-.975c-.005-.29.061-.577.193-.835 2.452-.064 4.198-.514 5.226-3.416l8.321-23.014zm-2.581 14.457h9.36l-5.226-12.39z"/><path d="m313.776 253.666c0-.953-.15-1.071-1.296-1.071-.118 0-.139 0-.139-.203s0-.268.139-.268.91.086 1.938.086c1.949 0 3.491-.086 4.519-.086.054 0 .064.064.064.15-.062.353-.087.712-.075 1.071.002.188.028.375.075.557.014.049.014.101 0 .15h-.428c-.139-1.071-.268-1.403-2.056-1.403-1.339 0-1.435 0-1.435 1.167v1.917h1.071c.685 0 1.071-.086 1.317-.878.064-.225.096-.257.3-.257s.171 0 .171.107v2.613c0 .096 0 .086-.236.086s-.236 0-.236-.118c-.003-.321-.117-.631-.321-.878-.193-.15-.332-.203-.878-.203h-1.21v1.756c-.021.473.03.945.15 1.403.182.161.45.246 1.489.246.496.051.997-.007 1.467-.171.621-.225.964-1.36 1.071-1.36s.386.118.386.182-.568 1.349-.653 1.638-.075.268-.182.268c-.685 0-3.213-.086-4.401-.086s-1.692.086-1.938.086-.139-.075-.139-.268 0-.203.139-.203c1.146 0 1.296-.15 1.296-1.071l.032-4.958z"/><path d="m327.505 253.913c0 .118 0 .15-.15.15-.106.006-.212-.012-.311-.054-.089-.831-.771-1.472-1.606-1.51-.653-.046-1.229.423-1.317 1.071 0 1.885 3.887 1.499 3.887 4.284-.109 1.397-1.331 2.442-2.728 2.332-.029-.002-.059-.005-.088-.008-.72.008-1.432-.153-2.078-.471-.097-.56-.165-1.125-.203-1.692l.086-.075h.118c.082-.006.164.013.236.054.152.926.936 1.616 1.874 1.649.766.071 1.444-.491 1.516-1.257.006-.059.007-.119.005-.178 0-1.885-3.78-1.531-3.78-4.112.047-1.241 1.091-2.209 2.333-2.162.076.003.152.01.227.02.666-.004 1.325.127 1.938.386l.043 1.574z"/><path d="m334.124 252.735h-1.124c-1.071 0-1.317.139-1.671.889-.096.236-.15.268-.193.268-.124 0-.246-.034-.353-.096l.364-2.088c0-.086 0-.118.214-.118s.343 0 .407.193c.15.407.332.407 3.941.407 1.938 0 2.142-.096 2.57-.471.057-.079.149-.127.246-.129.107 0 .343 0 .343.118s-.375 1.071-.653 2.142c-.034.016-.073.016-.107 0-.129-.014-.255-.046-.375-.096.067-.219.103-.446.107-.675 0-.236-.075-.386-1.071-.386h-1.339v5.74c0 .953.15 1.071 1.307 1.071.118 0 .129 0 .129.203s0 .268-.129.268-.921-.086-1.938-.086-1.692.086-1.938.086-.129-.075-.129-.268 0-.203.129-.203c1.157 0 1.307-.15 1.307-1.071l-.043-5.697z"/><path d="m347.606 259.995c-.203 0-.225 0-.225-.171s0-.096.289-.3l.236-.182c2.849-2.292 3.555-3.405 3.555-4.412-.01-.769-.641-1.384-1.41-1.374-.026 0-.052.001-.078.003-.454.022-.881.222-1.189.557-.182.214-.214.236-.246.236s-.321-.118-.321-.236 0-.139.353-.503c.493-.697 1.288-1.118 2.142-1.135 1.103-.077 2.06.754 2.138 1.858.005.066.006.132.004.199 0 1.071-.685 1.821-2.431 3.309l-.921.782c.2.01.4.01.6 0 1.799 0 3.823-.064 3.909-.064s.064 0 .064 0c-.207.496-.493.955-.846 1.36l-5.622.075z"/><path d="m360.832 252.478c1.934.031 3.476 1.624 3.445 3.558 0 .06-.003.12-.008.18 0 2.442-1.585 3.909-3.352 3.909-2.099.03-3.825-1.648-3.855-3.748 0-.025 0-.05 0-.075-.047-2.064 1.587-3.775 3.651-3.822.04 0 .079-.001.119 0zm0 6.479c1.467.024 2.675-1.145 2.7-2.611 0-.043 0-.087-.001-.13 0-1.788-1.371-2.485-2.838-2.485-1.443-.137-2.723.922-2.859 2.365-.005.058-.009.115-.011.173.074 1.56 1.398 2.764 2.958 2.69.014 0 .027-.001.041-.002h.011z"/><path d="m367.429 259.995c-.203 0-.225 0-.225-.171s0-.096.289-.3l.236-.182c2.849-2.292 3.555-3.405 3.555-4.412-.01-.769-.641-1.384-1.41-1.374-.026 0-.052.001-.078.003-.454.022-.881.222-1.189.557-.182.214-.214.236-.246.236s-.321-.118-.321-.236 0-.139.353-.503c.493-.697 1.288-1.118 2.142-1.135 1.103-.077 2.06.754 2.138 1.858.005.066.006.132.004.199 0 1.071-.685 1.821-2.431 3.309l-.921.782c.2.01.4.01.6 0 1.799 0 3.823-.064 3.909-.064s.064 0 .064 0c-.207.496-.493.955-.846 1.36l-5.622.075z"/><path d="m379.166 254.394c0-.867-.246-1.178-.782-1.232l-.621-.086c-.086 0-.118 0-.118-.214s.075-.257.118-.257h4.08c.096 0 .129.107.129.289s0 .182-.129.182c-1.285 0-1.403.246-1.403 1.317v3.812c0 .867.246 1.189.782 1.232l.621.086c.075 0 .118 0 .118.214s-.075.257-.118.257h-4.08c-.096 0-.129-.107-.129-.289s0-.182.129-.182c1.285 0 1.403-.246 1.403-1.317z"/><path d="m292.787 147.614c-.029.073-.104.118-.182.107-.268 0-1.778-.086-4.648-.086-1.017 0-1.681.086-1.938.086s-.129-.075-.129-.268 0-.203.129-.203c1.157 0 1.307-.15 1.307-1.071v-4.819c0-.953-.15-1.071-1.307-1.071-.118 0-.129 0-.129-.203s0-.268.129-.268.921.086 1.938.086 1.692-.086 1.938-.086.139.064.139.268 0 .203-.139.203c-1.157 0-1.307.15-1.307 1.071v4.401c0 1.221.418 1.456 1.66 1.456 1.671 0 2.003-.246 2.206-.685l.343-.696c0-.086.075-.118.118-.118.236 0 .439 0 .439.118-.039.174-.089.346-.15.514l-.418 1.264z"/><path d="m297.456 141.36c0-.953-.15-1.071-1.307-1.071-.107 0-.129 0-.129-.203s0-.268.129-.268.921.086 1.938.086 1.692-.086 1.938-.086.139.064.139.268 0 .203-.139.203c-1.146 0-1.296.15-1.296 1.071v3.213c0 1.906.932 2.645 2.335 2.645 1.671 0 2.142-1.007 2.142-2.806v-2.677c0-1.446-.075-1.531-1.178-1.531-.096 0-.118 0-.118-.182s0-.289.139-.289c.494.058.991.087 1.489.086.953 0 1.371-.086 1.553-.086s.129.054.129.246 0 .225-.096.225h-.236c-.718 0-.932.289-.932 1.167v3.566c0 2.142-1.285 2.956-3.138 2.956-.964.036-1.908-.28-2.656-.889-.568-.568-.707-1.007-.707-2.367v-3.277z"/><path d="m311.699 144.155c.118-.161.161-.246.161-.3s0-.118-.236-.396l-1.821-2.592c-.3-.46-.471-.664-1.071-.664-.118 0-.129 0-.129-.139 0-.268 0-.332.086-.332.515.064 1.034.093 1.553.086.835 0 1.264-.086 1.478-.086s.236 0 .236.236 0 .236-.182.236c-.621 0-.653 0-.653.203s.086.257.418.728l1.167 1.724 1.167-1.703c.171-.209.292-.455.353-.718 0-.193-.064-.236-.471-.236-.214 0-.236 0-.236-.171s0-.3.139-.3.739.086 1.317.086.835-.086 1.071-.086.129.064.129.236 0 .236-.096.236c-.503 0-.9.096-1.467.964l-1.467 2.035c-.041.044-.067.101-.075.161 0 0 0 .064.075.107l1.917 2.699c.664.985.835 1.071 1.339 1.071.118 0 .182.054.182.236s0 .236-.139.236c-.53-.058-1.063-.086-1.596-.086-.558-.004-1.116.024-1.671.086-.075 0-.107 0-.107-.257s0-.214.171-.214c.535 0 .685-.096.685-.332s-.064-.321-.471-.867l-1.146-1.638s-.054-.064-.075-.064 0 0-.075.075l-1.285 1.81c-.186.219-.314.48-.375.76 0 .193.064.257.771.257.064 0 .096 0 .096.214s0 .257-.086.257c-.39-.061-.784-.09-1.178-.086-.508-.005-1.016.023-1.521.086-.064 0-.086 0-.086-.193s0-.278.118-.278c.771 0 .867-.054 1.424-.835l1.66-2.249z"/><path d="m321.348 141.36c0-.9-.054-1.071-.718-1.071-.182 0-.514.086-.6.086s-.096-.054-.096-.15c-.01-.107-.01-.214 0-.321.653-.086 2.592-.236 3.395-.236 2.249 0 3.641.718 3.641 2.388s-1.735 2.26-2.945 2.26c-.265.004-.53-.036-.782-.118-.01-.057-.01-.115 0-.171 0-.15 0-.203.107-.203h.353c1.005.041 1.853-.739 1.894-1.744.001-.025.002-.051.002-.076.095-.947-.596-1.793-1.543-1.888-.124-.013-.25-.011-.374.003-.921 0-1.071.332-1.071 1.178v4.915c0 .953.15 1.071 1.296 1.071.118 0 .139 0 .139.203s0 .268-.139.268-.91-.086-1.938-.086-1.681.086-1.938.086-.129-.075-.129-.268 0-.203.129-.203c1.157 0 1.307-.15 1.307-1.071l.011-4.851z"/><path d="m331.778 141.36c0-.953-.15-1.071-1.307-1.071-.118 0-.129 0-.129-.203s0-.268.129-.268.921.086 1.938.086c1.96 0 3.491-.086 4.53-.086 0 0 .064.064.064.15-.067.335-.095.676-.086 1.017.003.189.032.376.086.557.008.05.008.1 0 .15h-.439c-.129-1.071-.268-1.403-2.056-1.403-1.328 0-1.435 0-1.435 1.167v1.917h1.071c.685 0 1.071-.086 1.317-.878.075-.225.107-.257.311-.257s.161 0 .161.107c0 .246-.054 1.21-.054 1.649s.054.867.054.964 0 .086-.236.086-.236 0-.236-.118c0-.32-.109-.63-.311-.878-.203-.15-.332-.203-.889-.203h-1.21v1.756c-.015.472.035.944.15 1.403.193.161.45.246 1.489.246.496.051.997-.007 1.467-.171.621-.225.975-1.36 1.124-1.36s.386.118.386.182-.568 1.349-.653 1.638-.086.268-.182.268c-.685 0-3.213-.086-4.412-.086s-1.681.086-1.938.086-.129-.075-.129-.268 0-.203.129-.203c1.157 0 1.307-.15 1.307-1.071z"/><path d="m342.348 141.788c0-1.424-.107-1.542-.782-1.542-.181.004-.361.029-.535.075-.064 0-.118-.086-.118-.268s.054-.182.3-.203c1.258-.158 2.523-.248 3.791-.268 3.341 0 4.766 2.056 4.766 4.123.021 1.026-.364 2.019-1.071 2.763-.977.922-2.304 1.379-3.641 1.253-1.071 0-1.767-.086-2.067-.086-1.017 0-1.692.086-1.938.086s-.139-.075-.139-.268 0-.203.139-.203c1.146 0 1.296-.15 1.296-1.071v-4.391zm1.274 3.138c0 1.467.086 1.735.268 1.885.346.246.764.371 1.189.353 2.067 0 3.213-1.317 3.213-3.555.143-1.769-1.175-3.318-2.943-3.461-.125-.01-.251-.013-.377-.008-1.221 0-1.317.375-1.317 1.071l-.032 3.716z"/><path d="m354.557 141.36c0-.953-.15-1.071-1.307-1.071-.118 0-.129 0-.129-.203s0-.268.129-.268.921.086 1.938.086 1.681-.086 1.938-.086.129.064.129.268 0 .203-.129.203c-1.157 0-1.307.15-1.307 1.071v4.841c0 .953.15 1.071 1.307 1.071.118 0 .129 0 .129.203s0 .268-.129.268-.921-.086-1.938-.086-1.692.086-1.938.086-.129-.075-.129-.268 0-.203.129-.203c1.157 0 1.307-.15 1.307-1.071z"/><path d="m363.906 140.407h-1.071c-1.071 0-1.328.139-1.671.889-.107.236-.15.268-.203.268-.124-.003-.245-.036-.353-.096l.364-2.088c0-.086 0-.118.225-.118s.332 0 .396.193c.15.407.332.407 3.941.407 1.938 0 2.142-.096 2.57-.471.107-.096.15-.129.257-.129s.332 0 .332.118-.364 1.071-.653 2.142c-.031.014-.066.014-.096 0-.133-.012-.263-.045-.386-.096.075-.217.115-.445.118-.675 0-.236-.086-.386-1.124-.386h-1.328v5.74c0 .953.15 1.071 1.296 1.071.118 0 .139 0 .139.203s0 .268-.139.268-.921-.086-1.938-.086-1.681.086-1.938.086-.129-.075-.129-.268 0-.203.129-.203c1.157 0 1.307-.15 1.307-1.071l-.043-5.697z"/><path d="m373.447 141.36c0-.953-.15-1.071-1.307-1.071-.118 0-.139 0-.139-.203s0-.268.139-.268.921.086 1.938.086 1.681-.086 1.938-.086.129.064.129.268 0 .203-.129.203c-1.157 0-1.307.15-1.307 1.071v4.841c0 .953.15 1.071 1.307 1.071.118 0 .129 0 .129.203s0 .268-.129.268-.921-.086-1.938-.086-1.692.086-1.938.086-.139-.075-.139-.268 0-.203.139-.203c1.157 0 1.307-.15 1.307-1.071z"/><path d="m384.06 139.582c3.02 0 4.637 2.003 4.637 3.994.002 2.366-1.914 4.285-4.28 4.287-.058 0-.117-.001-.175-.003-3.02 0-4.648-2.013-4.648-3.984-.008-2.366 1.903-4.29 4.269-4.298.066 0 .131.001.197.004zm.246 7.732c1.681-.098 2.971-1.531 2.891-3.213 0-2.142-1.167-3.92-3.213-3.92-1.661.067-2.952 1.468-2.885 3.128.001.028.003.056.005.084 0 1.788 1.071 3.92 3.202 3.92z"/><path d="m393.463 140.782c-.284-.433-.795-.659-1.307-.578-.214 0-.246 0-.246-.203s0-.268.236-.268.568.086 1.349.086c.428 0 1.007-.086 1.071-.086s.086 0 .15.107c1.671 2.142 3.009 3.92 4.605 5.719v-4.284c0-.867-.236-1.071-1.071-1.071-.118 0-.161 0-.161-.257s0-.214.182-.214.889.086 1.499.086 1.285-.086 1.36-.086.129.064.129.236-.054.236-.321.236c-.846 0-.932.182-.932 1.071v6.565h-.386c-2.806-3.127-5.14-6.597-5.504-6.672v4.948c0 .953.15 1.071 1.296 1.071.118 0 .139 0 .139.203s0 .268-.139.268-.91-.086-1.649-.086-1.349.086-1.606.086-.129-.075-.129-.268 0-.203.129-.203c1.157 0 1.307-.15 1.307-1.071v-5.333z"/><path d="m409.248 141.553c0 .118 0 .15-.161.15-.102.023-.208.023-.311 0-.089-.831-.771-1.472-1.606-1.51-.653-.046-1.229.423-1.317 1.071 0 1.885 3.887 1.499 3.887 4.284-.109 1.397-1.331 2.442-2.728 2.332-.029-.002-.059-.005-.088-.008-.72.007-1.431-.154-2.078-.471-.099-.56-.163-1.125-.193-1.692l.075-.075h.118c.082-.007.165.012.236.054.152.926.936 1.616 1.874 1.649.766.071 1.444-.491 1.516-1.257.006-.059.007-.119.005-.178 0-1.885-3.78-1.531-3.78-4.112.047-1.241 1.091-2.209 2.333-2.162.076.003.152.01.227.02.666-.004 1.325.127 1.938.386l.054 1.521z"/><path d="m429.67 60.292c.568.268 1.189 0 1.756-.278.171-.129.375-.246.054-.428.236-1.071.289-2.003-1.124-2.217-.236-.471-1.199-.311-1.071-1.157-.107-.386-.054-.857-.493-1.071-.386-.675-.46-2.078-1.713-.728-.685-.482-1.874.418-2.302-.814.035-.102.064-.205.086-.311.814.053 1.518-.564 1.571-1.379.006-.09.003-.181-.007-.27-.3-1.617.675-1.017 1.178-.75s1.146.771 1.638-.118c.261-.205.371-.549.278-.867 0-.107.075-.214.107-.321-.139-.953.482-2.206-1.071-2.602-.193 0-.75-.364-.482-.803s.75.193 1.146 0c-.653-1.121-1.038-2.378-1.124-3.673h-1.071l-.675-.857c-.118-.535-1.264-.193-.964-1.071.375-1.071-.45-1.392-1.071-1.885.075-.089.127-.196.15-.311 1.071-.964.782-1.788-.278-2.506-.653-.45-1.467-.889-1.628-1.628-.418-1.949-1.264-3.373-3.384-3.705 1.071-.878 1.071-2.142 1.071-3.341-.975-.803-1.938.107-2.913 0l-1.339-.332h-.182c-.099-.016-.201-.016-.3 0-.643 0-.621-.386-.46-.835.573-.777.491-1.857-.193-2.538-.728-.696-1.51-.225-2.142.311-.632.535-.653-.214-.953-.364-1.375-1.191-2.434-2.703-3.084-4.401.616-.893.646-2.065.075-2.988-.985-1.778-1.981-.525-2.966 0l-.353-.375c-.246-1.467-1.071-1.51-2.238-.996-.689.377-1.237.967-1.564 1.681-.386 0-.792.107-1.071-.289-.675-1.499-.118-3.759-2.559-4.155-.251-.529-.881-.758-1.414-.514-2.377.76-4.819.268-7.229.236-1.274 0-2.763-1.071-3.266 1.071-.975.214-1.949-.525-2.924 0-.225-2.26-.803-2.592-2.602-1.499-.225-2.377-2.592-4.091-5.612-4.048-.129.236-.257.471-.396.707l-.418.396c-.296.242-.721.242-1.017 0-.396-.718-.214-2.067-1.574-1.799-2.067.418-3.213-1.339-4.798-1.896-.225-1.071-.664-1.499-1.895-1.36-2.27.257-2.838 2.913-5.108 3.288-.739.118-1.585.921-2.57.964-.17-.627-.615-1.143-1.21-1.403.129-.75.268-1.489.407-2.238 0-1.553-.921-2.624-2.206-2.388-.52.125-1.068.015-1.499-.3-1.285-.803-2.592-1.017-3.523.535-.25.501-.796.783-1.349.696-.685-.644-1.71-.766-2.527-.3-.15.45-.3.91-.439 1.371l-.536 1.381c-.435-.339-.837-.72-1.199-1.135-1.071-1.489-2.292-1.135-3.545-.278-.332.225-.535.814-1.071.61s-.418-.889-.321-1.296c.364-1.478-1.424-1.617-1.585-2.72-.76.578-1.949 0-2.57.985-.086.15-.428.161-.653.236-.578-.771-1.307-.525-2.003-.278-.407.15-.846.471-1.221.139-.887-1.031-2.442-1.148-3.474-.261-.152.131-.287.279-.403.443-.782.814-2.142-.129-2.945.718-.161.075-.343.257-.493.225-1.376-.491-2.889.226-3.38 1.602-.042.117-.075.236-.1.358-.266.811-1.133 1.26-1.949 1.007-1.309-.435-2.751-.086-3.716.9-.653 1.392-.867 3.084-2.592 3.716l-.835 2.527c.04.045.092.079.15.096-.051-.033-.098-.073-.139-.118-.867 0-1.746-1.446-2.602 0-1.692 1.071-.6 3.213-1.874 4.434-.171.064-.418.236-.493.182-2.281-1.713-4.219-.846-4.648 2.142-.3 0-.825 0-.878.129-.728 1.831-2.667 1.414-3.962 2.142h-.685c-1.339.739-1.071 2.142-1.242 3.405-.645-.351-1.338-.607-2.056-.76-1.146-.15-2.27.278-3.405-.139-2.088-.792-3.063-.064-3.288 2.26.129.739-.685 1.478 0 2.206-.193.653.139.953.707 1.071l-.064.418c-.3.278-1.285.685-.203.91 1.392.3.546.6.246 1.071s-1.178.343-1.339 1.071c-2.72.835-3.009 1.446-1.724 3.63.129.643-.054 1.274-.782 1.071-1.705-.607-3.6-.334-5.065.728-1.381.803-1.767 1.36-1.853 2.645-.407.246-.792.675-1.221.728-1.713.193-1.553 1.21-1.071 2.345.235.487.5.959.792 1.414v.696l-.353.353c-.857-.46-1.692-.835-2.249.396-.467.808-.467 1.805 0 2.613l-.718.653c-.621.835-.364 1.778-.343 2.688l.985.803.493.311c.803.203 1.199-.493 1.746-.814.485-.416 1.215-.359 1.631.126.038.045.073.092.104.142-.236.364.139.739.193 1.071l-.236-.171c-1.199-.054-1.628.375-.921 1.499.477.765 1.327 1.214 2.227 1.178-.75.589-1.81.996-1.371 2.292s0 1.746-1.296 1.51c-.193 0-.45.353-.685.546-.664.426-1.413.7-2.195.803-.129-.118-.407-.289-.386-.332.739-1.585-.578-2.067-1.467-2.763.064-1.392-.942-1.349-1.885-1.414-.535 0-.996.407-1.596.096-1.253-.632-1.874.236-2.527 1.124-.932 1.253.193 2.142.407 3.213-.525.428-.289.953-.236 1.489-.045 1.484-1.284 2.651-2.767 2.606-.07-.002-.14-.007-.21-.015-.942.268-1.146 1.071-1.435 1.874.3.643.6 1.285.91 1.917l.129.643c-.396-.268-.792-.493-.803.268 0 .546.064 1.071.096 1.628 1.242-.353 1.799 1.146 2.924 1.071.471-.311.782-.086 1.071.311v4.958c-.075.375.054.825-.396 1.071l-1.071 1.51v1.553c.739.675 1.456 1.446 2.602.771l.386-.45c.964-.321 2.827.91 2.559-1.499 1.178 0 2.388-.182 3.363.75v.353c-.75.203-.589 1.071-1.071 1.456-.203-.568-.428-1.339-1.135-1.157s-.203.803 0 1.232l-.75 1.424h-.343c-.503.953-1.799 1.692-.792 3.031h.428c.248.608.789 1.048 1.435 1.167.91-.728 1.253-2.142 2.645-2.292.964 0 1.071.857 1.489 1.467l1.071.321c.207-.173.308-.441.268-.707.981-.048 1.737-.882 1.689-1.862-.01-.207-.056-.41-.136-.601-.193-.803.15-1.553 0-2.324.633-.436 1.5-.277 1.936.356.004.006.008.012.013.019-.436.655-.259 1.539.396 1.975.106.071.222.127.343.167-.471.311-.964.685-.321 1.221s.975 1.296.568 1.885c-.525.76-1.167-.193-1.788-.268-.996-.118-2.142-.696-2.495.91.311 1.585 1.671.803 2.442.889.503-.024.985.205 1.285.61-.078.161-.139.33-.182.503-.014.378.153.74.45.975.546-.386.054-1.821 1.414-1.371.493.257 1.146.193 1.489.75.814 1.071 1.596 2.024 2.827.364.664-.867 1.307-.139 1.895.268 1.071.428 1.071 2.078 2.431 2.142 1.307-.632 1.349-1.456.343-2.399-.268-.257-.664-.503-.45-.9.557-1.071.096-2.142.3-3.352.525 1.071 1.467 1.713 1.424 2.891 0 .396.407.696.953.568 1.671-.386 1.671-.364 1.264 1.307-.08.296-.102.606-.064.91.096 1.66 1.232 1.992 2.592 2.013.685.107.343-.803 1.071-.964 1.184-.31 2.089-1.264 2.335-2.463.257-1.424-1.242-1.574-2.238-1.992-.104-.076-.151-.208-.118-.332.664.439 1.446.278 2.142.418.725.006 1.445.11 2.142.311.139.091.286.17.439.236.225.059.461.059.685 0 .815.815 1.901 1.303 3.052 1.371q3.213.203 3.641-1.767v-.161h-.353c0-.418-.225-1.071.171-1.167s.975.364 1.349.782c-.148.212-.384.346-.643.364-.75.889-.771 2.088-1.253 3.095-.289.621-.171 1.349.792 1.424.589-.482 1.596 1.135 1.553.075s1.071-1.178 1.071-1.949c.434-.363 1.066-.363 1.499 0 .653.418 1.135.268 1.392-.482.353-.353.482-1.371 1.264-.353.193.236.61.3.921.439 0 .503 0 1.071.525 1.285s.964-.428 1.135-.75c.707-1.36 1.339-1.071 2.142-.139.146.115.329.173.514.161 2.035-9.906 8.674-37.268 26.623-86.744 0 0 .439-4.776.932-4.766s.889 3.074.889 3.074l.289-.064c5.355 23.689 18.709 56.887 27.737 78.005.3.471.621.942.942 1.424 1.053.272 1.998.859 2.709 1.681-.129.471-.268.942-.396 1.414-.024.059-.053.116-.086.171 1.499 2.142 3.041 4.284 4.68 6.425h-.246l.096.139-2.752.139c.846 1.906 1.81 3.984 2.613 5.719.514-.546 1.071-1.071 1.564-1.617.485-.292.985-.556 1.499-.792 1.574-.718 3.213-1.071 4.626-2.238 1.027-.878 1.844-1.976 2.388-3.213.175-.122.309-.294.386-.493l2.345-6.147c.246-.525.493-1.071.718-1.596.107-.261.107-.553 0-.814.814.514 1.606 1.071 1.017 2.324-.45 1.596-1.681 3.009-1.071 4.841l.353.364c-.867.9.311 1.456.375 2.206l.364-.386c.118.407 0 1.071.792.718l.321.15c.353 1.189 1.071 1.713 2.238 1.071 1.778.471 1.189-1.071 1.553-1.81.653 0 1.071.246.878 1.007-.107.428 0 .9.439.685 1.703-.835 3.705.075 5.355-1.007-.268-.157-.425-.451-.407-.76.696-.825-1.617-.75-.525-1.264s.825-1.307.91-2.078l-1.124-.75c.054-1.842 1.638-.814 1.81-.6 1.253 1.617 3.213.632 4.883 1.97-.289-1.071-.985-1.392-.792-2.056.589-1.596 1.232-.086 1.842 0 .143.787.781 1.389 1.574 1.489v.653l-1.381-.236c1.178.503-.846 1.874.61 2.227.632.321.718.921.814 1.542.394.712.939 1.329 1.596 1.81.246-1.178 1.96-.985 2.088-2.249.718.428 1.585-.225 2.281.311v-.718l1.071-.482v-.61-.771l-1.853-2.999c-.846-1.071.107-1.381.771-1.81h1.564c.893.578 2.042.578 2.934 0 .643-.353-.139-.921-.3-1.392l1.799.364.792-1.071c0-.803 0-1.564-.932-1.97-.589-.268-.61-.846-.535-1.424-.3-.589-1.071-1.435-.75-1.735 1.071-.921-.118-1.542-.064-2.27v-.707c1.007.257 1.564 0 1.692-1.167.075-.696.278-1.499 1.274-1.531.51-.789.51-1.803 0-2.592h-1.51c-.76.096-.932-.15-.985-.985-.118-1.81-.932-2.206-2.688-1.606-.675.257-.782.75-.6 1.381l.161.182c-.236.471-.482.953-.718 1.435-.321 0-.632-.075-.792-.407.364-1.071-.311-1.767-.739-2.57.343-.942-.675-1.446-.718-2.26.975-2.849.621-3.716-1.917-4.915-.557-.257-1.328-.568-.739-1.467.867-.214 1.585.418 2.388.535l.171.268c.211 1.035.734 1.981 1.499 2.709.792.664 1.071 2.345 2.142 2.056s1.274-1.938 1.735-3.063v-.182c.032-1.349.107-2.463 1.853-1.671zm-157.135 8.021-.096-.075c-.174.153-.323.334-.439.535 1.585 1.97 1.489 2.27-1.071 3.32l1.392.064c.09.254-.019.537-.257.664h-.182c-.218.076-.398.234-.503.439-.6-.685-1.264.236-1.896.353 0-.643.621-1.414-.375-1.821.042-.121.018-.255-.064-.353h.129c.221-.867.049-1.788-.471-2.517l-.064-.064c1.735 0 2.399-.45 2.634-1.896.094.113.202.214.321.3.311.182.621.396.975.182v.064c.111.214.304.372.535.439.096-.011.193-.011.289 0-.217.225-.504.369-.814.407l-.043-.043zm3.459-.203s0-.096.086 0zm9.755 12.573c-.482-.086-.996-.214-1.221.407-.126.483.036.995.418 1.317.3.343.942.643.471 1.178s-.782 0-1.157-.193c-.219-.107-.464-.151-.707-.129-.091-.077-.197-.136-.311-.171-.643 0-.739-.46-.771-.996.063-.482-.035-.971-.278-1.392.14-.079.238-.217.268-.375l.782-.364c.643-.188 1.24-.505 1.756-.932.064 1.007.343 1.617 1.242 1.274l2.849-.996c-.805.997-2.07 1.504-3.341 1.339v.032zm9.735-26.216.653.268c-.236.161-.407.343-.353.632-.329-.091-.677-.091-1.007 0-.533-.027-1.012-.337-1.253-.814-.148-.297-.327-.577-.535-.835.61-.096.557-.568.46-1.071-.073-.087-.152-.17-.236-.246.107-.45.535-.535.878-.718h.214l.139-.064c.407.675 1.553.428 1.885 1.178-.37-.211-.801-.287-1.221-.214-.246.675.621 1.146.375 1.853v.032zm2.227 6.233c-.138-.177-.394-.209-.571-.072-.027.021-.051.045-.072.072.196-.839.56-1.63 1.071-2.324.471 1.06-.171 1.649-.428 2.324zm.76-7.089h-.107c-.005-.043-.005-.086 0-.129.017.045.039.088.064.129zm.782 16.363c-.546.086-.771-.268-.718-.771s-.086-.867.525-.975c.027.031.06.056.096.075.138.479.375.924.696 1.307-.153.185-.365.314-.6.364zm4.016-29.279c-.321.332-.814.493-1.071.9-1.606-.814-1.949-.964-2.356-.064-.141-.523-.405-1.004-.771-1.403.568-.6.76-1.756 2.024-1.349l2.174 1.917zm.771.268v-.054zm4.926 43.362c-.643.696-1.071.129-1.992-.257.975-.364 1.499-.76 2.142-.364.064.043-.021.482-.15.621zm5.547-73.893v.064zm-3.116 3.491h.054l-.064.054.011-.054zm-1.381 10.345c.005.021.005.043 0 .064zm-.075 6.757c.064-.61 0-1.435.996-.739.375.257.803.535 1.071.054.268-.482-.225-.739-.493-1.071-.314-.292-.575-.636-.771-1.017l.236-.075c1.253.075 2.57-.535 3.77.289.004.025.004.05 0 .075-.724.365-1.18 1.107-1.178 1.917-.136.931.394 1.831 1.274 2.163 1.167.268.589-1.167 1.071-1.66.887 1.106 1.513 2.398 1.831 3.78-.905-.54-1.905-.903-2.945-1.071-1.885-.471-3.17-1.97-4.862-2.699zm6.693 11.073c-.544.02-1.085-.094-1.574-.332.507.173 1.038.267 1.574.278zm-4.027 19.276c.258-.623.329-1.308.203-1.97 1.002-.429 2.146-.378 3.106.139-1.071.932-1.403 2.72-3.309 1.746v.086zm3.994 6.051c-.364.193-.632.535-1.124.46-.836-.26-1.724.208-1.984 1.044-.003.009-.006.018-.008.027-.351-.597-.39-1.328-.107-1.96.418-1.071 1.274.343 1.853-.203.161-.803.557-.546.975-.225.739.171.878-.364 1.071-.803.482.632 1.114 1.307-.675 1.574v.086zm13.847-28.197.107-.086c-.028.003-.057.003-.086 0zm14.479-32.802 4.787-3.78c.287-.109.592-.163.9-.161-.296.078-.596.139-.9.182v-.021zm3.373 9.413c-1.146.268-.76-.578-.707-1.071.054-.493.76-.953.568-1.638.75.086.225.846.471 1.199-.225.375.214.364.375.514-.467.073-.787.512-.714.979.002.013.004.026.007.038zm.803 9.638.107.064c-.043-.006-.082-.029-.107-.064zm1.746-14.821 6.329-.557c-.05.145-.083.296-.096.45-.019-.156.015-.315.096-.45zm1.553 6.415c-.489.275-1.046.405-1.606.375-.332-.632-.803-1.274-1.424-.889-1.071.653-1.232.343-1.521-.525-.118-.343-.321-.75-.76-.621-.123.028-.224.117-.268.236-.102-.28-.049-.593.139-.825 1.478.418 2.902 1.071 4.359.086v-.589c.396 0 .771 0 .771.675.104.331.296.628.557.857.193.139.482.386.632.278.975-.728.61.236.739.546-.578-.161-1.028.236-1.585.396h-.032zm10.902 15.475c-.111-.012-.219-.041-.321-.086v-.096c.142-.009.278.061.353.182zm-1.97 17.841c-.835.289-.792-.825-1.157-1.296 1.628-.439.792-1.21.278-1.949l-.246-.182v-.064h.771c.219.559.401 1.131.546 1.713.118.546.439 1.499-.193 1.778zm1.81 17.135v-12.626c-.645-.174-1.16-.661-1.371-1.296-.118-.353.246-.471.643-.418.535.257 1.285.353 1.403 1.146.075.493-.268.707-.664.6l-.011-.032zm1.071 24.963c.003-.021.003-.043 0-.064zm18.57.396v-37.675.15c-.066-.035-.127-.078-.182-.129l.182-.021zm0 46.274c.004.122-.022.243-.075.353-.011-.086.011-.203.032-.268l.043-.086zm-13.986-34.687-.814-1.456v-2.26c.814 1.114 1.874 2.163.814 3.716zm-1.36-4.455-.161.064zm-2.442 20.369 5.558 19.33c-.336-.397-.931-.447-1.328-.111-.135.114-.235.264-.289.432-.054.171-.107.343-.15.503-1.178-.632-.867-1.821-.867-2.891.027-.767-.203-1.521-.653-2.142.282-.348.506-.738.664-1.157.064.608.161 1.212.289 1.81.225 1.285.867 1.681 2.088 1.178.311-.129.621-.428 1.146-.129-.368.785-.683 1.593-.942 2.42l.043.086zm-.675-54.723 2.003-13.215c-.957.134-1.933.028-2.838-.311 0-.61-.568-1.456.535-1.542v.054c.482 1.242 1.339.311 2.024.353 3.213.214 3.32.203 3.737-2.688.182 1.917 1.724 1.692 2.966 1.917v.096l-1.564 1.124c-1.681.921-1.146 2.624-1.435 4.037-.289-.546-1.167-.493-1.178-1.424.075-1.456-1.05-1.681-2.249-1.617zm8.482 73.571c-1.183 1.944-2.97 3.448-5.087 4.284-.193.139-.386.289-.589.418-.287.191-.636.263-.975.203h-.107c-.583-.099-.976-.652-.877-1.235.013-.076.034-.15.063-.221.27-1.181.691-2.322 1.253-3.395.321-.45.835-.707 1.135-1.167.268-.486.414-1.03.428-1.585.349-.127.686-.285 1.007-.471.236-.728.525-1.371 1.317-1.317-.343 1.724 0 2.142 2.356 2.966h.214c.139-.289.054-.985.493-.803l.45.171c-.321.728-.675 1.403-1.082 2.131v.021zm1.542-2.956c-.044-.104-.079-.212-.107-.321.099-.006.197-.028.289-.064l-.182.386zm.107-64.876-.514-9.531c.189-.194.478-.253.728-.15-.268.064-.514.107-.76.15h.032zm.835 73.529c.009-.096.009-.193 0-.289-.009-.057-.009-.115 0-.171l.193-.578c.139-.048.29-.048.428 0-.3.343-.471.685-.653 1.039h.032zm3.266-74.771-.343.139c.087-.077.195-.125.311-.139zm-1.071 71.215s-.096.118-.15.182c-.225.289-.428.589-.632.889-.026-.93.583-1.759 1.478-2.013-.054.204-.054.418 0 .621-.292-.056-.589.071-.75.321zm1.938-2.902c-.075.311-.332.578-.246.942-.124-.027-.251-.027-.375 0-.197-.816-1.018-1.319-1.835-1.122-.057.014-.113.031-.168.051-.037-.264-.166-.507-.364-.685.946-.107 1.897-.161 2.849-.161.379-.05.742.167.878.525.139.739-.653-.043-.792.45h.054zm13.376-8.814-.096.086v-.064l.096-.021zm-4.284-48.758-1.553 6.211zm-.321 17.916-2.784-9.488c-.005.025-.005.05 0 .075h-.075l.075-.075zm-1.381 38.446h-.064c.189-.232.304-.516.332-.814.037.033.081.059.129.075-.107.263-.239.514-.396.75v-.011zm.889.171c.088.085.151.192.182.311-.048-.107-.109-.208-.182-.3zm2.345-36.668c-.086.632-.6 1.253-.278 1.906l-.675.396c-.006-.025-.006-.05 0-.075-.604-.123-1.227-.123-1.831 0-.086-.353.086-.825-.418-1.007-1.071-.428-1.617-1.414-2.26-2.281.268-.46.707-.364 1.071-.332.514.857 1.071 1.317 2.045.493.246-.225.996-.161.953 0-.653 2.142.942.568 1.392.825.011.054.011.064 0 .086v-.011zm.107 36.539h.075v-.171c-.038.106-.017.224.054.311l-.129-.139zm7.432 5.13-.171.075c.015-.074.015-.151 0-.225-1.071-1.21-2.313-.278-3.48-.289 0-.396.086-.825-.364-1.071-.782-1.189-2.581-1.36-2.988-2.945-.04-.099-.066-.204-.075-.311l-.129-.15c.084.07.191.105.3.096.718-1.446 1.831-.107 2.87-.343-.428-.643-.675-1.242.139-1.671s.728.332.942.685c.46.739.996.257 1.51.139-.011.085-.011.172 0 .257 0 .61-2.42 1.274-.246 1.842.012.635.453 1.181 1.071 1.328l.45.129c.257.792.707 1.564.171 2.463v-.011zm.418-26.13v.075h-.064zm.064 15.71-.075.075c.01-.064.01-.129 0-.193.124.022.251.022.375 0v.118zm2.677-37.021.203-.161zm1.071-2.624c.06-.034.125-.059.193-.075zm2.506 48.662 3.32-37.546zm.685 8.332v.086c-.206-.122-.448-.171-.685-.139-.068-.005-.136-.005-.203 0-.15-.243-.196-.536-.129-.814.718-.129.482-.739.589-1.178.76.589.364 1.349.439 2.024zm1.456-2.056.064 4.851v-.064c.003.021.003.043 0 .064z"/><path d="m375.289 104.649v-1.071h1.585c-.268-.814-.632-2.035-1.071-3.448-.332.428-.685.835-1.071 1.232-1.13 1.29-2.117 2.697-2.945 4.198h.61l.835 1.071 2.57-.064.075-.064v-1.853h-.589z"/><path d="m335.195 102.154 7.935.471.096-1.221-.439-.289c-1.055-.609-2.068-1.288-3.031-2.035h-6.704c-.124.248-.412.366-.675.278l-.321-.161h-.075c-.257 0-.514-.075-.782-.107-3.705 0-7.068-.096-9.349-.203.082.58.344 1.119.75 1.542.725.529 1.572.865 2.463.975 1.423.742 2.969 1.217 4.562 1.403l1.521.525c.073.026.148.044.225.054l3.566-.428.257-.803z"/><path d="m368.253 102.357c.071-.577.204-1.144.396-1.692.156-1.365.476-2.706.953-3.994.201-.453.46-.878.771-1.264l-4.476.225-.107.375c-.036.148-.036.302 0 .45-.892 2.401-1.608 4.863-2.142 7.368l4.284.246.428.321c-.032-.514-.161-1.521-.107-2.035z"/><path d="m356.441 98.716c.041-.3.102-.597.182-.889.087-.435.457-.756.9-.782l.129-.075c.864-.362 1.747-.677 2.645-.942l.193-.118-7.807.396c.493.907 1.007 1.806 1.542 2.699h-3.984c-.151 1.332-.376 2.655-.675 3.962l5.462.321c.236-.932.503-1.842.792-2.763.168-.616.376-1.221.621-1.81z"/><path d="m376.446 98.791c.546 1.767 1.071 3.513 1.51 4.83h2.217c.9-.497 1.691-1.171 2.324-1.981l.257-.268c-.867-1.885-1.992-4.284-2.945-6.425l-2.699.139v1.253c-.246.803-.45 1.628-.664 2.452z"/><path d="m358.755 88.157-8.621.203c0 .321-.021.643-.064.964l8.696-.589c.066-.188.063-.393-.011-.578zm-6.736.46c.049-.062.124-.097.203-.096-.079.078-.144.168-.193.268-.016-.059-.037-.117-.064-.171h.054z"/><path d="m371.991 87.815-4.337.096c.005.064.005.129 0 .193z"/><path d="m367.322 88.147.161-.203-5.14.118-.257.439 5.237-.353z"/><path d="m371.402 86.497-8.225.193-.236.386 8.46-.578z"/><path d="m359.022 86.744-9.949.236c.129.289.257.589.386.867.11.01.218.035.321.075l9.113-.621z"/><path d="m372.58 89.164-5.119.129c.005.075.005.15 0 .225l5.119-.353z"/><path d="m357.994 89.892c.043-.124.094-.245.15-.364l-8.139.193v.985l7.968-.546c.011-.086.011-.203.021-.268z"/><path d="m361.164 89.956 4.958-.343c.002-.036.002-.071 0-.107.064 0 .107-.118.161-.171l-4.808.118c-.064.161-.182.321-.311.503z"/><path d="m360.286 91.027c-.139.139-.3.257-.45.396l5.644-.386.182-.332-5.205.129z"/><path d="m372.676 90.535-5.451.139c-.013.087-.03.173-.054.257l5.504-.396z"/><path d="m350.123 91.081c.139.321.278.643.428.964l7.357-.503v-.653l-7.785.193z"/><path d="m366.883 92.312 5.687-.386-5.633.139-.054.246z"/><path d="m358.819 92.227c-.321.214-.632.428-.964.632v-.61l-7.143.182c.139.311.289.632.45.942l13.333-.9.3-.407z"/><path d="m366.476 93.715 5.59-.386c.022-.03.04-.062.054-.096l-5.547.15-.096.332z"/><path d="m351.365 93.769c.15.321.321.632.471.942l11.287-.771.503-.482-12.262.311z"/><path d="m346.546 39.238v.739l6.201-.482z"/><path d="m346.675 81.635c.107.343.203.685.311 1.071l22.082-1.521z"/><path d="m359.226 85.426-10.709.246c.139.332.289.653.428.985l10.27-.707c-.021-.171 0-.353.011-.525z"/><path d="m370.824 85.159-6.597.15c-.098.102-.191.209-.278.321z"/><path d="m347.424 84.002 22.221-1.542-22.553.503c.107.364.214.696.332 1.039z"/><path d="m347.788 84.805c.087.036.167.086.236.15.108.096.195.212.257.343l10.934-.75v-.386c.249.083.487.198.707.343l1.617-.118h.086l8.567-.589-22.703.514.139.428.161.064z"/><path d="m347.21 24.395v.386l.257-.075z"/><path d="m346.718 35.137v.707l4.594-.386z"/><path d="m346.782 33.766v.696l4.048-.343z"/><path d="m346.835 32.406v.675l3.513-.311z"/><path d="m346.61 37.867v.739l5.665-.46-5.665-.278z"/><path d="m346.9 31.056v.675l2.966-.278-2.966-.396z"/><path d="m346.664 36.507v.718l5.13-.418z"/><path d="m348.324 10.955c1.071 6.565 7.978 28.197 15.239 49.915 2.675 5.82 5.653 11.497 8.921 17.006-8.321-19.823-18.966-47.066-24.299-68.238.013.305.041.609.086.91.021.161.032.278.054.407z"/><path d="m347.146 25.605v.578l.846-.139z"/><path d="m347.874 30.232 1.489-.15-2.388-.407v.653l.942-.096zm0 0"/><path d="m349.009 78.862c-.448.097-.912.097-1.36 0h-1.724l.289 1.071 21.686-1.489z"/><path d="m346.975 28.315v.632l1.885-.203-1.885-.428z"/><path d="m347.082 26.965v.6l1.339-.171-1.339-.428z"/><path d="m346.289 80.318c.096.343.193.696.3 1.071l21.889-1.51z"/><path d="m346.032 54.284v.857l12.005-.857z"/><path d="m345.904 57.925 13.044-.932-13.022.054c-.021.3-.021.589-.021.878z"/><path d="m358.251 48.095c-2.27-6.929-4.401-13.611-6.179-19.458 1.724 6.588 3.787 13.083 6.179 19.458z"/><path d="m345.904 59.318 13.568-.964-13.568.075z"/><path d="m345.839 62.113 14.586-1.071-14.522.15c0 .3-.064.6-.064.921z"/><path d="m345.904 60.71 14.082-1.007-14.061.107c-.021.3-.021.6-.021.9z"/><path d="m345.968 56.533 12.53-.9h-12.508c-.011.321-.011.621-.021.9z"/><path d="m347.124 77.78c.535-.418.771.493 1.456.246.932-.332.825 0 .643.353l18.098-1.274-21.643.428v.364c.054.225.107.46.171.685l1.489-.107c-.052-.133-.095-.269-.129-.407.018-.104-.014-.211-.086-.289z"/><path d="m345.679 73.122 19.276-1.339-19.276.332z"/><path d="m345.668 74.503 19.887-1.381-19.876.353c-.011.343-.011.685-.011 1.028z"/><path d="m345.668 77.245 21.054-1.446-21.054.407z"/><path d="m345.689 71.751 18.698-1.307-18.687.311c-.011.332-.011.664-.011.996z"/><path d="m345.668 75.874 20.476-1.414-20.476.375z"/><path d="m345.786 64.865 15.667-1.071-15.657.182c0 .278-.011.589-.011.889z"/><path d="m345.7 70.369 18.098-1.253-18.088.268c0 .343-.011.664-.011.985z"/><path d="m345.807 63.483 15.1-1.071-15.078.15c-.011.321-.011.621-.021.921z"/><path d="m345.754 66.246 16.289-1.146-16.267.225c-.011.289-.011.61-.021.921z"/><path d="m345.722 68.999 17.488-1.221-17.477.246c-.011.332-.011.653-.011.975z"/><path d="m345.732 67.617 16.899-1.221-16.878.225c-.011.364-.011.685-.021.996z"/><path d="m341.342 43.372c-1.978-.013-3.942-.328-5.826-.932-.096.289-.182.568-.278.846 2.025.254 4.073.283 6.104.086z"/><path d="m341.802 35.072c-1.235-.023-2.46-.236-3.63-.632-.064.203-.129.396-.203.589 1.271.17 2.559.185 3.834.043z"/><path d="m341.106 47.527c-2.336-.012-4.657-.373-6.886-1.071-.107.332-.214.643-.311.964 2.389.287 4.8.322 7.197.107z"/><path d="m341.877 33.691c-1.094-.032-2.177-.227-3.213-.578-.064.171-.129.364-.193.546 1.13.148 2.273.159 3.405.032z"/><path d="m341.62 37.835c-1.485-.022-2.958-.268-4.369-.728l-.236.675c1.527.203 3.073.221 4.605.054z"/><path d="m341.963 32.309c-.984-.031-1.959-.208-2.891-.525-.064.161-.118.332-.171.503 1.016.132 2.045.139 3.063.021z"/><path d="m342.038 30.917c-.856-.034-1.704-.189-2.517-.46l-.161.46c.888.126 1.789.126 2.677 0z"/><path d="m341.181 46.135c-2.217.004-4.421-.339-6.533-1.017-.096.311-.203.621-.3.932 2.268.274 4.558.303 6.832.086z"/><path d="m341.62 39.227c-1.608-.032-3.203-.299-4.733-.792-.075.246-.161.482-.236.728 1.649.209 3.316.231 4.969.064z"/><path d="m341.256 44.753c-2.098-.004-4.182-.333-6.179-.975l-.278.889c2.143.267 4.309.296 6.458.086z"/><path d="m341.491 40.609c-1.732-.01-3.452-.292-5.098-.835-.086.257-.171.514-.246.76 1.773.222 3.565.247 5.344.075z"/><path d="m341.417 41.99c-1.855-.003-3.699-.299-5.462-.878-.086.268-.182.535-.268.803 1.901.235 3.823.26 5.729.075z"/><path d="m346.493 40.609v.75l6.736-.525zm1.735.343c-.046-.006-.093-.006-.139 0z"/><path d="m376.906 105.656 1.168-1.007h-1.168z"/><path d="m342.113 29.536c-.73-.031-1.452-.168-2.142-.407 0 .139-.096.278-.139.418.757.107 1.525.103 2.281-.011z"/><path d="m344.233 71.355 1.831-61.974c-2.11 10.324-6.458 36.743-1.831 61.974z"/><path d="m341.727 36.411c-1.362-.025-2.712-.256-4.005-.685-.064.214-.139.428-.214.632 1.399.19 2.816.208 4.219.054z"/><path d="m346.107 51.543v.846l10.966-.803z"/><path d="m346.15 50.183v.825l10.441-.76-10.441-.064z"/><path d="m341.02 48.908c-2.454.017-4.896-.344-7.239-1.071-.107.343-.214.675-.311 1.007 2.508.279 5.038.301 7.55.064z"/><path d="m342.273 26.773c-.475-.029-.943-.123-1.392-.278 0 .107-.075.203-.107.3.498.068 1.003.061 1.499-.021z"/><path d="m346.203 48.812v.814l9.917-.728z"/><path d="m346.396 43.34v.782l7.807-.6z"/><path d="m342.198 28.154c-.606-.031-1.204-.146-1.778-.343 0 .118-.075.236-.118.353.629.087 1.267.083 1.895-.011z"/><path d="m346.246 47.441v.814l9.403-.696z"/><path d="m347.467 42.001h.064c.006.028.006.057 0 .086s-.064-.086-.107-.129h-.942v.771l7.271-.557z"/><path d="m346.343 44.71v.782l8.342-.621z"/><path d="m346.289 46.049v.792l8.867-.664-8.867-.129z"/><path d="m357.534 52.935h-11.469v.846z"/><path d="m340.399 59.971c-5.922-.225-8.803-.996-9.97-1.424-.129.439-.257.867-.396 1.296 3.443.378 6.915.421 10.366.129z"/><path d="m340.324 61.352c-6.115-.236-9.092-1.017-10.302-1.456-.139.439-.268.889-.407 1.328 3.557.391 7.144.434 10.709.129z"/><path d="m340.87 51.671c-2.69.008-5.366-.393-7.935-1.189l-.343 1.071c2.748.323 5.522.363 8.278.118z"/><path d="m340.485 58.589c-5.74-.225-8.514-.975-9.638-1.392-.129.428-.257.846-.375 1.264 3.325.371 6.679.414 10.013.129zm-8.214-.15c-.005-.05-.005-.1 0-.15l.107.096z"/><path d="m340.945 50.333c-2.572.005-5.129-.385-7.582-1.157-.118.353-.225.707-.332 1.071 2.628.306 5.28.334 7.914.086z"/><path d="m331.564 96.5c.022.028.047.053.075.075 3.073.068 6.148-.032 9.21-.3-3.952-.139-7.164-.396-9.788-.696.168.272.311.559.428.857z"/><path d="m336.437 92.302c-.064-.15-.118-.311-.182-.46-3.384-.225-6.04-.546-8.117-.878.064.782.792.664 1.531.546.144-.098.299-.181.46-.246.085.299.153.603.203.91-.006.05-.006.1 0 .15 2.335.054 4.423.032 6.104-.021z"/><path d="m336.983 93.694-.161-.418c-2.559-.161-4.723-.364-6.554-.6.054.353.129.696.203 1.071 2.581.043 4.787.011 6.511-.054z"/><path d="m330.558 94.111c.075.353.161.707.257 1.071 2.677 0 4.98 0 6.693-.075-.04-.127-.086-.252-.139-.375-2.656-.171-4.905-.386-6.811-.621z"/><path d="m339.832 78.016c-1.121-.043-2.17-.096-3.148-.161-.054.115-.09.238-.107.364 2.131-.043 3.395-.193 3.256-.203z"/><path d="m340.228 85.041h-.664c.005.032.005.064 0 .096.223-.015.445-.047.664-.096z"/><path d="m340.067 82.224h-.953v.139c.321-.019.64-.066.953-.139z"/><path d="m340.142 83.638h-.792v.118c.266-.022.531-.062.792-.118z"/><path d="m340.849 97.699c-3.438-.118-6.329-.332-8.76-.578.217.286.414.586.589.9 4.498-.021 7.625-.257 8.171-.321z"/><path d="m340.378 87.815h-.621v.086c.209-.009.417-.038.621-.086z"/><path d="m340.303 86.444h-.589v.086c.199-.009.396-.038.589-.086z"/><path d="m340.613 92.098-1.564-.075-.064.203c1.135-.129 1.746-.129 1.628-.129z"/><path d="m340.699 93.469-2.088-.096c0 .086-.054.171-.075.257 1.478-.075 2.292-.161 2.163-.161z"/><path d="m340.549 90.652h-1.135v.15c.382-.02.761-.07 1.135-.15z"/><path d="m340.463 89.25h-.825v.118c.277-.018.553-.057.825-.118z"/><path d="m340.774 94.872c-.953 0-1.853-.075-2.72-.129l-.246.332c1.992-.096 3.116-.203 2.966-.203z"/><path d="m332.282 78.176.118.129h3.041c-.048-.169-.109-.333-.182-.493-1.339-.107-2.527-.236-3.577-.375.22.23.42.477.6.739z"/><path d="m334.82 79.119h-.343c-.856-.113-1.723.089-2.442.568 2.626.074 5.254-.004 7.871-.236-1.799-.064-3.395-.161-4.83-.278h-.075l-.182-.054z"/><path d="m324.946 96.5c-.056-.048-.122-.085-.193-.107l-.096-.193c-.578-1.853-1.146-3.695-1.713-5.547l.386-.193c.386 1.349 2.078.375 2.613 1.456 1.071-.096.685-.9.718-1.499 0-.375.075-.75.139-1.414.214.655.721 1.174 1.371 1.403-.014.146-.014.293 0 .439 2.988.129 5.676.118 7.775.064l-.054-.118-.064-.386c-2.873-.199-5.733-.557-8.567-1.071 3.213.182 6.168.182 8.449.129 0-.171-.054-.343-.086-.525-2.81-.198-5.606-.555-8.375-1.071 3.148.171 5.986.182 8.235.139 0-.182 0-.353-.075-.535-2.738-.201-5.463-.559-8.16-1.071 2.988.343 5.804.343 7.946.343l-.064-.546c-2.675-.198-5.335-.555-7.968-1.071 3.32.203 6.308.203 8.567.15l.568-.139c.076-.084.135-.182.171-.289-3.124-.164-6.234-.543-9.306-1.135 3.62.225 6.843.214 9.178.139v-.129c-.017-.092-.017-.186 0-.278-3.078-.179-6.14-.562-9.167-1.146 3.941.246 7.421.214 9.767.129l.364-.332c-3.393-.146-6.769-.554-10.099-1.221 3.636.239 7.284.268 10.923.086.006-.068.006-.136 0-.203l.193.193c.527-.012 1.052-.055 1.574-.129-3.384-.118-6.093-.343-8.267-.621-.033.097-.054.198-.064.3-.066-.125-.149-.24-.246-.343-1.713-.214-3.084-.46-4.144-.696 1.071.075 2.142.129 3.159.161v-1.007c-1.242-.182-2.26-.375-3.084-.568 1.071.075 2.142.129 3.084.161v-.792c.067-.046.125-.104.171-.171-1.317-.193-2.377-.407-3.213-.6 1.178.086 2.313.139 3.395.171.005-.075.005-.15 0-.225l.268.236h3.941v-.086c.071.033.139.072.203.118 1.531.005 3.061-.07 4.583-.225-4.148-.06-8.281-.53-12.337-1.403 4.081.332 8.181.332 12.262 0-4.088-.067-8.16-.541-12.155-1.414 4.03.335 8.082.335 12.112 0-4.058-.05-8.099-.523-12.058-1.414 4.037.339 8.096.339 12.133 0-4.01-.048-8.002-.529-11.909-1.435 3.987.344 7.996.344 11.983 0-3.922-.027-7.829-.483-11.652-1.36 3.918.354 7.859.375 11.78.064-3.914-.026-7.811-.519-11.609-1.467 3.884.374 7.795.399 11.684.075-3.861-.022-7.706-.514-11.448-1.467 3.83.38 7.687.409 11.523.086-6.35-.236-9.702-.985-11.266-1.489 3.769.386 7.565.422 11.341.107-6.35-.257-9.638-1.071-11.084-1.499 3.711.385 7.451.425 11.17.118-6.425-.257-9.574-1.071-10.913-1.521 3.65.391 7.329.438 10.988.139-6.308-.246-9.381-1.071-10.634-1.499l-.407 1.36c-.139.46-.278.932-.407 1.381s-.278.921-.407 1.381-.268.932-.407 1.381-.268.932-.396 1.381c-.129.45-.268.932-.396 1.381s-.268.932-.396 1.392l-.386 1.381c-.129.46-.257.932-.386 1.381l-.386 1.392c-.129.471-.257.932-.375 1.381s-.257.942-.375 1.392-.246.932-.375 1.392-.246.942-.364 1.392-.236.932-.353 1.392c-.118.46-.246.942-.353 1.392s-.246.942-.353 1.392-.236.942-.343 1.392-.225.942-.332 1.403-.236.942-.332 1.392-.225.953-.321 1.392-.225.953-.321 1.403l-.3 1.392c-.096.471-.193.889-.278 1.296.054.139.107.278.171.418.15.771.311 1.531.471 2.302.006.103.006.207 0 .311 1.928.182 3.802.3 5.579.375-.418-.193-.835-.396-1.242-.632s-.568-.493-.878-.75z"/><path d="m340.71 54.434c-2.903-.001-5.79-.431-8.567-1.274-.118.386-.246.782-.364 1.157 2.965.342 5.958.381 8.931.118z"/><path d="m340.795 53.053c-2.81.017-5.605-.398-8.289-1.232-.118.375-.236.75-.343 1.071 2.864.353 5.757.407 8.632.161z"/><path d="m340.549 57.208c-5.537-.236-8.214-.964-9.306-1.36-.129.418-.257.825-.375 1.232 3.215.365 6.458.408 9.681.129z"/><path d="m340.635 55.826c-5.355-.214-7.914-.921-8.964-1.317-.129.407-.246.792-.364 1.189 3.097.352 6.222.395 9.328.129z"/><path d="m383.964 103.942c-.054-.096-.096-.203-.15-.321h-3.641c-.641.488-1.367.851-2.142 1.071h1.906v4.798-.91l-3.074-.203v-2.677l-1.017.889v1.724l-1.435-.086-26.451-1.36-14.993-.771 5.472.182-16.428-1.071 16.428 1.071 35.34 1.178-.568-.707h-2.206c.273-.343.527-.7.76-1.071h-1.938l-1.435-1.285v.064l-4.733-.503v-.129l-8.567-.503c0 .203-.118.418-.171.632h-5.504c.075-.321.15-.643.214-.953l-4.658-.278v.086l.161.268h-.3v.064h-.396l-11.062.792c-.688-.151-1.365-.351-2.024-.6l-7.871.953-1.392.514-.225.086.225-.086h-.268l-2.056-4.487 1.681.118.064-1.071-13.022-.835-.064 1.071.857.064-1.928 4.219-.118.268.118-.268-2.859-.182.439.985 2.656.45 3.962 10.709c-1.403-4.915-2.742-9.777-2.742-9.777l7.807.482s24.759 1.542 27.919 1.681h.3c-.11.009-.222.009-.332 0-2.913 0-24.545-.171-24.545-.171l42.965 1.788h-41.123l46.445 1.531h-43.318l46.22 1.307-41.594.418 44.261.857-39.27.771 40.748.225-31.945.942 41.359.064 2.72-5.986-1.071-.054c-.246-.343-.51-.672-.792-.985h-.589v-4.284h.814v-1.071h-.867c0 .096.075.182.118.257l-1.071.107zm-21.14 1.071 3.866.236c.291.1.445.417.345.708-.064.184-.219.322-.409.363l-3.866-.246c-.305-.023-.537-.283-.525-.589.039-.289.298-.497.589-.471zm-11.234-.557 3.866.246c.291.1.445.417.345.708-.064.184-.219.322-.409.363l-3.866-.246c-.301.065-.597-.127-.662-.427-.065-.301.127-.597.427-.662.099-.021.203-.015.299.018zm-11.448-.771 3.866.236c.304.023.532.285.514.589-.017.301-.275.532-.576.515-.004 0-.009 0-.013 0l-3.866-.236c-.304-.023-.532-.285-.514-.589.017-.301.275-.532.576-.515zm-26.773.578-4.937-.321 1.949-4.284 2.988.203v4.401zm1.071.064v-4.369l4.284.289 1.574 4.455zm69.609 4.466-2.956-.193v-3.952h2.956v4.144z"/><path d="m349.352 103.953h5.504c.054-.214.118-.428.171-.632l-5.462-.321c-.064.311-.139.632-.214.953z"/><path d="m345.058 103.118-.161-.268v.278l.161-.011z"/><path d="m371.798 105.602c-.233.371-.487.728-.76 1.071h2.206l-.835-1.071h-.61z"/><path d="m344.469 103.161-1.371-.118v-.418l-7.903-.471-.246.771-3.566.428c.659.248 1.336.449 2.024.6z"/><path d="m378.031 103.942h-1.071c0-.096-.075-.225-.118-.332h-1.585v1.071h.632v1.896l1.017-.889v-1.007h1.124c.775-.22 1.501-.583 2.142-1.071h-2.227c.086.118.086.268.086.332z"/><path d="m363.638 103.878v.129l4.733.503v-.064l-.428-.321-4.305-.246z"/><path d="m383.964 103.942 1.071-.064c0-.075-.075-.161-.118-.257h-1.103c.054.118.096.257.15.321z"/><path d="m344.833 103.193v-.064h-.407z"/><path d="m344.897 102.807v-.129h-.064s0 .129.064.129z"/><path d="m376.96 103.953h1.071c0-.096-.064-.214-.107-.321h-1.071c.107.096.107.246.107.321z"/><path d="m343.13 102.625v.418l1.371.118h.407v-.278s-.075-.075-.075-.161l-1.703-.096z"/><path d="m363.991 115.776s-1.767.921-1.895 4.766c-.129 3.845-1.713 8.128-.643 9.553.632.723 1.219 1.485 1.756 2.281.171.428 1.071.428 2.763 1.285 1.407.611 2.886 1.039 4.401 1.274h-43.361c1.1-.075 2.183-.313 3.213-.707 2.045-.718.3-.996 2.238-2.42s.493-1.285 2.292-3.855 3.341.075 3.63-2.527-3.577-2.452-3.63-4.166c-.054-1.713-.418-3.513-1.328-4.134-.905-.595-1.894-1.049-2.934-1.349h7.571c.066.743.387 1.439.91 1.97.573.616 1.011 1.346 1.285 2.142-.071-.296-.071-.604 0-.9.195-.43.29-.899.278-1.371-.107-.246-.45-.878-.268-1.071s0-.718 0-.718l23.721-.054z"/></g></svg>