<svg viewBox="0 0 590 266.857" xmlns="http://www.w3.org/2000/svg"><g fill="#e66100"><path d="m12.282 203.127h-4.131c-3.854 0-4.824.499-6.127 3.272-.36.859-.555.97-.749.97-.464-.043-.906-.216-1.275-.499l1.359-7.68c0-.305 0-.416.776-.416s1.248 0 1.497.721c.555 1.469 1.22 1.469 14.473 1.469 7.125 0 8.04-.36 9.454-1.719.212-.294.552-.469.915-.471.388 0 1.248.166 1.248.416s-1.359 4.048-2.412 7.93c-.115.048-.245.048-.36 0-.488-.042-.966-.164-1.414-.36.272-.795.421-1.627.444-2.468 0-.859-.333-1.414-4.131-1.414h-4.907v21.099c0 3.521.555 4.076 4.797 4.076.416 0 .471 0 .471.721s0 .998-.471.998c-.915 0-3.383-.333-7.125-.333s-6.211.333-7.125.333c-.416 0-.499-.25-.499-.998s0-.721.499-.721c4.242 0 4.797-.555 4.797-4.076v-20.85z"/><path d="m49.102 203.238c1.158-1.248 2.505-2.305 3.992-3.133.25 0 .416.25 1.885 3.826l8.789 21.099c.649 2.119 2.702 3.488 4.907 3.272.333 0 .388 0 .388.721s0 .998-.499.998-2.634-.333-5.046-.333c-4.602 0-6.848.333-7.708.333s-.749-.333-.749-1.054.194-.665.749-.665h.915c1.774 0 2.44-.388 2.44-1.553-.071-.674-.259-1.331-.555-1.941l-2.273-5.85h-10.536c-1.181 2.214-1.934 4.632-2.218 7.125 0 1.913 1.525 2.163 4.242 2.163.144.215.23.463.25.721 0 .749-.25.998-.638.998-1.627-.215-3.266-.326-4.907-.333-.859 0-5.545.333-6.016.333s-.61 0-.61-.943c-.011-.272.056-.542.194-.776 2.243.317 4.37-1.086 4.963-3.272l8.04-21.737zm-2.468 13.863h8.817l-4.88-11.783z"/><path d="m97.039 207.369c0 .416-.194.527-.555.527-.395.009-.788-.047-1.164-.166-.326-3.055-2.837-5.412-5.906-5.545-2.463-.146-4.604 1.676-4.852 4.131 0 6.931 14.306 5.545 14.306 15.776 0 4.713-4.242 8.512-10.369 8.512-2.639.044-5.251-.535-7.625-1.691-.363-2.054-.604-4.128-.721-6.211l.305-.305h.416c.296-.021.593.036.859.166.598 3.405 3.53 5.907 6.987 5.961 2.807.247 5.282-1.828 5.529-4.635.019-.21.024-.422.016-.633 0-6.931-13.863-5.545-13.863-15.11 0-3.854 2.773-8.04 9.399-8.04 2.447-.018 4.871.463 7.125 1.414l.111 5.85z"/><path d="m127.815 200.105c11.09 0 17.079 7.375 17.079 14.667-.009 8.728-7.092 15.796-15.821 15.787-.188 0-.377-.004-.565-.011-11.09 0-17.079-7.347-17.079-14.584-.021-8.743 7.05-15.848 15.794-15.869.197 0 .395.003.592.01zm.915 28.419c7.015 0 10.619-6.488 10.619-11.95 0-7.93-4.297-14.445-11.783-14.445-6.987 0-10.619 6.155-10.619 12.033 0 6.516 3.937 14.362 11.783 14.362z"/><path d="m183.543 206.426c0-3.493-.555-4.048-4.797-4.048-.416 0-.499 0-.499-.721s0-.998.499-.998c.915 0 3.383.305 7.125.305 9.399 0 11.839-.305 15.415-.305.471 0 .61.139.61.499-.231 1.112-.334 2.247-.305 3.383.009.822.111 1.641.305 2.44 0 .194-.555.305-.998.305s-.721-.166-.721-.471c-.015-1.264-.476-2.482-1.303-3.438-.859-.749-2.329-.998-5.212-.998-5.545 0-5.545.915-5.545 3.133v8.318h4.297c1.521.075 3.038-.2 4.436-.804.721-.36 1.081-2.329 1.081-2.773s0-.693.859-.693.859 0 .859.194-.305 2.273-.305 4.242c-.014 1.732.079 3.464.277 5.185 0 .416 0 .555-.97.555s-.749 0-.749-.638-.36-2.551-.97-2.939c-1.028-.576-2.213-.809-3.383-.665h-5.545v8.761c0 3.521.555 4.076 4.797 4.076.416 0 .499 0 .499.721s0 .998-.499.998c-.915 0-3.383-.333-7.125-.333s-6.211.333-7.125.333c-.416 0-.499-.25-.499-.998s0-.721.499-.721c4.242 0 4.797-.555 4.797-4.076l.194-17.828z"/><path d="m229.873 200.105c11.09 0 17.051 7.375 17.051 14.667-.009 8.728-7.092 15.796-15.821 15.787-.188 0-.377-.004-.565-.011-11.09 0-17.051-7.347-17.051-14.584-.021-8.743 7.05-15.848 15.794-15.869.197 0 .395.003.592.01zm.915 28.419c7.015 0 10.619-6.488 10.619-11.95 0-7.93-4.297-14.445-11.783-14.445-6.987 0-10.619 6.155-10.619 12.033.028 6.516 3.937 14.362 11.783 14.362z"/><path d="m263.559 206.426c0-3.493-.555-4.048-4.769-4.048-.444 0-.499 0-.499-.721s0-.998.499-.998c.915 0 3.355.305 7.098.305 2.523 0 5.046-.305 7.874-.305 6.321 0 9.87 2.773 9.87 6.931s-3.355 6.1-7.735 6.82c2.641 2.315 4.905 5.027 6.71 8.04 3.244 4.741 4.297 5.545 6.432 5.545.444 0 .555 0 .555.749 0 1.22 0 1.303-.36 1.303-1.071-.253-2.171-.365-3.272-.333-1.386 0-2.773.333-3.105.333-2.071-1.862-3.856-4.02-5.296-6.405-5.212-7.902-5.822-8.151-9.316-8.151v8.761c0 3.521.555 4.076 4.769 4.076.444 0 .499 0 .499.721s0 .998-.499.998c-.915 0-3.355-.333-7.125-.333s-6.183.333-7.098.333c-.444 0-.499-.25-.499-.998s0-.721.499-.721c4.214 0 4.769-.555 4.769-4.076v-17.828zm4.686 7.209c.754.1 1.513.147 2.273.139 5.767 0 8.04-2.773 8.04-5.961s-3.078-5.101-6.71-5.101-3.688 1.164-3.688 6.321c0 2.745.083 3.798.083 4.602z"/><path d="m305.647 206.426c0-3.493-.527-4.048-4.769-4.048-.444 0-.499 0-.499-.721s0-.998.499-.998c.915 0 3.383.305 7.125.305 7.181 0 12.809-.305 16.635-.305.166 0 .222.25.222.555-.235 1.233-.337 2.488-.305 3.743.011.685.113 1.366.305 2.024.041.183.041.372 0 .555h-1.608c-.471-3.937-.97-5.157-7.541-5.157-4.907 0-5.268.194-5.268 4.297v6.959h4.048c2.523 0 3.937-.305 4.852-3.244.25-.804.36-.943 1.109-.943s.61 0 .61.388c0 .915-.194 4.464-.194 6.072 0 2.079.194 3.188.194 3.549s0 .305-.859.305-.859 0-.859-.416c-.028-1.187-.436-2.334-1.164-3.272-.749-.555-1.248-.721-3.272-.721h-4.464v6.599c-.073 1.737.114 3.475.555 5.157.665.61 1.636.915 5.545.915 1.871.203 3.763-.005 5.545-.61 2.246-.859 3.549-5.018 4.103-5.018s1.414.416 1.414.665-2.079 4.963-2.412 6.016c-.333 1.054-.305.998-.665.998-2.523 0-11.977-.333-16.192-.333-3.743 0-6.211.333-7.125.333-.444 0-.499-.25-.499-.998s0-.721.499-.721c4.242 0 4.769-.555 4.769-4.076l-.333-17.855z"/><path d="m355.941 207.369c0 .416-.166.527-.555.527-.394.005-.787-.051-1.164-.166-.313-3.05-2.815-5.41-5.878-5.545-2.463-.146-4.604 1.676-4.852 4.131 0 6.931 14.306 5.545 14.306 15.776 0 4.713-4.242 8.512-10.369 8.512-2.639.044-5.251-.535-7.625-1.691-.36-2.055-.61-4.129-.749-6.211l.333-.305h.416c.296-.021.593.036.859.166.532 3.415 3.421 5.966 6.876 6.072 2.807.247 5.282-1.828 5.529-4.635.019-.21.024-.422.016-.633 0-6.931-13.863-5.545-13.863-15.11 0-3.854 2.773-8.04 9.399-8.04 2.446-.015 4.87.466 7.125 1.414l.194 5.739z"/><path d="m380.284 203.127h-4.131c-3.854 0-4.852.499-6.127 3.272-.36.859-.555.97-.749.97-.45-.002-.891-.126-1.275-.36l1.359-7.68c0-.305 0-.416.776-.416s1.248 0 1.497.721c.527 1.469 1.22 1.469 14.473 1.469 7.125 0 8.04-.36 9.454-1.719.212-.294.552-.469.915-.471.36 0 1.22.166 1.22.416s-1.331 4.048-2.384 7.93c-.115.048-.245.048-.36 0-.488-.042-.966-.164-1.414-.36.267-.796.407-1.628.416-2.468 0-.859-.305-1.414-4.103-1.414h-4.907v21.099c0 3.521.555 4.076 4.797 4.076.416 0 .471 0 .471.721s0 .998-.471.998c-.943 0-3.383-.333-7.125-.333s-6.211.333-7.125.333c-.444 0-.499-.25-.499-.998s0-.721.499-.721c4.242 0 4.797-.555 4.797-4.076v-20.988z"/><path d="m454.921 208.7c-1.025-4.175-4.952-6.97-9.233-6.571-6.987 0-10.619 6.516-10.619 12.033 0 6.516 3.937 14.362 11.783 14.362 3.221.304 6.281-1.465 7.625-4.408l1.525-3.493 1.608.25c-.499 1.83-1.109 4.963-1.608 7.486-2.972 1.271-6.144 2.012-9.371 2.19-11.09 0-17.079-7.347-17.079-14.584-.021-8.743 7.05-15.848 15.794-15.869.197 0 .395.003.592.01 3.293-.004 6.56.578 9.648 1.719.148 2.307.435 4.603.859 6.876h-1.525z"/><path d="m480.983 203.238c1.163-1.242 2.509-2.299 3.992-3.133.25 0 .444.25 1.913 3.826l8.9 21.099c.64 2.126 2.699 3.499 4.907 3.272.305 0 .36 0 .36.721s0 .998-.499.998-2.634-.333-5.018-.333c-4.602 0-6.876.333-7.735.333s-.749-.333-.749-1.054.194-.665.749-.665h.915c1.774 0 2.468-.388 2.468-1.553-.085-.671-.272-1.326-.555-1.941l-2.274-5.85h-10.563c-1.181 2.214-1.934 4.632-2.218 7.125 0 1.913 1.553 2.163 4.242 2.163.144.215.23.463.25.721 0 .749-.25.998-.61.998-1.627-.212-3.266-.323-4.907-.333-.859 0-5.545.333-6.016.333s-.61 0-.61-.943c-.007-.268.05-.534.166-.776 2.247.306 4.375-1.089 4.991-3.272l7.902-21.737zm-2.44 13.863h8.9l-5.018-11.783z"/><path d="m546.582 219.762c0 8.096.665 8.539 4.602 8.539.859 0 1.054.222 1.054.721s-.194.998-.444.998c-.804 0-2.523-.333-6.821-.333-1.719 0-5.545.333-6.987.333-.36 0-.499 0-.499-.859s0-.859.61-.859c3.826 0 4.242-.749 4.242-5.296v-18.049c-2.578 5.961-9.454 21.626-10.674 25.591h-1.275c-1.164-4.214-6.516-15.942-10.064-24.177h-.139c-.194 5.767-.416 12.088-.416 17.384 0 3.688.721 4.547 4.214 4.547.555 0 .749 0 .749.97s0 .749-.444.749-3.493-.333-5.268-.333c-2.149-.043-4.299.068-6.432.333-.305 0-.388 0-.388-.749s0-.97.693-.97c3.854 0 4.297-1.414 4.547-5.351s.61-10.619.61-16.081c0-3.688-.555-4.492-4.852-4.492-.499 0-.555 0-.555-.61s0-1.109.416-1.109 2.578.305 5.351.305c.931-.027 1.858-.129 2.773-.305.804 0 .97.139 1.22.693l9.843 21.293 9.122-20.739c.499-1.192.555-1.248.943-1.248s3.743.305 5.545.305c1.068-.032 2.133-.134 3.188-.305.444 0 .555 0 .555.915s0 .804-.471.804c-4.131 0-4.492.25-4.492 5.545l-.055 11.839z"/><path d="m569.178 206.509c0-3.327-.166-4.131-2.634-4.131-.665 0-1.885.305-2.19.305s-.388-.166-.388-.555c.019-.394.084-.785.194-1.164 2.384-.305 9.51-.859 12.449-.859 8.318 0 13.391 2.773 13.391 8.789 0 5.711-6.377 8.318-10.813 8.318-.943.015-1.881-.135-2.773-.444-.029-.202-.029-.408 0-.61 0-.555 0-.721.36-.721h1.303c3.688.138 6.789-2.74 6.927-6.428.003-.075.004-.151.005-.226.343-3.505-2.221-6.624-5.726-6.967-.438-.043-.879-.04-1.316.008-3.383 0-3.992 1.248-3.992 4.381v18.022c0 3.521.555 4.076 4.769 4.076.444 0 .499 0 .499.721s0 .998-.499.998c-.915 0-3.355-.333-7.098-.333s-6.211.333-7.125.333c-.444 0-.499-.25-.499-.998s0-.721.499-.721c4.242 0 4.769-.555 4.769-4.076l-.111-17.717z"/><path d="m263.615 260.352c0-.915 0-1.081-1.275-1.081 0 0-.139 0-.139-.194s0-.25.139-.25h6.321c-.036.332-.036.666 0 .998-.023.184-.023.37 0 .555h-.444c-.139-1.054-.25-1.386-1.996-1.386s-1.414 0-1.414 1.164v1.885h1.081c.665 0 1.026 0 1.275-.887 0-.194 0-.222.305-.222s.166 0 .166 0v2.578c0 .111 0 0-.222 0h-.25c-.004-.321-.111-.632-.305-.887-.194-.139-.333-.194-.859-.194h-1.192v1.719c-.068.46-.068.927 0 1.386.194.166.444.25 1.469.25.487.034.975-.023 1.442-.166.582-.222.943-1.359 1.081-1.359s.388 0 .388.194-.555 1.331-.638 1.608 0 .25-.194.25h-6.211c-.25 0-.139 0-.139-.25s0-.194.139-.194c1.137 0 1.275-.166 1.275-1.081l.194-4.436z"/><path d="m277.533 260.602v.166h-.305c-.082-.822-.755-1.46-1.58-1.497-.659-.033-1.231.453-1.303 1.109 0 1.83 3.826 1.469 3.826 4.187-.113 1.373-1.319 2.395-2.692 2.281-.027-.002-.054-.005-.08-.008-.7.016-1.395-.136-2.024-.444-.114-.548-.179-1.104-.194-1.664h.333c.144.911.909 1.594 1.83 1.636.746.077 1.414-.465 1.491-1.211.007-.067.009-.135.006-.203 0-1.858-3.715-1.497-3.715-4.02 0-1.026.721-2.135 2.523-2.135.646-.005 1.287.117 1.885.36v1.442z"/><path d="m284.547 259.493h-1.109c-1.026 0-1.275 0-1.636.887 0 .222 0 .25-.194.25-.11.025-.223.025-.333 0l.36-2.052h.194c.194 0 .333 0 .416.194s.305.388 3.854.388c1.885 0 2.135 0 2.523-.471.079-.036.17-.036.25 0h.333s-.36 1.081-.638 2.107h-.388c.031-.221.031-.445 0-.665 0-.222 0-.388-1.109-.388h-1.303v5.545c0 .915 0 1.081 1.275 1.081v.444h-3.798c-.25 0 0 0 0-.25s0-.194 0-.194c1.137 0 1.275-.166 1.275-1.081z"/><path d="m297.717 266.563c-.194 0-.222 0-.222-.166s0 0 .277-.277l.25-.194c2.773-2.246 3.466-3.327 3.466-4.325.003-.735-.591-1.333-1.326-1.335-.039 0-.077.001-.116.005-.442.017-.86.206-1.164.527-.194.222-.222.25-.25.25s-.305 0-.305-.25 0 0 .333-.471c.476-.698 1.262-1.122 2.107-1.137 1.085-.062 2.015.768 2.077 1.854.003.057.004.114.002.17 0 1.054-.665 1.774-2.384 3.244l-.887.776h4.408c-.204.492-.495.943-.859 1.331h-5.406z"/><path d="m311.192 259.188c2.075.31 3.506 2.243 3.196 4.317-.247 1.652-1.544 2.95-3.196 3.196-2.067.031-3.767-1.62-3.798-3.687 0-.019 0-.037 0-.056-.047-2.036 1.566-3.725 3.602-3.771.066-.002.131-.001.197 0zm0 6.377c1.436.095 2.678-.992 2.773-2.428.008-.115.008-.23 0-.344 0-1.774-1.359-2.44-2.773-2.44-1.403-.123-2.641.915-2.763 2.319-.005.059-.008.118-.009.176.03 1.499 1.246 2.702 2.745 2.717h.028z"/><path d="m318.151 266.563c-.194 0-.222 0-.222-.166s0 0 .277-.277l.222-.194c2.773-2.246 3.493-3.327 3.493-4.325-.013-.75-.631-1.348-1.382-1.335-.029 0-.059.002-.088.004-.434.018-.843.207-1.137.527-.194.222-.222.25-.25.25s-.333 0-.333-.25 0 0 .36-.471c.468-.694 1.243-1.118 2.079-1.137 1.101-.061 2.043.781 2.104 1.882.003.047.004.095.003.142 0 1.054-.665 1.774-2.384 3.244l-.915.776h4.436c-.194.491-.476.942-.832 1.331h-5.434z"/><path d="m331.598 259.188c2.075.178 3.612 2.005 3.434 4.08-.157 1.827-1.606 3.277-3.434 3.434-2.067.015-3.755-1.648-3.771-3.715 0-.009 0-.019 0-.028-.062-2.02 1.525-3.708 3.545-3.771.075-.002.15-.002.225 0zm0 6.377c1.436.095 2.678-.992 2.773-2.428.008-.115.008-.23 0-.344 0-1.774-1.331-2.44-2.773-2.44-1.42-.108-2.658.956-2.766 2.376-.003.04-.005.08-.006.119.03 1.51 1.263 2.717 2.773 2.717z"/><path d="m252.303 114.516c2.029.333 4.098.333 6.127 0 3.995-.701 7.948-1.627 11.839-2.773 2.869-.756 5.582-2.014 8.013-3.715 1.802-1.331 3.521-2.773 5.296-4.159 1.421-1.293 2.921-2.497 4.492-3.604.841-.76 2.138-.694 2.898.147.014.015.028.031.041.047 2.384 2.079 2.052 1.525 2.218 4.408.09 2.299.406 4.583.943 6.82.222.915.305 1.858.471 2.773.178 1.528.795 2.972 1.774 4.159.344.494.615 1.036.804 1.608.665 1.442 1.275 2.773 1.996 4.325.25.471.555 1.164 1.359.915.593.464 1.15.974 1.664 1.525.69.852 1.492 1.608 2.384 2.246.222 0 .527.416.721.36.943-.277 1.386.416 1.941.915s1.137.97 1.719 1.442c.232.039.451.134.638.277.804.61 1.58 1.22 2.44 1.747.33-.425.479-.963.416-1.497-.105-.6-.028-1.218.222-1.774.17-.54.746-.841 1.286-.671.006.002.011.004.017.005.665 0 1.275.305 1.941.416.491.147 1.02-.045 1.303-.471.292-.42.798-.635 1.303-.555 1.163.116 2.315-.303 3.133-1.137.381-.329.889-.472 1.386-.388l1.469.222 2.412.416c1.377.32 2.809.32 4.187 0 .188-.393.43-.757.721-1.081.362-.235.767-.395 1.192-.471.43-.094.865-.159 1.303-.194.813-.057 1.601-.304 2.301-.721 1.057-.617 2.27-.916 3.493-.859h3.272c1.081 0 1.969 0 2.939-.25l2.163-.194c-.084-.162-.177-.319-.277-.471-.804-.749-1.58-1.525-2.412-2.218s-2.357-1.83-3.577-2.634c-1.128-.794-2.152-1.726-3.05-2.773l.416-.638c-.56-.569-1.205-1.046-1.913-1.414-.6-.37-1.036-.955-1.22-1.636.118-.184.248-.36.388-.527-1.338-.994-2.767-1.857-4.27-2.578-.198-.095-.402-.179-.61-.25-.721-.36-.721-.388-.61-1.497-1.036-.78-2.162-1.432-3.355-1.941-.915-.36-1.83-.776-2.773-1.164s-.998-.305-1.331-.859-.804-.527-1.248-.749l-1.081-.693c-.069-.938.595-1.771 1.525-1.913 1.164-.351 2.329-.684 3.493-.998 1.302-.304 2.464-1.036 3.299-2.079.801-.978 1.871-1.701 3.078-2.079 1.244-.298 2.32-1.075 2.994-2.163.357-.49.798-.912 1.303-1.248 1.469-1.22 2.994-2.384 4.492-3.577.244-.217.476-.449.693-.693.194-.212.194-.537 0-.749-.19-.203-.19-.518 0-.721.36-.388.36-.749-.25-1.054l2.606-2.495 2.052-1.885c.527-.499 1.081-.998.887-1.83.536-1.314 1.254-2.547 2.135-3.66.887-1.054 1.802-2.079 2.773-3.133.388-.499.915-.998.61-1.747.305-.804.222-1.719.832-2.412.346-.43.661-.884.943-1.359.956-1.193 1.654-2.572 2.052-4.048.126-.369.294-.722.499-1.054 1.158-2.058 2.564-3.967 4.187-5.684l3.688-3.965 1.414-1.719c-.194-.471-.499-.36-.749-.305l-7.541 1.719c-1.22.277-2.44.638-3.66.915-1.208.388-2.507.388-3.715 0-.221-.027-.444-.027-.665 0-1.476.107-2.921.473-4.27 1.081-.961.555-2.145.555-3.105 0l-.305-.166h-.25c-.966.228-1.899.582-2.773 1.054-.769.452-1.678.6-2.551.416-.372-.078-.76-.008-1.081.194l-2.218 1.081c-.249.112-.509.196-.776.25-.506.125-1.016-.184-1.141-.69-.012-.047-.019-.094-.024-.142-.028-.499-.028-.999 0-1.497v-1.164c-.406.041-.814.041-1.22 0-.324-.021-.643-.096-.943-.222-.475-.173-.719-.699-.545-1.173.006-.016.012-.031.018-.046 0-.305.277-.61.416-.915.444-1.109.915-2.218 1.359-3.355.267-.679.325-1.423.166-2.135-.378.026-.758.026-1.137 0-.505 0-.915-.41-.915-.915 0-.075.009-.149.027-.221 0-.36.222-.721.305-1.109.36-1.469.749-2.967 1.109-4.464.028-.323.028-.648 0-.97-.44-.088-.875-.199-1.303-.333-.376-.151-.595-.544-.527-.943.05-.379.143-.751.277-1.109.36-1.391.36-2.851 0-4.242-.046-.262-.172-.504-.36-.693-.381-.409-.528-.984-.388-1.525 0-.887.25-1.747.305-2.634.055-.979.055-1.96 0-2.939.014-.769-.23-1.521-.693-2.135-.48-.677-.706-1.502-.638-2.329 0-2.773.25-5.379.388-8.068 0-1.747.166-3.493.277-5.24s.305-2.939.444-4.408v-.943c0-.333-.333 0-.388 0-1.785 2.143-3.398 4.424-4.824 6.82-1.58 2.44-3.105 4.907-4.713 7.347-.845 1.002-1.597 2.078-2.246 3.216 0 .222-.388.527-.61.499-.887 0-1.192.665-1.58 1.22-.704.889-1.361 1.815-1.969 2.773-.372.901-1.37 1.37-2.301 1.081h-.305c-1.032 1.482-1.862 3.095-2.468 4.797-.416 1.442-.638 1.608-2.135 1.774h-.277c-.844.884-1.462 1.959-1.802 3.133-.171.645-.516 1.23-.998 1.691-.185.184-.335.4-.444.638 0 .194 0 .416-.222.638-.582 1.303-.859 1.469-2.44 1.497-.482.875-.854 1.806-1.109 2.773-.159.574-.373 1.131-.638 1.664-.36.776-.471.804-1.664.859-.228.336-.415.7-.555 1.081-.494 1.517-.783 3.092-.859 4.686.058.265.058.539 0 .804 0 .277-.388.721-.582.721-.943 0-1.054.832-1.58 1.248s-.499 1.164-.61 1.719-.416-.194-.471-.333c-.222-.61-.416-1.248-.61-1.885-.221-.57-.708-.995-1.303-1.137 0 0-.388 0-.693.194s-.194-.527-.25-.776c-.183-.85-.542-1.653-1.054-2.357-.282-.41-.48-.872-.582-1.359-.222-.638-.416-1.248-.61-1.885-.165-.492-.595-.847-1.109-.915l-1.58.638c-.497-.965-.897-1.977-1.192-3.022-.527-.577-1.363-.755-2.079-.444-.721-1.303-1.414-2.578-2.107-3.798-.183-.516-.535-.956-.998-1.248-.527-.25-.97 0-1.442 0h-.333c-1.913-2.19-3.244-4.963-5.989-6.46-.305.194-.555.388-.832.527-.216.114-.438.216-.665.305l-.998-.887c-.883-.785-1.861-1.455-2.911-1.996-.651-.402-1.224-.918-1.691-1.525-1.081-1.525-2.468-3.022-3.854-4.436s-2.246-2.412-3.355-3.604c-.305-.333-.638-.582-1.054-.97-.256.906-.256 1.866 0 2.773.527 2.135 1.054 4.27 1.608 6.377.397 1.552.63 3.141.693 4.741.009.817.074 1.632.194 2.44.166.915 0 1.497-.943 1.802 0 0-.166.139-.305.305.25 1.608.471 3.299.749 4.963.277 1.664.305 1.636-1.081 2.773.388 1.026.749 2.107 1.164 3.188.25.665.527 1.303.776 1.969.29.559.213 1.238-.194 1.719-.257.287-.332.694-.194 1.054 0 .527.305 1.054.416 1.58s.166 1.192.277 1.802l-1.303 1.137c.665 1.497 1.359 2.967 2.052 4.464.166.388.388.776.527 1.192s.194.97.305 1.497l-.832.97c.464 1.303 1.108 2.535 1.913 3.66.596.725 1.013 1.58 1.22 2.495l-.582.721c.372 1.699 1.36 3.2 2.773 4.214.588.403 1.041.973 1.303 1.636.268.667.785 1.204 1.442 1.497.499.25.943.527 1.442.832-.044 1.18.622 2.272 1.691 2.773l1.58.859c.815.389 1.563.903 2.218 1.525-.887.305-1.497-.416-2.246-.222v.444c-.639-.391-1.306-.734-1.996-1.026-.727-.254-1.467-.467-2.218-.638h-.471l-6.044-.36c-.492-.057-.97-.198-1.414-.416-1.15-.416-2.339-.713-3.549-.887-.476.977-1.654 1.384-2.632.908-.048-.023-.095-.049-.141-.076-1.223-.376-2.492-.582-3.771-.61-.158.131-.29.291-.388.471-.286.494-.855.75-1.414.638l-1.303-.222-2.773-.222q-.915 1.054-2.163 1.081h-6.737c-.851.013-1.679.273-2.384.749 0 .25.194.527.388.665.656.497 1.362.924 2.107 1.275 1.767.885 3.4 2.014 4.852 3.355.859.693 1.553 1.553 2.384 2.357-.279 1.206.276 2.45 1.359 3.05.749.527 1.553.998 2.273 1.469.222.749-.305 1.22-.416 1.802.128.544.481 1.007.97 1.275l.832.527 4.797 2.495c.094.051.171.128.222.222l-.555 1.414c.638.943 1.664.943 2.495 1.331l2.495 1.22 2.551 1.026c.166.527-.416.61-.499 1.081s.36.388.693.36c.985-.121 1.984-.045 2.939.222.569.171 1.125.384 1.664.638.97.388 1.913.804 3.022 1.303l4.297-.859c-.273.558-.782.965-1.386 1.109l-2.079.555c-.764.1-1.47.463-1.996 1.026-.278.27-.64.436-1.026.471-2.468.471-4.963.859-7.43 1.331-.61 0-1.164-.277-1.747 0s-1.137.388-1.719.582l-.804.305c.665.194.915.499.915.887zm42.337-27.726c.099.823-.176 1.647-.749 2.246-.749.859-1.553 1.691-2.273 2.606-.607.875-1.551 1.458-2.606 1.608 0-.471-.194-.943-.25-1.414 0-.998 0-1.996-.277-2.967-.138-.583-.138-1.191 0-1.774.207-.63.207-1.31 0-1.941-.15-.488-.046-1.019.277-1.414.599-.867 1.101-1.796 1.497-2.773.555-1.081 1.359-1.331 2.246 0 .121.179.232.364.333.555 1.021 1.605 1.648 3.429 1.83 5.323zm1.109 9.787c-1.589.806-3.501.623-4.907-.471.288-1.205.971-2.279 1.941-3.05.763-.619 1.468-1.306 2.107-2.052 1.468-1.474 3.464-2.303 5.545-2.301.569-.088 1.111.273 1.248.832.166.582.25 1.192.36 1.774.095.441-.017.901-.305 1.248-.277.333-.555.665-.859.97-1.433 1.422-3.181 2.486-5.102 3.105zm-3.826 2.079c.609-.648 1.523-.914 2.384-.693l4.713 1.248c.166 0 .333.194.749.416-1.663.404-3.363.637-5.074.693-1.135-.014-2.178-.625-2.745-1.608l-.028-.055zm-9.454-4.935c-.552-.285-.903-.849-.915-1.469.024-.887-.378-1.732-1.081-2.273-.527-.555-1.081-1.109-1.636-1.636l-2.273-2.163c-.151-.148-.282-.316-.388-.499-.069-.14-.069-.304 0-.444.084-.134.23-.218.388-.222 1.009.235 2.042.347 3.078.333.779-.061 1.544.235 2.079.804.516.493 1.13.871 1.802 1.109 1.399.365 2.566 1.329 3.188 2.634.46.85.689 1.806.665 2.773.04.716-.233 1.414-.749 1.913-.221.291-.407.608-.555.943h-.36c-.697-.609-1.521-1.054-2.412-1.303-.293-.097-.566-.247-.804-.444l-.028-.055z" fill-rule="evenodd"/><path d="m243.32 158.184h-6.626c-.25 0-.139 0-.139-.25s0-.194.139-.194c1.137 0 1.275-.166 1.275-1.081v-4.602c0-.943 0-1.081-1.275-1.081 0 0-.139 0-.139-.194s0-.277.139-.277h3.798c.25 0 .139 0 .139.277s0 .194-.139.194c-1.137 0-1.275.139-1.275 1.081v4.297c0 1.22.416 1.442 1.636 1.442s1.941-.25 2.163-.665l.333-.693h.416c.021.166.021.333 0 .499l-.444 1.248z"/><path d="m248.116 152.056c0-.943 0-1.081-1.275-1.081v-.471h3.798c.25 0 0 0 0 .277s0 .194 0 .194c-1.137 0-1.275.139-1.275 1.081v3.188c0 1.885.915 2.606 2.273 2.606s2.107-.998 2.107-2.773v-2.606c0-1.442 0-1.497-1.137-1.497v-.471c.489.029.98.029 1.469 0h1.525c.194 0 0 0 0 .25s0 .222 0 .222h-.222c-.721 0-.915.277-.915 1.137v3.493c0 2.107-1.275 2.773-3.078 2.773-.948.033-1.875-.283-2.606-.887-.555-.555-.693-.97-.693-2.301l.028-3.133z"/><path d="m262.201 154.829c.076-.074.125-.172.139-.277l-.222-.388-1.774-2.551c-.188-.421-.622-.678-1.081-.638v-.333c.498.035.999.035 1.497 0h1.469q.222 0 .222.222c0 .222 0 .25-.166.25-.61 0-.638 0-.638.194s0 .25.416.721l1.137 1.664 1.164-1.664c.168-.199.283-.437.333-.693 0-.194 0-.222-.444-.222s-.25 0-.25-.166 0-.305.139-.305h2.357c.25 0 0 0 0 .222v.25c-.499 0-.887 0-1.442.943l-1.442 1.996 1.885 2.773c.638.97.804 1.081 1.303 1.081s.166 0 .166.222v.222c-.526-.028-1.054-.028-1.58 0-.545-.031-1.091-.031-1.636 0v-.25c0-.25 0-.194.166-.194s.693 0 .693-.333 0-.305-.471-.859l-1.137-1.608-1.275 1.774c-.173.217-.287.475-.333.749 0 .166 0 .25.749.25v.444c-.502-.102-1.013-.148-1.525-.139-.489-.032-.98-.032-1.469 0v-.444c.749 0 .832 0 1.386-.832l1.664-2.079z"/><path d="m271.711 152.056c0-.887 0-1.081-.693-1.081h-.582v-.139c-.018-.101-.018-.204 0-.305.638 0 2.523-.222 3.327-.222 2.19 0 3.549.693 3.549 2.329s-1.691 2.218-2.773 2.218c-.248.036-.5.036-.749 0-.013-.055-.013-.112 0-.166v-.194h.333c.979.046 1.81-.71 1.856-1.689.001-.028.002-.057.002-.085.099-.929-.574-1.762-1.503-1.86-.127-.013-.255-.013-.382.003-.887 0-1.054.333-1.054 1.164v4.769c0 .915 0 1.081 1.275 1.081v.444h-3.798c-.25 0 0 0 0-.25s0-.194 0-.194c1.137 0 1.275-.166 1.275-1.081l-.083-4.741z"/><path d="m282.163 152.056c0-.943 0-1.081-1.275-1.081v-.471h6.349v.139c-.034.332-.034.666 0 .998-.023.184-.023.37 0 .555h-.416c0-1.054-.277-1.359-2.024-1.359-1.303 0-1.414 0-1.414 1.137v1.885h1.081c.665 0 1.054 0 1.303-.887 0-.194 0-.222.305-.222s0 0 0 0v2.578c0 .111 0 0-.222 0h-.222c-.004-.321-.111-.632-.305-.887-.194 0-.333-.194-.887-.194h-1.192v1.719c-.018.468.038.936.166 1.386.166.166.444.25 1.442.25.487.04.977-.017 1.442-.166.61-.222.943-1.359 1.109-1.359s.36 0 .36.194-.555 1.331-.638 1.608 0 .25-.166.25l-4.159.055h-1.913c-.25 0 0 0 0-.25s0-.194 0-.194c1.137 0 1.275-.166 1.275-1.081v-4.602z"/><path d="m292.699 152.638c0-1.386 0-1.525-.749-1.525-.175-.025-.352-.025-.527 0v-.277c0-.277 0-.166.277-.194 1.233-.15 2.473-.233 3.715-.25 2.243-.322 4.323 1.236 4.644 3.48.027.188.041.378.042.568.024 1.026-.354 2.021-1.054 2.773-.963.9-2.265 1.344-3.577 1.22h-3.937c-.25 0 0 0 0-.25s0-.194 0-.194c1.137 0 1.275-.166 1.275-1.081l-.111-4.27zm1.248 3.078c0 1.442 0 1.691.277 1.83.336.25.747.377 1.164.36 2.024 0 3.105-1.303 3.105-3.493.154-1.723-1.117-3.246-2.841-3.4-.134-.012-.269-.015-.403-.01-1.192 0-1.303.388-1.303 1.026v3.687z"/><path d="m304.981 152.056c0-.943 0-1.081-1.275-1.081v-.471h3.798c.25 0 0 0 0 .277s0 .194 0 .194c-1.137 0-1.275.139-1.275 1.081v4.741c0 .915 0 1.081 1.275 1.081v.444h-3.798c-.25 0 0 0 0-.25s0-.194 0-.194c1.137 0 1.275-.166 1.275-1.081z"/><path d="m314.186 151.169h-1.109c-1.026 0-1.275 0-1.636.859 0 .222 0 .25-.194.25-.11.025-.223.025-.333 0l.36-2.052h.194c.194 0 .333 0 .416.194s.305.388 3.854.388c1.885 0 2.135 0 2.523-.471.079-.036.17-.036.25 0h.333s-.36 1.081-.638 2.107h-.388c.031-.221.031-.445 0-.665 0-.222 0-.36-1.109-.36h-1.303v5.545c0 .915 0 1.081 1.275 1.081v.444h-3.798c-.25 0 0 0 0-.25s0-.194 0-.194c1.137 0 1.275-.166 1.275-1.081z"/><path d="m323.668 152.056c0-.943 0-1.081-1.275-1.081v-.471h3.798c.25 0 0 0 0 .277s0 .194 0 .194c-1.137 0-1.275.139-1.275 1.081v4.741c0 .915 0 1.081 1.275 1.081v.444h-3.798c-.25 0 0 0 0-.25s0-.194 0-.194c1.137 0 1.275-.166 1.275-1.081z"/><path d="m334.287 150.365c2.27-.232 4.298 1.419 4.53 3.689.008.073.013.147.017.22.001 2.327-1.885 4.215-4.212 4.217-.047 0-.094 0-.141-.002-2.287.218-4.317-1.459-4.535-3.746-.005-.055-.009-.109-.012-.164-.001-2.327 1.885-4.215 4.212-4.217.047 0 .094 0 .141.002zm.25 7.569c1.644-.118 2.884-1.544 2.773-3.188 0-2.107-1.137-3.854-3.133-3.854-1.635.101-2.879 1.509-2.778 3.144.001.024.003.048.005.072-.178 1.918 1.218 3.622 3.133 3.826z"/><path d="m343.797 151.529c-.283-.415-.779-.631-1.275-.555-.222 0-.25 0-.25-.194s0-.277.222-.277h2.412c1.636 2.079 2.967 3.826 4.519 5.545v-4.159c0-.859-.222-1.081-1.081-1.081 0 0-.166 0-.166-.25s0-.222.194-.222h2.8c.083 0 0 0 0 .222s0 .25-.333.25c-.832 0-.915.166-.915 1.081v6.432h-.36c-2.773-3.078-5.046-6.488-5.545-6.543v5.018c0 .915 0 1.081 1.275 1.081v.444h-3.188c-.25 0-.139 0-.139-.25s0-.194.139-.194c1.137 0 1.275-.166 1.275-1.081l.416-5.268z"/><path d="m359.351 152.278s0 .166-.139.166h-.305c-.093-.817-.76-1.449-1.58-1.497-.659-.033-1.231.453-1.303 1.109 0 1.83 3.826 1.469 3.826 4.214-.113 1.373-1.319 2.395-2.692 2.281-.027-.002-.054-.005-.08-.008-.703.009-1.397-.153-2.024-.471-.114-.548-.179-1.104-.194-1.664.072-.023.15-.023.222 0 .156.9.918 1.569 1.83 1.608.746.077 1.414-.465 1.491-1.211.007-.067.009-.135.006-.203 0-1.83-3.715-1.497-3.715-4.02 0-1.026.721-2.135 2.523-2.135.646-.005 1.287.117 1.885.36l.25 1.469z"/></g></svg>