<svg viewBox="0 0 512 268.117" xmlns="http://www.w3.org/2000/svg" xmlns:xlink="http://www.w3.org/1999/xlink"><clipPath id="a"><path d="m-1574.41-647.564-31.59 191.768 36.103 82.348s21.436 33.841 25.949 36.098c4.513 2.256 38.359 12.409 44 12.409s113.949-24.817 119.59-27.073 118.462-28.201 118.462-28.201l7.897-99.268-19.179-91.372-44-111.677-144.41-12.409-112.821 47.378z"/></clipPath><g clip-path="url(#a)"><image height="1200" transform="matrix(2.079 0 0 2.079 -2696.388 -666.9)" width="1600" xlink:href="../../../../../Volumes/Untitled/221118_tasoTOP/Links/23166078.png"/></g><g fill="#005c80"><path d="m10.574 210.093h-3.556c-3.318 0-4.153.43-5.275 2.793-.31.74-.477.859-.644.859-.388-.02-.765-.135-1.098-.334l1.17-6.612c0-.263 0-.382.668-.382s1.074 0 1.289.644c.477 1.265 1.05 1.265 12.459 1.265 6.134 0 6.922-.31 8.139-1.48.31-.31.477-.43.788-.43s1.074.167 1.074.382-1.17 3.485-2.077 6.802c-.098.047-.212.047-.31 0-.418-.049-.827-.154-1.217-.31.234-.685.363-1.401.382-2.124 0-.74-.286-1.217-3.556-1.217l-4.225.143v18.188c0 3.007.477 3.485 4.129 3.485.358 0 .406 0 .406.644s0 .835-.406.835c-.788 0-2.912-.263-6.134-.263s-5.347.263-6.134.263c-.358 0-.43-.215-.43-.835s0-.644.43-.644c3.652 0 4.129-.477 4.129-3.485v-18.188z"/><path d="m42.271 210.284c1.005-1.032 2.165-1.902 3.437-2.578.215 0 .358.215 1.623 3.27l7.566 18.068c.56 1.821 2.33 2.991 4.225 2.793.286 0 .334 0 .334.644s0 .835-.43.835-2.267-.263-4.344-.263c-3.962 0-5.895.263-6.635.263s-.644-.263-.644-.883.167-.597.644-.597h.788c1.528 0 2.1-.31 2.1-1.313-.06-.588-.222-1.161-.477-1.695l-1.957-5.012h-9.07c-1.017 1.906-1.665 3.987-1.909 6.134 0 1.623 1.313 1.838 3.652 1.838.121.195.194.416.215.644 0 .621-.215.835-.549.835-1.402-.17-2.813-.258-4.225-.263-.74 0-4.774.263-5.179.263s-.525 0-.525-.788c-.007-.241.051-.48.167-.692 1.926.286 3.761-.914 4.272-2.793l6.922-18.713zm-2.124 11.934h7.59l-4.272-10.144z"/><path d="m83.539 213.816c0 .382-.167.477-.477.477-.342.013-.683-.044-1.002-.167-.281-2.63-2.442-4.659-5.084-4.774-2.112-.127-3.951 1.429-4.177 3.533 0 5.991 12.316 4.774 12.316 13.581 0 4.081-3.652 7.351-8.927 7.351-2.274.035-4.524-.472-6.564-1.48-.313-1.76-.52-3.538-.621-5.323l.215-.215h.358c.258-.02.516.038.74.167.539 2.93 3.083 5.064 6.063 5.084 2.416.213 4.547-1.574 4.76-3.99.016-.181.021-.363.014-.545 0-5.967-11.934-4.774-11.934-13.008 0-3.318 2.387-6.922 8.091-6.922 2.106-.015 4.193.399 6.134 1.217l.095 5.012z"/><path d="m110.033 207.706c9.547 0 14.703 6.349 14.703 12.626-.008 7.514-6.105 13.599-13.619 13.591-.171 0-.341-.004-.511-.01-9.547 0-14.679-6.349-14.679-12.579-.018-7.514 6.058-13.62 13.572-13.638.178 0 .356.003.534.009zm.788 24.465c6.039 0 9.142-5.609 9.142-10.311 0-6.802-3.7-12.412-10.144-12.412-6.015 0-9.142 5.275-9.142 10.359 0 5.49 3.389 12.244 10.144 12.244v.119z"/><path d="m158.008 213.029c0-3.007-.477-3.485-4.129-3.485-.358 0-.43 0-.43-.644s0-.835.43-.835c.788 0 2.912.263 6.134.263 2.53 0 4.535-.263 6.23-.263 6.444 0 8.091 3.652 8.091 5.967s-2.387 4.44-5.967 5.132c4.392.597 7.447 2.912 7.447 6.922-.355 4.222-4.004 7.395-8.235 7.161-1.289 0-5.824-.263-7.566-.263-3.222 0-5.347.263-6.134.263-.358 0-.43-.215-.43-.835s0-.644.43-.644c3.652 0 4.129-.477 4.129-3.485v-15.252zm4.01 5.705h2.053c3.819 0 5.872-1.79 5.872-4.607s-2.172-4.583-5.537-4.583c-1.528 0-2.387.621-2.387 2.387v6.802zm0 9.142c0 2.649 1.05 3.7 3.867 3.7 2.807.058 5.13-2.171 5.188-4.978.003-.139 0-.278-.008-.416-.008-1.667-.719-3.252-1.957-4.368-1.265-1.232-3.022-1.821-4.774-1.599-.742-.013-1.484.027-2.22.119l-.095 7.542z"/><path d="m189.61 213.029c0-3.007-.477-3.485-4.129-3.485-.358 0-.43 0-.43-.644s0-.835.43-.835c.788 0 2.912.263 6.134.263 6.182 0 11.051-.263 14.321-.263.167 0 .215.215.215.477-.205 1.061-.293 2.142-.263 3.222.012.59.1 1.175.263 1.742.006.167-.035.333-.119.477h-1.36c-.43-3.389-.859-4.44-6.516-4.44-4.225 0-4.535.167-4.535 3.7v6.063h3.485c2.172 0 3.389-.263 4.177-2.793.215-.692.31-.788.955-.788s.525 0 .525.31c0 .788-.167 3.867-.167 5.227 0 1.814.167 2.769.167 3.079s0 .263-.74.263-.74 0-.74-.382c-.008-1.018-.361-2.002-1.002-2.793-.644-.477-1.05-.644-2.793-.644h-3.867v5.561c-.063 1.495.098 2.992.477 4.44.573.525 1.432.788 4.774.788 1.571.146 3.155-.033 4.654-.525 1.957-.74 3.055-4.344 3.533-4.344s1.217.382 1.217.597-1.79 4.272-2.053 5.179-.263.835-.597.835c-2.148 0-10.287-.263-13.939-.263-3.222 0-5.347.263-6.134.263-.358 0-.43-.215-.43-.835s0-.644.43-.644c3.652 0 4.129-.477 4.129-3.485l-.072-15.324z"/><path d="m227.943 210.284c1.002-1.025 2.153-1.894 3.413-2.578.215 0 .382.215 1.647 3.27l7.662 18.188c.56 1.821 2.33 2.991 4.225 2.793.263 0 .334 0 .334.644s0 .835-.43.835-2.387-.263-4.344-.263c-3.962 0-5.919.263-6.659.263s-.621-.263-.621-.883.143-.597.621-.597h.812c1.528 0 2.1-.31 2.1-1.313-.072-.586-.233-1.157-.477-1.695l-1.957-5.012h-9.094c-1.002 1.911-1.641 3.991-1.886 6.134 0 1.623 1.313 1.838 3.628 1.838.131.19.206.414.215.644 0 .621-.215.835-.525.835-1.402-.17-2.813-.258-4.225-.263-.74 0-4.774.263-5.179.263s-.525 0-.525-.788c-.007-.241.051-.48.167-.692 1.926.286 3.761-.914 4.272-2.793l6.826-18.832zm-2.124 11.934h7.662l-4.344-10.24z"/><path d="m274.725 214.986c-.854-3.603-4.24-6.019-7.924-5.657-6.015 0-9.022 5.537-9.022 10.311 0 5.609 3.389 12.364 10.144 12.364 2.758.255 5.381-1.242 6.564-3.747l1.313-3.007 1.384.191c-.43 1.599-.955 4.296-1.384 6.444-2.562 1.114-5.302 1.761-8.091 1.909-9.547 0-14.679-6.349-14.679-12.579.05-7.514 6.181-13.564 13.695-13.515.097 0 .195.002.292.005 2.835-.004 5.647.497 8.306 1.48.129 1.986.376 3.963.74 5.919l-1.337-.119z"/><path d="m291.194 213.029c0-3.007-.477-3.485-4.129-3.485-.358 0-.406 0-.406-.644s0-.835.406-.835c.812 0 2.912.263 6.134.263s5.347-.263 6.134-.263c.382 0 .43.215.43.835s0 .644-.43.644c-3.652 0-4.129.477-4.129 3.485v5.705h14.655v-5.705c0-3.007-.477-3.485-4.129-3.485-.382 0-.43 0-.43-.644s0-.835.43-.835c.788 0 2.912.263 6.134.263s5.323-.263 6.134-.263c.358 0 .406.215.406.835s0 .644-.406.644c-3.652 0-4.129.477-4.129 3.485v15.323c0 3.007.477 3.485 4.129 3.485.358 0 .406 0 .406.644s0 .835-.406.835c-.812 0-2.912-.263-6.134-.263s-5.347.263-6.134.263c-.382 0-.43-.215-.43-.835s0-.644.43-.644c3.652 0 4.129-.477 4.129-3.485v-7.566h-14.655v7.566c0 3.007.477 3.485 4.129 3.485.382 0 .43 0 .43.644s0 .835-.43.835c-.788 0-2.912-.263-6.134-.263s-5.323.263-6.134.263c-.358 0-.406-.215-.406-.835s0-.644.406-.644c3.652 0 4.129-.477 4.129-3.485z"/><path d="m350.173 213.029c0-3.007-.477-3.485-4.129-3.485-.382 0-.43 0-.43-.644s0-.835.43-.835c.788 0 2.912.263 6.134.263s5.323-.263 6.134-.263c.358 0 .406.215.406.835s0 .644-.406.644c-3.652 0-4.129.477-4.129 3.485v5.705h14.631v-5.705c0-3.007-.477-3.485-4.129-3.485-.358 0-.406 0-.406-.644s0-.835.406-.835c.812 0 2.912.263 6.134.263s5.347-.263 6.134-.263c.382 0 .43.215.43.835s0 .644-.43.644c-3.652 0-4.129.477-4.129 3.485v15.323c0 3.007.477 3.485 4.129 3.485.382 0 .43 0 .43.644s0 .835-.43.835c-.788 0-2.912-.263-6.134-.263s-5.323.263-6.134.263c-.358 0-.406-.215-.406-.835s0-.644.406-.644c3.652 0 4.129-.477 4.129-3.485v-7.566h-14.631v7.566c0 3.007.477 3.485 4.129 3.485.358 0 .406 0 .406.644s0 .835-.406.835c-.812 0-2.912-.263-6.134-.263s-5.347.263-6.134.263c-.382 0-.43-.215-.43-.835s0-.644.43-.644c3.652 0 4.129-.477 4.129-3.485z"/><path d="m400.988 207.706c9.547 0 14.679 6.349 14.679 12.626-.008 7.514-6.106 13.598-13.62 13.59-.162 0-.324-.003-.487-.009-9.547 0-14.703-6.349-14.703-12.579-.005-7.527 6.093-13.633 13.62-13.638.17 0 .34.003.511.009zm.788 24.465c6.015 0 9.142-5.609 9.142-10.311 0-6.802-3.7-12.412-10.144-12.412-6.039 0-9.142 5.275-9.142 10.359.048 5.49 3.413 12.244 10.192 12.244l-.048.119z"/><path d="m429.344 213.029c0-3.007-.454-3.485-4.105-3.485-.382 0-.43 0-.43-.644s0-.835.43-.835c.788 0 2.912.263 6.134.263s5.323-.263 6.11-.263c.382 0 .43.215.43.835s0 .644-.43.644c-3.628 0-4.105.477-4.105 3.485v10.359c0 6.015 2.96 8.354 7.399 8.354 5.275 0 6.755-3.174 6.755-8.879v-8.449c0-4.607-.215-4.774-3.7-4.774-.31 0-.358 0-.358-.573s0-.907.406-.907c1.585.181 3.179.269 4.774.263 3.031 0 4.344-.263 4.917-.263.215 0 .43.167.43.788s0 .692-.31.692h-.74c-2.387 0-2.96.883-2.96 3.7v11.075c0 6.779-4.082 9.356-9.953 9.356-3.046.114-6.03-.878-8.402-2.793-1.79-1.79-2.22-3.174-2.22-7.519z"/><path d="m477.868 213.816c0 .382-.167.477-.477.477-.342.013-.683-.044-1.002-.167-.281-2.63-2.442-4.659-5.084-4.774-2.107-.126-3.939 1.432-4.153 3.533 0 5.991 12.292 4.774 12.292 13.581 0 4.081-3.628 7.351-8.927 7.351-2.266.031-4.508-.476-6.54-1.48-.321-1.76-.537-3.537-.644-5.323l.263-.286h.382c.258-.02.516.038.74.167.458 2.94 2.945 5.136 5.919 5.227 2.416.213 4.547-1.574 4.76-3.99.016-.181.021-.363.014-.545 0-5.967-11.934-4.774-11.934-13.008 0-3.318 2.387-6.922 8.091-6.922 2.098-.016 4.178.399 6.11 1.217l.191 4.941z"/><path d="m493.359 213.029c0-3.007-.477-3.485-4.129-3.485-.358 0-.406 0-.406-.644s0-.835.406-.835c.788 0 2.912.263 6.134.263 6.182 0 11.051-.263 14.321-.263.167 0 .215.215.215.477-.205 1.061-.293 2.142-.263 3.222.012.59.1 1.175.263 1.742.032.157.032.32 0 .477h-1.504c-.43-3.389-.835-4.44-6.492-4.44-4.225 0-4.559.167-4.559 3.7v6.063h3.485c2.172 0 3.389-.263 4.177-2.793.215-.692.334-.788.955-.788s.525 0 .525.31c0 .788-.143 3.867-.143 5.227 0 1.814.143 2.769.143 3.079s0 .263-.74.263-.74 0-.74-.382c-.008-1.018-.361-2.002-1.002-2.793-.621-.477-1.05-.644-2.793-.644h-3.867v5.561c-.063 1.495.098 2.992.477 4.44.597.525 1.432.788 4.774.788 1.571.149 3.156-.03 4.654-.525 1.957-.74 3.055-4.344 3.533-4.344s1.217.382 1.217.597-1.79 4.272-2.053 5.179-.263.835-.573.835c-2.172 0-10.311-.263-13.963-.263-3.222 0-5.347.263-6.134.263-.358 0-.406-.215-.406-.835s0-.644.406-.644c3.652 0 4.129-.477 4.129-3.485l-.048-15.324z"/><path d="m191.925 161.019c-.263-.597-.406-.716-.955-.716v-.191c0-.191-.024-.143-.024-.143h2.816c.167 0 0 0 0 .215s0 .191-.143.191c-.621 0-.716 0-.716.286s.931 2.172 1.766 4.463c.74-2.387 1.528-3.891 1.528-4.32s-.143-.43-.835-.43c0 0-.119 0-.119-.215s0-.191 0-.191h1.122c.358.021.716.021 1.074 0v.191c0 .191 0 .215-.143.215-.597 0-.668.239-2.912 6.325 0 0 0 .143-.191.143-.098.015-.191-.047-.215-.143l-2.053-5.681z"/><path d="m202.284 160.494c.263-.285.569-.527.907-.716l.454.883 2.029 4.774c.156.489.636.798 1.146.74v.167c0 .167 0 .239-.119.239h-2.912q-.191 0-.191-.263c0-.263 0-.143.191-.143h.191c.43 0 .573 0 .573-.358.019-.151.019-.303 0-.454l-.525-1.337h-2.387c-.263.507-.433 1.056-.501 1.623 0 .454.358.501.979.501.01.055.01.112 0 .167 0 .167 0 .239-.143.239-.374-.022-.748-.022-1.122 0h-1.384s-.143 0-.143-.215c-.014-.063-.014-.128 0-.191.51.059.989-.251 1.146-.74l1.814-4.917zm-.573 3.151h2.053l-1.146-2.697z"/><path d="m215.269 161.759c-.213-.967-1.115-1.623-2.1-1.528-1.419.114-2.483 1.348-2.387 2.769-.166 1.653 1.039 3.127 2.691 3.293h.006c.733.061 1.427-.338 1.742-1.002l.358-.812h.358c0 .406-.239 1.122-.358 1.719-.681.293-1.408.462-2.148.501-1.967.201-3.724-1.231-3.925-3.198-.006-.056-.01-.111-.013-.167-.002-2.004 1.621-3.629 3.625-3.631.049 0 .097 0 .146.003.759-.007 1.512.131 2.22.406.035.528.099 1.054.191 1.575z"/><path d="m221.713 160.494c.263-.285.569-.527.907-.716l.43.883 2.053 4.774c.154.479.621.787 1.122.74v.406h-2.936c-.191 0-.167 0-.167-.263s0-.143.167-.143h.215c.406 0 .573 0 .573-.358-.02-.159-.068-.312-.143-.454l-.525-1.337h-2.387c-.273.502-.444 1.054-.501 1.623 0 .454.334.501.955.501.018.054.018.113 0 .167 0 .167 0 .239-.143.239-.374-.021-.748-.021-1.122 0h-1.384s-.143 0-.143-.215c-.024-.061-.024-.13 0-.191.506.066.984-.249 1.122-.74l1.909-4.917zm-.573 3.151h2.053l-1.217-2.697-.835 2.697z"/><path d="m231.117 160.47h-.931c-.883 0-1.122 0-1.408.74 0 .191 0 .215-.167.215-.102.022-.208.022-.31 0l.31-1.766h.191c.191 0 .286 0 .334.167s.286.334 3.342.334c1.623 0 1.838 0 2.172-.382s0 0 .191 0h.286s-.31.931-.549 1.814h-.334c.031-.19.031-.383 0-.573 0-.191 0-.31-.931-.31h-1.146v4.774c0 .812.143.931 1.098.931q.119 0 .119.167c0 .167 0 .239-.119.239h-3.27c-.215 0 0 0 0-.239s0-.167 0-.167c.979 0 1.098 0 1.098-.931l.024-5.012z"/><path d="m239.304 161.234c0-.812-.143-.931-1.098-.931v-.406h3.27c.215 0 0 0 0 .239s0 .167 0 .167c-.979 0-1.122 0-1.122.931v4.081c0 .812.143.931 1.122.931v.406h-3.27c-.191 0 0 0 0-.239s0-.167 0-.167c.955 0 1.098 0 1.098-.931z"/><path d="m248.446 159.778c1.954-.2 3.7 1.222 3.9 3.176.006.063.011.126.014.19.002 2.004-1.621 3.629-3.625 3.631-.049 0-.097 0-.146-.003-1.954.2-3.7-1.222-3.9-3.176-.006-.063-.011-.126-.014-.19-.002-2.004 1.621-3.629 3.625-3.631.049 0 .097 0 .146.003zm.215 6.516c1.416-.102 2.482-1.329 2.387-2.745 0-1.814-1.002-3.318-2.721-3.318-1.408.087-2.478 1.299-2.391 2.707.001.021.003.041.005.062-.152 1.659 1.063 3.13 2.721 3.294z"/><path d="m256.537 160.805c-.233-.371-.665-.568-1.098-.501-.167 0-.191 0-.191-.167s0-.239.191-.239h2.077c1.408 1.79 2.53 3.318 3.891 4.774v-3.58c0-.74-.191-.931-.931-.931 0 0-.143 0-.143-.215s0-.191.167-.191h2.387c.048 0 0 0 0 .215s0 .191-.263.191c-.716 0-.788.143-.788.931v5.537h-.334c-2.387-2.649-4.344-5.561-4.774-5.633v4.177c0 .812.143.931 1.122.931v.406h-2.769c-.215 0 0 0 0-.239s0-.167 0-.167c.979 0 1.098 0 1.098-.931z"/><path d="m271.741 161.234c0-.812-.143-.931-1.098-.931v-.406h3.437c1.456 0 2.387.644 2.387 1.599s-.788 1.384-1.79 1.575c.61.528 1.133 1.148 1.551 1.838.74 1.074.979 1.265 1.48 1.265v.477c-.254-.031-.51-.031-.764 0h-.716c-.472-.435-.882-.933-1.217-1.48-1.193-1.814-1.337-1.862-2.124-1.862v2.005c0 .812 0 .931 1.098.931v.406h-3.27c-.215 0 0 0 0-.239s0-.167 0-.167c.955 0 1.098 0 1.098-.931l-.072-4.081zm1.074 1.647h.525c1.313 0 1.838-.597 1.838-1.36s-.716-1.17-1.528-1.17-.859.263-.859 1.456c0 .549.024.883.024 1.074z"/><path d="m281.814 161.234c0-.812-.143-.931-1.098-.931v-.406h5.442v.143c-.034.285-.034.574 0 .859-.021.15-.021.303 0 .454h-.358c0-.883-.215-1.17-1.742-1.17-1.122 0-1.193 0-1.193.979v1.623h.931c.573 0 .883 0 1.098-.74 0-.191 0-.215.263-.215s.143 0 .143 0v1.408c-.014.27-.014.541 0 .812h-.406c0-.27-.092-.531-.263-.74-.167-.143-.286-.167-.74-.167h-1.026v1.599c-.058.388-.058.782 0 1.17.143.143.382.215 1.265.215.419.043.843-.006 1.241-.143.501-.191.812-1.146.931-1.146s.334 0 .334.143-.477 1.146-.549 1.384 0 .239-.167.239h-5.347c-.215 0 0 0 0-.239s0-.167 0-.167c.955 0 1.098 0 1.098-.931l.143-4.034z"/><path d="m290.812 160.805c-.233-.371-.665-.568-1.098-.501-.191 0-.215 0-.215-.167s0-.239.215-.239h2.196c1.408 1.79 2.53 3.318 3.891 4.774v-3.58c0-.74-.215-.931-.931-.931 0 0-.143 0-.143-.215s0-.191.143-.191h2.411c.048 0 0 0 0 .215s0 .191-.263.191c-.716 0-.788.143-.788.931v5.537h-.263c-2.387-2.649-4.344-5.561-4.774-5.633v4.177c0 .812.143.931 1.098.931v.406h-2.745c-.215 0 0 0 0-.239s0-.167 0-.167c.979 0 1.098 0 1.098-.931l.167-4.368z"/><path d="m303.128 160.47h-.955c-.883 0-1.122 0-1.408.74 0 .191 0 .215-.167.215-.094.024-.192.024-.286 0l.31-1.766h.167c.167 0 .286 0 .334.167s.286.334 3.342.334c1.623 0 1.838 0 2.172-.382.068-.034.147-.034.215 0h.263s-.31.931-.549 1.814h-.334c.031-.19.031-.383 0-.573 0-.191 0-.31-.931-.31h-1.122v4.774c0 .812 0 .931 1.098.931v.406h-3.27c-.191 0 0 0 0-.239s0-.167 0-.167c.955 0 1.098 0 1.098-.931l.024-5.012z"/><path d="m312.031 160.494c0-.191.883-.716.907-.716s0 0 .43.883l2.053 4.774c.154.479.621.787 1.122.74v.406h-2.936c-.191 0-.167 0-.167-.263s0-.143.167-.143h.215c.406 0 .573 0 .573-.358-.02-.159-.068-.312-.143-.454l-.525-1.337h-2.387c-.273.502-.444 1.054-.501 1.623 0 .454.334.501.955.501.009.055.009.112 0 .167 0 .167 0 .239-.143.239-.374-.021-.748-.021-1.122 0h-1.384c-.119 0-.143 0-.143-.215-.024-.061-.024-.13 0-.191.506.066.984-.249 1.122-.74l1.91-4.917zm-.573 3.151h2.053l-1.146-2.697z"/><path d="m325.373 166.557c-.052.03-.115.03-.167 0h-5.537c-.191 0-.119 0-.119-.239s0-.167.119-.167c.955 0 1.098 0 1.098-.931v-3.986c0-.812-.143-.931-1.098-.931q-.119 0-.119-.167c0-.167 0-.239.119-.239h3.27c.215 0 0 0 0 .239s0 .167 0 .167c-.979 0-1.122 0-1.122.931v3.723c0 1.026.358 1.217 1.408 1.217 1.408 0 1.695-.215 1.862-.573l.286-.597h.382c-.037.146-.085.29-.143.43l-.239 1.122z"/><path d="m229.136 259.452c0-.812 0-.931-1.098-.931v-.406h5.442v.143c-.034.285-.034.574 0 .859-.021.15-.021.303 0 .454.013.047.013.096 0 .143h-.358c0-.907-.215-1.193-1.742-1.193-1.122 0-1.193 0-1.193.979v1.623h.931c.573 0 .883 0 1.098-.74 0-.191 0-.215.263-.215s.143 0 .143 0v1.384c-.014.27-.014.541 0 .812h-.406c0-.27-.092-.531-.263-.74-.167-.143-.286-.167-.74-.167h-1.122v1.48c-.058.388-.058.782 0 1.17.167.143.382.215 1.265.215.419.043.843-.006 1.241-.143.501-.191.812-1.146.931-1.146s.334 0 .334.143-.477 1.146-.549 1.384 0 .239-.167.239h-5.347c-.215 0 0 0 0-.239s0-.167 0-.167c.979 0 1.098 0 1.098-.931z"/><path d="m241.07 259.667h-.263c-.081-.699-.658-1.235-1.36-1.265-.563-.042-1.059.369-1.122.931 0 1.599 3.294 1.265 3.294 3.628-.098 1.182-1.135 2.062-2.318 1.964-.023-.002-.046-.004-.069-.007-.605.007-1.203-.132-1.742-.406-.098-.463-.154-.935-.167-1.408.062-.02.129-.02.191 0 .115.789.779 1.382 1.575 1.408.657.053 1.232-.437 1.285-1.094.003-.041.004-.082.004-.124 0-1.599-3.198-1.313-3.198-3.461.016-1.054.884-1.896 1.939-1.88.078.001.156.007.233.018.559-.01 1.113.104 1.623.334l.095 1.36z"/><path d="m247.037 258.689h-.955c-.883 0-1.098.119-1.408.74 0 .191-.119.239-.167.239-.094.021-.192.021-.286 0l.31-1.766h.167c.167 0 .286 0 .358.167s.263.334 3.318.334c1.623 0 1.838 0 2.172-.382.068-.034.147-.034.215 0h.286s-.31.931-.573 1.814h-.334c.031-.19.031-.383 0-.573 0-.191 0-.31-.931-.31h-.979v4.774c0 .812 0 .931 1.098.931v.406h-3.27c-.215 0-.119 0-.119-.239s0-.167.119-.167c.979 0 1.098 0 1.098-.931l-.119-5.036z"/><path d="m258.375 264.799c-.167 0-.191 0-.191-.143s0 0 .239-.263l.215-.143c2.387-1.933 2.984-2.888 2.984-3.723.001-.646-.521-1.171-1.167-1.172-.025 0-.049 0-.074.002-.383.023-.743.194-1.002.477-.167.191-.191.191-.215.191s-.263 0-.263-.191 0 0 .286-.43c.43-.575 1.097-.926 1.814-.955.934-.053 1.735.661 1.788 1.596.003.049.003.098.002.147 0 .883-.573 1.528-2.053 2.793l-.764.644h3.795c-.173.419-.415.807-.716 1.146z"/><path d="m269.975 258.45c1.78.217 3.046 1.836 2.829 3.615-.181 1.481-1.348 2.649-2.829 2.829-1.766.04-3.23-1.36-3.269-3.126 0-.032 0-.064 0-.096-.041-1.74 1.336-3.183 3.076-3.224.065-.002.129-.001.194.001zm0 5.466c1.236.082 2.305-.854 2.387-2.091.007-.099.007-.198 0-.296 0-1.504-1.17-2.1-2.387-2.1-1.208-.106-2.273.788-2.379 1.996-.004.051-.007.101-.008.152.026 1.29 1.072 2.326 2.363 2.339z"/><path d="m277.78 260.073c0-.74-.215-1.002-.668-1.05h-.501v-.382h3.437v.239.143c-1.098 0-1.193.215-1.193 1.122v3.222c0 .716.215.979.668 1.026h.525v.406h-3.437v-.239c0-.239 0-.167 0-.167 1.074 0 1.17-.215 1.17-1.098v-3.222z"/><path d="m286.778 258.45c1.814 0 2.649 1.599 2.649 3.318-.114 1.607-.85 3.105-2.053 4.177-1.045 1.066-2.368 1.819-3.819 2.172 0 0-.143-.215-.143-.31s0-.119.382-.263c2.05-.88 3.6-2.631 4.225-4.774-.566.577-1.319.932-2.124 1.002-1.172-.057-2.076-1.053-2.019-2.225.003-.054.007-.108.014-.162.012-1.598 1.291-2.897 2.888-2.936zm-.263 4.535c.499.006.978-.203 1.313-.573.24-.295.36-.67.334-1.05 0-1.289-.573-2.387-1.575-2.387s-1.551 1.05-1.551 2.124c-.092.891.507 1.706 1.384 1.886z"/><path d="m131.658 138.082c-5.299 2.888-7.017 7.733-12.101 9.237-2.912.883 16.875 4.225 25.014-.859 5.442-3.365 7.328-3.723 10.43-3.294.788 0 0-2.053-1.599-2.387s-.955-2.22-4.034-2.244c-.859 0 2.554-5.37 18.307-8.258 12.706-2.47 25.769-2.47 38.476 0 18.355 3.055 50.386-2.554 52.51-9.07.835-2.626-12.961 3.198-42.223-3.819-13.223-3.174-38.953-2.387-51.699 3.031-11.695 5.036-18.044 9.547-20.24 11.934-3.84-7.2-8.922-13.664-15.013-19.095-8.64-7.638-21.863-16.23-46.71-17.281-13.104-.573-33.989-9.547-38.404-17.591-1.814-3.318-5.967 10.693 16.493 23.296 0 0 15.467 11.743 43.417 17.114 26.279 5.132 29.167 18.307 27.377 19.286z"/><path d="m272.314 8.93c0-.549-.644-.668-1.05-.668-.976-.08-1.958-.008-2.912.215-1.013.205-2.045.301-3.079.286-.861.012-1.702-.265-2.387-.788-.336-.331-.611-.719-.812-1.146-.31-.549-.525-1.17-.788-1.719s-.454-1.146-.692-1.695c-.148-.385-.252-.785-.31-1.193-.198-.767-.583-1.472-1.122-2.053h-.143c-.74-.788-1.241 1.384-1.384 1.814-.277 1.222-.492 2.456-.644 3.7-.192 1.4-1.095 2.601-2.387 3.174-.781.192-1.583.28-2.387.263h-2.387c-.854-.119-1.716-.167-2.578-.143-.597 0-1.551.286-1.313 1.074.165.308.402.57.692.764.29.247.611.456.955.621.597.334 1.289.788 1.957 1.146 1.543.697 2.817 1.879 3.628 3.365.335.958.335 2.002 0 2.96-.239 1.337-1.217 3.604-1.408 5.06-.131.362-.131.759 0 1.122.134.145.361.154.506.019.007-.006.013-.013.019-.019.764-.616 1.467-1.303 2.1-2.053.788-.692 1.48-1.48 2.22-2.196.664-.866 1.702-1.363 2.793-1.337.596.048 1.17.245 1.671.573.59.312 1.15.68 1.671 1.098.579.345 1.13.736 1.647 1.17.549.358 1.766 1.456 2.387 1.79.288.21.625.342.979.382.31 0 .477-.31.477-.597.167-.859-.979-2.387-1.313-3.198-.334-.812-.764-1.719-1.122-2.626-.362-.748-.58-1.558-.644-2.387-.004-.777.37-1.507 1.002-1.957.967-.7 2.008-1.292 3.103-1.766.898-.476 1.706-1.106 2.387-1.862.357-.306.594-.729.668-1.193zm-5.943 13.39c.215 0 .358.191.477.358h-.382s-.334-.263-.095-.358zm-.979-1.026c.044-.026.099-.026.143 0 0-.167.31 0 .382 0s.167.215 0 .286h-.382s-.167 0-.239-.167c.024-.045.056-.086.095-.119zm-17.352-10.812h-.334v.215c-.143 0-.215 0-.263-.191-.022-.15-.022-.303 0-.453.079 0 .143.064.143.143.031.068.031.146 0 .215 0 0 .454.024.454.072zm1.432.597h-.143q-.143 0-.143-.215c0-.215 0-.43.263-.43s.215.549.024.644zm1.695.334h-.191c-.248.054-.499-.076-.597-.31-.167-.286.119-.549.454-.477.25-.016.465.174.481.424.009.137-.045.271-.147.364zm1.671.525c0 .167-.263.382-.43.286l-.239-.119c-.239-.119-.263-.239-.215-.406s.525-.501.764-.358c.142.183.186.423.119.644v-.048zm1.217.764s-.286 0-.358-.143h-.143c-.171-.092-.26-.288-.215-.477 0-.239.43-.573.692-.453.233.14.371.397.358.668 0 .167-.119.43-.334.406zm10.526 7.161c.31 0 .573.358.358.573-.05.118-.159.2-.286.215-.12-.015-.227-.085-.286-.191-.07-.073-.12-.164-.143-.263 0-.263.143-.525.358-.406v.072zm-3.437-3.103c-.029-.101-.029-.209 0-.31.191-.453.716-.31.979 0s.167.597 0 .883-.812 0-.931-.453-.048-.119-.048-.119zm.979-2.124s-.692-.263-.621-.597c.056-.217.277-.348.494-.292.027.007.054.017.079.029.172.167.252.408.215.644-.024.095-.072.143-.167.143v.072zm-1.289.334c.351.167.547.548.477.931-.109.211-.368.294-.579.185-.079-.041-.144-.106-.185-.185-.206-.125-.346-.335-.382-.573 0-.453.286-.597.668-.43v.072zm-2.172.668c.143-.43.597-.43.907-.191.224.223.225.586.001.81 0 0 0 0-.001.001-.143.239-.286.167-.454 0-.305-.082-.501-.38-.453-.692zm-.931.597c-.238-.09-.41-.298-.454-.549-.005-.303.237-.553.54-.558.104-.002.207.026.296.081.309.148.44.518.293.827-.009.019-.019.038-.03.056-.161.154-.404.183-.597.072l-.048.072zm-.883.931c0 .119-.167.119-.31 0-.13-.151-.183-.354-.143-.549.133-.341.517-.512.859-.382.338.112.521.477.409.814-.008.023-.017.046-.027.069 0 .334-.525.215-.788 0zm.31-2.387c0 .239-.406.382-.549.215-.077-.065-.121-.161-.119-.263 0 0-.143-.215 0-.334s.215-.453.382-.406c.151.07.282.177.382.31-.009.155-.041.308-.095.453v.024zm-1.337 3.747c-.142-.114-.207-.299-.167-.477 0-.477.549-.549.859-.263.227.232.227.603 0 .835-.263.239-.549.072-.692-.119zm-2.387 3.7h.263c-.107-.052-.166-.17-.143-.286.055-.148.22-.224.368-.169.031.012.06.028.085.05.167.119.43.406.191.549-.13.214-.409.281-.623.151-.114-.07-.192-.186-.212-.318l.072.024zm-.621.835h.143c.103-.059.234-.023.293.08.007.012.013.025.017.039 0 0 0 .406-.167.406l-.239-.143c.024-.061.024-.13 0-.191-.073-.047-.118-.128-.119-.215zm2.96-10.192c-.066.16-.236.251-.406.215-.329-.007-.591-.279-.585-.608 0-.036.005-.072.012-.108.137-.328.514-.484.843-.347.039.016.077.037.112.06.193.226.172.564-.048.764zm-1.026 7.28c.239.167.525.668.239.859s-.43 0-.621-.143c-.136-.049-.207-.2-.157-.336.009-.025.022-.048.038-.069-.024-.239.239-.43.43-.334l.072.024zm.859-1.241c.224.184.257.515.072.739-.022.026-.046.051-.072.072-.286.286-.621 0-.716-.263s0 0 0 0c-.014-.071-.014-.144 0-.215.024-.477.358-.525.644-.358l.072.024zm1.862-6.325c.179.31.179.692 0 1.002-.215.31-.525.191-.788 0s-.191 0-.263 0c-.163-.172-.234-.411-.191-.644.095-.597.883-.644 1.17-.382zm.31-.597c-.143.191-.31 0-.43 0-.13.088-.3.088-.43 0-.108-.176-.108-.397 0-.573.145-.204.428-.253.632-.108.042.03.078.066.108.108.117.166.16.374.119.573zm.907-9.547h-.167c-.064-.119-.064-.263 0-.382 0-.215.239-.358.406-.239.149.095.246.254.263.43 0 .158-.127.287-.285.288-.083 0-.162-.035-.216-.097zm.501 1.551c-.099.171-.318.23-.489.132-.055-.032-.1-.077-.132-.132-.092-.084-.172-.181-.239-.286 0-.334.215-.573.501-.382.252.122.396.391.358.668zm0 1.599c-.092.068-.218.068-.31 0-.276-.025-.479-.269-.454-.544 0-.002 0-.003 0-.005.143-.382.621-.334.883-.143.145.236.072.544-.163.69-.001 0-.003.002-.004.002zm-.334 1.528c-.202.032-.396-.09-.454-.286 0-.31.167-.477.454-.573.247-.04.48.128.52.375.005.034.007.068.005.102.132.158.11.393-.048.525s-.393.11-.525-.048zm.573 1.79c0 .191-.286 0-.358 0s-.31 0-.406-.143c-.159-.142-.26-.337-.286-.549 0-.263.358-.668.668-.621s.382.382.43.597c.054.242.02.496-.095.716h.048zm0 1.217c0 .31-.286.43-.549.286-.124.042-.258.042-.382 0-.211-.141-.283-.418-.167-.644 0-.334.549-.644.835-.406.214.196.336.473.334.764h-.072zm0 1.766c-.112.175-.339.237-.525.143-.143.143-.406 0-.549 0-.119-.232-.119-.508 0-.74.191-.382.859-.597 1.146-.286.218.279.264.656.119.979l-.191-.095zm.716 0c.286.31.143.716.263 1.074s.525.501.215.812c-.093.181-.274.299-.477.31-.167 0-.334 0-.358.239s0 .215 0 .334-.263.263-.382.263-.215 0-.239-.143-.167-.334-.382-.477c-.203-.07-.41-.125-.621-.167-.191 0-.501-.191-.454-.477.097-.273.234-.53.406-.764 0-.215 0-.406.143-.621s.143-.286.191-.286h.215c.095.015.192.015.286 0 .203.06.418.06.621 0 0 0 .191-.334.31-.43.189-.059.389.047.448.235.02.063.021.13.005.194l-.191-.095zm.883-.406c0 .167-.239.334-.43.215s0 0 0-.143l-.239-.215c-.087-.194-.027-.422.143-.549.191-.143.454-.286.549 0 .191.214.255.514.167.788l-.191-.095zm1.05 1.695c-.047.165-.219.26-.384.213-.103-.029-.184-.11-.213-.213-.239 0-.477-.191-.573-.406s0-.621.358-.788.74-.191.859.191c.198.33.25.728.143 1.098l-.191-.095zm1.408-.644c0 .286-.358.239-.549 0s-.334 0-.358-.239c-.141-.209-.141-.483 0-.692.234-.25.627-.264.877-.03.01.01.02.02.03.03.268.271.343.677.191 1.026zm-.549 5.012c.143.239 0 .477-.286.597h-.143c-.208.034-.404-.107-.439-.315-.02-.12.019-.242.104-.329.382-.263.812-.143.955.143l-.191-.095zm2.029-5.728c-.167.31-.382.263-.573 0s-.477-.191-.501-.43c.025-.276.27-.478.545-.453.059.005.117.021.171.047.322-.068.639.137.708.46.042.196-.018.4-.159.543zm-1.098 6.97c.146.134.155.36.021.506-.061.067-.146.108-.236.115-.102.065-.232.065-.334 0-.108-.057-.18-.165-.191-.286-.076-.142-.076-.312 0-.453.263-.263.74 0 .931.215l-.191-.095zm2.387-7.161c-.191.286-.454 0-.573-.334-.206-.097-.3-.338-.215-.549 0-.191.454-.358.597-.263.162.135.25.339.239.549.168.19.214.457.119.692zm1.265-.788c-.31.191-.501-.215-.525-.453-.022-.07-.022-.145 0-.215.167-.286.644 0 .716.143.165.17.161.442-.01.608-.005.004-.009.009-.014.013l-.167-.095zm1.599-.692h-.358c-.03-.06-.03-.131 0-.191s0-.143.191 0 .191.286.167.406.215-.095.167-.119l-.167-.095z"/><path d="m270.643 9.789h-.191v-.191c0-.048.286.215.263.43z"/><path d="m357.071 60.916c-.252 1.006-.317 2.05-.191 3.079.175 1.177.231 2.368.167 3.556-.033.777-.443 1.49-1.098 1.909-.74.408-1.549.675-2.387.788-.955.191-1.862.31-2.816.477s-2.769 0-3.389.668c-.239.143-.43.477-.239.716.243.261.535.472.859.621.549.215 2.148.644 2.721.907.654.198 1.292.446 1.909.74.624.216 1.23.479 1.814.788.543.25 1.018.626 1.384 1.098.641.893.802 2.044.43 3.079-.215 1.002-.477 2.029-.644 3.055-.259.939-.442 1.896-.549 2.864 0 .215.119.43.334.406.376-.086.713-.296.955-.597 1.098-.931 2.387-3.007 3.461-3.938.594-.786 1.434-1.349 2.387-1.599 1.676-.145 3.354.266 4.774 1.17.668.382 1.432.716 2.029 1.026.336.188.687.348 1.05.477.32.119.662.168 1.002.143.812-.239.454-1.146.191-1.671-.441-.74-.952-1.435-1.528-2.077l-1.361-1.933c-.447-.659-.808-1.373-1.074-2.124-.22-1.391.305-2.795 1.384-3.7.931-.835 1.909-1.671 2.721-2.554.286-.382 1.838-1.957.764-2.148m0-.143c-.794-.185-1.626-.127-2.387.167-.381.174-.782.302-1.193.382-.573.119-1.17.263-1.79.358s-1.241.239-1.862.286c-.466.085-.943.085-1.408 0-.808-.27-1.499-.809-1.957-1.528-.57-.863-1.05-1.783-1.432-2.745-.339-.917-.814-1.778-1.408-2.554-.239-.334-.692-.835-1.146-.525-.246.313-.41.682-.477 1.074l15.061 5.084zm-22.818 6.301c-.055.013-.112.013-.167 0l-.143-.191c.191 0 .477 0 .549.191s-.072.024-.239 0zm1.719.167c-.108.003-.212-.041-.286-.119h-.167v-.263c0-.048.239 0 .31 0s.406 0 .31.239v.143zm18.928 8.449c.084-.036.179-.036.263 0 .054-.049.137-.049.191 0v.119c-.107.103-.228.191-.358.263-.119 0-.263 0-.31-.119h.048c-.143 0-.191 0-.119-.143s.095-.072.286-.119zm-.859-1.05c0 .215 0 .501-.215.477s-.119 0-.263 0 0 0 0-.119.286-.597.358-.358h.119zm-1.074-1.026c.239.215.191.597-.143.621-.246.039-.485-.101-.573-.334v-.215c.139-.19.405-.233.597-.095l.119.024zm-1.384-1.289c.258.159.338.497.179.755-.018.028-.038.055-.06.08h-.692c-.167 0 0-.358 0-.525s.167-.43.453-.31h.119zm-1.79-.955c.24-.123.524-.123.764 0 .215.167.143.644 0 .859-.155.119-.37.119-.525 0s-.286 0-.334-.239-.215-.501-.024-.621h.119zm-11.934-3.938c-.102.021-.208.021-.31 0-.167 0-.215 0-.31-.167-.072-.1-.072-.234 0-.334 0-.31.454-.263.668 0s-.048.406-.191.501zm4.511.788c-.382.119-.907 0-.883-.525s.382-.644.692-.549.74.453.454.835l-.286.143s-.048.119-.119.095h.143zm1.361-2.387c.191-.144.432-.204.668-.167.191 0 .286.477 0 .621s-.764.191-.812-.167 0 0 0 0c-.04-.057-.04-.134 0-.191l.143-.095zm.406 2.387c-.209.071-.435.071-.644 0-.286 0-.597-.358-.358-.692.309-.239.741-.239 1.05 0 .095.143.215.549-.191.764zm-.215 1.36c-.191 0-.334-.167-.191-.406.022-.302.284-.53.587-.508.019.001.039.004.058.007.358.119.621.501.334.859-.169.283-.535.375-.818.206-.041-.024-.079-.054-.113-.087l.143-.072zm.692.501c0-.358.597-.406.883-.263.264.15.356.485.206.748-.049.086-.12.157-.206.206-.219.139-.498.139-.716 0h-.119c-.199-.138-.278-.394-.191-.621l.143-.072zm-.191 1.814c-.31 0-.621-.406-.406-.668.172-.296.552-.397.848-.224.029.017.057.036.082.057.279.176.362.544.186.823-.121.192-.342.299-.568.275-.143 0-.191 0-.143-.263zm2.196-1.79c.158.022.311.071.454.143.143.143 0 .382 0 .549s-.239 0-.334 0c-.092.035-.194.035-.286 0-.239 0-.286-.382 0-.597.008-.008.016-.016.024-.024l.143-.072zm-3.246 2.936c.072-.326.388-.536.716-.477.406 0 .668.621.263.859-.127.138-.321.193-.501.143-.43.024-.716-.143-.621-.453zm-1.79 4.01c0-.286.358-.215.573-.143s.286.263.143.43c-.089.076-.221.076-.31 0h-.119s.119.143.215.143 0 0 0 0-.692-.095-.644-.358l.143-.072zm0 1.575c-.055-.015-.112-.015-.167 0h-.239c0-.143.119-.358.239-.358s.239 0 .286.191c.036.05.036.117 0 .167s-.263.095-.334.072zm7.757-8.521c.337.15.489.545.339.882-.015.034-.033.066-.053.096-.214.25-.591.28-.841.066-.024-.02-.046-.042-.066-.066-.092-.137-.092-.316 0-.453-.167-.263.072-.573.406-.453zm-6.373 5.872c-.046.138-.195.212-.332.166-.017-.006-.034-.013-.05-.023-.239 0-.501-.239-.454-.453s.573-.406.835-.286c.165.152.175.409.023.573-.007.008-.015.016-.023.023zm.668-1.313h-.191c-.191 0 0 0 0 0s-.692 0-.597-.43c.064-.283.345-.461.627-.397.039.009.077.022.112.039.191.31.334.621 0 .835l.048-.048zm4.607-4.607c-.174.141-.399.202-.621.167 0 0-.239 0-.215-.167-.358 0-.644-.263-.477-.644.196-.291.533-.455.883-.43.334.143.74.835.382 1.122zm.597-2.053c.249.029.427.254.399.502-.006.049-.019.097-.041.142-.079.193-.269.316-.477.31-.166-.012-.299-.144-.31-.31-.143 0-.31-.143-.215-.382.157-.158.376-.236.597-.215l.048-.048zm6.779-6.11c.159-.074.342-.074.501 0 .215 0 .167.286 0 .477-.107.076-.251.076-.358 0 0 0-.143 0 0-.119-.119-.057-.194-.178-.191-.31zm-.812.812c.31.119.239.453 0 .621h-.358c-.263 0-.525-.239-.382-.501.199-.152.466-.179.692-.072zm-1.551.573c.286.119.597.501.358.812-.182.191-.484.199-.675.017-.006-.006-.012-.011-.017-.017h-.119c-.068-.092-.068-.218 0-.31.018-.225.184-.411.406-.453l.048-.048zm-1.599.907c.184-.15.454-.123.605.061.026.032.048.068.064.106.13.245.036.548-.209.677-.01.005-.02.01-.03.015-.182.076-.392-.009-.469-.192-.003-.008-.006-.015-.009-.023-.406-.048-.334-.501 0-.597l.048-.048zm-1.289.716c.229-.132.511-.132.74 0 .215.239 0 .74-.143.907-.207.084-.438.084-.644 0 0 0-.263-.119-.334-.239s-.286-.119-.191-.31c.136-.158.321-.267.525-.31l.048-.048zm-.764.74c.334 0 .334.644 0 .907-.125.216-.389.308-.621.215-.128-.053-.237-.145-.31-.263-.263-.143-.286-.382 0-.597.239-.216.571-.297.883-.215l.048-.048zm-1.599.573c.406 0 .597.74.382 1.098-.153.219-.401.352-.668.358-.215-.013-.382-.191-.382-.406-.181-.095-.255-.316-.167-.501.154-.296.454-.487.788-.501l.048-.048zm-1.002.263c0 .119-.167.31-.191.477s.215.358.334.525c.078.069.167.126.263.167l.191.143c.191.143 0 .239-.143.31s-.286.286-.43.453c-.101.271-.238.528-.406.764-.215.191-.501 0-.668-.143s-.358-.358-.597-.358h-.835v-.477c0-.072.167-.191.215-.286s0-.239 0-.43c-.108-.176-.108-.397 0-.573 0-.43.43-.215.788-.263s.621-.43 1.026-.358c.122-.084.284-.084.406 0l.048.048zm.167-1.551c.286 0 .334.215.31.477-.01.211-.172.383-.382.406h-.31c-.054-.02-.113-.02-.167 0-.215 0-.167-.286 0-.453.107-.192.288-.33.501-.382zm-1.766-.239c.358-.119.573.263.621.621s0 .692-.477.74c-.253.048-.51-.066-.644-.286-.286 0-.477-.191-.334-.477.185-.274.466-.47.788-.549l.048-.048zm-.382-1.408c.341.035.589.34.554.681-.001.012-.003.023-.005.035-.083.245-.314.409-.573.406-.119 0-.263 0-.382-.191s-.454-.191-.286-.453c.152-.22.383-.374.644-.43zm-4.105 4.296c-.073.198-.293.299-.491.225-.104-.039-.186-.121-.225-.225 0-.215 0-.549.358-.549s.525.31.31.597zm4.082-5.585c.263.191.382.621 0 .812s-.573 0-.644-.167-.454-.191-.286-.501c.192-.268.565-.328.833-.136.017.013.034.026.05.04l.048-.048zm-5.537 5.49c-.112.116-.269.177-.43.167-.114.049-.244.049-.358 0-.112-.04-.188-.144-.191-.263-.081-.195.011-.418.206-.499.063-.026.132-.035.2-.026.239.095.716.334.525.668l.048-.048zm4.607-6.874c.18-.093.393-.093.573 0 .167 0 .215.43 0 .644-.136.174-.378.225-.573.119-.31 0-.74 0-.597-.31.095-.226.306-.381.549-.406l.048-.048zm-.215-1.623c.286 0 .668.239.525.525h-.167c-.167 0-.668.167-.668-.215.043-.123.14-.219.263-.263l.048-.048zm-.573-1.289s.358-.167.406 0 .143.167 0 .191h-.191c-.191 0 0 0 0-.143s0 0 0-.119-.31.119-.263.119z"/><path d="m358.025 61.655h.382c-.143-.191-.334-.119-.501 0z"/><path d="m308.666 21.533c.244 1.009.672 1.964 1.265 2.816.709.953 1.317 1.977 1.814 3.055.357.689.357 1.507 0 2.196-.467.711-1.057 1.334-1.742 1.838-.74.597-1.504 1.146-2.267 1.719-.764.573-2.387 1.36-2.673 2.196-.143.239-.167.621 0 .74.335.126.694.175 1.05.143.597 0 2.196-.43 2.84-.477.663-.118 1.333-.197 2.005-.239.665-.091 1.334-.139 2.005-.143.597-.031 1.193.075 1.742.31.975.499 1.644 1.444 1.79 2.53.31.979.549 2.005.883 2.984.199.961.479 1.903.835 2.816.104.184.327.265.525.191.278-.263.47-.604.549-.979.525-1.337.764-3.819 1.217-5.108.158-1.001.666-1.914 1.432-2.578 1.421-.904 3.093-1.331 4.774-1.217h2.387c.382.024.764.024 1.146 0 .34-.049.666-.171.955-.358.597-.573-.119-1.217-.621-1.575-.761-.444-1.559-.82-2.387-1.122l-2.1-1.05c-.714-.367-1.373-.833-1.957-1.384-.847-1.125-1.037-2.613-.501-3.914.43-1.17.883-2.387 1.193-3.533 0-.453.692-2.602-.334-2.267-.755.223-1.433.653-1.957 1.241-.262.317-.549.613-.859.883-.477.382-.931.788-1.432 1.146s-.979.812-1.504 1.146c-.408.191-.843.32-1.289.382-.824.122-1.665-.038-2.387-.453-.922-.483-1.786-1.067-2.578-1.742-.71-.65-1.515-1.19-2.387-1.599-.382-.191-1.002-.406-1.265 0-.228.433-.287.934-.167 1.408zm-1.528 13.7-.191-.119c.191 0 .43-.239.597 0s-.239.143-.406.191zm1.599-.668c-.098.047-.212.047-.31 0h-.167c-.058-.062-.122-.118-.191-.167 0 0 .191-.143.239-.191s.382 0 .406 0c.119-.007.22.084.227.203s-.084.22-.203.227v-.072zm20.575-1.337c.047-.077.126-.129.215-.143.065-.044.15-.044.215 0v.143c-.034.147-.099.285-.191.406 0 0-.215.167-.31 0s.143-.119.119-.167h-.167c-.024 0 .191 0 .191-.167zm-1.241-.525c.191 0 .263.43 0 .525s0 0-.239 0 0 0 0 0c-.286-.167.048-.621.239-.453zm-1.432-.43c.31 0 .454.453.167.621-.19.17-.478.17-.668 0v-.167c.023-.236.233-.409.469-.386.011.001.022.002.032.004zm-1.838-.453c.286 0 .644.358.501.668s-.239.215-.406.239h-.286c-.215 0-.286-.286-.263-.477s.263-.334.454-.358zm-2.029 0c.125-.246.369-.409.644-.43.263 0 .454.501.406.74-.071.189-.252.313-.454.31h-.143c-.12.06-.262.06-.382 0-.191-.095-.167-.358-.072-.549v-.072zm-12.412 2.124c-.072.077-.162.135-.263.167-.103.06-.231.06-.334 0-.101-.08-.155-.206-.143-.334 0-.286.286-.43.597-.31s.239.382.072.549l.072-.072zm4.368-1.432c-.31.286-.835.406-1.026 0s0-.764.334-.812.859 0 .812.525c-.049.104-.123.194-.215.263s.143.072.095.095v-.072zm0-2.649c.095-.221.276-.393.501-.477.215 0 .501.286.382.525s-.597.501-.812.215 0 0 0 0-.024-.072.048-.191zm1.48 1.886c-.151.16-.354.262-.573.286h-.143c-.233.093-.496-.02-.589-.253-.025-.064-.036-.132-.031-.201.127-.361.477-.595.859-.573.549.072.835.43.597.812l-.119-.072zm.43 1.289c-.191 0-.358 0-.358-.263-.129-.26-.022-.575.238-.704.031-.015.063-.027.096-.036.382 0 .788.167.692.621-.063.256-.286.44-.549.453l-.119-.072zm.835.143c0-.358.358-.668.692-.644.289-.021.541.196.562.486.008.115-.021.23-.084.326-.156.205-.414.306-.668.263h-.143c-.125-.082-.211-.211-.239-.358l-.119-.072zm.692 1.671c-.334 0-.74 0-.668-.382.02-.355.324-.627.68-.607.028.002.056.005.084.01.358 0 .644.382.549.74-.05.205-.204.368-.406.43-.143 0-.191 0-.239-.191zm1.098-2.602h.477c.167 0 .191.31.143.525s-.167.191-.239.239c-.056.083-.141.143-.239.167-.215 0-.43-.191-.382-.453.096-.154.217-.291.358-.406l-.119-.072zm-1.48 4.105c-.094-.322.086-.661.406-.764.406 0 .859.239.621.644-.046.175-.183.312-.358.358-.167.167-.501.167-.549-.167l-.119-.072zm.31 4.392c-.167-.263.215-.382.406-.406s.382 0 .358.31c-.037.117-.14.202-.263.215h.143c-.167.098-.378.079-.525-.048l-.119-.072zm.668 1.432c-.026.053-.026.114 0 .167h-.263c-.143 0 0-.358 0-.43s.215 0 .334 0 0 0 0 .143c.056.047.075.124.048.191l-.119-.072zm2.96-11.099c.334 0 .835.358.716.74-.109.311-.449.475-.76.366-.026-.009-.051-.02-.075-.032-.169-.046-.28-.207-.263-.382-.048-.263.048-.692.382-.692zm-2.721 8.068c0 .215 0 .31-.286.31s-.549 0-.597-.191.31-.621.597-.644.334.31.286.525zm0-1.48-.143.167s-.644.263-.74 0c-.067-.296.119-.59.415-.656.028-.006.057-.01.086-.012.263-.048.549.167.358.501zm1.909-6.23c-.088.212-.261.377-.477.453h-.286c-.024 0-.668 0-.716-.334.043-.356.27-.664.597-.812.358-.143 1.026.334.859.692h.024zm-.43-2.077c.219-.092.471.01.563.229.024.056.035.116.034.177.007.202-.093.392-.263.501-.154.05-.323.003-.43-.119-.143 0-.334 0-.358-.263.042-.238.205-.437.43-.525zm3.127-8.569c.082-.162.248-.264.43-.263.215 0 .286.167.239.406-.045.131-.153.229-.286.263h-.143c-.239-.024-.406-.239-.263-.406h.024zm-.358 1.074c.358 0 .43.31.263.597l-.358.143c-.167.106-.388.056-.494-.111-.033-.053-.052-.113-.055-.175.091-.267.339-.448.621-.454h.024zm-1.098 1.241c.286 0 .764.167.692.549-.099.243-.377.361-.621.263-.11-.019-.196-.105-.215-.215-.079-.225.01-.474.215-.597h-.072zm-1.002 1.575c.091-.219.343-.322.562-.231.038.016.074.037.106.064.239.191.334.477.143.692-.155.143-.394.143-.549 0-.184.007-.339-.137-.346-.322-.003-.073.018-.144.06-.204h.024zm-.788 1.217c.152-.215.406-.333.668-.31.286 0 .382.621.286.859-.129.171-.315.29-.525.334-.14.044-.29.044-.43 0-.106.054-.235.011-.289-.095-.011-.023-.019-.047-.022-.072-.013-.269.092-.53.286-.716h.024zm-.334 1.026c.358 0 .597.406.525.74s-.215.43-.454.501c-.134.027-.272.027-.406 0-.286 0-.43-.215-.334-.525.082-.331.324-.599.644-.716h.024zm-1.146 1.241c.406-.143.883.382.859.788-.019.27-.184.508-.43.621-.192.09-.421.017-.525-.167-.202 0-.369-.156-.382-.358-.032-.357.145-.701.453-.883h.024zm-.764.692v.525c0 .167.334.215.549.31h.525c.095 0 0 .263 0 .334s-.143.406-.167.621c.048.284.048.575 0 .859 0 .286-.406.239-.621.191-.201-.07-.409-.118-.621-.143-.263 0-.334.143-.573.215-.057.073-.162.085-.235.028-.01-.008-.02-.018-.028-.028-.119 0-.263-.31-.215-.406s0-.239 0-.358 0-.239-.215-.382c-.166-.112-.265-.301-.263-.501-.119-.43.31-.406.573-.621s.358-.668.74-.788c.163-.111.386-.069.497.095.01.015.02.032.028.049h.024zm-.573-1.432c.239-.215.382 0 .477.263.109.191.046.435-.143.549h-.454c-.048 0-.286-.191-.263-.382.041-.173.142-.325.286-.43h.095zm-1.671.621c.263-.286.621 0 .835.263.226.239.216.617-.023.844-.202.191-.509.217-.74.063-.239.215-.525 0-.549-.263.029-.349.191-.674.454-.907h.024zm-1.002-1.074c.333-.127.705.04.832.372.001.003.002.006.004.01.033.251-.09.496-.31.621-.127.095-.302.095-.43 0-.286 0-.501 0-.477-.286.027-.275.155-.53.358-.716h.024zm-1.599 5.705c.036.221-.115.43-.336.465-.099.016-.201-.005-.285-.06h-.143c0-.191-.191-.525 0-.644s.788-.095.74.239zm.979-6.85c.31 0 .621.382.43.716s-.501.31-.644.143-.501 0-.501-.31c.037-.341.343-.587.684-.55h.008.024zm-2.387 7.471c-.042.148-.147.27-.286.334-.086.097-.205.157-.334.167 0 0-.191 0-.31-.143-.158-.139-.173-.381-.034-.539.042-.047.094-.083.153-.105.334-.095.859-.095.859.286zm.859-8.235c.068-.202.243-.349.454-.382.167 0 .382.31.406.525s-.263.358-.477.382-.621.358-.668 0c-.004-.202.084-.395.239-.525h.048zm-.955-1.337c.191-.191.692-.119.692.215s0 .119-.119.167-.501.453-.692.143c-.061-.193.006-.403.167-.525zm-1.122-.859c0-.119.239-.334.334-.286s.191.119.143.167v.119c-.024.062-.078.107-.143.119h-.191c-.191 0-.119 0-.143 0s0-.095.048-.119z"/><path d="m309.74 21.867h.215l.143-.167c.143-.167-.358 0-.454.263l.095-.095z"/><path d="m160.634 59.722c-.454-.31-.907.191-1.146.525-.595.776-1.069 1.637-1.408 2.554-.382.962-.862 1.882-1.432 2.745-.458.718-1.149 1.257-1.957 1.528-.466.085-.943.085-1.408 0-.621 0-1.265-.215-1.862-.286s-1.217-.239-1.814-.358c-.404-.08-.796-.208-1.17-.382-.761-.294-1.593-.353-2.387-.167v.143c-1.05.191.501 1.766.788 2.148.861.899 1.769 1.752 2.721 2.554 1.079.905 1.604 2.309 1.384 3.7-.266.751-.627 1.465-1.074 2.124-.477.668-.907 1.313-1.384 1.933-.56.648-1.063 1.342-1.504 2.077-.286.525-.621 1.432.191 1.671.341.025.682-.024 1.002-.143.363-.129.714-.289 1.05-.477.597-.31 1.36-.644 2.029-1.026 1.42-.903 3.097-1.314 4.774-1.17.952.25 1.793.814 2.387 1.599 1.002.931 2.387 3.007 3.461 3.938.237.295.564.504.931.597.239 0 .358-.191.358-.406-.103-.97-.295-1.929-.573-2.864-.143-1.026-.406-2.053-.621-3.055-.371-1.032-.219-2.179.406-3.079.377-.461.85-.835 1.384-1.098 1.225-.547 2.467-1.057 3.723-1.528.597-.263 2.172-.692 2.745-.907.324-.149.616-.359.859-.621.191-.239 0-.573-.239-.716-.621-.621-2.602-.525-3.389-.668s-1.886-.286-2.816-.477c-.838-.11-1.648-.377-2.387-.788-.655-.419-1.065-1.132-1.098-1.909-.064-1.188-.008-2.38.167-3.556.114-1.03.049-2.071-.191-3.079-.074-.394-.247-.764-.501-1.074zm7.972 12.292c0-.191.358-.191.549-.191s0 .167-.143.191h-.167s-.286.31-.239.048zm-1.408.286v-.143c0-.167 0-.263.286-.239s.286 0 .334 0c-.017.087-.017.176 0 .263h-.167c-.074.079-.178.122-.286.119-.052.026-.109.042-.167.048zm-18.522 8.664v.143h.048c0 .167-.191.143-.31.119-.13-.072-.251-.16-.358-.263v-.119c.062-.052.153-.052.215 0 .076-.035.163-.035.239 0l.167.119zm1.265-.883v.119c0 .119-.191 0-.263 0s-.334-.263-.239-.477.525.143.501.358zm1.217-1.241v.215c-.097.237-.344.375-.597.334-.31 0-.382-.406-.143-.621.157-.195.443-.226.638-.069.041.033.075.072.102.116v.024zm1.337-1.122c0 .167.191.43 0 .525h-.692c-.231-.197-.258-.543-.061-.774.019-.022.039-.043.061-.061.31.024.525.215.692.31zm1.337-.597c0 .119-.239.191-.334.239-.155.119-.37.119-.525 0-.167-.215-.215-.692 0-.859.24-.123.524-.123.764 0 .072.215.215.454.095.621zm11.672-4.941c.215-.239.621-.286.668 0 .072.1.072.234 0 .334 0 .143-.143.143-.31.167-.102.023-.208.023-.31 0-.119-.119-.263-.382-.048-.501zm-4.487 1.193c-.104-.028-.201-.077-.286-.143-.286-.382.143-.764.454-.835s.597.167.692.549-.501.644-.883.525 0-.119.024-.095zm-1.241-1.981s-.573.406-.812.167 0-.525 0-.621c.236-.037.477.023.668.167.091-.016.177.045.193.136.01.056-.009.112-.05.151zm-.43 1.265c.309-.239.741-.239 1.05 0 .132.213.067.492-.146.625-.064.04-.137.063-.212.068-.209.071-.435.071-.644 0-.501-.048-.382-.454-.048-.692zm-.621 2.172c-.286-.358 0-.74.334-.859.298-.053.584.145.637.443.003.019.006.038.007.058 0 .239 0 .334-.191.406-.237.185-.575.164-.788-.048zm0 1.122c-.219.139-.498.139-.716 0-.264-.15-.356-.485-.206-.748.049-.086.12-.157.206-.206.286-.143.788 0 .883.263.133.239.06.54-.167.692zm.286 1.241c0 .167 0 .215-.143.263-.199.03-.4-.032-.549-.167-.203-.3-.141-.706.143-.931.277-.223.683-.179.906.098.018.022.034.045.049.069.215.263 0 .549-.406.668zm-1.79-1.551c.167.215 0 .549-.119.597-.092.035-.194.035-.286 0h-.334c-.095 0-.286-.406 0-.549.142-.073.295-.121.454-.143.098.024.194.056.286.095zm2.387 3.174c-.181.05-.374-.006-.501-.143-.406-.239-.143-.764.263-.859.309-.069.615.125.684.434.003.014.006.029.008.044.095.358-.143.525-.43.525h-.024zm1.766 4.081.215-.143c-.089.076-.221.076-.31 0-.143-.167 0-.358.143-.43s.573-.143.573.143-.31.477-.597.43zm.358.979v-.167c.006-.118.108-.209.226-.203.021.001.041.005.06.012 0 0 .31.215.215.358h-.406s-.072.024-.072 0h-.024zm-6.922-8.044c.099.135.099.319 0 .453-.214.25-.591.28-.841.066-.024-.02-.046-.042-.066-.066-.203-.308-.118-.723.19-.926.031-.02.063-.038.096-.053.31-.024.549.286.644.525h-.024zm5.537 4.774c.263-.119.835 0 .835.286s-.239.358-.454.453c-.138.077-.313.028-.39-.11-.006-.011-.011-.022-.016-.033-.13-.167-.109-.406.048-.549l-.024-.048zm-.43-1.337c.261-.126.575-.016.701.246.017.036.03.074.039.112 0 .382-.286.525-.597.43s0 0 0 0c-.062.02-.129.02-.191 0-.501-.334-.382-.644.048-.788zm-4.272-5.012c.35-.026.687.138.883.43.143.382 0 .573-.477.644 0 0 0 .143-.215.167-.221.035-.447-.026-.621-.167-.477-.286-.072-.979.31-1.074h.119zm-.382-.716c0 .239 0 .334-.215.382-.012.166-.144.299-.31.31-.208.006-.398-.118-.477-.31-.107-.226-.01-.497.216-.604.045-.021.093-.035.142-.041.204.011.394.106.525.263zm-7.399-5.895v.119c-.107.076-.251.076-.358 0-.167-.191-.191-.382 0-.477.167-.075.358-.075.525 0 .027.169-.089.328-.258.355-.009.001-.019.003-.028.003zm1.575.43c.143.263-.119.501-.382.501h-.358c-.286-.167-.382-.501 0-.621.214-.067.447-.022.621.119h.119zm1.313.907c.068.092.068.218 0 .31-.182.191-.484.199-.675.017-.006-.006-.012-.011-.017-.017-.239-.31 0-.692.358-.812.164.11.248.306.215.501h.119zm1.098 1.122c-.076.197-.298.294-.494.218-.002 0-.005-.002-.007-.003-.245-.136-.339-.441-.215-.692.091-.219.343-.322.562-.231.038.016.074.037.106.064.215.095.286.549-.072.644h.119zm1.814.501c.041.125-.027.26-.153.301-.013.004-.025.007-.038.009-.097.109-.22.191-.358.239-.198.085-.422.085-.621 0-.191-.167-.358-.668-.143-.907.229-.132.511-.132.74 0 .185.07.343.195.454.358zm1.074.573c.239.215.215.453 0 .597-.074.118-.182.209-.31.263-.231.105-.504.01-.621-.215-.239-.263-.239-.812 0-.907.297-.045.597.052.812.263h.119zm1.551.859c.088.185.014.406-.167.501 0 .215-.215.382-.406.406-.26-.009-.499-.142-.644-.358-.215-.358 0-1.05.382-1.098.317.047.588.255.716.549zm.477-.549c.406 0 .668.286 1.026.358s.716-.167.788.263c.108.176.108.397 0 .573 0 .191-.143.31 0 .43s.191.167.239.286c.073.151.073.327 0 .477 0 0-.143.143-.239 0s-.382 0-.597 0-.358.334-.501.406-.43.334-.644.143c-.168-.236-.305-.492-.406-.764-.143-.167-.334-.215-.454-.453s-.143-.263 0-.31.143 0 .167-.143c.102-.029.193-.087.263-.167.143-.167.334-.286.358-.525s-.191-.358-.191-.477c.018-.036.043-.068.072-.095h.119zm.143-.955c0 .167.143.382 0 .453-.054-.02-.113-.02-.167 0h-.31c-.21-.023-.371-.195-.382-.406 0-.263 0-.549.31-.477.193.082.347.236.43.43zm1.981 0c.104.137.077.331-.06.435-.085.065-.198.081-.298.043 0 .239-.406.31-.621.286s-.501-.43-.477-.74.263-.74.621-.621c.306.112.561.333.716.621zm.239-1.528c.167.263 0 .43-.286.453s-.263.239-.406.191c-.288.064-.577-.102-.668-.382-.055-.338.176-.657.514-.711.012-.002.023-.003.035-.005.287.056.538.229.692.477l.119-.024zm3.891 3.222c.286 0 .358.334.334.549-.073.198-.293.299-.491.225-.104-.039-.186-.121-.225-.225-.334-.215-.048-.573.263-.525zm-3.676-4.774c.167.31 0 .477-.286.501s-.454.286-.644.167-.215-.621 0-.812c.253-.187.609-.146.812.095l.119.048zm5.227 4.774c.209-.029.402.116.431.325.01.068 0 .137-.026.2-.014.115-.086.214-.191.263-.115.046-.243.046-.358 0-.161.01-.318-.051-.43-.167-.31-.43.167-.668.454-.716l.119.095zm-4.774-5.895c.143.31-.286.358-.597.31-.195.105-.437.055-.573-.119v-.644c.18-.093.393-.093.573 0 .233.015.441.151.549.358zm0-1.504c0 .382-.454.31-.668.215s-.167 0-.191 0 0 0 0 0c-.143-.286.239-.597.525-.525.131.02.246.099.31.215zm.286-1.695v.119c0 .119 0 .215 0 .143-.059.034-.132.034-.191 0v-.191c0-.048.334 0 .43 0s-.191-.191-.263-.167l.024.095z"/><path d="m160.443 61.655h-.406c.167-.191.358-.119.525 0z"/><path d="m209.66 20.315c-.263-.501-.883-.286-1.265 0-.867.418-1.671.956-2.387 1.599-.783.675-1.64 1.259-2.554 1.742-.722.416-1.563.575-2.387.453-.458-.13-.893-.331-1.289-.597-.525-.334-1.002-.788-1.504-1.146s-.955-.764-1.432-1.146c-.31-.27-.597-.566-.859-.883-.524-.588-1.202-1.018-1.957-1.241-1.05-.334-.43 1.814-.334 2.267.31 1.17.764 2.387 1.193 3.533.536 1.302.345 2.79-.501 3.914-.589.546-1.247 1.011-1.957 1.384l-2.1 1.05c-.827.302-1.626.677-2.387 1.122-.501.358-1.217 1.002-.621 1.575.289.187.614.309.955.358.382.024.764.024 1.146 0h2.387c1.68-.113 3.353.313 4.774 1.217.767.663 1.274 1.576 1.432 2.578.454 1.289.692 3.771 1.217 5.108.079.374.271.716.549.979.191.072.406-.01.501-.191.375-.909.663-1.852.859-2.816.334-.979.573-2.005.883-2.984.145-.978.724-1.838 1.575-2.339.549-.235 1.146-.341 1.742-.31.663.004 1.325.051 1.981.143.68.04 1.358.12 2.029.239.644 0 2.244.43 2.84.477.356.032.715-.017 1.05-.143.263-.119.263-.501 0-.74-.263-.835-2.053-1.671-2.697-2.196s-1.504-1.122-2.244-1.719c-.685-.504-1.275-1.127-1.742-1.838-.357-.689-.357-1.507 0-2.196.497-1.078 1.105-2.102 1.814-3.055.618-.905 1.064-1.916 1.313-2.984.12-.398.112-.824-.024-1.217zm1.265 14.584c.167-.143.406 0 .597 0s0 .119-.191.119-.573.095-.406-.119zm-1.36-.406h.143c0-.191.239-.167.382 0s.263 0 .263.191c-.069.049-.133.105-.191.167h-.119c-.098.047-.212.047-.31 0-.119.004-.218-.089-.222-.208-.002-.055.018-.109.055-.15zm-20.407-1.026h-.382v.167c0 .119-.239 0-.334 0-.073-.131-.137-.266-.191-.406v-.143c.065-.044.15-.044.215 0 .081.018.151.07.191.143 0 0 .477.239.501.239zm1.528-.167h-.239c-.048 0-.167-.406 0-.525s.358.286.239.477zm1.647-.549v.167c-.19.17-.478.17-.668 0-.286-.167-.143-.525.167-.621.249-.028.473.152.501.401v.005zm1.719-.358c0 .191 0 .477-.239.477h-.358c-.167 0-.358 0-.406-.239s.215-.692.501-.668.406.215.501.382v.048zm1.456 0c-.12.06-.262.06-.382 0h-.143c-.239 0-.382 0-.454-.31s0-.716.406-.74c.275.02.52.183.644.43.143.31.143.573-.072.668v-.048zm12.626 1.074c.31 0 .692 0 .597.31.004.127-.048.249-.143.334-.103.06-.231.06-.334 0-.105-.037-.202-.094-.286-.167-.072-.095-.072-.477.167-.477zm-4.511-1.05c-.079-.075-.144-.164-.191-.263 0-.477.477-.597.812-.525s.43.43.334.812-.74.334-1.026 0 .072.048.072.072v-.095zm-.167-2.387s-.716 0-.812-.215.167-.525.382-.525c.225.084.406.257.501.477.112.02.187.127.167.239s-.127.187-.239.167v-.143zm-.979.907c.391-.033.754.203.883.573.018.25-.17.467-.42.485-.068.005-.137-.006-.201-.031h-.143c-.22-.02-.424-.123-.573-.286-.239-.239.048-.597.454-.597v-.143zm-1.575 1.647c-.049-.299.155-.581.454-.63s.581.155.63.454c.016.1.005.202-.034.295 0 .263-.167.286-.358.263s-.573.024-.692-.239zm-.501.955h-.143c-.254.044-.512-.057-.668-.263-.159-.243-.091-.568.151-.727.096-.063.211-.093.326-.085.334 0 .764.286.668.644s-.239.501-.239.573l-.095-.143zm-.334 1.241c0 .167 0 .191-.263.191-.195-.064-.341-.228-.382-.43 0-.358.191-.644.549-.74.35-.066.687.163.753.513.005.028.009.056.01.084 0 .334-.358.43-.668.382zm-.859-2.196c0 .263-.167.525-.382.453-.097-.024-.183-.084-.239-.167-.114-.045-.207-.13-.263-.239 0-.215 0-.501.143-.525.157-.038.321-.038.477 0 .128.187.217.398.263.621v-.143zm.644 3.938c-.178-.051-.32-.184-.382-.358-.239-.406.239-.716.644-.644.32.103.499.441.406.764-.024.477-.453.477-.668.382v-.143zm-.358 4.44h.263c-.167 0-.263-.119-.263-.215s.143-.31.334-.31.597.143.43.406c-.035.248-.265.42-.513.385-.094-.013-.182-.056-.251-.123zm-.143 1.002v-.143c0-.143.263-.143.334 0s.191.334 0 .43h-.286c.009-.055.009-.112 0-.167-.015.01-.031.019-.048.024v-.143zm-2.387-10.335c.018.174-.093.336-.263.382-.293.15-.653.034-.803-.259-.012-.024-.023-.049-.032-.075-.054-.352.187-.681.539-.735.051-.008.102-.009.153-.005.406.143.477.573.454.835zm2.626 6.85c.286 0 .764.334.597.644s-.358.215-.597.191-.286 0-.286-.31c.008-.19.147-.349.334-.382zm.143-1.504c.303.019.532.28.514.582-.002.029-.006.058-.012.086 0 .382-.501.358-.74 0s0 0 0 0c-.059-.045-.108-.102-.143-.167-.167-.143.095-.358.43-.358l-.048-.143zm-1.432-6.421c.327.148.553.455.597.812 0 .382-.382.43-.716.334s-.191 0-.286 0c-.216-.077-.389-.242-.477-.453-.119-.167.549-.644.931-.549l-.048-.143zm0-.812c0 .263-.215.263-.358.263-.107.122-.275.169-.43.119-.169-.113-.275-.298-.286-.501.009-.25.219-.446.469-.438.052.002.103.013.152.032.298.085.503.358.501.668zm-3.7-8.521h-.143c-.134-.033-.242-.132-.286-.263 0-.239 0-.43.239-.406.18.004.344.104.43.263.072.143-.095.358-.239.406zm1.17 1.098c-.024.21-.213.36-.422.337-.053-.006-.104-.023-.15-.05l-.334-.143c-.167-.286 0-.621.263-.597.273.015.509.195.597.453h.048zm.74 1.432c-.019.11-.105.196-.215.215-.24.11-.523.005-.633-.235-.004-.009-.008-.018-.012-.027 0-.382.382-.573.692-.549.187.137.256.383.167.597zm.454 1.504c-.155.143-.394.143-.549 0-.191-.215 0-.501.143-.692.184-.15.454-.123.605.061.026.032.048.068.064.106.106.151.068.36-.083.465-.053.037-.115.058-.18.06zm1.36 1.289c-.014.118-.12.202-.238.189-.025-.003-.05-.01-.072-.022-.14.044-.29.044-.43 0-.212-.037-.401-.157-.525-.334 0-.239 0-.764.286-.859s.501.143.668.31c.182.196.292.449.31.716zm.668 1.002c0 .31 0 .501-.31.525-.134.027-.272.027-.406 0-.263 0-.454-.215-.454-.501s.167-.835.525-.74c.331.1.579.376.644.716zm.979 1.504c-.013.202-.18.358-.382.358 0 .191-.358.239-.549.167-.24-.115-.396-.354-.406-.621 0-.406.454-.931.859-.788.318.176.504.521.477.883zm.692-.263c.382.119.454.549.716.788s.716.191.573.621c.022.199-.07.393-.239.501-.119.143-.263.215-.215.382s0 .215 0 .358 0 .358-.191.406c-.07.079-.19.087-.27.017-.006-.005-.012-.011-.017-.017-.215 0-.31-.191-.549-.215-.212.022-.42.07-.621.143-.215 0-.549 0-.644-.191-.048-.284-.048-.575 0-.859 0-.215-.215-.358-.167-.621s0-.31 0-.334.167 0 .215 0h.31c.215 0 .43-.119.549-.31s0-.406 0-.525c.034-.195.219-.326.414-.292.048.008.094.026.135.053v.095zm.549-.788c0 .191 0 .406-.263.382s0 0-.167 0h-.286c-.179-.12-.249-.35-.167-.549 0-.215.263-.477.501-.263.18.086.318.241.382.43zm1.742.955c0 .334-.286.477-.525.263-.209.141-.483.141-.692 0-.237-.229-.244-.606-.016-.844.005-.005.01-.01.016-.016.191-.31.573-.549.835-.263.209.237.32.544.31.859h.072zm.931-1.241c0 .31-.191.406-.477.286-.127.095-.302.095-.43 0-.22-.124-.343-.37-.31-.621.122-.334.491-.507.826-.385.003.001.006.002.01.004.212.183.348.438.382.716zm1.933 4.774c.239 0 .143.453 0 .644h-.143c-.188.122-.439.067-.561-.121-.054-.084-.076-.186-.06-.285 0-.382.501-.525.764-.334v.095zm-.979-6.182c0 .358-.239.406-.501.31s-.525 0-.644-.143 0-.668.43-.716c.348-.042.667.202.716.549zm2.387 6.635c.178.086.252.3.166.478-.035.073-.094.131-.166.166-.095.127-.191.175-.286.143-.129-.011-.248-.07-.334-.167-.14-.064-.244-.186-.286-.334.119-.31.644-.31.931-.215l-.024-.072zm-1.408-7.399c0 .334-.406.167-.644 0s-.477-.143-.477-.382.215-.525.406-.525c.21.033.385.18.454.382.198.131.308.36.286.597l-.024-.072zm.74-1.313c-.191.31-.549 0-.692-.143s-.119 0-.119-.167 0 0 0 0c0-.334.477-.406.692-.215.186.138.247.389.143.597zm1.098-1.313h-.143c-.143 0-.143.191-.191 0-.065-.012-.119-.057-.143-.119-.017-.038-.017-.081 0-.119s0-.167.143-.167.286.167.334.286 0 .143 0 .119z"/><path d="m208.609 21.867h-.239c-.013-.055-.013-.112 0-.167.215 0 .358 0 .454.263l-.215-.095z"/><path d="m384.71 141.233c3.795 2.077 5.012 5.537 8.664 6.612 2.1.644-12.101 3.031-17.949-.597-3.891-2.387-5.251-2.697-7.471-2.387-.573 0 0-1.456 1.146-1.623s.668-1.599 2.888-1.599c.621 0-1.838-3.843-13.128-5.919-9.12-1.774-18.496-1.774-27.616 0-13.175 2.196-36.161-1.838-37.664-6.516-.597-1.886 9.309 2.387 30.289-2.745 9.547-2.387 27.974-1.766 37.091 2.172 8.402 3.628 12.96 6.802 14.536 8.569 2.754-5.185 6.407-9.84 10.789-13.748 6.182-5.49 15.682-11.648 33.416-12.412 9.428-.406 24.393-6.85 27.568-12.626 1.289-2.387 4.296 7.686-11.815 16.708 0 0-11.123 8.426-31.172 12.292-18.808 3.652-20.861 13.104-19.572 13.82z"/></g></svg>