<?xml version="1.0" encoding="UTF-8"?>
<svg id="_レイヤー_1" data-name="レイヤー 1" xmlns="http://www.w3.org/2000/svg" viewBox="0 0 100 100">
  <defs>
    <style>
      .cls-1 {
        fill: none;
        stroke: #fff;
        stroke-linecap: round;
        stroke-linejoin: round;
        stroke-width: 1.41732px;
      }

      .cls-2 {
        fill: #fff;
      }

      .cls-3 {
        fill: #dc0012;
      }
    </style>
  </defs>
  <g id="_グループ_" data-name="&amp;lt;グループ&amp;gt;">
    <circle class="cls-3" cx="50" cy="50" r="50"/>
    <circle class="cls-1" cx="50.00079" cy="49.99917" r="43.19785"/>
  </g>
  <g>
    <path class="cls-2" d="m33.75183,54.18349c-.55796,1.13767-1.24802,2.0733-2.0733,2.8535,2.16188.60147,4.10152,1.2045,5.61841,1.73914l-1.62724,2.16188c-1.69563-.69006-3.9461-1.47027-6.46545-2.20696-2.49759,1.22626-5.79715,1.80597-10.12092,2.14013-.17873-.75689-.60147-1.69407-1.00401-2.27379,2.94364-.1119,5.35109-.37922,7.33425-.89211-.71338-.17718-1.42675-.35591-2.16188-.51133l-.24556.33415-2.56287-.80352c.5564-.71338,1.20295-1.58217,1.8728-2.54111h-4.63772v-2.14013h6.06447c.31084-.48957.60147-.95894.89055-1.42675h-5.52827v-6.24165h4.83821v-1.27133h-5.86398v-2.29555h19.41811v2.29555h-6.04116v1.27133h5.32778v6.24165h-9.11846c-.26732.46781-.57971.93718-.89211,1.42675h11.25859v2.14013h-4.28025Zm-12.14914-5.64017h2.34062v-2.0733h-2.34062v2.0733Zm3.00892,6.73277c1.38168.28908,2.78667.62479,4.14659.9807.82528-.55796,1.51534-1.24802,2.05154-2.0733h-5.43968l-.75845,1.0926Zm1.82773-10.90112h2.51935v-1.27133h-2.51935v1.27133Zm2.51935,4.16835v-2.0733h-2.51935v2.0733h2.51935Zm2.49759-2.0733v2.0733h2.67477v-2.0733h-2.67477Z"/>
    <path class="cls-2" d="m60.89274,49.25669c-1.00246,2.09505-2.31886,4.32532-3.56688,5.81891l-2.27379-1.31485c.53464-.73669,1.18119-1.73914,1.73914-2.74315h-4.70455v6.93326c0,1.40499-.31239,2.0733-1.38168,2.45252-1.02577.37922-2.47428.40098-4.39215.40098-.13366-.75689-.5564-1.84949-.95894-2.54111,1.3164.04507,2.9654.04507,3.41146.04507.4243-.02331.55796-.1119.55796-.44605v-6.84467h-8.80607v-2.51935h10.14268c-1.649-.69006-3.45497-1.40344-4.88173-1.93808l1.31485-2.00647c1.00401.35591,2.25203.78021,3.50005,1.24802.95894-.60147,1.96139-1.33816,2.83174-2.09505h-10.76746v-2.43076h13.33033l.60303-.15542,1.89456,1.49358c-1.42675,1.42675-3.2778,2.96385-5.14905,4.23518.73513.28908,1.40344.53464,1.91632.78021l-.53464.86879h3.52181l.49113-.17718,2.16188.93563Z"/>
    <path class="cls-2" d="m65.91745,53.44836c-.22225,2.09505-.69162,4.32377-1.33816,5.75052-.46781-.28908-1.44851-.75689-2.02822-.95738.64655-1.3164,1.00401-3.29956,1.18119-5.17236l2.1852.37922Zm17.34481-9.6531s0,.89211-.02331,1.22626c-.28908,9.76345-.60147,13.28681-1.53865,14.468-.62323.84704-1.20295,1.0926-2.14013,1.22626-.80196.13366-2.18364.1119-3.47673.06683-.04507-.75845-.40098-1.91788-.89211-2.67477,1.40499.13366,2.67477.13366,3.2778.13366.42274,0,.6683-.09014.93563-.37922.6683-.69162,1.00401-3.9461,1.24802-11.54767h-6.15306c-.60147,1.0926-1.22471,2.0733-1.89456,2.87526-.44605-.40098-1.42675-1.06929-2.09505-1.47182.78021,1.40499,1.49358,3.05555,1.73914,4.1699l-2.00647.93563c-.06683-.35591-.17873-.75845-.31239-1.20295l-1.27133.08859v9.16198h-2.34062v-8.98325l-3.29956.22225-.22225-2.31886,1.649-.06683c.33571-.42274.69162-.89055,1.02577-1.38168-.64655-.95894-1.73914-2.16188-2.67477-3.05399l1.24802-1.82773c.17873.15542.35746.31239.53464.46781.62479-1.22626,1.27133-2.71984,1.6288-3.87927l2.34062.82528c-.80352,1.53865-1.71739,3.25448-2.51935,4.5025.28908.31239.5564.64655.78021.93718.80196-1.24802,1.51534-2.54111,2.04998-3.65702l2.25203.93718c-1.24802,1.96139-2.80843,4.23518-4.25694,6.04116l2.25047-.08859c-.24556-.5362-.51288-1.07084-.78021-1.53865l1.8728-.82528.15697.26732c1.649-1.7609,2.96385-4.6144,3.67722-7.42283l2.71984.57971c-.28908,1.0926-.6683,2.16188-1.0926,3.18765h7.60312Zm-12.59675,9.14022c.60303,1.31485,1.18274,3.05399,1.45006,4.19011l-2.09661.73669c-.17718-1.13767-.75689-2.94364-1.31485-4.30201l1.96139-.62479Zm5.21743,2.27379c-.4243-1.40499-1.58372-3.54512-2.71984-5.14905l2.11681-1.07084c1.15943,1.53865,2.43076,3.58864,2.89857,4.99363l-2.29555,1.22626Z"/>
  </g>
</svg>