<?xml version="1.0" encoding="UTF-8"?>
<svg id="_レイヤー_1" data-name="レイヤー 1" xmlns="http://www.w3.org/2000/svg" viewBox="0 0 488 312">
  <defs>
    <style>
      .cls-1 {
        fill: #fff;
      }

      .cls-2 {
        fill: #dc0012;
      }
    </style>
  </defs>
  <path class="cls-2" d="m327.35037,54.015h15.51839v-15.405h-38.35679c.87839-2.4375,1.36639-4.9725,1.36639-7.7025,0-9.8475-6.53921-14.43-10.54079-17.0625-3.80639-2.6325-4.58721-3.4125-4.58721-6.045V0h-10.93121l-2.14721,1.755c-3.70879,3.12-10.93121,9.6525-15.03039,17.4525-2.04961-2.4375-4.48961-4.1925-6.44161-5.46-3.80639-2.6325-4.58721-3.4125-4.58721-6.045V0h-10.9312l-2.1472,1.755c-3.7088,3.12-10.9312,9.6525-15.03039,17.4525-2.04961-2.4375-4.48961-4.1925-6.44161-5.46-3.80639-2.6325-4.5872-3.4125-4.5872-6.045V0h-10.9312l-2.1472,1.755c-5.46561,4.485-18.2512,16.38-18.2512,29.055,0,2.73.488,5.265,1.36639,7.7025h-37.6736v15.405h13.4688c1.7568,19.4025,10.4432,36.9525,24.6928,50.0175,4.0992,3.705,8.4912,6.9225,13.176,9.75l-30.744,77.805,14.3472,5.655,10.4432-26.325h105.40799l10.44321,26.325,14.34721-5.655-30.54879-77.90249c4.58721-2.73,8.88161-5.9475,12.78561-9.555,14.24961-13.06499,22.83839-30.61499,24.69279-50.0175Zm-47.23839-32.955c2.14721,2.4375,4.58721,4.095,6.44161,5.3625,3.70879,2.535,3.80639,2.925,3.80639,4.3875,0,4.29-3.51361,7.7025-7.71039,7.7025s-7.71039-3.51-7.71039-7.7025c0-2.535,2.14718-6.1425,5.17279-9.75Zm-39.04,0c2.1472,2.4375,4.5872,4.095,6.44161,5.3625,3.70879,2.535,3.80639,2.925,3.80639,4.3875,0,4.29-3.51361,7.7025-7.71039,7.7025-4.29439,0-7.71039-3.51-7.71039-7.7025-.00001-2.535,2.14718-6.1425,5.17279-9.75Zm-44.2128,9.8475c0-2.535,2.1472-6.24,5.1728-9.8475,2.1472,2.4375,4.5872,4.095,6.44161,5.3625,3.7088,2.535,3.80639,2.925,3.80639,4.3875,0,4.29-3.51361,7.7025-7.71039,7.7025-4.1968.0975-7.71041-3.4125-7.71041-7.605Zm92.91519,124.605h-93.20799l13.8592-35.0025c10.0528,3.705,21.0816,5.7525,32.5008,5.7525,11.51679,0,22.74079-2.0475,32.89121-5.85l13.95679,35.1Zm-46.75039-44.7525c-36.6976,0-65.0016-23.8875-68.808-56.745h137.61599c-3.904,32.8575-32.208,56.745-68.808,56.745Z"/>
  <g>
    <g>
      <path class="cls-2" d="m26.7424,212.355v42.2175h-9.3696v-42.2175H0v-8.38501h486.14558v8.38501H26.7424Z"/>
      <path class="cls-1" d="m56.8032,254.57251h-16.592v-38.025h15.8112c7.9056,0,12.1024,4.3875,12.1024,11.0175,0,4.28999-3.0256,6.72749-4.1968,7.5075,1.5616.975,4.6848,2.925,4.6848,8.2875.0976,7.3125-4.97761,11.2125-11.8096,11.2125Zm-1.3664-29.64001h-5.856v6.23999h5.856c2.5376,0,3.416-1.56001,3.416-3.12,0-1.4625-.8784-3.12-3.416-3.12Zm.488,14.625h-6.344v6.72749h6.344c2.5376,0,3.416-1.755,3.416-3.4125s-.8784-3.31499-3.416-3.31499Z"/>
      <path class="cls-1" d="m97.8928,250.67251c-2.7328,2.72999-5.9536,4.28999-10.6384,4.28999s-7.9056-1.4625-10.6384-4.28999c-4.0016-3.99751-3.8064-9.36001-3.8064-15.1125s-.1952-11.0175,3.8064-15.1125c2.7328-2.82749,5.9536-4.28999,10.6384-4.28999s7.9056,1.4625,10.6384,4.28999c4.0016,3.99751,3.8064,9.36001,3.8064,15.1125,0,5.75249.1952,11.11499-3.8064,15.1125Zm-6.92961-24.47251c-.6832-.87749-2.0496-1.6575-3.7088-1.6575-1.7568,0-3.0256.78-3.7088,1.6575-.8784,1.17-1.3664,2.4375-1.3664,9.36001s.488,8.18999,1.3664,9.2625c.6832.87749,2.0496,1.755,3.7088,1.755,1.7568,0,3.0256-.78,3.7088-1.755.8784-1.17,1.3664-2.33999,1.3664-9.2625s-.488-8.19001-1.3664-9.36001Z"/>
      <path class="cls-1" d="m128.6368,254.57251l-12.2-19.11001v19.11001h-9.3696v-38.025h8.1984l12.2,19.11001v-19.11001h9.36961v38.025h-8.19841Z"/>
      <path class="cls-1" d="m143.37439,254.57251v-38.025h25.864v8.38501h-16.49439v6.3375h14.152v8.38501h-14.152v6.72749h16.49439v8.38501h-25.864v-.19501Z"/>
      <path class="cls-2" d="m198.71359,254.9625c-5.856,0-10.63839-1.07251-14.4448-5.07001l5.95361-5.94751c1.952,1.95,5.46561,2.6325,8.4912,2.6325,3.7088,0,5.46561-1.2675,5.46561-3.4125,0-.87749-.1952-1.6575-.7808-2.2425-.488-.4875-1.2688-.87749-2.53761-.975l-4.5872-.6825c-3.416-.4875-5.95361-1.56001-7.6128-3.4125-1.7568-1.85249-2.6352-4.3875-2.6352-7.605,0-6.92251,5.27039-11.9925,13.9568-11.9925,5.46561,0,9.5648,1.2675,12.8832,4.5825l-5.856,5.85c-2.44-2.4375-5.5632-2.2425-7.22239-2.2425-3.2208,0-4.5872,1.85249-4.5872,3.51001,0,.4875.1952,1.17.7808,1.755.488.4875,1.2688.975,2.6352,1.17l4.5872.6825c3.416.4875,5.856,1.56001,7.5152,3.12,2.04961,1.95,2.83039,4.77749,2.83039,8.38501-.1952,7.60503-6.832,11.89503-14.8352,11.89503Z"/>
      <path class="cls-1" d="m235.21599,224.9325v29.73751h-9.36961v-29.7375h-9.36961v-8.38501h28.1088v8.38501h-9.36959Z"/>
      <path class="cls-1" d="m248.68479,254.57251v-38.025h25.86398v8.38501h-16.49439v6.3375h14.152v8.38501h-14.152v6.72749h16.49439v8.38501h-25.864v-.19501h.00001Z"/>
      <path class="cls-1" d="m302.65759,254.57251l-1.75679-5.655h-11.712l-1.85439,5.655h-9.76l13.85921-38.025h7.22239l13.85921,38.025h-9.85764Zm-7.41761-23.59501l-3.416,10.13999h6.63679l-3.22079-10.13999Z"/>
      <path class="cls-1" d="m337.11037,254.57251l-8.784-15.6-3.22079,3.705v11.895h-9.272v-38.025h9.272v13.455l11.02879-13.455h11.41921l-12.98079,15.405,13.46879,22.62h-10.93121Z"/>
      <path class="cls-2" d="m376.93119,254.9625c-4.392,0-7.808-1.4625-10.63839-4.28999-4.00161-3.99751-3.80639-9.36001-3.80639-15.1125s-.19521-11.0175,3.80639-15.1125c2.73279-2.82749,6.14879-4.28999,10.63839-4.28999,7.22239,0,13.07839,3.99751,14.44479,12.3825h-9.56479c-.58561-2.145-1.75679-4.095-4.88-4.095-1.75679,0-3.02561.6825-3.70879,1.56001-.87839,1.17-1.464,2.4375-1.464,9.36001s.58561,8.2875,1.464,9.36001c.68321.87749,1.952,1.56001,3.70879,1.56001,3.12321,0,4.29439-1.95,4.88-4.095h9.56479c-1.36639,8.77496-7.22239,12.77246-14.44479,12.77246Z"/>
      <path class="cls-1" d="m416.75197,254.57251l-1.75679-5.655h-11.712l-1.85439,5.655h-9.76l13.85921-38.025h7.22239l13.85921,38.025h-9.85764Zm-7.41761-23.59501l-3.416,10.13999h6.63679l-3.22079-10.13999Z"/>
      <path class="cls-1" d="m439.29758,224.9325v6.72749h14.152v8.38501h-14.152v14.72249h-9.36961v-38.025h25.864v8.38501h-16.49439v-.195Z"/>
      <path class="cls-1" d="m460.18397,254.57251v-38.025h25.864v8.38501h-16.49439v6.3375h14.152v8.38501h-14.152v6.72749h16.49439v8.38501h-25.864v-.19501Z"/>
    </g>
    <g>
      <path class="cls-1" d="m37.088,311.70751h-6.5392l-5.2704-16.0875-5.2704,16.0875h-6.5392l-8.9792-32.56499h8.3936l4.2944,17.25751,5.2704-17.25751h5.6608l5.2704,17.25751,4.2944-17.25751h8.3936l-8.9792,32.56499Z"/>
      <path class="cls-1" d="m68.6128,308.29501c-2.3424,2.33999-5.1728,3.70499-9.0768,3.70499s-6.7344-1.26749-9.0768-3.70499c-3.416-3.4125-3.3184-7.99501-3.3184-12.87001s-.0976-9.45751,3.3184-12.87001c2.3424-2.33999,5.1728-3.70499,9.0768-3.70499s6.7344,1.26749,9.0768,3.70499c3.416,3.4125,3.3184,7.99501,3.3184,12.87001,0,4.875.0976,9.45751-3.3184,12.87001Zm-5.95361-20.86502c-.5856-.77999-1.7568-1.4625-3.2208-1.4625s-2.6352.68251-3.2208,1.4625c-.7808.975-1.1712,2.04751-1.1712,7.99501s.488,7.02001,1.1712,7.99501c.5856.77999,1.7568,1.4625,3.2208,1.4625s2.6352-.68251,3.2208-1.4625c.7808-.975,1.1712-2.04751,1.1712-7.99501.09761-5.94751-.39039-7.02001-1.1712-7.99501Z"/>
      <path class="cls-1" d="m97.11199,308.29501c-2.3424,2.33999-5.1728,3.70499-9.0768,3.70499-4.0016,0-6.7344-1.26749-9.0768-3.70499-3.416-3.4125-3.3184-7.99501-3.3184-12.87001s-.0976-9.45751,3.3184-12.87001c2.3424-2.33999,5.1728-3.70499,9.0768-3.70499,4.0016,0,6.7344,1.26749,9.0768,3.70499,3.416,3.4125,3.3184,7.99501,3.3184,12.87001s.0976,9.45751-3.3184,12.87001Zm-5.9536-20.86502c-.5856-.77999-1.7568-1.4625-3.2208-1.4625s-2.6352.68251-3.2208,1.4625c-.7808.975-1.1712,2.04751-1.1712,7.99501s.488,7.02001,1.1712,7.99501c.5856.77999,1.7568,1.4625,3.2208,1.4625s2.6352-.68251,3.2208-1.4625c.7808-.975,1.1712-2.04751,1.1712-7.99501.0976-5.94751-.3904-7.02001-1.1712-7.99501Z"/>
      <path class="cls-1" d="m125.90399,308.48999c-2.2448,2.24249-5.368,3.21749-8.784,3.21749h-12.1024v-32.56499h12.1024c3.416,0,6.5392.975,8.784,3.21749,3.80639,3.80249,3.416,7.99501,3.416,13.06499,0,5.16752.39039,9.26253-3.416,13.06502Zm-5.4656-20.37749c-.7808-1.07251-1.8544-1.85249-3.8064-1.85249h-3.5136v18.32999h3.5136c2.0496,0,3.1232-.77999,3.8064-1.85249.6832-.87749.8784-1.75499.8784-7.3125,0-5.46001-.2928-6.43501-.8784-7.3125Z"/>
      <path class="cls-2" d="m153.03679,286.26001v5.75249h12.10239v7.11749h-12.10239v12.57749h-8.0032v-32.56499h22.1552v7.11749l-14.152.00003h0Z"/>
      <path class="cls-2" d="m170.99519,311.70751v-32.56499h8.0032v32.56499h-8.0032Z"/>
      <path class="cls-2" d="m201.05599,311.70751l-5.75839-12.08999h-2.7328v12.08999h-8.0032v-32.56499h12.8832c7.22239,0,11.12639,5.16749,11.12639,10.52999,0,4.48501-2.7328,7.21499-5.27039,8.48251l7.0272,13.65h-9.272v-.09751Zm-3.904-25.44751h-4.5872v6.62999h4.5872c2.2448,0,3.51361-1.56001,3.51361-3.31499,0-1.65751-1.36641-3.31499-3.51361-3.31499Z"/>
      <path class="cls-2" d="m213.64638,311.70751v-32.56499h22.1552v7.11749h-14.152v5.46001h12.10239v7.11749h-12.10239v5.75249h14.152v7.11749l-22.1552.00003h0Z"/>
      <path class="cls-1" d="m274.15838,311.70751v-15.6l-4.58721,8.09249h-5.17279l-4.58721-8.09249v15.6h-8.00318v-32.56499h7.90561l7.32,14.42999,7.32-14.42999h7.90561v32.56499h-8.10082Z"/>
      <path class="cls-1" d="m287.82238,311.70751v-32.56499h22.15521v7.11749h-14.152v5.46001h12.10239v7.11749h-12.10239v5.75249h14.152v7.11749l-22.15521.00003h0Z"/>
      <path class="cls-1" d="m334.08477,311.70751l-1.56161-4.875h-10.05279l-1.56161,4.875h-8.39361l11.90721-32.56499h6.14879l11.90721,32.56499h-8.39361Zm-6.344-20.18251l-2.928,8.67749h5.66079l-2.73279-8.67749Z"/>
      <path class="cls-1" d="m356.14237,286.26001v25.44751h-8.00321v-25.44751h-8.00321v-7.11749h24.10721v7.11749h-8.10079Z"/>
      <path class="cls-1" d="m393.32798,311.70751h-14.24961v-32.56499h13.56639c6.832,0,10.44321,3.80249,10.44321,9.45751,0,3.70499-2.53761,5.75249-3.61121,6.43501,1.36639.77999,4.00161,2.53501,4.00161,7.11749,0,6.14249-4.392,9.55499-10.15039,9.55499Zm-1.26879-25.44751h-4.97761v5.26499h4.97761c2.24479,0,2.928-1.36499,2.928-2.63251,0-1.16998-.68321-2.63248-2.928-2.63248Zm.488,12.57749h-5.368v5.75249h5.368c2.24479,0,2.928-1.56001,2.928-2.925s-.78082-2.82749-2.928-2.82749Z"/>
      <path class="cls-1" d="m407.96798,311.70751v-32.56499h22.15521v7.11749h-14.152v5.46001h12.10239v7.11749h-12.10239v5.75249h14.152v7.11749l-22.15521.00003h0Z"/>
      <path class="cls-1" d="m435.10076,311.70751v-32.56499h22.15521v7.11749h-14.152v5.46001h12.10239v7.11749h-12.10239v5.75249h14.152v7.11749l-22.15521.00003h0Z"/>
      <path class="cls-1" d="m478.72797,311.70751l-5.75839-12.08999h-2.73279v12.08999h-8.00321v-32.56499h12.88321c7.22239,0,11.12639,5.16749,11.12639,10.52999,0,4.48501-2.73279,7.21499-5.27039,8.48251l7.02721,13.65h-9.272l-.00003-.09751h0Zm-4.00161-25.44751h-4.58721v6.62999h4.58721c2.24479,0,3.51361-1.56001,3.51361-3.31499,0-1.65751-1.26879-3.31499-3.51361-3.31499Z"/>
    </g>
    <polygon class="cls-1" points="27.71814 235.35378 33.65325 229.42474 39.58837 235.35378 33.65326 241.28281 27.71814 235.35378"/>
  </g>
</svg>