<svg id="a0c0f14c-a9a2-4f0c-a167-33030504bec9" data-name="レイヤー 1" xmlns="http://www.w3.org/2000/svg" viewBox="0 0 198 258"><ellipse cx="98.5601" cy="89.91237" rx="82.24661" ry="82.7559" style="fill:#009d90"/><ellipse cx="163.75411" cy="31.59066" rx="30.03253" ry="30.21564" style="fill:#fff"/><ellipse cx="163.75411" cy="31.59066" rx="30.03253" ry="30.21564" style="fill:none;stroke:#00ab9d;stroke-miterlimit:10;stroke-width:2.7500278726785092px"/><path d="M155.45574,37.98459c1.14623,2.06355,3.34791,2.944,6.45465,3.06545a146.71047,146.71047,0,0,0,15.382-.27318,16.85366,16.85366,0,0,0-1.05569,3.36808c-3.83025.21252-10.52607.27324-14.29618.09108-3.64967-.1518-6.15288-1.03227-7.96275-3.39844-1.11581,1.21351-2.262,2.39654-3.67961,3.70205L148.609,41.11082a44.721,44.721,0,0,0,3.49879-2.82256V31.58142h-3.07632V28.27406h6.42423Zm-2.7748-13.77691a21.20324,21.20324,0,0,0-3.86061-5.24947l2.83515-1.7903a21.49026,21.49026,0,0,1,4.07194,5.03694Zm8.80722,4.33962c-.12071,3.70205-.75418,8.28456-3.58933,11.349a11.56079,11.56079,0,0,0-2.11115-2.09391c2.56356-3.03411,2.805-7.52554,2.805-10.74181V23.38892H156.2703V20.41455h3.5589V16.53034h3.31773v3.88421h3.25762V21.962a19.56717,19.56717,0,0,0,2.17151-5.6138l2.986.66794c-.21124.8501-.45241,1.66886-.724,2.4886h5.76058v2.97339H169.5714a14.97649,14.97649,0,0,1-1.02552,1.82066h5.58l.60308-.18216,1.86974,1.427a31.32563,31.32563,0,0,1-3.31749,4.42973v.334h3.49855v2.85292h-3.49855v3.64133c0,1.39561-.211,2.24571-1.17616,2.73051a8.67508,8.67508,0,0,1-3.89085.54649,10.71774,10.71774,0,0,0-.96517-2.97339c1.08588.03036,2.20168.03036,2.53363.03036.36184,0,.4524-.09108.4524-.39469V33.16023h-3.31773V30.30731h3.31773v-1.851h1.02528c.36212-.45541.724-1.00086,1.0557-1.51705h-4.64478V25.11856a19.33223,19.33223,0,0,0-2.11139-1.72958h-4.04149v2.21535h4.73531v1.24381c-.18106,8.13276-.36185,11.13651-1.0557,12.108a2.26221,2.26221,0,0,1-1.7191,1.12237,16.32034,16.32034,0,0,1-2.62415.12144,7.3233,7.3233,0,0,0-.78411-2.88231,14.4988,14.4988,0,0,0,1.74928.09011.80247.80247,0,0,0,.75393-.39371c.36212-.5465.51276-2.64041.63346-8.46673Z" style="fill:#009d90"/><ellipse cx="63.72671" cy="117.49844" rx="14.30369" ry="14.3909" style="fill:#9fdfda"/><ellipse cx="65.35147" cy="117.89554" rx="9.77754" ry="9.83718" style="fill:#9fdfda"/><ellipse cx="65.35141" cy="117.89544" rx="8.28028" ry="8.33079" style="fill:#5fcac1"/><ellipse cx="65.34844" cy="117.89398" rx="7.48699" ry="7.53268" style="fill:#9fdfda"/><path d="M87.517,62.81237s11.50065,2.988,13.37224,3.51266a10.92866,10.92866,0,0,1,0,3.24358s-13.612.304-18.9014-1.6767c.12357-4.66306,5.52915-5.07954,5.52915-5.07954Z" style="fill:#edf6fa"/><path d="M99.08131,65.83816C95.27224,64.82726,87.517,62.81225,87.517,62.81225s-5.40558.41654-5.52918,5.0796a40.46076,40.46076,0,0,0,17.172,1.69322A6.881,6.881,0,0,1,99.08131,65.83816Z" style="fill:#9fdfda"/><path d="M100.11978,66.47677l.76943-.15174s3.43752-1.702,4.51262-1.0371,2.085,3.723,1.06563,4.29739c-1.01931.5744-5.57825-.01671-5.57825-.01671Z" style="fill:#edf6fa"/><path d="M112.58168,67.16228a25.18013,25.18013,0,0,1,8.5442-.96194,10.60563,10.60563,0,0,1,.70091,5.31184s-2.15224,1.03863-7.75255,1.23757c-1.49256-2.03307-1.49256-5.58741-1.49256-5.58741Z" style="fill:#47c2b8"/><path d="M61.79731,97.6112s21.16675-3.33821,26.83477,2.49564c5.66806,5.83391,10.324,18.297,10.324,18.297s-21.56586.78638-32.50389-1.44636A108.30015,108.30015,0,0,1,61.79731,97.6112Z" style="fill:#16b2a5"/><path d="M116.02987,71.53924l.928,3.76081,4.16764-.57165-.80043-3.70162Z" style="fill:#47c2b8"/><path d="M114.46778,67.22875a21.25155,21.25155,0,0,0-1.70069,1.6688,2.54,2.54,0,0,0-2.36842-1.41245s-2.761.74421-4.73582,1.15438c-.40059-.16263-.549-.25812-.76692-1.15621a1.423,1.423,0,0,1,.18492-1.142c1.4126-.396,3.05488-.89454,4.25662-1.12083a5.51775,5.51775,0,0,1,5.1303,2.00827Z" style="fill:#47c2b8"/><path d="M118.88387,66.65067a8.51348,8.51348,0,0,1,3.243-2.9022,8.96193,8.96193,0,0,1,4.6503-.6055l.25985,2.29266a33.96285,33.96285,0,0,0-4.26508.729,9.03169,9.03169,0,0,0-1.84567,1.97393Z" style="fill:#47c2b8"/><path d="M108.22014,77.812l1.80269,4.22945s-1.0548.88119-.25841,2.87967c.79622,1.99842,6.09985,16.1213,6.09985,16.1213l4.41556-2.15922-5.705-15.701s-.82676-2.82649-2.89018-1.949c-.92965-2.08173-1.824-4.5153-1.824-4.5153Z" style="fill:#9edfda"/><ellipse cx="122.26037" cy="104.42842" rx="14.97677" ry="14.19197" transform="translate(8.41918 217.97609) rotate(-85.42826)" style="fill:#9fdfda"/><ellipse cx="122.26203" cy="104.10882" rx="11.83721" ry="9.86076" transform="matrix(0.08692, -0.99622, 0.99622, 0.08692, 7.91997, 216.85874)" style="fill:#9fdfda"/><path d="M131.18535,87.75559,132.988,91.985s-1.05479.88125-.25851,2.87974,6.09992,16.12129,6.09992,16.12129l4.4155-2.15922-5.705-15.701s-.82675-2.82648-2.89018-1.949c-.92966-2.08173-1.82395-4.5153-1.82395-4.5153Z" style="fill:#47c2b8"/><path d="M75.129,95.95244l1.90747,6.50894s-1.50094.64578-.839,2.69341c.6618,2.04745,4.8006,17.87634,4.8006,17.87634l4.549-1.85763-4.04447-17.268s-.63728-2.8757-2.75432-2.1389c-.58029-1.791-1.90977-6.79566-1.90977-6.79566Z" style="fill:#47c2b8"/><path d="M59.86513,94.883l1.46716,6.62353s-1.16258.73123-.63932,2.819c.52318,2.08772,3.38762,13.94548,3.38762,13.94548l4.663-2.11276-3.05208-12.908s-.44325-2.91236-2.60489-2.32076c-.459-1.82629-1.45018-6.90969-1.45018-6.90969Z" style="fill:#47c2b8"/><path d="M130.87953,84.2302s6.325-4.6046,12.72565-.21534c-6.0785.41091-14.08837,4.0998-11.57677,17.043-9.16605,2.50048-3.53317-14.03956-1.14888-16.82761Z" style="fill:#e2f1f7"/><path d="M82.52145,88.77537l-1.7331-.06556s-20.69665-.34345-25.84193,1.46252c-5.42324,1.8992-9.03729,7.3072-3.94052,8.42608,5.09671,1.11894,27.337-.97283,32.98968,2.917,5.65277,3.88973,9.76007,21.71716,18.26067,19.99339,10.46633-15.63748-19.73481-32.73338-19.73481-32.73338Z" style="fill:#fff"/><path d="M104.367,78.1553a32.31886,32.31886,0,0,1,17.65665-4.51579c10.25183.40534,17.96094,6.54555,21.58153,10.37535-5.45331-1.13289-9.78524-2.38631-12.10225,4.26495-1.38971,7.05488.4337,12.32975,3.01049,23.17067-11.29839,3.86377-29.73836,9.95354-29.73836,9.95354s-4.31106,1.49949-7.2168-3.65993c-2.9059-5.15931-8.77968-19.57612-17.75058-23.60338l.98068-5.4309Z" style="fill:#fff"/><path d="M91.86255,100.60956s5.52553-1.71311,15.494-7.45655c9.96849-5.7435,14.09129-6.01271,17.8988.46233,3.80765,6.475,6.77306,15.79926,6.77306,15.79926s-21.54686,8.01872-26.9594,8.08085c-5.41264.06219-5.58916-.78987-8.18823-6.02049-2.59912-5.23055-5.01824-10.86534-5.01824-10.86534Z" style="fill:#e2f1f7"/><path d="M82.36978,85.17169s-16.26127.36629-25.34161,3.07359c-3.582,1.029-3.81957,3.61452,7.20312,3.34746,9.78709-.26713,16.6427-.21651,21.029.69144s11.31746-2.839,13.87618-6.84053a75.86017,75.86017,0,0,0-16.76665-.272Z" style="fill:#47c2b8"/><path d="M74.20673,73.782l-.28294.97289s-2.564,8.78472,1.86965,11.15475c3.29076,1.7485,22.66269,1.34175,29.05456.0688a18.2751,18.2751,0,0,0,8.28046-7.09559,7.75178,7.75178,0,0,0-3.53993-1.40253,132.51115,132.51115,0,0,0-20.94746-.845C85.63271,73.42326,74.20674,73.782,74.20674,73.782Z" style="fill:#ffbfa0"/><path d="M110.504,79.0073l2.07136-.48993s3.3565,1.38674,2.42334,4.80654c-1.02508,3.75665-11.45017,25.38921-11.45017,25.38921l-3.99783-.91076s2.86012-15.19768,3.69588-17.68138a35.31464,35.31464,0,0,1,3.52444-6.38677Z" style="fill:#ffbfa0"/><path d="M74.20673,73.782l-.28294.97289S70.26763,83.342,75.18707,86.05258c2.57685,2.23929,23.75284,1.20078,30.14466-.07223a15.55474,15.55474,0,0,0,7.79675-7.09749,7.75185,7.75185,0,0,0-3.53995-1.40253,132.51115,132.51115,0,0,0-20.94746-.845C85.63271,73.42326,74.20674,73.782,74.20674,73.782Z" style="fill:#9fdfda"/><path d="M110.504,79.0073l2.07136-.48993s3.3565,1.38674,2.42334,4.80654c-1.02508,3.75665-11.45017,25.38921-11.45017,25.38921l-3.99783-.91076s2.86012-15.19768,3.69588-17.68138a35.31464,35.31464,0,0,1,3.52444-6.38677Z" style="fill:#9fdfda"/><path d="M100.59613,100.60956l6.19571,1.85849-2.64143,6.5447,1.075,1.19263s7.24239.95741,6.33885,4.151c-.83405,2.33092-12.44887.90739-13.76692-1.5506.25376-2.23929,2.79881-12.1962,2.79881-12.1962Z" style="fill:#47c2b8"/><path d="M68.53514,115.80449l20.43748,8.345-2.94655,3.41883-21.94565-9.29773Z" style="fill:#47c2b8"/><ellipse cx="84.65962" cy="125.42894" rx="15.91594" ry="16.01301" style="fill:#9fdfda"/><ellipse cx="86.46763" cy="125.87078" rx="10.88119" ry="10.94755" style="fill:#9fdfda"/><ellipse cx="86.46763" cy="125.87078" rx="9.44146" ry="9.49905" style="fill:#5fcac1"/><ellipse cx="86.46752" cy="125.87081" rx="8.63427" ry="8.6869" style="fill:#9fdfda"/><ellipse cx="142.55112" cy="114.83826" rx="15.91592" ry="16.01295" style="fill:#9fdfda"/><ellipse cx="144.35705" cy="115.27663" rx="10.88069" ry="10.94707" style="fill:#9fdfda"/><ellipse cx="144.35911" cy="115.28009" rx="9.44147" ry="9.49905" style="fill:#5fcac1"/><ellipse cx="144.3591" cy="115.28004" rx="8.63503" ry="8.68769" style="fill:#9fdfda"/><path d="M93.50949,43.86569a8.44193,8.44193,0,0,1-2.54783,2.51168c-2.39051.95342-5.61514,2.25881-8.97381,9.15057-3.35873,6.89182-7.22533,18.81263-7.22533,18.81263a27.69085,27.69085,0,0,0,14.0117,1.37008c4.18846-8.67226,8.18252-15.76284,8.41362-19.47431.23109-3.71154-.35178-7.56349.22471-8.63414a7.85521,7.85521,0,0,0-3.90306-3.73657Z" style="fill:#edf6fa"/><path d="M97.18513,56.23983a17.35449,17.35449,0,0,1-1.09635,4.43376c-.07027.198-.14752.396-.21784.601-1.02608,2.73657-2.57218,6.10955-4.38535,9.9847-.71682,1.54166-2.29107,4.73076-1.17367,5.73493-7.74464,1.287-16.67694-1.47084-16.67694-1.47084a50.70377,50.70377,0,0,1,2.48783-6.62586c1.44069-4.05181,2.86733-9.7019,4.66643-13.393,3.26091-6.69662,7.52687-8.0967,9.9584-9.04425,2.45975.52329,3.33118,1.05362,6.42341,4.51854.007.25458.01407.51619.02111.792.04218,1.3718.08429,2.93465-.007,4.469Z" style="fill:#9fdfda"/><path d="M101.59216,63.96314,93.355,57.15254s-5.09673-4.42893-2.71048-7.50583c2.38609-3.077,5.775.71544,8.61031,3.9783,2.83528,3.26292,5.11213,6.154,5.11213,6.154Z" style="fill:#ffbfa0"/><path d="M103.93035,60.14889l.43661-.37s11.50039,1.50757,16.84482,2.83879c1.05094,2.20146-.14119,3.1315-.14119,3.1315s-16.2451.72247-19.47847-1.78608C101.17,60.15189,103.93035,60.14889,103.93035,60.14889Z" style="fill:#edf6fa"/><path d="M97.18513,56.23983a17.35449,17.35449,0,0,1-1.09635,4.43376c-.07027.198-.14752.396-.21784.601l-2.0873-2.00111s-5.01779-5.57223-2.45271-8.49978c1.70082-1.94461,3.84426-.91926,5.86126.997C97.23434,53.1426,97.27645,54.70545,97.18513,56.23983Z" style="fill:#9fdfda;opacity:0.46000000834465027;isolation:isolate"/><path d="M102.01719,64.77229l-9.35448-7.005s-4.88654-5.1803-2.50037-8.2572c2.38617-3.077,6.65051.49869,9.48589,3.76161,2.83528,3.26292,5.99179,7.29324,5.99179,7.29324Z" style="fill:#9fdfda"/><path d="M119.0047,62.13158c-5.7183-1.22594-14.6377-2.35265-14.6377-2.35265l-.43671.37s-2.72673.48014-2.30455,4.29145c1.59935,1.75853,13.2389,1.46962,17.59037,1.36709a9.94557,9.94557,0,0,1-.21141-3.67579Z" style="fill:#9fdfda"/><path d="M120.4751,63.10453l.43308-.351s2.45549-2.32743,3.6062-2.56561c1.15085-.238,3.40042,2.04905,2.90609,3.06533a1.4386,1.4386,0,0,1-.33526,1.95539c.58686,2.14906-5.03364.88542-6.01459.54056-.981-.34474-.59553-2.64463-.59553-2.64463Z" style="fill:#edf6fa"/><path d="M127.89168,63.85388a1.405,1.405,0,1,1-1.405-1.41367A1.40928,1.40928,0,0,1,127.89168,63.85388Z" style="fill:#47c2b8"/><path d="M100.85552,35.50964s4.378.52133,4.95233,4.19186c.57454,3.67052-3.17549,10.5307-6.032,10.28916-2.85655-.2416-3.46256-2.22276-3.46256-2.22276s-4.20364-1.57925-3.2142-4.24481c.98934-2.66556,2.287-8.96822,7.75649-8.01345Z" style="fill:#edf6fa"/><path d="M107.30518,44.42375a10.7242,10.7242,0,0,1-.33031,1.08889,15.52365,15.52365,0,0,1-4.3573,5.60755c-.007,0-.007.0071-.014.0071a12.97565,12.97565,0,0,1-1.0542.80615l-9.88808-8.96639s-.56219-8.75429,6.99258-10.69891C103.988,30.88918,109.0129,37.6352,107.30518,44.42375Z" style="fill:#fff"/><path d="M107.30518,44.42375a10.7242,10.7242,0,0,1-.33031,1.08889,15.52365,15.52365,0,0,1-4.3573,5.60755c-.007,0-.007.0071-.014.0071-3.20466-1.74654-3.1977-8.58455-.44981-10.86149Z" style="fill:#9fdfda"/><path d="M74.71488,72.30725s5.13963,2.622,15.36507,2.49711a7.28644,7.28644,0,0,1,0,1.77249s-10.65669-.131-15.964-2.58041c.27048-.91193.599-1.68925.599-1.68925Z" style="fill:#47c2b8"/><path d="M66.16292,238.86283l3.60175.74531c-.22195.71984-.49329,1.93623-.5921,2.48174a58.06018,58.06018,0,0,1-2.09679,7.47168,34.21937,34.21937,0,0,1-3.65138,7.09853l-3.45377-1.46423a29.98769,29.98769,0,0,0,3.8485-6.9007A35.94127,35.94127,0,0,0,66.16292,238.86283Zm6.26629.74531,3.28122-1.06752c1.01141,1.91076,2.71372,5.73328,3.65114,8.14157.86344,2.234,2.171,6.20533,2.86192,8.66259l-3.65138,1.19093a77.0051,77.0051,0,0,0-2.56578-8.76152A69.72547,69.72547,0,0,0,72.42921,239.60814Zm7.8452,0-1.97366.86871a31.46952,31.46952,0,0,0-1.92425-3.45035l1.94883-.81876C78.94228,237.12542,79.8057,238.68948,80.27441,239.60814Zm2.96051-1.14195-1.97366.84422a25.85113,25.85113,0,0,0-1.97367-3.4004l1.94907-.81974a38.9277,38.9277,0,0,1,1.99825,3.37592Z" style="fill:#009d90"/><path d="M106.13292,238.96273l-1.23335.54551.51788,2.90484c-.54269.049-1.52952.19783-2.26958.29773-1.0114.14886-2.8865.4466-4.93413.76881.24677,1.26634.51811,2.63159.76488,3.97144,2.22018-.37216,4.24323-.69438,5.35344-.91762.96225-.19881,1.87485-.42211,2.51635-.59644l.66608,3.277c-.66608.04995-1.6775.2233-2.61492.37216-1.18421.19882-3.18267.521-5.35369.86871.39473,2.01067.74007,3.69813.88827,4.46792.17254.74433.41931,1.6385.64125,2.43278L97.52279,258c-.12314-.94314-.19712-1.78639-.34532-2.53169-.12339-.69438-.41931-2.40731-.814-4.49241-2.54117.42211-4.86015.81974-5.921,1.01758-1.06081.19881-1.89969.34767-2.46719.49654l-.69066-3.30148c.66608-.02449,1.77631-.17335,2.56578-.27227,1.13479-.17433,3.42919-.54649,5.94554-.94314-.27135-1.34077-.51811-2.706-.76464-3.97144-2.171.3467-4.07069.67-4.83557.79428-.78948.14886-1.431.29773-2.26958.521l-.66632-3.42586c.78948-.049,1.52975-.09892,2.29439-.17335.86344-.09892,2.76314-.37216,4.885-.71984-.19736-1.04206-.37015-1.8618-.44413-2.25845-.148-.71984-.32075-1.3153-.49354-1.88628l3.4786-.571c.074.49655.148,1.33979.27134,1.91077.04941.34768.19737,1.1919.41956,2.30839,2.07221-.34768,3.94735-.64541,4.83532-.81876.44414-.07443.96225-.19881,1.40637-.29773a28.7962,28.7962,0,0,0-1.70231-3.00375l1.94883-.81876c.61692.91762,1.50494,2.48168,1.97366,3.40034Zm2.9359-1.14195-1.94908.8687a26.39251,26.39251,0,0,0-1.99823-3.42482l1.94907-.81974A29.40228,29.40228,0,0,1,109.06882,237.82078Z" style="fill:#009d90"/><path d="M116.07905,244.67152h13.24806c1.15937,0,2.24481-.09891,2.88625-.14886v3.89694c-.59209-.02546-1.85027-.12438-2.88625-.12438H116.07905c-1.40613,0-3.05929.04995-3.97212.12438v-3.89694C112.99519,244.59709,114.79606,244.67152,116.07905,244.67152Z" style="fill:#009d90"/><path d="M19.99391,185.75319H178.00609A20.05512,20.05512,0,0,1,198,205.869v.002a20.05512,20.05512,0,0,1-19.99391,20.11581H19.99391A20.05512,20.05512,0,0,1,0,205.871v-.002A20.05512,20.05512,0,0,1,19.99391,185.75319Z" style="fill:#009d90"/><path d="M23.15554,197.18051h6.04434c3.75,0,6.61162,1.11747,6.61162,4.54235A4.16756,4.16756,0,0,1,33.32,205.6943v.12438a4.17077,4.17077,0,0,1,3.42919,4.34354c0,3.69814-3.05929,5.41107-7.08057,5.41107H23.15554Zm5.773,7.49616c2.319,0,3.33038-.94314,3.33038-2.40731,0-1.614-1.08538-2.25943-3.281-2.25943h-2.171v4.66674Zm.41931,8.06713c2.49176,0,3.84874-.89417,3.84874-2.80493,0-1.78737-1.3324-2.55618-3.84874-2.55618H26.80692v5.36111Z" style="fill:#fff"/><path d="M39.613,207.30826V197.18051h3.65114v10.45c0,3.82251,1.33215,5.11333,3.454,5.11333,2.171,0,3.5526-1.29082,3.5526-5.11333v-10.45h3.50317v10.12775c0,6.10544-2.59057,8.61265-7.05574,8.61265C42.27733,215.92091,39.613,213.4137,39.613,207.30826Z" style="fill:#fff"/><path d="M57.008,206.464c0-6.05647,3.89814-9.60574,8.75805-9.60574a7.66136,7.66136,0,0,1,5.64961,2.35737l-1.92425,2.33385a4.87969,4.87969,0,0,0-3.602-1.53958c-3.03446,0-5.15607,2.38283-5.15607,6.32972,0,3.99586,1.82569,6.40415,5.42742,6.40415a3.64228,3.64228,0,0,0,2.26982-.69535v-3.6237H65.19873V205.421h6.4882v8.29043a8.56546,8.56546,0,0,1-5.921,2.20948C60.80729,215.92091,57.008,212.59494,57.008,206.464Z" style="fill:#fff"/><path d="M74.4525,206.464c0-6.05647,3.89815-9.60574,8.75806-9.60574a7.66106,7.66106,0,0,1,5.64937,2.35737l-1.92425,2.33385a4.87964,4.87964,0,0,0-3.60174-1.53958c-3.03446,0-5.15607,2.38283-5.15607,6.32972,0,3.99586,1.82568,6.40415,5.42717,6.40415a3.64229,3.64229,0,0,0,2.26983-.69535v-3.6237H82.64328V205.421h6.488v8.29043a8.56542,8.56542,0,0,1-5.92071,2.20948C78.25185,215.92091,74.4525,212.59494,74.4525,206.464Z" style="fill:#fff"/><path d="M95.89353,208.84686,90.4167,197.18051H94.29l1.82544,4.49339c.51812,1.36427,1.01165,2.65509,1.57894,4.07029h.0988c.56729-1.4152,1.11021-2.706,1.62833-4.07029l1.82544-4.49339h3.79935l-5.50165,11.66635v6.72631H95.89353Z" style="fill:#fff"/><path d="M115.879,200.25869h-5.13154v-3.07818h13.96358v3.07818h-5.18066v15.31454H115.879Z" style="fill:#fff"/><path d="M125.74947,206.31517c0-5.982,3.33063-9.45688,8.16571-9.45688,4.83557,0,8.1662,3.49932,8.1662,9.45688,0,5.95657-3.33063,9.60574-8.1662,9.60574C129.0801,215.92091,125.74947,212.27174,125.74947,206.31517Zm12.60658,0c0-3.9469-1.72688-6.30524-4.44084-6.30524-2.71371,0-4.4406,2.35834-4.4406,6.30524,0,3.92143,1.72689,6.42863,4.4406,6.42863,2.71393,0,4.44081-2.5072,4.44081-6.42863Z" style="fill:#fff"/><path d="M145.31564,207.30826V197.18051h3.65114v10.45c0,3.82251,1.33215,5.11333,3.454,5.11333,2.171,0,3.55261-1.29082,3.55261-5.11333v-10.45h3.50317v10.12775c0,6.10544-2.59057,8.61265-7.05575,8.61265C147.98,215.92091,145.31564,213.4137,145.31564,207.30826Z" style="fill:#fff"/><path d="M163.6234,197.18051h6.36509c3.82392,0,6.85814,1.36525,6.85814,5.58539a5.25873,5.25873,0,0,1-3.47835,5.28668l4.26781,7.52065h-4.07045l-3.75-6.94967h-2.54092v6.94967h-3.65138Zm6.01976,8.5392c2.34356,0,3.65114-.99309,3.65114-2.95381,0-1.98618-1.30758-2.65607-3.65114-2.65607h-2.36841v5.60988Z" style="fill:#fff"/></svg>