<?xml version="1.0" encoding="UTF-8"?>
<svg id="f7bd5c07-a742-4849-9c4f-e422ed53bbe5" xmlns="http://www.w3.org/2000/svg" viewBox="0 0 278.00007 274">
  <defs>
    <style>
      .cls-1 {
        fill: #fff;
      }

      .cls-2 {
        fill: #c56c94;
      }

      .cls-3 {
        stroke: #fff;
        stroke-linecap: round;
        stroke-linejoin: round;
        stroke-width: 4.13228px;
      }

      .cls-3, .cls-4 {
        fill: none;
      }

      .cls-4 {
        stroke: #cb6f98;
        stroke-miterlimit: 10;
        stroke-width: 2.75485px;
      }
    </style>
  </defs>
  <path class="cls-2" d="m20.05385,200.09855h237.89235c11.09537.01996,20.07379,9.03072,20.05383,20.1261v.002c.01996,11.09538-8.95847,20.10614-20.05383,20.1261H20.05385C8.95847,240.33279-.01993,231.32202.00003,220.22663v-.00003s0-.002,0-.002c-.01993-11.09535,8.95846-20.10609,20.05382-20.12605Z"/>
  <path class="cls-1" d="m17.95144,209.86636h3.71159l1.46014,8.99039c.27192,1.93723.56922,3.87346.84114,5.86066h.0991c.371-1.9872.76693-3.94891,1.16284-5.86066l2.128-8.99039h3.1429l2.10308,8.99039c.39591,1.88725.76693,3.87346,1.16285,5.86066h.124c.27192-1.9872.54432-3.94891.81673-5.86066l1.45972-8.99039h3.46412l-3.38992,18.40211h-4.5527l-2.05377-9.08936c-.2973-1.44041-.56922-2.85536-.79183-4.27129h-.0991c-.2475,1.41592-.495,2.83087-.79182,4.27129l-2.00448,9.08936h-4.4786l-3.51399-18.40211Z"/>
  <path class="cls-1" d="m40.96669,221.31526c0-4.61916,3.19221-7.30107,6.65633-7.30107s6.65634,2.68192,6.65634,7.30107-3.19221,7.30107-6.65634,7.30107-6.65633-2.68193-6.65633-7.30107Zm9.601,0c0-2.60747-1.06423-4.32126-2.9447-4.32126s-2.9447,1.71381-2.9447,4.32126c0,2.632,1.06423,4.32126,2.9447,4.32126s2.94473-1.68932,2.94473-4.32126h-.00003Z"/>
  <path class="cls-1" d="m56.21108,221.31526c0-4.61916,3.19221-7.30107,6.65634-7.30107s6.65584,2.68192,6.65584,7.30107-3.19172,7.30107-6.65584,7.30107-6.65635-2.68193-6.65635-7.30107Zm9.601,0c0-2.60747-1.06423-4.32126-2.9447-4.32126s-2.9447,1.71381-2.9447,4.32126c0,2.632,1.06423,4.32126,2.9447,4.32126s2.94476-1.68932,2.94476-4.32126h-.00006Z"/>
  <path class="cls-1" d="m71.5292,221.31526c0-4.52019,2.82119-7.30107,5.8152-7.30107,1.33149-.00873,2.60575.5407,3.51343,1.51489l-.12351-2.18611v-4.89156h3.61253v19.81708h-2.94421l-.27241-1.44041h-.0991c-1.0038,1.063-2.37559,1.70265-3.83514,1.78827-3.43973-.00002-5.6668-2.73192-5.6668-7.30109Zm9.20506,2.85538v-6.10857c-.69757-.67218-1.62938-1.04645-2.5981-1.04356-1.55876,0-2.8705,1.4904-2.8705,4.27129,0,2.88084,1.03934,4.32127,2.8705,4.32127,1.05235-.01576,2.02723-.55626,2.5981-1.44044v.00002Z"/>
  <path class="cls-1" d="m93.99964,217.24189h-1.85561v-2.70642l1.85563-.14894v-1.14253c0-2.90533,1.33664-5.14044,4.82566-5.14044.89456.00713,1.78138.1665,2.62244.47131l-.66789,2.7074c-.46325-.19156-.95889-.29268-1.46015-.29788-1.08864,0-1.68226.64574-1.68226,2.18513v1.19153h2.59809v2.88084h-2.59811v11.02658h-3.63792l.00012-11.02658Zm8.28979-7.12665c-.03547-1.06575.79974-1.95847,1.86549-1.99393.07925-.00264.1586-.0004.23758.00673,1.10448.05563,1.95473.99609,1.89909,2.10057-.05564,1.10448-.9961,1.95474-2.10058,1.89909-1.07025-.05391-1.90835-.94087-1.90159-2.01247Zm.29681,4.2458h3.61253v13.90742h-3.61253v-13.90742Z"/>
  <path class="cls-1" d="m109.86303,214.36105h2.9696l.27191,2.4595h.07421c.71069-1.57562,2.21356-2.64752,3.93473-2.80637.55941-.01912,1.11637.08249,1.633.29788l-.61852,3.15324c-.47157-.15236-.9646-.2278-1.46015-.22342-1.08864,0-2.39989.72021-3.16737,2.7319v8.29466h-3.63741v-13.90741Z"/>
  <path class="cls-1" d="m119.24244,221.31526c0-4.49471,3.16731-7.30107,6.45862-7.30107,3.81072,0,5.79031,2.80637,5.79031,6.62985.01184.56808-.04636,1.13547-.17329,1.68932h-8.5368c.0907,2.01158,1.79494,3.56877,3.80652,3.47807.0006-.00002.00118-.00005.00177-.00008l.02685-.00134c1.11147-.01193,2.19523-.34843,3.118-.96812l1.237,2.23413c-1.41989.98093-3.09956,1.51714-4.82517,1.54036-3.88488-.00005-6.90379-2.70744-6.90379-7.30112Zm9.13091-1.41592c0-1.86275-.84114-3.05429-2.623-3.05429-1.46015,0-2.7465,1.04259-3.01891,3.05429h5.64191Z"/>
  <path class="cls-1" d="m139.60932,214.36105h2.9696l.27191,1.86275h.0742c1.03592-1.31329,2.58626-2.11812,4.25644-2.20963,1.66948-.1248,3.22137.86601,3.81073,2.433,1.26199-1.34047,2.5981-2.433,4.40436-2.433,2.9447,0,4.30576,2.08617,4.30576,5.58727v8.66699h-3.63744v-8.2202c0-2.16064-.619-2.90533-1.93027-2.90533-1.06334.14572-2.02492.7088-2.6723,1.56487v9.56068h-3.61301v-8.2202c0-2.16064-.64342-2.90533-1.95467-2.90533-1.05798.14194-2.01329.70653-2.64789,1.56487v9.56068h-3.63744v-13.90741Z"/>
  <path class="cls-1" d="m162.35265,221.31526c0-4.49471,3.16731-7.30107,6.45862-7.30107,3.81073,0,5.7903,2.80637,5.7903,6.62985.01215.5681-.04607,1.13551-.17329,1.68932h-8.5368c.0907,2.01158,1.79494,3.56877,3.80652,3.47807.0006-.00002.00119-.00005.00179-.00008l.02686-.00134c1.11147-.01193,2.19522-.34843,3.118-.96812l1.237,2.23413c-1.41991.98087-3.09956,1.51707-4.82516,1.54036-3.88492-.00005-6.90381-2.70744-6.90381-7.30112Zm9.13092-1.41592c0-1.86275-.84114-3.05429-2.623-3.05429-1.45966,0-2.74651,1.04259-3.01891,3.05429h5.64191Z"/>
  <path class="cls-1" d="m176.31069,224.494c0-2.97981,2.40038-4.54468,7.99248-5.14046-.0742-1.36595-.66783-2.40952-2.37547-2.40952-1.36351.09773-2.67751.5515-3.81075,1.31599l-1.31125-2.40854c1.72035-1.14177,3.72639-1.77829,5.79031-1.83727,3.51343,0,5.32018,2.11066,5.32018,6.134v8.12025h-2.9696l-.2475-1.4904h-.09911c-1.1257,1.09836-2.61136,1.75145-4.18173,1.83826-2.17511.0934-4.01408-1.59416-4.10747-3.76927-.00003-.00055-.00005-.00111-.00008-.00166-.00525-.11708-.00526-.23424-.00002-.35139Zm7.99248-.10001v-2.80539c-3.38992.42134-4.52837,1.36501-4.52837,2.60745,0,1.09258.76743,1.56389,1.83118,1.56389,1.05054-.05803,2.02875-.55342,2.69719-1.36595Z"/>
  <path class="cls-1" d="m191.43157,223.40141v-6.15952h-1.95517v-2.70642l2.15288-.17442.42081-3.74899h3.01891v3.74899h3.41483v2.88084h-3.41478v6.15952c0,1.58936.64343,2.33408,1.88046,2.33408.46751-.01968.92805-.12048,1.36105-.29788l.59363,2.65742c-.93744.33517-1.9243.51137-2.91982.52129-3.29085.00002-4.5528-2.11064-4.5528-5.2149Z"/>
  <path class="cls-1" d="m209.69487,226.80355h-.09911l-.32172,1.46492h-2.8456v-19.81706h3.63744v4.99152l-.09862,2.23511c1.03246-1.00412,2.39653-1.59592,3.83514-1.66383,3.41483,0,5.46858,2.80637,5.46858,7.05219,0,4.79356-2.8456,7.55-5.8894,7.55-1.42302-.08267-2.75238-.73634-3.68672-1.81284Zm5.8396-5.66272c0-2.65645-.84113-4.12234-2.74651-4.12234-1.06949.07622-2.05751.59903-2.72209,1.44041v6.10954c.67532.64505,1.56596,1.01656,2.49948,1.04259,1.68277.00002,2.96912-1.44041,2.96912-4.4702Z"/>
  <path class="cls-1" d="m221.25254,221.31526c0-4.49471,3.16731-7.30107,6.45862-7.30107,3.81073,0,5.7903,2.80637,5.7903,6.62985.01215.5681-.04607,1.13551-.17329,1.68932h-8.5368c.0907,2.01158,1.79494,3.56877,3.80652,3.47807.0006-.00002.00117-.00005.00177-.00008l.02686-.00134c1.11147-.01193,2.19522-.34843,3.118-.96812l1.237,2.23413c-1.41991.98087-3.09956,1.51707-4.82516,1.54036-3.8849-.00005-6.90379-2.70744-6.90379-7.30112Zm9.13091-1.41592c0-1.86275-.84113-3.05429-2.623-3.05429-1.45966,0-2.74651,1.04259-3.01891,3.05429h5.64191Z"/>
  <path class="cls-1" d="m235.38338,221.31526c0-4.49471,3.16731-7.30107,6.45862-7.30107,3.81075,0,5.79031,2.80637,5.79031,6.62985.01215.5681-.04607,1.13551-.17331,1.68932h-8.5368c.0907,2.01158,1.79494,3.56877,3.80652,3.47807.0006-.00002.00117-.00005.00177-.00008l.02686-.00134c1.11147-.01193,2.19522-.34843,3.118-.96812l1.23705,2.23413c-1.41992.98087-3.09958,1.51707-4.82518,1.54036-3.8849-.00005-6.90382-2.70744-6.90382-7.30112Zm9.13092-1.41592c0-1.86275-.84113-3.05429-2.623-3.05429-1.45966,0-2.74651,1.04259-3.01891,3.05429h5.64191Z"/>
  <path class="cls-1" d="m250.38027,214.36105h2.96912l.27193,2.4595h.0742c.71069-1.57562,2.21356-2.64751,3.93474-2.80637.55942-.01912,1.11636.08249,1.633.29788l-.61853,3.15324c-.47156-.15236-.9646-.2278-1.46014-.22342-1.08865,0-2.39989.72021-3.16731,2.7319v8.29466h-3.63695l-.00005-13.90741Z"/>
  <path class="cls-3" d="m48.76054,252.06678c-.02489.77019-.04979,1.51489-.0991,2.23511h4.65187c.62241-.00734,1.24318-.06567,1.85606-.17442l2.15287,1.04356c-.08661.43439-.1445.87401-.1733,1.31599-.0991,2.68192-.39591,9.61066-1.46015,12.14362-.50536,1.28925-1.81701,2.07516-3.19221,1.91272-1.41035,0-2.8949-.10001-4.08264-.19891l-.39592-3.32767c1.1427.21436,2.30162.33072,3.46413.34787.61638.07971,1.20448-.28271,1.41035-.86914.71762-1.56488,1.03933-6.53186,1.03933-9.21381h-5.5672c-.91583,6.55637-3.26641,10.45529-7.69567,13.60855l-2.8705-2.33408c4.18171-2.28778,6.93378-6.52393,7.32465-11.27448h-3.26641c-.84162,0-2.20218,0-3.26641.099v-3.2532c1.03934.10001,2.32618.17442,3.26641.17442h3.53833c.0249-.69571.04979-1.41592.04979-2.16063-.01056-.76454-.06844-1.52769-.1733-2.28508h3.63743c-.07426.57135-.12406,1.61478-.14841,2.21057Z"/>
  <path class="cls-3" d="m80.93886,254.97213c-.56921,2.43399-1.65785,6.28299-3.71163,9.03937-2.52013,3.26559-5.99776,5.66202-9.94666,6.85425l-2.6972-2.95532c3.82173-.73654,7.25845-2.80447,9.69916-5.83615,1.52081-2.0639,2.51472-4.46793,2.8954-7.0032h-11.53081c-1.11354,0-2.30128.05-2.94471.10001v-3.50208c.74253.07446,2.15288.19891,2.9696.19891h11.43172c.65716.01189,1.31339-.05489,1.95468-.19891l2.42479,1.56487c-.22952.56326-.41159,1.1447-.54433,1.73827Z"/>
  <path class="cls-3" d="m88.96943,256.43704h11.33309c.6451-.00409,1.28942-.04529,1.92978-.12347v3.12875c-.61853-.04999-1.36105-.099-1.92978-.099h-4.23149v7.99582h5.39439c.66832,0,1.361-.099,1.88047-.14893v3.2532c-.62302-.08649-1.25149-.12775-1.88047-.12347h-13.68375c-.6785-.00598-1.35659.03528-2.02936.12347v-3.25333c.67332.08575,1.35074.13547,2.02936.14893h5.04778v-7.99582h-3.86c-.51992,0-1.41036.04901-1.95517.099v-3.12875c.64767.09039,1.30126.13168,1.95517.12347l-.00003.00012Z"/>
  <path class="cls-3" d="m107.52173,264.90612c0-2.55847,1.60806-4.04788,3.43923-5.21588-.70179-1.21155-1.10071-2.57465-1.16285-3.9734-.04857-2.53192,1.96436-4.62392,4.49626-4.67291.10133-.00183.20267-.00024.304.00478,2.623,0,4.25645,1.58937,4.25645,3.99791,0,2.43401-1.98006,3.9489-3.93473,5.31487,1.16354,1.42715,2.49258,2.711,3.95914,3.82446,1.03712-1.40121,1.80109-2.98517,2.252-4.66913h3.2908c-.63938,2.27292-1.68753,4.41031-3.09311,6.30746,1.0106.6124,2.11367,1.05713,3.26641,1.31699l-.89092,2.9798c-1.62505-.38043-3.17319-1.03558-4.57767-1.93723-1.59284,1.27429-3.57727,1.95868-5.617,1.93723-3.83569,0-5.98807-2.35956-5.98807-5.21494h.00005Zm6.43323,2.40854c.96204-.03629,1.89191-.35605,2.67279-.91913-1.5378-1.26855-2.92442-2.70996-4.13244-4.29578-.86079.59503-1.41359,1.54099-1.50946,2.58301.01851,1.48083,1.23396,2.66629,2.71479,2.64777h.00041c.08488-.00122.16955-.00653.254-.01581l-.00009-.00006Zm-.47011-9.13934c1.43525-.86914,2.54878-1.76279,2.54878-3.10426,0-.91814-.42081-1.58936-1.361-1.58936-1.08864,0-1.85563.87013-1.85563,2.23511.03592.85915.26414,1.6993.66785,2.45854v-.00003Z"/>
  <path class="cls-3" d="m148.14466,265.2785c-1.47939.98486-3.01631,1.88043-4.60255,2.68192,1.84018.72668,3.77225,1.19461,5.741,1.39044-.69962.77771-1.29066,1.64661-1.757,2.58301-5.39439-.89365-8.95761-3.12875-11.13489-7.02768h-2.8456v3.64999l5.24548-.44681.04979,2.60745c-3.66232.37234-7.54726.72021-10.39285.96811l-.3959-2.70642c.76694-.04999,1.633-.12445,2.57368-.19891v-11.94473c-.866.47131-1.78186.91913-2.67278,1.31601-.46936-.87689-1.04254-1.69409-1.70717-2.43401,3.86414-1.50098,7.30396-3.92163,10.02135-7.05219h2.9447c2.88867,3.12112,6.52519,5.4545,10.56616,6.77979-.71788.80299-1.3407,1.68614-1.85606,2.63194-.866-.37234-1.757-.81918-2.6474-1.29147v7.27658c.27191-.17343.51942-.37234.742-.54678l2.12804,1.76376Zm-4.94868-9.73509c-1.95772-1.1873-3.7471-2.63214-5.32019-4.29579-1.50793,1.65413-3.23058,3.09889-5.12199,4.29579h3.66183v-1.91174h3.01891v1.91174h3.76144Zm-9.65034,3.57658h8.7594v-1.29147h-8.7594v1.29147Zm0,3.47662h8.7594v-1.36594h-8.7594v1.36594Zm5.81471,2.30957c.51241.65012,1.112,1.2265,1.78185,1.71283.91534-.4968,1.95468-1.09256,2.89491-1.71283h-4.67676Z"/>
  <path class="cls-3" d="m161.77756,263.66363c-.495-.79468-1.28683-1.91174-2.10307-2.9798v11.22549h-2.96912v-9.61066c-.73373,1.98972-1.75049,3.86325-3.01891,5.56277-.38805-1.03979-.89453-2.03143-1.50946-2.95532,1.93651-2.43442,3.35161-5.24112,4.15733-8.24567h-3.43971v-2.80539h3.81073v-5.11595h2.96912v5.11595h3.11757v2.80539h-3.11752v.6712c.98953.81918,3.26593,3.20322,3.81026,3.82446l-1.70721,2.50751Zm13.78279-7.0032h-2.35107v11.62238c0,1.71381-.371,2.48401-1.38545,2.95532-.99001.4968-2.57368.57126-4.70166.57126-.19055-1.03421-.52357-2.03705-.98955-2.9798,1.36105.04999,2.89491.04999,3.31572.04999.44522-.02548.61853-.14893.61853-.59674v-7.54901c-1.73946,2.87207-3.96693,5.41846-6.58212,7.52448-.59186-.90698-1.30818-1.72632-2.12801-2.43399,3.3474-2.33542,6.03963-5.4906,7.81918-9.16382h-5.69119v-2.80539h6.58212v-5.06599h3.14241v5.06599h2.35107l.00002,2.80533Z"/>
  <path class="cls-3" d="m184.03417,262.69552v5.78619c0,1.36594-.22261,2.08615-.96513,2.53299-1.05884.51688-2.24492.7153-3.41434.57126-.12337-.93454-.38188-1.84622-.76743-2.70642.91583.02451,1.757.02451,2.05379,0,.2973,0,.42081-.10001.42081-.42233v-4.96701c-.81673.22342-1.55876.44684-2.27638.64575l-.6683-2.85635c.84161-.17343,1.83116-.44681,2.9447-.72021v-4.39474h-2.6723v-2.7319h2.6723v-4.69362h2.67229v4.69362h2.47459v2.7319h-2.47459v3.67453l2.22708-.59576.39592,2.65744-2.623.79468Zm11.25887,6.25848c.56921.04901,1.11354.07446,1.73206.07446.84161,0,3.90984,0,4.97359-.02548-.39601.81485-.66313,1.68622-.79182,2.58301h-4.30527c-3.24152,0-5.741-.59576-7.42326-3.60107-.56679,1.46997-1.44475,2.80002-2.57368,3.89893-.67589-.64667-1.40413-1.23627-2.17728-1.76279,2.05377-1.63934,3.06821-4.39575,3.43922-7.77338l2.67229.32336c-.10921.84406-.26616,1.68121-.47011,2.50751.37466,1.18112,1.13217,2.20374,2.15286,2.90631v-6.48187h-5.8152v-2.384h14.6244v2.384h-6.03769v2.18512h4.72607v2.30957h-4.72607l-.00011,2.85632Zm4.80026-10.87762h-12.19859v-8.56709h12.19864l-.00005,8.56709Zm-2.82069-6.48189h-6.68123v1.24251h6.68123v-1.24251Zm0,3.12973h-6.68123v1.26601h6.68123v-1.26601Z"/>
  <path class="cls-3" d="m212.51166,249.65824c-.67578,1.76875-1.46098,3.49373-2.35107,5.16493v17.08615h-2.89491v-12.59143c-.51942.6712-1.03934,1.267-1.55876,1.83826-.42369-1.0769-.95422-2.10864-1.58365-3.07977,2.51414-2.66347,4.43666-5.82846,5.6414-9.28729l2.74699.86916Zm5.76541,16.43941c-1.30991,2.18082-2.97412,4.12805-4.92427,5.76169-.70947-.6889-1.47969-1.31238-2.30128-1.86276,1.81441-1.24347,3.34163-2.8609,4.47905-4.74359l2.74651.84467Zm9.32863-4.74359v2.88083h-16.05917v-2.88083h3.31572v-4.94153h-2.69722v-2.83087h2.69719v-4.64366h2.8705v4.64365h3.58763v-4.66911h2.8705v4.66911h3.21719v2.83086h-3.21712v4.94153l3.41478.00003Zm-9.873,0h3.58763v-4.94153h-3.58763v4.94153Zm5.54279,3.87442c1.58238,1.54883,2.99278,3.2641,4.20665,5.11594l-2.47458,1.56488c-1.14127-1.95273-2.51187-3.76199-4.08266-5.38934l2.35059-1.29147Z"/>
  <path class="cls-2" d="m48.76054,252.06678c-.02489.77019-.04979,1.51489-.0991,2.23511h4.65187c.62241-.00734,1.24318-.06567,1.85606-.17442l2.15287,1.04356c-.08661.43439-.1445.87401-.1733,1.31599-.0991,2.68192-.39591,9.61066-1.46015,12.14362-.50536,1.28925-1.81701,2.07516-3.19221,1.91272-1.41035,0-2.8949-.10001-4.08264-.19891l-.39592-3.32767c1.1427.21436,2.30162.33072,3.46413.34787.61638.07971,1.20448-.28271,1.41035-.86914.71762-1.56488,1.03933-6.53186,1.03933-9.21381h-5.5672c-.91583,6.55637-3.26641,10.45529-7.69567,13.60855l-2.8705-2.33408c4.18171-2.28778,6.93378-6.52393,7.32465-11.27448h-3.26641c-.84162,0-2.20218,0-3.26641.099v-3.2532c1.03934.10001,2.32618.17442,3.26641.17442h3.53833c.0249-.69571.04979-1.41592.04979-2.16063-.01056-.76454-.06844-1.52769-.1733-2.28508h3.63743c-.07426.57135-.12406,1.61478-.14841,2.21057Z"/>
  <path class="cls-2" d="m80.93886,254.97213c-.56921,2.43399-1.65785,6.28299-3.71163,9.03937-2.52013,3.26559-5.99776,5.66202-9.94666,6.85425l-2.6972-2.95532c3.82173-.73654,7.25845-2.80447,9.69916-5.83615,1.52081-2.0639,2.51472-4.46793,2.8954-7.0032h-11.53081c-1.11354,0-2.30128.05-2.94471.10001v-3.50208c.74253.07446,2.15288.19891,2.9696.19891h11.43172c.65716.01189,1.31339-.05489,1.95468-.19891l2.42479,1.56487c-.22952.56326-.41159,1.1447-.54433,1.73827Z"/>
  <path class="cls-2" d="m88.96943,256.43704h11.33309c.6451-.00409,1.28942-.04529,1.92978-.12347v3.12875c-.61853-.04999-1.36105-.099-1.92978-.099h-4.23149v7.99582h5.39439c.66832,0,1.361-.099,1.88047-.14893v3.2532c-.62302-.08649-1.25149-.12775-1.88047-.12347h-13.68375c-.6785-.00598-1.35659.03528-2.02936.12347v-3.25333c.67332.08575,1.35074.13547,2.02936.14893h5.04778v-7.99582h-3.86c-.51992,0-1.41036.04901-1.95517.099v-3.12875c.64767.09039,1.30126.13168,1.95517.12347l-.00003.00012Z"/>
  <path class="cls-2" d="m107.52173,264.90612c0-2.55847,1.60806-4.04788,3.43923-5.21588-.70179-1.21155-1.10071-2.57465-1.16285-3.9734-.04857-2.53192,1.96436-4.62392,4.49626-4.67291.10133-.00183.20267-.00024.304.00478,2.623,0,4.25645,1.58937,4.25645,3.99791,0,2.43401-1.98006,3.9489-3.93473,5.31487,1.16354,1.42715,2.49258,2.711,3.95914,3.82446,1.03712-1.40121,1.80109-2.98517,2.252-4.66913h3.2908c-.63938,2.27292-1.68753,4.41031-3.09311,6.30746,1.0106.6124,2.11367,1.05713,3.26641,1.31699l-.89092,2.9798c-1.62505-.38043-3.17319-1.03558-4.57767-1.93723-1.59284,1.27429-3.57727,1.95868-5.617,1.93723-3.83569,0-5.98807-2.35956-5.98807-5.21494h.00005Zm6.43323,2.40854c.96204-.03629,1.89191-.35605,2.67279-.91913-1.5378-1.26855-2.92442-2.70996-4.13244-4.29578-.86079.59503-1.41359,1.54099-1.50946,2.58301.01851,1.48083,1.23396,2.66629,2.71479,2.64777h.00041c.08488-.00122.16955-.00653.254-.01581l-.00009-.00006Zm-.47011-9.13934c1.43525-.86914,2.54878-1.76279,2.54878-3.10426,0-.91814-.42081-1.58936-1.361-1.58936-1.08864,0-1.85563.87013-1.85563,2.23511.03592.85915.26414,1.6993.66785,2.45854v-.00003Z"/>
  <path class="cls-2" d="m148.14466,265.2785c-1.47939.98486-3.01631,1.88043-4.60255,2.68192,1.84018.72668,3.77225,1.19461,5.741,1.39044-.69962.77771-1.29066,1.64661-1.757,2.58301-5.39439-.89365-8.95761-3.12875-11.13489-7.02768h-2.8456v3.64999l5.24548-.44681.04979,2.60745c-3.66232.37234-7.54726.72021-10.39285.96811l-.3959-2.70642c.76694-.04999,1.633-.12445,2.57368-.19891v-11.94473c-.866.47131-1.78186.91913-2.67278,1.31601-.46936-.87689-1.04254-1.69409-1.70717-2.43401,3.86414-1.50098,7.30396-3.92163,10.02135-7.05219h2.9447c2.88867,3.12112,6.52519,5.4545,10.56616,6.77979-.71788.80299-1.3407,1.68614-1.85606,2.63194-.866-.37234-1.757-.81918-2.6474-1.29147v7.27658c.27191-.17343.51942-.37234.742-.54678l2.12804,1.76376Zm-4.94868-9.73509c-1.95772-1.1873-3.7471-2.63214-5.32019-4.29579-1.50793,1.65413-3.23058,3.09889-5.12199,4.29579h3.66183v-1.91174h3.01891v1.91174h3.76144Zm-9.65034,3.57658h8.7594v-1.29147h-8.7594v1.29147Zm0,3.47662h8.7594v-1.36594h-8.7594v1.36594Zm5.81471,2.30957c.51241.65012,1.112,1.2265,1.78185,1.71283.91534-.4968,1.95468-1.09256,2.89491-1.71283h-4.67676Z"/>
  <path class="cls-2" d="m161.77756,263.66363c-.495-.79468-1.28683-1.91174-2.10307-2.9798v11.22549h-2.96912v-9.61066c-.73373,1.98972-1.75049,3.86325-3.01891,5.56277-.38805-1.03979-.89453-2.03143-1.50946-2.95532,1.93651-2.43442,3.35161-5.24112,4.15733-8.24567h-3.43971v-2.80539h3.81073v-5.11595h2.96912v5.11595h3.11757v2.80539h-3.11752v.6712c.98953.81918,3.26593,3.20322,3.81026,3.82446l-1.70721,2.50751Zm13.78279-7.0032h-2.35107v11.62238c0,1.71381-.371,2.48401-1.38545,2.95532-.99001.4968-2.57368.57126-4.70166.57126-.19055-1.03421-.52357-2.03705-.98955-2.9798,1.36105.04999,2.89491.04999,3.31572.04999.44522-.02548.61853-.14893.61853-.59674v-7.54901c-1.73946,2.87207-3.96693,5.41846-6.58212,7.52448-.59186-.90698-1.30818-1.72632-2.12801-2.43399,3.3474-2.33542,6.03963-5.4906,7.81918-9.16382h-5.69119v-2.80539h6.58212v-5.06599h3.14241v5.06599h2.35107l.00002,2.80533Z"/>
  <path class="cls-2" d="m184.03417,262.69552v5.78619c0,1.36594-.22261,2.08615-.96513,2.53299-1.05884.51688-2.24492.7153-3.41434.57126-.12337-.93454-.38188-1.84622-.76743-2.70642.91583.02451,1.757.02451,2.05379,0,.2973,0,.42081-.10001.42081-.42233v-4.96701c-.81673.22342-1.55876.44684-2.27638.64575l-.6683-2.85635c.84161-.17343,1.83116-.44681,2.9447-.72021v-4.39474h-2.6723v-2.7319h2.6723v-4.69362h2.67229v4.69362h2.47459v2.7319h-2.47459v3.67453l2.22708-.59576.39592,2.65744-2.623.79468Zm11.25887,6.25848c.56921.04901,1.11354.07446,1.73206.07446.84161,0,3.90984,0,4.97359-.02548-.39601.81485-.66313,1.68622-.79182,2.58301h-4.30527c-3.24152,0-5.741-.59576-7.42326-3.60107-.56679,1.46997-1.44475,2.80002-2.57368,3.89893-.67589-.64667-1.40413-1.23627-2.17728-1.76279,2.05377-1.63934,3.06821-4.39575,3.43922-7.77338l2.67229.32336c-.10921.84406-.26616,1.68121-.47011,2.50751.37466,1.18112,1.13217,2.20374,2.15286,2.90631v-6.48187h-5.8152v-2.384h14.6244v2.384h-6.03769v2.18512h4.72607v2.30957h-4.72607l-.00011,2.85632Zm4.80026-10.87762h-12.19859v-8.56709h12.19864l-.00005,8.56709Zm-2.82069-6.48189h-6.68123v1.24251h6.68123v-1.24251Zm0,3.12973h-6.68123v1.26601h6.68123v-1.26601Z"/>
  <path class="cls-2" d="m212.51166,249.65824c-.67578,1.76875-1.46098,3.49373-2.35107,5.16493v17.08615h-2.89491v-12.59143c-.51942.6712-1.03934,1.267-1.55876,1.83826-.42369-1.0769-.95422-2.10864-1.58365-3.07977,2.51414-2.66347,4.43666-5.82846,5.6414-9.28729l2.74699.86916Zm5.76541,16.43941c-1.30991,2.18082-2.97412,4.12805-4.92427,5.76169-.70947-.6889-1.47969-1.31238-2.30128-1.86276,1.81441-1.24347,3.34163-2.8609,4.47905-4.74359l2.74651.84467Zm9.32863-4.74359v2.88083h-16.05917v-2.88083h3.31572v-4.94153h-2.69722v-2.83087h2.69719v-4.64366h2.8705v4.64365h3.58763v-4.66911h2.8705v4.66911h3.21719v2.83086h-3.21712v4.94153l3.41478.00003Zm-9.873,0h3.58763v-4.94153h-3.58763v4.94153Zm5.54279,3.87442c1.58238,1.54883,2.99278,3.2641,4.20665,5.11594l-2.47458,1.56488c-1.14127-1.95273-2.51187-3.76199-4.08266-5.38934l2.35059-1.29147Z"/>
  <ellipse class="cls-2" cx="127.25579" cy="95.22595" rx="82.49315" ry="82.79816"/>
  <ellipse class="cls-1" cx="196.27225" cy="31.60852" rx="30.12253" ry="30.23109"/>
  <ellipse class="cls-4" cx="196.27225" cy="31.60852" rx="30.12253" ry="30.23109"/>
  <path class="cls-2" d="m207.88469,36.73065c-1.8087,1.2041-3.68781,2.29895-5.62724,3.27867,2.24965.88851,4.61169,1.46066,7.01857,1.70009-.85512.95105-1.57767,2.01339-2.14799,3.15815-6.59483-1.09355-10.95087-3.82545-13.61339-8.59256h-3.47878v4.46335l6.41322-.54677.06053,3.18754c-4.4771.45565-9.22659.88091-12.70586,1.18468l-.48378-3.31c.93779-.05978,1.99664-.15091,3.14632-.242v-14.60417c-1.05887.57714-2.17825,1.12392-3.2674,1.609-.57344-1.07211-1.27434-2.07099-2.08746-2.97491,4.96136-1.97348,9.86221-5.49516,12.25233-8.62294h3.59984c3.53091,3.81634,7.97675,6.66916,12.91724,8.2888-.87724.98195-1.63844,2.06169-2.26857,3.21786-1.05885-.45467-2.14799-1.00138-3.23712-1.57859v8.89632c.33295-.21263.63512-.45564.90753-.66828l2.60201,2.15576Zm-6.05049-11.90165c-2.39343-1.45176-4.58115-3.21825-6.50452-5.25215-1.84314,2.02275-3.9492,3.78921-6.26189,5.25215h4.4771v-2.338h3.69113v2.338h4.59818Zm-11.79832,4.37222h10.70915v-1.57854h-10.7092l.00005,1.57854Zm0,4.25071h10.70915v-1.67059h-10.7092l.00005,1.67059Zm7.10936,2.823c.62631.79502,1.35913,1.5,2.1778,2.09507,1.1194-.60752,2.39014-1.33557,3.53979-2.095l-5.71759-.00006Z"/>
  <path class="cls-1" d="m141.95258,68.564c-.30472-3.85909-1.88387-7.50734-4.48894-10.37073-3.76126-4.1643-8.82288-6.93088-14.35884-7.84827-1.45016-.26125-2.9194-.40255-4.39277-.42245-3.13554-.06573-6.22586-.7611-9.08734-2.04477-5.21811-2.19169-10.95795-2.83057-16.53027-1.8399-11.73839,1.99787-20.51429,10.28403-21.81339,19.67231-.01587.04513-.03277.0869-.04864.133-.05499.15929-.09154.32437-.10892.492-.04229.41608-1.00565,10.26135,1.96315,16.72886,2.16514,4.71676,9.0926,12.626,21.39412,12.62561.12107,0,.24373-.00055.36644-.00214,3.2682-.069,6.51568-.53773,9.67-1.39572,3.09501-.89275,6.31729-1.26277,9.5341-1.09483,13.76191.856,21.67482-1.62286,25.65886-8.04045,2.576-4.14954,2.81129-13.29953,2.24232-16.59247l.00011-.00005Zm-5.91855,14.29356c-3.03868,4.89664-9.73235,6.74554-21.714,6.00047-3.64508-.19527-7.29742.21191-10.80999,1.20519-2.84254.78158-5.77045,1.21041-8.71774,1.27684-10.20351.16-16.00736-6.39585-17.70988-9.9732,1.31621,1.21176,2.77242,2.26199,4.33772,3.12838,4.1086,2.23248,8.71814,3.38165,13.3939,3.33912,3.52573-.00401,7.02584-.59921,10.35472-1.76084,2.99357-1.03981,6.2317-1.14952,9.28878-.31472.72861.19518,1.47992.36353,2.23282.49882,5.50468,1.07027,11.20964.24046,16.18134-2.35363,1.41872-.77394,2.73506-1.72231,3.91838-2.823-.17775.62109-.43172,1.21777-.75607,1.77646l.00003.00011Zm1.44453-11.3928c-.77626,3.74784-3.2382,6.92793-6.67207,8.61833-4.108,2.12447-8.81518,2.79257-13.35209,1.89509-.63445-.11409-1.26634-.25526-1.87913-.41927-3.89609-1.06194-8.02246-.91892-11.83568.41021-1.42675.49912-2.89299.87724-4.38318,1.13035-5.39864,1.0136-10.98145.16551-15.83552-2.4056-4.36628-2.43108-7.16911-6.12957-7.89344-10.41477-1.52648-9.036,6.634-17.98818,18.19159-19.95547,1.48331-.2528,2.9853-.38013,4.49-.38062,3.29343-.02333,6.55655.63018,9.587,1.92,3.38927,1.51563,7.04876,2.33414,10.76077,2.40683,1.23556.01648,2.46764.13504,3.68368.35447,4.56805.74174,8.75008,3.00912,11.86423,6.43247,2.63428,2.78091,3.84178,6.61965,3.27386,10.40784l-.00003.00015Z"/>
  <path class="cls-1" d="m182.69132,114.88992c-2.70427-.74471-8.96945.653-12.4736,2.50665-2.59753-3.55139-5.73694-6.6726-9.30336-9.24944.00716-.24611-.03937-.49083-.13634-.71715-.74677-1.79504-1.35382-3.64505-1.81578-5.53355-.73483-2.7515-1.37106-5.12826-3.56079-5.94732-.76839-.28728-4.996-1.2859-16.619,4.93375-14.06617.6967-29.93788,11.03913-31.30087,25.22079-.24513,3.35484.92496,6.65916,3.22668,9.11214,4.3171,5.06818,12.362,8.75545,20.02435,10.63719,1.73891,2.60146,4.03165,5.36618,5.95885,5.43442l.04761.0011c1.32858,0,2.80215-1.94775,3.82121-4.04089.16499.0027.33038.01494.49538.01494,3.65053-.02617,7.2731-.63902,10.7291-1.81509.94585.90578,3.49146,3.089,6.06223,3.089.80405.00621,1.59149-.22879,2.26064-.67465,1.95284-1.28928,4.175-4.5312,4.81139-9.64923,1.49287-1.20018,2.8959-2.508,4.19786-3.91299,3.83624,2.09521,9.38879,4.74554,11.83849,4.04199,4.02211-1.14561,5.8645-9.48511,5.84351-14.76053-.01978-4.87893-1.47931-7.96518-4.10742-8.691l-.00009-.00013Zm-2.72417,19.71773c-1.1133.13106-5.94762-1.9469-10.31952-4.43579-.80838-.46129-1.83122-.27615-2.42662.43922-5.42038,6.487-16.17145,13.14101-27.144,12.74883-.20016-.0071-.39958.00073-.59961-.01128-2.69826-.18764-5.37398-.61913-7.99445-1.28915-6.98634-1.74001-14.19017-5.06413-17.84712-9.35699-.54642-.63551-1.0211-1.32933-1.41542-2.06889.88573.23981,1.79916.36203,2.71678.36353.90736.01213,1.81133-.11334,2.68109-.37212.59332-.20528.90789-.85266.70261-1.44598-.20292-.58652-.83875-.90187-1.42848-.70851-1.86208.4837-3.83646.2746-5.55591-.58842-.05587-.46693-.06252-.93842-.01983-1.40674,1.00028-10.41794,13.56023-21.77957,28.65866-21.77957.58264,0,1.17175.01818,1.76172.05279l.0387.00116c2.339.15361,4.64951.60007,6.87737,1.3289,7.96616,2.70001,14.79895,7.98944,19.40894,15.0249.5609.90131,1.74625,1.17728,2.64755.61639.138-.08588.26454-.1889.3766-.30662,1.33-1.396,8.65176-3.33122,10.58264-2.79486.27533.07619.81087.82334,1.0923,2.56789l-5.48409.20137c-.61113.02499-1.08629.54066-1.06131,1.15179.02417.59106.50858,1.05877,1.10011,1.06221l.04089-.00062,5.58234-.205c.01439.85728-.01891,1.71468-.09972,2.56826l-5.83118-.524c-.60942-.05032-1.14424.40293-1.19455,1.01235-.04985.60365.39462,1.1353.99754,1.19324l5.72195.51443c-.16208.89775-.37303,1.78598-.63194,2.66074l-5.26929-1.65414c-.58308-.18388-1.20482.13974-1.3887.72281-.18387.58308.13974,1.20482.72282,1.3887h0l.00647.002,5.17313,1.62399c-.21307.67314-.62373,1.26663-1.17859,1.70328l.00009-.00008Zm-21.35361,10.97389c-.96477.63509-2.63446-.25047-3.9191-1.23085,2.43016-1.03067,4.75934-2.28484,6.95753-3.74632-.45747,1.94008-1.52188,3.68364-3.03844,4.97717Zm-23.88042,1.09636c.97099.161,1.92612.29666,2.8494.39134-.29059.50139-.6339.97031-1.02408,1.39877-.70279-.4922-1.31952-1.09703-1.82532-1.7901v-.00002Zm20.946-43.89745c.19942.74581.42789,1.58281.69821,2.47058-3.33202-1.85837-6.93983-3.17179-10.68674-3.89049,3.85735-1.66763,7.25276-2.69362,8.5235-2.21458.54883.20491,1.01468,1.94855,1.465,3.63443l.00003.00005Z"/>
  <path class="cls-1" d="m122.13576,119.14137c-1.46921-.00549-2.66469,1.1811-2.67017,2.65031-.00549,1.46921,1.1811,2.66468,2.65031,2.67017,1.46921.00549,2.66469-1.1811,2.67017-2.65031,0-.00319.00002-.00638.00002-.00957v-.00036c.00268-1.46645-1.18388-2.65745-2.65033-2.66025Z"/>
  <path class="cls-1" d="m145.5147,125.17252c-.15396-.30183-.36328-.57202-.61707-.79652-1.6702-1.49382-5.24367-1.26171-8.27563-1.02311-.10056-4.3326-1.79465-8.47611-4.75829-11.63814-.41064-.45164-1.10966-.48486-1.56129-.07421-.45164.41064-.48486,1.10966-.07422,1.56129,5.63776,5.65845,5.62099,14.81584-.03746,20.45361-.39377.39232-.80981.76161-1.24609,1.10605-.46025.40121-.50812,1.09956-.1069,1.55981.39934.4581,1.09357.50798,1.55429.11168,1.61494-1.40302,2.9832-3.06689,4.04787-4.92242.21809.16132.43546.32018.65477.4843,1.952,1.46223,3.95572,2.96317,5.89551,2.96317.55432.00153,1.1011-.12827,1.59561-.37872.65063-.35635,1.2115-.85629,1.64-1.46185.58531-.79916,1.03709-1.68799,1.33774-2.63184.66879-1.7112.65135-3.61449-.04871-5.31315l-.00012.00005Zm-3.91606,7.42551c-1.20164.60751-3.31841-.98012-5.18401-2.37779-.32817-.2457-.65411-.48654-.97783-.72253.11813-.2887.21541-.58266.31647-.87613l4.13023,1.145c.58992.16032,1.1981-.18794,1.35841-.77786.1597-.58762-.18524-1.19389-.77199-1.3568h0l-4.136-1.14645c.05901-.30034.1068-.60153.14816-.90468.00757-.00061.0144.00331.02209.00257,1.94186-.15261,6.48193-.51259,7.04504.59418.41188,1.17537.38239,2.4604-.08299,3.61562-.27563,1.1245-.93649,2.1169-1.86778,2.80478l.00018.00009Z"/>
  <path class="cls-1" d="m89.04345,71.77612c-.00452.0136-.00946.02671-.01489.03981l-.0072.032c-.32489,1.02041-1.41547,1.58424-2.43587,1.25935-1.01057-.32175-1.57513-1.39571-1.26721-2.41058.33072-1.0882,1.47924-1.70398,2.56862-1.37716.9924.35164,1.51332,1.43983,1.16485,2.43334l-.00829.02324Zm15.36583-12.64906c-.12577,1.05745-1.08496,1.81271-2.1424,1.68694-.00077-.00009-.00153-.00018-.0023-.00027l-.00885-.0011c-4.61086-.57047-10.66844-.148-13.348,5.12819-.48156.9525-1.6441,1.33427-2.5966.85271s-1.33427-1.6441-.85271-2.5966c.00132-.00261.00265-.00522.00397-.00782l.00458-.00894c2.88233-5.67754,9.01253-8.24152,17.2629-7.2146,1.0601.13345,1.81174,1.10037,1.67958,2.16063l-.00012.00092-.00006-.00006Z"/>
  <path class="cls-1" d="m127.29203,60.91815c-6.96706-4.38263-9.27151-3.03156-8.23584,1.73579.62182,2.86064-1.91586,5.25166,3.94718,7.40954,4.38532,1.6138,7.11034,7.817,9.25223,2.054,1.56364-4.20631-1.26524-8.873-4.96357-11.19933Z"/>
  <path class="cls-1" d="m118.83603,72.32259c-5.07585-.224-4.66834,4.18175-1.41487,5.38854s7.79917.70532,8.20436-1.05809c.42459-1.84586-3.65195-4.19186-6.78949-4.33045Z"/>
  <path class="cls-2" d="m118.29708,172.1997l13.3222,20.2345,14.44499-21.36234"/>
</svg>