<?xml version="1.0" encoding="UTF-8"?>
<svg id="_レイヤー_1" data-name="レイヤー 1" xmlns="http://www.w3.org/2000/svg" viewBox="0 0 204 176.03759">
  <defs>
    <style>
      .cls-1 {
        fill: none;
        stroke: #7e5b39;
        stroke-dasharray: 0 0 0 4;
        stroke-linecap: round;
        stroke-linejoin: round;
        stroke-width: 2px;
      }

      .cls-2 {
        fill: #eed741;
      }

      .cls-3 {
        fill: #7e5b39;
      }
    </style>
  </defs>
  <polygon class="cls-2" points="153 0 51 0 31.76695 33.19294 6.53555 32.35276 19.67803 54.05729 0 88.01876 51 176.03759 153 176.03759 204 88.01876 153 0"/>
  <g>
    <path class="cls-3" d="m55.08588,47.2788c1.01841,1.81592,2.97463,2.59033,5.73498,2.69727,3.32292.16016,9.91546.08008,13.66728-.24023-.32158.7207-.8039,2.10938-.93792,2.96387-3.40353.18701-9.35278.24023-12.70265.08008-3.24255-.1333-5.46693-.90771-7.07486-2.99072-.99158,1.06836-2.00987,2.10938-3.26938,3.25781l-1.50073-3.01758c.96475-.69434,2.09024-1.5752,3.10865-2.4834v-5.90137h-2.73353v-2.91064h5.70815v8.54492Zm-2.46548-12.12305c-.5628-1.30811-2.09024-3.25781-3.43023-4.61963l2.51902-1.5752c1.36683,1.30811,2.97475,3.09766,3.61792,4.43262l-2.7067,1.76221Zm7.82522,3.81885c-.10719,3.25732-.67,7.28955-3.18901,9.98682-.40207-.56104-1.31317-1.44189-1.87597-1.84277,2.27792-2.66992,2.49231-6.62207,2.49231-9.45264v-3.23096h-2.06353v-2.61719h3.16231v-3.41797h2.9478v3.41797h2.89426v1.36182c.85756-1.41504,1.52756-3.17725,1.92951-4.93994l2.65316.5874c-.18768.74805-.40207,1.46875-.64317,2.18994h5.11852v2.6167h-6.24413c-.26805.56104-.58951,1.12158-.91122,1.60205h4.95779l.53597-.16016,1.66158,1.25537c-.80402,1.30811-1.90268,2.75-2.94792,3.89844v.29346h3.10865v2.51025h-3.10865v3.20459c0,1.22803-.18756,1.97559-1.04512,2.40332-.83073.42676-1.92951.48047-3.45706.48047-.08037-.77441-.50914-1.896-.85756-2.61719.96475.02686,1.95634.02686,2.25109.02686.32158,0,.40195-.08008.40195-.34717v-3.15088h-2.9478v-2.51025h2.9478v-1.62842h.91122c.32158-.40088.64317-.88135.93792-1.33545h-4.12694v-1.60205c-.48244-.4541-1.31317-1.14844-1.87597-1.52197h-3.59096v1.94922h4.20743v1.09473c-.16085,7.15625-.32171,9.7998-.93805,10.6543-.42878.64111-.85756.88135-1.52756.98828-.56268.10693-1.42024.10693-2.33146.10693-.05354-.77441-.29476-1.86963-.6967-2.53711.6967.08008,1.23268.08008,1.55426.08008.29488,0,.48244-.08008.67-.34717.32158-.48047.45561-2.32275.5628-7.44971h-1.52756Z"/>
    <path class="cls-3" d="m84.99691,40.84374c0,1.86914-1.55439,3.41797-3.43023,3.41797s-3.43023-1.54883-3.43023-3.41797,1.55439-3.41797,3.43023-3.41797,3.43023,1.54883,3.43023,3.41797Z"/>
    <path class="cls-3" d="m112.41575,46.1577c-1.52743,1.01465-3.32304,2.05566-4.9845,2.88379,1.76865.7207,3.83218,1.22803,6.2173,1.49512-.64317.66797-1.50073,1.92285-1.90268,2.77734-5.84218-.96143-9.70119-3.36475-12.05948-7.55713h-3.08182v3.92529l5.68132-.48047.05354,2.80371c-3.96621.40039-8.17351.77441-11.25545,1.0415l-.42878-2.91064c.83073-.05322,1.76878-.1333,2.78706-.21387v-12.84375c-.93792.50732-1.92951.98779-2.89426,1.41504-.40195-.74756-1.20597-1.97607-1.84914-2.6167,4.39511-1.73584,8.73644-4.8335,10.8535-7.5835h3.18914c3.00145,3.31104,7.26242,5.95459,11.44301,7.28955-.75036.77441-1.47402,1.896-2.00987,2.83057-.93805-.40039-1.9028-.88086-2.86755-1.38867v7.82422c.29488-.18701.5628-.40039.80402-.5874l2.30463,1.896Zm-5.35974-10.46777c-2.27792-1.41504-4.36816-3.0708-5.76169-4.61963-1.31317,1.52197-3.29621,3.15088-5.5473,4.61963h3.96621v-2.05615h3.26938v2.05615h4.0734Zm-10.45143,3.84521h9.48668v-1.38867h-9.48668v1.38867Zm0,3.73828h9.48668v-1.46826h-9.48668v1.46826Zm6.29766,2.4834c.53597.69434,1.17914,1.28174,1.92951,1.84277.99158-.53418,2.11707-1.17529,3.13548-1.84277h-5.06499Z"/>
    <path class="cls-3" d="m124.66646,40.84374c0,1.86914-1.55426,3.41797-3.43023,3.41797s-3.43023-1.54883-3.43023-3.41797,1.55426-3.41797,3.43023-3.41797,3.43023,1.54883,3.43023,3.41797Z"/>
    <path class="cls-3" d="m133.46011,41.27098c-1.01841-.93457-3.10865-2.16309-4.79694-2.91064l1.74195-2.32324c1.6078.64111,3.77852,1.73584,4.85047,2.64355l-1.79548,2.59033Zm-3.80548,9.58643c1.2328-2.02979,3.00145-5.34082,4.36828-8.41162l2.43865,1.94922c-1.17914,2.80371-2.65304,5.84814-4.04657,8.41162l-2.76036-1.94922Zm2.38512-22.13672c1.63475.64062,3.80548,1.81543,4.8506,2.77686l-1.90268,2.51025c-.99158-.96143-3.05511-2.24316-4.7434-2.99072l1.79548-2.29639Zm20.23311,4.35254v20.02686h-3.2695v-1.04102h-8.38802v1.25488h-3.13536v-20.24072h4.50218c.34829-1.49561.66988-3.25781.77707-4.61963l3.75182.37354c-.37512,1.46875-.83073,2.9375-1.25951,4.24609h7.02132Zm-11.65753,3.04395v4.8335h8.38802v-4.8335h-8.38802Zm8.38802,12.87061v-5.1001h-8.38802v5.1001h8.38802Z"/>
    <path class="cls-3" d="m43.6893,82.43456c-.31681,2.99951-.98227,6.125-1.90108,8.14551-.63361-.41064-1.99603-1.04199-2.72471-1.32617.88708-1.83105,1.33069-4.67236,1.58416-7.32422l3.04164.50488Zm3.73871-2.62012v13.16455h-3.2635v-12.81738l-4.27726.44189-.50694-3.25146,2.2495-.12646c.47533-.6001.95054-1.2627,1.42575-1.95752-.85548-1.42041-2.34456-3.12549-3.61191-4.45117l1.83763-2.49414c.25347.2207.47533.44189.7288.66309.88708-1.73633,1.77429-3.82031,2.31284-5.46191l3.23177,1.19971c-1.10895,2.14697-2.43963,4.57764-3.54858,6.37744.34854.41016.69707.85205.98227,1.2627,1.10882-1.76807,2.1227-3.53613,2.8515-5.08301l3.04164,1.4209c-1.74268,2.65186-3.86538,5.77734-5.86153,8.27148l2.78817-.18945c-.34854-.72607-.69707-1.38916-1.04561-2.02051l2.66149-1.10498c1.26735,2.14648,2.56643,4.89355,2.9783,6.69287l-2.8199,1.29443c-.12667-.6001-.31681-1.2627-.57028-2.02051l-1.58416.18945Zm2.78817,2.0835c.63361,1.54687,1.26735,3.47266,1.67922,4.98828.31681-1.04199.53855-2.14697.69707-3.15723l3.00991.50537c-.31681,2.55713-1.10895,5.55615-2.31296,7.48193l-2.94657-1.29443c.47521-.6626.88721-1.54688,1.23574-2.55713l-2.34469.78955c-.25347-1.57861-1.01388-4.04102-1.71083-5.93555l2.6931-.8208Zm8.64958-17.0166c-1.17228,3.15723-3.20004,6.18799-5.32287,8.11377-.66534-.63135-2.09109-1.73633-2.91484-2.27295,2.05937-1.57861,3.77032-4.10449,4.68913-6.72461l3.54858.88379Zm6.46354,15.50146c-.22186-.63184-.60201-1.4209-1.04561-2.2417-4.11885.34717-8.3645.66309-11.53281.88379l-.63374-3.37793c.98227-.03125,2.12282-.06299,3.35844-.12598.79214-1.98926,1.58428-4.54639,2.02776-6.47217l3.77044.88379c-.76041,1.7998-1.58416,3.75684-2.37629,5.46191l3.64364-.15771c-.4436-.69482-.91881-1.35791-1.36242-1.95752l2.8515-1.38916c1.67922,2.0835,3.58031,4.9248,4.37232,6.88232l-3.07324,1.61035Zm.50694,2.71484c1.67922,2.2417,3.23165,5.146,3.70698,7.22949l-3.1367,1.54688c-.19013-.97852-.63361-2.24121-1.23562-3.50391-.34854,3.66211-1.26735,4.60889-3.35857,4.60889h-2.50297c-2.88323,0-3.45351-1.01025-3.45351-4.07227v-5.87207h3.42178v5.84033c0,.85254.09507.94727.63374.94727h1.45748c.57028,0,.69695-.34717.76041-3.03076.60201.53662,1.9643,1.0415,2.91484,1.29443-.60201-1.23145-1.29896-2.49414-2.05949-3.56738l2.85163-1.4209Zm-7.44569-4.48291c2.05937.91553,4.24565,2.55713,5.3862,3.85156l-2.47136,2.30469c-1.07722-1.45215-3.29511-3.15723-5.29114-4.16748l2.37629-1.98877Zm5.70301-14.64893c1.23574,2.11523,3.54858,4.51465,5.44966,5.90381-.85548.63135-1.99615,1.89404-2.59803,2.74658-1.99615-1.76807-4.46751-4.83008-5.92487-7.35596l3.07324-1.29443Z"/>
    <path class="cls-3" d="m87.40628,63.55565c3.39017,4.83008,8.52291,8.83984,13.56057,10.86035-.91881.97852-1.77429,2.20947-2.43963,3.37793-1.61589-.8208-3.26338-1.86279-4.84766-2.99951v2.17871h-15.77846v-2.20996c-1.55255,1.13623-3.23177,2.17822-4.91099,3.09375-.50694-.91553-1.55243-2.27295-2.37629-3.0625,5.44966-2.62012,10.51906-7.38721,12.89535-11.23877h3.89711Zm-11.59627,16.54297h20.08745v12.94385h-3.86538v-1.16846h-12.51509v1.16846h-3.70698v-12.94385Zm16.31713-6.44043c-2.62976-2.05225-4.97433-4.3252-6.49515-6.40869-1.48921,2.11523-3.7071,4.35645-6.30514,6.40869h12.80028Zm-12.61015,9.75537v5.146h12.51509v-5.146h-12.51509Z"/>
    <path class="cls-3" d="m127.09948,79.62499c-1.42575,3.09375-3.51685,5.49316-6.08327,7.35596,3.04164,1.07324,6.59021,1.79932,10.48733,2.14648-.79214.85254-1.80602,2.49414-2.31296,3.50439-4.59406-.56836-8.68131-1.6416-12.10309-3.31494-3.64364,1.73633-7.85769,2.77832-12.32507,3.37842-.38014-.88428-1.42575-2.55762-2.21777-3.31494,3.96045-.41064,7.6357-1.13672,10.7724-2.30469-1.93269-1.35742-3.61191-3.03076-5.00606-4.95654l1.04561-.44189h-1.48909v-3.44141h16.0002l.69707-.15771,2.5347,1.54688Zm-20.27758-.22119h-3.51685v-6.85059h4.53073c-.31681-.97852-.91881-2.2417-1.48909-3.25195l2.81977-.78906c-1.58416.09473-3.20004.15771-4.72086.18945-.06334-.94727-.50694-2.36768-.85548-3.18848,8.3329-.28418,17.86968-1.04199,23.63615-2.14697l2.5347,3.03076c-3.4219.63135-7.50915,1.13672-11.72307,1.51514.63374,1.26318,1.23574,2.93604,1.42575,4.07275l-2.34456.56836h5.513c.76041-1.45215,1.58416-3.31494,2.05949-4.73584l4.02379.94727c-.7288,1.32617-1.55255,2.62061-2.28123,3.78857h4.49912v6.85059h-3.67537v-3.59912h-20.43598v3.59912Zm10.99427-11.4917c-2.66149.25293-5.41793.44238-8.11103.56836.72868,1.16797,1.45748,2.58887,1.77429,3.59912l-1.64761.47363h6.05167c-.19013-1.10498-.66534-2.68359-1.20401-3.91504l3.1367-.72607Zm-5.513,13.76514c1.29908,1.42041,2.91496,2.62012,4.81593,3.66211,1.67922-1.01025,3.16843-2.20996,4.30899-3.66211h-9.12491Z"/>
    <path class="cls-3" d="m144.80414,64.88134c-.85548,2.11523-1.83775,4.26221-3.01003,6.37744v21.68896h-3.86538v-15.81689c-.72868.91553-1.48909,1.76807-2.21789,2.52588-.41187-.91602-1.55243-2.99951-2.21777-3.91504,3.00991-2.87305,5.89314-7.41895,7.57236-12.06006l3.73871,1.19971Zm18.40823,9.21875h-3.48524v14.33301c0,2.43066-.57028,3.40967-2.09109,3.97803-1.55255.59961-3.92884.6626-7.41396.63135-.22186-1.07373-.88721-2.74658-1.45748-3.72559,2.43963.09473,5.2278.09473,5.95648.06348.79214,0,1.07734-.25293,1.07734-.94727v-14.33301h-12.07161v-3.78857h12.07161v-6.44043h3.92872v6.44043h3.48524v3.78857Zm-13.94084,11.39697c-.82387-1.92578-2.6931-5.17773-4.11885-7.57715l3.35844-1.54688c1.42575,2.30469,3.39017,5.39844,4.34059,7.29297l-3.58018,1.83105Z"/>
  </g>
  <g>
    <path class="cls-3" d="m57.08338,122.40428c-.01605.16016-.01605.40039-.01605.65625,1.31721-.06348,2.65047-.19141,4.06409-.43164l-.01605,1.84082c-1.06019.12793-2.52196.27148-4.08014.35156v1.64941c1.62238-.08008,2.98786-.20801,4.28902-.38477l-.01605,1.88867c-1.44572.16016-2.69874.27246-4.24087.32031.0321.6084.06419,1.26465.11246,1.90527,2.02396.57617,3.5661,1.64844,4.49789,2.41699l-1.1566,1.79199c-.86748-.7998-1.95989-1.64844-3.245-2.22461.01617.22461.01617.41602.01617.59277,0,1.36035-1.04426,2.41699-3.16464,2.41699-2.57023,0-3.91965-.97656-3.91965-2.67383,0-1.61621,1.49399-2.75293,3.9678-2.75293.33739,0,.67465.0166.99599.04785-.0321-.49609-.04815-1.00781-.06432-1.48828h-.83526c-.93168,0-2.76305-.08008-3.82324-.20801l-.01605-1.88867c1.04414.19238,3.02008.30371,3.87139.30371h.77107c0-.52832,0-1.10449.01605-1.64844h-.59429c-1.01204,0-2.87552-.14453-3.9357-.28809l-.04815-1.8252c1.1566.19238,2.98786.35254,3.9678.35254h.62639v-.75195c0-.30469-.0321-.80078-.09629-1.10449h2.16864c-.04827.32031-.08037.71973-.09641,1.13574Zm-3.24488,10.98047c.85131,0,1.41362-.23926,1.41362-1.16797,0-.17578,0-.40039-.01605-.68848-.4338-.06348-.86748-.1123-1.31733-.1123-1.14055,0-1.76694.44824-1.76694.99316,0,.60742.57824.97559,1.68669.97559Z"/>
    <path class="cls-3" d="m76.17741,122.94921l-1.10846.46387c1.02809-.01562,1.95989-.01562,2.44171-.01562l-.01605,1.9043c-.96377-.04785-2.48986-.0957-4.6585-.0957.01605.81641.01605,1.66406.01605,2.36914.40158.60742.61046,1.37598.61046,2.22461,0,2.09668-1.23697,4.73828-5.17255,5.84277l-1.70287-1.71289c1.6225-.33594,3.05217-.86426,3.9357-1.8252-.22493.04785-.4659.08008-.73897.08008-1.23684,0-2.77898-.99219-2.77898-2.92871,0-1.80859,1.47782-3.00977,3.22883-3.00977.2248,0,.43368.0166.64256.04785,0-.35156,0-.71973-.01605-1.07227-2.42567.03223-4.9317.14453-6.90751.25586l-.04827-1.93652c1.83138-.01563,4.75492-.08008,6.92356-.1123,0-.20801,0-.36816-.01605-.49609-.04815-.63965-.11246-1.18457-.14456-1.39258h2.3132c-.04815.25684-.09641,1.12109-.11246,1.37695,0,.12793-.01605.30371-.01605.49609h1.92767c-.32122-.6084-.6586-1.23242-1.04414-1.80859l1.31721-.54395c.40158.57617.83538,1.32813,1.1245,1.88867Zm-5.99188,7.47461c.67478,0,1.25302-.51172,1.04414-1.9209-.2248-.38379-.61034-.55957-1.06019-.55957-.59429,0-1.2208.41602-1.2208,1.26367,0,.73633.59429,1.2168,1.23684,1.2168Zm8.16053-7.93945l-1.34943.56055c-.32122-.64062-.70675-1.3125-1.1245-1.88867l1.33338-.54395c.40158.57617.83526,1.28027,1.14055,1.87207Z"/>
    <path class="cls-3" d="m82.82128,123.28514c-.24085,1.07227-.77107,4.59375-.77107,6.19434,0,.32031.01617.7207.06432,1.04102.20888-.56055.48195-1.10449.72292-1.64941l.97982.80078c-.44973,1.3125-.96377,2.94531-1.1566,3.80957-.04815.22363-.08024.57617-.08024.75195,0,.16016.01605.43262.0321.65625l-1.81521.14453c-.33739-1.12109-.64256-2.94531-.64256-5.12207,0-2.41699.48195-5.44238.6586-6.6748.06419-.44824.14456-1.05664.16061-1.56934l2.21679.19238c-.12851.32031-.32122,1.13672-.36949,1.4248Zm8.11238-.56055c-.01605.35254-.03222.94434-.04827,1.64941.88353-.08008,1.71891-.20898,2.48998-.36816v2c-.77107.1123-1.60645.20801-2.48998.27246.03222,1.55273.11246,2.83301.17678,3.92187,1.33326.54395,2.3453,1.36035,3.11637,2.06445l-1.10846,1.68066c-.67465-.62402-1.31721-1.18457-1.95977-1.61621-.09641,1.53613-.96377,2.625-3.13242,2.625-2.21691,0-3.59832-.92871-3.59832-2.60938,0-1.61621,1.3814-2.7373,3.5661-2.7373.36949,0,.72292.0166,1.04414.06445-.0321-.99219-.09629-2.16113-.11234-3.29785-.38553.0166-.77107.0166-1.14055.0166-.94785,0-1.86347-.03223-2.8112-.09668v-1.9043c.91563.0957,1.8473.14355,2.8112.14355.36949,0,.75502,0,1.1245-.01562,0-.78418-.01617-1.44043-.01617-1.77637,0-.24023-.04815-.73633-.11246-1.05664h2.29715c-.04815.30371-.08024.68848-.09629,1.04004Zm-3.18068,10.34082c.97982,0,1.31721-.5127,1.31721-1.45703v-.28809c-.41763-.1123-.85143-.17578-1.28511-.17578-.91563,0-1.52609.38379-1.52609.99219,0,.65625.64256.92871,1.49399.92871Z"/>
    <path class="cls-3" d="m98.38144,130.98436c0,1.02441.97982,1.76074,3.29302,1.76074,2.16864,0,4.22482-.24023,5.63845-.64062l.01605,2.25684c-1.39758.33594-3.32524.54492-5.57413.54492-3.67868,0-5.52598-1.2334-5.52598-3.42578,0-.92871.19271-1.71289.32122-2.30469l2.10445.19141c-.16073.57617-.27307,1.07324-.27307,1.61719Zm3.29302-8.21191c1.5904,0,3.42166-.0957,4.65862-.22363v2.12891c-1.1245.0957-3.11649.19238-4.64258.19238-1.68669,0-3.08427-.06445-4.38543-.17676v-2.1123c1.1887.12793,2.68269.19141,4.36938.19141Z"/>
    <path class="cls-3" d="m114.92166,123.09276c-.03222.14453-.06432.32031-.09641.49609,1.83125-.0957,3.9999-.33594,5.94361-.75195l.0321,1.9043c-1.67065.27246-4.2247.57715-6.37729.68848-.22493.97656-.48195,2.00098-.72292,2.78516,1.30116-.71973,2.55418-1.00781,3.98385-1.00781,2.60232,0,4.32124,1.37598,4.32124,3.4248,0,3.60156-3.48585,4.89844-8.67457,4.33789l-.56219-2.06445c3.51795.57617,7.06812.14355,7.06812-2.20898,0-.96094-.81934-1.76074-2.39357-1.76074-1.8473,0-3.48585.65625-4.44963,1.87305-.17678.22363-.28924.43164-.44985.7041l-1.89557-.67285c.77107-1.48828,1.41362-3.61719,1.83138-5.37793-1.01204-.01562-1.95989-.06348-2.7791-.14355v-1.98535c.9639.16016,2.16864.28809,3.14846.30469.03222-.24023.06432-.46484.09641-.65625.09641-.68848.11246-1.08887.08037-1.61719l2.28111.0957c-.17678.56055-.27307,1.10449-.38553,1.63281Z"/>
    <path class="cls-3" d="m127.20496,128.29491c1.46177-1.05664,3.05205-1.52051,4.73887-1.52051,2.8112,0,4.44963,1.72852,4.44963,3.66602,0,2.91309-2.3132,5.15332-8.99579,4.59375l-.61034-2.09766c4.81911.65723,7.37329-.51172,7.37329-2.54492,0-1.04004-.99599-1.80859-2.39357-1.80859-1.81521,0-3.45376.67285-4.46567,1.88867-.28924.35254-.44985.6084-.59441.92871l-1.84743-.46387c.32134-1.56934.69082-4.70605.80329-6.69141l2.15259.30469c-.20888.87988-.498,2.83301-.61046,3.74512Zm6.93961-5.71387l-.48195,1.95215c-1.6225-.20801-5.20477-.95996-6.45766-1.28027l.51405-1.9209c1.52609.48047,5.02799,1.08887,6.42556,1.24902Z"/>
    <path class="cls-3" d="m139.93713,128.19921c.73897-.76855,1.97594-2.41699,2.97181-3.56934,1.1245-1.26465,2.16864-1.37695,3.34129-.24023,1.09241,1.05664,2.37752,2.70508,3.32524,3.72949,1.02809,1.12012,2.39357,2.56055,3.91965,3.92188l-1.6546,1.91992c-1.1566-1.08789-2.52208-2.64062-3.53412-3.8252-.99587-1.18457-2.20074-2.70508-2.95576-3.55371-.56219-.62402-.86736-.54395-1.33326.04883-.64256.7998-1.78311,2.38477-2.47381,3.29688-.36949.52832-.73897,1.10449-1.01204,1.52051l-1.95977-2.00098c.48183-.36816.88341-.73633,1.36536-1.24805Z"/>
    <path class="cls-3" d="m60.64727,142.61327c-.01605.35156-.0321.73633-.04815,1.13574,1.06019-.12793,2.1205-.33594,2.95576-.57617l.04815,1.98535c-.91563.20801-2.02396.36816-3.06822.49609-.01605.47949-.01605.97656-.01605,1.44043v.5918c1.09241-.27148,2.20086-.41602,3.08427-.41602,2.47393,0,4.41765,1.28027,4.41765,3.48926,0,1.88867-.99599,3.31348-3.55017,3.9541-.73897.16016-1.44572.20801-2.10433.25586l-.73897-2.06445c.72292,0,1.41362-.0166,1.97581-.1123,1.30116-.24023,2.32925-.88086,2.32925-2.04883,0-1.08887-.96377-1.72852-2.36135-1.72852-.99599,0-2.04013.16016-3.01995.44824.0321,1.26465.06419,2.5127.06419,3.05664,0,1.98535-.70675,2.51367-1.76706,2.51367-1.55818,0-3.75892-1.34473-3.75892-3.04199,0-1.39258,1.60645-2.84863,3.58227-3.69727-.01605-.38379-.01605-.76855-.01605-1.13672v-1.34375c-.30517.01562-.59441.03125-.85143.03125-1.07624,0-1.70274-.01562-2.24889-.08008l-.0321-1.93652c.94772.1123,1.63843.12793,2.21679.12793.28912,0,.61046-.01562.93168-.03125.01605-.56055.01605-1.02441.01605-1.29688,0-.33594-.06419-1.12012-.11246-1.4082h2.21679c-.04815.28809-.11234.97559-.14456,1.39258Zm-2.40949,10.22754c.28912,0,.51405-.12793.51405-.67187,0-.40039-.01617-1.13672-.04827-2.00098-.97982.52832-1.63843,1.18457-1.63843,1.74414,0,.49707.7549.92871,1.17265.92871Zm11.08407-7.63477l-.9639,1.63281c-.77107-.65625-2.87539-1.85742-3.87139-2.33691l.88353-1.55273c1.23697.5918,3.10032,1.64844,3.95175,2.25684Z"/>
    <path class="cls-3" d="m75.4676,152.88866c.97982.38477,2.20074.48047,3.69461.48047,1.14055,0,5.17267,0,6.53803-.04785-.30517.43164-.61034,1.3125-.73897,1.87305h-5.8151c-3.16451,0-5.23686-.43262-6.60222-2.51367-.22493,1.02441-.56219,2.0166-1.09241,2.88184-.24085-.38477-.85131-.96094-1.23684-1.15332,1.02809-1.80859,1.12438-4.28906,1.04414-6.4502l1.60633.0957c.01605.6084.01605,1.23242,0,1.85742.24097.7041.53009,1.26465.88353,1.71191v-4.59375h-3.10032v-1.66406h2.7791v-1.34473h-2.23296v-1.66504h2.23296v-1.68066h1.75089v1.68066h2.16864v1.66504h-2.16864v1.34473h2.40962v1.66406h-2.12037v1.77734h1.91162v1.64844h-1.91162v2.43262Zm2.48986-9.68359h2.73083c-.0321-.83203-.06419-1.68066-.08024-2.5293h1.76694c0,.84863.01605,1.69727.04827,2.5293h1.42967c-.25702-.52832-.77107-1.26465-1.23697-1.79297l1.28511-.67187c.51405.56055,1.1245,1.32812,1.38153,1.84082l-1.14055.62402h1.31721v1.58496h-2.93959c.08024,1.10449.20875,2.12891.35331,3.02441.38553-.75195.70687-1.56836.94785-2.38477l1.46177.38477c-.44973,1.56836-1.09241,3.02441-1.89557,4.27344.24097.68848.48195,1.08887.73897,1.08887.22493,0,.35344-.625.40158-2.00098.33739.38379.86748.75195,1.28511.92773-.24097,2.20898-.7228,2.80176-1.87952,2.80176-.67465,0-1.23684-.48047-1.67052-1.3125-.53022.5918-1.09241,1.10449-1.70287,1.52051-.24097-.40039-.77107-1.00879-1.14055-1.3125.80329-.49609,1.52609-1.16895,2.16864-1.96875-.38553-1.39258-.64256-3.1377-.78712-5.04199h-1.1566v4.36914l1.10846-.65625.53009,1.36035c-1.25302.84863-2.61837,1.76074-3.75892,2.46582l-.80329-1.52051c.35344-.17676.77107-.41699,1.23697-.67285v-6.93066Z"/>
    <path class="cls-3" d="m91.30045,143.65331c-.06432,1.72852-.19283,5.31445-.19283,7.29883,0,1.61719.9639,2.14453,2.21679,2.14453,2.65059,0,4.33729-1.52051,5.49389-3.26465l1.46189,1.76074c-1.02809,1.53613-3.3092,3.68164-6.97183,3.68164-2.63442,0-4.33716-1.15332-4.33716-3.88965,0-2.14551.16061-6.35449.16061-7.73145,0-.75195-.06432-1.52051-.20888-2.16113l2.58627.03223c-.09629.67187-.17666,1.48828-.20875,2.12891Z"/>
    <path class="cls-3" d="m109.84785,143.74901v2.51367l.32122-.36816c1.73496.86426,4.25704,2.24023,5.47784,3.2334l-1.41362,1.74414c-.93168-.81641-2.76293-1.98438-4.38543-2.91309v7.60352h-2.05618v-11.81348h-5.79906v-1.9209h14.3129v1.9209h-6.45766Z"/>
    <path class="cls-3" d="m124.44386,141.37987l2.16864-.25586c.16061.84863.40158,1.71289.67465,2.51367,1.15672-.17676,2.28111-.43262,3.29315-.73633l.25702,2.0166c-.81921.24023-1.8473.43164-2.85934.57617.4659,1.04004,1.02809,2.03223,1.42967,2.60937.27307.39941.57836.75195.86748,1.07227l-.99599,1.44043c-.89958-.17578-2.92366-.38477-4.27297-.49609l.16061-1.69727c.78712.06445,1.8473.16016,2.3453.19238-.48195-.76855-1.06019-1.8252-1.51004-2.89746-1.9115.14453-4.11236.16016-6.85924-.06348l-.0321-2.04883c2.40962.28809,4.4658.33594,6.16854.22363-.12851-.36816-.22493-.7041-.32134-.97656-.12851-.36816-.30517-.94434-.51405-1.47266Zm-2.90749,9.84473c0,1.34473,1.20475,1.9209,3.40549,1.9209,1.75101,0,3.16464-.16016,4.30519-.38477l-.11246,2.0166c-.91563.17676-2.36147.38477-4.32124.38477-3.27698-.0166-5.3492-1.28027-5.3492-3.58594,0-.97656.30517-1.88867.85131-2.97656l2.00803.46387c-.51405.75195-.78712,1.45703-.78712,2.16113Z"/>
    <path class="cls-3" d="m136.10016,144.72557c-.01605,1.04004,0,2.24121.09641,3.39355.2248,2.30469.70675,3.88965,1.71879,3.88965.75502,0,1.39758-1.87305,1.70274-3.15332l1.60645,1.95313c-1.06019,2.78516-2.07223,3.76074-3.35734,3.76074-1.76706,0-3.29315-1.58398-3.74288-5.87402-.16073-1.47266-.17678-3.3457-.17678-4.32129,0-.44824-.0321-1.13672-.12851-1.63281l2.47393.03125c-.11246.57715-.19283,1.50488-.19283,1.95312Zm11.14838,6.70703l-2.10445.81641c-.25702-2.57715-1.10833-6.4668-2.85934-8.45215l2.04013-.65625c1.52609,1.84082,2.74688,5.84277,2.92366,8.29199Z"/>
  </g>
  <line class="cls-1" x1="28.43968" y1="107.41466" x2="174.1414" y2="107.41466"/>
</svg>