<svg id="e02c3209-a35c-4703-b8b5-c32e1f48ae57" data-name="レイヤー 1" xmlns="http://www.w3.org/2000/svg" viewBox="0 0 356 261.99998"><ellipse cx="121.5623" cy="82.71362" rx="82.47146" ry="82.71362" style="fill:#009d90"/><path d="M197.07207,109.02946l22.68231-8.33771-17.37481-19.013" style="fill:#009d90"/><path d="M92.56462,121.88981l.38146-9.803,3.20711.12551-.38146,9.803Z" style="fill:#fff"/><path d="M115.01455,122.7684l.38146-9.803,3.20741.12552-.38146,9.803Z" style="fill:#fff"/><path d="M71.26367,115.07354c.62867-.43585,3.3218,5.03877,12.02723,5.37948l52.07776,2.038-.12513,3.21647-54.52131-2.13364c-6.33826-.248-10.08747-8.06479-9.45855-8.50027Z" style="fill:#fff"/><path d="M164.69731,59.26173l-47.59159.59143.07095-1.83735,51.93952-2.26335Z" style="fill:#fff"/><path d="M61.45792,55.22123l47.40064,4.30921.072-1.83736L57.32486,51.37816Z" style="fill:#fff"/><ellipse cx="113.09528" cy="56.78175" rx="2.75127" ry="2.75909" style="fill:#fff"/><path d="M110.30039,65.72317l.2086-5.36066,4.58163.1793-.20859,5.36066Z" style="fill:#fff"/><path d="M108.18824,61.03847l.16689-4.28887,9.46855.37054-.16689,4.28887Z" style="fill:#fff"/><path d="M122.915,71.73924l-21.382-.837,1.44829-5.77262,18.93706.74174Z" style="fill:#fff"/><path d="M164.7283,83.34671l13.28774.51923L183.46746,69.506l-4.73276-.18445Z" style="fill:#fff"/><path d="M179.37136,96.19111l-6.10912-.23854-6.95473-9.93652,10.38409.406Z" style="fill:#fff"/><path d="M179.84514,86.61347l-41.79733,4.99478.4118-10.568L179.998,82.665Z" style="fill:#fff"/><path d="M136.95354,101.32612c.57908-1.049,1.12-2.09981,1.61978-3.13467-7.90606,2.82192-19.62289,6.11847-30.37015,5.69786l-37.4267-1.46464a10.47236,10.47236,0,0,0,.54985,2.62987l36.77558,1.4392c10.07893.39442,21.00823-2.48091,28.8517-5.16756Z" style="fill:#fff"/><path d="M72.14191,106.82484c4.48983,7.71735,18.21615,8.69923,18.21615,8.69923l28.42045,1.11218c6.66916.261,12.64389-6.10666,16.94154-13.1815-7.7386,2.56546-18.09779,5.14988-27.68574,4.77466Z" style="fill:#fff;opacity:0.800000011920929;isolation:isolate"/><path d="M108.10184,106.49368l-36.77552-1.4392a10.23054,10.23054,0,0,0,.81566,1.7703l35.89233,1.40463c9.58795.37522,19.9472-2.2092,27.68574-4.77466q.64323-1.05709,1.23349-2.12869c-7.84347,2.68671-18.77283,5.562-28.8517,5.16755Z" style="fill:#fff;opacity:0.8999999761581421;isolation:isolate"/><path d="M122.98106,71.52683c-10.2312-3.25324-18.29991-3.10555-25.97751-1.01645-8.90754,2.4234-25.7541,17.4105-26.26362,30.49779a11.83843,11.83843,0,0,0,.03672,1.41643c6.32326.2476,25.63606,1.00335,37.42664,1.46465,10.74726.42061,22.4636-2.87582,30.37-5.69786,2.47058-5.11721,3.93595-9.84249,4.01673-11.9242C142.81077,80.602,134.19251,75.092,122.98106,71.52683ZM85.50018,100.0887c-4.78552-.18734-9.8762-.38654-9.8762-.38654s1.92225-9.60774,8.99033-16.16383c12.48252-11.57921,20.11522-11.17817,20.11522-11.17817S98.10484,90.61133,96.435,94.21494c-1.37886,2.97677-6.14932,6.061-10.93478,5.87376Zm31.77849-8.11355-16.77573,2.51369,7.13428-19.76506s11.08035-.2818,11.83518,3.0202C120.22772,81.04586,117.27867,91.97515,117.27867,91.97515Z" style="fill:#fff"/><ellipse cx="45.91605" cy="38.20094" rx="30.1146" ry="30.20021" style="fill:#fff"/><ellipse cx="45.91605" cy="38.20094" rx="30.1146" ry="30.20021" style="fill:none;stroke:#00ab9d;stroke-miterlimit:10;stroke-width:2.7530817844968962px"/><path d="M37.5942,44.59081c1.14936,2.06249,3.35706,2.9425,6.47229,3.06388a147.85768,147.85768,0,0,0,15.42434-.2731A16.82751,16.82751,0,0,0,58.43225,50.748c-3.841.21241-10.55509.2731-14.33553.091-3.65966-.15172-6.1697-1.03173-7.98452-3.3967-1.11862,1.21289-2.26795,2.39531-3.68943,3.70015l-1.69378-3.427a44.81462,44.81462,0,0,0,3.50836-2.82112V38.19091H31.15262V34.88524h6.44155ZM34.81206,30.82094a21.19686,21.19686,0,0,0-3.87116-5.24679l2.8429-1.78938a21.49664,21.49664,0,0,1,4.08279,5.03436Zm8.831,4.3374c-.121,3.70016-.75623,8.28033-3.59913,11.34324a11.575,11.575,0,0,0-2.11692-2.09284c2.57056-3.03257,2.81267-7.5217,2.81267-10.73633V30.0026H38.411V27.02974h3.56863V23.14752h3.3268v3.88222h3.26653v1.54669a19.51745,19.51745,0,0,0,2.17744-5.61092l2.9942.66759c-.21182.84967-.45365,1.668-.726,2.48733h5.77658V29.0923H51.74851A14.88172,14.88172,0,0,1,50.72018,30.912h5.59527l.60469-.18207,1.8751,1.42623a31.32111,31.32111,0,0,1-3.32681,4.42746v.3338h3.50836v2.85147H55.46843v3.63946c0,1.39491-.21157,2.24457-1.17937,2.72912a8.72462,8.72462,0,0,1-3.90148.54621,10.68862,10.68862,0,0,0-.96781-2.97187c1.08884.03034,2.2077.03034,2.54055.03034.36284,0,.45365-.091.45365-.39449V39.76892H49.08716V36.91745H52.414V35.06737h1.02808c.36311-.45518.726-1.00041,1.05858-1.51628H49.84316V31.73135A19.3752,19.3752,0,0,0,47.726,30.00266H43.67345v2.21422h4.74826v1.24317c-.18156,8.1286-.36284,11.13082-1.05859,12.10187a2.26885,2.26885,0,0,1-1.72379,1.12179,16.41745,16.41745,0,0,1-2.63133.12138,7.30122,7.30122,0,0,0-.78625-2.88084,14.58373,14.58373,0,0,0,1.754.09006.80534.80534,0,0,0,.756-.39351c.36311-.54621.51417-2.63905.6352-8.46239Z" style="fill:#00ab9d"/><path d="M20.04857,180.36748H335.95146A20.07705,20.07705,0,0,1,356,200.473v.002a20.07705,20.07705,0,0,1-20.04854,20.10554H20.04857A20.0771,20.0771,0,0,1,0,200.475v-.002A20.0771,20.0771,0,0,1,20.04857,180.36748Z" style="fill:#009d90"/><path d="M20.794,191.78951h3.66133v18.38332H20.794Z" style="fill:#fff"/><path d="M27.49889,207.84115l2.10276-2.5304a7.19609,7.19609,0,0,0,4.65065,2.03411c1.90462,0,2.91879-.81932,2.91879-2.1085,0-1.36456-1.113-1.78646-2.74554-2.48146l-2.449-1.04152c-1.85533-.7694-3.7109-2.2573-3.7109-4.93746,0-3.00124,2.6223-5.30846,6.333-5.30846a8.11029,8.11029,0,0,1,5.739,2.35616l-1.85532,2.30722a5.83233,5.83233,0,0,0-3.88367-1.51335c-1.60789,0-2.62206.71948-2.62206,1.93524,0,1.31561,1.28626,1.78645,2.84485,2.40706l2.39926,1.01706c2.22649.9172,3.686,2.33168,3.686,4.9864,0,3.00124-2.49858,5.55709-6.72852,5.55709A9.74327,9.74327,0,0,1,27.49889,207.84115Z" style="fill:#fff"/><path d="M43.9018,191.78951h11.231v3.07662H47.56316v4.24245H53.995v3.07564H47.56316v4.912h7.84177v3.07661H43.9018Z" style="fill:#fff"/><path d="M57.658,207.84115l2.10276-2.5304a7.19609,7.19609,0,0,0,4.65065,2.03411c1.90486,0,2.919-.81932,2.919-2.1085,0-1.36456-1.11324-1.78646-2.74578-2.48146l-2.449-1.04152c-1.85557-.7694-3.7109-2.2573-3.7109-4.93746,0-3.00124,2.6223-5.30846,6.333-5.30846a8.11082,8.11082,0,0,1,5.73924,2.35616l-1.85533,2.30722a5.83153,5.83153,0,0,0-3.88391-1.51335c-1.60789,0-2.62206.71948-2.62206,1.93524,0,1.31561,1.28626,1.78645,2.84485,2.40706L67.38,199.97685c2.22649.9172,3.686,2.33168,3.686,4.9864,0,3.00124-2.49858,5.55709-6.72877,5.55709A9.74327,9.74327,0,0,1,57.658,207.84115Z" style="fill:#fff"/><path d="M74.06118,191.78951h3.66136v7.24468H84.649v-7.24468h3.63647v18.38332H84.649v-7.93869H77.72254v7.93869H74.06118Z" style="fill:#fff"/><path d="M92.5427,191.78951h3.66136v18.38332H92.5427Z" style="fill:#fff"/><path d="M100.45963,191.78951h4.05717l3.11694,8.60923c.39581,1.14039.74208,2.35616,1.11324,3.522h.12372c.39581-1.16584.71744-2.38161,1.11325-3.522l3.04276-8.60923h4.05692v18.38332H113.7439v-7.66559c0-1.73652.27233-4.29237.47023-6.0289h-.12372l-1.48441,4.31685-2.8202,7.71551h-2.10252l-2.84486-7.71551-1.45976-4.31685h-.09883c.173,1.73653.47,4.29238.47,6.0289v7.66559h-3.2902Z" style="fill:#fff"/><path d="M124.8539,191.78951h4.30437l5.8876,18.38332H131.2115l-1.28651-4.71329h-5.9369l-1.28626,4.71329h-3.71089Zm-.07419,10.8166h4.35366l-.54417-2.00963c-.56907-1.90979-1.06371-4.0183-1.583-6.00346h-.12372c-.47,2.00964-1.01417,4.09367-1.55859,6.00346Z" style="fill:#fff"/><path d="M141.10918,207.84115l2.10277-2.5304a7.196,7.196,0,0,0,4.65064,2.03411c1.90486,0,2.919-.81932,2.919-2.1085,0-1.36456-1.113-1.78646-2.74577-2.48146l-2.449-1.04152c-1.85532-.7694-3.71089-2.2573-3.71089-4.93746,0-3.00124,2.6223-5.30846,6.33295-5.30846a8.11274,8.11274,0,0,1,5.73924,2.35616l-1.85557,2.30722a5.83093,5.83093,0,0,0-3.88367-1.51335c-1.60789,0-2.62206.71948-2.62206,1.93524,0,1.31561,1.28626,1.78645,2.84486,2.40706l2.39926,1.01706c2.22649.9172,3.68625,2.33168,3.68625,4.9864,0,3.00124-2.49883,5.55709-6.72877,5.55709A9.74327,9.74327,0,0,1,141.10918,207.84115Z" style="fill:#fff"/><path d="M157.51283,191.78951h3.66087v7.98862h.07418l6.06117-7.98862h4.03228l-5.59111,7.24468,6.58039,11.13864h-4.00739l-4.74977-8.26074-2.39975,3.1001v5.16064h-3.66087Z" style="fill:#fff"/><path d="M176.662,203.4499l-5.49156-11.66039h3.88392l1.83068,4.49109c.51928,1.36358,1.01417,2.65374,1.58324,4.06822h.09858c.56907-1.41448,1.11325-2.70464,1.633-4.06822l1.83068-4.49109h3.80973l-5.51693,11.66039v6.72293H176.662Z" style="fill:#fff"/><path d="M187.69734,191.78951h5.02156c5.59111,0,9.05432,2.92783,9.05432,9.13,0,6.17671-3.46321,9.25332-8.85618,9.25332h-5.2197Zm4.799,15.431c3.41392,0,5.54134-1.8354,5.54134-6.301,0-4.49012-2.12742-6.1777-5.54134-6.1777h-1.13813v12.47873Z" style="fill:#fff"/><path d="M205.11491,191.78951h3.66087v18.38332h-3.66087Z" style="fill:#fff"/><path d="M210.65722,191.78951h3.83413l2.42415,8.95576c.56907,2.03508.96488,3.87048,1.534,5.93h.124c.59347-2.05956.98928-3.895,1.55835-5.93l2.37486-8.95576h3.71065l-5.59062,18.38332h-4.3788Z" style="fill:#fff"/><path d="M228.0748,191.78951h3.66087v18.38332H228.0748Z" style="fill:#fff"/><path d="M235.992,191.78951H239.727l5.3183,9.79955,1.83068,3.96935h.12347c-.17277-1.90979-.47-4.34133-.47-6.42536v-7.34354h3.4637v18.38332h-3.71065l-5.2939-9.824-1.85514-3.94488h-.124c.17325,1.98517.44559,4.29238.44559,6.40088v7.368H235.9919Z" style="fill:#fff"/><path d="M253.35976,201.06829c0-6.05337,3.9088-9.60083,8.782-9.60083a7.6952,7.6952,0,0,1,5.66536,2.35616l-1.92975,2.33267a4.89946,4.89946,0,0,0-3.61158-1.5388c-3.043,0-5.17042,2.38161-5.17042,6.32649,0,3.99382,1.83069,6.40088,5.44226,6.40088a3.65932,3.65932,0,0,0,2.27579-.695V203.028h-3.24072v-3.00222h6.50621v8.2862a8.60508,8.60508,0,0,1-5.93715,2.20835C257.16949,210.52034,253.35976,207.19607,253.35976,201.06829Z" style="fill:#fff"/><path d="M276.22057,201.06829c0-6.05337,3.88391-9.60083,8.51015-9.60083a7.45846,7.45846,0,0,1,5.36808,2.35616l-1.90487,2.33267a4.81515,4.81515,0,0,0-3.389-1.5388c-2.77066,0-4.84878,2.38161-4.84878,6.32649,0,3.99382,1.88,6.40088,4.7746,6.40088a5.0462,5.0462,0,0,0,3.78484-1.81093l1.92927,2.28177a7.39879,7.39879,0,0,1-5.83807,2.70464C279.981,210.52034,276.22057,207.19607,276.22057,201.06829Z" style="fill:#fff"/><path d="M293.14381,191.78951h3.66087v15.30671h7.4462v3.07661H293.14381Z" style="fill:#fff"/><path d="M306.13275,201.91209V191.78951h3.66136v10.44463c0,3.82056,1.33579,5.11072,3.46321,5.11072,2.17671,0,3.56235-1.29016,3.56235-5.11072V191.78951h3.5125v10.12258c0,6.10232-2.59741,8.60825-7.07479,8.60825C308.80434,210.52034,306.13275,208.01441,306.13275,201.91209Z" style="fill:#fff"/><path d="M324.4908,191.78951h6.06062c3.76,0,6.6292,1.1169,6.6292,4.54a4.16442,4.16442,0,0,1-2.49834,3.96935v.12431a4.17134,4.17134,0,0,1,3.43833,4.34133c0,3.69624-3.06741,5.40829-7.0992,5.40829H324.4908Zm5.78829,7.49233c2.32556,0,3.33973-.94266,3.33973-2.40608,0-1.61319-1.08835-2.25827-3.29-2.25827h-2.1772v4.66435Zm.4207,8.063c2.49882,0,3.85853-.89372,3.85853-2.80351,0-1.78645-1.33531-2.55487-3.85853-2.55487h-2.54812v5.35838Z" style="fill:#fff"/><path d="M32.63392,239.4491A36.50972,36.50972,0,0,1,28.75,246.27188a69.53953,69.53953,0,0,1,6.90154,7.0949l-2.81969,2.456a56.51609,56.51609,0,0,0-6.23412-7.02051,32.59686,32.59686,0,0,1-9.30153,6.97058l-2.54811-2.67918a27.72206,27.72206,0,0,0,10.14268-7.11938,19.22954,19.22954,0,0,0,3.686-6.07883H20.19059c-1.03906,0-2.3995.14879-2.919.17424v-3.523a27.66783,27.66783,0,0,0,2.919.17326h8.73246a8.86041,8.86041,0,0,0,2.54812-.322l2.02858,1.51335a11.72341,11.72341,0,0,0-.86586,1.53781Z" style="fill:none;stroke:#fff;stroke-linecap:round;stroke-linejoin:round;stroke-width:5.506162614414606px"/><path d="M51.01808,237.043c-.02465.7694-.04954,1.51335-.09883,2.23282h4.65064a11.39427,11.39427,0,0,0,1.85533-.17424l2.1523,1.04251a10.1542,10.1542,0,0,0-.17326,1.31463c-.09883,2.67919-.39581,9.60083-1.45951,12.13123a3.04426,3.04426,0,0,1-3.19113,1.91077c-1.41022,0-2.89439-.09985-4.08181-.19872l-.39581-3.32426a20.43435,20.43435,0,0,0,3.46321.3475,1.316,1.316,0,0,0,1.41022-.86827c.71744-1.56326,1.03906-6.52519,1.03906-9.20438H50.62227c-.91534,6.54967-3.26531,10.44462-7.69337,13.59465l-2.86974-2.33169a14.1626,14.1626,0,0,0,7.32248-11.263H44.11633c-.84116,0-2.20184,0-3.26555.09887V239.1016c1.03906.09985,2.32532.17424,3.26555.17424h3.5374c.02489-.695.04953-1.41448.04953-2.15842a18.39853,18.39853,0,0,0-.17325-2.28275h3.63671C51.09226,235.40536,51.043,236.44786,51.01808,237.043Z" style="fill:none;stroke:#fff;stroke-linecap:round;stroke-linejoin:round;stroke-width:5.506162614414606px"/><path d="M75.16612,240.6404a31.74274,31.74274,0,0,0,6.976-6.02891l2.67159,2.55585a45.42783,45.42783,0,0,1-6.65434,5.38285v10.02272a17.08725,17.08725,0,0,0,.2228,3.24988H74.47358a27.90042,27.90042,0,0,0,.173-3.24988v-7.93869a49.494,49.494,0,0,1-8.73245,3.5729l-1.5586-3.12653A39.73211,39.73211,0,0,0,75.16612,240.6404Z" style="fill:none;stroke:#fff;stroke-linecap:round;stroke-linejoin:round;stroke-width:5.506162614414606px"/><path d="M107.92242,237.7625l-1.38533.59516,1.80579,1.11689a13.28419,13.28419,0,0,0-.81627,1.78548,26.87062,26.87062,0,0,1-3.66136,7.14482c1.06371.7694,2.02859,1.48888,2.77067,2.084l-2.37486,2.80351c-.6679-.62061-1.58324-1.389-2.59741-2.20835a23.16221,23.16221,0,0,1-8.83153,5.88012l-2.8695-2.50593a20.53173,20.53173,0,0,0,9.05408-5.4083c-1.60812-1.16584-3.24066-2.28176-4.50251-3.10108l2.20184-2.25729c1.31115.74395,2.8695,1.761,4.45274,2.828a18.33848,18.33848,0,0,0,2.69648-5.4827h-7.075a29.78831,29.78831,0,0,1-6.53085,6.42535l-2.6716-2.084a23.1176,23.1176,0,0,0,7.8913-8.23627,11.23431,11.23431,0,0,0,1.11325-2.57934l3.58693,1.11592c-.59371.86826-1.23672,1.98516-1.5337,2.5304h5.0467a7.784,7.784,0,0,0,1.92951-.22319,25.537,25.537,0,0,0-1.60813-2.828l1.9544-.79387A31.48064,31.48064,0,0,1,107.92242,237.7625Zm2.96857-1.16585-1.9544.86827a26.301,26.301,0,0,0-2.00369-3.42411l1.95415-.81835a38.832,38.832,0,0,1,2.00388,3.37419Z" style="fill:none;stroke:#fff;stroke-linecap:round;stroke-linejoin:round;stroke-width:5.506162614414606px"/><path d="M123.9075,240.6404a31.743,31.743,0,0,0,6.976-6.02891l2.67159,2.55585a45.44667,45.44667,0,0,1-6.65434,5.38285v10.02272a17.11246,17.11246,0,0,0,.22255,3.24988H123.215a27.90042,27.90042,0,0,0,.173-3.24988v-7.93869a49.494,49.494,0,0,1-8.73245,3.5729l-1.5586-3.12653A39.73211,39.73211,0,0,0,123.9075,240.6404Z" style="fill:none;stroke:#fff;stroke-linecap:round;stroke-linejoin:round;stroke-width:5.506162614414606px"/><path d="M143.058,238.28326v4.68882a62.26842,62.26842,0,0,0,8.5592-2.75358,15.93593,15.93593,0,0,0,2.69648-1.34008l1.3358,3.151c-.96488.39743-2.07813.86827-2.89415,1.16585A85.15646,85.15646,0,0,1,143.058,246.222v4.59c0,1.066.49488,1.33911,1.60813,1.56229a22.94315,22.94315,0,0,0,2.86949.14879,41.76464,41.76464,0,0,0,8.60874-.86826v3.62282a70.24636,70.24636,0,0,1-8.80664.52077,27.52021,27.52021,0,0,1-4.15606-.27311c-2.15231-.39645-3.389-1.58774-3.389-3.72169V238.28326a20.64485,20.64485,0,0,0-.19791-2.58032h3.66112A18.69385,18.69385,0,0,0,143.058,238.28326Zm12.83892-.24766-2.00394.84282a29.73705,29.73705,0,0,0-1.92927-3.44761l1.95416-.79387C154.53614,235.55415,155.42683,237.11742,155.89689,238.0356Zm2.94392-1.14137-1.95464.8438a26.27117,26.27117,0,0,0-2.00345-3.42412l1.95416-.79387a27.41649,27.41649,0,0,1,2.00387,3.37419Z" style="fill:none;stroke:#fff;stroke-linecap:round;stroke-linejoin:round;stroke-width:5.506162614414606px"/><path d="M171.70829,249.14978a23.33523,23.33523,0,0,0,9.00454-9.65075l1.92976,3.49753a26.34674,26.34674,0,0,1-9.15292,9.17991,26.74208,26.74208,0,0,1-9.17829,3.49753l-2.07763-3.27435A25.45666,25.45666,0,0,0,171.70829,249.14978Zm0-8.01309-2.52323,2.57934a51.55588,51.55588,0,0,0-6.18458-5.35837l2.32556-2.48048A49.97616,49.97616,0,0,1,171.70829,241.13669Z" style="fill:none;stroke:#fff;stroke-linecap:round;stroke-linejoin:round;stroke-width:5.506162614414606px"/><path d="M205.94948,237.81242l-1.83068.76842,2.10252,1.29016a9.95249,9.95249,0,0,0-.816,1.78645,25.21593,25.21593,0,0,1-4.3295,8.26075,23.03317,23.03317,0,0,1-9.96943,7.02149l-2.919-2.63025a19.77855,19.77855,0,0,0,9.96942-6.15224,17.56739,17.56739,0,0,0,3.513-6.74838h-6.95132a27.82959,27.82959,0,0,1-6.25877,6.00443l-2.77067-2.084a21.42662,21.42662,0,0,0,7.71805-7.98862,11.21547,11.21547,0,0,0,1.11324-2.58032l3.63647,1.19129a25.78457,25.78457,0,0,0-1.50905,2.5304c-.0244.04993-.04929.0744-.07419.12432h4.94787a7.75154,7.75154,0,0,0,2.15231-.29856l.17277.09985a28.782,28.782,0,0,0-1.80579-3.20093l1.95464-.79387a31.66454,31.66454,0,0,1,1.95422,3.39964Zm2.96833-1.14137-1.95416.84281a26.28465,26.28465,0,0,0-2.00394-3.42313l1.95465-.79387A35.41834,35.41834,0,0,1,208.91781,236.67105Z" style="fill:none;stroke:#fff;stroke-linecap:round;stroke-linejoin:round;stroke-width:5.506162614414606px"/><path d="M216.46747,234.73581h2.39932L212.732,259.2469h-2.42415Z" style="fill:none;stroke:#fff;stroke-linecap:round;stroke-linejoin:round;stroke-width:5.506162614414606px"/><path d="M224.21187,245.35369c1.13814-1.14137,3.0674-3.57192,4.74972-5.607,1.48416-1.73653,2.94392-2.00865,4.87319-.19773,1.65742,1.56229,3.53788,3.54745,5.02205,5.15966,1.68231,1.78645,4.205,4.51556,6.10991,6.54967l-2.72137,2.92685c-1.68183-2.05858-3.75946-4.61443-5.21922-6.32551-1.45934-1.71206-3.63647-4.11814-4.52717-5.03633-.816-.79387-1.33579-.74394-2.02834.14879-.98977,1.24024-2.72137,3.69625-3.73554,5.03633-.54418.79387-1.13814,1.66213-1.58324,2.30721l-2.96833-3.07661A20.08591,20.08591,0,0,0,224.21187,245.35369Z" style="fill:none;stroke:#fff;stroke-linecap:round;stroke-linejoin:round;stroke-width:5.506162614414606px"/><path d="M254.00008,237.58826v8.386c0,.61963.02489,1.58774.07419,2.15843h-3.58718c.02489-.47182.124-1.439.124-2.18388v-8.36059a17.67041,17.67041,0,0,0-.09907-1.90979h3.56235c-.0493.57068-.07419,1.11592-.07419,1.90979Zm11.45359.373v4.912c0,5.3339-1.03906,7.64111-2.86925,9.67522a14.56766,14.56766,0,0,1-6.01133,3.57193l-2.573-2.72911a11.17661,11.17661,0,0,0,5.93715-3.12556c1.70671-1.86085,2.02834-3.72071,2.02834-7.5912v-4.71329a17.55023,17.55023,0,0,0-.14837-2.48145h3.73561C265.50345,236.17476,265.45367,236.96863,265.45367,237.96121Z" style="fill:none;stroke:#fff;stroke-linecap:round;stroke-linejoin:round;stroke-width:5.506162614414606px"/><path d="M276.3909,251.28275c.94,1.68759,2.74627,2.40706,5.29389,2.50593a120.859,120.859,0,0,0,12.61662-.22318,13.74488,13.74488,0,0,0-.86581,2.75358c-3.14158.17326-8.63362.22318-11.72592.07439-2.99322-.12431-5.04645-.84379-6.53061-2.778-.91559.9916-1.85557,1.95971-3.01811,3.02571l-1.38558-2.80253a36.67833,36.67833,0,0,0,2.86974-2.30721V246.0487H271.1219v-2.70464h5.269Zm-2.27578-11.263a17.32376,17.32376,0,0,0-3.16654-4.2914l2.32556-1.4644a17.57838,17.57838,0,0,1,3.33925,4.11814Zm7.22358,3.54745c-.09907,3.02669-.61836,6.77285-2.94392,9.27878a9.44407,9.44407,0,0,0-1.73161-1.71206c2.10253-2.48047,2.30068-6.15224,2.30068-8.78248v-3.00124H277.059v-2.43153h2.919v-3.17548h2.72137v3.17548H285.371v1.26568a15.96893,15.96893,0,0,0,1.7809-4.59l2.449.54621c-.17277.694-.37091,1.36456-.59347,2.03411h4.72477v2.43153h-5.76389a12.25383,12.25383,0,0,1-.84091,1.48789h4.57646l.49488-.14879,1.53346,1.16585a25.58519,25.58519,0,0,1-2.72089,3.62184v.27311h2.86926v2.33267h-2.86926v2.97676c0,1.14137-.17326,1.8354-.96488,2.23282a7.14774,7.14774,0,0,1-3.19136.44637,8.749,8.749,0,0,0-.79162-2.43153c.89069.02545,1.80579.02545,2.07812.02545.29673,0,.37092-.0744.37092-.323v-2.92684h-2.72089v-2.33267h2.72089v-1.51334h.84091c.29722-.372.594-.81835.86629-1.24024H286.41v-1.48887a16.12249,16.12249,0,0,0-1.7316-1.4135h-3.31533v1.81092H285.247v1.01705c-.14837,6.64854-.29674,9.10454-.86581,9.89841a1.85478,1.85478,0,0,1-1.41.91819,13.49,13.49,0,0,1-2.1523.09887,5.96251,5.96251,0,0,0-.64325-2.35616,11.83293,11.83293,0,0,0,1.43487.07439.65839.65839,0,0,0,.61836-.323c.29722-.44636.4207-2.15842.51977-6.92164Z" style="fill:none;stroke:#fff;stroke-linecap:round;stroke-linejoin:round;stroke-width:5.506162614414606px"/><path d="M317.03972,254.35937c.76721,0,.94-.27311,1.03906-2.00964a8.62231,8.62231,0,0,0,2.42415.91819c-.27184,2.67919-.98928,3.37321-3.19088,3.37321H313.7c-2.94343,0-3.66087-.694-3.66087-2.92684v-1.1169h-2.69648c-.71744,2.50592-2.5979,3.74616-8.60923,4.31685a6.7201,6.7201,0,0,0-1.26161-2.23282c4.7995-.27213,6.30855-.81835,6.92691-2.084h-3.21577v-8.45946h15.65913v8.45946h-3.9337v1.09242c0,.59516.17326.66956,1.18743.66956Zm-7.61946-10.84107h-10.662v-8.9812h10.26616v1.63766h-3.53739v.79387h3.19142v2.38161a14.04655,14.04655,0,0,0,2.82-5.63149l2.6223.57069a16.01532,16.01532,0,0,1-.61836,1.8354h6.70381v2.28274h-7.718a15.52708,15.52708,0,0,1-1.68231,2.62926,13.87435,13.87435,0,0,0-2.12742-1.439v1.36456h-3.19136v.89371h3.9332Zm-8.03967-7.34354v.79387h1.7565v-.79387Zm4.72483,2.35714h-4.72483v.86826h4.72483Zm-4.72483,3.32426h1.7565v-.89371h-1.7565Zm2.57252,4.6389H313.923v-.79387h-9.96991Zm0,2.2573H313.923v-.79387h-9.96991Zm0,2.30721H313.923v-.81834h-9.96991Zm7.4462-8.2118V240.615h8.21341v2.23282Z" style="fill:none;stroke:#fff;stroke-linecap:round;stroke-linejoin:round;stroke-width:5.506162614414606px"/><path d="M32.63392,239.4491A36.50972,36.50972,0,0,1,28.75,246.27188a69.53953,69.53953,0,0,1,6.90154,7.0949l-2.81969,2.456a56.51609,56.51609,0,0,0-6.23412-7.02051,32.59686,32.59686,0,0,1-9.30153,6.97058l-2.54811-2.67918a27.72206,27.72206,0,0,0,10.14268-7.11938,19.22954,19.22954,0,0,0,3.686-6.07883H20.19059c-1.03906,0-2.3995.14879-2.919.17424v-3.523a27.66783,27.66783,0,0,0,2.919.17326h8.73246a8.86041,8.86041,0,0,0,2.54812-.322l2.02858,1.51335a11.72341,11.72341,0,0,0-.86586,1.53781Z" style="fill:#009d90"/><path d="M51.01808,237.043c-.02465.7694-.04954,1.51335-.09883,2.23282h4.65064a11.39427,11.39427,0,0,0,1.85533-.17424l2.1523,1.04251a10.1542,10.1542,0,0,0-.17326,1.31463c-.09883,2.67919-.39581,9.60083-1.45951,12.13123a3.04426,3.04426,0,0,1-3.19113,1.91077c-1.41022,0-2.89439-.09985-4.08181-.19872l-.39581-3.32426a20.43435,20.43435,0,0,0,3.46321.3475,1.316,1.316,0,0,0,1.41022-.86827c.71744-1.56326,1.03906-6.52519,1.03906-9.20438H50.62227c-.91534,6.54967-3.26531,10.44462-7.69337,13.59465l-2.86974-2.33169a14.1626,14.1626,0,0,0,7.32248-11.263H44.11633c-.84116,0-2.20184,0-3.26555.09887V239.1016c1.03906.09985,2.32532.17424,3.26555.17424h3.5374c.02489-.695.04953-1.41448.04953-2.15842a18.39853,18.39853,0,0,0-.17325-2.28275h3.63671C51.09226,235.40536,51.043,236.44786,51.01808,237.043Z" style="fill:#009d90"/><path d="M75.16612,240.6404a31.74274,31.74274,0,0,0,6.976-6.02891l2.67159,2.55585a45.42783,45.42783,0,0,1-6.65434,5.38285v10.02272a17.08725,17.08725,0,0,0,.2228,3.24988H74.47358a27.90042,27.90042,0,0,0,.173-3.24988v-7.93869a49.494,49.494,0,0,1-8.73245,3.5729l-1.5586-3.12653A39.73211,39.73211,0,0,0,75.16612,240.6404Z" style="fill:#009d90"/><path d="M107.92242,237.7625l-1.38533.59516,1.80579,1.11689a13.28419,13.28419,0,0,0-.81627,1.78548,26.87062,26.87062,0,0,1-3.66136,7.14482c1.06371.7694,2.02859,1.48888,2.77067,2.084l-2.37486,2.80351c-.6679-.62061-1.58324-1.389-2.59741-2.20835a23.16221,23.16221,0,0,1-8.83153,5.88012l-2.8695-2.50593a20.53173,20.53173,0,0,0,9.05408-5.4083c-1.60812-1.16584-3.24066-2.28176-4.50251-3.10108l2.20184-2.25729c1.31115.74395,2.8695,1.761,4.45274,2.828a18.33848,18.33848,0,0,0,2.69648-5.4827h-7.075a29.78831,29.78831,0,0,1-6.53085,6.42535l-2.6716-2.084a23.1176,23.1176,0,0,0,7.8913-8.23627,11.23431,11.23431,0,0,0,1.11325-2.57934l3.58693,1.11592c-.59371.86826-1.23672,1.98516-1.5337,2.5304h5.0467a7.784,7.784,0,0,0,1.92951-.22319,25.537,25.537,0,0,0-1.60813-2.828l1.9544-.79387A31.48064,31.48064,0,0,1,107.92242,237.7625Zm2.96857-1.16585-1.9544.86827a26.301,26.301,0,0,0-2.00369-3.42411l1.95415-.81835a38.832,38.832,0,0,1,2.00388,3.37419Z" style="fill:#009d90"/><path d="M123.9075,240.6404a31.743,31.743,0,0,0,6.976-6.02891l2.67159,2.55585a45.44667,45.44667,0,0,1-6.65434,5.38285v10.02272a17.11246,17.11246,0,0,0,.22255,3.24988H123.215a27.90042,27.90042,0,0,0,.173-3.24988v-7.93869a49.494,49.494,0,0,1-8.73245,3.5729l-1.5586-3.12653A39.73211,39.73211,0,0,0,123.9075,240.6404Z" style="fill:#009d90"/><path d="M143.058,238.28326v4.68882a62.26842,62.26842,0,0,0,8.5592-2.75358,15.93593,15.93593,0,0,0,2.69648-1.34008l1.3358,3.151c-.96488.39743-2.07813.86827-2.89415,1.16585A85.15646,85.15646,0,0,1,143.058,246.222v4.59c0,1.066.49488,1.33911,1.60813,1.56229a22.94315,22.94315,0,0,0,2.86949.14879,41.76464,41.76464,0,0,0,8.60874-.86826v3.62282a70.24636,70.24636,0,0,1-8.80664.52077,27.52021,27.52021,0,0,1-4.15606-.27311c-2.15231-.39645-3.389-1.58774-3.389-3.72169V238.28326a20.64485,20.64485,0,0,0-.19791-2.58032h3.66112A18.69385,18.69385,0,0,0,143.058,238.28326Zm12.83892-.24766-2.00394.84282a29.73705,29.73705,0,0,0-1.92927-3.44761l1.95416-.79387C154.53614,235.55415,155.42683,237.11742,155.89689,238.0356Zm2.94392-1.14137-1.95464.8438a26.27117,26.27117,0,0,0-2.00345-3.42412l1.95416-.79387a27.41649,27.41649,0,0,1,2.00387,3.37419Z" style="fill:#009d90"/><path d="M171.70829,249.14978a23.33523,23.33523,0,0,0,9.00454-9.65075l1.92976,3.49753a26.34674,26.34674,0,0,1-9.15292,9.17991,26.74208,26.74208,0,0,1-9.17829,3.49753l-2.07763-3.27435A25.45666,25.45666,0,0,0,171.70829,249.14978Zm0-8.01309-2.52323,2.57934a51.55588,51.55588,0,0,0-6.18458-5.35837l2.32556-2.48048A49.97616,49.97616,0,0,1,171.70829,241.13669Z" style="fill:#009d90"/><path d="M205.94948,237.81242l-1.83068.76842,2.10252,1.29016a9.95249,9.95249,0,0,0-.816,1.78645,25.21593,25.21593,0,0,1-4.3295,8.26075,23.03317,23.03317,0,0,1-9.96943,7.02149l-2.919-2.63025a19.77855,19.77855,0,0,0,9.96942-6.15224,17.56739,17.56739,0,0,0,3.513-6.74838h-6.95132a27.82959,27.82959,0,0,1-6.25877,6.00443l-2.77067-2.084a21.42662,21.42662,0,0,0,7.71805-7.98862,11.21547,11.21547,0,0,0,1.11324-2.58032l3.63647,1.19129a25.78457,25.78457,0,0,0-1.50905,2.5304c-.0244.04993-.04929.0744-.07419.12432h4.94787a7.75154,7.75154,0,0,0,2.15231-.29856l.17277.09985a28.782,28.782,0,0,0-1.80579-3.20093l1.95464-.79387a31.66454,31.66454,0,0,1,1.95422,3.39964Zm2.96833-1.14137-1.95416.84281a26.28465,26.28465,0,0,0-2.00394-3.42313l1.95465-.79387A35.41834,35.41834,0,0,1,208.91781,236.67105Z" style="fill:#009d90"/><path d="M216.46747,234.73581h2.39932L212.732,259.2469h-2.42415Z" style="fill:#009d90"/><path d="M224.21187,245.35369c1.13814-1.14137,3.0674-3.57192,4.74972-5.607,1.48416-1.73653,2.94392-2.00865,4.87319-.19773,1.65742,1.56229,3.53788,3.54745,5.02205,5.15966,1.68231,1.78645,4.205,4.51556,6.10991,6.54967l-2.72137,2.92685c-1.68183-2.05858-3.75946-4.61443-5.21922-6.32551-1.45934-1.71206-3.63647-4.11814-4.52717-5.03633-.816-.79387-1.33579-.74394-2.02834.14879-.98977,1.24024-2.72137,3.69625-3.73554,5.03633-.54418.79387-1.13814,1.66213-1.58324,2.30721l-2.96833-3.07661A20.08591,20.08591,0,0,0,224.21187,245.35369Z" style="fill:#009d90"/><path d="M254.00008,237.58826v8.386c0,.61963.02489,1.58774.07419,2.15843h-3.58718c.02489-.47182.124-1.439.124-2.18388v-8.36059a17.67041,17.67041,0,0,0-.09907-1.90979h3.56235c-.0493.57068-.07419,1.11592-.07419,1.90979Zm11.45359.373v4.912c0,5.3339-1.03906,7.64111-2.86925,9.67522a14.56766,14.56766,0,0,1-6.01133,3.57193l-2.573-2.72911a11.17661,11.17661,0,0,0,5.93715-3.12556c1.70671-1.86085,2.02834-3.72071,2.02834-7.5912v-4.71329a17.55023,17.55023,0,0,0-.14837-2.48145h3.73561C265.50345,236.17476,265.45367,236.96863,265.45367,237.96121Z" style="fill:#009d90"/><path d="M276.3909,251.28275c.94,1.68759,2.74627,2.40706,5.29389,2.50593a120.859,120.859,0,0,0,12.61662-.22318,13.74488,13.74488,0,0,0-.86581,2.75358c-3.14158.17326-8.63362.22318-11.72592.07439-2.99322-.12431-5.04645-.84379-6.53061-2.778-.91559.9916-1.85557,1.95971-3.01811,3.02571l-1.38558-2.80253a36.67833,36.67833,0,0,0,2.86974-2.30721V246.0487H271.1219v-2.70464h5.269Zm-2.27578-11.263a17.32376,17.32376,0,0,0-3.16654-4.2914l2.32556-1.4644a17.57838,17.57838,0,0,1,3.33925,4.11814Zm7.22358,3.54745c-.09907,3.02669-.61836,6.77285-2.94392,9.27878a9.44407,9.44407,0,0,0-1.73161-1.71206c2.10253-2.48047,2.30068-6.15224,2.30068-8.78248v-3.00124H277.059v-2.43153h2.919v-3.17548h2.72137v3.17548H285.371v1.26568a15.96893,15.96893,0,0,0,1.7809-4.59l2.449.54621c-.17277.694-.37091,1.36456-.59347,2.03411h4.72477v2.43153h-5.76389a12.25383,12.25383,0,0,1-.84091,1.48789h4.57646l.49488-.14879,1.53346,1.16585a25.58519,25.58519,0,0,1-2.72089,3.62184v.27311h2.86926v2.33267h-2.86926v2.97676c0,1.14137-.17326,1.8354-.96488,2.23282a7.14774,7.14774,0,0,1-3.19136.44637,8.749,8.749,0,0,0-.79162-2.43153c.89069.02545,1.80579.02545,2.07812.02545.29673,0,.37092-.0744.37092-.323v-2.92684h-2.72089v-2.33267h2.72089v-1.51334h.84091c.29722-.372.594-.81835.86629-1.24024H286.41v-1.48887a16.12249,16.12249,0,0,0-1.7316-1.4135h-3.31533v1.81092H285.247v1.01705c-.14837,6.64854-.29674,9.10454-.86581,9.89841a1.85478,1.85478,0,0,1-1.41.91819,13.49,13.49,0,0,1-2.1523.09887,5.96251,5.96251,0,0,0-.64325-2.35616,11.83293,11.83293,0,0,0,1.43487.07439.65839.65839,0,0,0,.61836-.323c.29722-.44636.4207-2.15842.51977-6.92164Z" style="fill:#009d90"/><path d="M317.03972,254.35937c.76721,0,.94-.27311,1.03906-2.00964a8.62231,8.62231,0,0,0,2.42415.91819c-.27184,2.67919-.98928,3.37321-3.19088,3.37321H313.7c-2.94343,0-3.66087-.694-3.66087-2.92684v-1.1169h-2.69648c-.71744,2.50592-2.5979,3.74616-8.60923,4.31685a6.7201,6.7201,0,0,0-1.26161-2.23282c4.7995-.27213,6.30855-.81835,6.92691-2.084h-3.21577v-8.45946h15.65913v8.45946h-3.9337v1.09242c0,.59516.17326.66956,1.18743.66956Zm-7.61946-10.84107h-10.662v-8.9812h10.26616v1.63766h-3.53739v.79387h3.19142v2.38161a14.04655,14.04655,0,0,0,2.82-5.63149l2.6223.57069a16.01532,16.01532,0,0,1-.61836,1.8354h6.70381v2.28274h-7.718a15.52708,15.52708,0,0,1-1.68231,2.62926,13.87435,13.87435,0,0,0-2.12742-1.439v1.36456h-3.19136v.89371h3.9332Zm-8.03967-7.34354v.79387h1.7565v-.79387Zm4.72483,2.35714h-4.72483v.86826h4.72483Zm-4.72483,3.32426h1.7565v-.89371h-1.7565Zm2.57252,4.6389H313.923v-.79387h-9.96991Zm0,2.2573H313.923v-.79387h-9.96991Zm0,2.30721H313.923v-.81834h-9.96991Zm7.4462-8.2118V240.615h8.21341v2.23282Z" style="fill:#009d90"/></svg>