<svg id="e94b44ad-7b8a-4bcf-8c33-ad02a97dd8e3" data-name="レイヤー 1" xmlns="http://www.w3.org/2000/svg" viewBox="0 0 334 272"><path d="M20.02256,193.04937H313.97744A20.012,20.012,0,0,1,334,213.05084v.00195a20.012,20.012,0,0,1-20.02256,20.00147H20.02256A20.012,20.012,0,0,1,0,213.05279v-.00195A20.012,20.012,0,0,1,20.02256,193.04937Z" style="fill:#009d90"/><path d="M37.4908,207.47334H32.35194v-3.06069H46.3355v3.06069H41.14693v15.22748H37.4908Z" style="fill:#fff"/><path d="M46.21364,218.9497c0-2.96233,2.39664-4.51653,7.98-5.10861-.07409-1.35749-.66679-2.3946-2.37178-2.3946a7.82433,7.82433,0,0,0-3.8048,1.30783l-1.3092-2.39363a11.05989,11.05989,0,0,1,5.78127-1.8259c3.508,0,5.31141,2.09759,5.31141,6.09606v8.07H54.83608l-.24712-1.48116H54.49a6.50592,6.50592,0,0,1-4.17523,1.82686,3.9286,3.9286,0,0,1-4.10115-3.74759Q46.2058,219.12438,46.21364,218.9497Zm7.98-.09933v-2.788c-3.38464.41874-4.5213,1.35652-4.5213,2.59131,0,1.0858.76622,1.55421,1.82831,1.55421A3.76133,3.76133,0,0,0,54.19367,218.85037Z" style="fill:#fff"/><path d="M59.952,221.097l1.65528-2.27093a6.01093,6.01093,0,0,0,3.70584,1.50551c1.38379,0,2.00134-.59208,2.00134-1.45585,0-1.03711-1.433-1.50551-2.89088-2.07324-1.75373-.66609-3.70584-1.72754-3.70584-4.04813,0-2.46764,2.00134-4.21953,5.16371-4.21953a7.67411,7.67411,0,0,1,4.69433,1.70223l-1.6309,2.19691a5.15286,5.15286,0,0,0-2.96448-1.18512c-1.26,0-1.85317.54338-1.85317,1.33314,0,1.01179,1.28484,1.38184,2.74222,1.92523,1.82831.6914,3.85451,1.60386,3.85451,4.17083,0,2.41895-1.9024,4.36851-5.50978,4.36851a8.78581,8.78581,0,0,1-5.26218-1.94944Z" style="fill:#fff"/><path d="M72.38073,215.79066c0-4.59055,3.18723-7.25587,6.64547-7.25587,3.45872,0,6.64595,2.66532,6.64595,7.25587s-3.18723,7.25586-6.64595,7.25586C75.568,223.04652,72.38073,220.3812,72.38073,215.79066Zm9.58558,0c0-2.59131-1.06258-4.29451-2.94011-4.29451-1.877,0-2.93963,1.7032-2.93963,4.29451,0,2.61566,1.06258,4.29451,2.93963,4.29451C80.90373,220.08517,81.96631,218.40632,81.96631,215.79066Z" style="fill:#fff"/><path d="M92.91325,220.3812l2.0998-2.5173a7.20114,7.20114,0,0,0,4.6451,2.02358c1.90239,0,2.91525-.81508,2.91525-2.09759,0-1.35749-1.1118-1.7772-2.74271-2.46861l-2.44586-1.03613c-1.85268-.76542-3.70585-2.24561-3.70585-4.9119,0-2.98571,2.6189-5.281,6.32475-5.281a8.11847,8.11847,0,0,1,5.732,2.344l-1.85316,2.29527a5.83669,5.83669,0,0,0-3.87888-1.50551c-1.60556,0-2.6189.71575-2.6189,1.92523,0,1.3088,1.28483,1.7772,2.84116,2.3946l2.39664,1.01179c2.22361.91246,3.68147,2.31961,3.68147,4.96059,0,2.9857-2.49558,5.52832-6.72053,5.52832A9.75022,9.75022,0,0,1,92.91325,220.3812Z" style="fill:#fff"/><path d="M108.99856,203.00647h3.63175v4.96059l-.17254,2.59131a6.296,6.296,0,0,1,4.34826-2.02358c2.98934,0,4.27369,2.07325,4.27369,5.55267v8.61336H117.448v-8.1693c0-2.14725-.5927-2.88735-1.95162-2.88735-1.13618,0-1.85268.54339-2.866,1.55518v9.50147h-3.63175Z" style="fill:#fff"/><path d="M124.2689,204.66a2.11555,2.11555,0,1,1,2.22665,1.99619q-.051.00274-.102.003A1.94655,1.94655,0,0,1,124.2689,204.66Zm.29635,4.2205H128.197v13.82032h-3.63176Z" style="fill:#fff"/><path d="M131.82926,208.8805h2.965l.2715,2.44329h.07408a4.79181,4.79181,0,0,1,3.9286-2.789,3.90769,3.90769,0,0,1,1.63042.296l-.61756,3.13373a4.62881,4.62881,0,0,0-1.45787-.222c-1.087,0-2.39615.71575-3.16238,2.715v8.24331h-3.63175Z" style="fill:#fff"/><path d="M140.89768,218.9497c0-2.96233,2.39664-4.51653,7.98-5.10861-.07409-1.35749-.66679-2.3946-2.37178-2.3946a7.82433,7.82433,0,0,0-3.8048,1.30783l-1.3092-2.39363a11.05989,11.05989,0,0,1,5.78127-1.8259c3.508,0,5.31189,2.09759,5.31189,6.09606v8.07h-2.965l-.24712-1.48116h-.09894a6.506,6.506,0,0,1-4.17523,1.82686,3.9286,3.9286,0,0,1-4.10115-3.74759Q140.88982,219.12438,140.89768,218.9497Zm7.98-.09933v-2.788c-3.38464.41874-4.5213,1.35652-4.5213,2.59131,0,1.0858.76622,1.55421,1.82831,1.55421A3.76133,3.76133,0,0,0,148.87771,218.85037Z" style="fill:#fff"/><path d="M155.94577,203.00647h3.63175v4.96059l-.17254,2.59131a6.296,6.296,0,0,1,4.34826-2.02358c2.98934,0,4.27369,2.07325,4.27369,5.55267v8.61336h-3.63176v-8.1693c0-2.14725-.5927-2.88735-1.95162-2.88735-1.13618,0-1.85268.54339-2.866,1.55518v9.50147h-3.63175Z" style="fill:#fff"/><path d="M170.82033,218.9497c0-2.96233,2.39664-4.51653,7.98-5.10861-.07409-1.35749-.66679-2.3946-2.37178-2.3946a7.8243,7.8243,0,0,0-3.80479,1.30783l-1.30921-2.39363a11.05992,11.05992,0,0,1,5.78128-1.8259c3.50795,0,5.3114,2.09759,5.3114,6.09606v8.07h-2.96448l-.24712-1.48116h-.099a6.50592,6.50592,0,0,1-4.17523,1.82686,3.92859,3.92859,0,0,1-4.10114-3.74759Q170.81247,219.12438,170.82033,218.9497Zm7.98-.09933v-2.788c-3.38464.41874-4.5213,1.35652-4.5213,2.59131,0,1.0858.76622,1.55421,1.82831,1.55421A3.76133,3.76133,0,0,0,178.80035,218.85037Z" style="fill:#fff"/><path d="M185.86792,208.8805h2.965l.27149,1.85024h.07409a5.82673,5.82673,0,0,1,4.24981-2.196,3.766,3.766,0,0,1,3.80479,2.418c1.26-1.33218,2.594-2.418,4.39749-2.418,2.94011,0,4.299,2.07325,4.299,5.55267v8.61336h-3.63176v-8.1693c0-2.14725-.61805-2.88735-1.92726-2.88735a4.0352,4.0352,0,0,0-2.66813,1.55518v9.50147h-3.60738v-8.1693c0-2.14725-.64242-2.88735-1.95163-2.88735a3.94277,3.94277,0,0,0-2.64376,1.55518v9.50147h-3.63176Z" style="fill:#fff"/><path d="M208.74883,218.9497c0-2.96233,2.39664-4.51653,7.98-5.10861-.07409-1.35749-.66679-2.3946-2.37178-2.3946a7.8243,7.8243,0,0,0-3.80479,1.30783l-1.30921-2.39363a11.0599,11.0599,0,0,1,5.78128-1.8259c3.50795,0,5.31189,2.09759,5.31189,6.09606v8.07h-2.965l-.24712-1.48116h-.09895a6.50592,6.50592,0,0,1-4.17523,1.82686,3.92859,3.92859,0,0,1-4.10114-3.74759Q208.741,219.12438,208.74883,218.9497Zm7.98-.09933v-2.788c-3.38464.41874-4.5213,1.35652-4.5213,2.59131,0,1.0858.76622,1.55421,1.82831,1.55421A3.76133,3.76133,0,0,0,216.72885,218.85037Z" style="fill:#fff"/><path d="M229.45487,204.41265h6.05277c3.75507,0,6.62109,1.11112,6.62109,4.51654a4.14181,4.14181,0,0,1-2.49509,3.9488v.12367a4.15319,4.15319,0,0,1,3.43386,4.31886c0,3.67711-3.06343,5.3803-7.09048,5.3803h-6.52215Zm5.78079,7.45355c2.32255,0,3.3354-.93778,3.3354-2.39363,0-1.60484-1.08694-2.24658-3.28569-2.24658H233.111v4.64021Zm.42015,8.02128c2.49559,0,3.854-.88909,3.854-2.789,0-1.77721-1.33406-2.54165-3.854-2.54165H233.111v5.33064Z" style="fill:#fff"/><path d="M244.87339,215.79066c0-4.46687,3.16237-7.25587,6.44855-7.25587,3.80479,0,5.78128,2.789,5.78128,6.58881a6.82008,6.82008,0,0,1-.173,1.67885h-8.52349a3.63373,3.63373,0,0,0,3.80235,3.45642l.02681-.00134a5.71245,5.71245,0,0,0,3.11315-.96213l1.23511,2.22127a8.71747,8.71747,0,0,1-4.81764,1.52985C247.88759,223.04652,244.87339,220.35588,244.87339,215.79066Zm9.11668-1.40716c0-1.85121-.83982-3.03537-2.6189-3.03537-1.45738,0-2.74222,1.03614-3.0142,3.03537Z" style="fill:#fff"/><path d="M258.80967,218.9497c0-2.96233,2.39664-4.51653,7.97953-5.10861-.07408-1.35749-.66679-2.3946-2.37178-2.3946a7.82455,7.82455,0,0,0-3.8043,1.30783l-1.30921-2.39363a11.05825,11.05825,0,0,1,5.78079-1.8259c3.50795,0,5.31189,2.09759,5.31189,6.09606v8.07h-2.965l-.24712-1.48116h-.099a6.50592,6.50592,0,0,1-4.17523,1.82686,3.92836,3.92836,0,0,1-4.10065-3.74783Q258.80181,219.12432,258.80967,218.9497Zm7.97953-.09933v-2.788c-3.38463.41874-4.52081,1.35652-4.52081,2.59131,0,1.0858.76574,1.55421,1.82782,1.55421A3.76131,3.76131,0,0,0,266.7892,218.85037Z" style="fill:#fff"/><path d="M272.9921,215.79066a6.89642,6.89642,0,0,1,6.52653-7.24844q.26961-.01425.53958-.00743a6.05214,6.05214,0,0,1,4.02705,1.52986l-1.72936,2.34494a3.147,3.147,0,0,0-2.10029-.91344c-2.12466,0-3.55767,1.7032-3.55767,4.29451,0,2.61566,1.45787,4.29451,3.43435,4.29451a4.2991,4.2991,0,0,0,2.693-1.11112l1.45739,2.39362a6.97256,6.97256,0,0,1-4.54567,1.67885C275.90735,223.04652,272.9921,220.3812,272.9921,215.79066Z" style="fill:#fff"/><path d="M286.63154,203.00647h3.63176v4.96059l-.17255,2.59131a6.296,6.296,0,0,1,4.34826-2.02358c2.98934,0,4.27369,2.07325,4.27369,5.55267v8.61336h-3.63176v-8.1693c0-2.14725-.5927-2.88735-1.95162-2.88735-1.13617,0-1.85268.54339-2.866,1.55518v9.50147h-3.63176Z" style="fill:#fff"/><path d="M49.52712,255.193a41.13531,41.13531,0,0,1-8.425,9.64949c1.40864,1.40716,2.866,3.011,3.82965,4.17083l-2.89039,2.29527a64.39744,64.39744,0,0,0-4.71919-5.33064,52.61516,52.61516,0,0,0-5.43521-4.73856l2.6189-2.09759c.988.7401,2.61891,2.07324,4.17523,3.43074a27.41012,27.41012,0,0,0,6.27552-7.10785H31.88694c-.98848,0-2.32255.1227-2.84116.17236V252.182a23.8353,23.8353,0,0,0,2.84116.222H45.59852a7.96227,7.96227,0,0,0,2.29769-.27169l2.47073,2.02358A8.60211,8.60211,0,0,0,49.52712,255.193Z" style="fill:#009d90"/><path d="M59.51238,252.65038V260.993c0,.61642.02486,1.57952.07409,2.14725H56.00394c.02486-.46938.1238-1.4315.1238-2.17257v-8.31732a17.51171,17.51171,0,0,0-.09894-1.89991h3.55767C59.53724,251.3182,59.51238,251.86062,59.51238,252.65038Zm11.43875.371V257.908c0,5.3063-1.03772,7.60157-2.86554,9.62515a14.56,14.56,0,0,1-6.00354,3.55344l-2.56967-2.715a11.17656,11.17656,0,0,0,5.92945-3.10938c1.70451-1.85121,2.02571-3.70145,2.02571-7.5519v-4.6889a17.38183,17.38183,0,0,0-.14817-2.46861h3.7307C71.00084,251.24419,70.95113,252.034,70.95113,253.0214Z" style="fill:#009d90"/><path d="M86.84,264.15206a23.25089,23.25089,0,0,0,8.99288-9.6008l1.92725,3.47942a26.26229,26.26229,0,0,1-9.14105,9.1324,26.77324,26.77324,0,0,1-9.16592,3.47943l-2.07494-3.2574A25.49006,25.49006,0,0,0,86.84,264.15206Zm0-7.97162-2.52,2.566a51.46436,51.46436,0,0,0-6.17608-5.33064l2.32206-2.46763A49.87527,49.87527,0,0,1,86.84,256.18044Z" style="fill:#009d90"/><path d="M118.12158,254.50159a36.26646,36.26646,0,0,1-3.87888,6.78746,69.32173,69.32173,0,0,1,6.89307,7.05819l-2.8163,2.44329a56.31224,56.31224,0,0,0-6.2258-6.98418,32.54455,32.54455,0,0,1-9.28972,6.93451l-2.54481-2.66532a27.68618,27.68618,0,0,0,10.12953-7.08252,19.12049,19.12049,0,0,0,3.68148-6.04737h-8.37532c-1.03771,0-2.39664.148-2.91574.17334v-3.50475a27.75126,27.75126,0,0,0,2.91574.17237h8.7209a8.88128,8.88128,0,0,0,2.54481-.32039l2.02572,1.50551A11.728,11.728,0,0,0,118.12158,254.50159Z" style="fill:#009d90"/><path d="M128.27987,267.72984l-2.66813-1.8259a25.717,25.717,0,0,0,4.64462-6.36775l2.79144,1.30881A38.71551,38.71551,0,0,1,128.27987,267.72984Zm10.3518-15.35018v1.97391h5.75642a20.07049,20.07049,0,0,0,2.44587-.17236v3.23305c-.7906-.04966-1.75422-.074-2.421-.074h-5.78128v11.47636c0,1.4315-.81545,2.31962-2.56967,2.31962a35.75141,35.75141,0,0,1-4.02705-.222l-.29635-3.06069a17.0726,17.0726,0,0,0,2.74221.296c.64242,0,.88954-.24637.9144-.88811.02437-.91344.02437-8.737.02437-9.89684v-.02435h-6.275c-.74136,0-1.705.02435-2.39664.09836v-3.28272a18.71759,18.71759,0,0,0,2.39664.19768h6.275v-1.97391a12.75389,12.75389,0,0,0-.22226-2.14726h3.65662A20.04662,20.04662,0,0,0,138.63167,252.37966Zm9.26486,13.574-2.91574,1.57952a46.79932,46.79932,0,0,0-4.00219-6.61412l2.693-1.45683A57.41081,57.41081,0,0,1,147.89653,265.95361Zm-2.76708-17.62208a2.863,2.863,0,1,1-2.866,2.863h0a2.8455,2.8455,0,0,1,2.82788-2.863C145.10411,248.3314,145.11678,248.3314,145.12945,248.33153Zm0,4.19615a1.33432,1.33432,0,1,0-.04886,0C145.09692,252.52792,145.11313,252.52792,145.12945,252.52768Z" style="fill:#009d90"/><path d="M156.12806,258.426h13.26706c1.16054,0,2.248-.09836,2.89039-.148v3.87479c-.59319-.02532-1.85268-.12367-2.89039-.12367H156.12806c-1.40815,0-3.06343.04966-3.97782.12367V258.278C153.03978,258.352,154.84323,258.426,156.12806,258.426Z" style="fill:#009d90"/><path d="M182.56761,258.91977l-3.18723,1.15981a61.5047,61.5047,0,0,0-2.84117-6.98417l3.16238-1.0858C180.443,253.56381,181.99928,257.24092,182.56761,258.91977Zm14.65035-4.5662a28.06869,28.06869,0,0,1-4.15037,9.30477,22.36741,22.36741,0,0,1-9.70939,7.23054l-2.76707-2.76367a19.81362,19.81362,0,0,0,9.75861-6.36775,22.36758,22.36758,0,0,0,3.80479-10.36525l3.70585,1.06146A14.46092,14.46092,0,0,0,197.218,254.35357Zm-8.05411,2.73933-3.11266,1.0858a63.117,63.117,0,0,0-2.56967-6.68813l3.08829-1.01179A59.664,59.664,0,0,1,189.16385,257.0929Z" style="fill:#009d90"/><path d="M207.15351,266.274c.93876,1.67885,2.7427,2.3946,5.287,2.493a121.171,121.171,0,0,0,12.60026-.222,13.63891,13.63891,0,0,0-.86468,2.73933c-3.13751.17236-8.62244.222-11.71072.074-2.98934-.12368-5.03992-.83943-6.52216-2.76368-.91439.98647-1.85316,1.94957-3.01419,3.01l-1.38379-2.788a36.58592,36.58592,0,0,0,2.866-2.29527V261.067h-2.52v-2.69063h5.26218Zm-2.27284-11.20467a17.23785,17.23785,0,0,0-3.16237-4.26918l2.32255-1.45683a17.49811,17.49811,0,0,1,3.33492,4.09683Zm7.21429,3.52909c-.09895,3.011-.61756,6.7378-2.94011,9.23076a9.41184,9.41184,0,0,0-1.72937-1.7032c2.09981-2.46763,2.2977-6.1204,2.2977-8.737v-2.9857h-1.9024v-2.419H210.736v-3.159h2.71785v3.159H216.122v1.25914a15.84931,15.84931,0,0,0,1.77859-4.5662l2.44587.54338c-.17254.69044-.37044,1.3575-.5927,2.02358h4.7187v2.41895h-5.75641a12.17746,12.17746,0,0,1-.83983,1.48019h4.57053l.49424-.148,1.53147,1.15981a25.45647,25.45647,0,0,1-2.71736,3.6031v.2717h2.86554v2.32059h-2.86554v2.96136c0,1.13546-.173,1.82589-.96362,2.22126a7.16418,7.16418,0,0,1-3.18724.44406,8.68368,8.68368,0,0,0-.79059-2.41895c.88954.02532,1.80345.02532,2.07543.02532.29635,0,.37044-.074.37044-.32136v-2.91157h-2.71736V260.03h2.71736V258.5244h.83982c.29684-.37.59319-.8141.86517-1.23381h-3.80467v-1.48117a16.095,16.095,0,0,0-1.72936-1.40618h-3.311v1.80155h3.87888v1.01179c-.14818,6.61412-.29635,9.05741-.86468,9.84717a1.85308,1.85308,0,0,1-1.40815.91344,13.52421,13.52421,0,0,1-2.14952.09835,5.916,5.916,0,0,0-.64242-2.344,11.86453,11.86453,0,0,0,1.433.074.65818.65818,0,0,0,.61756-.32136c.29684-.44406.42016-2.14725.5191-6.88582Z" style="fill:#009d90"/><path d="M230.45505,252.45367a38.69106,38.69106,0,0,0,8.079-1.23382l.93877,2.73933a10.761,10.761,0,0,0-1.26.54241c-1.68013,1.25914-5.01554,5.08427-5.01554,9.82283,0,2.88735,1.87754,4.02282,4.24932,4.02282,5.43569,0,7.18943-5.8,5.28752-14.73376-.173-.49373-.34607-1.01179-.5191-1.52986l3.11314-.86377a16.93108,16.93108,0,0,0,5.287,10.48892l-2.00134,2.83768a21.08482,21.08482,0,0,1-2.74222-3.80078c.34558,5.62765-1.58118,10.90863-8.47426,10.90863-3.97783,0-7.36246-2.1716-7.36246-6.63847,0-3.99847,1.65527-7.00949,3.953-9.94651-.93877.09933-2.49509.2717-3.23646.37-.51861.074-.88954.12368-1.45738.222l-.22275-3.20773A13.12093,13.12093,0,0,0,230.45505,252.45367Zm18.52972.96212-1.85317.6174a28.75383,28.75383,0,0,0-1.433-3.6031l1.85317-.56773C247.99628,250.87415,248.6387,252.404,248.98477,253.41579Zm2.74222-.93778-1.85317.6174a32.4376,32.4376,0,0,0-1.45738-3.55441l1.77859-.61642A33.44477,33.44477,0,0,1,251.727,252.478Z" style="fill:#009d90"/><path d="M275.15234,255.98276a27.48363,27.48363,0,0,1-2.76708,9.10708,12.07258,12.07258,0,0,0,4.86688,4.09682,11.66294,11.66294,0,0,0-2.00135,2.5173,13.33151,13.33151,0,0,1-4.61975-3.97412,16.10831,16.10831,0,0,1-5.31189,4.17181,13.9265,13.9265,0,0,0-1.63042-2.567,12.93661,12.93661,0,0,0,5.33626-4.2205,28.20026,28.20026,0,0,1-1.85268-4.98494,14.58176,14.58176,0,0,1-1.03771,1.57953,16.88886,16.88886,0,0,0-2.00134-1.65353c-.12332,6.98417-.24712,9.67383-.88954,10.5376a2.21992,2.21992,0,0,1-1.62993,1.06146,14.29193,14.29193,0,0,1-2.64376.09933,8.02052,8.02052,0,0,0-.76574-2.6663c.7906.074,1.48225.074,1.87754.074a.71506.71506,0,0,0,.71651-.37c.32121-.49372.46938-2.59131.56833-8.44h-2.07543c-.02437,3.89914-.56833,8.02031-3.63176,11.377a10.78362,10.78362,0,0,0-2.14952-1.92523c2.64376-3.05971,3.0142-6.5888,3.0142-9.77316V255.267h-2.421v-2.715H257.982V248.8009h2.91525V252.552h4.0758v2.715h-5.68172V257.686h4.89125s0,.83845-.02437,1.15981v.24638c1.77859-2.51731,2.86553-6.34243,3.43386-10.29124l3.03906.41971c-.22226,1.38184-.5191,2.73933-.84031,4.04716h7.21429v2.715Zm-6.22629.17236a28.58659,28.58659,0,0,0,1.77908,5.92369,25.87754,25.87754,0,0,0,1.53195-6.096h-3.26132Z" style="fill:#009d90"/><path d="M287.68193,268.49525a19.6871,19.6871,0,0,0,5.48443.54339c1.68014,0,8.425,0,10.45075-.09933a7.95593,7.95593,0,0,0-.93877,2.41895h-9.512c-4.64461,0-7.708-.46938-9.68452-3.159A9.13371,9.13371,0,0,1,281.75248,272a8.22561,8.22561,0,0,0-1.705-1.99923c1.38379-1.7032,1.63091-4.61489,1.705-7.57625h2.34692c-.02486.91246-.07409,1.80155-.14818,2.68966a6.633,6.633,0,0,0,1.26,1.94957v-5.62668h-4.57053v-2.1229H291.709v2.1229h-4.027v2.02358h3.55767v2.12291h-3.55767Zm2.93962-10.58727h-8.86907v-8.145h8.86907Zm-2.71736-6.19538h-3.5333v1.16078h3.5333Zm0,3.011h-3.5333v1.20947h3.5333Zm8.86956,10.63791a14.48749,14.48749,0,0,1-4.32389,3.6031,17.56909,17.56909,0,0,0-1.87754-1.70319,11.27841,11.27841,0,0,0,3.80479-2.66532Zm-1.23561-12.14342c.14818-.41874.272-.88812.42016-1.33217H291.61V249.837h11.31543v2.0489h-4.32389l-.5927,1.33217H302.209v11.20467h-9.83319V253.21811Zm3.92811,1.97489h-4.49644v1.13546h4.49644Zm0,3.03537h-4.49644v1.13546h4.49644Zm0,3.011h-4.49644v1.18513h4.49644Zm.39579,3.20871a18.41251,18.41251,0,0,1,3.6069,3.10937l-2.10029,1.23382a19.81471,19.81471,0,0,0-3.53281-3.28174Z" style="fill:#009d90"/><ellipse cx="176.95571" cy="82.28544" rx="82.36453" ry="82.28544" style="fill:#009d90"/><ellipse cx="104.74132" cy="35.54592" rx="30.07557" ry="30.04389" style="fill:#fff"/><ellipse cx="104.74132" cy="35.54592" rx="30.07557" ry="30.04389" style="fill:none;stroke:#00ab9d;stroke-miterlimit:10;stroke-width:2.7441679206599243px"/><path d="M96.431,41.90211c1.14787,2.05182,3.353,2.92728,6.46366,3.048a148.25414,148.25414,0,0,0,15.40487-.27169,16.64068,16.64068,0,0,0-1.05721,3.34893c-3.836.21132-10.54141.27169-14.31744.09057-3.65467-.151-6.16146-1.0264-7.97369-3.37913-1.11765,1.20655-2.26552,2.38292-3.68537,3.681l-1.69134-3.40931a44.80614,44.80614,0,0,0,3.504-2.80653V35.53533h-3.081V32.24678H96.431Zm-2.77878-13.6986a21.0928,21.0928,0,0,0-3.8662-5.21962l2.83921-1.78013a21.39717,21.39717,0,0,1,4.07775,5.00831Zm8.81985,4.315c-.12088,3.681-.755,8.23747-3.59423,11.28452a11.54267,11.54267,0,0,0-2.11442-2.082c2.56723-3.01686,2.809-7.48276,2.809-10.68076V27.38941h-2.326V24.43194h3.56449V20.56981h3.32225v3.86213h3.2623v1.53862a19.38011,19.38011,0,0,0,2.17486-5.58188l2.98983.66414c-.21106.84527-.45282,1.65937-.7248,2.47445h5.76909v2.95649h-7.03735a14.85471,14.85471,0,0,1-1.027,1.81032h5.58777l.60391-.18113,1.87266,1.41884a31.2016,31.2016,0,0,1-3.32224,4.40455v.33207h3.50356v2.83671h-3.50356v3.62063c0,1.38768-.21154,2.233-1.17809,2.715a8.74393,8.74393,0,0,1-3.89643.54339,10.5975,10.5975,0,0,0-.96655-2.95649c1.08743.03019,2.20508.03019,2.537.03019.36264,0,.4533-.09057.4533-.39245V37.10512h-3.32273V34.26841h3.32273V32.4279h1.027c.36216-.45282.7248-.99523,1.05722-1.50843h-4.65205V29.10916a19.31972,19.31972,0,0,0-2.11394-1.71975h-4.04752v2.20276h4.74209v1.23674c-.18132,8.08652-.36264,11.0732-1.05721,12.03922a2.26589,2.26589,0,0,1-1.72156,1.116,16.45636,16.45636,0,0,1-2.62768.12075A7.2375,7.2375,0,0,0,101.052,41.239a14.63,14.63,0,0,0,1.75228.08959.80579.80579,0,0,0,.755-.39148c.36215-.54338.51325-2.62539.63413-8.41859Z" style="fill:#009d90"/><path d="M239.53067,62.23358c-1.70877-2.8456-3.133-2.8456-6.26565-2.7033s-5.26851-1.13814-9.54049-4.55244c-4.27211-3.41406-6.83556-2.845-11.81942-3.55636s-8.68617-5.69059-9.90289-7.682c-1.217-1.99181-2.20094-2.27616-1.06136-3.699,1.13886-1.4225,1.13886-3.69866.99678-6.4599-.14245-2.76087-1.56632-2.36027-1.56632-3.64047,0-1.28044-2.84836-2.70318-6.2659,0-3.41729,2.70269-3.987,8.82017-3.987,8.82017s-5.55353-1.13814-8.68654.56907c-3.13264,1.70685-5.26863,2.41822-12.38848,5.12152-7.12009,2.70293-9.11363,5.83264-10.96485,9.95794-1.851,4.12568-4.984,5.69059-9.11327,9.95832-4.12966,4.26809-3.70231,8.82017-1.28179,6.40195,2.42089-2.41858,3.27509-.42677,5.26863-2.23234,1.99379-1.80557.85457-3.8849,2.56334-5.16546,1.70877-1.28019,6.83519-6.544,9.11363-8.53545a9.71612,9.71612,0,0,1,5.69574-1.99156c-6.9774,9.38924-1.28143,13.657,1.56668,14.7951,2.84775,1.13778,3.987,6.82837-.56991,8.82018-4.55651,1.99156-6.9774,8.67787-7.54671,12.37652-.56991,3.699-.71212,8.10881-5.69634,12.3769-.63035.5401-1.17151,1.04733-1.63432,1.52425-12.19046,4.31411-24.98277,10.85045-25.27876,17.25423-.4271,9.24682,19.65115,7.5401,36.73883,2.70293,17.08781-4.83679,40.29858-25.18007,35.17227-30.444-1.24377-1.277-6.30744-.2521-12.7131,1.4-2.86176.03652-5.22342-.81143-1.66917-3.53384,4.27211-3.272,12.5313-8.96259,11.53453-15.50647-.997-6.544-9.39829-15.07983-9.39829-15.07983.99665-1.99157,8.54372-5.83252,8.54372-5.83252a15.78635,15.78635,0,0,0,7.97442,2.98729c4.84141.427,4.12941,1.84951,10.5375,3.4143,6.40786,1.56516,11.96139,2.56088,17.65736,4.6945,5.6961,2.1341,5.6961.28459,3.98721-2.56027ZM185.56158,84.28407c-.85457,4.12542-3.98721,6.6863-5.696,11.09645a4.21063,4.21063,0,0,0-.28014,1.12865c-2.84165.73827-5.69415,1.44136-8.40615,2.00094-1.768.36481-3.79139.86291-5.94955,1.45876,2.37056-7.33218,12.90953-18.56083,15.34784-21.94446a13.96628,13.96628,0,0,0,2.27844-8.109l7.832,8.2511S186.41615,80.15827,185.56158,84.28407Z" style="fill:#fff"/><path d="M163.10034,158.24476l13.52612,19.9596,14.18389-21.38952" style="fill:#009d90"/></svg>