<svg id="abccd13c-481b-469f-81db-6cc65ed8e676" data-name="レイヤー 1" xmlns="http://www.w3.org/2000/svg" viewBox="0 0 232 253.99999"><path d="M14.365,239.29227c.9939.98886,3.22966,3.58646,3.77611,4.25514l-1.68932,2.44923c-.472-.84147-1.26687-2.07828-2.08679-3.2409v9.12919H11.38431v-8.808a21.91078,21.91078,0,0,1-3.47814,5.91263,12.9369,12.9369,0,0,0-1.49034-2.77039,22.114,22.114,0,0,0,4.24805-7.34767H6.96227V236.1499h4.422v-3.2165c-1.21737.19816-2.40975.37095-3.55263.51933a10.10958,10.10958,0,0,0-.79492-2.30085,44.6174,44.6174,0,0,0,9.117-2.12709l1.91281,2.30085a31.71061,31.71061,0,0,1-3.70162,1.03865v3.78561h3.60213v2.72157H14.365Zm14.18454-8.16479v19.421H25.49386V248.767H21.51927v1.95424H18.61306V231.12754Zm-3.05568,14.81931V233.94765H21.51927v11.99914Z" style="fill:none;stroke:#fff;stroke-linecap:round;stroke-linejoin:round;stroke-width:4.132501795156901px"/><path d="M45.91766,250.91949l-1.86281-2.94415a19.122,19.122,0,0,0,2.31026-.39535c3.17967-.74287,5.66342-3.01833,5.66342-6.63018,0-3.41466-1.86281-5.96248-5.21647-6.53159a49.86683,49.86683,0,0,1-1.49035,6.70431c-1.49034,4.997-3.62711,8.06516-6.33434,8.06516-2.75771,0-5.043-3.01833-5.043-7.19929,0-5.71453,4.96848-10.58857,11.40232-10.58857,6.16037,0,10.03547,4.25515,10.03547,9.64851,0,5.22065-3.20418,8.90669-9.46452,9.87109Zm-6.8313-5.54175c1.04339,0,2.01229-1.55895,3.03069-4.89844a37.01592,37.01592,0,0,0,1.31686-5.98689,7.79841,7.79841,0,0,0-6.30985,7.17489C37.12406,244.16533,38.118,245.37774,39.08636,245.37774Z" style="fill:none;stroke:#fff;stroke-linecap:round;stroke-linejoin:round;stroke-width:4.132501795156901px"/><path d="M72.17837,232.14178v1.88012h4.32255a6.45711,6.45711,0,0,0,2.06179-.247l2.13628,1.311c-.174.5447-.37246,1.48476-.47195,1.9543a23.16436,23.16436,0,0,1-2.33525,7.02651,15.88605,15.88605,0,0,1-10.135,7.42186l-2.58373-2.96855a19.13558,19.13558,0,0,0,3.52763-.98984,12.35845,12.35845,0,0,0,5.63892-4.2053,15.05156,15.05156,0,0,0,2.18627-6.38321H64.20469V240.578a14.56414,14.56414,0,0,0,.099,1.83124H60.87554a18.71708,18.71708,0,0,0,.09949-2.07827v-4.27956a15.24528,15.24528,0,0,0-.09949-2.12806c.84491.07419,1.58984.0986,2.53423.0986h5.291v-1.88012a14.02643,14.02643,0,0,0-.174-2.27546h3.8256a14.02518,14.02518,0,0,0-.174,2.2754Zm7.35324.51933-1.9873.84146a33.82339,33.82339,0,0,0-1.93779-3.43906l1.9623-.79168A36.28206,36.28206,0,0,1,79.53161,232.66111Zm3.15468-.94006-1.9623.84146a28.96032,28.96032,0,0,0-1.9873-3.38928l1.9623-.81608A32.90085,32.90085,0,0,1,82.68629,231.72105Z" style="fill:none;stroke:#fff;stroke-linecap:round;stroke-linejoin:round;stroke-width:4.132501795156901px"/><path d="M94.49,239.16829a25.84418,25.84418,0,0,0,6.18488-5.29477l2.45924,2.40041a32.514,32.514,0,0,1-5.56442,4.50212v8.48589a13.72029,13.72029,0,0,0,.174,2.6718H94.06753c.0495-.49493.124-1.80593.124-2.6718v-6.53158a52.03413,52.03413,0,0,1-7.12926,2.89533L85.5969,242.706A32.91459,32.91459,0,0,0,94.49,239.16829Z" style="fill:none;stroke:#fff;stroke-linecap:round;stroke-linejoin:round;stroke-width:4.132501795156901px"/><path d="M126.53762,238.99453a17.75725,17.75725,0,0,1-3.67612,6.85373,18.61784,18.61784,0,0,1-8.86858,5.34358l-2.45925-2.79576a16.782,16.782,0,0,0,8.59511-4.32934,10.72107,10.72107,0,0,0,2.55874-4.28053H110.68925c-.59643,0-1.8383.02538-2.88169.124v-3.21553c1.04339.07419,2.11128.14838,2.88169.14838h12.29624a5.25715,5.25715,0,0,0,1.81331-.248l2.21127,1.36079A9.26149,9.26149,0,0,0,126.53762,238.99453ZM112.67655,230.905h9.564a23.37816,23.37816,0,0,0,2.68272-.124v3.1921c-.67092-.04979-1.8383-.07419-2.73271-.07419h-9.514c-.79492,0-1.8633.0244-2.58373.07419V230.781A20.9073,20.9073,0,0,0,112.67655,230.905Z" style="fill:none;stroke:#fff;stroke-linecap:round;stroke-linejoin:round;stroke-width:4.132501795156901px"/><path d="M137.37291,232.66111V241.024c0,.61792.025,1.58336.0745,2.15247h-3.60213c.025-.47052.12448-1.435.12448-2.17785v-8.33751a17.504,17.504,0,0,0-.09948-1.90452h3.57713C137.39791,231.3257,137.37291,231.86943,137.37291,232.66111Zm11.50132.37192v4.89845c0,5.31918-1.04339,7.62-2.88121,9.64851a14.637,14.637,0,0,1-6.03687,3.56207l-2.58324-2.72158a11.24939,11.24939,0,0,0,5.96189-3.11693c1.71383-1.85571,2.03679-3.71044,2.03679-7.57024V233.033a17.37261,17.37261,0,0,0-.149-2.4746h3.75111C148.9241,231.25151,148.87423,232.04319,148.87423,233.033Z" style="fill:none;stroke:#fff;stroke-linecap:round;stroke-linejoin:round;stroke-width:4.132501795156901px"/><path d="M163.31017,239.14389l-3.27916,1.85473A56.12418,56.12418,0,0,0,155.833,233.528l3.20417-1.63314C160.25449,233.62655,162.39077,237.41118,163.31017,239.14389Zm11.27784-6.72975-1.96279.81608,2.38475.47051c-.273.89028-.59594,2.12709-.72042,2.62195-1.21688,4.77545-3.57713,10.9605-11.77429,15.16586l-2.98119-2.52341c8.47063-3.61185,10.40842-9.72271,11.17835-13.112a13.85186,13.85186,0,0,0,.373-2.91974l1.41586.27235a23.48484,23.48484,0,0,0-1.9128-3.2653l2.06178-.84147A30.25887,30.25887,0,0,1,174.588,232.41414Zm3.40315-.84147-2.06179.89125a29.31223,29.31223,0,0,0-1.98729-3.31509l2.06179-.84146C176.6248,229.19764,177.51921,230.70681,177.99116,231.57267Z" style="fill:none;stroke:#fff;stroke-linecap:round;stroke-linejoin:round;stroke-width:4.132501795156901px"/><path d="M184.70238,238.4508h13.33914c1.16738,0,2.26076-.09859,2.90669-.14838v3.88427c-.59643-.02538-1.8633-.124-2.90669-.124H184.70238c-1.41585,0-3.08018.04979-3.99958.124v-3.8842C181.59721,238.37661,183.41052,238.4508,184.70238,238.4508Z" style="fill:none;stroke:#fff;stroke-linecap:round;stroke-linejoin:round;stroke-width:4.132501795156901px"/><path d="M209.69672,233.156a17.0954,17.0954,0,0,0-.24847-2.96855h3.8751a26.88469,26.88469,0,0,0-.22348,2.96855v3.66163a81.498,81.498,0,0,1,10.38343,3.83442l-1.41585,3.41466a71.76426,71.76426,0,0,0-8.96758-3.686v7.00113c0,.71749.12448,2.44922.22348,3.46347h-3.8751a27.07159,27.07159,0,0,0,.24847-3.46347Z" style="fill:none;stroke:#fff;stroke-linecap:round;stroke-linejoin:round;stroke-width:4.132501795156901px"/><path d="M14.365,239.29227c.9939.98886,3.22966,3.58646,3.77611,4.25514l-1.68932,2.44923c-.472-.84147-1.26687-2.07828-2.08679-3.2409v9.12919H11.38431v-8.808a21.91078,21.91078,0,0,1-3.47814,5.91263,12.9369,12.9369,0,0,0-1.49034-2.77039,22.114,22.114,0,0,0,4.24805-7.34767H6.96227V236.1499h4.422v-3.2165c-1.21737.19816-2.40975.37095-3.55263.51933a10.10958,10.10958,0,0,0-.79492-2.30085,44.6174,44.6174,0,0,0,9.117-2.12709l1.91281,2.30085a31.71061,31.71061,0,0,1-3.70162,1.03865v3.78561h3.60213v2.72157H14.365Zm14.18454-8.16479v19.421H25.49386V248.767H21.51927v1.95424H18.61306V231.12754Zm-3.05568,14.81931V233.94765H21.51927v11.99914Z" style="fill:#5e71a8"/><path d="M45.91766,250.91949l-1.86281-2.94415a19.122,19.122,0,0,0,2.31026-.39535c3.17967-.74287,5.66342-3.01833,5.66342-6.63018,0-3.41466-1.86281-5.96248-5.21647-6.53159a49.86683,49.86683,0,0,1-1.49035,6.70431c-1.49034,4.997-3.62711,8.06516-6.33434,8.06516-2.75771,0-5.043-3.01833-5.043-7.19929,0-5.71453,4.96848-10.58857,11.40232-10.58857,6.16037,0,10.03547,4.25515,10.03547,9.64851,0,5.22065-3.20418,8.90669-9.46452,9.87109Zm-6.8313-5.54175c1.04339,0,2.01229-1.55895,3.03069-4.89844a37.01592,37.01592,0,0,0,1.31686-5.98689,7.79841,7.79841,0,0,0-6.30985,7.17489C37.12406,244.16533,38.118,245.37774,39.08636,245.37774Z" style="fill:#5e71a8"/><path d="M72.17837,232.14178v1.88012h4.32255a6.45711,6.45711,0,0,0,2.06179-.247l2.13628,1.311c-.174.5447-.37246,1.48476-.47195,1.9543a23.16436,23.16436,0,0,1-2.33525,7.02651,15.88605,15.88605,0,0,1-10.135,7.42186l-2.58373-2.96855a19.13558,19.13558,0,0,0,3.52763-.98984,12.35845,12.35845,0,0,0,5.63892-4.2053,15.05156,15.05156,0,0,0,2.18627-6.38321H64.20469V240.578a14.56414,14.56414,0,0,0,.099,1.83124H60.87554a18.71708,18.71708,0,0,0,.09949-2.07827v-4.27956a15.24528,15.24528,0,0,0-.09949-2.12806c.84491.07419,1.58984.0986,2.53423.0986h5.291v-1.88012a14.02643,14.02643,0,0,0-.174-2.27546h3.8256a14.02518,14.02518,0,0,0-.174,2.2754Zm7.35324.51933-1.9873.84146a33.82339,33.82339,0,0,0-1.93779-3.43906l1.9623-.79168A36.28206,36.28206,0,0,1,79.53161,232.66111Zm3.15468-.94006-1.9623.84146a28.96032,28.96032,0,0,0-1.9873-3.38928l1.9623-.81608A32.90085,32.90085,0,0,1,82.68629,231.72105Z" style="fill:#5e71a8"/><path d="M94.49,239.16829a25.84418,25.84418,0,0,0,6.18488-5.29477l2.45924,2.40041a32.514,32.514,0,0,1-5.56442,4.50212v8.48589a13.72029,13.72029,0,0,0,.174,2.6718H94.06753c.0495-.49493.124-1.80593.124-2.6718v-6.53158a52.03413,52.03413,0,0,1-7.12926,2.89533L85.5969,242.706A32.91459,32.91459,0,0,0,94.49,239.16829Z" style="fill:#5e71a8"/><path d="M126.53762,238.99453a17.75725,17.75725,0,0,1-3.67612,6.85373,18.61784,18.61784,0,0,1-8.86858,5.34358l-2.45925-2.79576a16.782,16.782,0,0,0,8.59511-4.32934,10.72107,10.72107,0,0,0,2.55874-4.28053H110.68925c-.59643,0-1.8383.02538-2.88169.124v-3.21553c1.04339.07419,2.11128.14838,2.88169.14838h12.29624a5.25715,5.25715,0,0,0,1.81331-.248l2.21127,1.36079A9.26149,9.26149,0,0,0,126.53762,238.99453ZM112.67655,230.905h9.564a23.37816,23.37816,0,0,0,2.68272-.124v3.1921c-.67092-.04979-1.8383-.07419-2.73271-.07419h-9.514c-.79492,0-1.8633.0244-2.58373.07419V230.781A20.9073,20.9073,0,0,0,112.67655,230.905Z" style="fill:#5e71a8"/><path d="M137.37291,232.66111V241.024c0,.61792.025,1.58336.0745,2.15247h-3.60213c.025-.47052.12448-1.435.12448-2.17785v-8.33751a17.504,17.504,0,0,0-.09948-1.90452h3.57713C137.39791,231.3257,137.37291,231.86943,137.37291,232.66111Zm11.50132.37192v4.89845c0,5.31918-1.04339,7.62-2.88121,9.64851a14.637,14.637,0,0,1-6.03687,3.56207l-2.58324-2.72158a11.24939,11.24939,0,0,0,5.96189-3.11693c1.71383-1.85571,2.03679-3.71044,2.03679-7.57024V233.033a17.37261,17.37261,0,0,0-.149-2.4746h3.75111C148.9241,231.25151,148.87423,232.04319,148.87423,233.033Z" style="fill:#5e71a8"/><path d="M163.31017,239.14389l-3.27916,1.85473A56.12418,56.12418,0,0,0,155.833,233.528l3.20417-1.63314C160.25449,233.62655,162.39077,237.41118,163.31017,239.14389Zm11.27784-6.72975-1.96279.81608,2.38475.47051c-.273.89028-.59594,2.12709-.72042,2.62195-1.21688,4.77545-3.57713,10.9605-11.77429,15.16586l-2.98119-2.52341c8.47063-3.61185,10.40842-9.72271,11.17835-13.112a13.85186,13.85186,0,0,0,.373-2.91974l1.41586.27235a23.48484,23.48484,0,0,0-1.9128-3.2653l2.06178-.84147A30.25887,30.25887,0,0,1,174.588,232.41414Zm3.40315-.84147-2.06179.89125a29.31223,29.31223,0,0,0-1.98729-3.31509l2.06179-.84146C176.6248,229.19764,177.51921,230.70681,177.99116,231.57267Z" style="fill:#5e71a8"/><path d="M184.70238,238.4508h13.33914c1.16738,0,2.26076-.09859,2.90669-.14838v3.88427c-.59643-.02538-1.8633-.124-2.90669-.124H184.70238c-1.41585,0-3.08018.04979-3.99958.124v-3.8842C181.59721,238.37661,183.41052,238.4508,184.70238,238.4508Z" style="fill:#5e71a8"/><path d="M209.69672,233.156a17.0954,17.0954,0,0,0-.24847-2.96855h3.8751a26.88469,26.88469,0,0,0-.22348,2.96855v3.66163a81.498,81.498,0,0,1,10.38343,3.83442l-1.41585,3.41466a71.76426,71.76426,0,0,0-8.96758-3.686v7.00113c0,.71749.12448,2.44922.22348,3.46347h-3.8751a27.07159,27.07159,0,0,0,.24847-3.46347Z" style="fill:#5e71a8"/><ellipse cx="106.56862" cy="82.48528" rx="82.81506" ry="82.48528" style="fill:#5e71a8"/><ellipse cx="35.28698" cy="32.65739" rx="30.24008" ry="30.11684" style="fill:#fff"/><ellipse cx="35.28698" cy="32.65739" rx="30.24008" ry="30.11684" style="fill:none;stroke:#5e71a8;stroke-miterlimit:10;stroke-width:2.7550011967712673px"/><path d="M25.83789,32.225a23.45728,23.45728,0,0,0-5.436-3.29752l1.97406-2.6308a23.53387,23.53387,0,0,1,5.4968,2.99393Zm-4.31225,10.858A93.57583,93.57583,0,0,0,26.476,33.55547l2.76358,2.20811c-1.33646,3.1755-3.00667,6.62335-4.58621,9.52747Zm2.70282-25.074a20.76817,20.76817,0,0,1,5.49679,3.14523l-2.15637,2.8436a21.50155,21.50155,0,0,0-5.37526-3.38733Zm22.92911,4.92968V45.62393h-3.705v-1.1802H33.94684V45.866H30.39373V22.93865h5.10178a38.31611,38.31611,0,0,0,.88068-5.2323l4.252.42366c-.42539,1.66341-.94145,3.32681-1.42713,4.80864ZM33.94684,26.38742v5.47439h9.50569V26.38742Zm9.50569,14.5782v-5.777H33.94684v5.777Z" style="fill:#5e71a8"/><path d="M168.55274,133.28788l24.25822.067-9.764-23.80959" style="fill:#5e71a8"/><path d="M106.89416,40.13855a44.43782,44.43782,0,1,0,44.63143,44.42537v-.00415A44.51837,44.51837,0,0,0,106.9107,40.13855Zm0,81.11418a36.66075,36.66075,0,1,1,36.8071-36.66379v.00335A36.73523,36.73523,0,0,1,106.89416,121.25273Z" style="fill:#fff"/><path d="M115.76176,105.24425l-5.73792.29225-.19566-7.63083a21.83634,21.83634,0,0,1-2.90155.22733,18.53356,18.53356,0,0,1-3.29276-.29224l-.19567,7.6958-5.3467-.25979c-2.34727-3.83167-9.25881-12.11195-23.73384-6.884,0,0,9.12845,20.09993,23.21226,9.87138l5.8031.58449-.22826,9.02712a7.973,7.973,0,0,0,3.5862.64946,8.22157,8.22157,0,0,0,3.61879-.64946l-.22826-8.96221,6.16172-.61694c14.08382,10.22855,23.21226-9.87139,23.21226-9.87139-14.475-5.29288-21.41916,2.95495-23.73384,6.81908ZM94.31,106.34831c-.163.38968-.39121.58448-3.35794-.51957-5.73791-2.17559-14.6381-5.90983-14.475-6.332.163-.38968,9.2914,2.69516,15.02932,4.87075C94.44049,105.47158,94.44049,105.92617,94.31,106.34831Zm28.559-.552c-2.93414,1.10406-3.195.94164-3.35794.51957-.163-.38968-.13036-.84427,2.80378-1.94832,5.73791-2.17559,14.86624-5.29289,15.02931-4.87075C137.47448,99.88646,128.5743,103.62069,122.869,105.79628Z" style="fill:#fff"/><path d="M121.69534,65.23913a9.9438,9.9438,0,0,1,4.01,8.31268,4.34287,4.34287,0,0,1-.03259.64946c-.45639-6.59174-5.50966-10.03374-11.9321-10.03374a14.44045,14.44045,0,0,0-5.93346,1.20143,8.31971,8.31971,0,0,0-1.07586.552c-.35862-.19481-.71724-.38968-1.07586-.552A14.44045,14.44045,0,0,0,99.722,64.16753c-6.42244,0-11.47571,3.442-11.9321,10.03374,0-.22732-.03259-.42213-.03259-.64946a9.905,9.905,0,0,1,4.07518-8.37766,45.45355,45.45355,0,0,0-15.32275.3247s1.6952,16.26833,12.519,23.96407a30.84942,30.84942,0,0,0,2.80378,1.78591,17.12881,17.12881,0,0,1-2.47775-3.83167,15.42309,15.42309,0,0,1-1.43448-6.91645,15.5089,15.5089,0,0,0,1.89087,6.68918,17.71566,17.71566,0,0,0,4.40121,5.29289,20.14471,20.14471,0,0,0,25.49435,0,18.01785,18.01785,0,0,0,4.36861-5.29289,15.83781,15.83781,0,0,0,1.89088-6.68918,14.59432,14.59432,0,0,1-1.43448,6.91645,16.5533,16.5533,0,0,1-2.57552,3.96156.45019.45019,0,0,1,.13036-.09743c.91278-.51957,1.82569-1.10406,2.77119-1.75346,10.791-7.6958,12.519-23.96406,12.519-23.96406a44.90491,44.90491,0,0,0-15.68137-.3247ZM86.3879,74.07144c-.16295.19481-.13036.48705-1.43448-.71438-2.57552-2.37045-6.48775-6.267-6.32467-6.46185s4.36862,3.40954,6.94414,5.81245c1.304,1.20143.978,1.169.815,1.36384Zm31.33,10.74812a25.38412,25.38412,0,0,1-5.73791,7.5659,29.63019,29.63019,0,0,0,3.74915-5.81245c2.93414-5.90982,2.41256-10.03374-.163-11.30014-1.40188-.68192-3.1298-.38968-4.8576,1.00662a9.28643,9.28643,0,0,1,1.49966,5.39032,12.01376,12.01376,0,0,1-2.73847,7.95558,17.16292,17.16292,0,0,0,1.40189-6.75409c0-3.994-1.76051-6.49432-3.97741-6.49432-2.18431,0-3.97741,2.46784-3.97741,6.49432a16.60346,16.60346,0,0,0,1.40189,6.75409,12.01381,12.01381,0,0,1-2.73847-7.95558A9.2865,9.2865,0,0,1,103.08,76.27949c-1.76051-1.3963-3.45571-1.68854-4.8576-1.00662-2.57552,1.2664-3.09709,5.39032-.163,11.30014a32.30833,32.30833,0,0,0,3.74915,5.81245,25.80617,25.80617,0,0,1-5.73792-7.5659C93.13649,78.90973,94.082,74.591,97.1139,73.06482c2.11913-1.03908,4.72724-.45459,7.10721,2.01318a4.40533,4.40533,0,0,1,2.6407-.90918,4.334,4.334,0,0,1,2.6407.90918c2.37986-2.46783,4.988-3.08477,7.10722-2.01318,3.09709,1.52619,4.04259,5.84491,1.10845,11.75474ZM128.835,73.32461c-1.30412,1.23394-1.2714.90918-1.43448.71437s-.489-.16235.815-1.36383c2.57552-2.37046,6.78106-5.97481,6.94414-5.81246.19567.19481-3.74915,4.09146-6.32467,6.46186Z" style="fill:#fff"/><path d="M99.6893,62.86873a14.02078,14.02078,0,0,1,7.00932,1.75346,13.69136,13.69136,0,0,1,7.00931-1.75346,14.31368,14.31368,0,0,1,6.55293,1.49367c-1.98864-7.95558-13.56224-14.12519-13.56224-14.12519S95.09242,56.43928,93.13637,64.3624A14.31368,14.31368,0,0,1,99.6893,62.86873Zm7.205-10.5533c.26085,0,.45639,5.5202.45639,8.99466,0,1.78591-.19566,1.52619-.45639,1.52619s-.45639.25978-.45639-1.52619C106.47048,57.80318,106.666,52.31543,106.89428,52.31543Z" style="fill:#fff"/><path d="M20.13208,178.40273H211.86792A20.09113,20.09113,0,0,1,232,198.45276v.00195a20.09113,20.09113,0,0,1-20.13208,20.05H20.13208A20.09113,20.09113,0,0,1,0,198.45471v-.00195A20.09113,20.09113,0,0,1,20.13208,178.40273Z" style="fill:#5e71a8"/><path d="M23.01991,198.575c0-5.96248,3.35365-9.42594,8.22264-9.42594,4.86851,0,8.22216,3.48787,8.22216,9.42594,0,5.9371-3.35365,9.57433-8.22216,9.57433C26.37356,208.14935,23.01991,204.51212,23.01991,198.575Zm12.69369,0c0-3.934-1.73882-6.28461-4.471-6.28461-2.73271,0-4.47153,2.35063-4.47153,6.28461,0,3.90861,1.73882,6.40762,4.47153,6.40762C33.97478,204.98264,35.7136,202.48363,35.7136,198.575Z" style="fill:#fff"/><path d="M41.90141,198.7234c0-6.03667,3.9001-9.57432,8.54561-9.57432a7.51351,7.51351,0,0,1,5.39045,2.34965l-1.9128,2.32622a4.8498,4.8498,0,0,0-3.40315-1.53454c-2.78222,0-4.869,2.375-4.869,6.309,0,3.98279,1.88781,6.38321,4.7945,6.38321a5.0776,5.0776,0,0,0,3.80061-1.80593l1.93731,2.27547a7.44982,7.44982,0,0,1-5.8624,2.69717C45.67752,208.14935,41.90141,204.83426,41.90141,198.7234Z" style="fill:#fff"/><path d="M58.89511,189.47024H70.173v3.06812H62.57124v4.23074h6.45883v3.06714H62.57124v4.89845h7.87468v3.06812H58.89511Z" style="fill:#fff"/><path d="M77.45316,189.47024h4.32255l5.91189,18.33257H83.8375l-1.29187-4.70029H76.58375l-1.29187,4.70029H71.56577ZM77.37867,200.257h4.372l-.54644-2.00409c-.57144-1.90451-1.06839-4.00719-1.58984-5.98688h-.124c-.472,2.00409-1.01888,4.08237-1.56533,5.98688Z" style="fill:#fff"/><path d="M89.60286,189.47024h3.75062l5.34045,9.77249,1.83831,3.95845h.124c-.17349-1.90452-.47195-4.32934-.47195-6.40762V189.4703h3.47814v18.33257H99.9363l-5.316-9.7969-1.86282-3.934h-.12448c.174,1.97968.44745,4.28053.44745,6.38321v7.34767H89.60286Z" style="fill:#fff"/><path d="M110.9686,189.47024h3.85011l2.43474,8.931c.57095,2.02947.96841,3.8598,1.53985,5.91367h.12448c.596-2.05387.9934-3.8842,1.56484-5.91367l2.38476-8.931h3.72611l-5.61392,18.33257h-4.397Z" style="fill:#fff"/><path d="M128.45876,189.47024h3.67613v18.33257h-3.67613Z" style="fill:#fff"/><path d="M136.40892,189.47024H140.085v15.26445h7.47723v3.06812H136.40892Z" style="fill:#fff"/><path d="M150.52042,189.47024h3.67613v15.26445h7.47723v3.06812H150.52042Z" style="fill:#fff"/><path d="M168.03557,189.47024h4.32255l5.9119,18.33257h-3.85011l-1.29186-4.70029h-5.96189l-1.29186,4.70029h-3.72612Zm-.07449,10.78673h4.37205l-.54645-2.00409c-.57143-1.90451-1.06838-4.00719-1.58983-5.98688h-.124c-.47245,2.00409-1.01889,4.08237-1.56533,5.98688Z" style="fill:#fff"/><path d="M192.05905,187.81269a39.37407,39.37407,0,0,1-2.38475,5.09661v16.99619h-2.80672V197.264a22.76458,22.76458,0,0,1-1.68883,1.97871A18.59394,18.59394,0,0,0,183.61342,196.2a26.27331,26.27331,0,0,0,5.63842-9.27757Zm6.8063,12.12312H207.386v2.47363h-2.78221a10.2126,10.2126,0,0,1-2.08678,3.31509,34.71956,34.71956,0,0,1,4.52152,2.07828l-1.9378,2.22665a39.18,39.18,0,0,0-4.993-2.44922,23.095,23.095,0,0,1-8.14816,2.39944,10.41416,10.41416,0,0,0-1.39086-2.44923,25.25128,25.25128,0,0,0,6.30936-1.21241c-.571-.19718-1.14239-.39535-1.68884-.56911l-.24847.37193-2.65822-.94006c.57144-.76727,1.19238-1.73271,1.83831-2.77136h-3.30366v-2.47363h4.7695c.34747-.6433.69543-1.26219,1.0184-1.85571l1.0184.247v-2.54781a17.002,17.002,0,0,1-5.39045,3.46347,10.85614,10.85614,0,0,0-1.76381-2.10268,15.58377,15.58377,0,0,0,5.21646-2.79577h-4.496v-2.44922h6.43384v-1.3852c-1.66433.14838-3.32866.22257-4.869.27138a9.22944,9.22944,0,0,0-.69543-2.22568,72.257,72.257,0,0,0,11.97327-1.38617l1.9128,2.17785a48.96419,48.96419,0,0,1-5.43994.89027v1.65755H207.113v2.44922h-4.52152a16.194,16.194,0,0,0,4.919,2.622,13.39561,13.39561,0,0,0-1.9128,2.20225,17.81835,17.81835,0,0,1-5.09247-3.53766v2.84457h-2.23577l1.26687.29774ZM197.35,202.40944l-.79492,1.26219c.99389.29676,2.11178.6433,3.20467,1.03865a6.52179,6.52179,0,0,0,1.68932-2.30084Z" style="fill:#fff"/></svg>