<svg viewBox="0 0 802 252" xmlns="http://www.w3.org/2000/svg"><g fill="#fff"><path d="m12.524 160.334c-1.565-.063-2.757-.126-4.196-.126-3.944 0-4.947.5-6.26 3.321-.378.878-.567 1.004-.756 1.004-.463-.008-.916-.138-1.313-.378l1.376-7.831c.063-.315.126-.45.814-.45.94 0 1.255.063 1.507.752.562 1.503 1.25 1.503 14.777 1.503 7.263 0 8.203-.374 9.642-1.751.378-.378.567-.504.94-.504s1.255.189 1.255.45-1.381 4.136-2.442 8.101c-.099.099-.239.145-.378.126-.497-.05-.982-.177-1.439-.378.31-.563.45-2.192.45-2.507 0-.878-.31-1.44-4.196-1.44-.94 0-3.148.063-5.01.126v21.557c0 3.573.567 4.136 4.888 4.136.45 0 .499.063.499.752s-.063 1.004-.499 1.004c-.94 0-3.445-.315-7.267-.315s-6.323.315-7.263.315c-.45 0-.499-.252-.499-1.004s.058-.752.499-.752c4.322 0 4.884-.563 4.884-4.136z"/><path d="m48.919 160.46c.315-.815 3.948-3.195 4.074-3.195.247 0 .45.248 1.938 3.884l9.08 21.557c1.066 2.57 2.631 3.321 5.01 3.321.315 0 .378.126.378.752 0 .941-.063 1.004-.499 1.004s-2.698-.315-5.136-.315c-4.699 0-7.015.315-7.892.315-.562 0-.751-.315-.751-1.067 0-.45.189-.689.751-.689.252 0 .45.063.94.063 1.799 0 2.505-.374 2.505-1.566-.081-.695-.27-1.372-.562-2.007l-2.316-5.95h-10.793c-1.628 4.01-2.249 5.513-2.249 7.268 0 1.944 1.565 2.192 4.322 2.192.148.224.235.483.252.752 0 .752-.252 1.004-.63 1.004-1.662-.203-3.335-.308-5.01-.315-.899 0-5.635.315-6.134.315s-.63-.126-.63-.941c-.004-.283.061-.563.189-.815 2.379-.063 4.047-.5 5.073-3.321zm-2.505 14.037h9.084l-5.073-12.043z"/><path d="m96.845 164.659c0 .45-.184.563-.562.563-.404.009-.806-.055-1.187-.189-.63-3.006-2.568-5.702-6.013-5.702-2.757 0-4.947 2.007-4.947 4.199 0 7.084 14.589 5.639 14.589 16.107 0 4.825-4.322 8.708-10.582 8.708-2.883 0-6.386-.815-7.766-1.751-.371-2.095-.621-4.209-.751-6.332l.315-.315c.126 0 .247-.059.45-.059.311-.027.624.037.899.185.688 3.447 3.445 6.206 7.015 6.206s5.698-2.25 5.698-5.401c0-7.079-14.152-5.765-14.152-15.414 0-3.951 2.757-8.209 9.579-8.209 2.495-.023 4.969.467 7.267 1.44l.148 5.963z"/><path d="m127.186 157.265c11.337 0 17.408 7.52 17.408 14.978 0 8.645-6.746 16.103-16.72 16.103-11.333 0-17.408-7.52-17.408-14.915 0-8.726 6.764-16.166 16.72-16.166zm.94 29.015c7.141 0 10.833-6.643 10.833-12.219 0-8.101-4.385-14.73-12.021-14.73-7.141 0-10.838 6.269-10.838 12.282 0 6.647 4.011 14.667 12.025 14.667z"/><path d="m196.45 164.659c0 .45-.189.563-.567.563-.404.009-.806-.055-1.187-.189-.63-3.006-2.568-5.702-6.013-5.702-2.757 0-4.947 2.007-4.947 4.199 0 7.084 14.589 5.639 14.589 16.107 0 4.825-4.317 8.708-10.582 8.708-2.883 0-6.386-.815-7.766-1.751-.371-2.095-.621-4.209-.751-6.332l.315-.315c.126 0 .252-.059.45-.059.311-.027.624.037.899.185.688 3.447 3.445 6.206 7.015 6.206s5.698-2.25 5.698-5.401c0-7.079-14.152-5.765-14.152-15.414 0-3.951 2.757-8.209 9.583-8.209 2.494-.022 4.966.468 7.263 1.44l.153 5.963z"/><path d="m213.715 163.719c0-3.573-.567-4.136-4.884-4.136-.45 0-.504-.063-.504-.752s.063-1.004.504-1.004c.94 0 3.44.311 7.263.311s6.323-.311 7.263-.311c.45 0 .504.252.504 1.004s-.063.752-.504.752c-4.322 0-4.884.563-4.884 4.136v6.751h17.345v-6.751c0-3.573-.562-4.136-4.884-4.136-.45 0-.499-.063-.499-.752s.063-1.004.499-1.004c.94 0 3.445.311 7.267.311s6.323-.311 7.263-.311c.45 0 .499.252.499 1.004s-.063.752-.499.752c-4.322 0-4.884.563-4.884 4.136v18.173c0 3.573.562 4.136 4.884 4.136.45 0 .499.063.499.752s-.063 1.004-.499 1.004c-.94 0-3.445-.315-7.263-.315s-6.327.315-7.267.315c-.45 0-.499-.252-.499-1.004s.063-.752.499-.752c4.322 0 4.884-.563 4.884-4.136v-8.96h-17.345v8.96c0 3.573.562 4.136 4.884 4.136.45 0 .504.063.504.752s-.063 1.004-.504 1.004c-.94 0-3.445-.315-7.263-.315s-6.323.315-7.263.315c-.45 0-.504-.252-.504-1.004s.063-.752.504-.752c4.317 0 4.884-.563 4.884-4.136z"/><path d="m262.553 163.719c0-3.573-.562-4.136-4.884-4.136-.45 0-.504-.063-.504-.752s.063-1.004.504-1.004c.94 0 3.445.311 7.263.311s6.327-.311 7.267-.311c.45 0 .499.252.499 1.004s-.063.752-.499.752c-4.322 0-4.888.563-4.888 4.136v18.173c0 3.573.567 4.136 4.888 4.136.45 0 .499.063.499.752s-.063 1.004-.499 1.004c-.94 0-3.445-.315-7.267-.315s-6.323.315-7.263.315c-.45 0-.504-.252-.504-1.004s.063-.752.504-.752c4.322 0 4.884-.563 4.884-4.136z"/><path d="m289.472 163.719c0-3.573-.562-4.136-4.884-4.136-.45 0-.499-.063-.499-.752s.063-1.004.499-1.004c.94 0 3.445.311 7.267.311 2.563 0 5.131-.311 8.014-.311 6.449 0 10.082 2.88 10.082 7.079 0 3.825-3.445 6.206-7.892 6.958 2.505 1.755 5.073 5.639 6.827 8.209 3.319 4.829 4.385 5.644 6.575 5.644.45 0 .567.122.567.752 0 1.251-.063 1.314-.378 1.314-1.089-.241-2.204-.346-3.319-.315-1.439 0-2.698.315-3.193.315s-3.319-3.384-5.396-6.517c-5.32-8.101-5.95-8.335-9.516-8.335v8.96c0 3.573.562 4.136 4.884 4.136.45 0 .499.063.499.752s-.063 1.004-.499 1.004c-.94 0-3.445-.315-7.263-.315s-6.327.315-7.267.315c-.45 0-.499-.252-.499-1.004s.063-.752.499-.752c4.322 0 4.884-.563 4.884-4.136l.009-18.173zm4.762 7.331c.769.084 1.542.126 2.316.126 5.887 0 8.203-2.7 8.203-6.08 0-3.258-3.148-5.203-6.827-5.203-3.566 0-3.755 1.193-3.755 6.458 0 2.817.063 3.884.063 4.698z"/><path d="m338.76 160.46c.31-.815 3.944-3.195 4.07-3.195.247 0 .45.248 1.938 3.884l9.084 21.557c1.061 2.57 2.626 3.321 5.01 3.321.31 0 .373.126.373.752 0 .941-.063 1.004-.499 1.004s-2.698-.315-5.136-.315c-4.699 0-7.015.315-7.892.315-.562 0-.751-.315-.751-1.067 0-.45.189-.689.751-.689.252 0 .45.063.94.063 1.799 0 2.505-.374 2.505-1.566-.081-.695-.27-1.372-.562-2.007l-2.316-5.95h-10.793c-1.628 4.01-2.249 5.513-2.249 7.268 0 1.944 1.565 2.192 4.322 2.192.148.224.235.483.252.752 0 .752-.252 1.004-.63 1.004-1.662-.203-3.335-.308-5.01-.315-.877 0-5.635.315-6.134.315s-.63-.126-.63-.941c-.004-.283.061-.562.189-.815 2.379-.063 4.07-.5 5.073-3.321zm-2.505 14.037h9.08l-5.073-12.043z"/><path d="m374.836 163.719c0-3.573-.562-4.136-4.884-4.136-.45 0-.504-.063-.504-.752s.063-1.004.504-1.004c.94 0 3.445.311 7.263.311s6.327-.311 7.263-.311c.45 0 .504.252.504 1.004s-.063.752-.504.752c-4.317 0-4.884.563-4.884 4.136v6.751h17.35v-6.751c0-3.573-.567-4.136-4.888-4.136-.45 0-.499-.063-.499-.752s.063-1.004.499-1.004c.94 0 3.445.311 7.267.311s6.323-.311 7.263-.311c.45 0 .499.252.499 1.004s-.058.752-.499.752c-4.322 0-4.884.563-4.884 4.136v18.173c0 3.573.562 4.136 4.884 4.136.45 0 .499.063.499.752s-.058 1.004-.499 1.004c-.94 0-3.445-.315-7.263-.315s-6.327.315-7.267.315c-.45 0-.499-.252-.499-1.004s.063-.752.499-.752c4.322 0 4.888-.563 4.888-4.136v-8.96h-17.35v8.96c0 3.573.567 4.136 4.884 4.136.45 0 .504.063.504.752s-.063 1.004-.504 1.004c-.935 0-3.44-.315-7.263-.315s-6.323.315-7.263.315c-.45 0-.504-.252-.504-1.004s.063-.752.504-.752c4.322 0 4.884-.563 4.884-4.136z"/><path d="m430.672 160.46c.31-.815 3.944-3.195 4.07-3.195.252 0 .45.248 1.943 3.884l9.08 21.557c1.061 2.57 2.631 3.321 5.01 3.321.31 0 .373.126.373.752 0 .941-.063 1.004-.499 1.004s-2.698-.315-5.136-.315c-4.695 0-7.015.315-7.892.315-.562 0-.751-.315-.751-1.067 0-.45.189-.689.751-.689.252 0 .45.063.94.063 1.799 0 2.505-.374 2.505-1.566-.078-.695-.268-1.373-.562-2.007l-2.316-5.95h-10.793c-1.628 4.01-2.249 5.513-2.249 7.268 0 1.944 1.565 2.192 4.322 2.192.148.224.235.483.252.752 0 .752-.252 1.004-.625 1.004-1.662-.202-3.335-.307-5.01-.315-.877 0-5.639.315-6.139.315s-.616-.126-.616-.941c-.003-.282.06-.561.184-.815 2.383-.063 4.074-.5 5.073-3.321l8.086-22.246zm-2.505 14.037h9.08l-5.077-12.043-4.002 12.043z"/><path d="m496.68 177.306c0 8.272.693 8.708 4.699 8.708.877 0 1.061.252 1.061.752 0 .689-.184 1.004-.45 1.004-.814 0-2.568-.315-6.952-.315-1.754 0-5.698.315-7.137.315-.378 0-.504-.063-.504-.878s0-.878.63-.878c3.881 0 4.322-.752 4.322-5.401 0-6.206-.126-12.412-.126-18.425h-.126c-2.631 6.076-9.646 22.052-10.896 26.13h-1.318c-1.187-4.32-6.638-16.292-10.267-24.69h-.121c-.189 5.891-.45 12.345-.45 17.736 0 3.758.751 4.635 4.322 4.635.567 0 .751.063.751 1.004 0 .626-.126.752-.45.752-.567 0-3.571-.315-5.396-.315-2.196-.041-4.393.064-6.575.315-.315 0-.373-.126-.373-.752 0-.878.058-1.004.688-1.004 3.944 0 4.385-1.44 4.632-5.45.315-4.388.625-10.842.625-16.422 0-3.758-.562-4.572-4.947-4.572-.499 0-.562-.063-.562-.626 0-1.004.063-1.13.45-1.13.751 0 2.626.311 5.446.311 1.943 0 2.379-.311 2.941-.311.814 0 1.003.126 1.255.689l10.02 21.746 9.331-21.184c.499-1.188.562-1.251.94-1.251.625 0 3.818.311 5.761.311 1.091-.035 2.178-.139 3.256-.311.45 0 .562.063.562.941 0 .752-.063.815-.499.815-4.196 0-4.574.248-4.574 5.576l.031 12.174z"/><path d="m526.028 160.46c.31-.815 3.944-3.195 4.047-3.195.252 0 .45.248 1.943 3.884l9.08 21.557c1.061 2.57 2.631 3.321 5.01 3.321.31 0 .373.126.373.752 0 .941-.063 1.004-.499 1.004s-2.698-.315-5.136-.315c-4.695 0-7.015.315-7.892.315-.562 0-.751-.315-.751-1.067 0-.45.189-.689.751-.689.252 0 .45.063.94.063 1.799 0 2.505-.374 2.505-1.566-.078-.695-.268-1.373-.562-2.007l-2.316-5.95h-10.793c-1.628 4.01-2.249 5.513-2.249 7.268 0 1.944 1.565 2.192 4.322 2.192.148.224.235.483.252.752 0 .752-.252 1.004-.625 1.004-1.662-.202-3.335-.307-5.01-.315-.877 0-5.639.315-6.139.315s-.625-.126-.625-.941c-.003-.282.06-.561.184-.815 2.383-.063 4.074-.5 5.073-3.321zm-2.505 14.037h9.08l-5.073-12.043z"/><path d="m583.204 163.719c0-3.573-.567-4.136-4.888-4.136-.45 0-.499-.063-.499-.752s.063-1.004.499-1.004c.94 0 3.445.311 7.267.311 2.568 0 5.136-.311 8.014-.311 6.449 0 10.082 2.88 10.082 7.079 0 3.825-3.445 6.206-7.892 6.958 2.509 1.755 5.073 5.639 6.827 8.209 3.319 4.829 4.385 5.644 6.575 5.644.45 0 .567.122.567.752 0 1.251-.063 1.314-.378 1.314-1.089-.241-2.204-.346-3.319-.315-1.439 0-2.698.315-3.193.315s-3.319-3.384-5.396-6.517c-5.32-8.101-5.945-8.335-9.516-8.335v8.96c0 3.573.562 4.136 4.884 4.136.45 0 .499.063.499.752s-.058 1.004-.499 1.004c-.94 0-3.445-.315-7.263-.315s-6.327.315-7.267.315c-.45 0-.499-.252-.499-1.004s.063-.752.499-.752c4.322 0 4.888-.563 4.888-4.136l.009-18.173zm4.758 7.331c.769.084 1.542.126 2.316.126 5.887 0 8.203-2.7 8.203-6.08 0-3.258-3.148-5.203-6.827-5.203-3.566 0-3.755 1.193-3.755 6.458 0 2.817.063 3.884.063 4.698z"/><path d="m625.242 163.719c0-3.573-.567-4.136-4.888-4.136-.45 0-.499-.063-.499-.752s.063-1.004.499-1.004c.94 0 3.445.311 7.267.311 7.326 0 13.086-.311 16.972-.311.184 0 .247.252.247.563-.241 1.26-.345 2.543-.31 3.825.012.699.116 1.394.31 2.066.003.196-.04.39-.126.567h-1.632c-.499-4.014-.998-5.266-7.699-5.266-5.01 0-5.396.189-5.396 4.388v7.201h4.133c2.568 0 4.007-.315 4.947-3.321.252-.815.378-.941 1.129-.941.499 0 .625.126.625.378 0 .936-.189 4.572-.189 6.202 0 2.133.189 3.258.189 3.636 0 .248-.063.311-.899.311s-.899-.063-.899-.45c0-.815-.45-2.759-1.187-3.321-.738-.563-1.255-.752-3.319-.752h-4.574v6.598c0 2.07.252 4.951.562 5.266.693.626 1.691.941 5.576.941 3.692 0 4.497-.252 5.509-.63 2.316-.9 3.634-5.14 4.196-5.14.315 0 1.439.45 1.439.693 0 .122-2.127 5.077-2.442 6.139-.247.941-.31 1.004-.688 1.004-2.568 0-12.21-.315-16.531-.315-3.823 0-6.327.315-7.267.315-.45 0-.499-.252-.499-1.004s.063-.752.499-.752c4.322 0 4.888-.563 4.888-4.136l.059-18.173z"/><path d="m675.56 164.659c0 .45-.189.563-.567.563-.404.009-.806-.055-1.187-.189-.625-3.006-2.568-5.702-6.013-5.702-2.757 0-4.947 2.007-4.947 4.199 0 7.084 14.588 5.639 14.588 16.107 0 4.825-4.317 8.708-10.582 8.708-2.878 0-6.386-.815-7.766-1.751-.371-2.095-.621-4.209-.751-6.332l.315-.315c.126 0 .252-.059.45-.059.311-.027.624.037.899.185.693 3.447 3.445 6.206 7.015 6.206s5.698-2.25 5.698-5.401c0-7.079-14.152-5.765-14.152-15.414 0-3.951 2.757-8.209 9.583-8.209 2.494-.022 4.966.468 7.263 1.44l.153 5.963z"/><path d="m705.898 157.265c11.337 0 17.413 7.52 17.413 14.978 0 8.645-6.746 16.103-16.72 16.103-11.337 0-17.413-7.52-17.413-14.915 0-8.726 6.764-16.166 16.72-16.166zm.94 29.015c7.141 0 10.833-6.643 10.833-12.219 0-8.101-4.38-14.73-12.021-14.73-7.141 0-10.833 6.269-10.833 12.282-.018 6.647 4.029 14.667 12.021 14.667z"/><path d="m739.081 163.719c0-3.573-.562-4.136-4.884-4.136-.45 0-.499-.063-.499-.752s.063-1.004.499-1.004c.94 0 3.445.311 7.267.311 2.563 0 5.131-.311 8.014-.311 6.449 0 10.082 2.88 10.082 7.079 0 3.825-3.445 6.206-7.892 6.958 2.505 1.755 5.073 5.639 6.827 8.209 3.319 4.829 4.385 5.644 6.575 5.644.45 0 .567.122.567.752 0 1.251-.063 1.314-.378 1.314-1.089-.24-2.204-.346-3.319-.315-1.439 0-2.698.315-3.193.315s-3.319-3.384-5.396-6.517c-5.32-8.101-5.95-8.335-9.516-8.335v8.96c0 3.573.562 4.136 4.884 4.136.45 0 .499.063.499.752s-.063 1.004-.499 1.004c-.94 0-3.445-.315-7.263-.315s-6.327.315-7.267.315c-.45 0-.499-.252-.499-1.004s.063-.752.499-.752c4.322 0 4.884-.563 4.884-4.136l.009-18.173zm4.762 7.331c.769.084 1.542.126 2.316.126 5.887 0 8.203-2.7 8.203-6.08 0-3.258-3.148-5.203-6.827-5.203-3.571 0-3.755 1.193-3.755 6.458 0 2.817.063 3.884.063 4.698z"/><path d="m784.214 160.334c-1.565-.063-2.752-.126-4.196-.126-3.944 0-4.947.5-6.26 3.321-.378.878-.562 1.004-.751 1.004-.465-.007-.92-.138-1.318-.378l1.381-7.831c.063-.315.126-.45.814-.45.94 0 1.25.063 1.502.752.562 1.503 1.25 1.503 14.777 1.503 7.267 0 8.203-.374 9.646-1.751.373-.378.562-.504.94-.504s1.25.189 1.25.45-1.376 4.136-2.442 8.101c-.099.099-.239.145-.378.126-.496-.051-.982-.178-1.439-.378.315-.563.45-2.192.45-2.507 0-.878-.315-1.44-4.196-1.44-.94 0-3.148.063-5.01.126v21.557c0 3.573.562 4.136 4.884 4.136.45 0 .499.063.499.752s-.063 1.004-.499 1.004c-.94 0-3.445-.315-7.267-.315s-6.323.315-7.263.315c-.45 0-.499-.252-.499-1.004s.063-.752.499-.752c4.322 0 4.884-.563 4.884-4.136l-.009-21.575z"/><path d="m369.705 241.734c0-.954-.148-1.103-1.304-1.103-.117 0-.13 0-.13-.203s0-.266.13-.266c.252 0 .899.081 1.938.081 1.956 0 3.49-.081 4.529-.081.049 0 .067.068.067.149-.066.336-.095.679-.085 1.022.003.186.032.371.085.549 0 .053-.012.106-.036.153h-.45c-.135-1.071-.27-1.404-2.055-1.404-1.349 0-1.439.049-1.439 1.17v1.922h1.102c.688 0 1.07-.086 1.322-.9.067-.216.099-.252.301-.252.13 0 .166.036.166.104 0 .248-.049 1.22-.049 1.652 0 .567.049.869.049.972s0 .081-.234.081-.234 0-.234-.117c0-.328-.113-.645-.319-.9-.198-.149-.333-.198-.899-.198h-1.219v1.755c-.021.473.031.947.153 1.404.184.167.45.248 1.484.248.496.05.998-.007 1.471-.167.621-.234.967-1.35 1.12-1.35.081 0 .382.117.382.185s-.567 1.35-.648 1.638-.085.266-.184.266c-.688 0-3.26-.086-4.412-.086-1.016 0-1.686.086-1.938.086-.117 0-.13-.068-.13-.266s0-.203.13-.203c1.156 0 1.304-.149 1.304-1.103z"/><path d="m383.304 241.986c0 .117-.049.149-.148.149-.108.001-.216-.015-.319-.049-.166-.801-.684-1.521-1.601-1.521-.67-.042-1.253.452-1.322 1.121 0 1.886 3.894 1.503 3.894 4.293 0 1.287-1.151 2.322-2.824 2.322-.716.017-1.425-.137-2.069-.45-.102-.558-.17-1.121-.202-1.688l.085-.081h.117c.081-.005.162.012.234.049.144.93.93 1.626 1.871 1.656.767.07 1.445-.495 1.515-1.262.005-.059.007-.118.005-.178 0-1.886-3.778-1.535-3.778-4.109 0-1.053.738-2.192 2.554-2.192.666-.006 1.326.126 1.938.387z"/><path d="m389.838 240.83c-.418 0-.733-.032-1.115-.032-1.052 0-1.322.135-1.673.9-.099.234-.148.266-.198.266-.124 0-.245-.035-.351-.099l.364-2.088c0-.086.036-.117.22-.117s.333 0 .4.198c.148.401.333.401 3.939.401 1.938 0 2.19-.099 2.572-.45.059-.08.152-.129.252-.131.099 0 .333.049.333.117s-.369 1.103-.652 2.156c-.027.024-.063.036-.099.032-.132-.012-.261-.046-.382-.099.073-.216.112-.442.117-.671 0-.234-.085-.383-1.12-.383-.252 0-.836 0-1.349.032v5.752c0 .954.148 1.103 1.3 1.103.117 0 .135 0 .135.203s0 .266-.135.266c-.247 0-.899-.086-1.938-.086s-1.686.086-1.934.086c-.117 0-.135-.068-.135-.266s0-.203.135-.203c1.151 0 1.3-.149 1.3-1.103l.013-5.783z"/><path d="m403.285 248.067c-.202 0-.22 0-.22-.167 0-.068.036-.099.283-.302l.234-.18c2.86-2.291 3.562-3.411 3.562-4.415-.018-.765-.652-1.371-1.417-1.354-.024 0-.048.002-.072.004-.453.019-.879.217-1.187.549-.184.216-.216.234-.247.234s-.319-.117-.319-.234.031-.135.351-.5c.8-.936 1.502-1.139 2.136-1.139 1.108-.072 2.065.768 2.137 1.876.004.06.005.12.004.18 0 1.071-.684 1.8-2.437 3.308l-.899.788c.2.024.401.035.603.032 1.799 0 3.823-.068 3.908-.068s.067 0 .067.054c-.208.493-.496.949-.85 1.35l-5.635-.018z"/><path d="m416.389 240.546c1.799 0 3.44 1.44 3.44 3.744 0 2.439-1.587 3.911-3.355 3.911-2.101.03-3.828-1.65-3.858-3.753 0-.024 0-.048 0-.072-.047-2.067 1.589-3.782 3.655-3.829.039 0 .079-.001.118 0zm0 6.485c1.47.02 2.679-1.156 2.699-2.627 0-.038 0-.076 0-.114 0-1.8-1.349-2.489-2.838-2.489-2.006 0-2.874 1.404-2.874 2.538-.009 1.62 1.426 2.691 2.995 2.691h.018z"/><path d="m424.974 242.468c0-.869-.247-1.184-.782-1.238l-.621-.081c-.081 0-.117-.036-.117-.216s.067-.252.117-.252h4.079c.099 0 .13.099.13.284s-.031.185-.13.185c-1.286 0-1.403.252-1.403 1.319v3.812c0 .869.247 1.188.782 1.238l.621.081c.081 0 .117.036.117.221s-.067.248-.117.248h-4.079c-.099 0-.13-.099-.13-.284s.031-.185.13-.185c1.286 0 1.403-.248 1.403-1.319v-3.812z"/><path d="m434.904 240.546c2.154 0 3.148 1.908 3.148 3.929 0 1.386-.702 3.258-2.437 4.951-2.19 2.142-4.394 2.574-4.529 2.574s-.148-.234-.148-.351 0-.135.45-.302c2.698-1.085 5.023-4.343 5.023-5.747 0-.049 0-.104-.031-.104s-1.102 1.188-2.523 1.188c-1.219 0-2.388-1.053-2.388-2.673.042-1.886 1.552-3.408 3.436-3.465zm-.301 5.401c.59-.002 1.152-.25 1.551-.684.278-.35.416-.791.387-1.238 0-1.521-.684-2.907-1.853-2.907-1.088 0-1.857 1.22-1.857 2.507 0 1.535 1.021 2.304 1.772 2.304z"/><path d="m359.011 38.664c20.237-8.96 28.538 23.236 39.318 8.812 15.587-20.855 39.376 9.041 48.051 14.235-9.215-4.775-29.191-29.186-48.618-7.426-12.497 14.005-19.904-19.294-35.244-12.327-11.463 5.207-42.362 35.063-47.593 50.738s44.849 11.58 76.9 4.127c26.693-6.274 54.748-2.789 79.099 9.825-.899-.347-39.367-14.798-69.705-5.644-30.702 9.244-74.238 15.396-91.282 5.554-23.641-13.654 31.947-60.32 49.072-67.894z"/><path d="m363.814 112.53s6.629-.585 21.222-3.942 30.742-13.312 66.93-4.352c0 0-30.711-2.781-45.708 2.322-17.916 6.094-42.443 5.972-42.443 5.972z"/><path d="m451.956 95.897s7.06 1.436 16.189 6.427c15.232 8.33 27.333 4.05 37.973-.932 0 0-17.584 6.521-30.063.635-16.046-7.561-24.1-6.13-24.1-6.13z"/><path d="m452.761 59.753c.247-.198.49-.41.747-.599.116-.064.238-.115.364-.153.021-.006.042-.006.063 0 .126.18.198 0 .292-.041.036-.006.072-.006.108 0 0-.117-.045-.216-.067-.329-.166 0-.31-.027-.288-.252.124-.082.27-.121.418-.113q.184 0 .229-.18l.04-.126.027-.032h.04c.279 0 .342-.077.229-.333-.049-.122 0-.131.099-.176 0 .225.117.315.297.374.045 0 .076.072.126.122l.094-.198.067.126c.054 0 .067 0 .076-.023.067-.057.13-.119.189-.185.045-.045.074-.103.081-.167.002-.133.063-.258.166-.342.294-.288.649-.506 1.039-.639.162-.045.207-.09.324-.284-.162-.117-.225.059-.333.117.049-.158.085-.234.243-.279.29-.105.542-.297.72-.549.064-.088.156-.153.261-.185.067-.026.128-.068.175-.122.256-.284.499-.581.765-.851.369-.383.756-.743 1.129-1.116.729-.716 1.448-1.436 2.172-2.156.072-.068.153-.135.139-.257 0-.041.036-.095.067-.131l1.237-1.283c.069-.064.148-.116.234-.153.142-.074.267-.178.364-.306.409-.419.809-.851 1.201-1.283.553-.608 1.102-1.22 1.637-1.841s1.129-1.31 1.686-1.971c.486-.585.971-1.17 1.453-1.764.333-.41.657-.819.976-1.238.405-.527.8-1.067 1.201-1.593.229-.311.45-.617.702-.927.166-.225.319-.45.477-.684l.648-.972c.054-.077.117-.149.171-.225.119-.119.184-.282.18-.45 0-.102.035-.2.099-.279.166-.257.342-.509.513-.756.03-.042.07-.076.117-.099.196-.095.355-.254.45-.45.175-.243.328-.5.49-.752.355-.531.729-1.053 1.066-1.602.292-.477.603-.945.899-1.427.177-.226.328-.473.45-.734 0-.036.076-.063.121-.086.115-.061.205-.16.256-.279.068-.136.147-.266.238-.387.033-.043.085-.067.139-.063.331.046.642.183.899.396.023.02.042.042.058.068l-.175.315c-.027.059-.076.117-.076.176-.032.29-.155.562-.351.779-.128.179-.245.365-.351.558-.195.361-.42.704-.675 1.026-.081.099-.135.225-.207.329-.207.302-.45.581-.625.9-.175.32-.495.675-.72 1.026-.18.293-.377.576-.589.846-.27.333-.499.702-.756 1.049-.189.261-.4.504-.598.756l-.45.554-.899 1.125-.58.711-1.048 1.251c-.396.482-.791.963-1.192 1.44-.202.239-.414.473-.621.711-.342.401-.684.806-1.034 1.202-.562.635-1.124 1.269-1.7 1.899s-1.255 1.35-1.889 2.052c-.301.329-.616.648-.926.972-.625.644-1.25 1.296-1.88 1.935-.805.815-1.623 1.616-2.433 2.426-.881.882-1.764 1.763-2.649 2.642-.146.121-.2.321-.135.5v.162c0 .054-.036.032-.04.054-.049.216-.157.329-.4.266-.045 0-.121.05-.166.09-.121.117-.238.243-.36.356-.195.203-.436.357-.702.45-.153.054-.157.099-.063.234s.072.257-.184.329c0 .054-.036.117-.063.216l-.198-.207-.261.194c-.139.113-.148.126-.085.297l.531 1.472c.054.144.112.284.171.45l.486-.144c-.22-.671-.45-1.31-.648-1.949h.054c.261.635.45 1.292.693 1.944.234 0 .45-.045.684-.036.226.009.45.04.67.095.215.042.368.231.364.45.058 0 .115-.007.171-.023.292-.122.598-.185.899-.32.293-.152.612-.246.94-.279.052.001.104-.013.148-.041.374-.181.77-.313 1.178-.392.171-.045.333-.113.499-.162.517-.149 1.043-.261 1.543-.45.359-.125.743-.162 1.12-.108.618.062 1.224.214 1.799.45.414.18.854.306 1.282.45.127.044.267.03.382-.041.232-.105.473-.19.72-.252.175-.059.351-.099.526-.153.091-.038.195-.03.279.023-.02.035-.038.071-.054.108.126.036.247.059.364.104.06.024.109.069.139.126.05.124.05.263 0 .387 0 .063-.027.135-.049.234.319.027.612.063.899.068.712.014 1.424-.069 2.114-.248 1.115-.284 2.195-.684 3.292-1.026 1.282-.396 2.554-.819 3.836-1.229l4.565-1.458c.823-.266 1.646-.531 2.473-.783.211-.068.364-.149.337-.401 0-.027 0-.054.027-.09h.126c.103 0 .189-.041.207-.158.015-.081.077-.145.157-.162l.616-.275h.045c.338-.153.688-.275 1.048-.365.342-.135.697-.239 1.043-.351l.328-.099c0 .198-.076.383-.036.567.225 0 9.399-2.876 10.343-3.24 0-.185.031-.383.045-.576.054-.783.112-1.566.162-2.349v-.594c0-.198 0-.216.184-.27l.364-.131c-.054-.131-.229-.185-.13-.374-.183.024-.365.059-.544.104-.279.077-.306.072-.45-.194v-.072c.162-.063.328-.135.499-.189s.225-.095.238-.311c0-.329.045-.657.054-.986-.007-.089.044-.172.126-.207.139-.063.265-.153.405-.216.102-.038.207-.067.315-.086l.342-.072v-.149c-.005-.112.065-.213.171-.248.097-.055.221-.021.276.076.003.005.005.009.007.014.044.087.146.128.238.095.112-.02.224-.034.337-.041.023.212.049.45.072.657.04.45.072.9.117 1.35.063.617.139 1.229.202 1.841s.117 1.26.175 1.886c.026.159.041.32.045.482.04.404.167.794.373 1.143.035.055.079.104.13.144.072.044.094.139.05.211-.004.007-.009.013-.014.019-.049.081-.085.167-.144.279l4.353 3.681c-.13.284-.418.45-.513.77.074-.006.148-.018.22-.036l1.61-.536c.267-.094.508-.248.706-.45.049-.045.09-.122.198-.086-.007.04-.022.079-.045.113-.208.23-.471.402-.764.5l-2.276.752c-.103.036-.198.095-.301.131-.15.073-.314.113-.481.117-.138.01-.272.047-.396.108-.101.046-.22.03-.306-.041l-3.04-1.953-2.649-1.706c-.092-.036-.144-.133-.121-.23.005-.061.005-.123 0-.185-.616.198-1.196.45-1.799.657s-1.169.45-1.754.653l-1.772.671-1.749.657-1.772.671-1.7.693.099.365c-.22.054-.22.23-.243.401-.108.873-.225 1.746-.328 2.619 0 .118-.074.224-.184.266-.076.045-.15.095-.22.149l-1.102.675c-.094.059-.184.126-.279.176-.105.065-.217.119-.333.162-.189.063-.382.104-.571.162-.05.007-.097.029-.135.063-.076.104-.184.09-.283.095-.189 0-.247-.063-.234-.257.058-.716.117-1.436.18-2.151l.04-.54q.315-.05.346-.351c0-.131.031-.261.04-.392s0-.126 0-.207l-1.241.473-3.058 1.17c-1.646.635-3.292 1.251-4.947 1.908-.72.284-1.435.576-2.154.855-1.079.423-2.163.833-3.242 1.256-.513.203-1.016.414-1.525.626-.155.066-.305.143-.45.23-.061.051-.108.118-.135.194-.02.085-.035.17-.045.257 0 .077-.045.171-.103.207-.088.066-.149.162-.171.27-.171.473-.337.954-.517 1.427-.067.167-.18.32-.265.482-.033.076-.062.154-.085.234-.063.061-.123.126-.18.194-.45.585-.836 1.188-1.291 1.755-.899 1.151-1.913 2.206-3.027 3.15-.333.279-.693.536-1.039.801-.072.059-.134.129-.184.207-.022.042-.022.093 0 .135.031.036.08.052.126.041.22-.054.45-.117.652-.185.45-.144.899-.293 1.349-.423.15-.027.259-.158.256-.311-.003-.039-.003-.078 0-.117l.342.162.45-.329-.225-.369c-.148-.195-.209-.442-.171-.684.004-.056.03-.107.072-.144.417-.259.848-.495 1.291-.707.652-.284 1.286-.599 1.92-.9.634-.302 1.192-.594 1.772-.9.386-.211.786-.396 1.196-.554.08-.036.155-.082.225-.135.119-.123.316-.126.439-.006.016.015.03.033.042.051.317.34.429.824.292 1.269-.031.151-.014.309.049.45l-.616.32-2.249 1.098-3.823 1.895c-.081.036-.166.059-.247.095-.062.02-.118.055-.162.104-.101.127-.245.212-.405.239-.324.095-.657.162-.976.257-.481.14-.953.293-1.43.45-.031.011-.059.026-.085.045.031.257.058.522.117.788.162.752.324 1.503.45 2.25.089.483.206.961.351 1.431 0 .045.036.081.058.135.071-.005.142-.014.211-.027.162-.036.324-.081.486-.126.45-.131.949-.248 1.412-.405.218-.041.393-.204.45-.419.292.045.49-.149.764-.239-.067-.081-.112-.126-.148-.176-.107-.129-.206-.264-.297-.405-.114-.175-.07-.409.099-.531.139-.106.29-.195.45-.266.63-.306 1.268-.603 1.902-.9.567-.279 1.129-.558 1.686-.851.238-.126.45-.284.697-.414.171-.095.36-.162.535-.252.165-.077.325-.163.481-.257.171-.104.274-.113.414 0 .093.104.178.213.256.329.196.243.252.57.148.864-.02.14-.02.283 0 .423-.108.054-.234.126-.364.189l-3.948 1.985-1.767.9c-.058.027-.126.041-.184.072s-.13.086-.193.126c-.102.079-.214.146-.333.198-.477.149-.958.275-1.435.41l-.526.162c-.607.198-1.21.405-1.799.594-1.749.549-3.503 1.085-5.253 1.634-1.124.347-2.249.702-3.359 1.062-.531.171-1.052.356-1.583.527l-2.019.626-.625.207c-.247.07-.509.07-.756 0-.625-.106-1.175-.475-1.511-1.013-.011-.027-.019-.056-.022-.086.477-.185.976-.288 1.466-.45-.132.131-.212.305-.225.491-.037.283.162.543.445.581.024.003.048.005.072.004.115.011.231.011.346 0 .097-.001.182-.065.211-.158-.151-.182-.259-.396-.315-.626-.028-.092-.04-.188-.036-.284 0-.14.063-.216.193-.279.5-.212 1.012-.394 1.533-.545.128-.036.259-.059.391-.068.145-.009.279.079.328.216.076.158.139.324.225.477s.157.216.108.401c.099-.019.195-.047.288-.086.088-.046.128-.15.094-.243-.036-.195-.067-.389-.094-.581-.031-.225-.04-.45-.081-.675-.123-.678-.291-1.347-.504-2.003-.072-.225-.135-.45-.211-.675-.031-.095-.085-.18-.126-.275l-1.453.45-3.652 1.152c-1.03.329-2.06.675-3.098.986-.567.171-1.151.284-1.731.419-.238.054-.477.09-.715.131-.118.005-.23.057-.31.144-.062.056-.132.103-.207.14 0-.063-.027-.104-.045-.162s-.139 0-.207 0c-.782.095-1.56.198-2.338.279-.63.037-1.263 0-1.884-.113-.582-.079-1.157-.2-1.722-.36-.207-.053-.397-.157-.553-.302-.146-.111-.275-.243-.382-.392-.057-.165-.084-.339-.081-.513-.037-.521.045-1.045.238-1.53.144-.383.333-.752.508-1.121.135-.288.288-.563.45-.846.033-.047.049-.104.045-.162-.008-.118.031-.234.108-.324.094-.158.148-.18.319-.122l.175.081c.04-.041.085-.077.121-.117.418-.531.832-1.062 1.264-1.584 1.061-1.296 2.145-2.57 3.301-3.785.279-.293.553-.59.832-.9.093-.093.152-.216.166-.347.049-.392.126-.783.193-1.17.089-.345.292-.649.576-.864.418-.153.715-.509 1.124-.671.225-.09.45-.158.688-.23l3.377-1.067.022-.032-.081-.045v-.032c.787-.491 1.56-.995 2.356-1.463.899-.513 1.772-1.004 2.667-1.49.189-.078.346-.215.45-.392.076-.149.175-.288.238-.45.214-.478.573-.876 1.025-1.139.03-.021.062-.041.094-.059.086-.033.129-.129.097-.215-.003-.008-.007-.016-.011-.024-.072-.194-.148-.383-.22-.576l-.45-1.184c-.117 0-.225.041-.243.176-.043.189-.173.346-.351.423-.211.122-.45.221-.652.324-.116.045-.214.127-.279.234-.073.101-.155.196-.243.284-.056.051-.074.132-.045.203.045.099 0 .167-.072.234-.092.083-.178.174-.256.27-.095.157-.266.253-.45.252-.057.007-.11.034-.148.077-.066.059-.126.124-.18.194-.495.553-1.081 1.019-1.731 1.377-.333.207-.666.428-.998.639-.033.016-.071.016-.103 0 .099-.212.202-.423.315-.644-.058-.028-.128-.003-.156.056-.002.005-.005.011-.006.016-.099.18-.198.36-.288.545-.086.171-.22.312-.387.405-.301.171-.585.365-.899.549-.081.05-.144.104-.126.212s-.094.14-.162.185c-.364.23-.738.45-1.097.689-.168.117-.363.192-.567.216-.116.016-.226.058-.324.122-1.25.77-2.496 1.548-3.746 2.313-.72.45-1.448.86-2.172 1.292l-1.048.644c-.315.189-.63.365-.944.549l-.863.518c-.45.257-.899.504-1.322.765-.301.176-.594.365-.899.54-.216.122-.45.234-.652.351l-.364.203c-.027 0-.067.045-.076.072-.04.216-.238.266-.382.365s-.193.104-.283.162c-.135.093-.288.157-.45.189-.142.033-.279.087-.405.162-.423.225-.841.45-1.259.693l-1.007.576c-.45.261-.899.522-1.376.765-.157.086-.333.14-.486.239s-.414 0-.562-.189c.086-.095.19-.171.306-.225.238-.131.45-.275.697-.414.157-.09.319-.18.45-.275.31-.189.621-.387.931-.572s.72-.419 1.079-.63c.18-.108.355-.23.531-.338l1.012-.617 1.291-.783c.499-.306.998-.608 1.493-.9l1.444-.9c.369-.234.747-.45 1.115-.693.576-.365 1.142-.734 1.718-1.103.45-.279.877-.549 1.309-.833s.8-.54 1.205-.81l1.318-.9c.555-.369 1.106-.743 1.655-1.121.643-.45 1.286-.869 1.925-1.314.639-.446 1.237-.869 1.853-1.305.836-.594 1.677-1.188 2.509-1.8.549-.396 1.088-.801 1.628-1.206.076-.058.146-.123.211-.194.063-.063 0-.104-.04-.131l.05-.018zm6.044 22.853c.157-.042.307-.102.45-.18.065-.065.151-.105.243-.113.287-.018.569-.08.836-.185.841-.266 1.677-.527 2.514-.801.603-.194 1.196-.401 1.799-.603.148-.05.175-.099.157-.266s-.054-.243-.063-.365c-.066-.591-.164-1.179-.292-1.76-.058-.293-.103-.59-.166-.9s-.072-.518-.342-.644c.058-.077.157-.149.148-.203-.01-.218-.075-.43-.189-.617l-1.83.518c-.536.151-1.055.359-1.547.621-.216.117-.45.221-.666.329-.006.049-.006.099 0 .149 0 .077 0 .149-.063.189-.074.052-.173.052-.247 0l-.121-.095c-.061-.04-.141-.04-.202 0-.598.203-1.192.41-1.799.599-1.075.347-2.154.68-3.229 1.017-.076 0-.148.054-.243.09.081.275.157.531.229.792.171.603.346 1.202.495 1.8.135.527.238 1.058.355 1.589.031.144.063.162.216.126l.297-.077c.148-.036.166-.072.126-.234-.002-.042-.002-.084 0-.126l-.067-.635c0-.086 0-.171-.027-.248.189-.081.369-.149.535-.234.482-.217.985-.381 1.502-.491.129-.029.254-.073.373-.131.274-.126.351-.104.477.171 0 .041.036.081.049.122.103.261.189.531.292.792zm-14.584-12.376c-.024.065-.043.131-.058.198 0 .23-.045.45-.058.698-.049.954-.103 1.904-.148 2.858v.833c-.011.141.036.281.13.387.044.049.112.068.175.05.216-.045.432-.086.648-.122.09 0 .153-.05.148-.153s0-.117 0-.176v-1.233c-.005-.03-.016-.059-.031-.086-.106.012-.213.012-.319 0-.199-.053-.327-.246-.297-.45 0-.45.036-.9.067-1.319-.017-.257.031-.514.139-.747.02-.047.02-.101 0-.149-.081-.171-.171-.338-.261-.509-.045-.036-.081-.045-.135-.081zm-1.632 1.454c-.637.566-1.219 1.189-1.74 1.863.054.144.108.279.157.414-.166.14-.198.144-.373.068s-.198-.095-.337.09l-.184.216-.863 1.031c-.036.045-.068.093-.094.144l.036.032c.279-.203.567-.387.827-.612.253-.224.542-.404.854-.531.13-.065.246-.156.342-.266.274-.284.535-.581.814-.864.099-.099.148-.086.238.041l.162.225h.054c.031-.617.076-1.224.108-1.85zm13.042-10.284c.139-.063.243-.099.337-.149s.135-.095.09-.23-.126-.36-.189-.54c-.153-.419-.31-.837-.45-1.274-.068.014-.133.038-.193.072-.1.09-.195.187-.283.288.193.585.427 1.175.675 1.832h.013zm-9.071 12.957.198-.09c.137-.045.211-.193.165-.33-.006-.017-.013-.033-.022-.048-.038-.109-.083-.216-.135-.32-.027-.045-.09-.072-.171-.14-.045.307-.057.618-.036.927zm2.824-1.539c.166-.063.184-.081.166-.225s-.067-.342-.09-.518c-.007-.114-.007-.228 0-.342l-.297.059c.063.351.139.689.211 1.026h.009zm-.872-.423h.045c.06-.172.09-.353.09-.536-.139.045-.144.045-.144.108-.009.149-.005.288 0 .428z"/><path d="m480.333 86.806s.292-.765 1.997-1.382c-.034.309-.231.576-.517.698 0 0 1.578-.086 2.514-1.031-.083.315-.237.608-.45.855l-.045.041h.027l.234-.077c.749-.25 1.461-.598 2.118-1.035.368-.241.689-.546.949-.9-.177.45-.456.854-.814 1.179.924-.183 1.801-.554 2.577-1.089-.783 1.851-1.417 3.763-1.893 5.716v.059c0 .077-.04.153-.058.23s0 .086-.031.131c-.063.266-.13.536-.193.815v.113l-.054.243c-.833 3.897-1.369 7.853-1.601 11.832v.387h1.961v-.302c.306-4.951.967-12.786 2.307-18.65 0 .131.008.261.023.392.029-.387.188-.753.45-1.04-.228.991-.114 2.03.324 2.948-.084-.395-.04-.807.126-1.175 0 0 .103 1.94 1.061 3.083 0 0-.279-1.557-.072-2.291 0 .108-.274 1.656 1.282 3.227l-.243-.756c.249.495.63.911 1.102 1.202-.334-.464-.624-.959-.868-1.476.167.047.286.195.297.369-.026-.542-.237-1.058-.598-1.463.04.032.342.302.63.603-.144-.81-.465-1.579-.94-2.25.372.358.722.738 1.048 1.139-.224-.739-.514-1.456-.868-2.142.94.5 1.999.733 3.063.675-.393-.225-.733-.532-.998-.9 1.093 1.017 3.287 1.089 3.287 1.089-.267-.186-.487-.431-.643-.716.715.391 1.544.517 2.343.356-.279-.061-.51-.256-.616-.522 1.511.158 1.988.761 2.015.801-.241-.54-.656-.984-1.178-1.26.3-.014.601-.004.899.032-1.084-1.571-3.413-1.017-3.539-.99.659-.3 1.384-.422 2.105-.356-.666-1.008-3.71-.221-3.827-.189.64-.268 1.302-.48 1.979-.635-.98-.504-3.467.333-3.467.333.605-.307 1.241-.547 1.898-.716-.601-.019-1.203.012-1.799.095.674-.409 1.217-1.002 1.565-1.71-.458.228-.95.38-1.457.45 1.632-.45 2.671-2.075 2.671-2.075-.351.14-.724.219-1.102.234.694-.301 1.217-.897 1.426-1.625-.244.2-.553.301-.868.284.428-.617 1.069-1.054 1.799-1.229-.68-.022-1.354.133-1.956.45.112-.234.254-.452.423-.648-1.312.081-2.412 1.02-2.698 2.304-.05-.609.129-1.214.504-1.697-1.471.158-1.884 2.79-1.884 2.79-.029-.568.018-1.137.139-1.692-1.012.558-1.133 2.7-1.133 2.7-.171-.374 0-1.656 0-1.656-.296.45-.53.937-.697 1.449-.171-.493-.414-.959-.72-1.382.219.455.282.969.18 1.463 0 0-.36-1.661-2.321-3.11.355.39.577.884.634 1.409 0 0-1.399-2.124-3.242-2.772 0 0 1.349 1.575 1.601 2.543-.04-.122-.769-2.052-3.598-2.799l.773.689c-.613-.389-1.32-.604-2.046-.621.687.303 1.345.669 1.965 1.094-.23.06-.472-.039-.594-.243 0 .05.355.729 1.664 1.278 0 0-.558-.108-1.115-.266.698.811 1.566 1.459 2.541 1.899-.659-.158-1.308-.356-1.943-.594.877.809 1.84 1.519 2.874 2.115-.736.087-1.462.238-2.172.45.796-.024 1.593.027 2.379.153 0 0-3.08-.104-4.016.68.816-.044 1.633-.026 2.446.054 0 0-3.832.086-4.254 1.296.803-.273 1.658-.361 2.5-.257 0 0-2.95.086-3.656 2.007.321-.12.65-.216.985-.288-.476.402-.793.96-.895 1.575z"/><path d="m475.737 92.89c-.041.176-.165.321-.333.387.509.025 1.011-.135 1.412-.45-.071.192-.183.365-.328.509.081 0 1.349-.27 1.925-.99-.129.256-.312.482-.535.662.663-.059 1.296-.304 1.826-.707-.156.469-.27.951-.342 1.44.161-.286.343-.56.544-.819-.231.465-.36.975-.378 1.494.148-.216.31-.414.333-.45-.189.292-.273.64-.238.986-.013-.111.047-.218.148-.266-.102.349-.236.688-.4 1.013.264-.226.462-.52.571-.851l-.081.491c.489-.597.675-1.386.504-2.138.123.468.176.952.157 1.436.307-.635.437-1.341.378-2.043.134.218.197.473.18.729.191-.619.169-1.285-.063-1.89.054.035.102.077.144.126.495 3.011.818 6.643 1.034 9.834.054.837.099 1.647.144 2.403v.45h1.111c0-.14 0-.279-.027-.414 0-.383-.049-.756-.076-1.121-.45-5.671-1.246-9.293-1.862-11.359.537.271 1.126.425 1.727.45-.25-.175-.458-.404-.607-.671.666.752 2.249.977 2.249.977-.167-.14-.297-.319-.378-.522.37.257.805.403 1.255.423.13.008.261.008.391 0-.141-.042-.261-.137-.333-.266-.023-.039-.039-.082-.049-.126h.076c1.039.239 1.277.675 1.277.675-.121-.372-.367-.69-.697-.9.213.019.424.049.634.09-.217-.379-.571-.659-.989-.783-.464-.142-.951-.193-1.435-.149.487-.13.995-.158 1.493-.081h.058l-.045-.077c-.477-.608-2.55-.369-2.698-.351.492-.125.992-.211 1.498-.257-.648-.414-2.536-.063-2.536-.063.473-.152.959-.258 1.453-.315-.457-.069-.919-.094-1.381-.077.586-.476 1.118-1.015 1.587-1.607-.37.211-.753.397-1.147.558.564-.368 1.041-.857 1.394-1.431-.306.14-.621.252-.657.266.402-.203.72-.541.899-.954-.057.136-.196.218-.342.203.342-.324.714-.614 1.111-.869-.441.08-.851.279-1.187.576l.418-.509c-.517.216-.978.547-1.349.968-.296.32-.507.71-.612 1.134.071-.371.198-.729.378-1.062-.001-.01-.001-.021 0-.032.184-.369.364-.666.364-.666-1.075.581-1.749 2.052-1.749 2.052-.013-.335.08-.666.265-.945-.591.564-.99 1.299-1.142 2.102v-.027c-.003.016-.003.033 0 .05v.045c-.107-.303-.115-.633-.023-.941-.15.297-.258.614-.319.941-.147-.309-.335-.596-.558-.855.105.339.157.693.153 1.049 0 0-.265-1.35-.94-1.602.125.34.204.696.234 1.058 0 0-.486-1.625-1.408-1.589.271.273.431.637.45 1.022-.282-.771-1.039-1.262-1.857-1.206 0 0 .036 0 .319.369-.399-.141-.828-.177-1.246-.104.468.046.902.264 1.219.612-.192.039-.391.004-.558-.099.188.438.563.769 1.021.9-.233.025-.469.008-.697-.05.481.544 1.124.918 1.835 1.067-.32.007-.64-.04-.944-.14.279.415.67.742 1.129.941-.376-.003-.751.032-1.12.104.419.046.833.139 1.232.275 0 0-1.605-.302-2.168.108.433.035.862.109 1.282.221 0 0-2.015-.243-2.343.45.445-.106.91-.093 1.349.036 0 0-1.556-.176-2.096.945.178-.044.358-.077.54-.099-.297.225-.511.541-.612.9 0 0 .238-.347 1.183-.603z"/><path d="m484.07 103.633s.863-.45 1.057-2.948c.184-2.381 2.249-.653 1.965 1.535-.211 1.485 3.796 2.979 1.965 2.979-.975-.005-1.946-.129-2.892-.369l-1.084.05h-.724l-.562.126-.481-.306z"/><path d="m482.811 102.598c.063 1.017-.603.482-1.565.527-1.565.072-.31 1.485-.31 1.485l3.422.27-1.043-2.079z"/><path d="m400.388 10.041h-.953c-.03-.033-.072-.052-.117-.054-.578-.043-1.158-.043-1.736 0-.033-.045-.088-.071-.144-.068h-.247c-1.699-.123-3.273-.936-4.358-2.25-1.088-1.35-1.376-3.123-1.547-4.816-.022-.9-.04-1.8-.085-2.673-.017-.116-.124-.195-.24-.178-.092.014-.165.086-.178.178-.09 1.611-.138 3.225-.144 4.843-.117.378-.229.752-.337 1.13-.085.363-.221.711-.405 1.035-.2.311-.444.591-.724.833-1.001.909-2.257 1.487-3.598 1.656l-1.165.036c-1.318-.021-2.635.047-3.944.203-.094 0-.171.077-.171.171s.077.171.171.171c1.021.068 2.033.072 3.054.054.931 0 1.884-.212 2.806.023 1.237.316 2.355.987 3.215 1.931.135.178.257.366.364.563.402.846.627 1.765.661 2.7 0 .108 0 .216.027.324s0 .126 0 .185c-.005.031-.005.063 0 .095.027.414.049.833.067 1.247 0 .513 0 1.022-.027 1.53-.036.576-.023 1.154.04 1.728.017.118.127.2.245.183.095-.014.169-.088.183-.183.049-.581.054-1.161.058-1.746.037-.043.061-.096.067-.153.045-.647.045-1.297 0-1.944.049-.626.117-1.251.157-1.877.362-1.504 1.275-2.816 2.559-3.677.412-.278.868-.485 1.349-.612.297-.059.598-.102.899-.131.261-.036.522-.086.782-.104h.274c.202 0 .4.027.603.032h.36c.732.09 1.473.058 2.195-.095.079-.005.14-.073.135-.153s-.073-.14-.153-.135zm-11.391-1.233c.13-.099.256-.203.382-.311-.116.117-.244.221-.382.311zm.967.149-.054.032c.208-.161.394-.348.553-.558-.125.206-.29.385-.486.527h-.013zm3.85.414"/><path d="m463.937 21.522h-.958c-.03-.033-.072-.053-.117-.054-.576-.043-1.155-.043-1.731 0-.034-.045-.088-.07-.144-.068h-.252c-1.697-.124-3.27-.937-4.353-2.25-1.088-1.35-1.376-3.123-1.551-4.816 0-.9-.04-1.8-.085-2.673 0-.114-.094-.206-.208-.206-.113 0-.205.092-.206.206-.093 1.611-.141 3.225-.144 4.843-.117.378-.234.752-.337 1.13-.083.358-.218.702-.4 1.022-.2.31-.442.59-.72.833-1.001.909-2.257 1.487-3.598 1.656l-1.165.036c-1.318-.021-2.635.047-3.944.203-.094 0-.171.077-.171.171s.076.17.171.171c1.021.068 2.033.072 3.058.054.931 0 1.884-.212 2.802.023 1.238.316 2.358.987 3.22 1.931.135.178.257.366.364.563.402.846.627 1.765.661 2.7v.509c-.005.031-.005.063 0 .095.031.414.049.833.067 1.247 0 .513 0 1.022-.022 1.53-.034.576-.02 1.154.04 1.728 0 .124.101.225.225.225s.225-.101.225-.225c.045-.581.049-1.161.054-1.746.041-.041.065-.095.067-.153.047-.647.047-1.297 0-1.944.054-.626.117-1.251.157-1.877.333-1.497 1.212-2.816 2.464-3.699.421-.275.887-.476 1.376-.594.297-.059.598-.102.899-.131.261-.036.517-.086.782-.104h.274c.198 0 .4.027.598.032h.364c.73.09 1.47.058 2.19-.095.077-.002.138-.067.135-.144-.002-.057-.037-.107-.09-.126zm-11.378-1.233c.129-.099.255-.203.378-.311-.113.118-.24.222-.378.311zm.962.149-.054.032c.208-.161.394-.348.553-.558-.127.209-.298.388-.499.527zm3.854.414"/><path d="m430.852 28.453h-.679c-.022-.023-.053-.036-.085-.036-.409-.032-.819-.032-1.228 0-.025-.03-.064-.047-.103-.045h-.184c-1.204-.084-2.32-.658-3.089-1.589-.773-.954-.98-2.219-1.102-3.416 0-.635-.027-1.269-.058-1.899 0-.082-.068-.148-.15-.147-.081 0-.146.066-.147.147-.067 1.143-.099 2.291-.103 3.438-.081.266-.162.531-.238.801-.058.254-.154.498-.283.725-.142.22-.315.418-.513.59-.707.642-1.594 1.052-2.541 1.175l-.827.027c-.935-.015-1.869.033-2.797.144-.067 0-.121.054-.121.122s.054.122.121.122c.724.045 1.444.05 2.168.036.66-.088 1.328-.088 1.988 0 .877.217 1.671.686 2.285 1.35.098.125.185.257.261.396.277.601.43 1.251.45 1.913v.36c-.005.022-.005.045 0 .068 0 .297.031.59.045.9.013.311 0 .725 0 1.085-.027.408-.018.818.027 1.224 0 .085.069.153.154.152.084 0 .152-.068.152-.152.031-.41.036-.824.04-1.233.026-.032.041-.071.045-.113.034-.458.034-.919 0-1.377.036-.45.081-.9.112-1.35.234-1.063.856-2 1.745-2.628.301-.195.632-.338.98-.423.211-.05.45-.059.648-.09s.369-.063.558-.072h.899c.519.067 1.045.045 1.556-.063.043-.033.052-.095.019-.139zm-8.095-.9c.094-.072.184-.144.27-.221-.075.09-.159.171-.252.243l-.018-.023zm.688.104h-.04c.149-.112.281-.246.391-.396-.078.163-.192.306-.333.419zm1.547.45"/><path d="m351.923 23.993h-.679c-.024-.021-.054-.034-.085-.036-.409-.032-.819-.032-1.228 0-.025-.03-.064-.047-.103-.045h-.175c-1.205-.085-2.323-.659-3.094-1.589-.769-.954-.976-2.219-1.097-3.416 0-.635-.027-1.269-.063-1.899-.014-.081-.091-.135-.172-.121-.062.011-.11.059-.12.121-.069 1.143-.103 2.289-.103 3.438-.081.266-.166.531-.238.801-.106.517-.387.981-.796 1.314-.707.642-1.594 1.052-2.541 1.175l-.827.027c-.935-.015-1.869.033-2.797.144-.067 0-.121.054-.121.122s.054.122.121.122c.724.045 1.439.05 2.168.036.66-.088 1.328-.088 1.988 0 .88.223 1.674.7 2.285 1.373.096.126.183.258.261.396.277.601.43 1.251.45 1.913v.36c-.003.022-.003.045 0 .068.022.297.036.59.049.9s0 .725 0 1.085c-.027.408-.018.818.027 1.224 0 .085.069.153.154.152.084 0 .152-.068.152-.152.031-.41.036-.824.04-1.233.026-.032.041-.071.045-.113.034-.458.034-.919 0-1.377.036-.45.081-.9.112-1.35.234-1.063.856-2 1.745-2.628.301-.195.632-.338.98-.423.211-.05.45-.059.648-.09s.369-.063.558-.072h.193l.45.023h.256c.519.067 1.045.045 1.556-.063.051-.019.078-.075.06-.127-.009-.026-.029-.047-.055-.058zm-8.095-.9c.094-.072.184-.144.27-.221-.075.09-.159.171-.252.243l-.018-.023zm.684.104-.036.023c.148-.113.28-.247.391-.396-.083.155-.198.29-.337.396zm1.551.45"/><path d="m408.56 15.361h-.504c-.017-.017-.039-.027-.063-.027-.299-.02-.6-.02-.899 0-.022-.037-.066-.055-.108-.045h-.135c-.896-.062-1.727-.49-2.298-1.184-.514-.75-.798-1.634-.818-2.543 0-.473 0-.945-.045-1.413-.012-.061-.072-.1-.133-.088-.044.009-.079.044-.088.088-.049.851-.076 1.706-.076 2.561-.063.198-.121.396-.18.594-.041.189-.111.372-.207.54-.106.167-.234.319-.382.45-.527.477-1.188.782-1.893.873h-.616c-.697-.009-1.394.027-2.087.108-.05 0-.09.04-.09.09s.04.09.09.09c.54.036 1.075.041 1.614.032.492-.068.992-.068 1.484 0 .653.167 1.244.52 1.7 1.017.071.094.136.194.193.297.211.447.33.932.351 1.427v.266c-.003.016-.003.033 0 .05 0 .221.027.45.036.662v.806c-.024.3-.024.601 0 .9.013.063.074.105.137.092.046-.009.083-.046.092-.092.022-.306.027-.617.027-.923.02-.023.032-.051.036-.081.025-.342.025-.685 0-1.026.027-.333.058-.662.081-.995.176-.79.639-1.486 1.3-1.953.224-.144.47-.251.729-.315.161-.031.323-.054.486-.068.139 0 .274-.045.414-.054h.728c.387.046.779.03 1.16-.05.01-.033-.005-.07-.036-.086zm-6.013-.653c.07-.052.138-.107.202-.167-.06.064-.128.12-.202.167zm.513.077h-.027c.11-.086.208-.186.292-.297-.067.116-.157.217-.265.297zm2.055.22"/><path d="m339.624 27.931h-.504c-.009-.017-.023-.031-.04-.041-.299-.022-.6-.022-.899 0-.017-.025-.046-.038-.076-.036h-.13c-.897-.062-1.73-.49-2.303-1.184-.576-.707-.724-1.652-.818-2.543 0-.45 0-.941-.045-1.413-.012-.061-.072-.1-.133-.088-.044.009-.079.044-.088.088-.045.851-.072 1.706-.076 2.561-.058.198-.121.396-.175.594-.045.189-.116.371-.211.54-.106.167-.234.319-.382.45-.527.479-1.188.784-1.893.873l-.612.023c-.697-.013-1.394.021-2.087.104-.051.011-.083.062-.072.113.008.036.036.064.072.072.54.032 1.075.036 1.614.027.491-.068.989-.068 1.48 0 .655.166 1.247.519 1.704 1.017.07.096.134.195.193.297.212.447.33.932.346 1.427v.27c-.003.015-.003.03 0 .045 0 .221 0 .45.036.662v.806c-.017.3-.009.601.022.9 0 .062.05.113.112.113s.112-.05.112-.113c.027-.306.027-.612.031-.9.021-.022.033-.051.036-.081.025-.342.025-.685 0-1.026.027-.333.063-.662.085-.995.175-.791.638-1.487 1.3-1.953.224-.145.47-.251.729-.315.157-.036.324-.045.481-.068s.279-.045.418-.054h.652c.385.046.776.03 1.156-.05.028-.028.028-.074 0-.102-.01-.01-.023-.017-.036-.02zm-6.013-.653.202-.167c-.06.064-.128.12-.202.167zm.508.077h-.027c.112-.084.21-.184.292-.297-.06.117-.147.218-.252.297zm1.156.333"/><path d="m324.329 40.59h-.504c-.016-.018-.039-.03-.063-.032-.299-.022-.6-.022-.899 0-.015-.025-.043-.039-.072-.036h-.135c-.896-.062-1.727-.49-2.298-1.184-.514-.75-.8-1.633-.823-2.543 0-.45 0-.941-.045-1.413 0-.06-.049-.108-.109-.107-.059 0-.106.048-.107.107-.049.851-.076 1.706-.076 2.561-.063.198-.126.396-.18.594-.046.19-.117.373-.211.545-.105.168-.234.319-.382.45-.523.486-1.182.8-1.889.9h-.616c-.697-.012-1.394.025-2.087.108-.05 0-.09.04-.09.09s.04.09.09.09c.54.036 1.075.036 1.614.027.492-.068.992-.068 1.484 0 .654.167 1.245.522 1.7 1.022.07.094.135.191.193.293.211.447.329.932.346 1.427v.27c-.002.016-.002.033 0 .05 0 .221.027.45.036.657v.81c-.017.3-.009.601.022.9.013.063.074.105.137.092.046-.009.083-.046.092-.092 0-.306 0-.612.027-.9.019-.023.032-.051.036-.081.027-.343.027-.688 0-1.031.031-.329.063-.662.085-.99.176-.79.639-1.486 1.3-1.953.222-.148.469-.256.729-.32.162-.036.324-.041.486-.063.137-.026.275-.046.414-.059h.652c.387.049.779.032 1.16-.05.037-.013.057-.055.043-.092-.009-.026-.034-.045-.062-.047zm-6.013-.653c.072-.05.135-.108.202-.162-.06.062-.128.117-.202.162zm.513.077h-.031c.11-.084.209-.182.292-.293-.061.114-.145.214-.247.293h-.013zm1.151.338"/><path d="m392.285 29.569h-.508c-.017-.016-.04-.025-.063-.027-.299-.022-.6-.022-.899 0-.018-.024-.047-.037-.076-.036h-.13c-.9-.053-1.737-.474-2.316-1.166-.515-.75-.799-1.633-.818-2.543 0-.45-.022-.941-.045-1.413-.012-.061-.072-.1-.133-.088-.044.009-.079.044-.088.088-.049.851-.076 1.706-.076 2.561-.063.198-.121.396-.18.594-.042.191-.112.374-.207.545-.107.167-.235.318-.382.45-.528.478-1.188.784-1.893.878h-.616c-.696-.012-1.391.024-2.082.108-.05 0-.09.04-.09.09s.04.09.09.09c.54.036 1.075.036 1.614.027.491-.068.989-.068 1.48 0 .655.166 1.246.521 1.7 1.022.068.093.13.191.184.293.211.447.33.932.351 1.427v.32c0 .221.027.45.036.657s0 .54 0 .81c-.026.299-.026.601 0 .9.013.063.074.105.137.092.046-.009.083-.046.092-.092 0-.306.027-.612.027-.9.02-.025.032-.054.036-.086.025-.342.025-.685 0-1.026.027-.329.063-.662.081-.99.178-.792.642-1.489 1.304-1.958.224-.145.47-.251.729-.315.159-.03.32-.051.481-.063.139 0 .274-.05.414-.059h.463c.063.005.126.005.189 0 .387.049.779.032 1.16-.05.039.01.078-.013.088-.052s-.013-.078-.052-.088zm-6.013-.653c.067-.05.135-.108.198-.162-.06.061-.126.116-.198.162zm.508.077h-.027c.109-.085.208-.183.292-.293-.064.117-.155.217-.265.293zm1.156.338"/><path d="m452.19 33.291h-.508c-.015-.017-.036-.026-.058-.027-.299-.019-.6-.019-.899 0-.02-.021-.048-.033-.076-.032h-.13c-.897-.062-1.73-.49-2.303-1.184-.514-.75-.798-1.634-.818-2.543 0-.45-.022-.945-.045-1.413-.012-.061-.072-.1-.133-.088-.044.009-.079.044-.088.088-.049.851-.076 1.706-.076 2.561-.063.198-.121.396-.175.594-.045.189-.116.371-.211.54-.106.167-.234.319-.382.45-.527.478-1.188.783-1.893.873h-.616c-.696-.009-1.391.027-2.082.108-.05 0-.09.04-.09.09s.04.09.09.09c.54.036 1.075.041 1.614.032.491-.068.989-.068 1.48 0 .654.166 1.244.519 1.7 1.017.073.093.137.193.193.297.211.447.33.932.351 1.427v.27c-.002.016-.002.033 0 .05 0 .221.027.45.036.662s0 .54 0 .806c-.024.3-.024.601 0 .9.013.063.074.105.137.092.046-.009.083-.046.092-.092.022-.306.027-.617.031-.923.021-.022.032-.051.031-.081.025-.342.025-.685 0-1.026.027-.333.063-.662.085-.995.173-.791.637-1.488 1.3-1.953.224-.145.47-.251.729-.315.157-.036.319-.045.481-.068s.274-.045.414-.054h.657c.385.046.776.03 1.156-.05.031-.025.036-.07.011-.101 0 0-.001-.002-.002-.002zm-6.013-.653.202-.167c-.062.06-.13.114-.202.162zm.508.077h-.027c.111-.085.209-.185.292-.297-.065.117-.156.217-.265.293v.005zm1.156.333"/></g></svg>