<?xml version="1.0" encoding="UTF-8"?>
<svg id="_レイヤー_1" data-name="レイヤー 1" xmlns="http://www.w3.org/2000/svg" xmlns:xlink="http://www.w3.org/1999/xlink" viewBox="0 0 336 308">
  <defs>
    <style>
      .cls-1 {
        fill: none;
      }

      .cls-2 {
        clip-path: url(#clippath);
      }

      .cls-3 {
        fill: #001d00;
      }

      .cls-4 {
        fill: #fff;
      }

      .cls-5 {
        fill: #ff8000;
      }

      .cls-6 {
        fill: #da801e;
      }

      .cls-7 {
        clip-path: url(#clippath-1);
      }

      .cls-8 {
        clip-path: url(#clippath-2);
      }
    </style>
    <clipPath id="clippath">
      <ellipse class="cls-1" cx="170.05236" cy="154" rx="110.68497" ry="110.11"/>
    </clipPath>
    <clipPath id="clippath-1">
      <ellipse class="cls-1" cx="170.05236" cy="154" rx="110.68497" ry="110.11"/>
    </clipPath>
    <clipPath id="clippath-2">
      <ellipse class="cls-1" cx="170.05236" cy="154" rx="110.68497" ry="110.11"/>
    </clipPath>
  </defs>
  <ellipse class="cls-5" cx="170.05236" cy="154" rx="154.80416" ry="154"/>
  <ellipse class="cls-3" cx="170.05235" cy="154" rx="145.28369" ry="144.52901"/>
  <ellipse class="cls-5" cx="170.05236" cy="154" rx="102.94477" ry="102.41"/>
  <g>
    <g class="cls-2">
      <path class="cls-5" d="m272.06829,178.871c.85143-3.619,1.31584-7.546,1.31584-11.781,0-9.24-2.01246-17.941-5.65034-24.64-2.94127-5.467-6.81137-9.163-11.14589-10.934l.46442-4.851c1.70286-.077,3.2509-.308,4.48931-.539l7.81761-1.771-4.02492-6.93c-1.08362-1.848-3.48309-4.697-6.03735-7.084-3.8701-3.696-7.27579-5.621-10.37187-6.006-.38701-.077-.69661-.077-1.08362-.077-2.24466,0-4.33452.847-5.88256,2.464-.07741.077-.07741.154-.15481.154v-3.773c.46442-9.394-3.40569-14.322-6.81137-16.786-3.2509-2.387-7.58539-3.619-12.69394-3.619-3.01868,0-6.34698.385-9.83007,1.232-2.39947.077-5.03113.077-7.81761.077-5.26333,0-10.06227-.077-13.70016-.154l-.92882-3.003c1.23844-1.848,2.24466-3.234,2.94128-4.004.1548,0,.38701,0,.61922-.077,1.00623.693,2.24466,1.078,3.48309,1.155,1.23844,1.001,2.47688,1.309,3.48309,1.386h.61921c1.70286,0,10.13968-.77,16.87364-1.463,1.54804-.154,3.01868-.924,4.02492-2.156.69661-.847,1.16103-1.925,1.31584-3.003,1.31584-1.386,2.08987-3.311,1.93505-5.313-.2322-3.773-3.40569-6.776-7.19838-6.776h-.38701c-1.78024.077-5.88256.385-10.52669.616-1.31587-.693-2.86391-1.15499-4.41195-1.15499-.3096,0-.61921,0-.92883.077l-5.34074.693c-.77402.077-1.47063.308-2.16726.616-.92882-.462-1.93505-.693-2.94128-.693-.23221,0-.54181,0-.77402.077l-2.86387.385c-3.32829.385-5.72775,3.234-5.72775,6.545-.54181.693-1.16103,1.463-1.78025,2.31-.46442-.154-.85143-.385-1.31583-.539l-.1548-.231-.1548-.077c-.46442-.154-1.00623-.308-1.47063-.539-.23221-.077-.69661-.231-.69661-.231-.23221-.077-.38701-.154-.61922-.231-.46442-.154-1.00623-.308-1.54804-.462h-.07741l-2.08985-.539-1.08362-.308c-.38701-.077-.69661-.154-1.00623-.154-.07741,0-.1548,0-.23221-.077l-2.24466-.385h-.07741c-.54181-.077-1.08362-.077-1.62545-.154-.23221,0-.46442,0-.61922-.077h-.07741c-.85143-.077-1.70284-.077-2.55427-.077-2.55427,0-5.03113.231-7.3532.77h-.07741c-1.93505.462-3.48309,1.001-4.87633,1.617h0c-.23221.154-.61922.231-.92882.385,0-3.003-2.08985-5.621-5.18594-6.237l-2.32206-.385c-.38701-.077-.77402-.077-1.16103-.077-.77402,0-1.47063.154-2.16726.385-.54181-.231-1.08362-.385-1.62545-.462l-4.33452-.77c-.38701-.077-.85143-.154-1.31583-.154-1.23844,0-2.47686.308-3.48309.924-3.6379-.462-6.88878-.847-8.28202-1.001-.23221,0-.54181-.077-.77402-.077-3.48309,0-6.42437,2.618-6.81138,6.083-.23221,1.848.3096,3.619,1.39324,4.928.07741,1.001.46442,1.925,1.08362,2.695.92882,1.232,2.24466,2.079,3.7927,2.31,12.84875,2.002,13.77757,2.002,14.24198,2.002h.23221c.92882-.077,2.01246-.308,3.17349-1.001.92882-.077,1.78025-.308,2.55427-.693.3096.539.77402,1.155,1.31583,2.002-.69661,1.078-1.31583,2.156-1.93505,3.157,0,0-.3096.539-.38701.77-1.00623.693-1.85765,1.463-2.55427,2.233-4.56672,1.001-9.44305,2.233-13.15835,4.312l-2.55427,1.386c-3.25088-.308-9.13345-.847-13.85497-.847-2.55427,0-4.56672.154-6.03736.462-6.65658,1.386-11.84252,6.391-12.38433,6.93l-1.23843,1.232-.23221,1.771c-.0774.308-1.00623,7.238,0,14.245.77402,5.39,5.10854,9.086,11.76511,10.164l.38701,3.465h-1.31583c-8.97864,0-17.26066,4.774-23.29802,13.552-5.65035,8.162-8.82384,18.865-8.82384,30.261,0,11.319,3.09608,22.099,8.82384,30.26099.54181.77,1.08363,1.463,1.62544,2.233l-37.2304,15.55401c29.56759,45.66099,81.11738,75.845,139.78815,75.845,66.25617,0,123.37889-38.5,150.16003-94.248-19.27311-9.77901-38.08181-18.55702-55.18767-23.10001Zm-53.87185,5.775c-.2322.154-.38701.231-.38701.231-.2322,0-.46442-.154-.85143-.539.38701.07699.85143.23099,1.23844.308Z"/>
    </g>
    <g class="cls-7">
      <path class="cls-3" d="m250.86012,135.597l1.23844-14.091c1.54804.077,5.34074.154,8.20462-.462l.92883-.231-.46442-.77c-.69661-1.155-2.63167-3.619-5.10854-5.929-2.01246-1.925-4.95373-4.312-7.3532-4.62-1.00622-.154-1.85765.154-2.55426.847-.61921.616-1.23844,2.464-1.78024,5.082h-7.50801c0-4.62,0-8.932.07741-12.397.3096-5.775-1.23844-9.933-4.64412-12.397-5.26333-3.85-13.70018-2.618-18.73131-1.386-10.44928.231-22.7562-.077-27.32293-.231v-4.004l-1.47063-4.928c2.55427-3.927,5.18594-7.469,6.19217-8.162.61922-.154,2.47686-.308,5.03113-.539.38701.924,1.39324,1.54,2.47686,1.386l1.31584-.154c.69661,1.309,1.39323,1.54,1.70286,1.617h.15481c1.70286,0,13.85497-1.232,16.40925-1.463.38701,0,.61921-.385.61921-.693,0-.385-.38701-.616-.69661-.616-5.80516.539-15.3256,1.463-16.25444,1.463-.07741-.077-.2322-.231-.38701-.462l2.55426-.308c.85143-.077,1.54804-.693,1.85765-1.463,4.48931-.308,9.21084-.616,13.00354-.847,1.08362-.077,1.93505-1.001,1.85765-2.079-.07741-1.078-1.00622-1.925-2.08987-1.848-1.93505.077-7.3532.462-13.00354.847-.38701-1.001-1.39323-1.617-2.47688-1.54l-5.34074.693c-.92882.077-1.62545.77-1.93505,1.54-.92882.077-1.78025.154-2.47686.231l-.07741-.77c-.07741-.693-.69661-1.155-1.39324-1.078l-2.86387.385c-.69661.077-1.16103.693-1.08362,1.386l.1548,1.232c0,.154.07741.231.1548.385-1.08362,1.001-2.55427,2.772-4.95373,6.391-.1548.308-.38701.539-.54181.847l-.46442-.385-.85143-.385c-1.23844-.539-2.47686-1.078-3.7927-1.617-.61922-.231-1.31583-.462-1.93505-.693-.61922-.231-1.31583-.462-1.93505-.616l-2.01246-.462-1.00623-.231c-.3096-.077-.69661-.154-1.00623-.154l-2.08985-.308c-.69661-.077-1.39324-.154-2.08985-.154-2.78648-.154-5.57295,0-8.35943.616-1.39324.308-2.70907.77-4.02491,1.309-.3096.154-.61922.308-1.00623.462-.3096.154-.61922.308-.92882.539-.3096.154-.61922.385-.92882.616-.1548.077-.3096.231-.46442.308-.1548.154-.3096.231-.46442.385l-.07741.077-.07741.077c-.1548.231-.38701.539-.54181.77-.1548-.231-.23221-.462-.38701-.616-1.78025-3.003-2.94128-4.62-3.7927-5.467.07741-.077.07741-.231.07741-.308l.1548-1.001c.07741-.539-.3096-1.078-.85143-1.232l-2.32206-.385c-.54181-.077-1.08362.308-1.23844.847l-.07741.616c-.61922-.077-1.31583-.231-2.01246-.308-.1548-.693-.77402-1.232-1.47063-1.386l-4.33452-.77c-.92882-.154-1.78025.308-2.08985,1.155-4.56672-.539-9.05604-1.078-10.60408-1.232-.92882-.077-1.70284.539-1.78025,1.386-.07741.924.54181,1.694,1.39324,1.771,3.09608.385,6.96619.77,10.60408,1.232.23221.616.77402,1.155,1.47063,1.232l2.08985.385c-.1548.231-.3096.308-.38701.385h0c-.61922,0-8.43682-1.155-13.23576-1.925-.3096-.077-.54181.154-.61922.462s.1548.539.46442.616c2.08985.308,12.46174,1.925,13.39056,1.925h0c.3096,0,.85143-.231,1.47063-1.232l1.00623.154c.85143.154,1.70284-.308,2.08985-1.001,2.08985.308,3.6379.539,4.10231.693.77402.616,2.78648,3.696,4.72153,7.007-.54181.847-1.08362,1.694-1.62545,2.541-.69661,1.078-1.31583,2.156-1.93505,3.234-.3096.616-.69661,1.232-1.00623,1.848-1.70284,1.001-2.86387,2.079-3.25088,3.157-5.34074,1.078-10.37187,2.233-13.77757,4.158l-.38701,11.935-2.94128-9.625s-15.32561-1.848-20.66635-.77c-5.34074,1.078-9.75266,5.544-9.75266,5.544,0,0-.85142,6.391,0,12.782.85142,6.391,11.3007,6.006,11.3007,6.006,0,0,34.67613,5.082,40.48129,5.775.54181.077.85143.077.77402.077s-.3096,0-.77402-.077c-4.87633-.385-30.41902-2.31-40.09428-3.003l1.31583,11.55c-2.16726-.539-4.64412-.77-7.2758-.77-14.8612,0-26.85852,17.248-26.85852,38.57699s12.07472,38.577,26.85852,38.577c10.52669,0,19.66012-8.70099,24.07205-21.406,1.85765,6.083,4.56672,11.08801,8.20462,11.85801,10.44928,2.15599,24.61386-1.69401,24.61386-1.69401,0,0,6.34697-4.158,4.87633-24.794-.54181,0-1.08362-.077-1.62545-.077,4.56672.231,8.97865.462,12.92614.77-2.24466-6.776-4.33452-13.629-6.42437-20.405l-2.08985-6.776c-.3096-1.078-.69661-2.079-1.00623-3.157l2.78648-3.85.23221.77.54181,1.771c.3096,1.155.61922,2.31.92882,3.465.61922,2.31,1.23844,4.62,1.78025,6.93,1.78025,7.161,3.40569,14.245,4.95373,21.483,4.56672.385,8.20462.77,10.13968,1.155,2.01246,12.936,7.6628,23.48499,15.0934,28.644,7.8176,1.38599,15.71262,1.30901,23.83984,0,4.79894-3.388,8.12722-9.009,10.21708-16.016l4.48931-1.232c1.70286,4.928,5.80516,7.392,15.79002,6.545,9.59785-.847,17.49287-10.395,17.49287-27.79699-.15479-17.47899-7.895-31.493-17.41544-31.72399Zm-139.09154-19.94301c-1.54804,0-2.86387-1.232-2.86387-2.849,0-1.54,1.23844-2.849,2.86387-2.849,1.54804,0,2.86387,1.232,2.86387,2.849-.07739,1.617-1.31583,2.849-2.86387,2.849Zm-5.57295-6.545s2.55427,5.621-5.26334,6.314c-7.81761.693-7.89501-8.855-5.18594-9.394,2.78647-.539,25.62008,3.003,25.62008,3.003l-15.1708.077Zm140.63957,2.156c.3096-.385.77402-.462,1.39323-.385,3.2509.385,8.82383,6.237,10.9137,9.009-3.2509.462-7.4306.231-7.50801.154l-.69661-.077-1.47063,16.478c-1.31584,6.16-2.63167,19.481-3.01868,23.331l-5.18595-7.931c1.08365-15.09198,3.40571-38.34599,5.57296-40.57899Zm-6.96619,41.041h0l5.72775,8.855c-1.08362.154-3.63791.462-8.97865.924v-9.086l3.2509-.693Zm-58.36116-39.809c-10.06227,1.001-8.28202-6.699-8.28202-6.699l-19.35052,3.542s28.17436-10.01,31.88965-10.01c3.6379-.07702,5.88256,12.08899-4.25711,13.16699Zm-9.59785-.69301c0,1.694-1.39324,3.157-3.17349,3.157-1.70284,0-3.17349-1.386-3.17349-3.157s1.39324-3.157,3.17349-3.157c1.78025.00001,3.17349,1.386,3.17349,3.157Zm10.06227-20.482l-31.50264,17.32501s12.46174-18.634,20.20195-20.251c7.12098.847,11.3007,2.926,11.3007,2.926Zm-2.78648-6.622c.3096.154.69661.308,1.00623.308.69661,0,1.31583-.308,1.70284-.924l-.07741,3.388c-2.32206-1.309-4.95373-2.387-7.81761-3.08l6.11476-6.622.61922.693c-1.23844,1.925-2.16726,3.465-2.16726,3.542-.61921.92399-.30959,2.07899.61923,2.69499Zm-44.19659,8.316c1.39324-1.001.92882-1.617,2.70907-1.309-.61922,3.696,1.39324,10.318,3.01868,16.093l-5.72775-14.784Zm8.12722-6.776c.07741-.077.1548-.231.23221-.308.77402-1.001,1.62545-1.925,2.39947-2.926.77402-1.001,1.54804-2.002,2.32206-3.003.69661-.924,1.47063-1.925,2.16726-2.926.07741-.077.1548-.154.23221-.154.07741-.077.23221-.154.38701-.231.23221-.154.54181-.308.77402-.462s.54181-.308.85143-.462c.3096-.154.54181-.231.85143-.385,1.16103-.539,2.39947-.847,3.6379-1.155,2.47686-.616,5.10854-.693,7.74021-.616.61922.077,1.31583.077,1.93505.154l1.93505.231c.3096.077.61922.077,1.00623.154l.92882.231,1.93505.385c1.31583.308,2.55427.693,3.8701,1.001,1.00623.308,1.93505.616,2.94128,1.001l-5.57295,7.546c-10.60411-2.541-23.53025-1.078-30.57384,1.925Zm-42.57114,89.089c.46442,1.925,1.08362,3.773,2.16726,5.467.54181.847,1.16103,1.54,1.93505,2.156.77402.539,1.62545.924,2.55427.924s1.85765-.385,2.55427-1.001c.77402-.616,1.39324-1.386,1.93505-2.156.54181-.847,1.00623-1.694,1.39324-2.618.38701-.924.69661-1.848.92882-2.849h.1548c-.38701,2.002-1.00623,3.927-2.01246,5.698-.54181.847-1.16103,1.694-1.93505,2.387-.77402.693-1.85765,1.155-2.94128,1.232-1.08362.077-2.16726-.308-3.09608-1.001-.85143-.616-1.54804-1.463-2.16726-2.31-1.16103-1.771-1.85765-3.696-2.32206-5.698-.46442-2.002-.69662-4.004-.69662-6.083,0-2.002.2322-4.081.69662-6.083.46442-2.002,1.16103-3.927,2.32206-5.621.54181-.847,1.23844-1.617,2.08985-2.233.38701-.308.85143-.539,1.39324-.77.46442-.154,1.00623-.231,1.54804-.231v.154c-1.00623,0-1.93505.462-2.70907,1.078-.77402.616-1.39324,1.386-1.85765,2.233-1.00623,1.694-1.62545,3.619-2.08985,5.544-.38701,1.925-.61922,3.927-.54181,5.929,0,1.925.23221,3.92699.69661,5.85199Zm-10.21707,32.879l.0774-.15401h-.92882c-.77402-.847-1.54804-1.77099-2.24466-2.695h-4.17971l-1.31583-3.388h3.01868c-.85142-1.30901-1.70284-2.695-2.55427-4.158h-4.10231l-1.23843-3.542h3.56049c-.77402-1.617-1.47064-3.234-2.01245-4.928h-4.17971l-.85142-5.005h3.48309c-.38701-1.463-.61922-2.926-.85142-4.389h-3.25088v-4.774h2.94128v-.462c0-1.617.0774-3.234.30961-4.928h-3.25088v-4.235h3.8701c.30961-1.617.77402-3.311,1.23843-4.851h-4.10231l.92882-4.697h4.79893c.61922-1.463,1.23843-2.926,1.93505-4.312h-5.72775l1.78025-2.849h5.49555c.85142-1.463,1.70284-2.772,2.63167-4.004h-5.10854l3.6379-3.465h4.17971c1.00623-1.001,2.01245-1.925,3.01868-2.541h6.96619l-1.47064,3.542h-6.03736c-.61922.924-1.23843,1.925-1.78025,2.926h3.56049l-1.47064,3.542h-3.8701c-.61922,1.309-1.16103,2.695-1.70284,4.081h3.9475l-1.47064,3.542h-3.6379c-.46441,1.694-.92882,3.388-1.23843,5.159h3.56049l-1.00623,3.542h-3.17348c-.30961,2.079-.46441,4.235-.46441,6.468h4.25711l-.85142,3.542h-3.40569c.0774,1.925.23221,3.773.46441,5.544h4.25711l1.16103,3.542h-4.87633c.38701,2.156.92882,4.312,1.62544,6.314h4.10231l1.62544,3.542h-4.41192c.61922,1.54,1.31583,3.00301,2.01245,4.466h4.56672l2.70907,3.542h-5.34074c.92882,1.463,1.85765,2.84901,2.86387,4.158h2.94128l2.08985,1.77099h-7.50799v.15399Zm24.38165-18.095c-.85143,1.463-1.93505,2.926-3.32829,4.081-.69661.616-1.47063,1.078-2.32206,1.463s-1.78025.616-2.78648.693c-.92882.077-1.93505-.077-2.86387-.385-.92882-.308-1.78025-.77-2.47686-1.309-.77402-.539-1.39324-1.155-2.01245-1.848-.61922-.693-1.16103-1.386-1.62544-2.079-1.00623-1.463-1.78025-3.08-2.39946-4.697-.61922-1.617-1.16103-3.311-1.54804-4.928-.77402-3.388-1.08363-6.776-1.08363-10.241,0-1.694.1548-3.388.30961-5.159.1548-1.694.46441-3.388.92882-5.082.38701-1.694.92882-3.311,1.54804-4.928.69662-1.617,1.47064-3.157,2.39946-4.543,1.00623-1.386,2.16726-2.772,3.6379-3.773.69661-.539,1.47063-.924,2.32206-1.232.85143-.308,1.70284-.385,2.63167-.385v.385c-1.62545.077-3.17349.847-4.33452,1.925-1.23844,1.001-2.24466,2.387-3.01868,3.773-1.62544,2.772-2.63167,6.006-3.32829,9.163-.61922,3.234-.92882,6.468-.85142,9.779,0,3.311.38701,6.545,1.16103,9.702.69662,3.157,1.85765,6.237,3.5605,8.932.38701.693.85143,1.309,1.39324,1.925.54181.616,1.08362,1.155,1.70284,1.54,1.23844.924,2.63167,1.463,4.02491,1.463,1.47063,0,2.86387-.616,4.10231-1.54,1.23844-.924,2.32206-2.156,3.17349-3.542,1.78025-2.695,3.01868-5.852,3.94751-9.009l.38701.077c-.54181,3.38801-1.54804,6.699-3.25088,9.779Zm8.97865-16.40099l-.61922-1.463h0l.61922,1.463s1.78025.077,4.72153.154c-.3096-2.541-.61922-5.159-.92882-7.7-.54181-4.774-.92882-9.471-1.16103-14.245-.07741-2.387-.1548-4.774-.07741-7.315,0-.616.07741-1.232.1548-1.925.07741-.308.07741-.539.1548-.847l3.48309,2.618c0,.154,0,.308-.07741.462-.07741,1.155-.1548,2.31-.1548,3.465s-.07741,2.31-.07741,3.542c0,4.697.07741,9.471.1548,14.168.07741,2.618.07741,5.236.1548,7.931.77402,0,1.54804.077,2.39947.077-5.18594-.30801-8.74642-.385-8.74642-.385Zm10.68149.308c.69661,0,1.47063.077,2.24466.077-.77402,0-1.47063-.077-2.24466-.077Zm-1.62545-.077h.61922-.61922Zm.85143.077h.61922-.61922Zm3.09608-16.786l17.87988-1.386.69661,3.157h-19.11831l.54181-1.771Zm-.54182-5.08199l.54181-1.694,17.87988-1.386.69661,3.157h-19.11831v-.077Zm.54182,11.858l17.87988-1.386.69661,3.157h-19.11831l.54181-1.771Zm5.65034,10.318h-.69661.69661Zm-1.08362-.07699h-.69661.69661Zm-1.00623,0c-.77402,0-1.54804-.077-2.32206-.077.77402,0,1.54804,0,2.32206.077Zm-2.63167-.154h-.69661.69661Zm12.46173,15.24599c-3.7153,0-6.81138-6.391-7.6628-15.015.69661,0,1.39324.077,2.08985.077,1.00623,8.008,4.02491,13.86,7.508,13.86.23221,0,.54181,0,.77402-.077-.85142.77-1.78024,1.155-2.70907,1.155Zm-5.65034-14.938c1.00623.077,2.08985.077,3.17349.154-1.00624-.07699-2.08987-.154-3.17349-.154Zm3.48309.154c.46442,0,.85143,0,1.31583.077-.38701-.077-.85143-.077-1.31583-.077Zm1.62544.077c1.08362.077,2.16726.077,3.25088.154-1.08362-.077-2.16725-.154-3.25088-.154Zm3.4057.154c.46442,0,.92882.077,1.39324.077-.38702-.077-.85143-.077-1.39324-.077Zm1.78024.077c.46442,0,.92882.077,1.31583.077-.387-.077-.85142-.077-1.31583-.077Zm4.02492-32.417q0-.077,0,0,0-.077,0,0l-.23221-.231c-.1548-.077-.3096-.154-.46442-.231-.38701-.154-.85143-.308-1.39324-.462-1.00623-.231-2.08985-.462-3.25088-.539-2.24466-.231-4.56672-.308-6.88878-.308s-4.64412.154-6.96619.308c-2.32206.231-4.64412.539-6.81138,1.001-.38701.077-.77402.231-1.16103.308l-3.48309-2.695c.3096-.231.54181-.308.77402-.462.38701-.154.69661-.308,1.00623-.462.61922-.231,1.31583-.462,1.93505-.616,2.47686-.616,4.87633-1.001,7.3532-1.232s4.87633-.385,7.3532-.385,4.87633.077,7.4306.385c1.23844.154,2.47686.385,3.7927.77.61922.154,1.31583.385,2.01246.77.3096.154.69661.385,1.08362.616.23221.154.46442.385.69661.616l-2.78647,2.84902Zm-2.94128-17.402l36.84338-9.009,1.54804,1.54-38.39142,7.469Zm76.55066,31.185c-1.08362-7.007-3.2509-13.321-6.19217-18.48,1.93505,2.079,3.5605,4.389,4.64412,6.853,1.16103,2.84901,1.54804,7.007,1.54804,11.627Zm-30.96083,43.73601l.07741-.15401h-.92883c-.69661-.847-1.47063-1.77099-2.16725-2.695h-3.94751l-1.23844-3.388h2.86387c-.85143-1.309-1.62545-2.695-2.39947-4.158h-3.94751l-1.16103-3.542h3.40569c-.69661-1.617-1.39324-3.234-1.93505-4.928h-3.94751l-.85143-5.005h3.32829c-.3096-1.463-.61922-2.926-.77402-4.389h-3.09608v-4.774h2.78648v-.462c0-1.617.07741-3.234.3096-4.928h-3.09608v-4.235h3.7153c.3096-1.617.69661-3.311,1.16103-4.851h-3.94751l.92882-4.697h4.56672c.54181-1.463,1.16103-2.926,1.78025-4.312h-5.49555l1.70284-2.849h5.18594c.77402-1.463,1.62545-2.772,2.47686-4.004h-4.72153l3.48309-3.465h3.94751c.92883-1.001,1.93505-1.925,2.86389-2.541h6.65658l-1.39323,3.542h-5.72775c-.61921.924-1.16103,1.925-1.70286,2.926h3.32828l-1.39323,3.542h-3.71529c-.61922,1.309-1.16103,2.695-1.62545,4.081h3.7927l-1.39323,3.542h-3.48309c-.46442,1.694-.85143,3.388-1.16103,5.159h3.40569l-.92882,3.542h-3.01868c-.23221,2.079-.46442,4.235-.46442,6.468h4.02491l-.77402,3.542h-3.25087c.07741,1.925.23221,3.773.46442,5.544h4.02491l1.08364,3.542h-4.64412c.38701,2.156.92882,4.312,1.54804,6.314h3.94751l1.54804,3.542h-4.17971c.61922,1.54,1.23844,3.003,1.93505,4.466h4.33452l2.63167,3.542h-5.03113c.85143,1.463,1.78024,2.849,2.70907,4.158h2.78648l2.01246,1.77099h-7.27581v.15399Zm16.40923-9.93301c-6.11476,0-10.9911-10.395-10.9911-23.254s4.95373-23.254,10.9911-23.254c2.39947,0,4.56672,1.617,6.34698,4.235-1.23844-.924-2.55426-1.463-4.02492-1.463-5.41815,0-9.83007,7.469-9.83007,16.632s4.41193,16.632,9.83007,16.632c3.63791,0,6.73399-3.311,8.43682-8.162-1.00622,10.62598-5.41815,18.63399-10.75888,18.63399Zm2.08987-26.565c-.69661-4.774-3.32828-8.393-5.88256-8.008-.38701.077-.77402.231-1.16103.462.77402-1.463,1.85765-2.464,3.17349-2.618,3.17349-.462,6.42436,3.927,7.19838,9.779.77402,5.852-1.08362,10.934-4.25711,11.319-1.31584.154-2.63167-.462-3.7927-1.694.38701.154.85143.154,1.23844.154,2.55426-.46202,4.17971-4.62001,3.48309-9.39401Zm7.74021-65.604c-2.01246-1.001-35.99196,12.012-35.99196,12.012l.46442-6.853,28.48395-13.629c3.7927-.231,7.74021.154,10.60409,2.233,3.01868,2.156,4.41193,6.006,4.1023,11.242-.15481,18.557,0,58.751,0,59.136h.69661c-.69661.077-1.47063.154-2.32206.231,1.31584-8.77801-4.02489-63.37101-6.03735-64.37201Zm29.95459,84.777c-2.39947,0-4.41193-6.314-4.41193-14.014,0-7.777,1.93505-14.014,4.41193-14.014.92883,0,1.85765.924,2.55426,2.541-.46442-.539-1.00622-.847-1.62545-.847-2.16725,0-3.94751,4.466-3.94751,10.01s1.78024,10.01,3.94751,10.01c1.47063,0,2.70907-2.002,3.40569-4.928-.46439,6.39099-2.24463,11.24199-4.3345,11.24199Zm.85143-16.093c-.2322-2.849-1.31584-5.082-2.39947-4.851-.15481,0-.3096.154-.46442.231.3096-.924.77402-1.463,1.23844-1.617,1.23844-.231,2.55426,2.387,2.86389,5.852.3096,3.542-.46442,6.545-1.70286,6.853-.54182.077-1.08362-.308-1.54804-1.001.15481.077.3096.077.46442.077,1.16103-.154,1.78026-2.618,1.54804-5.544Zm-1.54804-16.016c-2.63167,0-4.87632,3.696-5.03113,8.316v-.693c0-4.928,2.55426-10.087,5.34074-10.087s4.79894,5.159,4.79894,10.087v.693c-.2322-4.697-2.39947-8.316-5.10854-8.316Z"/>
    </g>
    <g class="cls-8">
      <path class="cls-3" d="m85.52929,207.823c19.19572,3.85,16.09963,5.92901,27.40033-7.08401l10.60408-2.92599,24.07205-1.463,53.33004,7.7,22.52401-4.08099,33.9021-14.091c15.55782-4.62,48.9955,12.32001,66.79798,22.25301-86.22591,132.13198-209.99182,99.253-283.44639,20.94399l44.8158-21.252Z"/>
    </g>
  </g>
  <g>
    <g>
      <path d="m29.18058,245.09099H11.0685v-41.888c5.72775.693,11.45551,1.38599,17.18326,2.002,8.66903,1.00099,13.23575,5.92901,13.23575,12.55099,0,4.38901-3.25089,6.622-4.56672,7.392,1.70285,1.078,5.10854,3.23401,5.18594,8.62401,0,7.315-5.49555,11.31899-12.92614,11.31899Zm-1.54804-31.108c-2.08986-.15401-4.25711-.385-6.34697-.53901v6.622c2.08986.15401,4.25711.308,6.34697.462,2.78647.15401,3.6379-1.38599,3.6379-3.003,0-1.54-.85142-3.31099-3.6379-3.542Zm.54182,15.323c-2.32206-.077-4.56672-.23099-6.88878-.308v7.16099c2.32206.077,4.56672.15401,6.88878.15401,2.78647.077,3.7153-1.77099,3.7153-3.388,0-1.69401-.92883-3.465-3.7153-3.61901Z"/>
      <path d="m60.68323,245.47599c-8.66904,0-15.79002-5.313-15.79002-13.70599,0-8.23901-.0774-16.478-.0774-24.717,3.40569.308,6.81138.61599,10.21707.92401,0,8.008.0774,15.93901.0774,23.947,0,3.465,2.08985,5.467,5.49555,5.54401,3.40569.077,5.57295-1.848,5.57295-5.15901,0-7.777-.0774-15.55401-.0774-23.33099,3.40569.308,6.81138.53901,10.21707.77,0,7.7.0774,15.323.0774,23.023.07741,7.623-7.04358,12.628-15.71261,12.70498Z"/>
      <path d="m107.35667,241.703c-3.5605,2.92599-7.508,3.773-12.07472,3.773-4.87633,0-8.51423-1.38599-11.61031-3.927-4.41192-3.69599-4.25711-8.70099-4.25711-14.01401s-.23221-10.318,4.17971-13.70599c3.01868-2.387,6.50178-3.465,11.53291-3.23401,10.68148.61599,15.32561,6.39099,16.33184,11.935-3.40569-.077-6.88878-.23099-10.29448-.308-.85143-2.618-2.47686-3.927-5.95996-4.08099-1.85765-.077-3.25088.53901-4.02491,1.30901-.92882,1.00099-1.54804,2.07901-1.47064,8.47,0,6.31401.61922,7.54599,1.54804,8.547.77402.847,2.16726,1.463,4.02491,1.54,2.16726,0,3.6379-.462,4.56672-1.30901,1.16103-.92401,1.54804-2.31,1.54804-3.61901v-.462c-2.01246-.077-4.10231-.077-6.11476-.15401v-7.007c5.41815.15401,10.91369.308,16.33184.462v4.62c0,5.39002-1.08362,8.54703-4.25711,11.16502Z"/>
      <path d="m141.8006,241.78c-3.5605,2.84901-7.508,3.61901-12.07473,3.61901-4.87633,0-8.51423-1.30901-11.61031-3.69599-4.41192-3.542-4.25711-8.23901-4.25711-13.24401s-.23221-9.702,4.17971-13.09c3.01868-2.31,6.57918-3.465,11.61031-3.31099,10.68149.308,15.32561,5.775,16.33184,11.165-3.40569-.077-6.88878-.077-10.29448-.15401-.85143-2.46401-2.47686-3.69599-5.95996-3.773-1.85765-.077-3.25088.53901-4.02491,1.30901-.92882.92401-1.54804,2.07901-1.47063,8.085,0,6.00599.61922,7.16099,1.54804,8.162.77402.77,2.16726,1.38599,4.02491,1.38599,2.16726,0,3.6379-.462,4.56672-1.232,1.16103-.92401,1.54804-2.233,1.54804-3.465v-.462c-2.01246,0-4.10231-.077-6.11476-.077v-6.69901c5.41815.077,10.9137.15401,16.33184.23099v4.543c-.07741,5.15901-1.16103,8.23901-4.33452,10.70302Z"/>
      <path d="m166.80147,232.078v13.09h-10.21707v-13.167c-4.17971-6.39099-8.43682-12.782-12.61654-19.327,3.7153.077,7.4306.15401,11.2233.15401,2.16726,3.927,4.41192,7.777,6.57918,11.627,2.16726-3.85,4.33452-7.7,6.50177-11.55,3.7153,0,7.4306,0,11.2233-.077-4.33451,6.468-8.51423,12.85901-12.69394,19.25Z"/>
      <path d="m209.91443,219.45c0,8.547-.07741,17.09401-.07741,25.718h-10.21708c0-8.47,0-16.94.07741-25.487-3.40569.077-6.81138.15401-10.21707.15401v-7.08401c10.21707-.15401,20.51154-.462,30.72862-.92401v7.315c-3.40569.15401-6.88878.23101-10.29447.30802Z"/>
      <path d="m248.69285,241.54901c-3.01868,2.54099-6.57918,3.927-11.68772,3.927s-8.59163-1.30901-11.61031-3.773c-4.41193-3.542-4.17971-8.162-4.17971-13.167s-.15481-9.625,4.25711-13.398c3.01868-2.54099,6.57918-4.08099,11.68772-4.38901,5.10854-.308,8.59163.847,11.61031,3.23401,4.41193,3.388,4.17971,8.393,4.17971,13.62901,0,5.31297.15481,10.24097-4.25711,13.93698Zm-7.43058-21.945c-.77402-.77-2.24466-1.38599-4.1023-1.30901-1.85765.077-3.32828.847-4.1023,1.617-.92883,1.00099-1.54804,2.233-1.54804,8.393s.54182,7.238,1.47063,8.23901c.77402.77,2.24466,1.463,4.1023,1.463s3.32828-.77,4.1023-1.617c.92883-1.00099,1.54804-2.15599,1.54804-8.393,0-6.31401-.54182-7.46901-1.47063-8.393Z"/>
      <path d="m271.68128,245.47599c-8.66904,0-15.71261-5.005-15.71261-12.705,0-7.623.07741-15.24599.07741-22.86901,3.40569-.23099,6.81137-.462,10.21708-.77,0,7.7-.07741,15.4-.07741,23.177,0,3.31099,2.08987,5.23599,5.49555,5.15901,3.40569-.077,5.65034-2.07901,5.65034-5.467,0-7.93099.07741-15.862.07741-23.71599,3.40569-.308,6.81137-.61599,10.21708-.92401,0,8.162-.07741,16.32401-.07741,24.563-.00002,8.23901-7.27581,13.552-15.86745,13.552Z"/>
      <path d="m313.01398,245.09099c-2.47688-5.005-4.87632-9.933-7.3532-14.78401-1.16103.077-2.32206.077-3.48309.15401v14.63h-10.21708c0-12.782.07741-25.487.07741-38.26901,5.49555-.53901,10.9911-1.078,16.48663-1.69401,9.21084-1.078,14.16457,4.85099,14.16457,11.70401,0,5.698-3.48309,9.47099-6.81137,11.242,3.01868,5.54401,5.95997,11.165,8.97865,17.017h-11.84251Zm-5.03113-31.108c-1.93505.15401-3.8701.308-5.80516.462v7.93099c1.93505-.15401,3.8701-.23099,5.80516-.385,2.78648-.15401,4.41193-2.31,4.41193-4.38901,0-2.00198-1.62545-3.84998-4.41193-3.61899Z"/>
    </g>
    <g>
      <path class="cls-6" d="m29.18058,256.102H11.0685c-6.11476,0-11.0685-4.928-11.0685-11.01099v-41.888c0-3.157,1.39324-6.16,3.7153-8.239,2.39946-2.079,5.57295-3.08,8.66903-2.695,5.65035.693,11.37811,1.386,17.02846,2.002,14.00977,1.617,23.06582,10.78001,23.06582,23.40801,0,2.46401-.46441,4.85099-1.31583,7.08401,1.31583,2.695,1.93505,5.698,1.93505,8.932.07739,12.93594-9.98487,22.32995-23.91724,22.40696h0Z"/>
      <path class="cls-6" d="m60.52842,256.41c-7.66281,0-14.62899-2.695-19.58272-7.623-4.56672-4.46599-7.04359-10.54901-7.04359-17.017l-.0774-24.717c0-3.08,1.31584-6.083,3.6379-8.162,2.32206-2.07901,5.41815-3.08,8.51423-2.772,3.40569.308,6.73398.616,10.13967.924,2.01245.154,3.8701.84699,5.34074,1.92499,1.70284-.847,3.6379-1.155,5.65035-1.00099,3.40569.308,6.73398.53901,10.13967.77,5.72775.385,10.21707,5.15901,10.21707,10.93401l.0774,23.023c.0774,13.475-11.45551,23.71599-26.78112,23.793-.0774-.07698-.1548-.07698-.23221-.07698Z"/>
      <path class="cls-6" d="m95.28195,256.41c-7.2758,0-13.62276-2.233-18.73131-6.545-8.12722-6.853-8.12722-15.862-8.12722-21.79099v-1.155c0-6.083-.0774-15.16901,8.35943-21.79099,5.34074-4.158,11.53291-6.00599,19.04091-5.54401,16.95106,1.00099,24.76866,11.473,26.54891,20.94401.23221,1.155.23221,2.31.07741,3.465.07741.61599.1548,1.232.1548,1.848v4.62c0,6.00599-.92882,13.62901-8.20462,19.635-6.81137,5.698-14.16457,6.31399-19.1183,6.31399h0Z"/>
      <path class="cls-6" d="m129.72588,256.41c-7.1984,0-13.39056-2.07901-18.49909-6.16-8.35943-6.69901-8.35943-15.785-8.35943-21.252v-1.078c0-5.54401-.07741-14.707,8.51423-21.252,5.18594-4.00401,11.30071-5.775,18.6539-5.62099,17.10586.53901,25.07828,10.703,26.78111,20.097.23221,1.155.23221,2.31.07741,3.465.07741.61599.1548,1.232.1548,1.848v4.543c0,5.92901-.92882,13.475-8.35943,19.327-6.73399,5.467-14.00978,6.083-18.96351,6.083h0Z"/>
      <path class="cls-6" d="m166.80147,256.17901h-10.21707c-6.11476,0-11.0685-4.928-11.0685-11.01099v-9.85599c-4.10231-6.237-7.58541-11.627-10.83629-16.632-2.24466-3.388-2.32206-7.777-.38701-11.31901,1.93505-3.465,5.65035-5.62099,9.67526-5.62099h.23221c3.7153.077,7.4306.15401,11.0685.15401,2.39947,0,4.64412.77,6.50177,2.15599,1.85765-1.30901,4.10231-2.07901,6.50177-2.07901,3.7153,0,7.4306,0,11.0685-.077h.07741c4.02491,0,7.74021,2.15599,9.67526,5.698s1.78025,7.85401-.46442,11.242c-3.6379,5.467-7.1984,10.93401-10.83629,16.40099v9.85599c0,2.92599-1.16103,5.698-3.25088,7.777-2.08985,2.07901-4.79893,3.31101-7.74021,3.31101Z"/>
      <path class="cls-6" d="m199.61994,256.17901c-2.94128,0-5.72775-1.155-7.81761-3.23401-2.08985-2.07901-3.25088-4.85099-3.25088-7.777v-14.322c-2.63167-.15401-5.10854-1.30901-6.96619-3.157-2.08985-2.07901-3.25088-4.85099-3.25088-7.85401v-7.08401c0-6.00599,4.79893-10.857,10.83629-10.93401,10.13968-.15401,20.35674-.462,30.49641-.92401,3.01868-.15401,5.95997,1.00099,8.12722,3.08,2.16725,2.07901,3.40569,4.928,3.40569,7.93099v7.315c0,5.775-4.48931,10.54901-10.29447,10.93401v15.092c0,6.083-4.95373,10.93401-11.06849,10.93401l-10.21708.00005h0Z"/>
      <path class="cls-6" d="m237.08254,256.41h0c-7.27579,0-13.39055-2.002-18.5765-6.16-8.35941-6.69901-8.28203-15.785-8.28203-21.252v-1.078c0-5.698,0-14.322,8.12722-21.175,5.03113-4.235,10.9911-6.545,18.18949-6.93,7.50801-.385,13.77756,1.38599,19.04091,5.54401,8.43682,6.622,8.43682,15.708,8.35941,21.71401v1.155c0,5.92901,0,14.86099-8.20462,21.71401h0c-5.10852,4.38896-11.22328,6.46797-18.65388,6.46797Zm-2.86386-28.413c1.23844,1.00099,2.55426,1.30901,3.48309,1.232.85143,0,1.70286-.385,2.55426-1.00099-1.00622-.77-2.16725-1.232-3.2509-1.232-.92881-.00002-1.93503.38498-2.78646,1.00099Z"/>
      <path class="cls-6" d="m271.75868,256.41h-.15481c-15.24822-.077-26.70372-10.24099-26.70372-23.71599l.07741-22.86901c0-5.775,4.48931-10.54901,10.29447-10.93401,3.40569-.23099,6.73399-.462,10.13968-.77,1.93505-.15401,3.8701.23099,5.65034,1.078,1.54804-1.078,3.40569-1.77099,5.41815-1.925,3.40569-.308,6.73399-.616,10.13968-.924,3.09608-.308,6.19217.693,8.51423,2.849,2.32206,2.07901,3.63791,5.082,3.63791,8.162l-.07741,24.563c0,6.39099-2.47688,12.397-7.04359,16.863-5.10852,4.92802-12.15211,7.62302-19.89232,7.62302Z"/>
      <path class="cls-6" d="m291.96063,256.102c-2.94127,0-5.72775-1.155-7.81761-3.23401-2.08987-2.07901-3.2509-4.85099-3.2509-7.777l.07741-38.26901c0-5.62099,4.33452-10.318,9.98486-10.934,5.41815-.539,10.9137-1.078,16.33184-1.694,7.27579-.847,14.00978,1.078,18.96351,5.39,4.79894,4.235,7.50801,10.472,7.50801,17.248,0,4.85099-1.47063,9.47099-4.17971,13.32099,1.70286,3.23401,3.48309,6.545,5.18595,9.85599,1.78024,3.388,1.62545,7.46901-.38701,10.703-2.01246,3.23401-5.57296,5.23599-9.44306,5.23599h-11.84251c-1.93505,0-3.7927-.462-5.41815-1.38599-1.62545.92401-3.40569,1.38599-5.41815,1.38599l-10.29449.15406h0Z"/>
    </g>
    <g>
      <path class="cls-3" d="m29.18058,251.713H11.0685c-3.6379,0-6.65658-2.92599-6.65658-6.622v-41.888c0-1.925.85142-3.69599,2.24466-4.928,1.39324-1.232,3.32829-1.848,5.18594-1.617,5.65035.693,11.45551,1.38599,17.10586,2.002,11.61031,1.30901,19.11831,8.778,19.19571,19.09599,0,2.618-.61922,5.082-1.85765,7.238,1.39324,2.15599,2.47687,5.005,2.47687,8.778,0,10.54901-8.04982,17.86401-19.58272,17.94101h0Zm-2.16726-31.185h0l.0774-.53901h0l-.0774.53901Z"/>
      <path class="cls-3" d="m60.52842,252.02099c-6.50178,0-12.38433-2.233-16.48664-6.39099-3.7153-3.69599-5.72775-8.62401-5.72775-13.937l-.0774-24.717c0-1.848.77402-3.61901,2.16726-4.928,1.39324-1.232,3.25089-1.848,5.10854-1.69401,3.40569.308,6.81138.61599,10.13967.92401,2.32206.23099,4.25711,1.54,5.26334,3.465.23221-.308.46441-.53901.77402-.847,1.39324-1.232,3.17348-1.848,5.03113-1.69401,3.40569.308,6.81138.53901,10.13967.77,3.48309.23099,6.11476,3.08,6.11476,6.545l.0774,23.023c0,11.01099-9.59786,19.327-22.3692,19.40401q-.07739.077-.1548.077Zm1.23844-20.02h0Z"/>
      <path class="cls-3" d="m95.28195,252.02099c-6.26957,0-11.53291-1.77099-15.86743-5.467-6.57918-5.54401-6.57918-13.013-6.57918-18.403v-1.155c0-5.467-.0774-13.013,6.65658-18.32599,4.48932-3.542,9.59786-5.005,16.02223-4.62,9.44305.53901,20.27934,5.39,22.4466,17.325.1548.92401.1548,1.848-.07741,2.772.1548.53901.23221,1.155.23221,1.77099v4.62c0,5.313-.77402,11.39599-6.57918,16.17-5.65034,4.77401-11.99731,5.313-16.25443,5.313h0Z"/>
      <path class="cls-3" d="m129.72588,252.02099c-6.19217,0-11.3781-1.69401-15.71262-5.15901-6.73398-5.39-6.73398-12.55099-6.73398-17.787v-1.078c0-5.313-.07741-12.55099,6.81138-17.787,4.41192-3.388,9.44305-4.85099,15.79002-4.697,9.52046.308,20.43414,4.77401,22.6014,16.478.1548.92401.1548,1.848-.07741,2.695.1548.53901.23221,1.155.23221,1.77099v4.543c0,5.23599-.77402,11.242-6.65658,15.93901-5.72775,4.54304-11.99731,5.08203-16.25442,5.08203h0Z"/>
      <path class="cls-3" d="m166.80147,251.79h-10.21707c-3.6379,0-6.65658-2.92599-6.65658-6.622v-11.165c-4.41192-6.69901-8.12722-12.397-11.5329-17.71-1.31583-2.07901-1.39324-4.62-.23221-6.77599,1.16103-2.15599,3.48309-3.388,5.88256-3.388,3.7153.077,7.4306.15401,11.14589.15401,2.39947,0,4.56672,1.30901,5.72775,3.388.23221.462.54181.92401.77402,1.38599l.69661-1.30901c1.16103-2.07901,3.40569-3.388,5.80516-3.388,3.7153,0,7.4306,0,11.14589-.077h.07741c2.39947,0,4.64412,1.30901,5.80516,3.388,1.16103,2.15599,1.08362,4.697-.23221,6.77599-3.8701,5.852-7.6628,11.70401-11.5329,17.47901v11.165c0,1.77099-.69661,3.388-1.93505,4.697-1.23844,1.30901-2.94127,2.002-4.72152,2.002Z"/>
      <path class="cls-3" d="m199.61994,251.79c-1.78025,0-3.48309-.693-4.72153-1.925-1.23844-1.232-1.93505-2.92599-1.93505-4.697v-18.71099c-1.16103,0-2.32206,0-3.48309.077-1.78025.077-3.48309-.693-4.72153-1.925s-1.93505-2.92599-1.93505-4.697v-7.08401c0-3.61901,2.86387-6.545,6.50177-6.545,10.13968-.15401,20.43414-.462,30.57382-.92401,1.78024-.077,3.5605.61599,4.87632,1.848,1.31584,1.232,2.01246,3.003,2.01246,4.77401v7.315c0,3.542-2.86389,6.468-6.42436,6.545-1.31584.077-2.55426.077-3.8701.15401l-.07741,19.327c0,3.61901-2.94127,6.545-6.65658,6.545l-10.13965-.077h0Zm10.29449-6.622h0Z"/>
      <path class="cls-3" d="m237.08254,252.02099h0c-6.34698,0-11.37811-1.69401-15.79002-5.23599-6.73399-5.39-6.65658-12.55099-6.65658-17.787v-1.078c0-5.15901,0-12.32,6.57918-17.86401,4.33452-3.69599,9.28825-5.54401,15.55782-5.92901,6.50177-.385,11.61031,1.078,16.09962,4.62,6.73399,5.313,6.73399,12.782,6.73399,18.24901v1.155c0,5.39,0,12.782-6.57918,18.32599h0c-4.48931,3.85002-9.52045,5.54401-15.94483,5.54401Zm11.61031-10.47198h0Z"/>
      <path class="cls-3" d="m271.75868,252.02099h-.15481c-12.77134-.077-22.29179-8.31599-22.29179-19.25l.07741-22.86901c0-3.465,2.70907-6.31401,6.19217-6.545,3.40569-.23099,6.81137-.462,10.13968-.77,1.85765-.15401,3.63791.462,5.03113,1.77099.3096.23099.54182.53901.77402.847,1.00622-1.925,2.94127-3.23401,5.26333-3.465,3.40569-.308,6.81137-.61599,10.13968-.92401,1.85765-.15401,3.71529.462,5.10854,1.69401,1.39323,1.232,2.16725,3.003,2.16725,4.85099l-.07741,24.563c0,5.23599-2.01246,10.16401-5.72775,13.783-4.10232,4.00403-10.13968,6.31403-16.64145,6.31403Z"/>
      <path class="cls-3" d="m291.96063,251.713c-1.78024,0-3.48309-.693-4.72153-1.925-1.23844-1.232-1.93505-2.92599-1.93505-4.697l.07741-38.26901c0-3.388,2.55426-6.237,5.95997-6.545,5.41815-.53901,10.9137-1.078,16.33184-1.69401,6.03735-.693,11.5329.847,15.48041,4.312,3.7927,3.388,6.03735,8.47,6.03735,13.937,0,5.39-2.16725,9.77901-4.95373,12.85901,2.16725,4.08099,4.33452,8.162,6.50177,12.32,1.08362,2.07901.92883,4.46599-.2322,6.468-1.16103,2.002-3.32828,3.157-5.65034,3.157h-11.84251c-2.16725,0-4.17971-1.078-5.41815-2.772-1.16103,1.69401-3.17349,2.772-5.41815,2.772l-10.21711.077h0Zm16.02222-37.73h0Z"/>
    </g>
    <g>
      <path class="cls-4" d="m29.18058,245.09099H11.0685v-41.888c5.72775.693,11.45551,1.38599,17.18326,2.002,8.66903,1.00099,13.23575,5.92901,13.23575,12.55099,0,4.38901-3.25089,6.622-4.56672,7.392,1.70285,1.078,5.10854,3.23401,5.18594,8.62401,0,7.315-5.49555,11.31899-12.92614,11.31899Zm-1.54804-31.108c-2.08986-.15401-4.25711-.385-6.34697-.53901v6.622c2.08986.15401,4.25711.308,6.34697.462,2.78647.15401,3.6379-1.38599,3.6379-3.003,0-1.54-.85142-3.31099-3.6379-3.542Zm.54182,15.323c-2.32206-.077-4.56672-.23099-6.88878-.308v7.16099c2.32206.077,4.56672.15401,6.88878.15401,2.78647.077,3.7153-1.77099,3.7153-3.388,0-1.69401-.92883-3.465-3.7153-3.61901Z"/>
      <path class="cls-4" d="m60.68323,245.47599c-8.66904,0-15.79002-5.313-15.79002-13.70599,0-8.23901-.0774-16.478-.0774-24.717,3.40569.308,6.81138.61599,10.21707.92401,0,8.008.0774,15.93901.0774,23.947,0,3.465,2.08985,5.467,5.49555,5.54401,3.40569.077,5.57295-1.848,5.57295-5.15901,0-7.777-.0774-15.55401-.0774-23.33099,3.40569.308,6.81138.53901,10.21707.77,0,7.7.0774,15.323.0774,23.023.07741,7.623-7.04358,12.628-15.71261,12.70498Z"/>
      <path class="cls-4" d="m107.35667,241.703c-3.5605,2.92599-7.508,3.773-12.07472,3.773-4.87633,0-8.51423-1.38599-11.61031-3.927-4.41192-3.69599-4.25711-8.70099-4.25711-14.01401s-.23221-10.318,4.17971-13.70599c3.01868-2.387,6.50178-3.465,11.53291-3.23401,10.68148.61599,15.32561,6.39099,16.33184,11.935-3.40569-.077-6.88878-.23099-10.29448-.308-.85143-2.618-2.47686-3.927-5.95996-4.08099-1.85765-.077-3.25088.53901-4.02491,1.30901-.92882,1.00099-1.54804,2.07901-1.47064,8.47,0,6.31401.61922,7.54599,1.54804,8.547.77402.847,2.16726,1.463,4.02491,1.54,2.16726,0,3.6379-.462,4.56672-1.30901,1.16103-.92401,1.54804-2.31,1.54804-3.61901v-.462c-2.01246-.077-4.10231-.077-6.11476-.15401v-7.007c5.41815.15401,10.91369.308,16.33184.462v4.62c0,5.39002-1.08362,8.54703-4.25711,11.16502Z"/>
      <path class="cls-4" d="m141.8006,241.78c-3.5605,2.84901-7.508,3.61901-12.07473,3.61901-4.87633,0-8.51423-1.30901-11.61031-3.69599-4.41192-3.542-4.25711-8.23901-4.25711-13.24401s-.23221-9.702,4.17971-13.09c3.01868-2.31,6.57918-3.465,11.61031-3.31099,10.68149.308,15.32561,5.775,16.33184,11.165-3.40569-.077-6.88878-.077-10.29448-.15401-.85143-2.46401-2.47686-3.69599-5.95996-3.773-1.85765-.077-3.25088.53901-4.02491,1.30901-.92882.92401-1.54804,2.07901-1.47063,8.085,0,6.00599.61922,7.16099,1.54804,8.162.77402.77,2.16726,1.38599,4.02491,1.38599,2.16726,0,3.6379-.462,4.56672-1.232,1.16103-.92401,1.54804-2.233,1.54804-3.465v-.462c-2.01246,0-4.10231-.077-6.11476-.077v-6.69901c5.41815.077,10.9137.15401,16.33184.23099v4.543c-.07741,5.15901-1.16103,8.23901-4.33452,10.70302Z"/>
      <path class="cls-4" d="m166.80147,232.078v13.09h-10.21707v-13.167c-4.17971-6.39099-8.43682-12.782-12.61654-19.327,3.7153.077,7.4306.15401,11.2233.15401,2.16726,3.927,4.41192,7.777,6.57918,11.627,2.16726-3.85,4.33452-7.7,6.50177-11.55,3.7153,0,7.4306,0,11.2233-.077-4.33451,6.468-8.51423,12.85901-12.69394,19.25Z"/>
      <path class="cls-4" d="m209.91443,219.45c0,8.547-.07741,17.09401-.07741,25.718h-10.21708c0-8.47,0-16.94.07741-25.487-3.40569.077-6.81138.15401-10.21707.15401v-7.08401c10.21707-.15401,20.51154-.462,30.72862-.92401v7.315c-3.40569.15401-6.88878.23101-10.29447.30802Z"/>
      <path class="cls-4" d="m248.69285,241.54901c-3.01868,2.54099-6.57918,3.927-11.68772,3.927s-8.59163-1.30901-11.61031-3.773c-4.41193-3.542-4.17971-8.162-4.17971-13.167s-.15481-9.625,4.25711-13.398c3.01868-2.54099,6.57918-4.08099,11.68772-4.38901,5.10854-.308,8.59163.847,11.61031,3.23401,4.41193,3.388,4.17971,8.393,4.17971,13.62901,0,5.31297.15481,10.24097-4.25711,13.93698Zm-7.43058-21.945c-.77402-.77-2.24466-1.38599-4.1023-1.30901-1.85765.077-3.32828.847-4.1023,1.617-.92883,1.00099-1.54804,2.233-1.54804,8.393s.54182,7.238,1.47063,8.23901c.77402.77,2.24466,1.463,4.1023,1.463s3.32828-.77,4.1023-1.617c.92883-1.00099,1.54804-2.15599,1.54804-8.393,0-6.31401-.54182-7.46901-1.47063-8.393Z"/>
      <path class="cls-4" d="m271.68128,245.47599c-8.66904,0-15.71261-5.005-15.71261-12.705,0-7.623.07741-15.24599.07741-22.86901,3.40569-.23099,6.81137-.462,10.21708-.77,0,7.7-.07741,15.4-.07741,23.177,0,3.31099,2.08987,5.23599,5.49555,5.15901,3.40569-.077,5.65034-2.07901,5.65034-5.467,0-7.93099.07741-15.862.07741-23.71599,3.40569-.308,6.81137-.61599,10.21708-.92401,0,8.162-.07741,16.32401-.07741,24.563-.00002,8.23901-7.27581,13.552-15.86745,13.552Z"/>
      <path class="cls-4" d="m313.01398,245.09099c-2.47688-5.005-4.87632-9.933-7.3532-14.78401-1.16103.077-2.32206.077-3.48309.15401v14.63h-10.21708c0-12.782.07741-25.487.07741-38.26901,5.49555-.53901,10.9911-1.078,16.48663-1.69401,9.21084-1.078,14.16457,4.85099,14.16457,11.70401,0,5.698-3.48309,9.47099-6.81137,11.242,3.01868,5.54401,5.95997,11.165,8.97865,17.017h-11.84251Zm-5.03113-31.108c-1.93505.15401-3.8701.308-5.80516.462v7.93099c1.93505-.15401,3.8701-.23099,5.80516-.385,2.78648-.15401,4.41193-2.31,4.41193-4.38901,0-2.00198-1.62545-3.84998-4.41193-3.61899Z"/>
    </g>
  </g>
  <g>
    <path class="cls-5" d="m116.0257,275.42901l5.10854-12.55099,8.59163,3.465-1.08362,2.772-5.49555-2.233-.85143,2.07901,4.64412,1.848-1.08362,2.772-4.64412-1.848-.92882,2.233,5.49555,2.233-1.08362,2.772-8.66905-3.54203Z"/>
    <path class="cls-5" d="m135.37622,282.282c-2.01246-.53901-3.5605-1.30901-4.48932-3.003l2.63167-1.54c.46442.847,1.62545,1.38599,2.70907,1.69401,1.23844.308,2.01246.077,2.16726-.693.07741-.308.07741-.61599-.07741-.847-.1548-.23099-.38701-.385-.77402-.53901l-1.54804-.61599c-1.08362-.462-1.93505-1.078-2.32206-1.848-.46442-.77-.54181-1.77099-.23221-2.84901.61922-2.387,2.94128-3.61901,5.88256-2.84901,1.85765.462,3.17349,1.30901,4.02491,2.695l-2.55427,1.463c-.61922-1.078-1.70284-1.30901-2.32206-1.463-1.16103-.308-1.78025.23099-1.93505.77-.07741.15401-.07741.385.07741.693.1548.23099.38701.462.77402.61599l1.54804.61599c1.16103.462,1.85765,1.078,2.32206,1.77099.54181.847.54181,1.925.23221,3.157-.61921,2.69502-3.32828,3.54203-6.11476,2.77203Z"/>
    <path class="cls-5" d="m154.64934,275.198l-1.47063,10.472-3.32829-.462,1.47063-10.472-3.32829-.462.38701-2.92599,9.90747,1.38599-.38701,2.92599-3.25088-.46198Z"/>
    <path class="cls-5" d="m171.36819,286.748l-.1548-2.772,4.72153-5.54401c.46442-.53901.61922-.92401.61922-1.463,0-.77-.46442-1.232-1.23844-1.232-.54181,0-1.23844.308-1.23844,1.38599l-3.09608.15401c-.07741-2.695,1.85765-4.235,4.17971-4.312,2.55427-.077,4.41192,1.38599,4.48932,3.927.07741,1.38599-.46442,2.233-1.54804,3.388l-3.09608,3.542,4.95373-.23099.1548,2.772-8.74642.385Z"/>
    <path class="cls-5" d="m190.95091,285.208c-2.24466.385-4.56672-.77-4.95373-3.465l-.85143-5.23599c-.46442-2.772,1.47063-4.46599,3.6379-4.85099,2.24466-.385,4.56672.77,4.95373,3.465l.85143,5.23599c.46442,2.772-1.39323,4.46599-3.6379,4.85099Zm-.23221-9.625c-.1548-.92401-.77402-1.30901-1.47063-1.232s-1.16103.61599-1.00623,1.617l.85143,5.23599c.1548.92401.77402,1.30901,1.47063,1.155.69661-.077,1.16103-.61599,1.00623-1.54l-.85143-5.23599Z"/>
    <path class="cls-5" d="m201.6324,283.052l-.77402-2.695,3.32828-6.468c.3096-.61599.46442-1.00099.3096-1.54-.2322-.693-.77402-1.078-1.54804-.847-.54182.15401-1.16103.61599-.85143,1.617l-3.01868.847c-.69661-2.54099.85143-4.543,3.09608-5.15901,2.39947-.693,4.64412.308,5.26333,2.772.38701,1.38599,0,2.233-.69661,3.61901l-2.24466,4.158,4.72153-1.30901.77402,2.695-8.35941,2.31Z"/>
    <path class="cls-5" d="m220.36371,277.04599c-2.08987.847-4.56672.308-5.65034-2.233l-2.01246-4.928c-1.08362-2.618.38701-4.697,2.47688-5.54401,2.08987-.847,4.56672-.308,5.65034,2.233l2.01246,4.928c1.00622,2.61802-.38703,4.69703-2.47688,5.54401Zm-2.47688-9.31698c-.38701-.847-1.08362-1.078-1.70286-.847-.61921.23099-1.00622.92401-.61921,1.77099l2.01246,4.928c.38701.847,1.08362,1.078,1.70286.847.61921-.23099,1.00622-.847.61921-1.77099l-2.01246-4.928Z"/>
  </g>
  <g>
    <path class="cls-5" d="m33.12809,168.399l5.26334-.924.92883,5.39,21.05336-3.465,1.08363,6.314-21.05336,3.542.92883,5.39-5.26334.924-2.94128-17.171Z"/>
    <path class="cls-5" d="m59.5996,166.705l-26.85852-7.161-.0774-6.314,26.54891-8.085.1548,6.699-4.56672,1.078.0774,6.16,4.56672.924.15481,6.69901Zm-10.13967-9.009l-.0774-3.157-7.74021,1.694,7.81761,1.46301Z"/>
    <path class="cls-5" d="m42.26153,129.745c-1.85765.539-2.70907,1.463-2.94128,3.003-.23221,1.617.61922,2.387,1.93505,2.541,1.54804.231,2.39946-.539,3.8701-3.003,2.63167-4.62,4.95373-6.083,9.44305-5.313,4.79893.77,7.4306,4.235,6.57918,9.24-.61922,4.158-2.24466,6.699-5.72775,8.47l-2.63167-4.928c1.78025-.77,2.78647-2.002,3.01868-3.542.30961-1.925-.61922-2.695-1.93505-2.849-1.54804-.231-2.32206.308-4.02491,3.234-2.47687,4.312-5.26334,5.775-9.52045,5.082-4.33451-.693-7.19839-3.85-6.34697-9.317.54182-3.542,2.47687-6.391,5.57295-7.469l2.70907,4.85099Z"/>
    <path class="cls-5" d="m65.63696,118.426c-1.70284,4.928-6.50178,7.546-14.00977,4.928l-3.9475-1.309c-7.5854-2.618-9.75266-7.546-8.04982-12.474,1.70285-4.851,6.42437-7.546,14.00977-4.928l3.9475,1.309c7.5854,2.618,9.75266,7.623,8.04982,12.474Zm-11.91992-1.07801c4.10231,1.386,6.26957,1.232,6.88879-.616.61922-1.848-.92882-3.234-5.03113-4.62l-3.9475-1.309c-4.10231-1.386-6.19217-1.232-6.88879.616-.61922,1.925.92883,3.311,5.03113,4.697l3.9475,1.23199Z"/>
    <path class="cls-5" d="m58.28376,74.151l4.48932,2.849-4.41192,6.853,4.64412,2.926,3.8701-6.083,4.48932,2.849-3.8701,6.083,8.90124,5.621-3.48309,5.39001-22.524-14.245,7.895-12.24301Z"/>
    <path class="cls-5" d="m87.61914,81.081c-3.48309,3.85-8.90124,4.466-14.8612-.847l-3.09608-2.772c-6.03736-5.313-6.03736-10.703-2.55427-14.553,3.48309-3.85,8.82384-4.466,14.8612.847l3.09608,2.772c5.88256,5.313,5.95996,10.703,2.55427,14.553Zm-10.60408-5.621c3.25088,2.926,5.26334,3.542,6.57918,2.079,1.31583-1.463.38701-3.388-2.86387-6.237l-3.09608-2.772c-3.25088-2.926-5.26334-3.542-6.57918-2.079s-.46441,3.388,2.86387,6.237l3.09608,2.772Z"/>
    <path class="cls-5" d="m104.1832,65.45l-8.97865-5.775-1.54804,1.155,6.26957,7.931-5.03113,3.927-16.48664-20.867,7.04359-5.544c4.10231-3.234,8.66903-3.234,12.07472,1.155,2.16726,2.695,2.55427,5.313,1.70284,7.546l10.29448,6.237-5.34074,4.235Zm-12.61654-9.702c1.39324-1.155,2.47686-2.387.92882-4.312-1.54804-2.002-3.17348-1.386-4.56672-.308l-1.16103.924,3.6379,4.62,1.16104-.924Z"/>
    <path class="cls-5" d="m110.68496,30.492l2.55427,4.62-7.1984,3.927,2.32206,4.235,6.26957-3.465,2.55427,4.62-6.26957,3.465,2.78648,5.082,7.1984-3.927,2.55427,4.62-12.77134,7.007-12.92614-23.254,12.92613-6.93Z"/>
    <path class="cls-5" d="m129.88068,30.877c-1.39324-1.386-2.63167-1.617-4.10231-1.155-1.54804.539-1.78025,1.694-1.31583,2.926.54181,1.463,1.62545,1.848,4.48932,1.925,5.34074.077,7.74021,1.386,9.28825,5.698,1.62545,4.543-.1548,8.47-4.95373,10.164-3.94751,1.386-7.04359,1.232-10.21707-1.001l3.09608-4.697c1.54804,1.232,3.09608,1.463,4.48932.924,1.85765-.616,2.01246-1.848,1.62545-3.003-.54181-1.463-1.39324-1.848-4.79893-2.002-4.95373-.077-7.58541-1.848-9.05604-5.852-1.47063-4.158-.07741-8.085,5.18594-10.01,3.40569-1.232,6.81138-.924,9.28825,1.309l-3.0187,4.774Z"/>
    <path class="cls-5" d="m153.72052,18.018l.92882,5.236-5.41815,1.001,3.8701,20.867-6.34697,1.155-3.8701-20.867-5.41815,1.001-.92882-5.236,17.18326-3.157Z"/>
    <path class="cls-5" d="m176.24452,44.429c-5.18594-.308-9.05604-4.158-8.59163-12.089l.23221-4.158c.46442-8.008,4.64412-11.319,9.90747-11.088,5.18594.308,8.97865,4.081,8.59163,12.089l-.23221,4.158c-.46442,7.931-4.72153,11.396-9.90747,11.088Zm-2.16726-11.704c-.23221,4.312.46442,6.314,2.47686,6.391,1.93505.077,2.86387-1.771,3.09608-6.083l.23221-4.158c.23221-4.312-.46442-6.314-2.39947-6.391-2.01246-.077-2.94128,1.771-3.17349,6.083l-.2322,4.158Z"/>
    <path class="cls-5" d="m198.92333,47.663l-1.00623-10.549-1.85765-.462-2.32206,9.779-6.26957-1.463,6.19217-25.872,8.74644,2.079c5.10854,1.232,7.89502,4.774,6.57918,10.164-.77402,3.388-2.63167,5.313-4.87632,6.006l1.47063,11.935-6.65658-1.617Zm-.2322-15.862c1.78024.385,3.40569.462,3.94751-2.002.61921-2.464-.85143-3.311-2.63167-3.773l-1.47063-.385-1.39324,5.698,1.54803.462Z"/>
    <path class="cls-5" d="m205.57991,49.126l17.95729-21.098,5.80516,2.618-4.02492,27.335-6.11476-2.772.92883-4.543-5.65034-2.541-2.78648,3.696-6.11478-2.695Zm12.53912-5.236l2.86389,1.309,1.78024-7.7-4.64412,6.391Z"/>
    <path class="cls-5" d="m256.58787,47.432l-15.3256,21.714-4.02492-2.772,1.39323-15.4-7.74021,10.934-4.95373-3.465,15.3256-21.714,3.94751,2.772-1.39323,15.631,7.81761-11.088,4.95373,3.388Z"/>
    <path class="cls-5" d="m265.25692,73.227l-2.01246,2.002c-5.65034,5.544-10.68148,5.698-14.31938,2.002-3.63791-3.696-3.8701-9.163,1.78024-14.707l2.63167-2.541c6.11476-6.006,11.5329-5.621,15.17081-1.925,3.5605,3.542,3.09608,7.931-.15481,12.089l-4.25711-4.312c1.08362-1.232,1.85765-2.772.69661-4.004-1.39323-1.463-3.32828-.616-6.50177,2.387l-2.94127,2.926c-3.09608,3.08-3.94751,5.005-2.47688,6.391,1.39323,1.386,2.86389.616,4.56672-.847l-1.62545-1.694,3.7927-3.696,5.65039,5.929Z"/>
    <path class="cls-5" d="m286.61987,81.235l-4.33452,3.08-4.72153-6.622-3.94751,2.849,4.17971,5.852-4.33452,3.08-4.17971-5.852-4.72153,3.311,4.72153,6.622-4.33452,3.08-8.51423-11.858,21.74999-15.4,8.43684,11.858Z"/>
    <path class="cls-5" d="m273.92593,115.808l8.04981-6.93-.69661-1.771-9.36566,3.773-2.39947-5.929,24.76866-9.933,3.32828,8.316c1.93505,4.851.69661,9.163-4.48931,11.242-3.2509,1.309-5.88256.924-7.74021-.462l-8.90124,8.085-2.55426-6.39099Zm12.92616-9.24c.69661,1.694,1.62545,3.003,3.94751,2.079,2.39947-.924,2.24466-2.618,1.54804-4.312l-.54182-1.386-5.49555,2.233.54182,1.38601Z"/>
    <path class="cls-5" d="m278.02826,131.67c-1.08362-5.082,1.70286-9.779,9.52045-11.319l4.1023-.847c7.89502-1.617,12.22952,1.54,13.31317,6.699,1.08362,5.082-1.62545,9.702-9.52045,11.319l-4.1023.847c-7.81764,1.54-12.22954-1.61699-13.31317-6.699Zm10.83629-5.082c-4.25711.847-6.03735,2.079-5.57296,4.004.38701,1.925,2.47688,2.31,6.73399,1.463l4.1023-.847c4.25711-.847,6.03735-2.079,5.65034-4.004-.38701-1.925-2.47688-2.387-6.73399-1.463l-4.17968.847Z"/>
    <path class="cls-5" d="m280.35032,139.986l26.93591,6.853.15481,6.314-26.47152,8.39301-.2322-6.699,4.56672-1.155-.15481-6.16-4.56672-.847-.2322-6.699Zm10.21706,8.855l.07741,3.157,7.74021-1.771-7.81761-1.386Z"/>
    <path class="cls-5" d="m280.73733,162.316l26.39411,4.081-1.39323,8.701c-.77402,5.082-4.33452,8.624-12.69394,7.315l-3.7927-.616c-8.28203-1.309-10.68148-5.698-9.90746-10.78l1.3932-8.701Zm9.52045,13.16699l3.7927.616c3.5605.539,6.03735.847,6.42436-1.848l.38701-2.387-15.86743-2.464-.38701,2.387c-.3096,2.695,2.08987,3.15699,5.65037,3.69599Z"/>
  </g>
</svg>