<?xml version="1.0" encoding="UTF-8"?>
<svg id="_レイヤー_1" data-name="レイヤー 1" xmlns="http://www.w3.org/2000/svg" viewBox="0 0 602 192">
  <defs>
    <style>
      .cls-1 {
        fill: #fff;
      }
    </style>
  </defs>
  <g id="_レイヤー_2" data-name="レイヤー 2">
    <g id="mv">
      <path class="cls-1" d="m123.71665,67.55825l-.39988-.37018-.9228.43188-5.50604-5.92291-3.6912,2.93061-1.59952.83291-.79975.24679c-1.64566-2.09167-4.20747-3.24377-6.85947-3.08485-1.04517-.00293-2.08392.16375-3.076.49358l-2.9222-3.08485c-.70915-1.24575-1.11984-2.63977-1.19964-4.072v-.43188l-.3076-1.26479v-2.62213l.769-2.25194c0-.37018.27684-1.20309.33836-1.63497.09294-.93304.32091-1.84753.67672-2.71467.30507-1.22269.70621-2.41924,1.19964-3.57843h0l.55368-1.41903c.15078-.87969.43066-1.73214.83052-2.52958v-.61697c.05264-.37612.13493-.74747.24609-1.11055v-.30849l.43064-1.018c.5821-1.23729,1.37298-2.36441,2.33775-3.33164.32205-.33039.61057-.69207.86128-1.0797l.73824-1.32649,3.59891-1.32649,2.49156-1.0797h-2.4608l-1.81484.18509-7.65924.40103h0c-1.3216-.07571-2.64644-.07571-3.96804,0h-5.50603c-.49106-.04674-.98542-.04674-1.47648,0l-1.2304.21594v3.45503c.02779,1.64706-.12696,3.29212-.4614,4.90491v3.30079l-.67672,3.97946-.12305,7.3111-.4614,1.17224h0v3.67098h-.4614v1.04885c.01613.88813-.10846,1.77319-.36912,2.62213v.55527l2.09168,6.35479c.75026.03492,1.49372.15919,2.21472.37018,1.78105.0037,3.54151.38203,5.16768,1.11055,1.72397.45089,3.32973,1.27187,4.70627,2.40619l.21532-.83291,4.42943-2.77637h2.82991c2.30429-.00976,4.51775.90037,6.152,2.52958l1.78408,1.32649.769,2.1594,1.69181,4.19539v4.81237l.21532-.15424c.85027-.65174,1.78073-1.19089,2.7684-1.60412l.43064-.21594c1.542-.81264,3.24306-1.27599,4.98311-1.35734,1.94048.00417,3.82009.67972,5.32148,1.91261.6409.39746,1.2211.88581,1.72256,1.44988l.86128.55527c.25013-.37007.52776-.72069.83052-1.04885l-1.3842-.80206.769-6.1697.89204-1.35734c.15411-.45441.36059-.88923.6152-1.29564v-1.20309l1.66104-1.018.9228-1.35734.98432-.67867h-1.2304l-2.79916-.74036c-.35356-.04534-.70317-.11752-1.04584-.21594-1.09835-.23116-2.14245-.67095-3.076-1.29564-.48321.3296-.98662.6284-1.50724.89461l-5.10614,2.46788Zm-28.36071-32.91537v.55527c-.1135.38187-.1857.77488-.21532,1.17224-.34479.81629-.61254,1.66318-.79976,2.52958l-.52292,1.35733-.39988,1.018-.95356,2.43703h0c-.40785,1.06093-.67668,2.17046-.79976,3.30079,0,.33933-.1538.80206-.24608,1.14139l-.89204,2.65297v3.73267l.33836,1.38819h0c.11403,2.05139.70385,4.0478,1.72256,5.83037l.24608.43188.39988.40103c-1.53078-.56742-3.1381-.90021-4.76779-.98715l-.9228-2.83806h.73824v-6.60158l.49216-1.29564.67672-7.68128.70748-4.10285v-3.08485c.29303-1.58762.44742-3.19784.4614-4.81237h6.70568c-.40074.60744-.75055,1.24717-1.04584,1.91261l-.9228,1.54242Zm33.83598,34.211v.98715l-.18456.43188-1.19964,1.78921-.21532,1.75836c-2.67448-.7167-5.50103-.62007-8.12063.27764l-1.538-3.67098h0l2.09168,2.28279,1.16888-.52443.4614.40103,7.53619-3.73266Z"/>
      <path class="cls-1" d="m100.7697,84.46323v-.80206l-.3076-2.43704v-.52443c-1.96268,2.3193-4.8121,3.69769-7.84379,3.79437l-3.3836.40103c3.66534.89099,7.24688,2.09859,10.70448,3.60928l.36912.18509.4614.33934-.49216-1.63497.67672-1.018-.18458-1.9126Z"/>
      <path class="cls-1" d="m86.12795,82.30384h-.49216l-5.16768-.74036h-2.92219c-.80237.28941-1.64087.4659-2.49156.52443h-.4614c-.73047.17373-1.46979.3076-2.21472.40103l1.19964.24679,3.59892.58612h3.076c1.16877-.0071,2.33466.11707,3.47588.37018,1.72696.22015,3.44152.52903,5.13692.92545l-1.538-2.1594-1.19964-.15424Z"/>
      <path class="cls-1" d="m71.70152,62.77673h.3076c.71094.19711,1.44646.29061,2.18396.27764.95191-.06319,1.89782-.19723,2.82992-.40103l2.70688-.43188-.79976-2.46788c-.20688-.72142-.30028-1.4708-.27684-2.22109-.01196-.11279-.01196-.22654,0-.33934v-.18509c.19104-.51207.2748-1.05814.24608-1.60412v-.33934l-.1538-.58612c.36235-.68403.55243-1.44653.55368-2.22109v-.89461h0c.01641-.13317.01641-.26786,0-.40103v-.30849l.1538-.33934h0v-.30849l.55368-1.38818v-4.41134l.1538-2.22109v-.58612l.67672-3.42418v-3.39334c.34696-1.4855.50203-3.00957.4614-4.53473v-2.12855l-.27684-2.86891v-1.32649l1.01508-.86376c1.26925.01283,2.53663-.10084,3.78348-.33933.94966-.12233,1.91102-.12233,2.86068,0h4.3064c1.55403-.14633,3.11483-.20811,4.67552-.18509l7.5362-.37018,2.27624-.37018h2.82991l3.81424-.46273,4.73704-8.79183h-28.91438c-2.54874-.38796-5.14126-.38796-7.69,0l-1.75332-.33933h-2.03016l-1.10736-1.32649h-1.13812l-5.69059-1.41903-1.2304,3.33164-.86128.30848-3.076-.46273-5.75212-.09254-7.32087-.43188h-1.90712l-4.73704,2.89976c-.26925.75196-.4046,1.54553-.39988,2.34449.00554.46597.09949.92661.27684,1.35733l.86128,1.41903c1.04607,1.25371,2.23308,2.38202,3.5374,3.36249l.98432.77121,4.06032-1.04885h4.27564l6.152.61697h3.35284v.37018l-.46139,3.76352v5.76867c-.03061.52397-.03061,1.0493,0,1.57328l-.18456,2.52958c-.03054.41074-.03054.8232,0,1.23394-.47856,2.53171-.5719,5.12152-.27684,7.68128l-.1538,2.49873c-.21897.6664-.323,1.36537-.3076,2.06685.00521.72235.05658,1.44364.1538,2.1594v3.054c.1538,4.53473,2.52232,5.98461,4.18336,6.44734Z"/>
      <path class="cls-1" d="m127.34633,39.76374l.24609-.95631.64596-2.74552-.95356-2.59128-1.16888-2.06685-3.076.74036h-.43064l-3.6912-1.48073h-.27684l-6.85947-1.04885-2.43004,1.018h0l-2.09168.77121c-.40418.64839-.86757,1.2577-1.3842,1.82006-.64617.64719-1.19531,1.38495-1.63028,2.19024v.46273c-.13744.25805-.22116.54142-.24609.83291l-.18456,1.44988c-.44924.65835-.71474,1.4252-.769,2.22109l-.769,1.91261s-1.13812,3.26994-1.13812,3.39334c-.26032.58524-.41647,1.21167-.4614,1.85091,0,.15424-.49216,2.31364-.49216,2.31364l-.6152,1.82006v1.51158l.3076,1.17224v.89461c.12805,2.16704,1.47733,4.07105,3.47589,4.9049.88075.92981,2.1048,1.45432,3.38359,1.44988h.58444l1.19964-.37018,1.16888-.61697,2.39927-2.00515,2.24548-1.85091.98432-.89461.67672-1.04885,1.07659-.86376.95356-1.23394.21532-.30849.24609,2.06685v.27764c.01118.81535.13541,1.62517.36912,2.40619l.52291,1.91261,2.67612,2.86891.70748-.33934.33836.30849,2.12243-1.04885c.60367-.27591,1.16339-.63974,1.66104-1.0797l1.50724-1.41903v-.70951c-.09404-.61944-.30269-1.21581-.6152-1.75836l-1.56875-2.77637.24609-3.70182v-2.1594l.27684-2.036v-1.48073l.1538-1.018c.01647-.12284.01647-.24734,0-.37018.03003-.22522.03003-.45345,0-.67867.28583-.47605.44472-1.01784.46142-1.57327v-.33933Zm-8.58204-.43188l-.58444,1.23394-.1538.27764-3.076,3.88691c-.24072.23242-.46673.47969-.67672.74036h0l-1.93788,2.37534-.3076.15424-1.29193,1.35733-2.73764,2.12855.21532-.30849-.36912-.49358.27684-1.44988c.01513-.18478.01513-.37049,0-.55527l.21532-.30849v-.43188l.18456-.77121.6152-1.78921.52291-1.11055c.14575-.62377.37331-1.22542.67672-1.78921l.55368-2.46788.33836-1.0797c.29182-.29472.59991-.5728.9228-.83291h.33836l.27684-.30849,1.50724-.49358h1.50724l1.75332.33933,1.29191.95631-.06153.74037Z"/>
      <path class="cls-1" d="m147.64791,54.54018l-1.16888.18509-7.04404.49358-.4614-.70951-.55367-.27764s-.70748-.30849-.79975-.40103l-2.27624-.89461-1.44572-.67867-2.36852.83291-2.06091,1.41903v1.29564c0,3.94861,2.1532,4.90491,3.56816,5.12085l.83052.18509h0l2.09168.55527c.223-.11029.48447-.11029.70748,0h2.86068c.46104.02605.92316.02605,1.3842,0h5.96743l4.3064.03085,2.61459-.67867.89204-.83291,2.18396-1.57328.55368-.37018,1.07659-1.32649.67672-1.48073v-.70951c.01205-.51415-.10427-1.02316-.33836-1.48073l-1.35343-2.19024c-.30704-.16089-.57084-.3937-.769-.67867l-.18456-.52443-1.93788-1.018-1.90712-.64782-1.01509-.27764c-.67564-.35603-1.40186-.60574-2.1532-.74036l-3.076-.80206-.64595-.09255-1.2304-.43188-1.01509-.33933-1.2304-.43188c-.41359-.23116-.84573-.42722-1.29191-.58612l-.39988-.27764-.52291-.46273h0c.01266-.07142.01266-.14452,0-.21594.00766-.11298.00766-.22635,0-.33933l.4614-.46273.49216-.49358.64596-.61697h.3076l1.93788-.74036,2.1532-.74036c.27137-.078.55915-.078.83052,0h2.03016c.67183.72991,1.6244,1.13451,2.61459,1.11055,1.6253.05903,3.04991-1.08132,3.35284-2.68382v-.49358l-.52291-3.08485-.36912-.43188c-.36041-.4132-.7742-.7763-1.2304-1.0797l-4.27564-.83291-4.64475.55527-.98432.21594-4.36791,1.54243-1.07659.80206c-.37228.20878-.7139.46832-1.01509.77121l-1.10737.49357-.86128.83291-.18456.21594c-.70924.78689-1.1789,1.76104-1.35343,2.80721l-.27684,1.38818.49216,3.08485.70748,1.29564,1.32268,2.12855,1.59952,1.20309.98432.55527,2.21472.61697.52291.40103,1.90712.89461,1.47648.49358,1.81484.49358h.1538l.86128.18509c.54993.09148,1.11112.09148,1.66104,0l.27684.27764-.67672.21594-.33835.43188Z"/>
      <path class="cls-1" d="m163.0279,43.46556v1.32649l-.18456.74036c-.35049.60686-.63906,1.24765-.86128,1.91261-.54851.66636-.8332,1.51191-.79975,2.37533v1.04885l-.21532.98715-.21532,2.28279.95356,2.06685,1.538,3.08485,1.32268,1.88176,3.26056.21594,1.29191.49358,1.2304-.24679h1.19964l1.01509-.74036.6152-.15424.4614-.30849c.46252-.06128.91658-.17512,1.35343-.33934,1.09464-.1058,2.11252-.61071,2.86068-1.41903.88845-.27508,1.6858-.78685,2.307-1.48073l1.84559-1.44988.43064-.21594.55368-1.04885.83052-.46273.18456-.49358,1.13812-2.06685.73824-.67867.21532-.9563.30757-.46274v-.74036l.27684-.43188v-.27764c.16489-.81177.23712-1.63973.21532-2.46788l-.18456-3.60928v-.67867l-1.41496-3.26994-1.66104-2.00515h-.21532l-.18456-.21594c-.63219-.75131-1.3212-1.45262-2.06091-2.0977l-.4614-.40103h-.73824l-.95356-.49358h-.6152l-3.75272-.52443h0c-.98692-.39806-2.08907-.39806-3.076,0l-2.03016,1.23394c-.07125.21489-.19872.40666-.36909.55528l-2.4608,2.65297h0l-1.26116,1.26479-1.59952,2.06685v.49358c-.00039.36773-.09577.72908-.27684,1.04885l-.18456.33933v1.0797h0l-.36912.58613Zm5.62908,10.02577v-2.1594l.58444-1.29564v-1.35733c.12524-.23032.23819-.46716.33836-.70951.48833-.50099.79209-1.15376.86128-1.85091l.70748-1.29564c-.01429-.16421-.01429-.32936,0-.49358l1.07659-1.91261.55368-.24679.18456-.64782,2.1532-2.52958.36912-.37018,1.10736.40103h0l1.01509,1.54243h0c.14007.33747.36213.63441.64596.86376.26356.52838.4897,1.07473.67672,1.63497l.36912.80206h0v.52443c.0305.31401.12471.61845.27684.89461-.2367.45788-.36312.96501-.36912,1.48073-.0245.23587-.0245.47365,0,.70951h0l-1.10736,2.00515v.21594l-1.538,1.41903-1.44572.9563v.15424c-.62291.25721-1.19565.62272-1.6918,1.0797h-.67672l-.24609.37018h-.21532l-.4614.15424c-.73679.14833-1.46569.33365-2.18396.55527h-.769l-.4614-.18509v-.18509l.2461-.52442Z"/>
      <path class="cls-1" d="m51.18461,101.36823l.98432-.21594v-.95631c0-3.08485-.49216-5.02831-3.076-5.02831-.34293-.03309-.68248-.095-1.01508-.18509-.89204-.21594-1.87636-.46273-2.52232,0l-1.8456.92545-2.06092,2.12855v.21594c-.50109,1.1214-.80297,2.32198-.89204,3.54758.03913,1.09947.37971,2.16685.98432,3.08485.68194,1.11687,1.67694,2.00743,2.86068,2.56043l1.9994,1.29563,3.076,1.14139h.36912c.12107.03074.23566.08297.33836.15424.20764.15285.45154.24856.70748.27764l.6152.15424c.49216.40103.89204.55527,3.41436.61697l1.04584.1851h1.96864c.91882.40175,1.93615.51989,2.9222.33934.40958-.0304.82082-.0304,1.2304,0l1.35344.24679,4.614-.52442s4.24487-.27765,5.56755-.27765h5.29072l1.2304-.37018h1.01508c.73135-.01154,1.46105-.0734,2.18396-.1851l1.26116-.15424h.43064l3.076-.74037h1.59952c.72078-.22881,1.40462-.56132,2.03016-.98715.98718-.14745,1.93723-.4825,2.79916-.98715.58884-.13045,1.14409-.38261,1.63028-.74037,1.33801-.68727,2.52106-1.64273,3.47588-2.80721.74972-.80157,1.2053-1.83503,1.29191-2.93061v-.98715h0c.17456-1.59517-.21756-3.20096-1.10735-4.53472-.14927-.22832-.26333-.47792-.33836-.74036-.32089-1.12033-1.08892-2.05801-2.12244-2.59128-4.74786-2.08122-9.75666-3.50308-14.88783-4.22625-.87744-.20457-1.77528-.30807-2.67612-.30849h-3.50663l-4.12184-.70951-5.383-1.0797-3.59892-1.60412-1.50724-.70951-.79976-1.32649.95356-.61697.24608-.33934h.49216l1.81484-1.17224,5.04464-1.32649c1.21925-.11721,2.43103-.3026,3.62968-.55527h.89204c.51072-.03941,1.01589-.13246,1.50724-.27764.68704-.23108,1.39993-.37613,2.12244-.43188h2.73764l1.6918.18509,3.2298.49358h.70748l1.3842.33934,1.26116.43188.70748.24679.49216.18509.86128,1.20309h.79976c4.614-.52443,5.56756-2.65297,5.56756-4.31879s-.9228-4.34963-4.95235-5.42933c-1.1562-.60629-2.44861-.90376-3.75272-.86376h-.36912c-.64543-.21846-1.31873-.34312-1.9994-.37018h-1.2304c-1.32154-.4168-2.73878-.4168-4.06032,0h-1.32268l-2.24548.24679c-.61473.03411-1.23087.03411-1.8456,0h-.49216c-.49144-.03778-.98504-.03778-1.47648,0h-.24608l-1.0766.61697h-.83052c-1.55718.06146-3.09434.37394-4.55248.92545h-.64596l-.64596.52443h-.55368l-.33837.46273c-.47964.33695-1.04523.52959-1.63028.55527h-1.44572l-4.4602,2.25194c-.18179.11792-.3783.21128-.58444.27764l-.67672.21594-.1538.64782h0l-2.52232,2.71467-.83052,4.13371,1.19964,1.48073.95356,2.06685,1.47648,1.26479c.74594.92585,1.75401,1.60341,2.89144,1.94345h0c1.5389.75666,3.14553,1.36604,4.79856,1.82006l2.36852.49358,1.90712.37018,1.13812.64782h1.72256l3.3836.83291c.61359.29658,1.26606.50431,1.93788.61697l2.27624.30849h.3076c.60863-.06377,1.22334.03189,1.78408.27764l.33836.15424c1.13764.49438,2.33867.82665,3.56816.98715h.9228c.78857.25704,1.60389.42264,2.43004.49358l.43064.27764h.1538c1.36689.59799,2.70165,1.2673,3.9988,2.00516-.42495.21556-.8269.47396-1.19964.77121-.76458.07947-1.49569.35575-2.12244.80206l-1.90712.74037c-.65547-.14251-1.34053-.02061-1.90712.33934h0c-1.33676.04892-2.66095.27717-3.93728.67867l-4.27564.61697-1.47648.37018-5.9982.61697h-8.45899l-5.62908-.92546-2.4608-.40103-3.076-.77121-.24608-.37018h0l1.59951-.43188Z"/>
      <path class="cls-1" d="m123.34752,106.08804v.27764c.17778,1.31315.62839,2.57428,1.32268,3.70182.75547,1.10255,2.01968,1.74229,3.35284,1.69667,2.73764,0,4.36791-1.44988,4.36791-3.88691-.03751-.63393-.1724-1.25826-.39988-1.85091v-.49358h0v-.37018l-.55368-.49358c0-.21594-.39988-.74037-.4614-.98715v-16.59652l-.89204-1.51158-.27684-1.23394-.73824-.43188c-.28268-.49883-.71252-.89758-1.2304-1.1414-.71852-.69455-1.67816-1.08172-2.67612-1.0797-1.07955.08422-2.1285.3998-3.076.92545l-.58444.27764c-.61372.2412-1.19294.56276-1.72256.9563l-1.3842,1.11055-1.66104,1.29564-1.04584,1.23394-1.19964,1.66582-.73824.92545-.86128,1.20309h-.43064l-.18456.92545v-3.17739l.18456-1.41903-.27681-1.23395.3076-.83291v-.98715l-.1538-2.77637v-4.90491l-.43064-1.04885-1.16888-2.43703-.39988-1.0797-1.10736-.83291c-.77104-.895-1.89671-1.40301-3.076-1.38819h-1.56875l-1.84559,1.1414-.4614,2.036,1.35343,2.46788.24609.67867.33836,1.9743v1.11055l.3076,1.0797.33836,2.89976v4.31879l-.18456.27764.3076,1.018v.37018l-.1538,1.35734-.39988,2.19024v.64782l-.21532,3.08485-.52291,3.94861-.21532,1.29563.21532,1.14139v3.23909l.86128,2.62212,1.41496,1.75836h3.78348l1.04584-1.29563,1.13812-1.14139,1.01509-1.60412,1.35343-3.08485.64596-1.17225.95356-1.20309.24609-1.26479,1.44572-2.06685,1.04584-1.78921.18456-.37018.39988-.58612,1.32268-1.60412.49216-.74036,1.99939-1.82005.24609,1.51158v4.16455l-.21532.64782.21532,1.32649v5.98461h0l.06151,1.44988Z"/>
      <path class="cls-1" d="m149.40123,72.37062h0c.77233-.48916,1.24657-1.33597,1.26116-2.25194,0-2.06685-1.81484-3.54758-5.41375-4.34964l-1.10736.40103-1.19964,1.66582h0c-.62389.3773-1.11766.93709-1.41496,1.60412l-1.13812.83291-1.01509,1.44988-.43064.27764v.33934c-.47549.42306-.80861.98345-.95356,1.60412l-.70748,1.0797-.33836,2.59128,2.86068,1.69667,2.43004-1.51158,1.6918-1.26479,2.36852-1.51158.64596-.70951c.96424-.43982,1.8084-1.10651,2.4608-1.94347Z"/>
      <path class="cls-1" d="m135.15936,103.12659v3.08485l1.538,3.08485,3.90652,2.68382,1.90712-.61697,1.13812-.46273,1.35343-.80206c.79975,0,.769-.30848,1.50724-.77121l.36912-.33934c.79955-.38183,1.54443-.86947,2.21472-1.44988h.55368l.86128-.89461h.55368c.64596-.37018,2.70688-1.82006,2.70688-1.82006l.43064-1.14139c.78948-.73283,1.18842-1.79592,1.07659-2.86891v-.52443c-.31209-.77095-.87608-1.4127-1.59952-1.82006l-.39988-.24679h-.70748c-1.31137.03451-2.58815.42932-3.6912,1.1414l-2.24548.98715h0l-.36912.49358-1.47648.86375-.95356.83291-.3076.27764h-.73824v-1.66582l.33836-.77121v-1.63497c.14474-.69235.24746-1.39287.3076-2.0977l.95356-2.56043-.18456-.49358c.39988-.64782.58444-.58612.58444-1.35734v-4.68896c.12187-.37813.17398-.77537.1538-1.17224.00624-.53453-.07694-1.06633-.24609-1.57328v-.49358c-.4314-1.43229-1.76949-2.39442-3.26056-2.34449-.43535.02665-.86246.13112-1.26116.30849h-.39988c-.89258-.11865-1.79435.13815-2.49156.70951-.60085.52616-.92933,1.29861-.89204,2.0977.00812.35462.05977.7069.1538,1.04885l-.18456.33934v.40103c.0358.346.10798.68723.21532,1.018v3.70182h0l-.18456.80206c-.2255.82591-.35961,1.67422-.39988,2.52958-.03063.40044-.03063.80265,0,1.20309h0l-.83046,7.00261Z"/>
      <path class="cls-1" d="m165.82706,102.0469v-.24679l.9228-2.12854h.3076l.18456-1.38819.33836-.40103v-.30849l1.32268-1.1414c.06618-.27571.15889-.54432.27684-.80206h0l1.01509-1.51158c.32916-.24134.63781-.50961.9228-.80206l1.72256-1.38819,1.81484-1.17224.64596-.21594.36912-.18509,1.10736-.18509,1.50724-.49358,3.19903-.21594.83052-3.23909v-.27764c-.17775-1.64351-1.61574-2.85434-3.26056-2.74552-.35863-.01859-.71797-.01859-1.07659,0-.54543-.00888-1.0845.11832-1.56875.37018h-1.66104l-1.50724.49358-1.16888.70951-1.07659.49358v.15424h-.55368l-.769.86376-.79975.40103-.21532.30849h-.73824l-.79975,1.1414c-.62377.32-1.18612.7482-1.66104,1.26479h0l-.52291.89461-.27684.30849h0l-.18456-.80206c0-.86376-.27684-1.66582-.39988-2.40619l-.18456-1.57328-.86128-1.32649-.49216-1.72752-3.076-.55527h-.39988c-.95356.30849-3.90652,1.17224-3.90652,3.48588-.01178.45138.09426.89801.3076,1.29564l.33836,2.06685h0l.52291,2.12855v1.60412c.02296.13268.02296.26835,0,.40103v1.04885l.18456.61697.18456,1.60412-.18456,1.17224v.40103l.36913.67868v.27764h0v1.9743c-.3265,1.00221-.3265,2.08264,0,3.08485v.27764c-.01075.20551-.01075.41146,0,.61697v1.38819l-.24609,1.11055.33836.67867v2.06684l4.02956,1.54243,2.43004-1.14139,1.26116-.86375.79975-2.2828-.73824-1.85091v-.40103c.01344-.15395.01344-.30879,0-.46273l.55368-2.12854.52293-.55527Z"/>
      <path class="cls-1" d="m281.54611,87.76403v-.30849h0v-1.41903h-.33836c-.21464-.41263-.51961-.7712-.89204-1.04885v-.46273l-.39987-.37018c-.68909-.63608-1.58599-.99807-2.52232-1.018-1.63028,0-3.076,1.0797-4.12183,3.08485l-.3076.58612.52291,1.29564-.18455.83291.4614,1.35734v.77121l.36913,1.57328-.3076.83291s-.33836,2.036-.33836,2.52958c.02443.33767.09695.67009.21532.98715h0l-.21532.33934v1.48073c-.02929.3799-.02929.76149,0,1.14139-.2179.54053-.3427,1.11423-.36913,1.69667v2.19024l.18455.83291c-.1229.31447-.18551.64938-.18455.98715-.03217.25606-.03217.51516,0,.77121l.24609,1.17225c.67672,3.30079,2.64536,3.79437,3.78349,3.79437.73436.05858,1.47212-.05769,2.15317-.33934h.21532l.92281-.80206c.84785-.39528,1.47039-1.15584,1.69181-2.06684h0v-.1851c.01333-.06097.01333-.12413,0-.1851l1.01509-1.29563c.34787-.28717.66722-.60743.95355-.95631l.33836-.40103v-.27764c.41912-.44348.69747-1.00178.79977-1.60412l.36913-.52442h.18455c.4401-.29417.80814-.68438,1.07659-1.14139.16179-.26202.3584-.50072.58445-.70951l.43064-.40103v-.64782c.64934-.5038,1.11435-1.20877,1.32268-2.00515l.3076-.33934.43064-.80206,1.26117-1.23394v-.70951l1.01509-1.17224.39987,1.018v1.20309l-.27683.77121v.40103c0,.46273.18455.80206.27683,1.11055v3.70181l-.21532,2.2828.39987.64782v.30848l.52291,1.72752v.80206l.39987.83291v.67867c.55528,1.62229,2.1052,2.68781,3.81423,2.62212h.83051l1.56877-.55527h.92281l1.07659-1.23395c.59792-.34822,1.10415-.83476,1.47649-1.41903l1.13813-1.14139c.92281-.98715,1.59951-1.72752,2.03017-2.2828l.21532-.24679v-.30848c.08958-.37252.2941-.70718.58445-.95631l.52291-.37018v-.37018c.21992-.27001.4155-.55906.58445-.86375.12501-.19883.26925-.38482.43064-.55527l.58445-.58612.36913,1.44988v.77121l.73823,1.14139c.19781.76229.48701,1.49774.86128,2.19024.19173.70058.5629,1.33868,1.07659,1.85091l.64596.52442.33836.64782.73823.70951h.95355c.40001.21286.84015.33897,1.29191.37018,1.44349.56755,3.04746.56755,4.49095,0h.27683l.24609-.1851h1.07662l.73823-.55527.33836-.33934.67672-.21594v-.24679h.49217l.43064-.86375c.36573-.17775.68252-.44252.92281-.77121h0c.35054-.27645.65213-.61017.89204-.98715.28464-.30752.51364-.66244.67672-1.04885.39799-.46554.71045-.99823.92281-1.57327v-.64779c.05391-.89588-.16033-1.78749-.61519-2.56043l-.24609-.40103-.4614-.1851c-1.29025-.68015-2.83158-.68015-4.12183,0l-.36913.21594-.43064.77121-.92281.61697v.15424c-.29821.32797-.55638.69043-.769,1.07969-.47082.29641-.88707.6721-1.2304,1.11055h-.79977v-.15424h-.24609l-.24609-.55527-.58445-.58612v-.37018c-.49217-1.38819-.67672-1.94346-.73823-2.1594v-1.29563c.03131-.23546.03131-.47405,0-.70951.01664-.10215.01664-.20634,0-.30849v-1.32649c.03828-.30729.03828-.61816,0-.92545v-.67867l.18455-.46273v-.33934l.18455-.27764v-.43188c.01155-.46765-.08312-.93179-.27683-1.35734v-.55527l.4614-.80206.58445-.43188v-1.51158l-.33836-1.44988-1.38419-1.48073-1.59951-.67867h-1.78406c-.60623.0543-1.19898.21074-1.75332.46273l-.58445.21594-.64596,1.17224-.4614.33934-.49217.86376-.98432,1.51158-.98432,1.85091-.4614.67867v.18509c-.06031.22145-.1769.4234-.33836.58612l-.79977.74036-.86128,1.04885-.21532.61697c-.57952.41091-1.04529.96293-1.35345,1.60412l-.21532.18509c-.40797.30308-.74408.69284-.98432,1.1414-.46549.48047-.79467,1.07683-.95355,1.72752-.24609.33934-.4614.61697-.58445.83291l.18455-.64782v-.43188c-.103-.31298-.18523-.63245-.24613-.95632-.01108-.18492-.01108-.37035,0-.55527l.18455-.9563v-.80206l.27683-2.25194v-.64782c-.04135-.95478-.28239-1.89019-.70749-2.74552v-1.29564l-.58445-.58612v-.67867l-1.01504-1.41903-.4614-1.0797-.43064-.18509-.70749-.92545-.52291-.15424c-.83051-.30262-1.70136-.47937-2.58383-.52443-.56455.0312-1.12278.13487-1.66104.30849h-.3076l-1.63028,1.23394-1.32268,1.38819-.769.30849-.27683.49358v.21594l-1.13813,1.35734c-.1207.18524-.22367.38148-.3076.58612l-.43064.24679v.58612h0c-.57473.44642-1.1099.94184-1.59951,1.48073h-.15381l-.52291.30849-.36913,1.20309-.79977,1.11055-.21532.92545c-.11011.09494-.21293.19806-.3076.30849h0v-3.20824l-.43064-2.28279.18455-2.00515c-.12304-.27765-.06153-.61698-.06153-.70953Z"/>
      <path class="cls-1" d="m203.60033,111.42484l.33836.30848,2.15319-1.04885c.59639-.28522,1.14608-.65968,1.63028-1.11055l1.50723-1.38819v-.74037c-.08247-.60812-.28089-1.19463-.58445-1.72752l-1.59951-2.77637.24609-3.70182v-2.19025l.27683-2.036v-1.44988l.18455-1.018v-.37018c.03196-.22509.03196-.45358,0-.67867.32215-.53951.48236-1.16072.4614-1.78921h0l.24609-.9563.64596-2.74552-.9843-2.71464-1.13813-2.036-3.076.74036h-.43064l-3.69119-1.48073h-.27683l-6.82872-.9563-2.43004,1.018h0l-2.12243.80206c-.39422.65524-.85834,1.26552-1.3842,1.82006-.64575.64028-1.18569,1.37962-1.59952,2.19024v.46273c-.13238.2601-.21581.54247-.24609.83291v1.44988c-.45882.65585-.7349,1.42257-.79975,2.22109l-.73824,1.88176s-1.16888,3.30079-1.13812,3.39334c-.27253.59184-.42918,1.23066-.4614,1.88176,0,.15424-.49216,2.2828-.49216,2.2828l-.6152,1.85091v1.48073l.27684,1.20309v.89461c.15749,2.16767,1.52902,4.05745,3.5374,4.87407.89845.92256,2.1285,1.44489,3.41436,1.44988h.58444l1.16888-.37018,1.16888-.64782,2.43004-1.9743,2.24548-1.85091.95356-.92545.70749-1.01801,1.07659-.86375.95355-1.23395.21532-.33934.21532,2.06684v.27764c.00249.81848.13755,1.63113.39987,2.40618l.52291,1.94346,2.64536,2.86891.43064-.46274Zm-3.99881-22.33432l-.55368,1.26479v.27764l-3.076,3.88691c-.24104.22116-.46712.45819-.67672.70951h0l-1.90712,2.37534h-.33836l-1.13812,1.26479-2.7684,2.0977.24609-.27764-.36912-.52442.27684-1.41903c.01527-.18478.01527-.3705,0-.55527l.21532-.33934v-.40103l.18456-.77121.64596-1.78921.52291-1.1414c.15028-.61254.37768-1.20341.67672-1.75836l.52291-2.46788.33836-1.0797.95356-.83291h.33836l.24609-.30849,1.50724-.49358h1.41494l1.75332.33934,1.26117.98715-.27685.9563Z"/>
      <path class="cls-1" d="m239.37418,93.93373v-6.84837l-.89204-1.51158-.27683-1.23394-.73823-.43188c-.27138-.49664-.69083-.89574-1.19964-1.1414-.7203-.6918-1.67878-1.07852-2.67613-1.0797-1.07901.08702-2.1274.40244-3.076.92545l-.55368.27764c-.62674.2337-1.2171.55569-1.75332.9563l-1.38419,1.11055-1.66104,1.29564-1.04583,1.23394-1.19964,1.66582-.73823.92545-.86128,1.20309h-.43064l-.18455.92545v-3.17739l.21532-1.41903-.12309-1.23395.3076-.83291v-8.66843l-.43064-1.04885-1.01509-2.40619-.39987-1.0797-1.07659-.83291c-.82307-.93137-2.02074-1.44128-3.26055-1.38819h-1.50723l-1.84559,1.1414-.4614,2.036,1.35345,2.46788.24609.67867.33836,1.9743v1.11055l.3076,1.0797.33836,2.89976v4.31879l-.18455.27764.3076,1.018v.37018l-.15381,1.35734-.39987,2.19024v.64782l-.21532,3.08485-.52291,3.94861-.18455,1.29563.18455,1.14139v3.23909l.86128,2.62212,1.41496,1.75836h3.78346l1.04583-1.29563,1.16887-1.14139.98432-1.60412,1.35345-3.08485.64596-1.17225.95355-1.20309.24609-1.26479,1.44572-2.06685,1.04583-1.78921.18455-.37018-.03074-.46271,1.32268-1.60412.49217-.74036,2.36851-1.9743.24609,1.51158v4.16455l-.21532.64782.21532,1.32649v3.08485l.15381,2.89976h0v1.63497c.17779,1.31315.62838,2.57428,1.32268,3.70182.75546,1.10255,2.01968,1.74228,3.35283,1.69667,2.73764,0,4.36791-1.44988,4.36791-3.88691-.03992-.63075-.16409-1.25328-.36913-1.85091v-.49358h0v-.37018l-.95355-.43189c0-.21594-.39987-.74037-.4614-.98715v-9.71728h-.09228Z"/>
      <path class="cls-1" d="m270.10339,89.4607l.24609-.9563.64596-2.74552-.95355-2.46788-1.13813-2.036-3.076.74036h-.43064l-3.69119-1.48073h-.24609l-6.79795-.9563-2.43004,1.018h0l-2.09168.80206c-.40417.64839-.86757,1.2577-1.38419,1.82006-.65281.64138-1.20276,1.3802-1.63028,2.19024v.46273c-.14569.25459-.22996.53982-.24609.83291l-.18455,1.44988c-.44925.65835-.71474,1.4252-.769,2.22109l-.769,1.88176s-1.13813,3.30079-1.13813,3.39334c-.25794.59686-.41393,1.233-.4614,1.88176,0,.15424-.49217,2.2828-.49217,2.2828l-.61519,1.85091v1.48073l.3076,1.20309v.89461c.18544,2.05609,1.45236,3.85605,3.32208,4.71982.88899.91787,2.10771,1.4401,3.38359,1.44988h.58445l1.19964-.37018,1.16887-.64782,2.39927-1.9743,2.24549-1.85091.98432-.92545.67672-1.01801,1.07659-.86375.95355-1.23395.21532-.33934.24609,2.06684v.27764c.00662.81572.13095,1.62619.36913,2.40618l.52291,1.94346,2.64536,2.86891.73823-.33934.33836.30848,2.12245-1.04885c.60538-.28579,1.16514-.66004,1.66104-1.11055l1.50723-1.38819v-.74037c-.0942-.6097-.30295-1.19592-.61519-1.72752l-1.56877-2.77637.24609-3.70182v-2.19024l.27683-2.036v-1.44988l.15381-1.018c.01511-.12293.01511-.24726,0-.37018.03196-.22509.03196-.45358,0-.67867.32215-.53951.48236-1.16072.4614-1.78921l.03074-.21592Zm-8.64355-.37018l-.58445,1.26479v.27764l-3.076,3.88691-.67672.70951h0l-1.93787,2.37534h-.3076l-1.16887,1.26479-2.73764,2.0977.21532-.27764-.36913-.52442.27683-1.41903c.01514-.18478.01514-.37049,0-.55527l.18455-.33934v-.40103l.21532-.77121.61519-1.78921.52291-1.1414c.15029-.61254.37767-1.20341.67672-1.75836l.55368-2.46788.33836-1.0797c.28354-.30334.59224-.58198.92281-.83291h.33836l.27683-.30849,1.50723-.49358h1.50723l1.75332.33934,1.29191.98715-.33831.9563Z"/>
      <path class="cls-1" d="m358.07696,89.4607l.24609-.9563.64596-2.74552-.95355-2.62213-1.13813-2.036-3.076.74036h-.39987l-3.72195-1.48073h-.27683l-6.79795-.9563-2.43004,1.018h0l-2.09168.80206c-.39422.65524-.85834,1.26552-1.38419,1.82006-.65572.6316-1.19694,1.37271-1.59951,2.19024v.46273c-.13238.2601-.21581.54247-.24609.83291v1.44988c-.47161.64911-.74903,1.41956-.79977,2.22109l-.73823,1.88176s-1.16887,3.30079-1.13813,3.39334c-.27896.59123-.44587,1.22933-.49217,1.88176,0,.15424-.49217,2.2828-.49217,2.2828l-.61519,1.85091v1.48073l.3076,1.20309v.89461c.17704,2.16975,1.55701,4.05476,3.56817,4.87407.88899.91787,2.10771,1.4401,3.38359,1.44988h.58445l1.19964-.37018,1.16887-.64782,2.43004-1.9743,2.24549-1.85091.95355-.92545.70749-1.01801,1.04583-.86375.95355-1.23395.24609-.33934.21532,2.06684v.27764c.00662.81572.13095,1.62619.36913,2.40618l.52291,1.94346,2.67613,2.86891.70749-.33934.33836.30848,2.15319-1.04885c.59203-.29278,1.14069-.66653,1.63028-1.11055l1.50723-1.38819v-.74037c-.08247-.60812-.28089-1.19463-.58445-1.72752l-1.59951-2.77637.24609-3.70182v-2.19024l.27683-2.036v-2.46788c.01511-.12293.01511-.24726,0-.37018.03196-.22509.03196-.45358,0-.67867.32215-.53951.48236-1.16072.4614-1.78921l-.21534-.21593Zm-8.58204-.46273l-.58445,1.26479-.15381.27764-3.076,3.88691-.64596.70951h0l-1.93787,2.37534c-.10164.01921-.20596.01921-.3076,0l-1.16887,1.26479-2.73764,2.0977.21532-.27764-.33836-.52442.24609-1.41903c.01514-.18478.01514-.37049,0-.55527l.21532-.33934v-.40103l.18455-.77121.64596-1.78921.49217-1.1414c.15029-.61254.37767-1.20341.67672-1.75836l.55368-2.46788.33836-1.0797c.28354-.30334.59224-.58198.92281-.83291h.36913l.24609-.30849,1.50723-.49358h1.50723l1.78408.33934,1.26117.98715-.21537.9563Z"/>
      <path class="cls-1" d="m54.66049,159.61023l.70748,1.23395c.05927.32746.15204.64792.27684.95631v.30848c-.01473.13327-.01473.26776,0,.40103v.21594l2.43004,2.036,2.49156,1.38819,2.58384-.80206,1.81484-.95631c1.03435-.0864,2.0619-.24098,3.076-.46273l.64596-.1851.73824-.27764h2.03016l1.35344-.55527.79976.1851,2.1532-.24679.43064-.21594h1.96864l3.87576-1.01801h1.26116c1.00359-.06007,1.98104-.34467,2.86068-.83291l1.47648-.33934h1.26116l2.18396-.49358,2.12244-.89461,1.66104-.67867,2.1532-.64782,1.96864-1.04885,1.44572-.92545,2.09168-2.0977,1.10736-1.60412.39988-1.94346.55367-1.41902v-.24679c-.08587-1.32445-.87219-2.50144-2.06091-3.08485h0c-2.03016-1.23395-2.49156-1.60412-2.55308-1.63497l-.49216-.46273h-.67672c-1.04356-.24391-2.07089-.553-3.076-.92545-1.21061-.46072-2.46964-.78156-3.75272-.95631l-.89204-.46273h-.43064c-1.31749.01665-2.62817-.19199-3.87576-.61697h-.3076l-.70748.24679c-.30656.13509-.62607.23845-.95356.30848-.59606-.11974-1.18219-.28473-1.75332-.49356h-.55368c-.38513-.00948-.76932.04258-1.13812.15424-.90835-.40582-1.89786-.59585-2.89144-.55527h-3.59892c.66393-.17086,1.31222-.39789,1.93788-.67867l1.93788-.27764,1.41496-.95631.86128-.33934.9228-.40103h0l1.6918-.37018,1.3842-.61697,1.50724-.80206c2.09183-.45181,3.96208-1.61863,5.29071-3.30079h0l.95356-2.56043-.49214-2.83805-2.27624-2.06684-2.82992-1.35734-.64596-.58612-2.12244-.61697h-.4614c-.41073-.01527-.81609-.09866-1.19964-.24679l-3.50664-1.01801c-.64446-.48764-1.41107-.78663-2.21472-.86375l-3.076-.21594c-.59863-.03433-1.1945-.10645-1.78408-.21594l-.43064-.21594c-2.24524-.49128-4.53151-.77014-6.82871-.83291l-4.76779-.55527-2.73764-.89461h-1.10736c-.87828.01024-1.75366.10319-2.6146.27764-1.82698-.21726-3.66654-.31002-5.50604-.27764l-.73824-.33934h-.67674c-1.33485-.04413-2.62003.50986-3.50664,1.51158-1.50081.3763-2.53775,1.75002-2.49156,3.30079,0,1.82006,1.63028,3.54758,5.0754,5.46019h.3076l2.03016-.58612,2.33776.30848,1.26116-.24679,1.13812.74037h0l.24608.40103v2.2828l.33836.1851v.24679l1.13812,3.48589-.33836.83291.43064.95631-.18456.21594.3076,1.11055v1.66582h0c-1.55681.84109-2.67745,2.31336-3.076,4.04116v.70951c.3076,1.14139,1.32268,2.1594,3.076,3.08485v.64782c.18456.55527.33836,1.07969.49216,1.57327l-.27684,1.78922.3076.64779-.73824,1.23395.49216,2.036-.3076.98715-.1538,4.1954Zm21.53199-11.5065h3.29132c1.01733.16272,2.04581.24524,3.076.24679.51982.23463,1.06784.40054,1.63028.49358h.18456c.50179-.00677.99963-.08998,1.47648-.24679h0l.52292.40103h1.72256l.769.64782,1.93788-.1851,1.56876.61697-1.44572.80206-1.75332.83291c-.89192.33803-1.82156.56594-2.7684.67867l-2.55308.58612-2.6146.40103-1.96864.21594-1.59952.58612-2.21472.67867-4.02956.61697h-.6152l-2.73764.49358h-2.49156v-.52442h0l.36912-2.86891-.55368-.86375.18456-1.07969-.3076-.49358v-2.65297h.18456l5.0754.43188,2.86068-.1851h0c.3062-.0415.61659-.0415.9228,0,.60586.04291,1.20462.15678,1.78407.33932l.09228.03086Zm-11.90412-20.76106h1.8456l3.076.55527c1.01868.15111,2.04632.23357,3.076.24679l2.55308.52442.98432.27764,3.2298.61697h.33836l-2.307.64782-.18456.27764c-1.46484.02915-2.86719.60049-3.93728,1.60412h-1.19964l-.49216.55527s-.4614.46273-2.49156.92545l-3.076,1.11055h-.33836l-.76901-1.11055v-1.38819l-.36912-1.75836.4614-1.23395-.52292-1.78922.12304-.06169Z"/>
      <path class="cls-1" d="m106.73714,144.98802c-.15126.42486-.21408.87632-.18456,1.32649l-.21532,1.35733-.39988,1.72752-.21532,1.41903-.4614,1.51158v3.73267l.89204,3.08485,1.01509,2.00516.49216,1.26479,1.3842,1.44988.73824.46273.769.46273c.49704.34827,1.08562.54145,1.6918.55527h.43064l.67672.40103h1.32268c.60928.23053,1.25595.3456,1.90712.33934h.67672c1.07659,0,2.73764-.33934,3.076-.33934h0l1.59952-.61697c.35684-.07236.70676-.17556,1.04584-.30848l2.06091-1.48073,3.87575-2.37534h0c.57717-.55519,1.0283-1.22857,1.32268-1.9743.83604-.68234,1.36721-1.67008,1.47648-2.74552-.14921-1.27549-.76259-2.45085-1.72256-3.30079l-.43064-.46273h-.9228c-1.32435-.03389-2.61164.44059-3.59891,1.32649l-.3076.27764v.43188s0,.24679-.55368.33934h-.6152l-.33836.55527c-.3143.17576-.59539.40547-.83052.67867l-2.73764,1.54243-.9228.49358h-2.58384l-2.307-.61697-.03077-.00002h-.21532v-.74036l-.36912-.21594h0c.02107-.28753.02107-.57622,0-.86375l.24609-.21594v-2.49873l.33836-.89461v-.55527l.55368-.40103v-.43188h2.03016l1.6918-.70951,1.32268-.74037c1.05946-.01077,2.06501-.47017,2.7684-1.26479.5995-.28349,1.1582-.64665,1.66104-1.07969l1.29191-.92545,1.6918-1.9126,1.32268-1.35733,1.01509-1.26479.6152-1.14139.18456-2.25194-.21532-.98715v-.1851c-.24045-1.58554-.84027-3.09467-1.75332-4.41134h0l-1.87638-1.54245h-.1538c-.54446-.23949-1.06037-.53958-1.538-.89461l-1.10736-.58612h-.43064c-.40743-.13411-.83245-.20688-1.26116-.21594-.98976.09538-1.96227.32364-2.89143.67867h-.4614l-.3076.43188-.49216.1851h0s-2.43004,1.69667-2.58384,1.85091c-.1829.17863-.34776.37497-.49216.58612-.71523.73831-1.38304,1.52137-1.9994,2.34448h0c-.7395.85766-1.3226,1.83923-1.72256,2.89976h0l-1.41496-1.94346-1.04584,2.12854c-.35284.69868-.5422,1.46884-.55368,2.25194.02861.52623.1322,1.04564.3076,1.54243v.58612c-.33528.41206-.56732.89863-.67672,1.41903l-.55367.80209Zm10.4584-3.39333h0v-.46273l.21532-.33934,1.16888-1.17225.6152-.43188.95356-1.07969,1.01509-.43188.39988-.24679.79975,1.01801-.52291.80206-4.39868,2.77637-.39991-.1234.15381-.30848Z"/>
      <path class="cls-1" d="m171.39462,159.27089c.1696,1.04494.65241,2.01334,1.3842,2.77637l1.16888,1.35733,2.61459,1.88176,1.41496.27764.70748.58612,1.78408-.27764,1.50724.21594h1.50724l2.79916-.64782,1.84559-1.11055h.86128l1.19964-.83291h.95356l1.26116-.92545c2.164-1.03188,3.9734-2.68543,5.19844-4.75067.78876-.64766,1.32284-1.55495,1.50723-2.56043l1.47649-1.32649v-1.11055c0-1.38819-.58445-3.85606-4.52172-4.41134l-1.41498-.33932-.33836,2.31364-.36912.21594-.1538.55527c-.06489.35842-.29224.66622-.6152.83291l-.52291.27764v.52442s-.24609.64782-1.63028,1.85091c-1.11705.24466-2.1225.85185-2.86068,1.72752-1.14527,0-2.24666.44182-3.076,1.23395l-.79975.27764c-.53484.02788-1.06302.13174-1.56875.30848h-.24609c-.45913.00667-.91491.07939-1.35343.21594h-.769v-.46273l-1.2304-.33934-.95356-1.63497v-1.20309l.24609-1.94346.6152-1.26479v-.86375l.98432-2.52958.98432-2.06684.49216-.37018v-.89461c.49216-.67867,1.01509-1.35733,1.50724-1.9743.23656-.32032.54128-.58376.89204-.77121h1.07659v.40103l.55368.80206v2.62212l.67672.37018c.86366.53981,1.57358,1.29428,2.06091,2.19024l.4614.77121h.9228c1.60061-.31047,3.05768-1.13311,4.15258-2.34448l.49216-.46273-.49216-2.65296v-1.60412l-.33836-.27764c.01899-.25671.01899-.5145,0-.77121l.33836-1.51158-.89204-.80206c-.12893-.4345-.29355-.85755-.49216-1.26479l-1.6918-1.82006h-1.66104c-.33283-.23653-.70926-.40432-1.10736-.49358-1.19833-.83474-2.5814-1.36414-4.02956-1.54243h-.27683c-.95356,0-3.47588.1851-4.52172,1.69667h-.83052l-1.538,1.69667-.83052.86375v.77121l-1.32268,1.35733-1.16888,2.25194-.58444,1.60412v.58612l-.769,1.54243-.24609,1.26479v.1851l-.83052,2.2828-.769,2.46788.21532,2.1594.18456.64782v.27764c.01078.56354.09348,1.12336.24609,1.66582v1.11055l.52293,1.1414Z"/>
      <path class="cls-1" d="m231.74569,148.31967v-6.84837l-.92281-1.51158-.12302-1.14139-.70749-.46273c-.29687-.48735-.72284-.88248-1.2304-1.14139-.71852-.69455-1.67817-1.08172-2.67613-1.07969-1.07817.09154-2.12564.40668-3.076.92545l-.55368.27764c-.62674.2337-1.2171.5557-1.75332.95631l-1.35345,1.11055-1.69181,1.29563-1.04583,1.26479-1.19964,1.63497-.73823.92545-.86128,1.20309h-.39987l-.21532.92545v-3.08485l.21532-1.41903-.18455-1.26479.33836-.83291v-.98715l-.18455-2.77637v-4.90491l-.43064-1.04885-1.01509-2.40618-.39987-1.07969-1.07659-.83291c-.8177-.93884-2.01912-1.45035-3.26055-1.38819h-1.47649l-1.87636,1.14139-.4614,2.036,1.38419,2.46788.21532.67867.33836,1.9743v1.14139l.27683,1.04885.36913,2.89976v4.3188l-.18455.30848.3076.98715v.37018l-.18455,1.35733-.36913,2.19024v.64782l-.21532,3.08485-.49217,3.94861-.21532,1.29563.21532,1.14139v3.08485l.83051,2.62212,1.41496,1.75836h3.81423l1.04583-1.29563,1.13813-1.14139.98432-1.60412,1.38419-2.93061.61519-1.17225.95355-1.20309.24609-1.26479,1.44572-2.06684,1.04583-1.78922.18455-.37018.39987-.58612,1.32268-1.60412.49217-.74037,2.39927-1.9743.24609,1.51158v4.25713l-.24609.67867.24609,1.29563v3.08485l.18455,2.89976h0v1.63497c.18077,1.31712.64239,2.57971,1.35345,3.70182.73755,1.10672,1.99579,1.74934,3.32208,1.69667,2.73764,0,4.36791-1.44988,4.36791-3.88691-.03992-.63075-.16409-1.25328-.36913-1.85091v-.49358h0v-.37018l-.55368-.49358c0-.21594-.39987-.70951-.49217-.98715v-9.74813h-.86121Z"/>
      <path class="cls-1" d="m155.39943,161.33774l.52291,1.94346,2.64536,2.86891.70748-.33934.33836.30848,2.1532-1.04885c.59639-.28522,1.14608-.65968,1.63028-1.11055l1.50724-1.38819v-.70951c-.07701-.6191-.27566-1.21674-.58444-1.75836l-1.59952-2.77637.3076-3.70181v-2.19024l.27684-2.036v-1.44988l.18456-1.01801v-.37018c.01657-.22592.01657-.45275,0-.67867.31805-.52991.47816-1.14009.4614-1.75836v-.1851l.24609-.95631.64596-2.74552-.98432-2.62212-1.19965-1.88175-3.076.74037h-.39988l-3.6912-1.44988h-.27684l-6.82872-.95631-2.43004,1.01801h0l-2.12243.80206c-.39422.65524-.85834,1.26552-1.3842,1.82006-.64575.64027-1.18569,1.37962-1.59952,2.19024v.46273c-.13238.2601-.21581.54246-.24609.83291v1.44988c-.45882.65585-.7349,1.42257-.79975,2.2211l-.73824,1.88176s-1.16888,3.30079-1.13812,3.39333c-.27896.59122-.44586,1.22933-.49216,1.88176,0,.15424-.4614,2.2828-.4614,2.2828l-.6152,1.85091v1.17224l.27684,1.17225v.89461c.13566,2.17561,1.51477,4.07584,3.5374,4.87407.88898.91787,2.10772,1.4401,3.38359,1.44988h.6152l1.16888-.37018,1.16888-.61697,2.43004-2.00516,2.24548-1.85091.95356-.92545.70748-1.01801,1.07659-.86375.95356-1.23395.21532-.33934.21532,2.06684v.27764c-.10779.83226-.0766,1.67673.09229,2.49872Zm-.67672-16.5965l-.18456.27764-3.076,3.88691c-.24104.22116-.46712.45819-.67672.70951h0l-1.90712,2.37534h-.33836l-1.13812,1.26479-2.7684,2.12854.21532-.30848-.27683-.27763.27684-1.41903v-.55527l.21532-.30848v-.43189l.18456-.77121.64596-1.78922.52291-1.11055c.14575-.62377.37331-1.22543.67672-1.78922l.52291-2.46788.33836-1.07969c.29123-.29536.59935-.57347.9228-.83291h.36912l.24609-.30848,1.50724-.46273h1.538l1.75332.33934,1.26116.95631-.1538.83291-.67672,1.14139Z"/>
      <path class="cls-1" d="m201.01648,139.92887h-3.076v3.82522c.93431.24397,1.82628.62881,2.64536,1.14139l.33836-2.036-.52291-1.75836.64596-1.01801-.03077-.15424Z"/>
      <path class="cls-1" d="m201.01648,138.20135v-.80206l-.27683-2.40618-.24609-.83291h-5.13691l.55368.74037c0,.27764.3076.58612.43064.86375l1.69181,1.66582-.33836,1.69667h0v.1851h3.076l.24606-1.11056Z"/>
      <path class="cls-1" d="m170.53333,137.0908l.43064-.43188v-.74037l.67672-.74037h0l3.6912-3.97945.9228-.30848c1.95886-1.4053,4.29757-2.17993,6.70568-2.2211h1.56875c1.87005.28944,3.66662.9389,5.29072,1.9126h1.41496c-1.54707-1.58777-2.76965-3.46359-3.59891-5.52188-.61965-1.79244-.88097-3.6898-.769-5.58359h1.84559c.3076-.43188.6152-.86375.95356-1.26479.01919-.48183.10193-.95899.24609-1.41903.13159-.57453.29591-1.141.49216-1.69667l-1.3842.40103h-1.59952c-1.81874-.09441-3.57109-.71594-5.04464-1.78922l-.64596-.46273-.73824-.46273-3.29132-3.42419c-.70916-1.24575-1.11983-2.63977-1.19964-4.072v-.52442l-.3076-1.26479v-2.65297l.769-2.22109c0-.37018.27684-1.20309.33836-1.63497.08939-.93366.31749-1.84866.67672-2.71467h0l-.79975.21594-1.19964.77121-1.3842,1.1414-.55368.49358-.4614.70951-.27684.98715-1.538,1.35733-.36912,2.68382-.98432.37018v.52442l-.4614.70951-.21532.77121.98432,2.40618-1.75332,4.93576-3.076,2.00516-4.21411,1.94346-8.61279-3.08485v-2.86891l-.70748.74037-.73824.1851c-.55639.36874-1.13135.70853-1.72256,1.01801l-.58444.43188-.21532.1851c-.58211.41651-1.22559.73918-1.90712.95631l-1.3842.77121-1.47648.58612-4.09108,1.32649-4.89085-3.70181c-1.73033,2.01531-4.26989,3.14726-6.921,3.08485-2.78286.07095-5.41609-1.26103-7.01327-3.54758-1.04855-1.57355-1.72213-3.36789-1.96864-5.24425v-3.054l-.58444.74037-.43064.74037-1.538,3.08485-1.2304,2.036-1.32268,1.29563-2.12243,2.65297-6.152.24679h-2.18396l-3.076-4.0103-.55368-1.69667-.89204.55527c-.71859.48693-1.50686.86139-2.33776,1.11055-.88152.47484-1.82314.82767-2.79916,1.04885-.7318.38831-1.49289.71838-2.27624.98715l-.95356.30848h-1.78409l-3.3836.74037-1.41496.1851c-1.07889.16189-2.17034.22385-3.26056.1851l-.83052.24679-2.52232.21594h-3.19904,2.55308c1.29095.13833,2.53827.54828,3.66044,1.20309l3.076.89461h0l1.35344.24679,3.076.89461.95356.89461,2.9222,1.44988,3.62968,3.33165,1.19964,5.05915-1.59952,4.38048-.49216.58612c-.77748.90659-1.64302,1.73329-2.58384,2.46788l.39988.21594c1.32376.23306,2.62179.59466,3.87576,1.07969.83052.27764,1.63028.52442,2.06092.61697h2.06091l1.16888,1.11055h0l.3076.27764c-.01516-.10226-.01516-.20622,0-.30848h0c.07118-1.17298.38547-2.31818.9228-3.36249l4.52172-8.48339,2.18396,3.08485.39988-.43188c.2683-.34508.55585-.67466.86128-.98715.97695-.80553,2.00439-1.54742,3.076-2.2211l.24609-.1851.52291-.70951,1.93788-.61697c1.37948-.52394,2.83289-.82586,4.3064-.89461.4609-.03066.9233-.03066,1.3842,0l1.07659-.1851,3.076,1.63497c.27012.20143.55847.377.86128.52442l.86128.49358,2.307,1.66582.43064.61697c1.30149,1.98198,2.07459,4.26549,2.24549,6.63245l.24609,1.07969-.27684,3.67097-.79975,1.35733h0l-.64596,1.11055-1.26116,1.54243-1.26116,1.29563-1.41496,1.60412,5.0754-.24679c0-.52442.33836-1.07969.52291-1.54243v-.24679c.03797-.12854.08953-.25263.1538-.37018v-.21594c.06893-.14066.13053-.28482.18456-.43188h0l.55368-1.41903v-.49358c.06313-.34664.15575-.68723.27684-1.01801.11727-.34993.26123-.69026.43064-1.01801v-.64782c.04506-.36474.11703-.72562.21532-1.07969v-.27764l.43064-.98715c.65797-1.26497,1.52071-2.41165,2.55306-3.39332.33389-.31971.62356-.68283.86128-1.07969l.769-1.32649,3.50664-1.32649,3.5374-1.48073,8.76659,1.17225,3.29132,1.32649,5.2292-1.23395,2.89143,5.30595h0v.1851l1.3842,3.67097-.3076,1.29563h0l-.4614,1.88176.21532-.46273.55368-1.41903h0l.24609-.61697,1.63028-2.80721Zm-70.44035-7.03346l.27684-.83291-1.78408-7.37279-4.98311-4.62728-1.32268-.64782c.72477-.25514,1.43354-.55389,2.12244-.89461.87143-.24863,1.72452-.55786,2.55308-.92545l3.35284,4.16454h5.35224l-5.56756,11.13632Zm58.25941-3.08485l-2.49156-.98715-10.6122-1.41903-4.58324,1.9126-4.92159,1.85091-.79975,1.41903c-.45066-.95484-.97518-1.87281-1.56875-2.74552l-.86128-1.26479-3.076-2.0977-1.19964-.74037-.33836-.1851h-.21532l-4.64478-2.83805-2.03016.37018c-2.36492-.1424-4.7333.21493-6.95175,1.04885l-3.32208,1.04885-.9228,1.26479-.55368.40103-3.62968-5.12085,7.32088-.27764,3.2298-4.0103h0c2.43817,3.46768,6.44436,5.48232,10.67372,5.36765,2.48307.03093,4.93157-.58562,7.10556-1.78922l3.9988,2.74552,6.152-2.00516,1.81484-.70951,1.72255-.98715c.59664-.22827,1.1729-.50691,1.72256-.83291l11.07359,4.1954,5.96743-2.80721,4.79856-3.08485,1.32268-3.64013.24609.43188,3.96804,4.1337.39988.24679c.19305.15136.3989.28555.6152.40103,1.14668.92958,2.43441,1.66904,3.81424,2.19024-.1381,1.99503.0069,3.99961.43064,5.95376h-.52294c-3.04854.08202-6.0165.99951-8.58204,2.65297l-1.29191.40103-3.076,3.08485-3.076-5.49103-7.10555,1.91259Z"/>
      <path class="cls-1" d="m218.39587,133.72831h-1.16887v.80206l.24609-.1851c.2937-.22582.60198-.43192.92279-.61696Z"/>
      <path class="cls-1" d="m595.97465,106.61248c-11.28891-14.46796-38.54225-29.73797-64.59596-30.2624-23.74671-.52443-39.98798,11.5065-55.58331,23.10553-16.48735,12.33941-32.0519,23.75336-56.32152,22.61197-18.00667-1.4746-35.33929-7.53777-50.35408-17.6145h0l.39987-4.53474.18455-1.23394c.01643-.31855.01643-.63775,0-.9563.21344-.89118.34728-1.79966.39987-2.71467l1.41496-6.78668-1.9994-6.1697-5.41376-11.4448-8.12063,2.1594-2.82991-1.26479-11.71952-1.85091-3.076,1.29564c-3.77945-6.89346-9.53329-12.49192-16.51812-16.07207-10.21231-5.36764-28.51449-10.39595-57.79801-3.85606-14.90427,3.63169-29.09652,9.74202-41.98736,18.07723l.86128.61697.769,2.1594.79977,1.91261c12.50195-8.0923,26.28358-13.99634,40.75698-17.46026,8.17818-1.93871,16.54353-2.97316,24.94635-3.08485,10.1125-.31266,20.14688,1.86948,29.22198,6.35479,8.9204,4.65813,12.30399,10.14916,16.24127,17.09007,0,.21594.27683.46273.43064.70951l2.58383-.98715,2.39927-1.018h0l1.04583-.43188,8.76659,1.1414,3.32208,1.32649,5.22919-1.20309,3.076,5.46019,1.38419,3.70182-1.07659,4.47304c-.02492.703-.14921,1.39888-.36913,2.06685h0c.01636.28769.01636.57607,0,.86376v2.52958l-.24609,2.0977-.64591,4.38047,1.01509,1.72752c.17373.34044.3278.69064.4614,1.04885h0c0,.33934.21532.64782.3076.95631h0c.12595.36959.20854.75263.24609,1.14139v.27764c16.6719,11.53735,37.46566,19.34202,55.55254,20.20578,26.14598,1.26479,43.21778-11.41395,59.70514-23.62996,15.62608-11.59904,30.36009-22.55026,52.29197-22.08754,24.60799.49358,50.01571,14.74559,60.56641,28.2264,3.845,4.96661,5.47527,9.47049,4.67553,13.04892-2.52234,11.32141-29.25273,21.59396-71.76304,29.12099-4.90383-2.0099-9.99371-3.52886-15.19544-4.53474-18.05243-3.54155-36.29214-6.04436-54.62971-7.49619-47.92406-4.44218-111.65874-6.87922-179.42298-6.87922-14.94935,0-29.71415,0-44.17134.33934.43472.31895.83659.68064,1.19964,1.07969h0l1.50723.92545.49217,2.25194.61519,1.01801c13.2268-.21594,26.73043-.30848,40.3571-.30848,66.07243,0,128.57673,2.34448,176.00862,6.60158,67.36434,6.1697,74.07004,13.20316,74.68523,14.22117-.61519.98715-7.32089,8.14401-74.68523,14.19031-6.61338.58612-13.56516,1.14139-20.73224,1.66582,10.79674-3.91776,10.79674-7.34195,10.79674-9.25455,0-3.30079,0-12.12347-66.257-19.24948-37.77325-4.04116-86.89695-6.44734-139.65032-6.81752v5.30595c51.92284.37018,100.40058,2.71467,137.80473,6.66328,59.88969,6.3548,62.68886,13.78929,62.75034,14.09777s-2.86066,7.74297-62.75037,14.06693c-40.97229,4.34964-95.20216,6.72498-152.72331,6.72498s-111.75102-2.37534-152.69255-6.72498c-60.72021-6.10802-62.59657-13.69675-62.62733-13.75845s1.41496-5.55273,38.88062-11.10546v4.87407c1.90712-.40103,3.81424-.74037,5.72136-1.07969v-4.53474l.1538-.49358-.52292-2.2828h0v-.27764l.67672-1.11055.18456-1.32649h0v-.33934c-.42539-.29657-.82654-.62666-1.19964-.98715h0c-.33906-.29798-.64814-.62862-.9228-.98715-.29809-.37904-.56553-.78136-.79976-1.20309l-.86128-2.46788v-.15424l.27684-1.29563c.46319-1.99746,1.53893-3.79913,3.076-5.1517l-.73823-2.15941.39988-1.01801-.39988-1.07969-.83052-.49358v-1.44988h-.24608l-3.076.86375-1.9994-1.14139c-3.076-1.72752-7.25935-4.50388-7.25935-9.00776-.03649-2.92059,1.67102-5.5803,4.33716-6.75582,1.16182-.99101,2.56134-1.66089,4.06032-1.94346l-1.6918-1.11055c-1.78986-.90326-3.30006-2.27915-4.36792-3.97946-1.02877-1.55745-1.59423-3.37641-1.63028-5.24425.10279-1.64098.49871-3.25009,1.16888-4.75067l.36912-.98715,3.076-3.30079,2.24548-1.11055c1.82732-.9752,3.97417-1.15368,5.93668-.49358h.27684c3.076,0,6.73644,1.69667,7.01328,8.2674l4.82932.67867h7.9976l5.41376-.55527,2.4608-.49358-1.8456-.24679c-.8981-.15584-1.77538-.41461-2.6146-.77121l-2.43004-.58612h-2.43004l-1.47648-.86376-3.84499-.67867c-1.95545-.50969-3.85238-1.22308-5.65984-2.12855-1.57466-.58115-2.98052-1.54582-4.09108-2.80721l-1.90712-1.66582-1.0766-2.37534-1.93788-2.40619.89204-6.81752,2.86068-3.08485.52292-1.91261,2.73764-.83291,5.47528-2.80721h2.12244l1.10736-.70951h.21532l.6152-.52443h1.59952c1.61321-.52221,3.28945-.82314,4.98312-.89461l.67672-.40103h1.72256c-1.20944-.54094-2.52079-.81449-3.845-.80206-.48138-.03185-.96434-.03185-1.44572,0-2.49989-2.13116-3.84615-5.32341-3.62968-8.60673v-1.32649c.0234-.46243.0234-.92575,0-1.38819-.04925-.86305-.04925-1.72822,0-2.59128-.00456-.95835.11959-1.91295.36912-2.83806l.18456-1.69667c-.27733-2.60049-.19452-5.22695.24608-7.80467v-1.51158l.18456-2.37534c-.03147-.54453-.03147-1.09044,0-1.63497v-3.08485l-.1538-2.46788-4.98312-.37018h-3.44512l-5.6906,1.44988-2.73764-2.1594c-1.57048-1.18428-2.99539-2.55116-4.24488-4.072l-.27684-.37018-.98431-2.1594c-.39388-.90556-.60305-1.88102-.6152-2.86891-.00485-1.2398.20326-2.47117.6152-3.64013l.49216-1.35733,7.2286-4.41134,10.64296.61697,6.24427.21594,1.50724-4.072,9.22799,2.12855h2.73764l1.0766,1.32649h.33836l1.47648.30848c2.74448-.38946,5.52996-.38946,8.27444,0h2.12244l6.58263-.15424,4.02956.15424h22.54707l-9.13573,16.81244-4.64475.55527,7.5362,1.018,3.32208,1.32649,5.2292-1.23394,3.076,5.49104.79975,2.0977.39988-.37018.89204-.67867c.45392-.41873.94855-.79077,1.47648-1.11055l1.41496-1.04885,5.53679-1.94346,1.47648-.30849,5.35224-.61697,5.81363,1.14139.70748.43188c.80839.4898,1.535,1.10398,2.1532,1.82006l1.19964,1.35733.83052,5.12085-.27684,1.23394c-.56864,2.36813-2.22357,4.32542-4.4602,5.2751l2.12243.77121.9228.49358v-.18509c.17669-.47983.39276-.94415.64596-1.38818v-2.28279l.36912-.43188v-.55527l.4614-.89461v-1.32649l2.7684-3.54758,1.26116-1.26479,1.90712-2.06685.24609-1.11055,4.18336-2.46788c1.88319-.82607,3.99709-.9572,5.96743-.37018l3.87575.55527h.64596l.95356.46273h1.35343l1.72256,1.48073c.7633.67261,1.48252,1.39391,2.1532,2.1594h.24609l2.58384,3.08485,1.96864,4.53473v1.41903l.18456,3.60928h0c-.00824,1.09684-.11116,2.19091-.3076,3.26994l-.27684,1.04885v.89461l-.73824,1.0797-.27684,1.17224-1.16888,1.0797-.769,1.51158-.55368,1.41903-1.01509.55527-.6152,1.17224-1.35343.64782-1.16888.92545c-.82679.84802-1.80841,1.52875-2.89143,2.00515-1.21554,1.01791-2.68172,1.68918-4.24488,1.94345l-.70748.21594-.3076.18509-.49216.15424-1.56875,1.11055h-2.12245l-2.06091.43188-1.90712-.74036-4.73704-.30849-2.307-3.36249-.27684.21594-1.87636,1.17224-1.41496,1.32649-3.26056.83291c.77727,1.1681,1.18469,2.54439,1.16888,3.94861-.02731,2.00118-.95421,3.88298-2.52232,5.12085-.81083.93819-1.76623,1.74012-2.82991,2.37534l-.49216.55527-2.7684,1.72752h0c.98972.88308,1.732,2.01035,2.1532,3.26994l.27684.80206v.40103c.17282.68549.25555,1.3907.24609,2.0977.01285.54915-.03877,1.09792-.1538,1.63497v3.70182c.00968.57516-.07342,1.14811-.24609,1.69667v.18509l-.24609.64782c1.13278-.42382,2.32864-.65325,3.5374-.67867v-.21594h0v-1.32649l-.55368-2.25194-.24609-1.54243c-.30965-.77474-.46634-1.60239-.4614-2.43704,0-1.9743.9228-5.55273,6.98252-7.37279l1.47648-.43188,6.79795,1.26479.89204,3.23909,1.41496-1.57328,1.41496.21594.33836-.21594v-1.26479l4.73704-.09252h.18456c.85918-.30301,1.76552-.44928,2.67612-.43188.56263-.05431,1.12916-.05431,1.6918,0,1.33047.1086,2.61641.53144,3.75272,1.23394.27354-.30446.53026-.6237.769-.9563l.73824-1.32649,3.59891-1.35734,3.44511-1.44988,8.73584,1.1414,3.32208,1.32649,3.69119-.86376-1.59951-3.08485,1.16887-5.09,4.42944-2.77637h2.82991c2.28501-.03274,4.49243.83064,6.152,2.40619h0c.64596-.89461,1.29191-1.75836,1.9994-2.65297l-.27683-.18509c-2.48892-2.36758-5.7977-3.67278-9.22799-3.64013h-4.02957l-7.04404,4.41134-1.41496,6.1697-10.64295-1.41903-4.52172,1.91261-4.98311,1.88176-.24609.43188-1.29191-.21594c-1.95645-.34401-3.96522-.23854-5.87516.30849l-5.35224.33934-9.90472-1.85091h-.3076c.47802-1.21885.72827-2.51552.73824-3.82522v-1.11055l.27684-.24679.83052,1.20309,6.152.40103,2.52232.9563,3.076-.58612h3.26056l2.12243-1.51158h.39988l.27684-.18509c1.9899-.38987,3.86347-1.23434,5.47527-2.46788,1.27412-.63261,2.44592-1.45417,3.47588-2.43704l.58444-.46273,2.24548-1.0797.64596-1.26479,1.2304-.70951,1.01509-2.59128.36912-.67867,1.56875-1.48073.36912-1.63497.89204-1.29565v-1.63497l.18456-.70951c.26741-1.37149.39112-2.76726.36912-4.16455h0l-.18456-3.60928v-2.22109l-2.49156-5.79952-3.50664-4.2571-.33836-.18509c-.70748-.74036-1.35343-1.38818-2.03016-1.97431l-3.076-2.59128h-1.96864l-.79975-.46272h-1.10736l-3.5374-.43188c-2.89683-.80012-5.97941-.58241-8.73584.61697l-6.33656,3.70182-.24609,1.23394-.52291-.58612c-.90544-.99754-1.93997-1.86903-3.076-2.59128l-1.3842-.86376-7.35163-1.41903-6.152.67867-1.90712.40103-6.79795,2.19024-.3076.21594-3.076-5.73782-1.75332.52443,1.3842-.61697h-6.73644l9.3818-17.52196h-29.49882l-4.15259-.15424-6.61339.15424h-1.538c-2.77144-.40292-5.58239-.45474-8.36672-.15424l-1.2304-1.38818h-4.36792l-12.4578-3.08485-1.75332,4.71982-15.07239-.77121-9.72015,5.95376-.98432,2.71467c-.5589,1.58574-.84999,3.25391-.86128,4.93576.00812,1.49472.31129,2.97303.89204,4.34964l1.3842,2.43703.58444.83291c1.45269,1.7881,3.11553,3.39358,4.95236,4.78152l4.49096,3.57843,7.32087-1.88176h3.5374v1.72752c-.0315.55482-.0315,1.111,0,1.66582l-.18456,2.40618v1.51158c-.42122,2.64154-.51421,5.32527-.27684,7.98977v.95631c-.3121,1.15635-.46729,2.34963-.4614,3.54758,0,.80206,0,1.75836.21532,3.08485v2.19024c-.0443,2.5324.51461,5.03885,1.63028,7.3111l-.67672.46273h-1.96864l-6.152,3.08485-4.67552,1.41903-.86128,3.08485-3.076,3.30079-1.26116,9.71728.98432,1.23394c-1.08506.22617-2.12475.63282-3.076,1.20309l-2.73764,1.35734-4.33716,4.44219-.64596,1.75836c-.85275,1.94956-1.33273,4.04242-1.41496,6.16971.04016,2.61119.81885,5.15725,2.24548,7.34195.53893.85681,1.16798,1.65315,1.87636,2.37534-3.02545,2.10414-4.82997,5.56219-4.82932,9.25455,0,7.37279,7.10556,11.29056,9.44331,12.55535l3.62968,2.00516h.21532c-1.13166,1.53721-1.9377,3.29041-2.36852,5.1517l-.27684,1.32649-.18456,1.07969,1.16888,3.60927.24608.55527c0,.1851.24608.37018.36912.58612l-.98432.1851c-5.93274,1.05949-11.69583,2.91687-17.13331,5.52189C0,158.40712,0,163.49713,0,165.96501c0,3.30079,0,12.12347,66.257,19.12608,51.3538,4.90508,102.9222,7.20111,154.5074,6.87922,51.58518.32151,103.15356-1.97451,154.50738-6.87922,8.05912-.86375,15.13391-1.75836,21.34743-2.68382,21.13209-1.04885,40.75698-2.40618,58.25941-4.04116,18.33757-1.45181,36.57728-3.95464,54.62971-7.49619,15.37999-3.39333,21.99337-6.87922,21.99337-11.72243-.01047-1.00917-.3094-1.99414-.86128-2.83806,35.52779-6.50904,67.51815-16.6582,70.99404-32.32924,1.26117-5.09001-.769-11.13632-5.65983-17.36772Z"/>
    </g>
  </g>
</svg>