<?xml version="1.0" encoding="UTF-8"?>
<svg id="_レイヤー_1" data-name="レイヤー 1" xmlns="http://www.w3.org/2000/svg" xmlns:xlink="http://www.w3.org/1999/xlink" viewBox="0 0 750 154">
  <defs>
    <style>
      .cls-1 {
        fill: none;
      }

      .cls-2 {
        clip-path: url(#clippath);
      }

      .cls-3 {
        fill: #f8eaef;
      }

      .cls-4 {
        fill: #c66c95;
      }
    </style>
    <clipPath id="clippath">
      <rect class="cls-1" width="750" height="154"/>
    </clipPath>
  </defs>
  <g class="cls-2">
    <path class="cls-4" d="m750,226.41258V0c-65.15401,12.62309-124.02102,10.43739-147.00127,16.00876-26.5316,6.43234-78.03205,3.50622-158.92525,24.33306-80.89301,20.82672-250.60946,17.55931-286.20402,17.60991-35.59456.05061-89.5785,1.59874-136.14426,6.81458C13.22747,65.71821,6.15998,66.12523,0,66.163v160.24958h749.99999Z"/>
    <path class="cls-3" d="m728.27479,64.76631c-46.56575-5.21584-100.5497-6.76397-136.14426-6.81458-35.59456-.05061-205.31101,3.21681-286.20402-17.60991-80.8932-20.82685-132.39365-17.90072-158.92525-24.33306C124.02102,10.43739,65.15401,12.62309,0,0v982.39017h749.99999V66.163c-6.15997-.03777-13.22746-.44479-21.72521-1.39669Z"/>
  </g>
</svg>