<svg viewBox="0 0 750 154" xmlns="http://www.w3.org/2000/svg" xmlns:xlink="http://www.w3.org/1999/xlink"><clipPath id="a"><path d="m0 0h750v154h-750z"/></clipPath><g clip-path="url(#a)"><path d="m750 226.41258v-226.41258c-65.15401 12.62309-124.02102 10.43739-147.00127 16.00876-26.5316 6.43234-78.03205 3.50622-158.92525 24.33306-80.89301 20.82672-250.60946 17.55931-286.20402 17.60991-35.59456.05061-89.5785 1.59874-136.14426 6.81458-8.49773.9519-15.56522 1.35892-21.7252 1.39669v160.24958h749.99999z" fill="#5e71a9"/><path d="m728.27479 64.76631c-46.56575-5.21584-100.5497-6.76397-136.14426-6.81458s-205.31101 3.21681-286.20402-17.60991c-80.8932-20.82685-132.39365-17.90072-158.92525-24.33306-22.98024-5.57137-81.84725-3.38567-147.00126-16.00876v982.39017h749.99999v-916.22717c-6.15997-.03777-13.22746-.44479-21.72521-1.39669z" fill="#f3f4f7"/></g></svg>