<svg viewBox="0 0 2880 434" xmlns="http://www.w3.org/2000/svg" xmlns:xlink="http://www.w3.org/1999/xlink"><clipPath id="a"><path d="m-18-609.5h2880v434h-2880z"/></clipPath><clipPath id="b"><path d="m0 0h2880v434h-2880z"/></clipPath><g clip-path="url(#a)"><path d="m2862 260v-870c-250.19141 48.50475-476.24072 40.10613-564.48486 61.51434-101.88135 24.71655-299.64307 13.47278-610.27295 93.50083-310.62919 80.02757-962.34033 67.47239-1099.02344 67.66683s-343.98145 6.14325-522.79395 26.18532a790.47714 790.47714 0 0 1 -83.4248 5.36683v615.76585z" fill="#fff"/></g><g clip-path="url(#b)"><path d="m2880 870v-870c-250.19141 48.50475-476.24072 40.10613-564.48486 61.51434-101.88135 24.71655-299.64307 13.47278-610.27295 93.50083-310.62919 80.02757-962.34033 67.47239-1099.02344 67.66683s-343.98145 6.14325-522.79395 26.18532a790.47714 790.47714 0 0 1 -83.4248 5.36683v615.76585z" fill="#ffeaaa"/></g></svg>
