<?xml version="1.0" encoding="UTF-8"?>
<svg id="_レイヤー_1" data-name="レイヤー 1" xmlns="http://www.w3.org/2000/svg" xmlns:xlink="http://www.w3.org/1999/xlink" viewBox="0 0 750 154">
  <defs>
    <style>
      .cls-1 {
        fill: none;
      }

      .cls-2 {
        clip-path: url(#clippath);
      }

      .cls-3 {
        fill: #fff;
      }

      .cls-4 {
        fill: #0f6688;
      }
    </style>
    <clipPath id="clippath">
      <rect class="cls-1" width="750" height="154"/>
    </clipPath>
  </defs>
  <g class="cls-2">
    <g>
      <path class="cls-4" d="m0,226.00002V-.41257C65.15401,12.21052,124.02102,10.02482,147.00127,15.59619c26.5316,6.43234,78.03206,3.50622,158.92525,24.33306,80.89301,20.82672,250.6095,17.55931,286.20398,17.60991,35.59454.05061,89.57849,1.59874,136.14429,6.81458,8.49774.95189,15.56525,1.35892,21.72522,1.39669v160.24957H0v.00002Z"/>
      <path class="cls-3" d="m750,230.00002V3.58743c-65.15399,12.62309-124.021,10.43739-147.00128,16.00876-26.53162,6.43234-78.03204,3.50622-158.92523,24.33306-80.89301,20.82672-250.60947,17.55931-286.20401,17.60991-35.59456.05061-89.5785,1.59874-136.14426,6.81458-8.49776.9519-15.56525,1.35892-21.72522,1.39668v160.24957h750v.00002Z"/>
    </g>
  </g>
</svg>