<svg viewBox="0 0 2880 368" xmlns="http://www.w3.org/2000/svg" xmlns:xlink="http://www.w3.org/1999/xlink"><clipPath id="a"><path d="m0 0h2880v368h-2880z"/></clipPath><g clip-path="url(#a)"><path d="m2880 869.42431v-869.42431c-250.19141 48.47266-476.24072 40.07959-564.48486 61.47363-101.88135 24.7002-299.64307 13.46387-610.27295 93.439-310.62919 79.97458-962.34033 67.4277-1099.02344 67.62204s-343.98145 6.13916-522.79395 26.168a790.99253 790.99253 0 0 1 -83.4248 5.36325v615.35839z" fill="#5e71a9"/><path d="m0 869.42431v-869.42431c250.19141 48.47266 476.24072 40.07959 564.48486 61.47363 101.88135 24.7002 299.64307 13.46387 610.273 93.439 310.62915 79.97461 962.34033 67.42773 1099.02344 67.62207s343.98145 6.13916 522.794 26.168a790.99253 790.99253 0 0 0 83.4247 5.36322v615.35839z" fill="#fff"/></g></svg>