<svg viewBox="0 0 2880 486" xmlns="http://www.w3.org/2000/svg" xmlns:xlink="http://www.w3.org/1999/xlink"><clipPath id="a"><path d="m0 0h2880v486h-2880z"/></clipPath><g clip-path="url(#a)"><path d="m-15-6h2903.46234v655.10258h-2903.46234z" fill="#d8eeed"/><path d="m0 867.69089v-867.69089c250.19141 48.376 476.24072 39.99968 564.48486 61.35107 101.88135 24.651 299.64307 13.437 610.273 93.25267 310.62914 79.81516 962.34028 67.29326 1099.02339 67.48726s343.98145 6.12692 522.794 26.1158a792.55208 792.55208 0 0 0 83.42475 5.35257v614.13152z" fill="#c66c95"/><path d="m2880 882.743v-867.69092c-250.19141 48.376-476.24072 39.99968-564.48486 61.35107-101.88135 24.651-299.64307 13.437-610.27295 93.25267-310.62919 79.81518-962.34033 67.2933-1099.02344 67.48725s-343.98145 6.12693-522.79395 26.1158a792.55208 792.55208 0 0 1 -83.4248 5.35258v614.13155z" fill="#f8eaef"/></g></svg>