<?xml version="1.0" encoding="UTF-8"?>
<svg id="a4e49882-f3fe-483e-b9dc-962ced381779" xmlns="http://www.w3.org/2000/svg" xmlns:xlink="http://www.w3.org/1999/xlink" viewBox="0 0 750 154">
  <defs>
    <style>
      .cls-1 {
        fill: none;
      }

      .cls-2 {
        clip-path: url(#clippath);
      }

      .cls-3 {
        fill: #fff;
      }

      .cls-4 {
        fill: #f2dc3e;
      }
    </style>
    <clipPath id="clippath">
      <rect class="cls-1" width="750" height="154"/>
    </clipPath>
  </defs>
  <g class="cls-2">
    <path class="cls-4" d="m0,226.41258V0c65.15401,12.62309,124.02102,10.43739,147.00127,16.00876,26.5316,6.43234,78.03205,3.50622,158.92525,24.33306,80.89301,20.82672,250.60946,17.55931,286.20402,17.60991,35.59456.05061,89.5785,1.59874,136.14426,6.81458,8.49775.95189,15.56524,1.35892,21.72521,1.39669v160.24958H0Z"/>
    <path class="cls-3" d="m750,230.34022V3.92764c-65.15401,12.62309-124.02102,10.43739-147.00127,16.00876-26.5316,6.43234-78.03205,3.50622-158.92525,24.33306-80.89301,20.82672-250.60946,17.55931-286.20402,17.60991-35.59456.05061-89.5785,1.59874-136.14426,6.81458C13.22746,69.64585,6.15997,70.05288,0,70.09064v160.24958s750,0,750,0Z"/>
  </g>
</svg>