<svg id="f7bd5c07-a742-4849-9c4f-e422ed53bbe5" data-name="レイヤー 1" xmlns="http://www.w3.org/2000/svg" viewBox="0 0 278 273.99996"><path d="M222.13647,234.57988,49.67725,263.95431,33.16567,169.85792l173.614-30.6909Z" style="fill:#f4e2ea"/><path d="M49.47734,263.856l-15.42282-94.7496,172.32826-28.25859,15.42282,94.7496" style="fill:none;stroke:#7e5b39;stroke-miterlimit:10;stroke-width:1.3774260403233034px"/><path d="M20.05382,200.09856H257.94618A20.09,20.09,0,0,1,278,220.22465v.002a20.09,20.09,0,0,1-20.05382,20.1261H20.05382A20.09,20.09,0,0,1,0,220.22661v-.002A20.09,20.09,0,0,1,20.05382,200.09856Z" style="fill:#c56c94"/><path d="M17.95141,209.86636H21.663l1.46014,8.99038c.27192,1.93722.56922,3.87346.84114,5.86066h.0991c.371-1.9872.76693-3.94891,1.16284-5.86066l2.128-8.99038h3.1429l2.10308,8.99038c.39591,1.88725.76693,3.87346,1.16285,5.86066h.124c.27192-1.9872.54432-3.94891.81673-5.86066l1.45972-8.99038h3.46412l-3.38992,18.40212H31.685l-2.05377-9.08936c-.2973-1.44042-.56922-2.85536-.79183-4.27129h-.0991c-.2475,1.41593-.495,2.83087-.79182,4.27129L25.944,228.26848H21.4654Z" style="fill:#fff"/><path d="M40.96666,221.31526c0-4.61915,3.19221-7.30107,6.65633-7.30107s6.65634,2.68192,6.65634,7.30107-3.19221,7.30107-6.65634,7.30107S40.96666,225.93441,40.96666,221.31526Zm9.601,0c0-2.60746-1.06423-4.32126-2.9447-4.32126s-2.9447,1.7138-2.9447,4.32126c0,2.632,1.06423,4.32126,2.9447,4.32126S50.56769,223.94721,50.56769,221.31526Z" style="fill:#fff"/><path d="M56.21105,221.31526c0-4.61915,3.19221-7.30107,6.65634-7.30107s6.65584,2.68192,6.65584,7.30107-3.19172,7.30107-6.65584,7.30107S56.21105,225.93441,56.21105,221.31526Zm9.601,0c0-2.60746-1.06423-4.32126-2.9447-4.32126s-2.9447,1.7138-2.9447,4.32126c0,2.632,1.06423,4.32126,2.9447,4.32126s2.94476-1.68931,2.94476-4.32126Z" style="fill:#fff"/><path d="M71.52917,221.31526c0-4.52018,2.82119-7.30107,5.8152-7.30107a4.75941,4.75941,0,0,1,3.51343,1.51489l-.12351-2.18611v-4.89156h3.61253v19.81707H81.40261l-.27241-1.44042h-.0991a5.73688,5.73688,0,0,1-3.83514,1.78827C73.75624,228.61633,71.52917,225.88443,71.52917,221.31526Zm9.20506,2.85537v-6.10857a3.7283,3.7283,0,0,0-2.5981-1.04357c-1.55876,0-2.8705,1.4904-2.8705,4.27129,0,2.88085,1.03934,4.32127,2.8705,4.32127A3.14866,3.14866,0,0,0,80.73423,224.17063Z" style="fill:#fff"/><path d="M93.9996,217.2419H92.144v-2.70642l1.85563-.14894V213.244c0-2.90534,1.33664-5.14044,4.82566-5.14044a7.88056,7.88056,0,0,1,2.62244.47132l-.66789,2.7074a3.92766,3.92766,0,0,0-1.46015-.29788c-1.08864,0-1.68226.64574-1.68226,2.18513v1.19153h2.59809v2.88084H97.6374v11.02658H93.99948Zm8.28979-7.12665a1.93078,1.93078,0,0,1,2.10307-1.9872,2.00237,2.00237,0,1,1-2.10307,1.9872Zm.29681,4.24581h3.61253v13.90742H102.5862Z" style="fill:#fff"/><path d="M109.863,214.36106h2.9696l.27191,2.4595h.07421a4.80043,4.80043,0,0,1,3.93473-2.80637,3.8976,3.8976,0,0,1,1.633.29788l-.61852,3.15325a4.61662,4.61662,0,0,0-1.46015-.22342c-1.08864,0-2.39989.72022-3.16737,2.73191v8.29467H109.863Z" style="fill:#fff"/><path d="M119.24241,221.31526c0-4.4947,3.16731-7.30107,6.45862-7.30107,3.81073,0,5.7903,2.80637,5.7903,6.62985a6.91652,6.91652,0,0,1-.1733,1.68931h-8.5368a3.646,3.646,0,0,0,3.80829,3.478l.02685-.00135a5.7026,5.7026,0,0,0,3.118-.96812l1.237,2.23413a8.695,8.695,0,0,1-4.82517,1.54036C122.26132,228.61633,119.24241,225.90893,119.24241,221.31526Zm9.13092-1.41592c0-1.86275-.84114-3.05429-2.623-3.05429-1.46015,0-2.7465,1.04259-3.01891,3.05429Z" style="fill:#fff"/><path d="M139.60928,214.36106h2.9696l.27191,1.86275h.07421a5.82728,5.82728,0,0,1,4.25644-2.20962,3.771,3.771,0,0,1,3.81073,2.433c1.262-1.34047,2.5981-2.433,4.40436-2.433,2.9447,0,4.30575,2.08616,4.30575,5.58726v8.667h-3.63743v-8.2202c0-2.16064-.619-2.90534-1.93026-2.90534a4.0377,4.0377,0,0,0-2.6723,1.56486v9.56068h-3.613v-8.2202c0-2.16064-.64342-2.90534-1.95467-2.90534a3.94544,3.94544,0,0,0-2.64789,1.56486v9.56068h-3.63743Z" style="fill:#fff"/><path d="M162.35261,221.31526c0-4.4947,3.16731-7.30107,6.45862-7.30107,3.81073,0,5.7903,2.80637,5.7903,6.62985a6.88728,6.88728,0,0,1-.1733,1.68931h-8.53681a3.646,3.646,0,0,0,3.8083,3.478l.02685-.00135a5.7026,5.7026,0,0,0,3.118-.96812l1.237,2.23413a8.69593,8.69593,0,0,1-4.82517,1.54036C165.37151,228.61633,162.35261,225.90893,162.35261,221.31526Zm9.13092-1.41592c0-1.86275-.84114-3.05429-2.623-3.05429-1.45965,0-2.7465,1.04259-3.0189,3.05429Z" style="fill:#fff"/><path d="M176.31065,224.494c0-2.97981,2.40038-4.54468,7.99248-5.14045-.0742-1.36595-.66783-2.40952-2.37548-2.40952a7.81275,7.81275,0,0,0-3.81074,1.316l-1.31125-2.40854a11.04143,11.04143,0,0,1,5.79031-1.83727c3.51343,0,5.32018,2.11065,5.32018,6.134v8.12026h-2.9696l-.2475-1.4904h-.09911a6.50175,6.50175,0,0,1-4.18174,1.83825,3.942,3.942,0,0,1-4.10755-3.77094Q176.30278,224.66975,176.31065,224.494Zm7.99248-.1v-2.80539c-3.38992.42134-4.52836,1.365-4.52836,2.60745,0,1.09257.76742,1.56389,1.83117,1.56389A3.76123,3.76123,0,0,0,184.30313,224.394Z" style="fill:#fff"/><path d="M191.43154,223.40142V217.2419h-1.95517v-2.70642l2.15288-.17442.42081-3.749h3.0189v3.749h3.41482v2.88084H195.069v6.15952c0,1.58936.64343,2.33407,1.88047,2.33407a4.03821,4.03821,0,0,0,1.36105-.29788l.59363,2.65743a8.93707,8.93707,0,0,1-2.91981.52129C192.69348,228.61633,191.43154,226.50568,191.43154,223.40142Z" style="fill:#fff"/><path d="M209.69484,226.80356h-.0991l-.32172,1.46492h-2.8456V208.45141h3.63743v4.99151l-.09861,2.2351a5.89979,5.89979,0,0,1,3.83514-1.66383c3.41482,0,5.46859,2.80637,5.46859,7.05218,0,4.79357-2.8456,7.55-5.8894,7.55A5.2878,5.2878,0,0,1,209.69484,226.80356Zm5.8396-5.66272c0-2.65645-.84113-4.12235-2.7465-4.12235a3.81431,3.81431,0,0,0-2.72209,1.44042v6.10955a3.7709,3.7709,0,0,0,2.49948,1.04259C214.24809,225.61105,215.53444,224.17063,215.53444,221.14084Z" style="fill:#fff"/><path d="M221.2525,221.31526c0-4.4947,3.16731-7.30107,6.45862-7.30107,3.81073,0,5.7903,2.80637,5.7903,6.62985a6.88728,6.88728,0,0,1-.1733,1.68931h-8.53681a3.646,3.646,0,0,0,3.80829,3.478l.02685-.00135a5.7026,5.7026,0,0,0,3.118-.96812l1.237,2.23413a8.69593,8.69593,0,0,1-4.82517,1.54036C224.2714,228.61633,221.2525,225.90893,221.2525,221.31526Zm9.13091-1.41592c0-1.86275-.84113-3.05429-2.623-3.05429-1.45965,0-2.7465,1.04259-3.0189,3.05429Z" style="fill:#fff"/><path d="M235.38335,221.31526c0-4.4947,3.16732-7.30107,6.45862-7.30107,3.81074,0,5.79031,2.80637,5.79031,6.62985a6.8868,6.8868,0,0,1-.17331,1.68931h-8.5368a3.646,3.646,0,0,0,3.80829,3.478l.02685-.00135a5.70263,5.70263,0,0,0,3.118-.96812l1.23705,2.23413a8.696,8.696,0,0,1-4.82518,1.54036C238.40226,228.61633,235.38335,225.90893,235.38335,221.31526Zm9.13092-1.41592c0-1.86275-.84113-3.05429-2.623-3.05429-1.45966,0-2.7465,1.04259-3.0189,3.05429Z" style="fill:#fff"/><path d="M250.38024,214.36106h2.96911l.27192,2.4595h.0742a4.80046,4.80046,0,0,1,3.93473-2.80637,3.8976,3.8976,0,0,1,1.633.29788l-.61852,3.15325a4.61653,4.61653,0,0,0-1.46015-.22342c-1.08864,0-2.39989.72022-3.16731,2.73191v8.29467h-3.63694Z" style="fill:#fff"/><path d="M48.76051,252.06679c-.02489.77018-.04979,1.51489-.0991,2.2351h4.65187a11.39214,11.39214,0,0,0,1.85606-.17442l2.15287,1.04357a10.08376,10.08376,0,0,0-.1733,1.316c-.0991,2.68193-.39591,9.61065-1.46015,12.14363a3.045,3.045,0,0,1-3.19221,1.91273c-1.41035,0-2.8949-.1-4.08264-.19892l-.39592-3.32767a20.42443,20.42443,0,0,0,3.46413.34786,1.31588,1.31588,0,0,0,1.41035-.86915c.71762-1.56487,1.03933-6.53187,1.03933-9.2138H48.3646c-.91583,6.55637-3.26641,10.4553-7.69567,13.60855l-2.8705-2.33407a14.17658,14.17658,0,0,0,7.32465-11.27448H41.85667c-.84162,0-2.20218,0-3.26641.099v-3.2532c1.03934.1,2.32618.17442,3.26641.17442H45.395c.0249-.69571.04979-1.41592.04979-2.16063a18.5289,18.5289,0,0,0-.1733-2.28508h3.63743C48.83466,250.42757,48.78486,251.471,48.76051,252.06679Z" style="fill:none;stroke:#fff;stroke-linecap:round;stroke-linejoin:round;stroke-width:4.132278120969911px"/><path d="M80.93883,254.97213c-.56921,2.434-1.65785,6.283-3.71163,9.03938a19.78873,19.78873,0,0,1-9.94666,6.85425l-2.6972-2.95532a16.44764,16.44764,0,0,0,9.69916-5.83615,15.74765,15.74765,0,0,0,2.8954-7.0032H65.64709c-1.11354,0-2.30128.05-2.94471.1V251.669c.74253.07447,2.15288.19891,2.9696.19891H77.10369a8.24047,8.24047,0,0,0,1.95468-.19891l2.42479,1.56486A10.92477,10.92477,0,0,0,80.93883,254.97213Z" style="fill:none;stroke:#fff;stroke-linecap:round;stroke-linejoin:round;stroke-width:4.132278120969911px"/><path d="M88.9694,256.43705h11.33309a16.80113,16.80113,0,0,0,1.92978-.12347v3.12875c-.61853-.05-1.36105-.099-1.92978-.099H96.071v7.99581h5.39439c.66832,0,1.361-.099,1.88047-.14894v3.2532a13.03263,13.03263,0,0,0-1.88047-.12347H87.78165a14.619,14.619,0,0,0-2.02936.12347v-3.25332a19.05954,19.05954,0,0,0,2.02936.14894h5.04778v-7.99581h-3.86c-.51992,0-1.41036.049-1.95517.099v-3.12875a12.968,12.968,0,0,0,1.95517.12346Z" style="fill:none;stroke:#fff;stroke-linecap:round;stroke-linejoin:round;stroke-width:4.132278120969911px"/><path d="M107.5217,264.90613c0-2.55846,1.60806-4.04787,3.43923-5.21589a8.69742,8.69742,0,0,1-1.16285-3.97341,4.58582,4.58582,0,0,1,4.49626-4.67291q.152-.00276.304.00477c2.623,0,4.25645,1.58937,4.25645,3.99791,0,2.434-1.98006,3.94891-3.93473,5.31486a23.23987,23.23987,0,0,0,3.95914,3.82446,13.88507,13.88507,0,0,0,2.252-4.66912H124.422a19.43706,19.43706,0,0,1-3.09311,6.30748,10.94824,10.94824,0,0,0,3.26641,1.317l-.89092,2.97981a14.6584,14.6584,0,0,1-4.57767-1.93722,8.84263,8.84263,0,0,1-5.617,1.93722c-3.83569,0-5.98807-2.35955-5.98807-5.21492Zm6.43323,2.40855a4.88468,4.88468,0,0,0,2.67279-.91913,25.96741,25.96741,0,0,1-4.13244-4.29579,3.53359,3.53359,0,0,0-1.50946,2.583,2.68149,2.68149,0,0,0,2.7152,2.64776q.12732-.00185.254-.0158Zm-.47011-9.13933c1.43525-.86915,2.54878-1.7628,2.54878-3.10426,0-.91814-.42081-1.58936-1.361-1.58936-1.08864,0-1.85563.87013-1.85563,2.2351A5.74809,5.74809,0,0,0,113.48482,258.17535Z" style="fill:none;stroke:#fff;stroke-linecap:round;stroke-linejoin:round;stroke-width:4.132278120969911px"/><path d="M148.14462,265.27849a44.604,44.604,0,0,1-4.60256,2.68193,21.39572,21.39572,0,0,0,5.741,1.39044,11.58287,11.58287,0,0,0-1.757,2.583c-5.39439-.89365-8.95761-3.12875-11.13489-7.02769h-2.8456v3.65l5.24549-.44682.04979,2.60745c-3.66232.37236-7.54726.72022-10.39286.96812l-.39591-2.70642c.76693-.05,1.633-.12444,2.57368-.19892V256.83488c-.866.47132-1.78186.91912-2.67278,1.316a12.39745,12.39745,0,0,0-1.70717-2.434,25.493,25.493,0,0,0,10.02136-7.05218h2.9447a25.022,25.022,0,0,0,10.56617,6.77978,13.99863,13.99863,0,0,0-1.85606,2.63195c-.866-.37235-1.757-.81918-2.6474-1.29148v7.27658c.27191-.17344.51942-.37235.742-.54677Zm-4.94868-9.73509a25.57193,25.57193,0,0,1-5.32019-4.29579,25.07359,25.07359,0,0,1-5.122,4.29579h3.66184v-1.91175h3.0189v1.91175ZM133.5456,259.12H142.305v-1.29148H133.5456Zm0,3.47661H142.305v-1.36595H133.5456Zm5.81471,2.30957a9.00563,9.00563,0,0,0,1.78185,1.71283c.91534-.4968,1.95468-1.09256,2.89491-1.71283Z" style="fill:none;stroke:#fff;stroke-linecap:round;stroke-linejoin:round;stroke-width:4.132278120969911px"/><path d="M161.77753,263.66365c-.495-.79468-1.28684-1.91174-2.10308-2.97981v11.22549h-2.96911v-9.61065a22.0633,22.0633,0,0,1-3.0189,5.56277,14.45671,14.45671,0,0,0-1.50946-2.95532,22.683,22.683,0,0,0,4.15734-8.24567h-3.43971v-2.80539h3.81073v-5.11595h2.96911v5.11595H162.792v2.80539h-3.11752v.67121c.98954.81918,3.26593,3.20323,3.81025,3.82447Zm13.78279-7.00319h-2.35108V268.2828c0,1.7138-.371,2.484-1.38545,2.95531-.99.4968-2.57369.57127-4.70166.57127a11.37763,11.37763,0,0,0-.98955-2.97981c1.36105.05,2.89491.05,3.31572.05.44522-.02547.61853-.14894.61853-.59674v-7.549a28.85054,28.85054,0,0,1-6.58213,7.52449,11.56324,11.56324,0,0,0-2.128-2.434,23.85621,23.85621,0,0,0,7.81918-9.16382h-5.6912v-2.80539h6.58213v-5.066h3.14241v5.066h2.35108Z" style="fill:none;stroke:#fff;stroke-linecap:round;stroke-linejoin:round;stroke-width:4.132278120969911px"/><path d="M184.03414,262.69553v5.78618c0,1.36595-.22261,2.08616-.96513,2.533a6.08683,6.08683,0,0,1-3.41433.57127,9.73118,9.73118,0,0,0-.76742-2.70643c.91583.0245,1.757.0245,2.05378,0,.2973,0,.42081-.1.42081-.42233v-4.967c-.81673.22341-1.55876.44683-2.27639.64574l-.66831-2.85635c.84162-.17343,1.83116-.44682,2.9447-.72021v-4.39475h-2.6723v-2.7319h2.6723v-4.69362h2.67229v4.69362h2.47459v2.7319h-2.47459v3.67454l2.22708-.59576.39592,2.65743ZM195.293,268.954c.56922.049,1.11354.07447,1.73206.07447.84162,0,3.90983,0,4.97358-.02547a8.75407,8.75407,0,0,0-.79183,2.583h-4.30526c-3.24151,0-5.741-.59577-7.42326-3.60106a10.92683,10.92683,0,0,1-2.57369,3.89894,16.95367,16.95367,0,0,0-2.17728-1.7628c2.05377-1.63934,3.06821-4.39574,3.43923-7.77338l2.67229.32336a22.52433,22.52433,0,0,1-.47011,2.50751,5.57448,5.57448,0,0,0,2.15287,2.90632V261.603h-5.8152v-2.384h14.62441v2.384h-6.03769v2.18513h4.72607v2.30958h-4.72607Zm4.80027-10.87763H187.89467V249.5093h12.19864Zm-2.8207-6.48189h-6.68123V252.837h6.68123Zm0,3.12973h-6.68123v1.266h6.68123Z" style="fill:none;stroke:#fff;stroke-linecap:round;stroke-linejoin:round;stroke-width:4.132278120969911px"/><path d="M212.51163,249.65825a45.63133,45.63133,0,0,1-2.35107,5.16494v17.08614h-2.89491V259.31789c-.51942.67121-1.03933,1.267-1.55876,1.83825a17.324,17.324,0,0,0-1.58365-3.07976,25.97825,25.97825,0,0,0,5.64141-9.28729Zm5.76541,16.43942a22.89381,22.89381,0,0,1-4.92427,5.76168,16.42891,16.42891,0,0,0-2.30128-1.86275,15.41242,15.41242,0,0,0,4.47905-4.74359Zm9.32863-4.74359v2.88084H211.5465v-2.88084h3.31572v-4.94153H212.165v-2.83087h2.69719V248.938h2.8705v4.64365h3.58763v-4.66912h2.8705v4.66912H227.408v2.83087h-3.21711v4.94153Zm-9.873,0h3.58763v-4.94153h-3.58763Zm5.54279,3.87443a30.74028,30.74028,0,0,1,4.20665,5.11595l-2.47458,1.56487a28.37878,28.37878,0,0,0-4.08265-5.38934Z" style="fill:none;stroke:#fff;stroke-linecap:round;stroke-linejoin:round;stroke-width:4.132278120969911px"/><path d="M48.76051,252.06679c-.02489.77018-.04979,1.51489-.0991,2.2351h4.65187a11.39214,11.39214,0,0,0,1.85606-.17442l2.15287,1.04357a10.08376,10.08376,0,0,0-.1733,1.316c-.0991,2.68193-.39591,9.61065-1.46015,12.14363a3.045,3.045,0,0,1-3.19221,1.91273c-1.41035,0-2.8949-.1-4.08264-.19892l-.39592-3.32767a20.42443,20.42443,0,0,0,3.46413.34786,1.31588,1.31588,0,0,0,1.41035-.86915c.71762-1.56487,1.03933-6.53187,1.03933-9.2138H48.3646c-.91583,6.55637-3.26641,10.4553-7.69567,13.60855l-2.8705-2.33407a14.17658,14.17658,0,0,0,7.32465-11.27448H41.85667c-.84162,0-2.20218,0-3.26641.099v-3.2532c1.03934.1,2.32618.17442,3.26641.17442H45.395c.0249-.69571.04979-1.41592.04979-2.16063a18.5289,18.5289,0,0,0-.1733-2.28508h3.63743C48.83466,250.42757,48.78486,251.471,48.76051,252.06679Z" style="fill:#c56c94"/><path d="M80.93883,254.97213c-.56921,2.434-1.65785,6.283-3.71163,9.03938a19.78873,19.78873,0,0,1-9.94666,6.85425l-2.6972-2.95532a16.44764,16.44764,0,0,0,9.69916-5.83615,15.74765,15.74765,0,0,0,2.8954-7.0032H65.64709c-1.11354,0-2.30128.05-2.94471.1V251.669c.74253.07447,2.15288.19891,2.9696.19891H77.10369a8.24047,8.24047,0,0,0,1.95468-.19891l2.42479,1.56486A10.92477,10.92477,0,0,0,80.93883,254.97213Z" style="fill:#c56c94"/><path d="M88.9694,256.43705h11.33309a16.80113,16.80113,0,0,0,1.92978-.12347v3.12875c-.61853-.05-1.36105-.099-1.92978-.099H96.071v7.99581h5.39439c.66832,0,1.361-.099,1.88047-.14894v3.2532a13.03263,13.03263,0,0,0-1.88047-.12347H87.78165a14.619,14.619,0,0,0-2.02936.12347v-3.25332a19.05954,19.05954,0,0,0,2.02936.14894h5.04778v-7.99581h-3.86c-.51992,0-1.41036.049-1.95517.099v-3.12875a12.968,12.968,0,0,0,1.95517.12346Z" style="fill:#c56c94"/><path d="M107.5217,264.90613c0-2.55846,1.60806-4.04787,3.43923-5.21589a8.69742,8.69742,0,0,1-1.16285-3.97341,4.58582,4.58582,0,0,1,4.49626-4.67291q.152-.00276.304.00477c2.623,0,4.25645,1.58937,4.25645,3.99791,0,2.434-1.98006,3.94891-3.93473,5.31486a23.23987,23.23987,0,0,0,3.95914,3.82446,13.88507,13.88507,0,0,0,2.252-4.66912H124.422a19.43706,19.43706,0,0,1-3.09311,6.30748,10.94824,10.94824,0,0,0,3.26641,1.317l-.89092,2.97981a14.6584,14.6584,0,0,1-4.57767-1.93722,8.84263,8.84263,0,0,1-5.617,1.93722c-3.83569,0-5.98807-2.35955-5.98807-5.21492Zm6.43323,2.40855a4.88468,4.88468,0,0,0,2.67279-.91913,25.96741,25.96741,0,0,1-4.13244-4.29579,3.53359,3.53359,0,0,0-1.50946,2.583,2.68149,2.68149,0,0,0,2.7152,2.64776q.12732-.00185.254-.0158Zm-.47011-9.13933c1.43525-.86915,2.54878-1.7628,2.54878-3.10426,0-.91814-.42081-1.58936-1.361-1.58936-1.08864,0-1.85563.87013-1.85563,2.2351A5.74809,5.74809,0,0,0,113.48482,258.17535Z" style="fill:#c56c94"/><path d="M148.14462,265.27849a44.604,44.604,0,0,1-4.60256,2.68193,21.39572,21.39572,0,0,0,5.741,1.39044,11.58287,11.58287,0,0,0-1.757,2.583c-5.39439-.89365-8.95761-3.12875-11.13489-7.02769h-2.8456v3.65l5.24549-.44682.04979,2.60745c-3.66232.37236-7.54726.72022-10.39286.96812l-.39591-2.70642c.76693-.05,1.633-.12444,2.57368-.19892V256.83488c-.866.47132-1.78186.91912-2.67278,1.316a12.39745,12.39745,0,0,0-1.70717-2.434,25.493,25.493,0,0,0,10.02136-7.05218h2.9447a25.022,25.022,0,0,0,10.56617,6.77978,13.99863,13.99863,0,0,0-1.85606,2.63195c-.866-.37235-1.757-.81918-2.6474-1.29148v7.27658c.27191-.17344.51942-.37235.742-.54677Zm-4.94868-9.73509a25.57193,25.57193,0,0,1-5.32019-4.29579,25.07359,25.07359,0,0,1-5.122,4.29579h3.66184v-1.91175h3.0189v1.91175ZM133.5456,259.12H142.305v-1.29148H133.5456Zm0,3.47661H142.305v-1.36595H133.5456Zm5.81471,2.30957a9.00563,9.00563,0,0,0,1.78185,1.71283c.91534-.4968,1.95468-1.09256,2.89491-1.71283Z" style="fill:#c56c94"/><path d="M161.77753,263.66365c-.495-.79468-1.28684-1.91174-2.10308-2.97981v11.22549h-2.96911v-9.61065a22.0633,22.0633,0,0,1-3.0189,5.56277,14.45671,14.45671,0,0,0-1.50946-2.95532,22.683,22.683,0,0,0,4.15734-8.24567h-3.43971v-2.80539h3.81073v-5.11595h2.96911v5.11595H162.792v2.80539h-3.11752v.67121c.98954.81918,3.26593,3.20323,3.81025,3.82447Zm13.78279-7.00319h-2.35108V268.2828c0,1.7138-.371,2.484-1.38545,2.95531-.99.4968-2.57369.57127-4.70166.57127a11.37763,11.37763,0,0,0-.98955-2.97981c1.36105.05,2.89491.05,3.31572.05.44522-.02547.61853-.14894.61853-.59674v-7.549a28.85054,28.85054,0,0,1-6.58213,7.52449,11.56324,11.56324,0,0,0-2.128-2.434,23.85621,23.85621,0,0,0,7.81918-9.16382h-5.6912v-2.80539h6.58213v-5.066h3.14241v5.066h2.35108Z" style="fill:#c56c94"/><path d="M184.03414,262.69553v5.78618c0,1.36595-.22261,2.08616-.96513,2.533a6.08683,6.08683,0,0,1-3.41433.57127,9.73118,9.73118,0,0,0-.76742-2.70643c.91583.0245,1.757.0245,2.05378,0,.2973,0,.42081-.1.42081-.42233v-4.967c-.81673.22341-1.55876.44683-2.27639.64574l-.66831-2.85635c.84162-.17343,1.83116-.44682,2.9447-.72021v-4.39475h-2.6723v-2.7319h2.6723v-4.69362h2.67229v4.69362h2.47459v2.7319h-2.47459v3.67454l2.22708-.59576.39592,2.65743ZM195.293,268.954c.56922.049,1.11354.07447,1.73206.07447.84162,0,3.90983,0,4.97358-.02547a8.75407,8.75407,0,0,0-.79183,2.583h-4.30526c-3.24151,0-5.741-.59577-7.42326-3.60106a10.92683,10.92683,0,0,1-2.57369,3.89894,16.95367,16.95367,0,0,0-2.17728-1.7628c2.05377-1.63934,3.06821-4.39574,3.43923-7.77338l2.67229.32336a22.52433,22.52433,0,0,1-.47011,2.50751,5.57448,5.57448,0,0,0,2.15287,2.90632V261.603h-5.8152v-2.384h14.62441v2.384h-6.03769v2.18513h4.72607v2.30958h-4.72607Zm4.80027-10.87763H187.89467V249.5093h12.19864Zm-2.8207-6.48189h-6.68123V252.837h6.68123Zm0,3.12973h-6.68123v1.266h6.68123Z" style="fill:#c56c94"/><path d="M212.51163,249.65825a45.63133,45.63133,0,0,1-2.35107,5.16494v17.08614h-2.89491V259.31789c-.51942.67121-1.03933,1.267-1.55876,1.83825a17.324,17.324,0,0,0-1.58365-3.07976,25.97825,25.97825,0,0,0,5.64141-9.28729Zm5.76541,16.43942a22.89381,22.89381,0,0,1-4.92427,5.76168,16.42891,16.42891,0,0,0-2.30128-1.86275,15.41242,15.41242,0,0,0,4.47905-4.74359Zm9.32863-4.74359v2.88084H211.5465v-2.88084h3.31572v-4.94153H212.165v-2.83087h2.69719V248.938h2.8705v4.64365h3.58763v-4.66912h2.8705v4.66912H227.408v2.83087h-3.21711v4.94153Zm-9.873,0h3.58763v-4.94153h-3.58763Zm5.54279,3.87443a30.74028,30.74028,0,0,1,4.20665,5.11595l-2.47458,1.56487a28.37878,28.37878,0,0,0-4.08265-5.38934Z" style="fill:#c56c94"/><ellipse cx="127.25575" cy="95.22595" rx="82.49315" ry="82.79816" style="fill:#c56c94"/><ellipse cx="196.27221" cy="31.60852" rx="30.12253" ry="30.23109" style="fill:#fff"/><ellipse cx="196.27221" cy="31.60852" rx="30.12253" ry="30.23109" style="fill:none;stroke:#cb6f98;stroke-miterlimit:10;stroke-width:2.754852080646607px"/><path d="M207.88466,36.73065a54.49294,54.49294,0,0,1-5.62725,3.27867,26.15449,26.15449,0,0,0,7.01857,1.70009,14.18211,14.18211,0,0,0-2.148,3.15815c-6.59483-1.09355-10.95086-3.82545-13.61339-8.59256h-3.47877v4.46335l6.41322-.54677.06053,3.18754c-4.4771.45565-9.2266.88091-12.70586,1.18468l-.48378-3.31c.93779-.05978,1.99665-.15091,3.14632-.242V26.40763c-1.05887.57714-2.17826,1.12392-3.26739,1.609a15.09078,15.09078,0,0,0-2.08746-2.97491c4.96137-1.97348,9.86221-5.49516,12.25234-8.62294h3.59984a30.57291,30.57291,0,0,0,12.91724,8.2888,17.14624,17.14624,0,0,0-2.26857,3.21786c-1.05886-.45467-2.148-1.00138-3.23712-1.57859v8.89632c.33294-.21263.63512-.45564.90753-.66828ZM201.83416,24.829a31.27782,31.27782,0,0,1-6.50451-5.25215,30.61055,30.61055,0,0,1-6.26188,5.25215h4.4771v-2.338H197.236v2.338Zm-11.79833,4.37222H200.745V27.62268h-10.7092Zm0,4.25071H200.745V31.78134h-10.7092Zm7.10936,2.823A11.02353,11.02353,0,0,0,199.323,38.37c1.1194-.60752,2.39013-1.33557,3.5398-2.095Z" style="fill:#c56c94"/><path d="M141.95254,68.564a17.45215,17.45215,0,0,0-4.48893-10.37073A24.81566,24.81566,0,0,0,123.10477,50.345a26.81949,26.81949,0,0,0-4.39277-.42245,23.4002,23.4002,0,0,1-9.08734-2.04477,29.39844,29.39844,0,0,0-16.53027-1.8399C81.356,48.03575,72.5801,56.32191,71.281,65.71019c-.01587.04513-.03277.0869-.04864.133a2.20454,2.20454,0,0,0-.10892.492c-.04229.41608-1.00565,10.26135,1.96315,16.72886,2.16514,4.71676,9.0926,12.626,21.39412,12.62561.12107,0,.24373-.00055.36644-.00214a40.06428,40.06428,0,0,0,9.67-1.39572,28.95414,28.95414,0,0,1,9.5341-1.09483c13.76191.856,21.67482-1.62286,25.65886-8.04045,2.576-4.14954,2.8113-13.29953,2.24233-16.59247ZM136.034,82.85757c-3.03868,4.89664-9.73235,6.74554-21.714,6.00047A33.19987,33.19987,0,0,0,103.51,90.06323a35.93694,35.93694,0,0,1-8.71774,1.27684c-10.20351.16-16.00736-6.39585-17.70988-9.9732a22.46936,22.46936,0,0,0,4.33772,3.12838A27.52919,27.52919,0,0,0,94.814,87.83437a31.53733,31.53733,0,0,0,10.35472-1.76084,15.70258,15.70258,0,0,1,9.28878-.31472c.72861.19518,1.47992.36353,2.23282.49882A24.76321,24.76321,0,0,0,132.87166,83.904a19.37988,19.37988,0,0,0,3.91838-2.823,7.82783,7.82783,0,0,1-.75607,1.77646Zm1.44453-11.3928a12.41183,12.41183,0,0,1-6.67208,8.61833,20.43415,20.43415,0,0,1-13.35209,1.89509c-.63445-.11409-1.26634-.25526-1.87913-.41927a19.989,19.989,0,0,0-11.83568.41021,26.93049,26.93049,0,0,1-4.38318,1.13035,24.26521,24.26521,0,0,1-15.83552-2.4056c-4.36628-2.43108-7.16911-6.12957-7.89344-10.41477-1.52648-9.036,6.634-17.98818,18.19159-19.95547a26.77716,26.77716,0,0,1,4.49-.38062,24.0451,24.0451,0,0,1,9.587,1.92,27.68771,27.68771,0,0,0,10.76077,2.40683,22.42854,22.42854,0,0,1,3.68368.35447,20.47514,20.47514,0,0,1,11.86424,6.43247,12.45,12.45,0,0,1,3.27386,10.40784Z" style="fill:#fff"/><path d="M182.69128,114.88992c-2.70427-.74471-8.96945.653-12.47361,2.50665a42.00351,42.00351,0,0,0-9.30336-9.24944,1.69571,1.69571,0,0,0-.13633-.71715,37.77352,37.77352,0,0,1-1.81578-5.53355c-.73484-2.7515-1.37106-5.12826-3.56079-5.94732-.76839-.28728-4.996-1.2859-16.619,4.93375-14.06617.6967-29.93788,11.03913-31.30087,25.22079a12.03494,12.03494,0,0,0,3.22668,9.11214c4.3171,5.06817,12.362,8.75545,20.02435,10.63719,1.7389,2.60145,4.03164,5.36618,5.95885,5.43441l.0476.0011c1.32858,0,2.80215-1.94776,3.82122-4.0409.165.0027.33038.01494.49538.01494a34.06186,34.06186,0,0,0,10.7291-1.8151c.94585.90578,3.49146,3.089,6.06222,3.089a4.02089,4.02089,0,0,0,2.26064-.67465c1.95284-1.28928,4.175-4.5312,4.81138-9.64923a39.25972,39.25972,0,0,0,4.19786-3.913c3.83624,2.09522,9.3888,4.74555,11.83849,4.042,4.02211-1.14561,5.8645-9.48511,5.84351-14.76053-.01977-4.87893-1.47931-7.96518-4.10742-8.691Zm-2.72416,19.71773c-1.1133.13106-5.94762-1.9469-10.31952-4.43579a1.91944,1.91944,0,0,0-2.42662.43923c-5.42038,6.487-16.17145,13.141-27.144,12.74883-.20016-.0071-.39958.00074-.59961-.01127a44.82463,44.82463,0,0,1-7.99444-1.28915c-6.98634-1.74-14.19017-5.06413-17.84712-9.357a11.40122,11.40122,0,0,1-1.41542-2.06889,10.46057,10.46057,0,0,0,2.71678.36353,8.98082,8.98082,0,0,0,2.68109-.37211,1.13678,1.13678,0,0,0-.72587-2.1545,7.93693,7.93693,0,0,1-5.55591-.58842,6.712,6.712,0,0,1-.01983-1.40674c1.00028-10.41794,13.56023-21.77957,28.65866-21.77957.58264,0,1.17176.01818,1.76172.05279l.03869.00116a28.02545,28.02545,0,0,1,6.87736,1.3289,37.65562,37.65562,0,0,1,19.40893,15.0249,1.92217,1.92217,0,0,0,3.02416.30977c1.33-1.396,8.65177-3.33122,10.58264-2.79486.27533.07619.81087.82334,1.0923,2.56789l-5.48409.20137a1.10747,1.10747,0,0,0,.03881,2.214l.04089-.00062,5.58233-.205a23.12809,23.12809,0,0,1-.09971,2.56826l-5.83118-.524a1.10721,1.10721,0,0,0-.197,2.20559l5.72195.51444a25.06842,25.06842,0,0,1-.63195,2.66073l-5.26929-1.65415a1.107,1.107,0,0,0-.66588,2.11151l.00647.002,5.17312,1.624a3.51869,3.51869,0,0,1-1.17859,1.70327Zm-21.35361,10.9739c-.96476.63509-2.63446-.25048-3.9191-1.23085a42.63053,42.63053,0,0,0,6.95754-3.74632A9.36737,9.36737,0,0,1,158.61351,145.58155Zm-23.88042,1.09636c.971.161,1.92612.29666,2.84939.39134a8.13959,8.13959,0,0,1-1.02408,1.39878A7.79667,7.79667,0,0,1,134.73309,146.67791Zm20.946-43.89745c.19942.74581.42788,1.58281.69821,2.47058a35.77529,35.77529,0,0,0-10.68674-3.89049c3.85735-1.66763,7.25276-2.69362,8.5235-2.21458.54883.20491,1.01468,1.94855,1.465,3.63443Z" style="fill:#fff"/><path d="M122.13573,119.14137a2.66026,2.66026,0,1,0,2.65033,2.66061v-.00036A2.65541,2.65541,0,0,0,122.13573,119.14137Z" style="fill:#fff"/><path d="M145.51467,125.17252a2.7037,2.7037,0,0,0-.61706-.79652c-1.67019-1.49382-5.24366-1.26171-8.27563-1.02311a17.61631,17.61631,0,0,0-4.75829-11.63814,1.10525,1.10525,0,1,0-1.63552,1.48708,14.46291,14.46291,0,0,1-1.28355,21.55966A1.10554,1.10554,0,0,0,130.392,136.433a19.1363,19.1363,0,0,0,4.04787-4.92242c.21809.16131.43546.32017.65477.4843,1.952,1.46223,3.95572,2.96316,5.89551,2.96316a3.51,3.51,0,0,0,1.59561-.37873,4.8819,4.8819,0,0,0,1.64-1.46185,9.15836,9.15836,0,0,0,1.33774-2.63183,7.13123,7.13123,0,0,0-.0487-5.31315Zm-3.91606,7.42552c-1.20165.60752-3.3184-.98012-5.184-2.3778q-.49227-.36855-.97783-.72254c.11814-.28869.21541-.58266.31647-.87613l4.13024,1.145a1.10688,1.10688,0,0,0,.58643-2.13467h0l-4.136-1.14645c.059-.30034.10679-.60153.14816-.90468.00757-.00061.0144.00331.02209.00257,1.94186-.15261,6.48193-.51259,7.04505.59418a5.13316,5.13316,0,0,1-.083,3.61563,4.95282,4.95282,0,0,1-1.86778,2.80478Z" style="fill:#fff"/><path d="M89.04342,71.77612c-.00452.0136-.00946.02671-.01489.03981l-.0072.032a1.939,1.939,0,0,1-3.70309-1.15123,2.06457,2.06457,0,0,1,2.56862-1.37716,1.91067,1.91067,0,0,1,1.16485,2.43334Zm15.36583-12.64906a1.92817,1.92817,0,0,1-2.1447,1.68667l-.00885-.0011c-4.61086-.57047-10.66844-.148-13.348,5.12819a1.93254,1.93254,0,1,1-3.44533-1.75171l.00458-.00894c2.88233-5.67754,9.01253-8.24152,17.2629-7.2146a1.9363,1.9363,0,0,1,1.67958,2.16063l-.00012.00092Z" style="fill:#fff"/><path d="M127.292,60.91815c-6.96706-4.38263-9.27151-3.03156-8.23584,1.73579.62182,2.86064-1.91586,5.25166,3.94718,7.40954,4.38532,1.6138,7.11034,7.817,9.25223,2.054,1.56364-4.20631-1.26524-8.873-4.96357-11.19934Z" style="fill:#fff"/><path d="M118.836,72.32259c-5.07585-.224-4.66834,4.18175-1.41487,5.38854s7.79917.70532,8.20436-1.05809C126.05008,74.80719,121.97353,72.46118,118.836,72.32259Z" style="fill:#fff"/><path d="M118.29705,172.19971l13.32219,20.23449,14.445-21.36233" style="fill:#c56c94"/></svg>