<svg id="b418bb70-fc28-4a23-9d79-cec442ce688d" data-name="ab4ef110-123d-46ad-a3d5-4c8748bd541d" xmlns="http://www.w3.org/2000/svg" viewBox="0 0 498.00015 168"><path d="M442.06479,51.4224h3.66794V69.93584h-3.66794Z" style="fill:#fff"/><path d="M449.99722,51.4224h3.74228l5.329,9.8689,1.8342,3.99748h.12372c-.1731-1.92331-.47089-4.37205-.47089-6.47083V51.42243h3.46988V69.93587h-3.71731l-5.3046-9.89355-1.85867-3.9728h-.12421c.17358,1.99921.44644,4.32276.44644,6.44619v7.42016h-3.46991Z" style="fill:#fff"/><path d="M471.83521,51.4224h4.31292l5.89875,18.51344h-3.84159l-1.289-4.74666h-5.94861l-1.289,4.74666h-3.71783Zm-.07435,10.89316h4.36231l-.54523-2.02386c-.57016-1.92331-1.066-4.04674-1.5863-6.04595h-.12372c-.47141,2.02386-1.0166,4.12267-1.56183,6.04595Z" style="fill:#fff"/><path d="M217.74507,40.82474H477.91275A20.168,20.168,0,0,1,498,61.07261v.00191a20.168,20.168,0,0,1-20.08725,20.24787H217.74507a20.168,20.168,0,0,1-20.08723-20.24787v-.00191A20.168,20.168,0,0,1,217.74507,40.82474Z" style="fill:#5e71a8"/><path d="M210.46384,99.54551H221.7415c.74327,0,1.68507-.02465,2.156-.05028-.02445.40024-.02445,1.32492-.02445,2.02386v15.09072c0,.52445.02445,1.39886.02445,1.874H220.477c0-.29969,0-.7502.02493-1.22438h-11.575c-.89242,0-2.00781.05028-2.52811.07493V114.0112c.49584.05028,1.43764.10056,2.553.10056h11.55V109.7141h-9.66641c-1.1648,0-2.60243.02465-3.29631.02465v-3.198c.81759.07492,2.13151.12516,3.27138.12516h9.69136v-4.07236h-10.038c-1.14033,0-2.97453.05027-3.74277.07492V99.42025C207.53915,99.49523,209.3235,99.54551,210.46384,99.54551Z" style="fill:none;stroke:#fff;stroke-linecap:round;stroke-linejoin:round;stroke-width:6.9136881828308105px"/><path d="M236.27,109.73874l-3.02394,1.14945a50.70345,50.70345,0,0,0-2.25572-5.77091l2.97453-1.07453C234.58441,105.3174,235.77412,108.33988,236.27,109.73874Zm11.996-3.37244a20.2137,20.2137,0,0,1-3.37064,7.32067,19.369,19.369,0,0,1-8.30312,6.1958l-2.6029-2.67351a16.66,16.66,0,0,0,8.22926-5.22181,17.17725,17.17725,0,0,0,3.17259-8.56962l3.4699,1.12481c-.29743.79946-.44609,1.32392-.59523,1.82371Zm-6.51834,1.8237-2.97454,1.04985a41.76754,41.76754,0,0,0-2.00781-5.54712l2.94962-.974C240.18584,103.79334,241.4005,107.04059,241.74767,108.19Z" style="fill:none;stroke:#fff;stroke-linecap:round;stroke-linejoin:round;stroke-width:6.9136881828308105px"/><path d="M257.16858,100.79452a17.4721,17.4721,0,0,0-.24793-2.99784h3.86646a27.34918,27.34918,0,0,0-.223,2.99784v3.69776a80.54067,80.54067,0,0,1,10.36029,3.87323l-1.41269,3.44734a71.11194,71.11194,0,0,0-8.9476-3.72241v7.0702c0,.72457.12372,2.47339.223,3.49764h-3.86646a27.66471,27.66471,0,0,0,.24793-3.49764Z" style="fill:none;stroke:#fff;stroke-linecap:round;stroke-linejoin:round;stroke-width:6.9136881828308105px"/><path d="M298.09241,116.18493v2.74842H275.76108v-2.74842h9.69085V114.1867h-7.18771v-2.69914h7.18771v-1.57335h-1.85916v-4.797h-2.28018a7.62143,7.62143,0,0,1-3.89093,5.47122,12.71589,12.71589,0,0,0-1.93347-2.07315,5.50749,5.50749,0,0,0,3.02393-3.39807H276.009V102.494h2.80048V99.87082h-1.95792V97.27224h11.25223v2.59858h-1.7594v2.62323H288.674v2.62323h-2.32956v4.37205H288.476v1.99823h7.16278v2.69914H288.476v1.99823Zm-14.49964-13.69088V99.87082h-2.08212v2.62323Zm8.82389,3.77268H289.715v-8.4454h2.70169Zm4.61023,1.07354c0,1.37422-.24793,2.07414-1.18973,2.499a10.14486,10.14486,0,0,1-3.89142.47418,11.24055,11.24055,0,0,0-.86746-2.62323c1.11538.05027,2.30511.05027,2.67676.02563.34719-.02563.47088-.10056.47088-.42489V96.67287h2.801Z" style="fill:none;stroke:#fff;stroke-linecap:round;stroke-linejoin:round;stroke-width:6.9136881828308105px"/><path d="M322.26239,100.52047l-1.83423.77386,2.10657,1.29929a10.0511,10.0511,0,0,0-.8176,1.79909,25.44048,25.44048,0,0,1-4.33786,8.31922,23.07863,23.07863,0,0,1-9.98868,7.07119l-2.92468-2.64883a19.80332,19.80332,0,0,0,9.98868-6.19579,17.72408,17.72408,0,0,0,3.51978-6.79615h-6.96473a27.94581,27.94581,0,0,1-6.27084,6.04693l-2.776-2.09878a21.528,21.528,0,0,0,7.73294-8.04516,11.32368,11.32368,0,0,0,1.11539-2.59858l3.64349,1.19972a26.00678,26.00678,0,0,0-1.512,2.54831c-.02445.05028-.04938.07492-.07434.12517h4.95742a7.72763,7.72763,0,0,0,2.15647-.30067l.17309.10055a29.02973,29.02973,0,0,0-1.80926-3.22358l1.95843-.7995A31.84469,31.84469,0,0,1,322.26239,100.52047Zm2.97406-1.14945-1.95792.84878a26.48664,26.48664,0,0,0-2.00781-3.44735l1.95844-.79947a35.72683,35.72683,0,0,1,2.00729,3.398Z" style="fill:none;stroke:#fff;stroke-linecap:round;stroke-linejoin:round;stroke-width:6.9136881828308105px"/><path d="M346.72964,106.69063a18.002,18.002,0,0,1-3.66793,6.92134,18.537,18.537,0,0,1-8.84882,5.3963l-2.45377-2.82334a16.67191,16.67191,0,0,0,8.576-4.372,10.854,10.854,0,0,0,2.553-4.32276H330.9166c-.5951,0-1.8342.02562-2.87528.12516V104.3671c1.04108.07592,2.10657.15084,2.87528.15084h12.26882a5.18715,5.18715,0,0,0,1.80927-.25033l2.20633,1.37421A9.32464,9.32464,0,0,0,346.72964,106.69063Zm-13.8302-8.16938h9.5427a23.05158,23.05158,0,0,0,2.67676-.12516v3.22358c-.66944-.05027-1.8342-.07492-2.72663-.07492h-9.49283c-.79315,0-1.85916.02465-2.578.07492V98.39609A20.61408,20.61408,0,0,0,332.89944,98.52125Z" style="fill:none;stroke:#fff;stroke-linecap:round;stroke-linejoin:round;stroke-width:6.9136881828308105px"/><path d="M361.90359,111.93807a23.45229,23.45229,0,0,0,9.022-9.71906l1.933,3.52229a27.20451,27.20451,0,0,1-18.3656,12.76717L352.4108,115.211A25.41857,25.41857,0,0,0,361.90359,111.93807Zm0-8.0698-2.52807,2.59759a51.74157,51.74157,0,0,0-6.19653-5.3963l2.33-2.498A50.1277,50.1277,0,0,1,361.90359,103.86827Z" style="fill:none;stroke:#fff;stroke-linecap:round;stroke-linejoin:round;stroke-width:6.9136881828308105px"/><path d="M395.11945,96.82271a2.99793,2.99793,0,0,1,.00894,5.99566h-.00894a2.83222,2.83222,0,0,1-1.58631-.47416l1.01663,2.42311c-.96673.40024-2.08215.87441-2.9002,1.1741a84.99722,84.99722,0,0,1-9.71582,3.04811V113.612c0,1.07355.49536,1.34859,1.61074,1.57335a22.88858,22.88858,0,0,0,2.87528.14984,41.63532,41.63532,0,0,0,8.62537-.87441v3.64847a70.03231,70.03231,0,0,1-8.82389.52445,27.42852,27.42852,0,0,1-4.16379-.275c-2.15646-.39925-3.39556-1.599-3.39556-3.748v-13.616a20.811,20.811,0,0,0-.19852-2.59858h3.66843a18.95852,18.95852,0,0,0-.198,2.59858v4.722a62.16,62.16,0,0,0,8.57547-2.77307,14.6776,14.6776,0,0,0,2.37945-1.14946,3.05647,3.05647,0,0,1-.71835-1.97358,2.97346,2.97346,0,0,1,2.94852-2.9979Zm0,4.447a1.4494,1.4494,0,1,0-1.41221-1.48568l-.00024.01118-.00024.02536a1.44476,1.44476,0,0,0,1.41269,1.4491Z" style="fill:none;stroke:#fff;stroke-linecap:round;stroke-linejoin:round;stroke-width:6.9136881828308105px"/><path d="M411.50711,111.93807A23.4525,23.4525,0,0,0,420.529,102.219l1.93347,3.52229a27.206,27.206,0,0,1-18.3666,12.76719l-2.08164-3.29753A25.41843,25.41843,0,0,0,411.50711,111.93807Zm0-8.0698-2.52811,2.59759a51.74157,51.74157,0,0,0-6.19653-5.3963l2.33-2.498A50.13159,50.13159,0,0,1,411.50711,103.86827Z" style="fill:none;stroke:#fff;stroke-linecap:round;stroke-linejoin:round;stroke-width:6.9136881828308105px"/><path d="M445.81439,100.52047l-1.8342.77386,2.10657,1.29929a10.05036,10.05036,0,0,0-.81759,1.79909,25.44079,25.44079,0,0,1-4.33787,8.31922,23.0786,23.0786,0,0,1-9.98867,7.07119l-2.92469-2.64883a19.80116,19.80116,0,0,0,9.98868-6.19579,17.72408,17.72408,0,0,0,3.51978-6.79615h-6.96472a27.94586,27.94586,0,0,1-6.27085,6.04693l-2.776-2.09878a21.52894,21.52894,0,0,0,7.73294-8.04516,11.32368,11.32368,0,0,0,1.11539-2.59858l3.64349,1.19972a26.00083,26.00083,0,0,0-1.512,2.54831c-.02445.05028-.04938.07492-.07434.12517h4.95743a7.7303,7.7303,0,0,0,2.15646-.30067l.1731.10055a29.03232,29.03232,0,0,0-1.80927-3.22358l1.95841-.7995A31.949,31.949,0,0,1,445.81439,100.52047Zm2.97406-1.14945-1.95791.84878a26.48851,26.48851,0,0,0-2.00782-3.44735l1.95844-.79947a35.72683,35.72683,0,0,1,2.00729,3.398Z" style="fill:none;stroke:#fff;stroke-linecap:round;stroke-linejoin:round;stroke-width:6.9136881828308105px"/><path d="M210.46384,99.54551H221.7415c.74327,0,1.68507-.02465,2.156-.05028-.02445.40024-.02445,1.32492-.02445,2.02386v15.09072c0,.52445.02445,1.39886.02445,1.874H220.477c0-.29969,0-.7502.02493-1.22438h-11.575c-.89242,0-2.00781.05028-2.52811.07493V114.0112c.49584.05028,1.43764.10056,2.553.10056h11.55V109.7141h-9.66641c-1.1648,0-2.60243.02465-3.29631.02465v-3.198c.81759.07492,2.13151.12516,3.27138.12516h9.69136v-4.07236h-10.038c-1.14033,0-2.97453.05027-3.74277.07492V99.42025C207.53915,99.49523,209.3235,99.54551,210.46384,99.54551Z" style="fill:#5e71a8"/><path d="M236.27,109.73874l-3.02394,1.14945a50.70345,50.70345,0,0,0-2.25572-5.77091l2.97453-1.07453C234.58441,105.3174,235.77412,108.33988,236.27,109.73874Zm11.996-3.37244a20.2137,20.2137,0,0,1-3.37064,7.32067,19.369,19.369,0,0,1-8.30312,6.1958l-2.6029-2.67351a16.66,16.66,0,0,0,8.22926-5.22181,17.17725,17.17725,0,0,0,3.17259-8.56962l3.4699,1.12481c-.29743.79946-.44609,1.32392-.59523,1.82371Zm-6.51834,1.8237-2.97454,1.04985a41.76754,41.76754,0,0,0-2.00781-5.54712l2.94962-.974C240.18584,103.79334,241.4005,107.04059,241.74767,108.19Z" style="fill:#5e71a8"/><path d="M257.16858,100.79452a17.4721,17.4721,0,0,0-.24793-2.99784h3.86646a27.34918,27.34918,0,0,0-.223,2.99784v3.69776a80.54067,80.54067,0,0,1,10.36029,3.87323l-1.41269,3.44734a71.11194,71.11194,0,0,0-8.9476-3.72241v7.0702c0,.72457.12372,2.47339.223,3.49764h-3.86646a27.66471,27.66471,0,0,0,.24793-3.49764Z" style="fill:#5e71a8"/><path d="M298.09241,116.18493v2.74842H275.76108v-2.74842h9.69085V114.1867h-7.18771v-2.69914h7.18771v-1.57335h-1.85916v-4.797h-2.28018a7.62143,7.62143,0,0,1-3.89093,5.47122,12.71589,12.71589,0,0,0-1.93347-2.07315,5.50749,5.50749,0,0,0,3.02393-3.39807H276.009V102.494h2.80048V99.87082h-1.95792V97.27224h11.25223v2.59858h-1.7594v2.62323H288.674v2.62323h-2.32956v4.37205H288.476v1.99823h7.16278v2.69914H288.476v1.99823Zm-14.49964-13.69088V99.87082h-2.08212v2.62323Zm8.82389,3.77268H289.715v-8.4454h2.70169Zm4.61023,1.07354c0,1.37422-.24793,2.07414-1.18973,2.499a10.14486,10.14486,0,0,1-3.89142.47418,11.24055,11.24055,0,0,0-.86746-2.62323c1.11538.05027,2.30511.05027,2.67676.02563.34719-.02563.47088-.10056.47088-.42489V96.67287h2.801Z" style="fill:#5e71a8"/><path d="M322.26239,100.52047l-1.83423.77386,2.10657,1.29929a10.0511,10.0511,0,0,0-.8176,1.79909,25.44048,25.44048,0,0,1-4.33786,8.31922,23.07863,23.07863,0,0,1-9.98868,7.07119l-2.92468-2.64883a19.80332,19.80332,0,0,0,9.98868-6.19579,17.72408,17.72408,0,0,0,3.51978-6.79615h-6.96473a27.94581,27.94581,0,0,1-6.27084,6.04693l-2.776-2.09878a21.528,21.528,0,0,0,7.73294-8.04516,11.32368,11.32368,0,0,0,1.11539-2.59858l3.64349,1.19972a26.00678,26.00678,0,0,0-1.512,2.54831c-.02445.05028-.04938.07492-.07434.12517h4.95742a7.72763,7.72763,0,0,0,2.15647-.30067l.17309.10055a29.02973,29.02973,0,0,0-1.80926-3.22358l1.95843-.7995A31.84469,31.84469,0,0,1,322.26239,100.52047Zm2.97406-1.14945-1.95792.84878a26.48664,26.48664,0,0,0-2.00781-3.44735l1.95844-.79947a35.72683,35.72683,0,0,1,2.00729,3.398Z" style="fill:#5e71a8"/><path d="M346.72964,106.69063a18.002,18.002,0,0,1-3.66793,6.92134,18.537,18.537,0,0,1-8.84882,5.3963l-2.45377-2.82334a16.67191,16.67191,0,0,0,8.576-4.372,10.854,10.854,0,0,0,2.553-4.32276H330.9166c-.5951,0-1.8342.02562-2.87528.12516V104.3671c1.04108.07592,2.10657.15084,2.87528.15084h12.26882a5.18715,5.18715,0,0,0,1.80927-.25033l2.20633,1.37421A9.32464,9.32464,0,0,0,346.72964,106.69063Zm-13.8302-8.16938h9.5427a23.05158,23.05158,0,0,0,2.67676-.12516v3.22358c-.66944-.05027-1.8342-.07492-2.72663-.07492h-9.49283c-.79315,0-1.85916.02465-2.578.07492V98.39609A20.61408,20.61408,0,0,0,332.89944,98.52125Z" style="fill:#5e71a8"/><path d="M361.90359,111.93807a23.45229,23.45229,0,0,0,9.022-9.71906l1.933,3.52229a27.20451,27.20451,0,0,1-18.3656,12.76717L352.4108,115.211A25.41857,25.41857,0,0,0,361.90359,111.93807Zm0-8.0698-2.52807,2.59759a51.74157,51.74157,0,0,0-6.19653-5.3963l2.33-2.498A50.1277,50.1277,0,0,1,361.90359,103.86827Z" style="fill:#5e71a8"/><path d="M395.11945,96.82271a2.99793,2.99793,0,0,1,.00894,5.99566h-.00894a2.83222,2.83222,0,0,1-1.58631-.47416l1.01663,2.42311c-.96673.40024-2.08215.87441-2.9002,1.1741a84.99722,84.99722,0,0,1-9.71582,3.04811V113.612c0,1.07355.49536,1.34859,1.61074,1.57335a22.88858,22.88858,0,0,0,2.87528.14984,41.63532,41.63532,0,0,0,8.62537-.87441v3.64847a70.03231,70.03231,0,0,1-8.82389.52445,27.42852,27.42852,0,0,1-4.16379-.275c-2.15646-.39925-3.39556-1.599-3.39556-3.748v-13.616a20.811,20.811,0,0,0-.19852-2.59858h3.66843a18.95852,18.95852,0,0,0-.198,2.59858v4.722a62.16,62.16,0,0,0,8.57547-2.77307,14.6776,14.6776,0,0,0,2.37945-1.14946,3.05647,3.05647,0,0,1-.71835-1.97358,2.97346,2.97346,0,0,1,2.94852-2.9979Zm0,4.447a1.4494,1.4494,0,1,0-1.41221-1.48568l-.00024.01118-.00024.02536a1.44476,1.44476,0,0,0,1.41269,1.4491Z" style="fill:#5e71a8"/><path d="M411.50711,111.93807A23.4525,23.4525,0,0,0,420.529,102.219l1.93347,3.52229a27.206,27.206,0,0,1-18.3666,12.76719l-2.08164-3.29753A25.41843,25.41843,0,0,0,411.50711,111.93807Zm0-8.0698-2.52811,2.59759a51.74157,51.74157,0,0,0-6.19653-5.3963l2.33-2.498A50.13159,50.13159,0,0,1,411.50711,103.86827Z" style="fill:#5e71a8"/><path d="M445.81439,100.52047l-1.8342.77386,2.10657,1.29929a10.05036,10.05036,0,0,0-.81759,1.79909,25.44079,25.44079,0,0,1-4.33787,8.31922,23.0786,23.0786,0,0,1-9.98867,7.07119l-2.92469-2.64883a19.80116,19.80116,0,0,0,9.98868-6.19579,17.72408,17.72408,0,0,0,3.51978-6.79615h-6.96472a27.94586,27.94586,0,0,1-6.27085,6.04693l-2.776-2.09878a21.52894,21.52894,0,0,0,7.73294-8.04516,11.32368,11.32368,0,0,0,1.11539-2.59858l3.64349,1.19972a26.00083,26.00083,0,0,0-1.512,2.54831c-.02445.05028-.04938.07492-.07434.12517h4.95743a7.7303,7.7303,0,0,0,2.15646-.30067l.1731.10055a29.03232,29.03232,0,0,0-1.80927-3.22358l1.95841-.7995A31.949,31.949,0,0,1,445.81439,100.52047Zm2.97406-1.14945-1.95791.84878a26.48851,26.48851,0,0,0-2.00782-3.44735l1.95844-.79947a35.72683,35.72683,0,0,1,2.00729,3.398Z" style="fill:#5e71a8"/><path d="M165.72693,161.01353l.11166.11377c-.023-.00584-.055-.00354-.06711-.01941a.40623.40623,0,0,1-.041-.0982Z" style="fill:#fff"/><path d="M49.81845,143.60121,49.524,168l23.94289-9.596" style="fill:#5e71a8"/><path d="M218.18846,55.627h-5.12471V52.57184h13.9449V55.627h-5.17422V70.82851h-3.646Z" style="fill:#fff"/><path d="M232.11069,52.57184h4.28724l5.86362,18.25667H238.443l-1.28164-4.681h-5.91314l-1.28071,4.681h-3.69592Zm-.074,10.74219H236.373l-.54181-1.996c-.56679-1.897-1.05955-3.99113-1.57683-5.96217h-.12307c-.46825,1.99556-1.01,4.06516-1.55233,5.96217Z" style="fill:#fff"/><path d="M242.95419,68.51277l2.09458-2.51331a7.17254,7.17254,0,0,0,4.632,2.02008c1.897,0,2.90659-.81294,2.90659-2.09411,0-1.35475-1.1086-1.77394-2.73447-2.46381L247.414,62.42706c-1.848-.7639-3.69594-2.24218-3.69594-4.90309,0-2.98108,2.61187-5.27277,6.30735-5.27277a8.08857,8.08857,0,0,1,5.71556,2.34073l-1.847,2.29169a5.81717,5.81717,0,0,0-3.86852-1.50327c-1.60136,0-2.6114.71485-2.6114,1.922,0,1.3057,1.28117,1.77394,2.833,2.38977l2.39024,1.01c2.2172.912,3.671,2.31621,3.671,4.95213,0,2.98155-2.48833,5.51892-6.70154,5.51892A9.716,9.716,0,0,1,242.95419,68.51277Z" style="fill:#fff"/><path d="M258.38016,61.63864c0-5.93765,3.32577-9.38744,8.15439-9.38744,4.82952,0,8.15622,3.47431,8.15622,9.38744s-3.32673,9.53457-8.15622,9.53457C261.70593,71.17321,258.38016,67.55177,258.38016,61.63864Zm12.58969,0c0-3.91756-1.724-6.25829-4.4353-6.25829-2.70951,0-4.43439,2.34073-4.43439,6.25829,0,3.89258,1.72488,6.3809,4.43439,6.3809C269.24588,68.01954,270.96985,65.53122,270.96985,61.63864Z" style="fill:#fff"/><path d="M288.71384,52.57184h11.234V55.627h-7.58808v4.755h6.47946v3.0551h-6.47946v7.39141h-3.646Z" style="fill:#fff"/><path d="M301.67554,61.63864c0-5.93765,3.32672-9.38744,8.1553-9.38744,4.82953,0,8.15531,3.47431,8.15531,9.38744s-3.32578,9.53457-8.15531,9.53457C305.00226,71.17321,301.67554,67.55177,301.67554,61.63864Zm12.5906,0c0-3.91756-1.72488-6.25829-4.4353-6.25829-2.7095,0-4.43439,2.34073-4.43439,6.25829,0,3.89258,1.72489,6.3809,4.43439,6.3809C312.54126,68.01954,314.26614,65.53122,314.26614,61.63864Z" style="fill:#fff"/><path d="M321.31564,52.57184H327.672c3.819,0,6.84961,1.35521,6.84961,5.54345a5.21885,5.21885,0,0,1-3.47385,5.24778L335.31,70.82851h-4.06516l-3.745-6.89865h-2.5383v6.89865h-3.646Zm6.01123,8.47549c2.34119,0,3.64688-.98552,3.64688-2.932,0-1.971-1.30569-2.63639-3.64688-2.63639h-2.36526v5.56843Z" style="fill:#fff"/><path d="M337.87424,52.57184h11.18591V55.627h-7.53992v4.21322h6.40634v3.05465h-6.40634V67.7734h7.81107v3.05511h-11.457Z" style="fill:#fff"/><path d="M351.57529,68.51277l2.09411-2.51331a7.17565,7.17565,0,0,0,4.63242,2.02008c1.897,0,2.90753-.81294,2.90753-2.09411,0-1.35475-1.10858-1.77394-2.73541-2.46381l-2.43927-1.03456c-1.847-.7639-3.695-2.24218-3.695-4.90309,0-2.98108,2.61139-5.27277,6.30734-5.27277a8.09368,8.09368,0,0,1,5.716,2.34073l-1.848,2.29169a5.81678,5.81678,0,0,0-3.868-1.50327c-1.6018,0-2.61233.71485-2.61233,1.922,0,1.3057,1.28164,1.77394,2.83349,2.38977l2.39023,1.01c2.2172.912,3.671,2.31621,3.671,4.95213,0,2.98155-2.48834,5.51892-6.70154,5.51892A9.716,9.716,0,0,1,351.57529,68.51277Z" style="fill:#fff"/><path d="M370.96924,55.627h-5.1247V52.57184H379.789V55.627h-5.17374V70.82851h-3.646Z" style="fill:#fff"/><path d="M387.84988,52.57184h4.0402l3.10461,8.54905c.3942,1.13359.73938,2.34073,1.10861,3.49884h.12308c.39419-1.15811.7153-2.36525,1.10953-3.49884l3.02966-8.54905h4.04111V70.82851H401.08v-7.613c0-1.72489.27111-4.26272.46823-5.98715h-.12308l-1.47781,4.28678-2.80942,7.66255h-2.09412l-2.83255-7.66255-1.45376-4.28678h-.099c.17212,1.72443.46823,4.26226.46823,5.98715v7.613H387.85Z" style="fill:#fff"/><path d="M412.14645,52.57184h4.28632l5.86407,18.25667h-3.819l-1.28073-4.681H411.284l-1.28165,4.681h-3.69592Zm-.074,10.74219h4.3363l-.54226-1.996c-.56635-1.897-1.05954-3.99113-1.57685-5.96217h-.12308c-.46823,1.99556-1.01049,4.06516-1.55276,5.96217Z" style="fill:#fff"/><path d="M424.19666,52.57184H430.553c3.819,0,6.84961,1.35521,6.84961,5.54345a5.21889,5.21889,0,0,1-3.47385,5.24778l4.26227,7.46544h-4.06515l-3.745-6.89865h-2.5383v6.89865h-3.646Zm6.01123,8.47549c2.34118,0,3.64688-.98552,3.64688-2.932,0-1.971-1.3057-2.63639-3.64688-2.63639h-2.36527v5.56843Z" style="fill:#fff"/><path d="M440.75528,52.57184h3.646V70.82851h-3.646Z" style="fill:#fff"/><path d="M448.64035,52.57184h3.72l5.29776,9.73168,1.823,3.94209h.12308c-.17212-1.897-.46823-4.31131-.46823-6.38091V52.57184h3.44979V70.82851h-3.696l-5.2728-9.75666-1.848-3.91756h-.123c.17212,1.971.44323,4.26272.44323,6.35684v7.31738h-3.44885Z" style="fill:#fff"/><path d="M470.34958,52.57184h4.28631L480.5,70.82851h-3.819l-1.28073-4.681h-5.91312l-1.28164,4.681h-3.695Zm-.074,10.74219h4.33631l-.54227-1.996c-.56634-1.897-1.05954-3.99113-1.57684-5.96217h-.12308c-.46823,1.99556-1.0105,4.06516-1.55185,5.96217Z" style="fill:#fff"/><circle cx="104.21198" cy="83.86942" r="83.86942" style="fill:#5e71a8"/><circle cx="32.02291" cy="33.20541" r="30.62508" style="fill:#fff"/><circle cx="32.02291" cy="33.20541" r="30.62508" style="fill:none;stroke:#5e71a8;stroke-miterlimit:10;stroke-width:2.7956473350442934px"/><path d="M22.45117,32.76855a23.72723,23.72723,0,0,0-5.50342-3.35107l1.99854-2.6748a23.79615,23.79615,0,0,1,5.56494,3.04345ZM18.08545,43.80664a95.21783,95.21783,0,0,0,5.01172-9.68506L25.895,36.36621c-1.353,3.228-3.04395,6.7334-4.64307,9.68506Zm2.73633-25.48877a20.97773,20.97773,0,0,1,5.56494,3.19775l-2.18311,2.89014a21.78177,21.78177,0,0,0-5.44189-3.44385Zm23.21338,5.01172V46.38965h-3.751V45.19043H30.66064v1.44482H27.06348V23.32959h5.165a39.08894,39.08894,0,0,0,.8916-5.31934l4.30468.43067c-.43066,1.69092-.95312,3.38183-1.44482,4.88867ZM30.66064,26.83447V32.3999h9.62354V26.83447ZM40.28418,41.6543V35.78174H30.66064V41.6543Z" style="fill:#5e71a8"/><path d="M143.90882,83.44161c5.79145,16.447,1.67213,37.90289,1.67213,37.90289s-2.41928-8.53317-11.46674-8.53317c-9.04757,0-23.57137,7.08427-23.57137,7.08427s9.04221-7.14794,9.04221-34.3963A157.60476,157.60476,0,0,0,110.65922,34.999S130.23476,44.61319,143.90882,83.44161Z" style="fill:#fff"/><path d="M59.37223,84.96106c-5.205,19.19579-1.79771,32.46768-1.79771,32.46768s12.684-7.20284,24.89909-5.324c12.21455,1.87929,27.59924,7.55634,27.59924,7.55634s-3.84314-7.90252-4.71519-29.34609a201.48746,201.48746,0,0,0-24.24053-6.51935C73.30113,82.3484,65.1791,83.55329,59.37223,84.96106Z" style="fill:#fff"/><path d="M82.46234,55.852a196.26226,196.26226,0,0,1,23.03674,6.12777c1.168-33.059,5.16068-39.1339,5.16068-39.1339S89.34329,33.97683,73.739,55.21543A42.30913,42.30913,0,0,1,82.46234,55.852Z" style="fill:#fff"/><path d="M109.079,21.593V124.71119a1.11165,1.11165,0,0,0,2.22329,0V21.593a1.11165,1.11165,0,0,0-2.22329,0Z" style="fill:#fff"/><polygon points="147.538 120.264 54.286 116.505 60.34 121.993 145.595 125.19 147.538 120.264" style="fill:#fff"/><polygon points="76.836 136.941 140.961 136.941 144.134 128.894 64.666 125.913 76.836 136.941" style="fill:#fff"/><path d="M105.49908,61.97977A196.26226,196.26226,0,0,0,82.46234,55.852a42.30913,42.30913,0,0,0-8.72338-.63657,88.58137,88.58137,0,0,0-9.43038,16.01918,92.01189,92.01189,0,0,0-4.93635,13.72645c5.80687-1.40777,13.9289-2.61266,21.7449-1.1654A201.48746,201.48746,0,0,1,105.35766,90.315c-.11277-2.74511-.17839-5.70111-.17839-8.90286C105.17927,74.0646,105.29882,67.63877,105.49908,61.97977Z" style="fill:#b2bbd5"/><polygon points="60.34 121.993 64.666 125.913 144.134 128.894 145.595 125.19 60.34 121.993" style="fill:#b2bbd5"/></svg>