<svg id="bef7fdcc-7ab7-4224-88b0-5cc81d115b13" data-name="レイヤー 1" xmlns="http://www.w3.org/2000/svg" viewBox="0 0 280 268"><ellipse cx="139.29435" cy="185.22061" rx="82.65924" ry="82.77939" style="fill:#5e71a8"/><path d="M154.869,109.61892,141.62209,89.32178l-14.58224,21.28316" style="fill:#5e71a8"/><path d="M89.90893,170.85333v42.98574h51.604" style="fill:none;stroke:#fff;stroke-linecap:round;stroke-linejoin:round;stroke-width:3.446638490343221px"/><path d="M141.513,170.85333v42.98574h46.31342V171.5304" style="fill:none;stroke:#fff;stroke-linecap:round;stroke-linejoin:round;stroke-width:3.446638490343221px"/><path d="M141.67419,170.85333H83.22587l.41573-10.4942h58.03253" style="fill:none;stroke:#fff;stroke-linecap:round;stroke-linejoin:round;stroke-width:3.446638490343221px"/><path d="M137.27729,170.85333h58.44832l-.41475-10.4942H137.27729" style="fill:none;stroke:#fff;stroke-linecap:round;stroke-linejoin:round;stroke-width:3.446638490343221px"/><path d="M89.19041,171.28989H187.71v42.81773H89.19041Z" style="fill:#fff;stroke:#fff;stroke-linecap:round;stroke-linejoin:round;stroke-width:3.446638490343221px"/><path d="M105.3203,197.09393H97.56665V179.50505h7.75365Z" style="fill:#b2bbd5"/><path d="M119.45514,197.09393h-7.75365V179.50505h7.75365Z" style="fill:#b2bbd5"/><path d="M133.59011,197.09393h-7.75366V179.50505h7.75366Z" style="fill:#b2bbd5"/><path d="M156.81157,184.16h15.67637v31.73426H156.81157Z" style="fill:#b2bbd5"/><ellipse cx="68.14695" cy="135.21502" rx="30.18316" ry="30.22424" style="fill:#fff"/><ellipse cx="68.14695" cy="135.21502" rx="30.18316" ry="30.22424" style="fill:none;stroke:#5e71a8;stroke-miterlimit:10;stroke-width:2.7573107922745765px"/><path d="M58.71559,134.78066a23.39043,23.39043,0,0,0-5.426-3.30928l1.97035-2.64017a23.45,23.45,0,0,1,5.48644,3.00461ZM54.411,145.67738a93.96542,93.96542,0,0,0,4.941-9.56144l2.75838,2.216c-1.3337,3.18682-3.00076,6.647-4.57709,9.56145Zm2.698-25.16346a20.7003,20.7003,0,0,1,5.48669,3.15646l-2.15231,2.85374a21.47912,21.47912,0,0,0-5.36538-3.39941Zm22.886,4.94727v22.76624H76.29682V147.043H66.809v1.42736H63.26235v-23.0092H68.355a38.80429,38.80429,0,0,0,.87878-5.251l4.244.42517c-.4246,1.66934-.94017,3.33867-1.42493,4.82579ZM66.809,128.92232v5.49391h9.4878v-5.49391Zm9.4878,14.63019V137.7549H66.809v5.79761Z" style="fill:#5e71a8"/><path d="M20.09419,0H259.90581A20.10782,20.10782,0,0,1,280,20.12153v.002A20.10782,20.10782,0,0,1,259.90581,40.245H20.09419A20.10782,20.10782,0,0,1,0,20.12349v-.002A20.10782,20.10782,0,0,1,20.09419,0Z" style="fill:#5e71a8"/><path d="M25.34321,14.51018H20.186V11.43112H34.21955v3.07906H29.0129V29.82907H25.34321Z" style="fill:#fff"/><path d="M39.354,11.43112h4.31442l5.90076,18.398h-3.8431l-1.28919-4.717h-5.9506l-1.28919,4.717H33.478Zm-.07435,10.82521h4.36388l-.54542-2.01124c-.57036-1.91131-1.06613-4.02149-1.58684-6.00823h-.124c-.47106,2.01123-1.01648,4.09692-1.5619,6.00823Z" style="fill:#fff"/><path d="M50.26555,27.49553l2.10755-2.53241a7.21746,7.21746,0,0,0,4.66123,2.03573c1.90921,0,2.92569-.82,2.92569-2.11018,0-1.36565-1.11578-1.78788-2.752-2.48343l-2.45462-1.04236c-1.8598-.77-3.71935-2.25909-3.71935-4.94139,0-3.00362,2.62827-5.31267,6.34738-5.31267a8.13542,8.13542,0,0,1,5.7523,2.358l-1.85955,2.309a5.84968,5.84968,0,0,0-3.89275-1.51455c-1.61155,0-2.628.72005-2.628,1.93678,0,1.31666,1.28919,1.78788,2.85133,2.409l2.405,1.01786c2.23155.91794,3.6944,2.33354,3.6944,4.99037,0,3.00363-2.50427,5.56151-6.74409,5.56151A9.77311,9.77311,0,0,1,50.26555,27.49553Z" style="fill:#fff"/><path d="M65.78863,20.56838c0-5.98374,3.34685-9.45956,8.20668-9.45956s8.20717,3.50031,8.20717,9.45956c0,5.95827-3.34734,9.60847-8.20717,9.60847S65.78863,26.52665,65.78863,20.56838Zm12.6698,0c0-3.948-1.73555-6.307-4.46312-6.307-2.72708,0-4.46312,2.359-4.46312,6.307,0,3.92254,1.736,6.43047,4.46312,6.43047C76.72288,26.99885,78.45843,24.49092,78.45843,20.56838Z" style="fill:#fff"/><path d="M90.93305,11.43112h6.07442c3.76851,0,6.64479,1.11779,6.64479,4.54365a4.1673,4.1673,0,0,1-2.504,3.97251v.12441a4.176,4.176,0,0,1,3.44615,4.34478c0,3.69918-3.07438,5.4126-7.11584,5.4126H90.93305Zm5.80147,7.49829c2.33086,0,3.34734-.9434,3.34734-2.408,0-1.61448-1.09083-2.26007-3.29744-2.26007H94.60226v4.66806Zm.42166,8.06944c2.50451,0,3.86781-.89443,3.86781-2.80574,0-1.78787-1.33884-2.5569-3.86781-2.5569H94.60226v5.36264Z" style="fill:#fff"/><path d="M107.57241,11.43112h11.25667v3.07906h-7.5874V18.756h6.44667V21.8341h-6.44667V26.75h7.85986v3.07906H107.57247Z" style="fill:#fff"/><path d="M126.09552,11.43112h4.31442l5.90077,18.398h-3.84287l-1.28943-4.717h-5.95072l-1.28943,4.717h-3.71911Zm-.07435,10.82521h4.36388l-.54541-2.01124c-.57037-1.91131-1.06638-4.02149-1.58685-6.00823H128.129c-.47155,2.01123-1.017,4.09692-1.56238,6.00823Z" style="fill:#fff"/><path d="M137.00727,20.71729c0-6.0582,3.89276-9.60847,8.52953-9.60847a7.48059,7.48059,0,0,1,5.3803,2.358l-1.9092,2.33452a4.82925,4.82925,0,0,0-3.39675-1.54c-2.777,0-4.85983,2.38351-4.85983,6.33152,0,3.997,1.88426,6.406,4.78548,6.406a5.06061,5.06061,0,0,0,3.79346-1.81237l1.93366,2.28358a7.41917,7.41917,0,0,1-5.85137,2.70679C140.77627,30.17685,137.00727,26.84994,137.00727,20.71729Z" style="fill:#fff"/><path d="M153.969,11.43112h3.66921v7.25044h6.9422V11.43112h3.64475v18.398h-3.64475v-7.945h-6.9422v7.945H153.969Z" style="fill:#fff"/><path d="M177.87344,11.43112h3.66921v7.25044h6.94268V11.43112h3.64475v18.398h-3.64475v-7.945h-6.94268v7.945h-3.66921Z" style="fill:#fff"/><path d="M195.47932,20.56838c0-5.98374,3.34734-9.45956,8.20717-9.45956,4.85934,0,8.20668,3.50031,8.20668,9.45956,0,5.95827-3.34734,9.60847-8.20668,9.60847C198.82666,30.17685,195.47932,26.52665,195.47932,20.56838Zm12.6698,0c0-3.948-1.73555-6.307-4.46263-6.307-2.72757,0-4.46312,2.359-4.46312,6.307,0,3.92254,1.73555,6.43047,4.46312,6.43047C206.41357,26.99885,208.14912,24.49092,208.14912,20.56838Z" style="fill:#fff"/><path d="M215.14365,21.56175V11.43112h3.6697V21.88406c0,3.8236,1.33884,5.11479,3.4711,5.11479,2.18166,0,3.57045-1.29119,3.57045-5.11479V11.43112h3.52051V21.56175c0,6.10718-2.60333,8.6151-7.0909,8.6151C217.82133,30.17685,215.14365,27.66893,215.14365,21.56175Z" style="fill:#fff"/><path d="M232.031,27.49553l2.10731-2.53241A7.21894,7.21894,0,0,0,238.8,26.99885c1.9092,0,2.92568-.82,2.92568-2.11018,0-1.36565-1.11578-1.78788-2.75252-2.48343l-2.45461-1.04236c-1.85937-.77-3.71911-2.25909-3.71911-4.94139,0-3.00362,2.62827-5.31267,6.34738-5.31267a8.13727,8.13727,0,0,1,5.75255,2.358l-1.8598,2.309a5.84966,5.84966,0,0,0-3.89275-1.51455c-1.6113,0-2.62827.72005-2.62827,1.93678,0,1.31666,1.28943,1.78788,2.85132,2.409l2.40522,1.01786c2.23156.91794,3.69464,2.33354,3.69464,4.99037,0,3.00363-2.50451,5.56151-6.74457,5.56151A9.77242,9.77242,0,0,1,232.031,27.49553Z" style="fill:#fff"/><path d="M248.47176,11.43112h11.25612v3.07906H252.141V18.756h6.44618V21.8341H252.141V26.75h7.85938v3.07906H248.4717Z" style="fill:#fff"/><path d="M52.01357,61.73061a16.48337,16.48337,0,0,0-3.99206-2.53241l1.61179-2.18562a15.81645,15.81645,0,0,1,4.11582,2.33453Zm-3.54569,9.85633a72.733,72.733,0,0,0,3.62-8.01947l2.35532,1.639c-.96683,2.65683-2.18166,5.56151-3.32239,7.994Zm4.68617-16.36125a16.24655,16.24655,0,0,0-4.04146-2.63234l1.6859-2.16014a17.87628,17.87628,0,0,1,4.14076,2.43347Zm16.1903,9.633c-.0494.99338-.12375,1.83686-.19811,2.60687h1.95861V69.948h-2.281a5.42873,5.42873,0,0,1-.74353,2.26007,2.50247,2.50247,0,0,1-1.98356,1.11681,17.27945,17.27945,0,0,1-3.124.07445,5.64624,5.64624,0,0,0-.71907-2.408c1.06613.07446,2.033.099,2.529.099a.98114.98114,0,0,0,.91742-.39676,2.72924,2.72924,0,0,0,.32236-.74552H58.5593l-.19836,1.21673-2.82662-.22336c.32236-1.66345.69436-3.79813,1.01648-6.08269H54.41854V62.20183H56.8981c.17341-1.36565.32212-2.73129.44612-3.997-.29741.39676-.59507.74454-.89248,1.09231a13.57585,13.57585,0,0,0-2.47956-1.68794,17.04517,17.04517,0,0,0,3.9424-7.34939l2.901.59563c-.22306.74454-.47106,1.49006-.74377,2.21011H70.85684v2.63136H58.88166a17.79425,17.79425,0,0,1-.96708,1.639H69.69166s0,.84447-.025,1.19126c-.0494,1.34115-.09881,2.55789-.17316,3.6747H71.3778v2.65682Zm-10.066,0c-.124.89345-.248,1.76241-.34731,2.60687h2.33086c.09906-.7945.19836-1.688.29741-2.60687Zm.32211-2.65682H61.832c.04965-.79451.124-1.589.17365-2.358H59.87343Zm6.81868,5.26369q.11153-1.08007.22306-2.60687H64.0883c-.09905.91892-.19835,1.81237-.29741,2.60687Zm.37177-5.26369c.02494-.72005.07435-1.51455.0993-2.358H64.53466c-.04965.769-.124,1.56353-.19835,2.358Z" style="fill:#5e71a8"/><path d="M79.19162,61.87952a19.52788,19.52788,0,0,0-4.66123-2.63234l1.53744-2.2346a20.04306,20.04306,0,0,1,4.785,2.409Zm-3.8184,9.31065a76.98427,76.98427,0,0,0,4.56242-7.7961l2.20661,1.9358c-1.26448,2.58237-2.80192,5.4126-4.23957,7.79611Zm5.20714-15.9155a19.02238,19.02238,0,0,0-4.58688-2.73128l1.58684-2.20912a18.90165,18.90165,0,0,1,4.73552,2.53241Zm8.033-4.34477c-.91718,4.41923-2.60332,8.36724-4.98358,10.8252a16.79826,16.79826,0,0,0-2.57838-2.0612c2.281-2.03572,3.7191-5.51154,4.36388-9.30967ZM83.40674,62.12737H96.05208V73.32485h-3V72.357h-6.794v1.09231H83.40674Zm2.85133,2.73128v4.767h6.794v-4.767Zm6.94268-14.54888c.89223,3.40137,2.70262,6.92618,4.88429,8.863a11.66648,11.66648,0,0,0-2.30591,2.50792c-2.40522-2.43347-4.23958-6.455-5.35536-10.57637Z" style="fill:#5e71a8"/><path d="M106.29569,56.56586c-.02446,1.61448,0,3.47582.1492,5.2637.34681,3.57574,1.09083,6.0337,2.65279,6.0337,1.16518,0,2.1572-2.90566,2.62827-4.89142l2.47956,3.02909c-1.63674,4.32029-3.19863,5.83484-5.18219,5.83484-2.72757,0-5.08288-2.458-5.777-9.11277-.248-2.28358-.27295-5.18826-.27295-6.70281a15.10875,15.10875,0,0,0-.19811-2.53241l3.8184.049A20.11785,20.11785,0,0,0,106.29569,56.56586Zm17.20776,10.403-3.248,1.2667c-.39671-3.998-1.71109-10.0307-4.41371-13.10976l3.14874-1.01787C121.34625,56.9636,123.2305,63.17071,123.50345,66.96883Z" style="fill:#5e71a8"/><path d="M139.99606,72.45589l-1.85937-2.95464a18.99465,18.99465,0,0,0,2.30591-.39676c3.17375-.74552,5.65325-3.0291,5.65325-6.65383,0-3.42684-1.85979-5.98374-5.20713-6.55488a50.20886,50.20886,0,0,1-1.48755,6.72828c-1.48754,5.01486-3.6198,8.09392-6.32236,8.09392-2.75252,0-5.03348-3.0291-5.03348-7.225,0-5.73491,4.95864-10.62633,11.38085-10.62633,6.14877,0,10.01658,4.27032,10.01658,9.68292C149.44276,67.78881,146.24462,71.488,139.99606,72.45589Zm-6.81844-5.56151c1.04143,0,2.0085-1.56451,3.025-4.91592a37.323,37.323,0,0,0,1.31438-6.00823,7.81218,7.81218,0,0,0-6.298,7.20048C131.219,65.67765,132.21055,66.89438,133.17762,66.89438Z" style="fill:#5e71a8"/><path d="M159.56256,53.73563h13.63687c.61977,0,1.5619,0,2.45462-.05-.0499.74552-.0499,1.66346-.0499,2.409V68.26c0,.9679.0499,3.35141.0499,3.45133h-3.42169c0-.05.02445-.6211.02445-1.34115H160.30657c.025.69556.025,1.2667.025,1.34115h-3.42169c0-.12441.07435-2.28456.07435-3.47582V56.09465c0-.69556,0-1.71342-.0494-2.409C157.95126,53.71114,158.89338,53.73563,159.56256,53.73563Zm.744,13.45657h11.97519v-10.303H160.30657Z" style="fill:#5e71a8"/><path d="M189.02237,63.5175l-3.025,1.14228a50.19826,50.19826,0,0,0-2.25651-5.73491l2.97558-1.06782C187.33623,59.12374,188.52636,62.12737,189.02237,63.5175Zm12.00014-3.3514a20.035,20.035,0,0,1-3.3718,7.27493,19.36634,19.36634,0,0,1-8.306,6.15714l-2.60381-2.65683A16.67876,16.67876,0,0,0,194.973,65.7521a17.00134,17.00134,0,0,0,3.17375-8.51615l3.4711,1.11778C201.32041,59.14824,201.17121,59.66941,201.02251,60.1661ZM194.502,61.97846l-2.97558,1.04334a41.32031,41.32031,0,0,0-2.0085-5.51253l2.95063-.9679C192.93959,57.6092,194.15466,60.83618,194.502,61.97846Z" style="fill:#5e71a8"/><path d="M215.40682,60.91064l-1.8099,2.78124c-1.41319-.99337-3.99157-2.65683-5.65325-3.55027l1.78544-2.73128C211.41525,58.30377,214.14234,60.01719,215.40682,60.91064Zm1.98355,5.66143a25.12186,25.12186,0,0,0,9.64531-9.31065l1.9092,3.37687a29.92692,29.92692,0,0,1-9.84341,8.93741,31.15721,31.15721,0,0,1-8.28153,3.05457l-1.85936-3.25246a26.59066,26.59066,0,0,0,8.42973-2.80574Zm1.8104-11.27192-1.83485,2.7303c-1.38874-.9679-3.96717-2.63136-5.60385-3.55028l1.78544-2.73128C215.18376,52.64332,217.91133,54.38123,219.20077,55.30015Zm7.38831.769-2.15672.91891a22.43635,22.43635,0,0,0-2.18216-3.898l2.08286-.869A42.0734,42.0734,0,0,1,226.58908,56.06918Zm3.47158-1.34017-2.1078.9434a23.84728,23.84728,0,0,0-2.33037-3.77363l2.10731-.86994A32.02959,32.02959,0,0,1,230.06066,54.729Z" style="fill:#5e71a8"/></svg>