<svg id="a533b10d-09f1-45c2-8dbe-54f47c0cdadc" data-name="レイヤー 1" xmlns="http://www.w3.org/2000/svg" viewBox="0 0 360 230"><path d="M27.36928,189.68435H288.16906a20.14644,20.14644,0,0,1,20.136,20.15687v.0019A20.14645,20.14645,0,0,1,288.16906,230H27.36928a20.14645,20.14645,0,0,1-20.136-20.15688v-.0019A20.14644,20.14644,0,0,1,27.36928,189.68435Z" style="fill:#5e71a8"/><path d="M40.94142,203.31787h-5.168V200.2334H49.83625v3.08447h-5.218v15.34577H40.94142Z" style="fill:#fff"/><path d="M54.9812,200.2334h4.3234l5.91305,18.43024H61.36679l-1.29212-4.72533H54.11161l-1.29211,4.72533H49.09265Zm-.07451,10.8442H59.2796l-.54656-2.01476c-.57155-1.91467-1.06859-4.02855-1.59014-6.01878h-.124c-.47253,2.01477-1.01909,4.10415-1.56564,6.01878Z" style="fill:#fff"/><path d="M65.91567,216.326l2.1117-2.53686a7.23549,7.23549,0,0,0,4.67143,2.0393c1.91269,0,2.93178-.82141,2.93178-2.11388,0-1.368-1.11811-1.791-2.75825-2.48779l-2.45973-1.04418c-1.86318-.77136-3.72685-2.26312-3.72685-4.95006,0-3.0089,2.63374-5.322,6.36059-5.322a8.15574,8.15574,0,0,1,5.76453,2.36217l-1.86367,2.3131a5.86351,5.86351,0,0,0-3.90086-1.5172c-1.61515,0-2.63374.72131-2.63374,1.94018,0,1.319,1.29211,1.791,2.85726,2.4132l2.41023,1.01965c2.2362.91952,3.70185,2.33763,3.70185,4.99913,0,3.00889-2.50924,5.57127-6.75764,5.57127A9.79419,9.79419,0,0,1,65.91567,216.326Z" style="fill:#fff"/><path d="M81.47109,209.38669c0-5.99424,3.35431-9.47616,8.22426-9.47616,4.86946,0,8.22378,3.50645,8.22378,9.47616,0,5.96873-3.35432,9.62534-8.22378,9.62534C84.8254,219.012,81.47109,215.35542,81.47109,209.38669Zm12.69619,0c0-3.95494-1.73917-6.31809-4.47193-6.31809-2.73325,0-4.47241,2.36315-4.47241,6.31809,0,3.92943,1.73916,6.44175,4.47241,6.44175C92.42811,215.82844,94.16728,213.31612,94.16728,209.38669Z" style="fill:#fff"/><path d="M112.05939,200.2334H123.389v3.08447h-7.65271v4.7999h6.53461v3.08447h-6.53461v7.4614h-3.67685Z" style="fill:#fff"/><path d="M125.13008,209.38669c0-5.99424,3.35431-9.47616,8.22426-9.47616,4.86946,0,8.22377,3.50645,8.22377,9.47616,0,5.96873-3.35431,9.62534-8.22377,9.62534C128.48439,219.012,125.13008,215.35542,125.13008,209.38669Zm12.69618,0c0-3.95494-1.73916-6.31809-4.47192-6.31809-2.73325,0-4.47242,2.36315-4.47242,6.31809,0,3.92943,1.73917,6.44175,4.47242,6.44175C136.0871,215.82844,137.82626,213.31612,137.82626,209.38669Z" style="fill:#fff"/><path d="M144.93487,200.2334H151.345c3.85086,0,6.90714,1.368,6.90714,5.59679a5.26882,5.26882,0,0,1-3.50332,5.29746l4.2984,7.536h-4.09939L151.171,211.6998h-2.55924v6.96384h-3.67685ZM150.997,208.79c2.36071,0,3.67734-.99512,3.67734-2.95983,0-1.99023-1.31663-2.66149-3.67734-2.66149h-2.38523V208.79Z" style="fill:#fff"/><path d="M161.63339,200.2334h11.28006v3.08447h-7.60321v4.25328h6.4601v3.08348h-6.4601v4.92454h7.87624v3.08447H161.63339Z" style="fill:#fff"/><path d="M175.45014,216.326l2.1117-2.53686a7.235,7.235,0,0,0,4.67143,2.0393c1.91268,0,2.93177-.82141,2.93177-2.11388,0-1.368-1.1181-1.791-2.75825-2.48779l-2.45973-1.04418c-1.86318-.77136-3.72685-2.26312-3.72685-4.95006,0-3.0089,2.63375-5.322,6.3606-5.322a8.15574,8.15574,0,0,1,5.76453,2.36217l-1.86367,2.3131a5.8634,5.8634,0,0,0-3.90086-1.5172c-1.61515,0-2.63375.72131-2.63375,1.94018,0,1.319,1.29212,1.791,2.85727,2.4132l2.41022,1.01965c2.23621.91952,3.70185,2.33763,3.70185,4.99913,0,3.00889-2.50924,5.57127-6.75764,5.57127A9.79476,9.79476,0,0,1,175.45014,216.326Z" style="fill:#fff"/><path d="M195.00592,203.31787h-5.168V200.2334h14.06232v3.08447h-5.21749v15.34577h-3.67685Z" style="fill:#fff"/><path d="M211.10789,209.53586c0-6.06883,3.90087-9.62533,8.54729-9.62533a7.49708,7.49708,0,0,1,5.39151,2.36217l-1.91318,2.33862a4.8398,4.8398,0,0,0-3.40382-1.54272c-2.78276,0-4.87,2.38771-4.87,6.34263,0,4.004,1.88818,6.41721,4.79544,6.41721a5.07174,5.07174,0,0,0,3.80136-1.81554l1.93769,2.28758a7.43626,7.43626,0,0,1-5.86355,2.71155C214.88474,219.012,211.10789,215.67927,211.10789,209.53586Z" style="fill:#fff"/><path d="M231.63277,200.2334h4.3234l5.91306,18.43024h-3.85087l-1.29212-4.72533h-5.963l-1.29212,4.72533h-3.72685Zm-.07451,10.8442h4.37291l-.54655-2.01476c-.57156-1.91467-1.0686-4.02855-1.59015-6.01878h-.124c-.47253,2.01477-1.01909,4.10415-1.56564,6.01878Z" style="fill:#fff"/><path d="M243.78485,200.2334h4.07439l3.13079,8.6312c.39754,1.1433.74557,2.36217,1.1181,3.531h.124c.39754-1.16882.72057-2.38772,1.1181-3.531l3.05628-8.6312h4.07488v18.43024H257.1271v-7.68516c0-1.741.273-4.30333.47205-6.04429h-.12451l-1.49064,4.32787-2.83227,7.7352h-2.11219l-2.85727-7.7352-1.46564-4.32787h-.09951c.174,1.741.472,4.30333.472,6.04429v7.68516h-3.30432Z" style="fill:#fff"/><path d="M264.75776,200.2334h6.03756c4.07439,0,7.20518,1.44262,7.20518,5.795,0,4.20323-3.1553,6.09434-7.10616,6.09434h-2.45973v6.54087h-3.67685Zm5.888,8.97861c2.53473,0,3.75185-1.06872,3.75185-3.18362,0-2.13841-1.34162-2.85972-3.87586-2.85972h-2.08719V209.212Z" style="fill:#fff"/><ellipse cx="82.83134" cy="83.76589" rx="82.83134" ry="82.92471" style="fill:#5e71a8"/><ellipse cx="157.6693" cy="31.65861" rx="30.24603" ry="30.27731" style="fill:#fff"/><ellipse cx="157.6693" cy="31.65861" rx="30.24603" ry="30.27731" style="fill:none;stroke:#5e71a8;stroke-miterlimit:10;stroke-width:2.76260123937185px"/><path d="M148.21811,31.22383a23.43992,23.43992,0,0,0-5.43709-3.31509l1.97445-2.6448a23.501,23.501,0,0,1,5.49787,3.00988ZM143.905,42.13967a94.24509,94.24509,0,0,0,4.95133-9.57822l2.76413,2.2199c-1.33673,3.19241-3.00726,6.65866-4.58712,9.57822Zm2.70335-25.20761a20.74563,20.74563,0,0,1,5.49788,3.162l-2.1568,2.85875a21.51579,21.51579,0,0,0-5.37631-3.40538ZM169.542,21.888V44.69419h-3.70577V43.50771h-9.50756v1.42986h-3.55381V21.888h5.10278a38.70055,38.70055,0,0,0,.88086-5.26017l4.25281.42592c-.42547,1.67226-.94164,3.34453-1.4274,4.83425Zm-13.21333,3.4672v5.50356h9.50756V25.3552Zm9.50756,14.65587V34.20332h-9.50756V40.0111Z" style="fill:#5e71a8"/><path d="M29.63759,108.40127s-1.8019,4.08157-3.74057,3.05112c0,0-1.49861-.37844-.50746-2.08781l1.96722-4.17514,3.26412,1.24175Z" style="fill:#fff"/><path d="M88.38608,123.21234v4.52359s.12181,1.3044,2.259,1.3044c0,0,1.82507.1569,1.82507-1.40892v-4.58507Z" style="fill:#fff"/><path d="M134.01939,102.89284l2.86707,3.75762s1.09507.37016,0,1.75078c0,0-1.023,1.1-2.86707-1.12411l-1.82482-3.44466Z" style="fill:#fff"/><path d="M137.37346,92.7156s3.26669,4.07106,6.08192,3.44466c0,0,2.50226-1.09589.15625-2.34184a20.69552,20.69552,0,0,1-4.58773-2.40762Z" style="fill:#fff"/><path d="M79.19616,29.00515c.033.053.06948.11918.10747.19143-.04142-.07121-.0788-.137-.10747-.19143-7.0357,13.598-52.24562,76.40767-52.24562,76.40767,20.04989,7.85328,63.883,18.32551,63.883,18.32551s34.56147-13.7081,43.29454-20.10992L139.08333,91.187c-8.78466-6.6453-59.88717-62.18187-59.88717-62.18187Z" style="fill:#fff"/><path d="M90.64508,123.76946,79.38475,28.99028c2.50226,4.8019,54.63464,74.84219,54.63464,74.84219s-23.10948,13.46484-43.37443,19.937Z" style="fill:#fff"/><path d="M139.08333,91.187,79.38488,28.99028c2.50225,4.8019,54.63463,74.84219,54.63463,74.84219S137.37346,96.2258,139.08333,91.187Z" style="fill:#fff"/><path d="M63.35447,58.30639s11.569,4.59548,15.67515,4.92148c0,0,6.04749,52.60815,6.46463,54.06944,0,0-46.90178-13.54632-50.73475-15.657,0,0,23.08178-33.38216,28.5951-43.3339Z" style="fill:#b2bbd5"/><path d="M35.8189,144.57361l-.29509,24.28914,24.001-9.55287" style="fill:#5e71a8"/><path d="M191.29427,119.36314c-.57155,2.43774-1.66466,6.29258-3.72685,9.05319a19.8702,19.8702,0,0,1-9.98794,6.86466l-2.70825-2.95983a16.52258,16.52258,0,0,0,9.73942-5.84507,15.74457,15.74457,0,0,0,2.90726-7.01389H175.93934c-1.11811,0-2.31072.05-2.95678.1001v-3.50744c.74557.07459,2.1617.19922,2.98178.19922h11.47857a8.29279,8.29279,0,0,0,1.96318-.19922l2.43473,1.56726A10.87271,10.87271,0,0,0,191.29427,119.36314Z" style="fill:#5e71a8"/><path d="M209.55941,120.78123c0,.44751.025.9696.025,1.51721h2.93177c.64606,0,1.59015-.1001,2.0372-.14917v3.00889c-.59606-.02453-1.36663-.04906-1.91318-.04906h-2.98128c.0745,2.95884.149,6.34164.174,8.87853a2.16675,2.16675,0,0,1-2.41022,2.18945c-1.19261,0-2.73325-.05-3.85136-.1246l-.19852-2.8352a22.67542,22.67542,0,0,0,2.85727.22376c.472,0,.64606-.27381.64606-.77137,0-1.21886-.025-3.03441-.05-4.92454a28.24,28.24,0,0,1-8.02476,6.54087l-2.1617-2.48681a24.40241,24.40241,0,0,0,8.69582-6.69H200.019c-.72057,0-1.61515.04907-2.33572.09912v-3.05895a22.05014,22.05014,0,0,0,2.26121.14917h6.75764c0-.54761-.025-1.04514-.04951-1.51721-.025-.59766-.0995-1.39355-.199-2.06481h3.2053A18.24069,18.24069,0,0,0,209.55941,120.78123Z" style="fill:#5e71a8"/><path d="M221.614,131.57538V118.0952a15.88076,15.88076,0,0,0-.27352-2.83617h3.90086a18.22448,18.22448,0,0,0-.248,2.83617v12.93257A28.46854,28.46854,0,0,0,237.764,122.796l1.76416,2.80968c-3.40382,4.07958-8.54729,7.03941-14.41084,8.95407a6.42593,6.42593,0,0,0-1.46614.67129l-2.36022-2.03929A3.25106,3.25106,0,0,0,221.614,131.57538Z" style="fill:#5e71a8"/><path d="M260.99806,118.86558a36.568,36.568,0,0,1-3.90086,6.84019,69.78692,69.78692,0,0,1,6.93215,7.113l-2.83227,2.46227a56.70568,56.70568,0,0,0-6.26109-7.03842,32.73553,32.73553,0,0,1-9.34237,6.98837l-2.55923-2.686a27.8462,27.8462,0,0,0,10.18695-7.13755,19.28617,19.28617,0,0,0,3.70234-6.09434H248.5004c-1.04311,0-2.40973.14917-2.93178.17469v-3.532a27.83054,27.83054,0,0,0,2.93178.17371h8.77081a8.91459,8.91459,0,0,0,2.55924-.32287l2.0372,1.5172A11.77461,11.77461,0,0,0,260.99806,118.86558Z" style="fill:#5e71a8"/><path d="M272.457,117.49755a17.2734,17.2734,0,0,0-.24852-2.98437h3.87587a27.04612,27.04612,0,0,0-.22353,2.98437v3.68114a81.08927,81.08927,0,0,1,10.38548,3.85582l-1.41614,3.43184a71.56111,71.56111,0,0,0-8.96934-3.70567v7.03842c0,.72131.124,2.46227.22353,3.48192h-3.87587a27.34925,27.34925,0,0,0,.24852-3.48192Z" style="fill:#5e71a8"/><path d="M300.80913,135.75408l-2.65826-2.51232c4.795-1.66638,6.90715-3.80578,6.90715-9.92368V122.373h-5.88855v3.38182c0,1.09522.07451,2.11487.09951,2.61242h-3.47882a20.03549,20.03549,0,0,0,.1495-2.61242V122.373h-2.11219c-1.24163,0-2.13621.04907-2.68276.09912v-3.3828a16.12764,16.12764,0,0,0,2.68276.22375h2.11219v-2.46227c0-.72131-.0745-1.49169-.1495-2.23852h3.52832a15.23347,15.23347,0,0,0-.149,2.23852v2.46227H305.058v-2.61144a16.44348,16.44348,0,0,0-.149-2.3131h3.55284a15.69786,15.69786,0,0,0-.174,2.3131v2.61144h1.83867a14.69136,14.69136,0,0,0,2.73326-.1737v3.30821c-.54656-.05-1.41614-.07458-2.73326-.07458h-1.83867v.82043C308.28782,129.3614,306.79718,133.11712,300.80913,135.75408Z" style="fill:#5e71a8"/><path d="M327.075,120.05992a31.86754,31.86754,0,0,0,7.00665-6.0443l2.68325,2.56238a45.6149,45.6149,0,0,1-6.68362,5.39658v10.04828a17.15506,17.15506,0,0,0,.22352,3.25816h-3.92537a27.82757,27.82757,0,0,0,.174-3.25816v-7.959a49.76767,49.76767,0,0,1-8.77081,3.582l-1.56515-3.13451A39.94329,39.94329,0,0,0,327.075,120.05992Z" style="fill:#5e71a8"/><path d="M344.49605,117.87047a17.55711,17.55711,0,0,0-.24852-3.0089h3.87586a27.07156,27.07156,0,0,0-.22352,3.0089v3.63207a86.3377,86.3377,0,0,1,10.38548,3.87938l-1.39114,3.45738a66.477,66.477,0,0,0-8.99434-3.70567v7.03843c0,.69677.124,2.43773.24852,3.45738h-3.90086a26.96846,26.96846,0,0,0,.24852-3.45738Zm12.17415,1.56726-2.16121.97058a21.29646,21.29646,0,0,0-2.1867-3.85583l2.08719-.87048C355.10505,116.72717,356.09914,118.319,356.6702,119.43773ZM360,117.9951l-2.08719,1.01965a23.32342,23.32342,0,0,0-2.31072-3.73021l2.0622-.97058A33.017,33.017,0,0,1,360,117.9951Z" style="fill:#5e71a8"/><path d="M192.51188,151.77405l-1.83867.77038,2.1117,1.29346a9.97351,9.97351,0,0,0-.81958,1.791,25.266,25.266,0,0,1-4.3484,8.28183,23.13319,23.13319,0,0,1-10.01294,7.0394l-2.93177-2.63692a19.86972,19.86972,0,0,0,10.01293-6.16795,17.60168,17.60168,0,0,0,3.52833-6.7656h-6.98165a27.92877,27.92877,0,0,1-6.28609,6.01976l-2.78276-2.08935a21.49886,21.49886,0,0,0,7.75173-8.009,11.232,11.232,0,0,0,1.1181-2.58691l3.65234,1.19434a25.849,25.849,0,0,0-1.51564,2.53686c-.02451.05-.04951.07458-.0745.1246h4.96945a7.79978,7.79978,0,0,0,2.1617-.29932l.17353.1001a28.8482,28.8482,0,0,0-1.81367-3.2091l1.96317-.79589A31.74269,31.74269,0,0,1,192.51188,151.77405Zm2.98128-1.14428-1.96268.845a26.32911,26.32911,0,0,0-2.01269-3.43184l1.96318-.79589A35.51212,35.51212,0,0,1,195.49316,150.62977Z" style="fill:#5e71a8"/><path d="M217.03811,157.91648a17.88133,17.88133,0,0,1-3.67685,6.89024,18.60434,18.60434,0,0,1-8.87033,5.372l-2.45973-2.81066a16.75379,16.75379,0,0,0,8.5968-4.3524,10.79364,10.79364,0,0,0,2.55924-4.30333H201.18662c-.59606,0-1.83818.02552-2.88178.1246v-3.23265c1.0436.07459,2.1122.14917,2.88178.14917h12.29865a5.23388,5.23388,0,0,0,1.81367-.24921l2.21121,1.368A9.4089,9.4089,0,0,0,217.03811,157.91648Zm-13.8638-8.13266h9.5654a23.259,23.259,0,0,0,2.68374-.1246v3.20907c-.67106-.05-1.83867-.07459-2.73325-.07459h-9.51589c-.79508,0-1.86367.02454-2.58375.07459v-3.2091A20.79277,20.79277,0,0,0,203.17431,149.78382Z" style="fill:#5e71a8"/><path d="M232.24843,163.14035a23.41128,23.41128,0,0,0,9.04385-9.67539l1.93818,3.50646a26.43825,26.43825,0,0,1-9.19286,9.20334,26.89058,26.89058,0,0,1-9.21786,3.50646l-2.0872-3.28271A25.59815,25.59815,0,0,0,232.24843,163.14035Zm0-8.03354-2.53423,2.58592a51.75845,51.75845,0,0,0-6.21158-5.37205l2.33571-2.48681A50.1775,50.1775,0,0,1,232.24843,155.10681Z" style="fill:#5e71a8"/><path d="M265.54548,148.09291a2.98437,2.98437,0,0,1,.00894,5.96873h-.00894a2.85338,2.85338,0,0,1-1.59015-.472l1.01909,2.41222c-.96909.39746-2.0872.87048-2.90727,1.16882a85.6326,85.6326,0,0,1-9.73941,3.03441v4.60167c0,1.06872.49655,1.34252,1.61465,1.56628a23.10061,23.10061,0,0,0,2.88227.14917,42.016,42.016,0,0,0,8.64631-.87048v3.6321a70.6844,70.6844,0,0,1-8.84532.52209,27.67786,27.67786,0,0,1-4.1739-.2738c-2.1617-.39844-3.40382-1.59183-3.40382-3.73119V152.2461a20.57948,20.57948,0,0,0-.199-2.58691h3.67734a18.74587,18.74587,0,0,0-.19852,2.58691v4.70078a62.61871,62.61871,0,0,0,8.59631-2.76061,14.75668,14.75668,0,0,0,2.38522-1.14428,3.02994,3.02994,0,0,1-.72008-1.96471,2.97008,2.97008,0,0,1,2.95567-2.98437Zm0,4.427a1.44285,1.44285,0,1,0-1.41589-1.46786l-.00025.02524A1.443,1.443,0,0,0,265.54548,152.5199Z" style="fill:#5e71a8"/><path d="M281.97293,163.14035a23.41132,23.41132,0,0,0,9.04384-9.67539l1.93818,3.50646a26.43825,26.43825,0,0,1-9.19286,9.20334,26.88912,26.88912,0,0,1-9.21835,3.50646l-2.08671-3.28271A25.5982,25.5982,0,0,0,281.97293,163.14035Zm0-8.03354-2.53424,2.58592a51.75845,51.75845,0,0,0-6.21158-5.37205l2.33571-2.48681A50.17828,50.17828,0,0,1,281.97293,155.10681Z" style="fill:#5e71a8"/><path d="M316.36356,151.77405l-1.83867.77038,2.1117,1.29346a9.9742,9.9742,0,0,0-.81958,1.791,25.26584,25.26584,0,0,1-4.3484,8.28183,23.13321,23.13321,0,0,1-10.01293,7.0394l-2.93178-2.63692a19.87218,19.87218,0,0,0,10.01294-6.16795,17.6,17.6,0,0,0,3.52832-6.7656h-6.98165a27.92877,27.92877,0,0,1-6.28609,6.01976l-2.78276-2.08935a21.49878,21.49878,0,0,0,7.75173-8.009,11.23155,11.23155,0,0,0,1.1181-2.58691l3.65235,1.19434a25.85106,25.85106,0,0,0-1.51565,2.53686c-.0245.05-.0495.07458-.0745.1246h4.96946a7.79652,7.79652,0,0,0,2.1617-.29932l.17352.1001a28.8482,28.8482,0,0,0-1.81367-3.2091l1.96318-.79589A31.64339,31.64339,0,0,1,316.36356,151.77405Zm2.98129-1.14428-1.96269.845a26.328,26.328,0,0,0-2.01269-3.43184l1.96318-.79589A35.51431,35.51431,0,0,1,319.34485,150.62977Z" style="fill:#5e71a8"/></svg>