<svg viewBox="0 0 376 206" xmlns="http://www.w3.org/2000/svg"><g fill-rule="evenodd"><path d="m66.256 165.67238c-1.78772-2.55027-1.98447-4.18787 1.98988-3.45265 3.82407-.38263 7.72406-.06745 11.4603-1.256.88-.1442 1.76-.29231 2.6485-.43575a17.48681 17.48681 0 0 0 6.31561-1.27086c5.4671-1.76786 11.21929-2.35241 16.85026-3.097 5.72406-.75842 6.47194.54809 5.4398 6.13865a105.17962 105.17962 0 0 0 -12.89647 30.95482c-.401 1.60483-1.16067 1.64832-1.9935 1.3088-2.1176-.85684-4.47862-1.271-6.2461-2.85982-6.65143-6.01656-13.41162-11.92037-18.90963-19.07632-1.63421-2.26431-3.53852-4.33597-4.65865-6.95387z" fill="#d0171a"/><path d="m178.31114 134.14319c-2.81627 2.8618-2.74981 6.92319-4.0024 10.37582-3.07437 8.48361-5.13518 17.3405-7.59021 26.05031a6.77493 6.77493 0 0 1 -5.43253 4.91535c-2.26559.43993-4.15042-1.096-5.65732-3.00461-5.92219-7.47613-11.90937-14.92081-20.04841-20.19417-.67276-.44-1.27771-.9502-1.14981-1.8298.12913-.84255.939-.7503 1.53211-.85891 1.18914-.22665 2.27893-1.352 3.60077-.48323.366 1.02349-2.78385.72363-.89286 1.688 1.291.65417 2.73252 4.13717 4.56714 1.34761 3.68325-5.60134 8.7805-8.41223 15.07536-10.35731 6.14006-1.893 11.87325-5.13382 17.77592-7.79188a1.86392 1.86392 0 0 1 2.22224.14282z" fill="#e7dac6"/><path d="m305.39062 60.56934c.33975-.35249.68128-.71 1.02212-1.05478 2.985-1.06488 4.98785-3.50725 6.882-5.73545 2.80555-3.29589 6.25536-5.83643 9.253-8.875a3.31119 3.31119 0 0 1 3.8263-.826c.79131 3.65734 1.9075 7.154 1.7315 11.08439-.1992 4.58109 2.36614 8.81308 3.19394 13.34053a38.91661 38.91661 0 0 1 .73389 4.80709 18.79807 18.79807 0 0 0 -.90936-5.63169c-.18732-.78167-.09208-1.5885.80155-1.90675a1.1065 1.1065 0 0 1 1.51907.76527c1.08925 3.83642 4.74782 6.72279 4.16319 11.22435-.18829 1.377.117 2.85582-1.461 3.64927-6.71528-.282-13.41619-.66719-19.84843-2.87173-3.78488-2.48788-8.59586-2.15726-12.4196-4.61208-1.27129-.8139-2.68647-.16395-3.96216.56676a2.298 2.298 0 0 1 -2.54-.01056c-1.0063-.70955-.06154-1.54642-.10632-2.27407-.268-4.98865 2.95348-7.39586 6.60923-9.5838a2.58152 2.58152 0 0 0 1.51108-2.05575z" fill="#e77e9c"/><path d="m243.9195 105.66138c1.44313-.77946 2.89276-1.55775 4.3325-2.34011 5.69017-1.69263 10.60242-4.987 15.53048-8.08123 3.26414-2.04128 6.94262-4.02375 8.46069-8.072 1.84043-1.21122 2.35313-4.83971 4.98638-4.05052 2.63173.78551 1.20571 4.09989 1.9761 6.1727a3.44867 3.44867 0 0 1 -.10544 3.33631c-3.155 3.68612-3.61953 7.67824-1.62356 12.10563.69646 1.54726.12594 3.31568-.26117 4.89789a58.99469 58.99469 0 0 0 -1.21375 7.968c-.5047 5.303-3.51221 7.13185-8.00978 4.51157-7.47629-4.35692-15.53927-7.80718-21.95971-13.85672-.82768-.7759-1.94324-1.27147-2.11274-2.59152z" fill="#96bcbe"/><path d="m372.76864 34.92334c4.14912 4.25368 3.927 5.43808-1.27032 6.90814-.577-1.50823-1.85135-2.04715-3.2549-2.40956-8.13031-2.103-15.15376-6.83414-22.95748-9.71406-1.78962-.65232-2.89521-1.85611-.97441-3.68234a1.791 1.791 0 0 0 .5835-.98563c.69753-5.31575 4.65788-8.12856 8.41344-11.13818 3.06449-2.45953 5.05734-5.80378 6.72287-9.28159 1.08243-2.239 2.56577-3.558 5.07682-3.228 2.55458.333 3.1005 2.19171 3.25068 4.46431.58286 8.9338 2.89226 17.6864 2.79686 26.69229-.01784 1.23428.07867 2.24808 1.61294 2.37462z" fill="#f8e9cf"/><path d="m211.795 120.82612c2.66192-1.97937 5.34224-3.9457 8.00163-5.94559 1.88443-1.4191 3.84562-.80042 5.68329-.41248-1.13519 9.88286-2.89205 19.57849-3.47734 29.40444a6.59918 6.59918 0 0 1 -.88464 3.299c-1.9658-.42293-1.82611-2.239-2.34768-3.59378-.63969-1.65945-1.08207-3.48114-3.43274-3.63376-.24831 1.87434 2.22558 3.902.13193 5.37006-2.30247 1.6234-3.55562-1.07018-5.19584-2.046-1.54182-.91592-2.85614-2.20092-4.3644-3.14812-2.67894-1.67617-4.59942-3.63144-3.91349-6.936-1.02473-.8033-1.62777.01351-2.32234.17268a1.66612 1.66612 0 0 1 -2.15516-1.073 1.98 1.98 0 0 1 1.02611-2.591 2.57388 2.57388 0 0 1 1.42558-.52781c5.82264.35555 9.43278-4.65886 14.56775-5.98461a1.13417 1.13417 0 0 0 .84595-1.20483c-.94069-1.0827-2.87767.69546-3.58861-1.1492z" fill="#b1c05e"/><path d="m211.795 120.82612a3.18892 3.18892 0 0 0 1.09653.23806c1.50255-.32382 3.503-1.91784 4.243.349.63978 1.96675-1.78258 2.48508-3.1731 3.23437-2.81864 1.51817-6.38864 1.65531-8.30453 4.86642-.66258 1.124-2.13749.42832-3.2508.46749-1.13392.03525-2.27751-.35583-3.393.24885-.93553.50021-1.45812 1.12716-.78234 2.11412a1.0445 1.0445 0 0 0 1.88394.0397 1.70116 1.70116 0 0 1 2.57272-.69894c1.1097.6284.77934 1.7613.37416 2.73981-.75765 1.85475.17685 2.67457 1.66841 3.66241 2.72255 1.80128 5.26332 3.91889 7.80248 5.9871.83017.68164 1.613 1.5311 2.63087.769.95758-.71618-.07346-1.6049-.15324-2.4319-.11836-1.27406-3.11265-2.52376-.5564-3.64576 1.9981-.86352 3.671.50792 4.65183 2.691.8315 1.86557.48887 4.12505 2.01237 5.71467a3.0209 3.0209 0 0 1 -1.92768 3.9749 3.138 3.138 0 0 1 -4.19947-1.4968 7.891 7.891 0 0 0 -4.99433-3.62716c-5.9969-3.95451-11.36245-8.91032-18.16817-11.62068-1.35839-.53753-2.60439-1.31147-2.70612-2.91277-.12841-1.97434 1.74374-1.88742 2.91439-2.46032a19.60556 19.60556 0 0 0 3.0703-1.577 36.65464 36.65464 0 0 1 10.077-4.03385 19.52366 19.52366 0 0 0 6.61118-2.59172z" fill="#9dad3f"/><path d="m372.76864 34.92334c-1.541.0446-.501 1.849-1.58316 2.271-1.40241-.35037-1.08889-1.4171-1.01331-2.422.78063-10.25758-2.5224-20.13812-2.78763-30.30052a2.30452 2.30452 0 0 0 -2.16772-2.32c-1.44745-.02811-3.2545-.09559-3.91257 1.70507a30.0762 30.0762 0 0 1 -9.1193 12.55864c-.8375.72044-1.24311 1.6318-2.637 1.82179-1.52872.22079-2.242 1.21828-2.15208 3.29676.10593 2.43439-1.62193 4.6018-3.44422 6.64849 3.00176 1.11147 6.75046 1.574 9.02338 3.323 3.371 2.60586 7.13553 3.78263 10.77164 5.515a16.52976 16.52976 0 0 0 5.11928 1.50906c1.7388.22245 3.31706.963 2.63242 3.30182-5.37941-2.14249-10.79771-4.15478-16.097-6.45286a48.6961 48.6961 0 0 0 -12.44568-3.74089c-1.72024-.24315-3.653-.89917-3.94666-2.5766-.30516-1.63465 1.06135-3.128 2.16553-4.53737 5.90424-7.56153 14.08034-13.15434 18.88773-21.63195 1.75446-3.09321 4.5671-2.60639 7.01249-2.33749 2.02522.22115 2.12354 2.63323 2.32522 4.37884 1.15757 9.99187 2.24856 19.99087 3.36864 29.99021z" fill="#cabeaa"/><path d="m243.9195 105.66138c7.86961 6.61219 16.89386 11.41066 25.62288 16.69929 1.1992.72183 1.58673.6399 2.779-.27524 5.72045-4.3777 2.59384-11.09874 4.70375-16.38038-4.00538-2.99022.07991-7.30083-1.7413-10.66332-.69421-1.27409.02667-2.33391 1.28245-1.5934 1.50916.87905 1.625-.86792 2.534-.82176a88.45714 88.45714 0 0 1 -1.56993 18.57544 62.77111 62.77111 0 0 0 -.90366 11.06306 4.66842 4.66842 0 0 1 -2.48321 4.39675c-1.50455.75848-2.29736-1.16123-3.442-1.86826a115.91971 115.91971 0 0 0 -12.60111-7.28858 102.36373 102.36373 0 0 1 -17.6701-9.64485c1.17022-.53952 1.68112-2.25327 3.48923-2.19875z" fill="#80a0a1"/><path d="m35.5754 164.72166c4.02857-1.05809 7.99112.87518 12.03794.28991a2.37574 2.37574 0 0 1 2.82519 2.01613 3.62528 3.62528 0 0 1 -1.30237 3.72636 80.5082 80.5082 0 0 0 -22.27808 30.1672c-1.77791 4.27885-4.662 4.8885-8.41668 4.694-3.39589-.17166-3.58-3.01154-4.46819-5.38094-.97258-2.58711-.61108-5.30081-1.14581-7.91446.76483-1.21716-1.26435-3.3718 1.327-3.98572 1.96628.92865 2.05169 2.769 2.17214 4.57744.09323 1.399-.086 2.8184.11212 4.21111.29894 2.0292.44943 4.29735 2.927 4.89039 2.74109.66389 4.26269-1.11353 5.47451-3.23386a9.54167 9.54167 0 0 0 .99608-2.07256c2.05707-6.99227 6.83544-12.21209 11.49234-17.46538a50.0594 50.0594 0 0 0 5.20333-7.10013c1.59514-2.6218 1.0895-3.802-1.96272-4.68171a14.18344 14.18344 0 0 1 -4.00213-1.30119 2.07983 2.07983 0 0 1 -.99167-1.43659z" fill="#ba6924"/><path d="m305.39062 60.56934c1.99821 1.50972.17825 2.26951-.77463 2.60818-4.78639 1.68613-6.13136 5.70437-7.197 9.99364-.11185.46411-.01358.866.38679.87581.61069.04419 1.67807.016 1.7585-.24118.72229-2.27855 2.91232-1.68764 3.74347-1.14541 3.97848 2.56289 9.05393 2.143 12.84645 5.00282-2.42964 1.43562-4.51844-.40275-6.76076-.73529-.51209-.06031.18952-.04545-.31867-.08193-.34739-.01943-.38976.26373-.11235.51871-6.81175-1.24105-13.95488-.02919-21.03407-2.61287 5.27708-5.78198 11.55965-9.7624 17.46227-14.18248z" fill="#ca6984"/><path d="m336.44878 80.76609c1.7689-5.78418-2.278-9.79823-4.35234-14.45882-.25919 3.28654 1.786 6.50934.07249 10.55885-2.05533-11.32043-6.28572-21.45872-5.8672-32.46687.41768-.322.71235-.24689.89451.25463 1.83885 1.82488 1.06388 4.33608 1.73553 6.47947 2.21976 7.09962 4.17728 14.28758 8.45279 20.57084 1.41839 2.05955.96019 8.59067-.469 10.2203a.94935.94935 0 0 1 -.46678-1.1584z" fill="#c06881"/><path d="m110.96036 162.29873c-.644-.70928-.10439-1.43185-.07542-2.16482.09526-1.95764-.06813-3.3437-2.91946-3.05982a147.44148 147.44148 0 0 0 -20.09019 3.2824c-1.78173.42743-3.6472 1.49284-5.5206.17146 7.29146-3.12821 15.14047-4.35634 22.706-6.51982 1.70008-.48658 3.32588-1.28748 5.0433-1.66734 1.48345-.324 2.93469.00161 1.25241 1.83359-.99188 1.09309.06661 1.55337.25662 2.29593.51564 2.02292.83879 4.02948-.65266 5.82842z" fill="#c94645"/><path d="m13.65044 188.43485c-1.0536 1.13138 1.52123 3.03276-.823 3.885-2.4012-5.72161-3.3713-11.89685-5.76081-17.66085-1.40191-3.39423-2.81131-6.75986-4.43352-10.04485a1.00979 1.00979 0 0 1 .46536-1.45473c3.25211 2.8113 6.53727 5.59629 6.91962 10.33474a5.04226 5.04226 0 0 0 1.18652 3.15954c3.22988 3.44045 2.74539 7.62654 2.44583 11.78115z" fill="#b15521"/><path d="m195.10682 127.45163c-.74991 1.78849-2.58249 1.938-4.03456 2.574-1.8494.78029-1.67617 1.766-.37491 2.73225a20.3988 20.3988 0 0 0 3.937 2.22579c5.89839 2.61734 10.64388 6.79516 15.362 11.03877-4.22974-2.58878-8.59574-4.9942-12.65237-7.84043a32.83615 32.83615 0 0 0 -9.67914-4.50391c-1.1563-.35642-2.30681-.36087-2.16682-1.97459.1131-1.37932 1.04874-1.905 2.2525-2.21766 2.46586-.64178 4.90511-1.35234 7.3563-2.03422z" fill="#b8c17c"/><path d="m35.5754 164.72166c.55558.28649 1.11337.572 1.67085.862-.53432 1.34022-1.78307 1.46959-2.8895 1.43423-9.08119-.38642-18.20529-.47651-26.97934-3.36874a10.23866 10.23866 0 0 1 -3.41659-1.73083c-.46273-.49834-.8871-1.00406-.41124-1.713 10.48318 2.86168 21.2755 3.52011 32.02582 4.51634z" fill="#ac5d25"/><path d="m272.24317 87.16808c.09967 2.87945-1.7266 4.06362-3.81257 5.83232-5.20863 4.34533-11.59955 6.46563-17.07405 10.20927-.84194.58373-2.01164 2.11322-3.10455.1116 8.40507-4.77759 17.07585-9.16064 23.99117-16.15319z" fill="#7b999b"/><path d="m327.19624 44.65388c-.29888-.09451-.59539-.16885-.89268-.25539-4.14658.50864-6.14775 4.10068-8.99755 6.40756-2.81047 2.29045-5.13364 5.18252-7.74991 7.72515a3.15115 3.15115 0 0 1 -3.14336.98336c5.4939-5.27811 10.98834-10.53528 15.67335-16.58463 1.86191-2.4211 3.30053-1.88381 5.11015 1.72395z" fill="#a8516d"/><path d="m336.44878 80.76609c.15854.3849.30818.7692.46563 1.14635-9.66391.66623-18.81507-1.91232-27.952-4.54775-.48-.34738-.96077-.68625-1.9278-1.36169 3.43813.54166 6.17648 1.72943 9.11958 1.6602 6.56296 2.35631 13.4369 2.6865 20.29459 3.10289z" fill="#a04665"/><path d="m79.70619 160.9637c-3.65733 1.95248-7.53978 1.78581-11.4603 1.256 3.74325-1.11593 7.63391-.91513 11.4603-1.256z" fill="#c94645"/><path d="m3.54958 160.20542c.11842.33431.22765.67246.332 1.00831.01927.79269-.5544 1.37794-.73533 2.09018-.17773.43248-.3474.8698-.51317 1.31023a7.835 7.835 0 0 1 -1.17277-1.93029c-.23684-.89611-1.82878-1.53814-.74973-2.62922.85262-.87048 1.90371-.3225 2.839.15079z" fill="#c1936a"/><path d="m66.256 165.67238a22.09633 22.09633 0 0 1 4.65167 6.95675c-2.26505-1.84077-4.29692-3.82507-4.65167-6.95675z" fill="#c94645"/><path d="m3.14628 163.30391c-1.43278-1.28648-.28-1.6706.73533-2.09018 10.75382 4.26159 21.97567 4.98932 33.36464 4.37 1.72882.42087 3.4825.71308 5.16322 1.27618 2.48292.81786 3.01148 2.604 1.78242 4.79886-2.78395 5.01957-6.80533 9.13472-10.44983 13.48059a36.302 36.302 0 0 0 -5.86372 9.20954c-1.03553 2.45163-1.83563 4.99878-3.6217 7.127-2.4707 2.93682-6.68215 2.50735-8.17034-1.00669a14.57288 14.57288 0 0 1 -.70668-6.40351c.0766-2.04266.14213-4.148-1.72918-5.63088a52.62322 52.62322 0 0 0 -10.50416-25.13091z" fill="#db7a11"/></g></svg>