<?xml version="1.0" encoding="UTF-8"?>
<svg id="_レイヤー_1" data-name="レイヤー 1" xmlns="http://www.w3.org/2000/svg" viewBox="0 0 268 292">
  <defs>
    <style>
      .cls-1 {
        fill: #fff;
      }
    </style>
  </defs>
  <g>
    <g>
      <path class="cls-1" d="m135.00661,0C88.88596,0,51.5502,37.29861,51.5502,83.29819s37.33576,83.23736,83.45641,83.23736,83.51742-37.29861,83.51742-83.29819S181.12727,0,135.00661,0Zm0,151.99334c-38.00683,0-68.87594-30.72724-68.87594-68.69515S96.99978,14.60304,135.00661,14.60304s68.87594,30.72724,68.87594,68.69515-30.80811,68.69515-68.87594,68.69515Z"/>
      <path class="cls-1" d="m151.60027,121.99626l-10.73709.54761-.36604-14.29881c-1.83018.24338-3.59936.42592-5.42954.42592-2.07421,0-4.14842-.18254-6.16162-.54761l-.36604,14.4205-10.005-.48677c-4.39244-7.17983-17.32574-22.69557-44.41248-12.89935,0,0,17.08172,37.66368,43.43638,18.49718l10.8591,1.09523-.42704,16.91519s2.19623,1.21692,6.71068,1.21692,6.77169-1.21692,6.77169-1.21692l-.42705-16.7935,11.53016-1.15607c26.35466,19.16649,43.43639-18.49718,43.43639-18.49718-27.08671-9.9179-40.08103,5.53699-44.41247,12.77766Zm-40.14204,2.06876c-.30503.73015-.73207,1.09523-6.28364-.97354-10.73709-4.07668-27.39177-11.07397-27.08674-11.86497.30503-.73015,17.38675,5.05022,28.12384,9.1269,5.49055,2.06877,5.49055,2.92062,5.24653,3.71161Zm53.44139-1.03438c-5.49055,2.06876-5.9786,1.76453-6.28363.97354-.30503-.73015-.24402-1.582,5.24653-3.65076,10.73709-4.07668,27.81881-9.9179,28.12384-9.1269.244.73015-16.41067,7.72744-27.08675,11.80412Z"/>
    </g>
    <g>
      <path class="cls-1" d="m162.7034,47.03397c4.57546,3.40738,7.50375,8.64013,7.50375,15.57658,0,.42592,0,.791-.06101,1.21692-.85408-12.35174-10.31004-18.80142-22.32824-18.80142-4.08742,0-7.86979.791-11.10312,2.2513-.73207.30423-1.40314.66931-2.0132,1.03438-.67107-.36508-1.34213-.73015-2.0132-1.03438-3.23333-1.46031-7.01571-2.2513-11.10312-2.2513-12.01821,0-21.47416,6.44968-22.32825,18.80142,0-.42592-.06101-.791-.06101-1.21692,0-6.99729,2.9283-12.2909,7.62577-15.69827-15.06852-2.43384-28.67289.60846-28.67289.60846,0,0,3.17232,30.48386,23.42636,44.90436,1.76917,1.27777,3.53836,2.37299,5.24653,3.34653-1.89119-2.19046-3.41635-4.6243-4.63647-7.17983-1.83018-4.07668-2.86729-8.51844-2.68427-12.9602.24402,4.38091,1.40314,8.70098,3.53836,12.53428,2.07421,3.8333,4.88049,7.17983,8.23583,9.9179,6.64967,5.53699,15.25154,8.51844,23.8534,8.51844s17.20374-2.98145,23.85341-8.51844c3.29433-2.73807,6.16162-6.14545,8.17482-9.9179,2.07421-3.8333,3.29433-8.09252,3.53835-12.53428.24402,4.44176-.79307,8.88352-2.68427,12.9602-1.22012,2.67722-2.8673,5.17191-4.81948,7.42321.06101-.06085.12202-.12169.24402-.18254,1.70816-.97354,3.41635-2.06876,5.18552-3.28568,20.19304-14.4205,23.42636-44.90436,23.42636-44.90436,0,0-14.09241-3.22484-29.34394-.60846Zm-66.06966,16.55011c-.30503.36508-.24402.91269-2.68427-1.33861-4.81948-4.44176-12.14022-11.74328-11.83519-12.10836s8.17482,6.38883,12.99431,10.89144c2.44024,2.2513,1.83018,2.19046,1.52514,2.55553Zm58.6269,20.14003c-2.74528,5.47614-6.71068,10.7089-10.73709,14.17712,2.62326-3.16399,5.12451-6.99729,7.01571-10.89143,5.49055-11.07397,4.51445-18.80142-.30503-21.17441-2.62326-1.27777-5.85659-.73015-9.08991,1.88623,1.70816,2.43384,2.80629,5.84122,2.80629,10.10044,0,5.90206-2.07421,11.74328-5.12451,14.90727,1.28113-2.79892,2.62326-7.5449,2.62326-12.65597,0-7.48406-3.29433-12.1692-7.44275-12.1692-4.08741,0-7.44275,4.6243-7.44275,12.1692,0,5.11106,1.28113,9.85705,2.62327,12.65597-3.05031-3.16399-5.12451-9.00521-5.12451-14.90727,0-4.25922,1.09811-7.6666,2.80629-10.10044-3.29433-2.61638-6.46666-3.16399-9.08991-1.88623-4.81948,2.373-5.79558,10.10044-.30503,21.17441,1.95219,3.89414,4.39244,7.6666,7.01571,10.89143-4.02641-3.52907-7.99181-8.70098-10.73709-14.17712-5.49055-11.07397-3.72138-19.16649,1.95219-22.02626,3.9654-1.94707,8.84589-.85185,13.29934,3.77245,1.46414-1.09523,3.17232-1.70369,4.9415-1.70369,1.83018,0,3.47735.60846,4.94149,1.70369,4.45344-4.6243,9.33393-5.78037,13.29933-3.77245,5.79558,2.85976,7.56476,10.95227,2.07421,22.02626Zm20.8031-21.53949c-2.44025,2.31215-2.37924,1.70369-2.68427,1.33861-.30503-.36508-.91509-.30423,1.52515-2.55553,4.81948-4.44176,12.68927-11.19567,12.9943-10.89144.36604.36508-7.01571,7.6666-11.83519,12.10836Z"/>
      <path class="cls-1" d="m121.52425,42.59221c4.88049,0,9.45595,1.15608,13.11632,3.28569,3.66037-2.19046,8.23583-3.28569,13.11632-3.28569,4.51445,0,8.72387.97354,12.26224,2.79892-3.72138-14.90727-25.37856-26.46802-25.37856-26.46802,0,0-21.71819,11.62159-25.37856,26.46802,3.53836-1.82538,7.74779-2.79892,12.26224-2.79892Zm13.48236-19.77495c.48805,0,.85408,10.34382.85408,16.85434,0,3.34653-.36604,2.85976-.85408,2.85976s-.85408.48677-.85408-2.85976c.061-6.57137.42703-16.85434.85408-16.85434Z"/>
    </g>
  </g>
  <g>
    <path class="cls-1" d="m11.10312,216.85519c7.50376,0,11.53016,4.98938,11.53016,9.91789,0,5.71952-4.45345,10.64805-11.10312,10.64805-7.50376,0-11.53016-4.98938-11.53016-9.85706,0-5.78035,4.51445-10.70888,11.10312-10.70888Zm.61006,19.16649c4.75848,0,7.19873-4.38092,7.19873-8.09251,0-5.35444-2.92829-9.73536-7.99181-9.73536-4.75848,0-7.19873,4.13752-7.19873,8.09251,0,4.44177,2.68427,9.73536,7.99181,9.73536Z"/>
    <path class="cls-1" d="m48.98794,222.63556c-.79308-2.43384-2.37924-4.44175-6.22263-4.44175-4.75848,0-7.19873,4.38092-7.19873,8.09251,0,4.38092,2.68427,9.67451,7.9918,9.67451,2.0132,0,4.08741-.60846,5.12452-2.98145l1.0371-2.37299,1.09811.18253c-.30503,1.21692-.73207,3.34653-1.09811,5.05021-2.0132.91269-4.88049,1.4603-6.34464,1.4603-7.50376,0-11.53016-4.98938-11.53016-9.85706,0-5.78037,4.45345-10.64805,11.10312-10.64805,2.13522,0,4.45345.36508,6.52766,1.15607.06101,1.03439.30503,3.28568.61006,4.6243h-1.09811v.06087Z"/>
    <path class="cls-1" d="m61.4942,221.11441c0-2.37299-.36604-2.73807-3.23333-2.73807-.30503,0-.30503-.06085-.30503-.48676,0-.48676.06101-.66931.30503-.66931.61006,0,2.25723.18253,4.81948.18253,4.88049,0,8.66287-.18253,11.22513-.18253.12201,0,.18302.18253.18302.36508,0,.18253-.18302.66931-.18302,2.49469,0,.85184.18302,1.21692.18302,1.33862,0,.18253-.06101.30423-.06101.36508h-1.09811c-.30503-2.67722-.67107-3.46823-5.12451-3.46823-3.29433,0-3.59936.1217-3.59936,2.9206v4.74598h2.74528c1.70817,0,2.68427-.18253,3.29433-2.19046.18302-.54761.24402-.60846.73207-.60846.30503,0,.42704.06085.42704.24338,0,.60846-.12201,3.0423-.12201,4.07669,0,1.39945.12201,2.12961.12201,2.37299,0,.18253-.06101.18253-.61006.18253s-.61006-.06085-.61006-.30423c0-.54761-.30503-1.82538-.79308-2.19046s-.85408-.48676-2.19623-.48676h-3.05031v4.32007c0,1.33862.18302,3.28568.36604,3.46823.42704.42593,1.09811.60846,3.72138.60846,2.44025,0,2.9893-.18253,3.66037-.42593,1.52515-.60846,2.37924-3.40738,2.80629-3.40738.18302,0,.9761.30423.9761.42593,0,.06085-1.40314,3.34653-1.64716,4.07669-.18302.60846-.18302.66931-.42704.66931-1.70817,0-8.11382-.18253-10.98111-.18253-2.50126,0-4.20943.18253-4.81949.18253-.30503,0-.30503-.18253-.30503-.66931,0-.42593.06101-.48676.30503-.48676,2.86729,0,3.23332-.36508,3.23332-2.73807v-11.80414h.06101Z"/>
    <path class="cls-1" d="m90.59413,218.9848c.18302-.54761,2.62327-2.12961,2.68427-2.12961.18302,0,.30503.18253,1.28113,2.55554l6.03961,14.23796c.73207,1.70368,1.76917,2.19046,3.29433,2.19046.18302,0,.24402.06085.24402.48676,0,.60846-.06101.66931-.30503.66931s-1.76917-.18253-3.41635-.18253c-3.11132,0-4.63647.18253-5.24653.18253-.36604,0-.48805-.18253-.48805-.73016,0-.30423.12201-.42593.48805-.42593.18302,0,.30503.06085.61006.06085,1.22012,0,1.64716-.24338,1.64716-1.03439,0-.24338-.12201-.73016-.36604-1.33862l-1.52515-3.95499h-7.13772c-1.09811,2.67722-1.46414,3.65076-1.46414,4.80683,0,1.27777,1.0371,1.4603,2.86729,1.4603.06101.1217.18302.30423.18302.48676,0,.48676-.18302.66931-.42704.66931-.30503,0-1.28113-.18253-3.29433-.18253-.61006,0-3.72138.18253-4.08741.18253-.30503,0-.42704-.06085-.42704-.60846,0-.18253.06101-.36508.12201-.54761,1.58616-.06085,2.68427-.30423,3.35534-2.19046l5.36855-14.66386Zm-1.64716,9.2486h6.03961l-3.35534-7.97083-2.68427,7.97083Z"/>
    <path class="cls-1" d="m113.28842,219.83664c-1.22012-1.33862-1.58616-1.4603-3.23333-1.4603-.54905,0-.61006-.06085-.61006-.48676,0-.60846.06101-.66931.61006-.66931.61006,0,1.40314.18253,3.35534.18253,1.09811,0,2.50126-.18253,2.74528-.18253.12201,0,.18302.06085.36604.24338,4.14842,5.23276,7.44275,9.73536,11.46916,14.17711v-10.52635c0-2.12961-.61006-2.73807-2.74528-2.73807-.30503,0-.42704-.06085-.42704-.60846,0-.42593.06101-.54761.42704-.54761.67107,0,2.19623.18253,3.72138.18253,1.40314,0,3.17232-.18253,3.35534-.18253s.30503.18253.30503.60846-.12201.60846-.79308.60846c-2.13522,0-2.31824.42593-2.31824,2.73807v16.24589h-.9761c-6.9547-7.72745-12.81129-16.36757-13.66537-16.48927v12.23005c0,2.37299.36604,2.73807,3.23333,2.73807.30503,0,.30503.06085.30503.48676,0,.48676-.06101.66931-.30503.66931-.61006,0-2.25723-.18253-4.08741-.18253-1.70817,0-3.35534.18253-3.9654.18253-.30503,0-.30503-.18253-.30503-.66931,0-.42593.06101-.48676.30503-.48676,2.86729,0,3.23333-.36508,3.23333-2.73807v-13.32529h0Z"/>
    <path class="cls-1" d="m155.99272,220.50595c-.73208-1.76453-1.22012-2.12961-2.80629-2.12961-.18301,0-.30503-.1217-.30503-.54761,0-.54761.12202-.60846.18301-.60846.30503,0,1.89119.18253,4.14841.18253,1.64717,0,3.66037-.18253,4.20942-.18253.18301,0,.24402.18253.24402.60846,0,.48676-.12202.60846-.36604.60846-1.89119,0-2.13522.30423-2.13522.85184,0,1.4603,2.74528,6.38883,5.18552,13.08189h.06101c2.19623-6.69306,4.51445-11.37821,4.51445-12.65596,0-.73016-.42705-1.27777-2.50126-1.27777-.12202,0-.30503-.1217-.30503-.60846,0-.30423.12202-.54761.24402-.54761.79307,0,1.34214.18253,3.29433.18253s2.80629-.18253,3.17233-.18253c.24402,0,.30503.1217.30503.54761,0,.60846-.06101.60846-.42705.60846-1.76917,0-2.0132.73016-8.60187,18.55803-.12202.30423-.24402.42593-.61006.42593s-.42705-.06085-.61006-.42593l-6.89365-16.48927Z"/>
    <path class="cls-1" d="m182.89644,221.11441c0-2.37299-.36604-2.73807-3.23332-2.73807-.30503,0-.30503-.06085-.30503-.48676,0-.48676.06101-.66931.30503-.66931.61006,0,2.25723.18253,4.81948.18253,2.50126,0,4.20942-.18253,4.81948-.18253.30503,0,.30503.18253.30503.66931,0,.42593-.06101.48676-.30503.48676-2.8673,0-3.23332.36508-3.23332,2.73807v11.98667c0,2.37299.36604,2.73807,3.23332,2.73807.30503,0,.30503.06085.30503.48676,0,.48676-.06101.66931-.30503.66931-.61006,0-2.25723-.18253-4.81948-.18253-2.50126,0-4.20942.18253-4.81948.18253-.30503,0-.30503-.18253-.30503-.66931,0-.42593.06101-.48676.30503-.48676,2.8673,0,3.23332-.36508,3.23332-2.73807v-11.98667Z"/>
    <path class="cls-1" d="m214.00958,236.75185c-.06101.18253-.18301.24338-.42705.24338-.67107,0-4.39245-.18253-11.53016-.18253-2.50126,0-4.20942.18253-4.81948.18253-.30503,0-.30503-.18253-.30503-.66931,0-.42593.06101-.48676.30503-.48676,2.8673,0,3.23332-.36508,3.23332-2.73807v-11.98667c0-2.37299-.36604-2.73807-3.23332-2.73807-.30503,0-.30503-.06085-.30503-.48676,0-.48676.06101-.66931.30503-.66931.61006,0,2.25723.18253,4.81948.18253s4.20942-.18253,4.81948-.18253c.30503,0,.30503.18253.30503.66931,0,.42593-.06101.48676-.30503.48676-2.8673,0-3.23332.36508-3.23332,2.73807v10.95228c0,3.0423,1.03711,3.58991,4.08742,3.58991,4.14841,0,5.00251-.60846,5.49055-1.70368l.85408-1.76453c.06101-.18253.18301-.30423.30503-.30423.61006,0,1.0981.1217,1.0981.30423,0,.06085-.06101.24338-.36604,1.27777l-1.0981,3.28568Z"/>
    <path class="cls-1" d="m238.90008,236.75185c-.06101.18253-.18301.24338-.42705.24338-.67107,0-4.39245-.18253-11.53016-.18253-2.50126,0-4.20942.18253-4.81948.18253-.30503,0-.30503-.18253-.30503-.66931,0-.42593.06101-.48676.30503-.48676,2.8673,0,3.23332-.36508,3.23332-2.73807v-11.98667c0-2.37299-.36604-2.73807-3.23332-2.73807-.30503,0-.30503-.06085-.30503-.48676,0-.48676.06101-.66931.30503-.66931.61006,0,2.25723.18253,4.81948.18253,2.50126,0,4.20942-.18253,4.81948-.18253.30503,0,.30503.18253.30503.66931,0,.42593-.06101.48676-.30503.48676-2.8673,0-3.23332.36508-3.23332,2.73807v10.95228c0,3.0423,1.03711,3.58991,4.08742,3.58991,4.14841,0,5.00251-.60846,5.49055-1.70368l.85408-1.76453c.06101-.18253.18301-.30423.30503-.30423.61006,0,1.0981.1217,1.0981.30423,0,.06085-.06101.24338-.36604,1.27777l-1.0981,3.28568Z"/>
    <path class="cls-1" d="m254.45665,218.9848c.18301-.54761,2.62326-2.12961,2.68427-2.12961.18301,0,.30503.18253,1.28113,2.55554l6.03961,14.23796c.73208,1.70368,1.76917,2.19046,3.29433,2.19046.18301,0,.24402.06085.24402.48676,0,.60846-.06101.66931-.30503.66931s-1.76917-.18253-3.41635-.18253c-3.11132,0-4.63647.18253-5.24653.18253-.36604,0-.48804-.18253-.48804-.73016,0-.30423.12202-.42593.48804-.42593.18301,0,.30503.06085.61006.06085,1.22012,0,1.64717-.24338,1.64717-1.03439,0-.24338-.12202-.73016-.36604-1.33862l-1.52515-3.95499h-7.13773c-1.0981,2.67722-1.46414,3.65076-1.46414,4.80683,0,1.27777,1.03711,1.4603,2.8673,1.4603.06101.1217.18301.30423.18301.48676,0,.48676-.18301.66931-.42705.66931-.30503,0-1.28113-.18253-3.29433-.18253-.61006,0-3.72138.18253-4.08742.18253-.30503,0-.42705-.06085-.42705-.60846,0-.18253.06101-.36508.12202-.54761,1.58616-.06085,2.68427-.30423,3.35534-2.19046l5.36857-14.66386Zm-1.64715,9.2486h6.03961l-3.35534-7.97083-2.68427,7.97083Z"/>
  </g>
  <g>
    <path class="cls-1" d="m75.28159,189.2311c0-1.39945-.24402-1.582-1.89119-1.582q-.18302,0-.18302-.30423c0-.30423,0-.36508.18302-.36508.36604,0,1.34213.1217,2.80629.1217s2.44025-.1217,2.80629-.1217c.18302,0,.18302.1217.18302.36508s0,.30423-.18302.30423c-1.64716,0-1.89119.24338-1.89119,1.582v6.99729c0,1.39945.24402,1.582,1.89119,1.582q.18302,0,.18302.30423c0,.30423,0,.36508-.18302.36508-.36604,0-1.34213-.1217-2.80629-.1217s-2.44025.1217-2.80629.1217c-.18302,0-.18302-.1217-.18302-.36508s0-.30423.18302-.30423c1.64716,0,1.89119-.24338,1.89119-1.582v-6.99729Z"/>
    <path class="cls-1" d="m90.2891,189.59618c0,.18253-.06101.24338-.24402.24338-.18302,0-.30503,0-.48805-.06085-.24402-1.15607-.9761-2.19046-2.31824-2.19046-1.0371,0-1.89119.79099-1.89119,1.64285,0,2.73807,5.61256,2.19046,5.61256,6.2063,0,1.88623-1.64716,3.34653-4.08741,3.34653-1.09811,0-2.44025-.30423-2.9893-.66931-.12201-.73016-.24402-1.52115-.30503-2.43384l.12201-.1217h.18302c.12201,0,.24402,0,.36604.06085.24402,1.33862,1.34213,2.37299,2.68427,2.37299,1.40314,0,2.19623-.85184,2.19623-2.06876,0-2.73807-5.49055-2.25131-5.49055-5.9629,0-1.52115,1.0371-3.164,3.72138-3.164,1.22012,0,2.19623.30423,2.80629.54761l.122,2.25131Z"/>
    <path class="cls-1" d="m97.36581,189.2311c0-1.39945-.24402-1.582-1.89119-1.582q-.18302,0-.18302-.30423c0-.30423,0-.36508.18302-.36508.36604,0,1.34213.1217,2.80629.1217,2.80629,0,5.06351-.1217,6.58867-.1217.06101,0,.12201.1217.12201.24338,0,.1217-.12201.36508-.12201,1.4603,0,.48676.12201.73016.12201.79099,0,.1217,0,.18253-.06101.24338h-.61006c-.18302-1.52115-.36604-2.00791-2.9893-2.00791-1.95219,0-2.07421.06085-2.07421,1.70368v2.79892h1.58616c.9761,0,1.52515-.1217,1.89119-1.27777.12201-.30423.12201-.36508.42704-.36508.18302,0,.24402.06085.24402.1217,0,.36508-.06101,1.76453-.06101,2.37299,0,.79099.06101,1.27777.06101,1.39945q0,.1217-.36604.1217c-.30503,0-.36604,0-.36604-.18253,0-.30423-.18302-1.03439-.48805-1.27777s-.48805-.30423-1.28113-.30423h-1.76917v2.55554c0,.79099.12201,1.88623.24402,2.00791.24402.24338.67107.36508,2.13522.36508,1.40314,0,1.76917-.1217,2.13522-.24338.91509-.36508,1.40314-2.00791,1.64716-2.00791.12201,0,.54905.18253.54905.24338s-.79308,1.94708-.91509,2.37299q-.12201.36508-.24402.36508c-.9761,0-4.69747-.1217-6.40565-.1217-1.46414,0-2.44025.1217-2.80629.1217-.18302,0-.18302-.1217-.18302-.36508s0-.30423.18302-.30423c1.64716,0,1.89119-.24338,1.89119-1.582v-6.99727h0Z"/>
    <path class="cls-1" d="m110.36012,191.90833h6.77169v1.39945h-6.77169v-1.39945Z"/>
    <path class="cls-1" d="m128.53996,189.59618c0,.18253-.06101.24338-.24402.24338-.18302,0-.30503,0-.48805-.06085-.24402-1.15607-.9761-2.19046-2.31824-2.19046-1.0371,0-1.89119.79099-1.89119,1.64285,0,2.73807,5.61256,2.19046,5.61256,6.2063,0,1.88623-1.64716,3.34653-4.08741,3.34653-1.09811,0-2.44025-.30423-2.9893-.66931-.12201-.73016-.24402-1.52115-.30503-2.43384l.12201-.1217h.18302c.12201,0,.24402,0,.36604.06085.24402,1.33862,1.34213,2.37299,2.68427,2.37299,1.40314,0,2.19623-.85184,2.19623-2.06876,0-2.73807-5.49055-2.25131-5.49055-5.9629,0-1.52115,1.0371-3.164,3.72138-3.164,1.22012,0,2.19623.30423,2.80629.54761l.122,2.25131Z"/>
    <path class="cls-1" d="m135.55566,189.2311c0-1.39945-.24402-1.582-1.89119-1.582q-.18302,0-.18302-.30423c0-.30423,0-.36508.18302-.36508.36604,0,1.34213.1217,2.80629.1217s2.44025-.1217,2.80629-.1217c.18301,0,.18301.1217.18301.36508s0,.30423-.18301.30423c-1.64716,0-1.89119.24338-1.89119,1.582v2.61637h6.71068v-2.61637c0-1.39945-.24402-1.582-1.89119-1.582q-.18301,0-.18301-.30423c0-.30423,0-.36508.18301-.36508.36604,0,1.34214.1217,2.80629.1217s2.44025-.1217,2.80629-.1217c.18301,0,.18301.1217.18301.36508s0,.30423-.18301.30423c-1.64717,0-1.89119.24338-1.89119,1.582v6.99729c0,1.39945.24402,1.582,1.89119,1.582q.18301,0,.18301.30423c0,.30423,0,.36508-.18301.36508-.36604,0-1.34214-.1217-2.80629-.1217s-2.44025.1217-2.80629.1217c-.18301,0-.18301-.1217-.18301-.36508s0-.30423.18301-.30423c1.64717,0,1.89119-.24338,1.89119-1.582v-3.46823h-6.71068v3.46823c0,1.39945.24402,1.582,1.89119,1.582q.18301,0,.18301.30423c0,.30423,0,.36508-.18301.36508-.36604,0-1.34214-.1217-2.80629-.1217s-2.44025.1217-2.80629.1217c-.18302,0-.18302-.1217-.18302-.36508s0-.30423.18302-.30423c1.64716,0,1.89119-.24338,1.89119-1.582v-6.99729Z"/>
    <path class="cls-1" d="m154.34555,189.2311c0-1.39945-.24402-1.582-1.89119-1.582q-.18301,0-.18301-.30423c0-.30423,0-.36508.18301-.36508.36604,0,1.34214.1217,2.80629.1217s2.44025-.1217,2.80629-.1217c.18301,0,.18301.1217.18301.36508s0,.30423-.18301.30423c-1.64717,0-1.89119.24338-1.89119,1.582v6.99729c0,1.39945.24402,1.582,1.89119,1.582q.18301,0,.18301.30423c0,.30423,0,.36508-.18301.36508-.36604,0-1.34214-.1217-2.80629-.1217s-2.44025.1217-2.80629.1217c-.18301,0-.18301-.1217-.18301-.36508s0-.30423.18301-.30423c1.64717,0,1.89119-.24338,1.89119-1.582v-6.99729Z"/>
    <path class="cls-1" d="m176.12475,194.46387c0,3.164.24402,3.34653,1.83018,3.34653.36604,0,.42705.1217.42705.30423,0,.24338-.06101.36508-.18301.36508-.30503,0-.9761-.1217-2.68427-.1217-.67107,0-2.19623.1217-2.74528.1217-.12202,0-.18301,0-.18301-.36508,0-.30423,0-.36508.24402-.36508,1.52515,0,1.64717-.30423,1.64717-2.06876,0-2.37299-.06101-4.80683-.06101-7.11899h-.06101c-1.03711,2.31214-3.72138,8.51844-4.20942,10.03959h-.48804c-.48804-1.64285-2.56227-6.26713-3.9654-9.49198h-.06101c-.06101,2.25131-.18301,4.74598-.18301,6.81476,0,1.4603.30503,1.76453,1.64717,1.76453.24402,0,.30503,0,.30503.36508,0,.24338-.06101.30423-.18301.30423-.24402,0-1.40313-.1217-2.07421-.1217-1.89119,0-2.44025.1217-2.56227.1217s-.12202-.06085-.12202-.30423q0-.36508.24402-.36508c1.52515,0,1.70816-.54761,1.76917-2.12961.12202-1.70368.24402-4.19837.24402-6.32798,0-1.4603-.24402-1.76453-1.89119-1.76453-.18301,0-.24402,0-.24402-.24338,0-.36508,0-.42593.18301-.42593.30503,0,1.03711.1217,2.13522.1217.73208,0,.91509-.1217,1.15911-.1217.30503,0,.36604.06085.48804.24338l3.84338,8.39674,3.59936-8.15336c.18301-.48676.24402-.48676.36604-.48676.24402,0,1.46414.1217,2.25723.1217.73208,0,1.03711-.1217,1.28113-.1217.18301,0,.24402,0,.24402.36508q0,.30423-.18301.30423c-1.64717,0-1.76917.1217-1.76917,2.12961v4.86768h-.06103Z"/>
    <path class="cls-1" d="m186.92285,188.01418c.12202-.30423,1.52515-1.21692,1.58616-1.21692.12202,0,.18301.1217.73208,1.52115l3.53835,8.27506c.42705.97354,1.03711,1.27777,1.9522,1.27777.12202,0,.12202.06085.12202.30423q0,.36508-.18301.36508c-.12202,0-1.03711-.1217-2.0132-.1217-1.83018,0-2.68427.1217-3.05031.1217-.24402,0-.30503-.1217-.30503-.42593,0-.18253.06101-.24338.30503-.24338h.36604c.73208,0,.9761-.1217.9761-.60846,0-.1217-.06101-.42593-.24402-.79099l-.91509-2.31214h-4.14841c-.61006,1.52115-.85408,2.12961-.85408,2.79892,0,.73016.61006.85184,1.64717.85184.06101.06085.12202.18253.12202.30423,0,.30423-.12202.36508-.24402.36508-.18301,0-.73208-.1217-1.9522-.1217-.36604,0-2.19623.1217-2.37924.1217s-.24402-.06085-.24402-.36508c0-.1217,0-.24338.06101-.30423.91509,0,1.58616-.18253,1.9522-1.27777l3.17223-8.51846Zm-.91509,5.41529h3.53835l-1.9522-4.6243-1.58614,4.6243Z"/>
  </g>
  <path class="cls-1" d="m124.26953,262.55055c.67107-1.52115.85408-2.73807.54905-3.58991-.24402-.54761-.06101-.91269.42704-.91269s1.09811.24338,1.83018.79099c.67107.54761,1.15911,1.03439,1.28113,1.39945.06101.30423.06101.66931-.24402.97354-.61006.60846-1.58616,1.88623-2.74528,3.83329-.91509,1.33862-1.89119,2.73807-2.86729,4.01584l.24402.24338,1.0371,1.09522c.30503.36508.36604.97354.24402,1.64285-.18302,1.94708-.24402,6.81476-.24402,14.66389,0,1.09522-.12201,2.06876-.36604,2.85977-.30503.79099-.67107,1.09522-.9761.73016-.30503-.30423-.67107-.91269-.91509-1.64285-.24402-.79099-.30503-1.39945-.24402-1.88623.61006-2.79892.91509-5.41529.91509-7.84913,0-2.37299,0-4.19837-.06101-5.29361-.06101-1.09522-.24402-2.00791-.48805-2.49469-.06101-.18253-.18302-.36508-.18302-.54761-.06101.06085-.12201.1217-.18302.24338-1.52515,1.76453-2.9283,3.164-4.08741,4.07669-.61006.54761-1.09811.91269-1.46414.97354-.36604.06085-.54905-.06085-.42704-.24338.06101-.24338.30503-.54761.54905-.73016,2.0132-2.31214,3.78238-4.56345,5.30753-6.69306,1.34215-2.31214,2.50127-4.13752,3.11133-5.65867Zm12.26224,25.49448c-1.28113.91269-2.74528,1.582-4.39244,2.06876-1.64716.42593-3.41635.54761-5.18552.36508-.48805-.06085-.54905-.24338-.06101-.36508,3.35534-.91269,5.85659-1.94708,7.38175-2.85977.67107-.54761,1.40314-1.09522,2.0132-1.582-1.58616-.60846-2.9283-1.09522-4.08741-1.33862-.42704-.06085-.67107-.30423-.79308-.54761-.06101-.24338,0-.66931.24402-1.15607.54905-.66931,1.09811-1.76453,1.58616-3.0423-1.95219.24338-3.84339.66931-5.49055,1.03439-.36604.06085-.85408.06085-1.34213-.06085s-.91509-.36508-1.28113-.79099c-.36604-.36508-.24402-.66931.24402-.66931l8.35784-.73016.54905-1.52115c.24402-.54761.24402-1.15607.06101-1.64285-.18302-.48676-.12201-.79099.18302-.85184.24402-.06085.73207.1217,1.34213.54761.61006.54761.9761.97354,1.0371,1.21692.06101.30423,0,.60846-.24402.85184s-.48805.66931-.73207,1.21692l2.92829-.24338c.61006-.06085,1.28113-.18253,1.83018-.24338,0-.54761-.06101-.97354-.24402-1.27777-.12202-.36508,0-.60846.36604-.66931s.79307,0,1.28113.24338c.54905.24338.9761.54761,1.0981.79099.18301.18253.24402.42593.12202.60846,2.25723-.24338,4.20942-.54761,5.9176-.79099.48804-.06085.9761-.06085,1.52515.06085.48804.18253,1.03711.54761,1.58616,1.03439.54905.42593.73208.79099.61006,1.03439-.06101.24338-.42705.36508-.9761.36508-.67107,0-2.62326-.1217-5.67356-.24338-1.28113-.06085-2.56227-.06085-3.84338-.06085-.06101.18253-.18301.42593-.24402.66931-.54905,1.76453-1.40313,3.46823-2.31823,4.92853-.18301.24338-.36604.48676-.54905.73016,1.70816.54761,3.78239,1.39945,5.9786,2.31214.73208.24338,1.40313.85184,1.9522,1.70368.54905.79099.85408,1.52115.85408,2.00791,0,.54761-.24402.79099-.73208.85184-.42705,0-1.03711-.24338-1.70816-.73016-3.17233-2.25131-5.67356-3.89414-7.44276-4.86768-.48808.66933-1.09814,1.21696-1.7082,1.64287Zm.24402-24.27756c0-1.27777-.06101-2.06876-.24402-2.43384l-.91509.30423c-1.58616.54761-2.86729.79099-3.72138.91269-.24402.06085-.48805.06085-.61006.06085-.06101,0-.06101-.18253.06101-.36508,2.19623-.85184,3.90439-1.70368,5.18552-2.43384s2.13522-1.27777,2.62326-1.70368c.36604-.24338.54905-.54761.54905-.79099s.12202-.42593.36604-.48676c.18301-.06085.67107.06085,1.34214.30423s1.22012.60846,1.58616.97354c.36604.30423.54905.60846.48804.73016-.06101.24338-.48804.36508-1.0981.48676-.61006.06085-1.52515.36508-2.50126.73016-.54905.24338-1.03711.42593-1.52515.66931.36604.24338.61006.60846.61006.91269l-.18301.66931c-.06101.24338-.24402,1.03439-.24402,2.19046,2.19623-.36508,4.08742-.66931,5.55156-1.03439.42705-.06085.9761-.06085,1.40313.06085.36604.18253.91509.48676,1.40313.79099.48804.36508.67107.73016.54905.97354-.06101.24338-.36604.36508-.79307.36508s-1.64717.06085-3.66037.06085c-1.46414,0-2.9893.06085-4.51445.24338v.36508l2.19623,1.582c1.28113.97354,2.56227,1.82538,3.78239,2.49469,1.15911.66931,2.50126,1.15607,3.78239,1.582,1.28113.36508,2.56227.79099,3.72138,1.03439.30503.06085.42705.18253.42705.30423,0,.18253-.54905.42593-1.40313.60846-.9761.18253-2.0132.36508-3.11132.36508s-2.0132-.24338-2.56227-.66931c-2.31823-1.88623-4.57546-3.89414-6.77169-5.90207v5.71952c0,.54761-.12202,1.09522-.36604,1.52115s-.42705.66931-.61006.66931c-.12201,0-.36604-.24338-.61006-.66931-.24402-.36508-.36604-.85184-.36604-1.39945,0-.48676.06101-1.21692.12201-2.06876.06101-.79099.12201-2.00791.12201-3.40738-.36604.66931-1.09811,1.52115-1.95219,2.43384s-1.83018,1.76453-2.74528,2.43384c-.91509.66931-1.89119,1.21692-2.9893,1.582-.85408.36508-1.52515.48676-1.76917.42593-.30503-.06085-.24402-.24338.12201-.48676,1.89119-1.27777,3.47735-2.37299,4.45345-3.28568.9761-.97354,1.95219-1.88623,2.68427-2.9206.67107-.97354,1.0371-1.70368,1.09811-2.19046-1.70817.24338-3.35534.66931-4.75848,1.09522-.36604.06085-.79308.06085-1.22012,0-.42704-.1217-.79308-.36508-1.09811-.73016-.36604-.36508-.24402-.54761.24402-.54761l7.86979-1.15607v-.97361h-.00002Zm3.66037,15.15065c-1.22012,0-2.44025.1217-3.66037.24338l-1.52515.1217c-.42704.79099-.9761,1.94708-1.70817,3.28568-.24402.48676-.18302.79099.36604.85184.91509.24338,2.19623.54761,3.53836,1.03439.12201-.18253.36604-.42593.54905-.60846.91509-1.15607,1.70816-2.55554,2.19623-4.07669.06101-.30423.18301-.60846.24402-.85184Z"/>
</svg>