<?xml version="1.0" encoding="UTF-8"?>
<svg id="_レイヤー_1" data-name="レイヤー 1" xmlns="http://www.w3.org/2000/svg" viewBox="0 0 606 228">
  <defs>
    <style>
      .cls-1 {
        fill: #fff;
      }
    </style>
  </defs>
  <g id="_レイヤー_2" data-name="レイヤー 2">
    <g id="_レイヤー_2-2" data-name="レイヤー 2-2">
      <path class="cls-1" d="m11.30072,170.03914c-1.41611-.0563-2.48522-.1126-3.75128-.1126-3.55433,0-4.46402.45043-5.62692,2.99352-.33761.79765-.50642.93841-.67523.93841-.44171-.00344-.87368-.13019-1.2473-.36598l1.2473-7.0662c.05627-.2909.11254-.40351.7315-.40351.84404,0,1.12538.0563,1.35046.68503.5158,1.35131,1.13476,1.35131,13.33579,1.35131,6.56473,0,7.39939-.33783,8.70296-1.57652.33762-.34721.50642-.45982.84404-.45982s1.13476.1783,1.13476.40351-1.2473,3.75362-2.20388,7.29142c-.08975.08666-.21385.12805-.33762.1126-.44938-.04439-.88915-.15837-1.30357-.33783.24815-.72873.38105-1.49179.39388-2.26156,0-.79765-.28135-1.30438-3.75128-1.30438-.85342,0-2.81346.0563-4.52029.1126v19.44377c0,3.22812.50642,3.75362,4.40775,3.75362.39388,0,.45015.0563.45015.67565s-.05627.93841-.45015.93841c-.85342,0-3.11356-.28152-6.56473-.28152s-5.71132.28152-6.56473.28152c-.39388,0-.45015-.22522-.45015-.93841s.05627-.67565.45015-.67565c3.90133,0,4.40775-.50673,4.40775-3.75362l-.00938-19.44377Z"/>
      <path class="cls-1" d="m44.3776,170.15176c.28135-.73196,3.55434-2.88091,3.66687-2.88091s.39388.22522,1.75372,3.50025l8.18716,19.45315c.60163,1.94798,2.49323,3.20067,4.52029,2.99352.29072,0,.347.1126.347.67565,0,.85395-.05627.93841-.45953.93841s-2.42895-.28152-4.63283-.28152c-4.22956,0-6.3209.28152-7.11805.28152-.50642,0-.67523-.28152-.67523-.93841,0-.39413.16881-.61935.67523-.61935.22508,0,.40326.0563.85342.0563,1.63181,0,2.26014-.33783,2.26014-1.40761-.07066-.62809-.24496-1.24011-.5158-1.81112l-2.08196-5.37706h-9.72519c-1.463,3.62225-2.02569,4.98293-2.02569,6.56884,0,1.75481,1.40673,1.98004,3.89195,1.98004.13284.20162.21045.43461.22508.67565,0,.68503-.22508.93841-.56269.93841-1.5001-.18072-3.00937-.27472-4.52029-.28152-.78777,0-5.08298.28152-5.53313.28152s-.56269-.1126-.56269-.85395c-.00425-.25412.05371-.5054.16881-.73196,2.14761-.0563,3.66687-.45043,4.57656-2.99352l7.28685-20.16633Zm-2.26014,12.66848h8.18716l-4.57656-10.85736-3.6106,10.85736Z"/>
      <path class="cls-1" d="m87.79864,173.94292c0,.39413-.16881.50673-.50642.50673-.36659.0071-.7316-.05006-1.07849-.16891-.56269-2.71199-2.31641-5.14246-5.42059-5.14246-2.48522,0-4.46402,1.80174-4.46402,3.75362,0,6.39054,13.12947,5.09554,13.12947,14.53591,0,4.34482-3.90133,7.85445-9.547,7.85445-2.59776,0-5.76759-.73196-7.00551-1.58591-.33876-1.88692-.56736-3.79198-.68461-5.70551l.29072-.28152c.11254,0,.22507-.0563.39388-.0563.27332-.02013.54668.03847.78776.16891.47761,3.15844,3.13958,5.52612,6.33028,5.63044,3.21672,0,5.13925-2.03634,5.13925-4.86094,0-6.39054-12.7731-5.19876-12.7731-13.90718,0-3.55655,2.4946-7.40402,8.64669-7.40402,2.2536-.02081,4.48764.4199,6.56473,1.295l.19696,5.36768Z"/>
      <path class="cls-1" d="m115.39865,167.27085c10.23161,0,15.70847,6.78467,15.70847,13.51304,0,7.79815-6.1052,14.52652-15.08951,14.52652-10.22223,0-15.69909-6.78467-15.69909-13.45674.02813-7.85445,6.09582-14.58282,15.08013-14.58282Zm.85342,26.17214c6.43344,0,9.77207-5.98703,9.77207-11.02627,0-7.29142-3.9576-13.27844-10.85057-13.27844-6.44282,0-9.77207,5.63044-9.77207,11.07319,0,5.9964,3.6106,13.23151,10.88807,13.23151h-.03751Z"/>
      <path class="cls-1" d="m166.69736,173.08896c0-3.21873-.5158-3.75362-4.40775-3.75362-.40326,0-.45954-.0563-.45954-.67565s.05627-.93841.45954-.93841c.84403,0,3.10418.28152,6.56473.28152,8.64669,0,10.90684-.28152,14.17982-.28152.45954,0,.57207.1126.57207.45043-.21283,1.02428-.30724,2.06964-.28135,3.11551.00843.76204.1028,1.5207.28135,2.26156,0,.16891-.5158.28152-.93782.28152s-.67523-.16891-.67523-.45043c-.01965-1.16141-.43673-2.28095-1.18165-3.17182-.79715-.67565-2.1476-.93841-4.80163-.93841-5.03608,0-5.03608.84456-5.03608,2.88091v7.57294h3.9576c1.39449.06594,2.78585-.18427,4.07013-.73196.67523-.33783,1.01285-2.14894,1.01285-2.43047,0-.50673.05627-.61935.79715-.61935s.78776.0563.78776.16891c0,.39413-.28135,2.09264-.28135,3.89438-.00339,1.56832.09057,3.13536.28135,4.69203,0,.40351-.11253.51613-.93782.51613-.5158,0-.6846-.0563-.6846-.57243s-.33762-2.37417-.93782-2.71199c-.74087-.50673-1.52865-.61935-3.10418-.61935h-5.03608v8.07968c0,3.22812.5158,3.75362,4.40775,3.75362.39388,0,.45015.0563.45015.67565s-.05627.93841-.45015.93841c-.84403,0-3.10418-.28152-6.56473-.28152s-5.70194.28152-6.56473.28152c-.40326,0-.45954-.22522-.45954-.93841s.05627-.67565.45954-.67565c3.89194,0,4.40775-.50673,4.40775-3.75362l.11252-16.30012Z"/>
      <path class="cls-1" d="m208.57098,167.27085c10.22222,0,15.70847,6.78467,15.70847,13.51304,0,7.79815-6.1052,14.52652-15.08951,14.52652-10.22222,0-15.70847-6.78467-15.70847-13.45674,0-7.85445,6.10521-14.58282,15.08951-14.58282Zm.84403,26.17214c6.44281,0,9.77207-5.98703,9.77207-11.02627,0-7.29142-3.94823-13.27844-10.84119-13.27844-6.44281,0-9.77207,5.63044-9.77207,11.07319.00001,5.9964,3.61061,13.23151,10.8412,13.23151h-.00001Z"/>
      <path class="cls-1" d="m238.75939,173.08896c0-3.21873-.50642-3.75362-4.40775-3.75362-.39388,0-.45015-.0563-.45015-.67565s.05627-.93841.45015-.93841c.84403,0,3.10418.28152,6.56475.28152,2.31641,0,4.63283-.28152,7.23058-.28152,5.81449,0,9.09686,2.59939,9.09686,6.39054,0,3.44395-3.11357,5.63044-7.11804,6.27794,2.26015,1.57652,4.57656,5.08616,6.15209,7.40402,3.00103,4.3542,3.9576,5.08616,5.93638,5.08616.3939,0,.50643.1126.50643.67565,0,1.13548-.05627,1.19178-.3376,1.19178-.98207-.21514-1.98671-.30968-2.99165-.28152-1.30358,0-2.42895.28152-2.88847.28152s-2.99165-3.0592-4.8579-5.88381c-4.80163-7.29142-5.36433-7.50725-8.58104-7.50725v8.07968c0,3.22812.50643,3.75362,4.39837,3.75362.40326,0,.45952.0563.45952.67565s-.05627.93841-.45952.93841c-.84403,0-3.10418-.28152-6.56473-.28152s-5.71132.28152-6.56473.28152c-.39388,0-.45015-.22522-.45015-.93841s.05627-.67565.45015-.67565c3.90133,0,4.40775-.50673,4.40775-3.75362l.0187-16.34703Zm4.2952,6.61576c.69143.07523,1.38644.11282,2.08196.1126,5.31745,0,7.40877-2.43047,7.40877-5.48029s-2.81346-4.69203-6.16148-4.69203-3.38551,1.06978-3.38551,5.81811c0,2.55247.0563,3.50964.0563,4.2416h-.00003Z"/>
      <path class="cls-1" d="m276.86298,173.08896c0-3.21873-.50643-3.75362-4.40776-3.75362-.3939,0-.45016-.0563-.45016-.67565s.05627-.93841.45016-.93841c.85342,0,3.11357.28152,6.56473.28152,6.61161,0,11.80714-.28152,15.31457-.28152.1688,0,.22507.22522.22507.50673-.21763,1.13764-.31196,2.29544-.28133,3.45333.01047.6353.10506,1.2664.28133,1.87681.00243.17538-.03609.3489-.11253.50673h-1.47238c-.45016-3.62225-.93782-4.74833-6.94924-4.74833-4.5203,0-4.8579.16891-4.8579,3.96007v6.49377h3.75128c2.31641,0,3.61061-.28152,4.46403-2.99352.22507-.73196.3376-.84456,1.01283-.84456.45016,0,.5627.1126.5627.33783,0,.84456-.1688,4.12898-.1688,5.63044,0,1.92373.1688,2.93722.1688,3.28442s-.05627.28152-.78776.28152-.78776-.0563-.78776-.39413c0-.74133-.40326-2.48677-1.07849-3.0029s-1.12539-.67565-2.99165-.67565h-4.1264v5.94011c0,1.87681.22507,4.45743.50643,4.74833.62835.56305,1.52865.84456,5.0267.84456,3.33863,0,4.07013-.22522,4.97982-.56305,2.08196-.79765,3.27298-4.63573,3.75128-4.63573.28133,0,1.30358.39413,1.30358.61935s-1.92252,4.57943-2.20388,5.53659-.28133.93841-.61896.93841c-2.31641,0-11.01938-.28152-14.92071-.28152-3.44181,0-5.70193.28152-6.56473.28152-.3939,0-.45016-.22522-.45016-.93841s.05627-.67565.45016-.67565c3.90133,0,4.40776-.50673,4.40776-3.75362l.00939-16.36577Z"/>
      <path class="cls-1" d="m322.45975,173.94292c0,.39413-.1688.50673-.50643.50673-.36665.00789-.73178-.0493-1.07849-.16891-.5627-2.71199-2.31641-5.14246-5.42059-5.14246-2.48522,0-4.46403,1.80174-4.46403,3.75362,0,6.39054,13.12947,5.09554,13.12947,14.53591,0,4.34482-3.90133,7.85445-9.54699,7.85445-2.59775,0-5.76758-.73196-7.00551-1.58591-.34338-1.88622-.572-3.79157-.68462-5.70551l.29072-.28152c.11253,0,.22507-.0563.3939-.0563.27332-.02013.5467.03847.78776.16891.47761,3.15844,3.13958,5.52612,6.33028,5.63044,3.21671,0,5.13926-2.03634,5.13926-4.86094,0-6.39054-12.77309-5.19876-12.77309-13.90718,0-3.55655,2.48522-7.40402,8.64669-7.40402,2.25359-.02081,4.48764.4199,6.56473,1.295l.19693,5.36768Z"/>
      <path class="cls-1" d="m344.17964,170.03914c-1.41612-.0563-2.48522-.1126-3.75128-.1126-3.55434,0-4.46403.45043-5.62692,2.99352-.3376.79765-.50643.93841-.68462.93841-.41676-.00637-.82443-.12291-1.18166-.33783l1.23793-7.0662c.05627-.2909.12192-.40351.74089-.40351.84403,0,1.12539.0563,1.35046.68503.51579,1.35131,1.13475,1.35131,13.33579,1.35131,6.56473,0,7.39941-.33783,8.70296-1.57652.3376-.34721.50643-.45982.84403-.45982s1.13475.1783,1.13475.40351-1.24729,3.75362-2.20388,7.29142c-.08975.08666-.21385.12805-.3376.1126-.44956-.04333-.88951-.15734-1.30358-.33783.24816-.72873.38105-1.49179.3939-2.26156,0-.79765-.28133-1.30438-3.75128-1.30438-.85342,0-2.81346.0563-4.5203.1126v19.44377c0,3.22812.50643,3.75362,4.40776,3.75362.3939,0,.45016.0563.45016.67565s-.05627.93841-.45016.93841c-.85342,0-3.11357-.28152-6.56473-.28152s-5.71132.28152-6.56473.28152c-.3939,0-.45016-.22522-.45016-.93841s.05627-.67565.45016-.67565c3.90133,0,4.40776-.50673,4.40776-3.75362l-.06565-19.47192Z"/>
      <path class="cls-1" d="m419.78662,185.36331c0,7.46032.61896,7.85445,4.22957,7.85445.79715,0,.93782.22522.93782.67565,0,.62873-.1688.93841-.3939.93841-.74089,0-2.31641-.28152-6.27401-.28152-1.58492,0-5.13926.28152-6.44281.28152-.3376,0-.45016-.0563-.45016-.79765s0-.78826.5627-.78826c3.50743,0,3.90133-.67565,3.90133-4.86094,0-5.63044-.11253-11.19518-.11253-16.61916h-.11253c-2.37268,5.48029-8.70296,19.8942-9.82836,23.57275h-1.19102c-1.06913-3.90377-5.98329-14.69544-9.26566-22.27776h-.11253c-.1688,5.32076-.3939,11.13887-.3939,15.99982,0,3.39702.67523,4.1853,3.90133,4.1853.50643,0,.67523.0563.67523.93841,0,.57243-.11253.68503-.3939.68503-.50643,0-3.2261-.28152-4.8579-.28152-1.98282-.03691-3.96593.05713-5.93638.28152-.28133,0-.3376-.1126-.3376-.68503,0-.78826.05627-.93841.61896-.93841,3.5637,0,3.9576-1.30438,4.18267-4.91725.28133-3.96007.5627-9.77819.5627-14.80804,0-3.39702-.50643-4.12898-4.46403-4.12898-.45016,0-.50643-.0563-.50643-.56305,0-.93841.05627-1.02286.3939-1.02286.68462,0,2.37268.28152,4.91416.28152.89403-.02028,1.78486-.11444,2.6634-.28152.7315,0,.93782.1126,1.12539.61935l9.04059,19.62207,8.44037-19.10594c.45016-1.07916.50643-1.13548.84403-1.13548.5627,0,3.44181.28152,5.19553.28152.98344-.03149,1.96387-.12552,2.93538-.28152.40326,0,.51579.0563.51579.85395s-.05627.73196-.45952.73196c-3.75128,0-4.11704.22522-4.11704,5.02986l.00936,10.9418Z"/>
      <path class="cls-1" d="m446.40194,170.15176c.28133-.73196,3.55434-2.88091,3.67626-2.88091s.3939.22522,1.74433,3.50025l8.19653,19.45315c.5985,1.95033,2.49228,3.20446,4.5203,2.99352.28133,0,.3376.1126.3376.67565,0,.85395-.05627.93841-.45016.93841s-2.42895-.28152-4.63283-.28152c-4.23893,0-6.33028.28152-7.11804.28152-.51579,0-.68462-.28152-.68462-.93841,0-.39413.1688-.61935.68462-.61935.22507,0,.3939.0563.84403.0563,1.64118,0,2.26015-.33783,2.26015-1.40761-.07066-.62697-.24167-1.23849-.50643-1.81112l-2.09135-5.37706h-9.67824c-1.47238,3.62225-2.03508,4.98293-2.03508,6.56884,0,1.75481,1.40673,1.98004,3.89194,1.98004.13577.20088.2166.43382.23445.67565,0,.68503-.23445.93841-.57206.93841-1.50006-.18121-3.00936-.2752-4.5203-.28152-.78776,0-5.08299.28152-5.53313.28152s-.5627-.1126-.5627-.85395c-.00424-.2541.05369-.5054.1688-.73196,2.14761-.0563,3.66688-.45043,4.57656-2.99352l7.24935-20.16633Zm-2.26015,12.66848h8.18717l-4.57656-10.85736-3.61061,10.85736Z"/>
      <path class="cls-1" d="m479.4038,173.08896c0-3.21873-.51579-3.75362-4.40776-3.75362-.3939,0-.45952-.0563-.45952-.67565s.06565-.93841.45952-.93841c.84403,0,3.10418.28152,6.56473.28152,2.31639,0,4.64222-.28152,7.23994-.28152,5.81449,0,9.08747,2.59939,9.08747,6.39054,0,3.44395-3.10418,5.63044-7.11807,6.27794,2.26012,1.57652,4.57656,5.08616,6.16148,7.40402,2.99165,4.3542,3.95757,5.08616,5.93641,5.08616.39387,0,.5064.1126.5064.67565,0,1.13548-.05627,1.19178-.3376,1.19178-.98533-.21453-1.99298-.30905-3.00103-.28152-1.2942,0-2.42898.28152-2.87911.28152s-2.99165-3.0592-4.8579-5.88381c-4.80163-7.29142-5.3643-7.50725-8.5904-7.50725v8.07968c0,3.22812.51579,3.75362,4.40776,3.75362.39387,0,.45013.0563.45013.67565s-.05627.93841-.45013.93841c-.84406,0-3.10418-.28152-6.56473-.28152s-5.70193.28152-6.56473.28152c-.3939,0-.45952-.22522-.45952-.93841s.06565-.67565.45952-.67565c3.89194,0,4.40776-.50673,4.40776-3.75362l.00939-16.34703Zm4.28584,6.61576c.69461.07489,1.39271.11248,2.09132.1126,5.31742,0,7.39941-2.43047,7.39941-5.48029s-2.81346-4.69203-6.15209-4.69203-3.3949,1.06978-3.3949,5.81811c0,2.55247.05627,3.50964.05627,4.2416Z"/>
      <path class="cls-1" d="m517.74185,173.08896c0-3.21873-.5064-3.75362-4.40776-3.75362-.39387,0-.45013-.0563-.45013-.67565s.05627-.93841.45013-.93841c.84406,0,3.10418.28152,6.56473.28152s5.70196-.28152,6.56473-.28152c.39387,0,.45013.22522.45013.93841s-.05627.67565-.45013.67565c-3.9013,0-4.40776.50673-4.40776,3.75362v16.39395c0,3.22812.5064,3.75362,4.40776,3.75362.39387,0,.45013.0563.45013.67565s-.05627.93841-.45013.93841c-.85339,0-3.11357-.28152-6.56473-.28152s-5.71134.28152-6.56473.28152c-.39387,0-.45013-.22522-.45013-.93841s.05627-.67565.45013-.67565c3.9013,0,4.40776-.50673,4.40776-3.75362v-16.39395Z"/>
      <path class="cls-1" d="m542.00323,171.34353c-1.68806-1.81112-2.13826-1.98004-4.39837-1.98004-.74086,0-.85339-.1126-.85339-.67565,0-.85395.11253-.93841.79712-.93841s1.87564.28152,4.57656.28152c1.463,0,3.38551-.28152,3.75128-.28152.1688,0,.28133.0563.5064.33783,5.62692,7.1788,10.17532,13.28783,15.59594,19.39685v-14.39514c0-2.93722-.78779-3.75362-3.75128-3.75362-.39387,0-.56267-.1126-.56267-.84456s.11253-.74133.61894-.74133c.93782,0,3.00103.28152,5.09235.28152,1.87564,0,4.34211-.28152,4.57656-.28152s.45013.22522.45013.78826-.1688.79765-1.07851.79765c-2.87911,0-3.16045.61935-3.16045,3.75362v22.22144h-1.30358c-9.49073-10.57584-17.39653-22.33406-18.64385-22.52174v16.73178c0,3.22812.51579,3.75362,4.40776,3.75362.40326,0,.45013.0563.45013.67565s-.04688.93841-.45013.93841c-.84406,0-3.10418-.28152-5.62692-.28152-2.31639,0-4.57656.28152-5.42062.28152-.40326,0-.45952-.22522-.45952-.93841s.05627-.67565.45952-.67565c3.89197,0,4.39837-.50673,4.39837-3.75362l.02822-18.17693Z"/>
      <path class="cls-1" d="m587.52495,170.15176c.28133-.73196,3.5637-2.88091,3.67624-2.88091s.39387.22522,1.75372,3.50025l8.1872,19.45316c.5985,1.95033,2.49228,3.20446,4.5203,2.99352.28133,0,.3376.1126.3376.67565,0,.85395-.05627.93841-.45013.93841s-2.42898-.28152-4.63283-.28152c-4.23896,0-6.33028.28152-7.11807.28152-.5064,0-.6752-.28152-.6752-.93841,0-.39413.1688-.61935.6752-.61935.22507,0,.39387.0563.84406.0563,1.64118,0,2.26012-.33783,2.26012-1.40761-.07069-.62697-.24167-1.23849-.5064-1.81112l-2.09132-5.37706h-9.71585c-1.47238,3.62225-2.03505,4.98293-2.03505,6.56884,0,1.75481,1.41612,1.98004,3.9013,1.98004.13285.20162.21041.43461.22507.67565,0,.68503-.22507.93841-.56267.93841-1.50009-.18072-3.00939-.27472-4.5203-.28152-.79712,0-5.08296.28152-5.54249.28152s-.56267-.1126-.56267-.85395c-.00424-.2541.05369-.5054.1688-.73196,2.14759-.0563,3.67624-.45043,4.57656-2.99352l7.28682-20.16635Zm-2.26012,12.66848h8.19653l-4.57656-10.85736-3.61997,10.85736Z"/>
      <path class="cls-1" d="m274.78102,222.2802c0-.83518-.13131-.93841-1.13475-.93841-.10315,0-.12192,0-.12192-.1783s0-.2346.12192-.2346.79715.07507,1.69745.07507c1.70684,0,3.0573-.07507,3.9576-.07507.04688,0,.05627.0563.05627.13138-.05444.30966-.07642.62418-.06565.93841.00218.16471.02421.32855.06565.48798.01199.04297.01199.08841,0,.13138h-.37512c-.12192-.93841-.23445-1.22931-1.80063-1.22931-1.17227,0-1.25667,0-1.25667,1.02286v1.67974h.93782c.60022,0,.93782-.07507,1.15353-.7695.05627-.19707.0844-.22522.26259-.22522s.15005,0,.15005.09385v2.2897c0,.08445,0,.07507-.20632.07507s-.20632,0-.20632-.10323c-.00306-.28115-.10237-.55274-.28133-.7695-.1688-.13138-.29072-.1783-.76902-.1783h-1.05974v1.53899c-.01843.41405.02584.82851.13131,1.22931.15944.14076.3939.21583,1.30358.21583.43408.04492.87274-.00634,1.28481-.15015.54392-.19707.84403-1.19178.93782-1.19178s.3376.10323.3376.15953-.49704,1.18239-.57206,1.43576-.06565.2346-.15944.2346c-.60022,0-2.81346-.07507-3.85442-.07507s-1.48174.07507-1.69745.07507-.12192-.0657-.12192-.2346,0-.1783.12192-.1783c1.00347,0,1.13475-.13138,1.13475-.93841l.0281-4.34477Z"/>
      <path class="cls-1" d="m286.80387,222.49604c0,.10323,0,.13138-.13131.13138-.09304.00537-.18609-.01068-.27198-.04692-.07802-.72815-.6756-1.29025-1.40673-1.32316-.57145-.03988-1.07591.37049-1.15353.93841,0,1.65159,3.40429,1.31376,3.40429,3.75362-.09576,1.22456-1.16546,2.13956-2.38925,2.04374-.02579-.00202-.05152-.00448-.07722-.0074-.63044.00726-1.25373-.1342-1.81937-.4129-.08517-.49078-.14465-.98569-.17819-1.48268l.07501-.0657h.10315c.07189-.00504.14367.01128.20632.04692.13345.81125.82005,1.41584,1.64118,1.44514.67042.06262,1.2646-.43044,1.32719-1.10127.00484-.05192.00635-.10408.00452-.15619,0-1.65159-3.3105-1.34191-3.3105-3.60348.04127-1.08758.95582-1.93576,2.04272-1.89448.06648.00253.1328.00843.19868.01767.58285-.00354,1.16034.11139,1.69745.33783l.03755,1.37947Z"/>
      <path class="cls-1" d="m292.59959,221.46379h-.9847c-.93782,0-1.15353.122-1.463.77888-.0844.20645-.13131.2346-.1688.2346-.10878-.00044-.21551-.02958-.30947-.08445l.31886-1.82989c0-.07507,0-.10323.18758-.10323s.30011,0,.35638.16891c.13131.3566.29072.3566,3.45117.3566,1.69745,0,1.87564-.08445,2.25076-.4129.05017-.06942.13011-.11114.21571-.1126.09379,0,.30011,0,.30011.10323s-.32824.93841-.57206,1.87681c-.02976.01366-.06402.01366-.09379,0-.11293-.0121-.22349-.04054-.32824-.08445.05893-.19167.0905-.39069.09379-.5912,0-.20645-.06565-.33783-.93782-.33783h-1.17227v5.02986c0,.83518.13131.93841,1.14414.93841.10315,0,.11253,0,.11253.1783s0,.2346-.11253.2346-.80651-.07507-1.69745-.07507-1.48174.07507-1.69745.07507-.11253-.0657-.11253-.2346,0-.1783.11253-.1783c1.01283,0,1.14414-.13138,1.14414-.93841l-.03758-4.99233Z"/>
      <path class="cls-1" d="m304.40673,227.82618c-.17819,0-.19693,0-.19693-.15015s0-.08445.2532-.26275l.20632-.15953c2.4946-2.00819,3.11357-2.98412,3.11357-3.86623-.00873-.67369-.56161-1.21274-1.23489-1.20399-.02292.0003-.04582.00125-.06869.00284-.3977.01896-.77185.19434-1.04097.48798-.15944.18768-.18758.20645-.21571.20645s-.28133-.10323-.28133-.20645,0-.122.30947-.44105c.43182-.61085,1.12803-.98006,1.87564-.99471.96618-.06779,1.80435.66099,1.87209,1.62778.00406.05789.00524.11595.00355.17396,0,.93841-.60022,1.59529-2.12884,2.89967l-.80651.68503c.17495.00909.35022.00909.52518,0,1.57553,0,3.34802-.0563,3.42303-.0563s.05627,0,.05627,0c-.18165.43436-.43179.83674-.74089,1.19178l-4.92355.06568Z"/>
      <path class="cls-1" d="m315.9888,221.23857c1.69344.02725,3.04419,1.423,3.01697,3.11752-.00086.05256-.00303.10509-.00658.15752,0,2.13956-1.38798,3.42518-2.93538,3.42518-1.83852.02595-3.34994-1.44437-3.37587-3.28403-.00031-.02202-.0004-.04406-.00029-.06608-.0415-1.80828,1.38984-3.30783,3.19699-3.34937.03469-.00079.06943-.00105.10415-.00073Zm0,5.67736c1.28432.02139,2.3428-1.00306,2.36418-2.28818.00066-.03805.00034-.07611-.00089-.11414,0-1.56714-1.20041-2.17711-2.48522-2.17711-1.26331-.11971-2.38442.80802-2.50402,2.07211-.00478.05052-.0079.10119-.00933.15191.06471,1.36669,1.22442,2.42212,2.59025,2.35736.01188-.00056.02375-.00122.03563-.00195h.00939Z"/>
      <path class="cls-1" d="m321.76577,227.82618c-.17819,0-.19693,0-.19693-.15015s0-.08445.2532-.26275l.20632-.15953c2.4946-2.00819,3.11357-2.98412,3.11357-3.86623-.00873-.67369-.56161-1.21274-1.23489-1.20399-.02292.0003-.04582.00125-.06869.00284-.3977.01896-.77185.19434-1.04097.48798-.15944.18768-.18758.20645-.21571.20645s-.28133-.10323-.28133-.20645,0-.122.30947-.44105c.43182-.61085,1.12803-.98006,1.87564-.99471.96618-.06779,1.80435.66099,1.87209,1.62778.00406.05789.00524.11595.00355.17396,0,.93841-.60022,1.59529-2.12884,2.89967l-.80651.68503c.17495.00909.35022.00909.52518,0,1.57553,0,3.34802-.0563,3.42303-.0563s.05627,0,.05627,0c-.18165.43436-.43179.83674-.74089,1.19178l-4.92355.06568Z"/>
      <path class="cls-1" d="m332.04426,222.91832c0-.76011-.21571-1.03225-.68462-1.07916l-.54392-.07507c-.07501,0-.10315,0-.10315-.18768s.06565-.22522.10315-.22522h3.57309c.0844,0,.11253.09385.11253.25337s0,.15953-.11253.15953c-1.12539,0-1.22854.21583-1.22854,1.15424v3.34072c0,.76011.21571,1.04163.68462,1.07916l.54392.07507c.06565,0,.10315,0,.10315.18768s-.06565.22522-.10315.22522h-3.57309c-.0844,0-.11253-.09385-.11253-.25337s0-.15953.11253-.15953c1.12539,0,1.22854-.21583,1.22854-1.15424v-3.34072Z"/>
      <path class="cls-1" d="m256.39976,129.34986c-.02527.06423-.09104.10297-.15944.09385-.23445,0-1.55678-.07507-4.07013-.07507-.89094,0-1.47238.07507-1.69745.07507s-.11253-.0657-.11253-.2346,0-.1783.11253-.1783c1.01283,0,1.14414-.13138,1.14414-.93841v-4.22283c0-.83518-.13131-.93841-1.14414-.93841-.10315,0-.11253,0-.11253-.1783s0-.2346.11253-.2346.80651.07507,1.69745.07507,1.48174-.07507,1.69745-.07507.12192.0563.12192.2346,0,.1783-.12192.1783c-1.01283,0-1.14414.13138-1.14414.93841v3.85685c0,1.06978.36576,1.27623,1.45361,1.27623,1.463,0,1.75372-.21583,1.93191-.60058l.30011-.60996c0-.07507.06565-.10323.10315-.10323.20632,0,.38451,0,.38451.10323-.03414.15278-.07802.30323-.13131.45043l-.36571,1.10731Z"/>
      <path class="cls-1" d="m260.48867,123.86958c0-.83518-.13131-.93841-1.14414-.93841-.09379,0-.11253,0-.11253-.1783s0-.2346.11253-.2346.80651.07507,1.69745.07507,1.48174-.07507,1.69745-.07507.12192.0563.12192.2346,0,.1783-.12192.1783c-1.00347,0-1.13475.13138-1.13475.93841v2.81522c0,1.67036.8159,2.31786,2.04444,2.31786,1.463,0,1.87564-.8821,1.87564-2.45862v-2.34601c0-1.26685-.06565-1.34191-1.03161-1.34191-.0844,0-.10315,0-.10315-.15953s0-.25337.12192-.25337c.43265.05095.86796.076,1.30358.07507.83467,0,1.20041-.07507,1.35985-.07507s.11253.04692.11253.21583,0,.19707-.0844.19707h-.20632c-.62835,0-.8159.25337-.8159,1.02286v3.12489c0,1.87681-1.12539,2.59-2.7478,2.59-.84406.03146-1.67072-.24538-2.3258-.77888-.49704-.49735-.61896-.8821-.61896-2.07388l-.00003-2.87152Z"/>
      <path class="cls-1" d="m272.96165,126.31882c.10315-.14076.14067-.21583.14067-.26275s0-.10323-.20632-.34721l-1.5943-2.27094c-.26259-.40351-.41264-.58181-.93782-.58181-.10315,0-.11253,0-.11253-.122,0-.2346,0-.2909.07501-.2909.45102.05616.90539.08125,1.35985.07507.7315,0,1.10662-.07507,1.2942-.07507s.20632,0,.20632.20645,0,.20645-.15944.20645c-.54392,0-.57206,0-.57206.1783s.07501.22522.36576.63811l1.02222,1.51082,1.02222-1.49206c.14954-.18334.25538-.39835.30947-.62873,0-.16891-.05627-.20645-.41264-.20645-.18758,0-.20632,0-.20632-.15015s0-.26275.12192-.26275.6471.07507,1.15353.07507.7315-.07507.93782-.07507.11253.0563.11253.20645,0,.20645-.0844.20645c-.44078,0-.78776.08445-1.28481.84456l-1.28481,1.78297c-.03606.03889-.05904.08812-.06565.14076,0,0,0,.0563.06565.09385l1.6787,2.36479c.58144.86333.7315.93841,1.17227.93841.10315,0,.15944.04692.15944.20645s0,.20645-.12192.20645c-.46404-.05067-.93055-.07573-1.39734-.07507-.48871-.00377-.97723.02131-1.463.07507-.06565,0-.09379,0-.09379-.22522s0-.18768.15005-.18768c.46891,0,.60022-.08445.60022-.2909s-.05627-.28152-.41264-.76011l-1.00347-1.43576s-.04688-.0563-.06565-.0563,0,0-.06565.0657l-1.12539,1.58591c-.16248.19173-.27521.42056-.32824.66627,0,.16891.05627.22522.67523.22522.05627,0,.0844,0,.0844.18768s0,.22522-.07501.22522c-.34118-.05365-.68625-.07877-1.03161-.07507-.44507-.00452-.88997.02055-1.33172.07507-.05627,0-.07501,0-.07501-.16891s0-.24398.10315-.24398c.67523,0,.75963-.04692,1.24729-.73196l1.45364-1.97069Z"/>
      <path class="cls-1" d="m281.41141,123.86958c0-.78826-.04688-.93841-.62835-.93841-.15944,0-.45016.07507-.52518.07507s-.0844-.04692-.0844-.13138c-.00839-.09366-.00839-.18786,0-.28152.57206-.07507,2.26954-.20645,2.9729-.20645,1.96943,0,3.18858.62873,3.18858,2.09264s-1.51926,1.98004-2.579,1.98004c-.23234.00372-.4637-.03117-.68462-.10323-.00916-.04963-.00916-.10052,0-.15015,0-.13138,0-.1783.09379-.1783h.30947c.87975.03627,1.62232-.64795,1.65858-1.52826.00092-.02232.00137-.04468.00135-.06703.0834-.83023-.5216-1.5709-1.35132-1.65435-.1089-.01095-.21869-.01004-.32738.00276-.80651,0-.93782.2909-.93782,1.03225v4.30728c0,.83518.13131.93841,1.13475.93841.10315,0,.12192,0,.12192.1783s0,.2346-.12192.2346-.79715-.07507-1.69745-.07507-1.47238.07507-1.69745.07507-.11253-.0657-.11253-.2346,0-.1783.11253-.1783c1.01283,0,1.14414-.13138,1.14414-.93841l.00942-4.25098Z"/>
      <path class="cls-1" d="m290.54576,123.86958c0-.83518-.13131-.93841-1.14414-.93841-.10315,0-.11253,0-.11253-.1783s0-.2346.11253-.2346.80651.07507,1.69745.07507c1.7162,0,3.0573-.07507,3.96699-.07507,0,0,.05627.0563.05627.13138-.05841.2934-.08357.59245-.07501.89148.00263.16533.02788.32951.07501.48798.00736.04349.00736.08789,0,.13138h-.38451c-.11253-.93841-.23445-1.22931-1.80063-1.22931-1.16289,0-1.25667,0-1.25667,1.02286v1.67974h.93782c.60022,0,.93782-.07507,1.15353-.7695.06565-.19707.09379-.22522.27198-.22522s.14067,0,.14067.09385c0,.21583-.04688,1.0604-.04688,1.44514s.04688.76011.04688.84456,0,.07507-.20632.07507-.20632,0-.20632-.10323c.00031-.28014-.09571-.55185-.27198-.7695-.17819-.13138-.29072-.1783-.77838-.1783h-1.05974v1.53899c-.01339.41387.0308.82761.13131,1.22931.1688.14076.3939.21583,1.30358.21583.43408.04492.87274-.00634,1.28481-.15015.54392-.19707.85342-1.19178.9847-1.19178s.3376.10323.3376.15953-.49704,1.18239-.57206,1.43576-.07501.2346-.15944.2346c-.60022,0-2.81346-.07507-3.86381-.07507s-1.47238.07507-1.69745.07507-.11253-.0657-.11253-.2346,0-.1783.11253-.1783c1.01283,0,1.14414-.13138,1.14414-.93841l-.00939-4.29784Z"/>
      <path class="cls-1" d="m299.80203,124.24493c0-1.24808-.09379-1.35131-.68462-1.35131-.15835.00322-.31576.02527-.46891.0657-.05627,0-.10315-.07507-.10315-.2346s.04688-.15953.26259-.1783c1.10153-.13887,2.20981-.21719,3.31989-.2346,2.92599,0,4.17331,1.80174,4.17331,3.61287.01809.89909-.31891,1.76905-.93782,2.42109-.85554.8079-2.01736,1.20796-3.18858,1.09793-.93782,0-1.5474-.07507-1.80998-.07507-.89094,0-1.48174.07507-1.69745.07507s-.12192-.0657-.12192-.2346,0-.1783.12192-.1783c1.00347,0,1.13475-.13138,1.13475-.93841l-.00003-3.84747Zm1.11601,2.74952c0,1.28561.07501,1.52021.23445,1.65159.30311.21579.66928.32471,1.04097.30968,1.80998,0,2.81346-1.15424,2.81346-3.11551.12536-1.54974-1.02854-2.90772-2.57731-3.03315-.10976-.00889-.21992-.01133-.32993-.00729-1.06913,0-1.15353.32845-1.15353.93841l-.0281,3.25628Z"/>
      <path class="cls-1" d="m310.49317,123.86958c0-.83518-.13131-.93841-1.14414-.93841-.10315,0-.11253,0-.11253-.1783s0-.2346.11253-.2346.80651.07507,1.69745.07507,1.47238-.07507,1.69745-.07507.11253.0563.11253.2346,0,.1783-.11253.1783c-1.01283,0-1.14414.13138-1.14414.93841v4.2416c0,.83518.13131.93841,1.14414.93841.10315,0,.11253,0,.11253.1783s0,.2346-.11253.2346-.80651-.07507-1.69745-.07507-1.48174.07507-1.69745.07507-.11253-.0657-.11253-.2346,0-.1783.11253-.1783c1.01283,0,1.14414-.13138,1.14414-.93841v-4.2416Z"/>
      <path class="cls-1" d="m318.68034,123.0344h-.93782c-.93782,0-1.16289.122-1.463.77888-.09379.20645-.13131.2346-.17819.2346-.1085-.00249-.21474-.03149-.30947-.08445l.31886-1.82989c0-.07507,0-.10323.19693-.10323s.29072,0,.34699.16891c.13131.3566.29072.3566,3.45117.3566,1.69745,0,1.87564-.08445,2.25076-.4129.09379-.08445.13131-.1126.22507-.1126s.29072,0,.29072.10323-.31886.93841-.57206,1.87681c-.02685.01204-.05755.01204-.0844,0-.11617-.01077-.23002-.03925-.3376-.08445.06585-.19026.10069-.38988.10315-.5912,0-.20645-.07501-.33783-.9847-.33783h-1.16289v5.02986c0,.83518.13131.93841,1.13475.93841.10315,0,.12192,0,.12192.1783s0,.2346-.12192.2346-.80651-.07507-1.69745-.07507-1.47238.07507-1.69745.07507-.11253-.0657-.11253-.2346,0-.1783.11253-.1783c1.01283,0,1.14414-.13138,1.14414-.93841l-.03752-4.99233Z"/>
      <path class="cls-1" d="m327.03631,123.86958c0-.83518-.13131-.93841-1.14414-.93841-.10315,0-.12192,0-.12192-.1783s0-.2346.12192-.2346.80651.07507,1.69745.07507,1.47238-.07507,1.69745-.07507.11253.0563.11253.2346,0,.1783-.11253.1783c-1.01283,0-1.14414.13138-1.14414.93841v4.2416c0,.83518.13131.93841,1.14414.93841.10315,0,.11253,0,.11253.1783s0,.2346-.11253.2346-.80651-.07507-1.69745-.07507-1.48174.07507-1.69745.07507-.12192-.0657-.12192-.2346,0-.1783.12192-.1783c1.01283,0,1.14414-.13138,1.14414-.93841v-4.2416Z"/>
      <path class="cls-1" d="m336.3301,122.31182c2.64466,0,4.06074,1.75481,4.06074,3.50025.00166,2.07307-1.6765,3.75497-3.74827,3.75663-.05103.00004-.10206-.00096-.15306-.00301-2.64466,0-4.07013-1.76421-4.07013-3.49087-.00704-2.07305,1.66674-3.75932,3.73848-3.76637.05744-.0002.11485.00092.17223.00336Zm.21571,6.77529c1.4723-.08577,2.60141-1.34114,2.53212-2.81522,0-1.87681-1.02222-3.43457-2.81346-3.43457-1.45424.05878-2.5855,1.28606-2.52677,2.7412.001.02469.00235.04936.00404.07401-.00003,1.56715.93779,3.43457,2.80404,3.43457h.00003Z"/>
      <path class="cls-1" d="m344.56415,123.36284c-.24874-.37918-.69638-.57744-1.14414-.50673-.18758,0-.21571,0-.21571-.1783s0-.2346.20632-.2346.49704.07507,1.18166.07507c.37512,0,.88155-.07507.93782-.07507s.07501,0,.13131.09385c1.463,1.87681,2.63527,3.43457,4.03261,5.01108v-3.75362c0-.76011-.20632-.93841-.93782-.93841-.10315,0-.14067,0-.14067-.22522s0-.18768.15944-.18768.77838.07507,1.31294.07507,1.12539-.07507,1.19102-.07507.11253.0563.11253.20645-.04688.20645-.28133.20645c-.74089,0-.8159.15953-.8159.93841v5.75243h-.3376c-2.45708-2.74014-4.50152-5.78058-4.8204-5.84626v4.33543c0,.83518.13131.93841,1.13475.93841.10315,0,.12192,0,.12192.1783s0,.2346-.12192.2346-.79715-.07507-1.44425-.07507-1.18166.07507-1.40673.07507-.11253-.0657-.11253-.2346,0-.1783.11253-.1783c1.01283,0,1.14414-.13138,1.14414-.93841v-4.67327Z"/>
      <path class="cls-1" d="m358.3876,124.03848c0,.10323,0,.13138-.14067.13138-.08949.02049-.18248.02049-.27198,0-.07802-.72815-.6756-1.29025-1.40673-1.32316-.57145-.03988-1.07591.37049-1.15353.93841,0,1.65159,3.40429,1.31376,3.40429,3.75362-.09576,1.22456-1.16546,2.13956-2.38925,2.04374-.02579-.00202-.05152-.00448-.07722-.0074-.63033.00621-1.25338-.13519-1.81937-.4129-.08632-.49034-.14267-.98549-.1688-1.48268l.06565-.0657h.10315c.07198-.00623.1441.01017.20632.04692.13345.81125.82005,1.41584,1.64118,1.44514.67042.06262,1.2646-.43044,1.32719-1.10127.00484-.05192.00635-.10408.00452-.15619,0-1.65159-3.3105-1.34191-3.3105-3.60348.04127-1.08758.95582-1.93576,2.04272-1.89448.06648.00253.1328.00843.19868.01767.58285-.00354,1.16034.11139,1.69745.33783l.04688,1.33255Z"/>
      <path class="cls-1" d="m376.27182,52.83225c.49704.2346,1.04097,0,1.53804-.24398.15005-.11261.32824-.21583.04688-.37536.20632-.93841.2532-1.75482-.9847-1.9425h0c-.20632-.4129-1.05035-.27214-.93782-1.01348-.09379-.33783-.04688-.75072-.43139-.93841-.3376-.5912-.40326-1.82051-1.50052-.63812-.60022-.42228-1.64118.36598-2.01631-.71319.03054-.08909.05561-.17997.07501-.27214h0c.71324.04646,1.32908-.49445,1.37553-1.20815.00512-.07903.00301-.15836-.00633-.237-.26259-1.41699.59083-.89149,1.03161-.65688s1.00347.67565,1.43486-.10323c.22864-.17985.32515-.48069.24384-.76011h0c0-.09384.06565-.18768.09379-.28152-.12192-.83518.42203-1.93312-.93782-2.28033-.1688,0-.65648-.31906-.42203-.7038s.65648.16891,1.00347,0c-.57211-.98248-.90914-2.08415-.9847-3.21873h-.93782l-.59083-.75072h0c-.10315-.4692-1.10662-.16891-.84403-.93841.32824-.93841-.3939-1.21993-.93782-1.65159h0c.06588-.07826.11105-.17184.13131-.27214h0c.93782-.84457.68462-1.56714-.24384-2.19587-.57206-.39413-1.28481-.77888-1.42547-1.42638-.36576-1.7079-1.10662-2.95598-2.96351-3.24688h0c.93782-.76949.93782-1.87681.93782-2.92783-.85342-.7038-1.69745.09384-2.55087,0l-1.17227-.29091h-.15944c-.08695-.01435-.17564-.01435-.26259,0-.5627,0-.54392-.33783-.40326-.73196h0c.50205-.68083.43027-1.62687-.1688-2.22402-.63771-.60996-1.32233-.19706-1.87564.27214s-.57206-.18768-.83467-.31906h0c-1.20404-1.04339-2.13184-2.36825-2.70092-3.85685h0c.53957-.78222.56536-1.80983.06565-2.61815-.86281-1.55775-1.73497-.45982-2.59775,0l-.30947-.32844c-.21571-1.28562-.93782-1.32315-1.96004-.87272-.60325.33049-1.08352.84729-1.36921,1.4733h0c-.3376,0-.69398.09384-.93782-.25337h0c-.59083-1.31377-.10315-3.2938-2.2414-3.64101h0c-.22009-.46365-.77162-.66433-1.23793-.45043-2.08196.66627-4.22019.2346-6.33028.20645-1.11601,0-2.41956-.93841-2.86034.93841h0c-.85342.18768-1.70684-.45982-2.56026,0-.19693-1.98004-.70336-2.27094-2.27889-1.31377-.19693-2.08326-2.26954-3.58471-4.91416-3.54717-.11253.20645-.22507.4129-.34699.61935l-.36576.34721h0c-.25913.2122-.63181.2122-.89094,0h0c-.34699-.62873-.18758-1.81112-1.3786-1.57652-1.80998.36598-2.81346-1.17301-4.20144-1.66098-.19693-.93841-.58144-1.31377-1.65993-1.19178-1.98817.22522-2.48522,2.55246-4.47339,2.88091-.6471.10322-1.38798.80703-2.25076.84457h0c-.14868-.54936-.53848-1.00152-1.05974-1.22931h0c.11253-.65688.23445-1.30438.35638-1.96127,0-1.36069-.80651-2.29909-1.93191-2.09265-.45497.10946-.93504.01339-1.31294-.26275-1.12539-.7038-2.26954-.89149-3.08543.4692-.21891.43931-.69701.6861-1.18166.60996h0c-.6001-.56424-1.49783-.67081-2.21324-.26275-.13131.39413-.26259.79765-.38451,1.20116h0l-.46897,1.21054c-.38087-.29748-.73256-.63055-1.05035-.99471-.93782-1.30438-2.00695-.99471-3.10418-.24399-.29072.19707-.46891.71319-.93782.53489s-.36576-.77888-.28133-1.13547c.31886-1.295-1.24729-1.41699-1.38798-2.38355-.66584.50674-1.70684,0-2.25076.86333-.07501.13138-.37512.14076-.57206.20645-.50643-.67565-1.14414-.45982-1.75372-.24399-.35638.13138-.74089.4129-1.06913.12199-.77692-.90362-2.13883-1.00594-3.04187-.22853-.13303.1145-.25157.24482-.35303.38806-.68462.71319-1.87564-.11261-2.579.62873-.14067.06569-.30011.22522-.43139.19707-1.20487-.43035-2.53023.19813-2.96034,1.40374-.03649.10233-.06577.2071-.08758.31354-.23277.71108-.99263,1.10378-1.70684.8821-1.14617-.38102-2.40911-.07509-3.25423.78826-.57206,1.21993-.75963,2.70261-2.26954,3.25627l-.7315,2.21464c.03526.0396.08065.06881.13131.08446h0c-.04473-.02924-.08569-.06391-.12192-.10322-.75963,0-1.52865-1.26685-2.27889,0h0c-1.48174.93841-.52518,2.81522-1.64118,3.885-.15005.0563-.36576.20645-.43139.15953-1.99756-1.50145-3.69501-.74134-4.07013,1.87681h0c-.26259,0-.72211,0-.76902.11261-.63771,1.60468-2.33516,1.2387-3.46994,1.87681h-.60022c-1.17227.6475-.93782,1.87681-1.08787,2.98413-.56502-.30772-1.17147-.53213-1.80063-.66627-1.00347-.13138-1.98817.24399-2.98226-.12199-1.82876-.69442-2.68215-.0563-2.87911,1.98004h0c.11253.6475-.60022,1.295,0,1.93312-.1688.57243.12192.83518.61896.93841l-.05627.36598h0c-.26259.24399-1.12539.60058-.17819.79765,1.21915.26275.4783.52551.21571.93841s-1.03161.30029-1.17227.93841h0c-2.38207.73196-2.63527,1.26685-1.50988,3.1812h0c.11253.56304-.04688,1.1167-.68462.93841-1.49339-.53147-3.1526-.29279-4.4359.63812-1.20979.7038-1.5474,1.19178-1.62244,2.31786-.35638.21583-.69398.5912-1.06911.63812-1.50052.16891-1.35983,1.0604-.93782,2.05511.20571.42676.43747.84044.69399,1.2387v.60997l-.30948.30968c-.75026-.40351-1.48176-.73196-1.96943.34721h0c-.40876.70844-.40876,1.58127,0,2.28971h0l-.62834.57243h0c-.54394.73196-.31886,1.55775-.30011,2.3554l.86279.7038h0l.4314.27214c.70336.1783,1.05035-.43167,1.52865-.71319.42476-.3642,1.06418-.31488,1.42814.11015.03349.03911.06397.08071.09113.12445-.20632.31906.12192.6475.1688.93841l-.20632-.15014c-1.05035-.04692-1.42549.32844-.80653,1.31377.41749.66997,1.16227,1.06409,1.95067,1.03225h0c-.65648.51612-1.58492.87272-1.20041,2.00819s0,1.5296-1.13477,1.32315c-.1688,0-.39388.30968-.6002.47859h0c-.58121.37342-1.2377.61375-1.92253.7038-.11253-.10323-.35638-.25337-.33762-.29091.6471-1.38884-.50642-1.81112-1.28481-2.42109.05627-1.21993-.82529-1.18239-1.65056-1.2387-.46891,0-.87216.3566-1.39736.08446-1.09725-.55366-1.64118.20645-2.21325.98533-.8159,1.09793.1688,1.87681.35638,2.81522-.45954.37536-.25322.83518-.20632,1.30438-.03901,1.30026-1.12405,2.3227-2.4235,2.28366-.06136-.00184-.12262-.00609-.18364-.01272-.82529.2346-1.00347.93841-1.25667,1.64221.26259.56304.52518,1.12608.79715,1.67975h0l.11253.56304h0c-.34699-.2346-.69399-.43167-.70336.2346,0,.47859.05627.93841.0844,1.42637,1.08787-.30968,1.57553,1.00409,2.56024.93841h0c.41264-.27214.6846-.07507.93782.27214v4.34482h0c-.06565.32844.04689.72257-.34699.93841l-.93782,1.32316v1.36069c.6471.59119,1.27543,1.26685,2.27889.67565l.33762-.39413c.84403-.28152,2.47584.79764,2.24139-1.31377,1.03161,0,2.09133-.15953,2.94475.65688v.30968c-.65647.1783-.5158.93841-.93782,1.27623-.17819-.49735-.37512-1.17301-.99409-1.01348s-.17819.7038,0,1.07917h0l-.65647,1.24808h-.30011c-.44078.83518-1.57553,1.48268-.69399,2.65569h.37512c.21735.53294.69097.91843,1.25667,1.02286.79715-.63812,1.09725-1.87681,2.31641-2.00819.84403,0,.93782.75073,1.30357,1.28562l.93782.28152c.18085-.15134.26971-.3861.23445-.61935h0c.85877-.04189,1.52101-.77245,1.47914-1.63176-.00884-.18113-.0492-.35934-.11929-.52658-.1688-.7038.13131-1.36069,0-2.03634h0c.55437-.38239,1.31357-.24269,1.69573.31202.00375.00544.00744.01092.0111.01642h0c-.38176.57376-.22641,1.34856.34699,1.73057.09304.06199.19399.11117.30011.14625-.41264.27214-.84403.60058-.28133,1.06978s.85342,1.13547.49704,1.6516c-.45952.66627-1.02222-.16891-1.56617-.2346-.87216-.10323-1.87564-.60997-2.18512.79764.27196,1.38884,1.46301.7038,2.13824.77888.44083-.02079.86298.17985,1.12539.53489-.06846.14101-.12192.28884-.15944.44105-.01191.33114.13434.6482.3939.85395.4783-.33783.04688-1.59529,1.23793-1.20116.43139.22522,1.00347.16891,1.30358.65688.71275.93841,1.39734,1.77359,2.47586.31905.58144-.76011,1.14414-.12199,1.65993.2346.93782.37536.93782,1.82051,2.12884,1.87681,1.14414-.55366,1.18166-1.27623.30011-2.10203-.23445-.22522-.58144-.44105-.3939-.78826.48766-.93841.0844-1.87681.26259-2.93721.45952.93841,1.28481,1.50145,1.24729,2.53369,0,.34721.35638.60997.83467.49735,1.463-.33783,1.463-.31905,1.10662,1.14486-.06983.25979-.08892.53062-.05627.79764.0844,1.45453,1.07849,1.74544,2.26954,1.7642.60022.09384.30011-.7038.93782-.84457,1.03662-.27121,1.82927-1.10804,2.04444-2.15834.22507-1.24808-1.08787-1.37946-1.96004-1.74544-.09133-.06619-.13237-.18191-.10315-.2909.58144.38475,1.26606.24399,1.87564.36598.63468.00505,1.26569.0966,1.87564.27214.12192.07989.25057.14896.38451.20645.19673.05169.40348.05169.60022,0,.7141.71406,1.66502,1.14141,2.67279,1.20116q2.81346.1783,3.18858-1.54837v-.14076h-.30947c0-.36598-.19693-.93841.15005-1.02286s.85342.31905,1.18166.68504c-.12976.18594-.3366.30321-.5627.31905-.65648.77888-.67523,1.82989-1.09726,2.71199-.2532.54428-.15005,1.18239.69398,1.24808h0c.51579-.42228,1.39734.99471,1.35985.06569s.93782-1.03225.93782-1.7079h0c.37982-.3184.93313-.3184,1.31294,0,.57206.36598.99409.2346,1.21915-.42228h0c.30947-.30968.42203-1.20116,1.10662-.30968.1688.20645.53456.26275.80651.38475h0c0,.44105,0,.93841.45952,1.12608s.84403-.37536.99409-.65688c.61896-1.19177,1.17227-.93841,1.87564-.12199.12744.1011.28786.15126.45016.14076,1.78185-8.68025,7.59634-32.65652,23.3142-76.01088,0,0,.38451-4.18529.8159-4.17591s.77838,2.69322.77838,2.69322l.2532-.0563c4.6891,20.75754,16.3837,49.84812,24.28951,68.35348.26259.4129.54392.82579.82529,1.24808.92208.2386,1.74965.75249,2.37268,1.4733-.11253.4129-.23445.82579-.34699,1.2387h0c-.02121.05186-.04628.10205-.07501.15015,1.31294,1.87681,2.6634,3.75362,4.09827,5.63044h-.21571l.0844.12199-2.4102.12199c.74089,1.67036,1.58492,3.49087,2.28828,5.01109.45016-.47859.93782-.93841,1.36921-1.41699.42455-.25544.86286-.48727,1.31294-.69442,1.3786-.62873,2.81346-.93841,4.05139-1.96126.89958-.76932,1.6144-1.73155,2.09135-2.81522.15295-.10706.27052-.25736.3376-.43167l2.05383-5.38645c.21571-.45982.43139-.93841.62835-1.39822.09379-.22847.09379-.48472,0-.71319.71275.45044,1.40673.93841.89094,2.03634-.3939,1.39822-1.47238,2.63692-.93782,4.24159l.30947.31905c-.75963.78826.27198,1.27623.32824,1.93311l.31886-.33783h0c.10315.35659,0,.93841.69398.62873l.28133.13138h0c.30947,1.04163.93782,1.50145,1.96004.93841,1.55678.4129,1.04097-.93841,1.35985-1.58591h0c.57206,0,.93782.21584.76902.8821-.09379.37536,0,.78826.38451.60058,1.49113-.73196,3.24485.06569,4.6891-.8821-.23463-.13728-.37237-.39477-.35638-.66627.60958-.72257-1.41612-.65688-.45952-1.10732.95659-.45044.72211-1.14486.79715-1.82051l-.9847-.65688c.04688-1.61406,1.43486-.71319,1.58492-.52551,1.09726,1.41699,2.81346.55366,4.27645,1.72666-.2532-.93841-.86281-1.21993-.69398-1.80174h0c.51579-1.39822,1.07849-.07507,1.61305,0h0c.12561.68934.68373,1.2174,1.37857,1.30438h0v.57243l-1.20979-.20645c1.03161.44105-.74089,1.64221.53456,1.95189h0c.55331.28152.62835.80703.71275,1.35131.34536.62377.82214,1.16491,1.39734,1.58591.21571-1.03225,1.7162-.86333,1.82876-1.97065.62835.37536,1.38798-.19706,1.99756.27214v-.62873h0l.93782-.42228v-.53489h0v-.67565h0l-1.62244-2.62754h0c-.74089-.93841.09379-1.21054.67523-1.58591h1.36921c.7817.50665,1.78792.50665,2.56962,0,.5627-.30968-.12192-.80703-.26259-1.21993h0l1.57553.31905.69398-.93841c0-.7038,0-1.37007-.8159-1.72666-.51579-.2346-.53456-.74134-.46891-1.24808-.26259-.51613-.93782-1.25746-.65648-1.52022.93782-.80703-.10315-1.35131-.05627-1.98942v-.61935c.88155.22522,1.36921,0,1.48174-1.02286.06565-.60997.24384-1.31377,1.11601-1.34192.44619-.69115.44619-1.57979,0-2.27094h-1.32233c-.66584.08445-.8159-.13138-.86281-.86333-.10315-1.5859-.8159-1.93312-2.35394-1.40761-.59083.22522-.68462.65688-.52518,1.21054l.14067.15953c-.20632.4129-.42203.83518-.62835,1.25746-.28133,0-.55331-.06569-.69398-.35659h0c.31886-.93841-.27198-1.54837-.6471-2.25218h0c.30011-.8258-.59083-1.26685-.62835-1.98004h0c.85342-2.49616.54392-3.25627-1.6787-4.30728-.48766-.22522-1.16289-.49735-.6471-1.28562.75963-.18768,1.38798.36598,2.09135.4692l.15005.2346c.18451.90719.64278,1.73588,1.31294,2.37417.69398.58181.93782,2.05511,1.87564,1.80174s1.11601-1.69852,1.51926-2.68384v-.15953c.02822-1.18239.09387-2.15833,1.62252-1.46391Zm-137.85942,3.75362h-.04689.04689Zm.25322,3.27504l-.0844-.06569c-.15276.1345-.28262.29297-.38451.4692h0c1.38797,1.72666,1.30357,1.98942-.93782,2.90906l1.21917.0563h0c.07896.22295-.01667.47018-.22508.58181h-.15943c-.19082.06689-.34865.20465-.44078.38475-.52518-.60058-1.10662.20645-1.65994.30968h0c0-.56304.54394-1.2387-.32824-1.59529.03698-.10595.01561-.22353-.05627-.30968h.11253c.19344-.76003.04249-1.56674-.41264-2.20525l-.05627-.0563c1.51926,0,2.10072-.39413,2.30704-1.66098.0822.09923.17674.18754.28135.26275.27196.15953.54394.34721.85342.15953v.05631c.09704.1871.26654.32618.46891.38475.08414-.00938.16907-.00938.25322,0-.18962.19723-.44129.32314-.71275.35659l-.03751-.03754Zm3.02915-.1783h0s0-.08446.07501,0h-.07501Zm10.94433-10.7729h0Zm-2.40081,21.78978c-.42203-.07507-.87216-.18768-1.06913.35659-.11039.42312.03188.87207.36576,1.15424.26259.30029.82529.56304.41264,1.03225s-.68462,0-1.01283-.16891c-.19207-.09373-.40623-.13269-.61896-.11261h0c-.07965-.06783-.17215-.11889-.27198-.15015-.5627,0-.6471-.40351-.67523-.87272.05529-.42242-.03045-.85128-.24384-1.21993.12272-.06954.20853-.18973.23445-.32844l.68462-.31905h0c.56281-.16472,1.08613-.44251,1.53804-.81642.05627.8821.30011,1.41699,1.08787,1.11671l2.4946-.87272c-.70505.87363-1.81316,1.31786-2.92602,1.17301v.02815Zm7.20244-45.85989h-.04688.04688Zm1.32233,22.88772l.57206.2346c-.20632.14076-.35638.30029-.30947.55366-.2884-.07997-.59315-.07997-.88155,0-.46714-.02354-.88587-.2957-1.09726-.71319-.12951-.26017-.28671-.50558-.46891-.73196.53456-.08446.48766-.49735.40326-.93841-.06391-.07645-.13283-.14856-.20632-.21583.09379-.39413.46891-.4692.76902-.62873h.18758l.12192-.05631h0c.35638.5912,1.35985.37536,1.65057,1.03225-.32375-.18501-.70179-.25138-1.06913-.18768-.21568.5912.54395,1.00409.32827,1.62345l-.00003.02815Zm1.95068,5.46153c-.1208-.15548-.3447-.18353-.50008-.06266-.02341.0182-.04445.03925-.06262.06266h0c.17155-.73533.4906-1.42813.93782-2.03634.41264.92902-.15005,1.44514-.37512,2.03634Zm.66584-6.21225h-.09379c-.00404-.03743-.00404-.07518,0-.11261.01494.03932.0338.07705.05627.11261h.03752Zm.68462,14.33884c-.4783.07507-.67523-.2346-.62835-.67565s-.07501-.76011.45952-.85395c.02384.02693.05246.0492.0844.06569.12092.42009.32861.8101.60961,1.14485-.13428.16234-.31928.27473-.52518.31906Zm3.51682-25.65602c-.28133.29091-.71275.43167-.93782.78826h0c-1.40673-.71319-1.70684-.84457-2.06321-.05631-.12324-.45805-.35483-.87969-.67523-1.22931h0c.49704-.52551.66584-1.53899,1.77249-1.18239h0l1.90377,1.67975Zm.67523.2346h0v-.04692h0v.04692Zm.67523,10.17232h0Zm2.87911-12.73417h0Zm.75963,40.55791c-.5627.60997-.93782.11261-1.74433-.22522.85342-.31905,1.31294-.66627,1.87564-.31905.05624.03752-.01877.42227-.13131.54427Zm4.8579-64.75001v.0563h0v-.0563Zm-2.72906,3.0592h.04688l-.05627.04692.00939-.04692Zm-1.20979,9.065c.00406.01855.00406.03776,0,.0563h0v-.0563Zm-.06565,5.92134h0c.05627-.53489,0-1.25746.87216-.6475.32824.22522.70336.4692.93782.04692s-.19693-.6475-.43139-.93841c-.27492-.25584-.5034-.55747-.67523-.89149l.20632-.06569c1.09726.06569,2.25076-.4692,3.30111.25337.00309.02179.00309.0439,0,.06569-.63376.31955-1.03301.96964-1.03161,1.67975-.11914.81573.34521,1.60448,1.11604,1.89558,1.02222.2346.51579-1.02286.93782-1.45453.7768.9694,1.32499,2.10172,1.60366,3.31257-.7928-.4728-1.66786-.7912-2.579-.93841-1.65054-.4129-2.77594-1.72667-4.25768-2.36478l-.00003.04692Zm5.86137,9.70312c-.47641.0176-.94984-.0823-1.37857-.2909.44424.15188.90926.23418,1.3786.24398l-.00003.04692Zm-3.52621,16.89131c.22581-.546.28775-1.14601.17819-1.72667.87775-.37628,1.8791-.33136,2.71967.12199-.93779.81642-1.22851,2.38355-2.89783,1.5296l-.00003.07507Zm3.49808,5.30199c-.31886.16891-.55331.4692-.9847.40351-.73207-.22747-1.50982.18197-1.73715.9145-.00246.00795-.00487.01592-.00718.02391-.30695-.52357-.34189-1.16336-.09379-1.71728.36576-.93841,1.11601.30029,1.62244-.1783.14067-.7038.48766-.47859.85342-.19706.6471.15014.76902-.31906.93782-.7038.422.55366.97531,1.14486-.59083,1.37946l-.00003.07507Zm7.50255-18.19569h0Zm4.62344-6.51254h0l.09379-.07507c-.02493.00287-.05008.00287-.07501,0l-.01877.07507Zm2.56026-29.3158h-.04688.04688Zm10.11908.57243,4.19205-3.31257c.25163-.09525.51874-.14298.78776-.14076-.25927.06846-.52229.12173-.78776.15953v-.01877Zm2.95412,8.24859c-1.00347.2346-.66584-.50674-.61896-.93841s.66584-.83518.49704-1.43576c.65648.07507.19693.74134.41264,1.05101-.19693.32844.18758.31906.32824.45043-.40935.06422-.68917.44833-.625.85794.00175.01123.00378.02241.00604.03355v-.01877Zm.70336,8.44565h0l.09379.0563c-.03758-.00534-.07141-.02565-.09379-.0563Zm1.52865-12.98754,5.54251-.48797c-.0441.12744-.07247.2598-.0844.39413-.01657-.13712.01314-.27585.0844-.39413Zm-.93782,9.56236h0v-.08446.08446Zm2.29767-3.9413c-.42807.24133-.91613.35528-1.40673.32844-.29072-.55366-.70336-1.1167-1.24729-.77888-.93782.57243-1.07849.30029-1.33172-.45982-.10315-.30029-.28133-.65688-.66584-.54428-.10795.02482-.19613.10246-.23445.20645-.08949-.24552-.04316-.52006.12192-.72257,1.2942.36598,2.54148.93841,3.81693.07507h0v-.51612c.34699,0,.67523,0,.67523.5912.09081.29019.2595.54987.48766.75072.1688.12199.42203.33783.55331.24399.85342-.63812.53456.20645.6471.47859-.50643-.14076-.90033.20645-1.38798.34721h-.02813Zm9.54699,13.55996c-.09711-.01022-.19204-.03554-.28133-.07507h0v-.08446c.12473-.00824.24378.05313.30947.15953h-.02813Zm-1.72558,15.63384c-.7315.25337-.69398-.72257-1.01283-1.13547,1.42547-.38475.69398-1.0604.24384-1.7079l-.21571-.15953v-.05631h.67523c.19178.48958.35154.99112.4783,1.50145.10312.47859.38448,1.31377-.16883,1.55775Zm1.58492,15.01449,0-11.06381c-.56522-.15291-1.01609-.57937-1.20041-1.13547-.10315-.30968.21571-.4129.5627-.36598.46891.22522,1.12539.30968,1.22854,1.00409.06563.43167-.23448.61935-.58147.52551l-.00936-.02815Zm.93782,21.87424h0c.00269-.01867.00269-.03763,0-.0563h0v.0563Zm16.26178.34721,0-33.01312v.13138h0c-.05767-.03069-.11122-.06853-.15944-.11261l.15944-.01877Zm0,40.54852c.00366.10703-.01886.21335-.06565.30968-.00939-.07507.00939-.1783.02813-.2346l.03752-.07507Zm-1.18166-45.98189h0Zm-11.06626,15.58692h0l-.71275-1.27623h0v-1.98004c.71275.97594,1.64118,1.89558.71275,3.25627Zm-.0844,6.91605h0Zm-1.10662-10.81982l-.14067.05631h0l.14067-.05631Zm-2.13826-3.16243h0Zm0,21.01091,4.86728,16.93823c-.29433-.34822-.81507-.39176-1.16306-.09723-.1182.10001-.20586.23126-.25306.37876-.04688.15015-.09379.30029-.13131.44105-1.03161-.55366-.75963-1.59529-.75963-2.53369.02398-.67196-.17739-1.33263-.57206-1.87681h0c.24653-.30466.44284-.64681.58144-1.01348.05618.53276.1407,1.06215.2532,1.58591.19693,1.12608.75963,1.4733,1.82876,1.03225.27198-.11261.54392-.37536,1.00347-.11261-.32243.68756-.59816,1.3961-.82529,2.12079l.03752.07507Zm-.93782-22.18391h0Zm.34699-25.76862,1.75375-11.57993c-.83814.11773-1.69238.02419-2.48522-.27214h0c0-.53489-.49704-1.27623.46891-1.3513v.04692c.42203,1.08855,1.17227.27214,1.77249.30967,2.81346.18768,2.90725.1783,3.27298-2.3554h0c.15944,1.67975,1.50988,1.48268,2.59775,1.67975h0v.08446l-1.36921.98533h0c-1.47238.80703-1.00347,2.29909-1.25667,3.53779-.2532-.47859-1.02222-.43167-1.03161-1.24808.06563-1.27623-.91907-1.4733-1.96943-1.41699Zm.77838,32.98497h0Zm6.64913,31.48351c-1.03636,1.70357-2.60061,3.02167-4.45464,3.75362-.1688.12199-.3376.25337-.51579.36598-.251.16701-.55663.23086-.85342.1783h-.09379c-.51064-.08674-.85431-.57128-.76762-1.08223.01128-.06645.02968-.13149.05486-.194.23609-1.03477.60488-2.03464,1.09726-2.97474.28133-.39413.7315-.61935.99409-1.02286.23428-.42625.36293-.90254.37512-1.38884.30543-.11137.60045-.24954.88155-.4129.20632-.63812.45952-1.20116,1.15353-1.15424-.30011,1.51083,0,1.87681,2.06321,2.59938h.18758c.12192-.25337.04688-.86333.43139-.7038l.3939.15015c-.28139.63812-.59086,1.22932-.94724,1.86743v.01876Zm1.35046-2.59c-.03826-.09136-.0696-.18547-.09379-.28152.0868-.0056.17221-.02459.2532-.0563l-.15941.33783Zm.09379-56.84863-.45016-8.35181c.16585-.16994.41828-.22194.63771-.13138-.23445.0563-.45013.09384-.66584.13138h.02813Zm.7315,64.43095c.00776-.08427.00776-.16909,0-.25337-.00804-.04972-.00804-.10043,0-.15015l.1688-.50674c.12149-.04219.25363-.04219.37512,0-.26256.30029-.41261.60058-.57206.91025h.02813Zm2.86034-65.5195l-.30011.12199c.07639-.06705.17115-.10956.272-.122h.0281Zm-.93782,62.40399s-.0844.10323-.13131.15953h0c-.19693.25337-.37512.51613-.55331.77888-.02244-.81498.51044-1.54138,1.2942-1.7642-.04734.17834-.04734.36594,0,.54428-.25575-.04907-.51559.06237-.65646.28152h.04688Zm1.69745-2.54308c-.06565.27214-.29072.50674-.21571.82579-.10818-.02335-.22006-.02335-.32824,0-.17244-.71542-.89183-1.15552-1.60681-.98297-.0498.01201-.09882.02689-.14691.04456-.03246-.23146-.14536-.44409-.31886-.60058.8282-.09393,1.66107-.14092,2.4946-.14076.33185-.04358.65016.14673.76902.45982.12192.6475-.57206-.03754-.69398.39413h.04688Zm11.71335-7.72308l-.0844.07507v-.0563l.0844-.01877Zm-3.75128-42.72562-1.35985,5.44275h0Zm-.28131,15.69953-2.43834-8.31428c-.00406.02171-.00406.04398,0,.06569h-.06565l.06565-.06569Zm-1.20979,33.68877h-.05627c.16545-.20362.26665-.45187.29072-.71319.03274.0292.07101.05153.11253.06569-.09333.23006-.20958.45014-.34699.65689v-.00939Zm.65648-20.1945h0Zm.12192,20.34464c.07679.07459.13191.16865.15944.27214-.04196-.09392-.0955-.18219-.15944-.26275v-.00939Zm1.18166-14.48899h0Zm.87216-17.64203c-.07501.55366-.52518,1.09793-.24384,1.67036l-.59083.34721c-.00555-.02154-.00555-.04415,0-.06569-.52913-.10794-1.07454-.10794-1.60366,0-.07501-.30968.07501-.72257-.36576-.8821-.93782-.37536-1.41612-1.2387-1.97878-1.99881.23445-.40351.61896-.31906.93782-.29091h0c.45016.75072.93782,1.15424,1.79124.43167.21571-.19706.87216-.14076.83467,0-.57206,1.87681.82529.49735,1.21915.72257.00939.04692.00939.05631,0,.07508v-.00939Zm.09379,32.01841h.06565v-.15015h0c-.03297.09268-.0152.19585.04688.27214l-.11253-.12199Zm6.50847,4.49497l-.15005.06569c.01339-.06501.01339-.13206,0-.19706-.93782-1.0604-2.02569-.24399-3.04791-.25337,0-.34721.07501-.72257-.31886-.93841h0c-.68462-1.04163-2.26015-1.19177-2.61652-2.58062-.03537-.08692-.0575-.17865-.06565-.27214l-.11253-.13138c.07315.06136.1674.09167.26259.08445.62835-1.26685,1.60366-.09384,2.51335-.30029-.37512-.56304-.59083-1.08855.12192-1.46391s.63771.2909.82529.60058c.40326.6475.87216.22522,1.32233.12199-.00982.07475-.00982.15046,0,.22522,0,.53489-2.11948,1.11671-.21571,1.61406.01068.55654.3965,1.03527.93782,1.16362l.3939.11261c.22507.69442.61896,1.37007.15005,2.15833v-.00938Zm.36576-22.89711v.06569h-.05627l.05627-.06569Zm.05624,13.76641l-.06565.06569c.00893-.05595.00893-.11296,0-.16891.10856.01931.21969.01931.32824,0v.10323h-.26259Zm2.34455-32.44069l.17819-.14076h0l-.17819.14076Zm.93782-2.2991c.0528-.02994.10967-.05206.1688-.06569h0l-.1688.06569Zm2.19449,42.64116,2.90725-32.90051h0Zm.60022,7.3008v.07507c-.18079-.10673-.39215-.14969-.60022-.12199-.0593-.00452-.11889-.00452-.17819,0-.13108-.2132-.17158-.46995-.11253-.71319h0c.62835-.11261.42203-.6475.51579-1.03225h0c.66587.51612.31888,1.18239.38451,1.77359l-.00936.01876Zm1.27542-1.80174.05627,4.25098h0v-.05631c.00269.01867.00269.03763,0,.05631Z"/>
      <path class="cls-1" d="m328.64936,91.70102v-.93841h1.38798c-.23445-.71319-.55331-1.78297-.93782-3.02167-.29072.37536-.60022.73196-.93782,1.07917-.98919,1.12996-1.85383,2.36326-2.579,3.67855h.53456l.7315.93841,2.25076-.0563.06565-.0563v-1.62345h-.51582Z"/>
      <path class="cls-1" d="m293.53741,89.51454l6.94924.4129.0844-1.06978-.38451-.25337c-.92417-.53322-1.8109-1.12892-2.65402-1.78297h-5.87076c-.10881.21714-.36064.32114-.59083.24399l-.28133-.14076h-.06565c-.22507,0-.45016-.06569-.68462-.09384-3.24485,0-6.18961-.08445-8.18717-.1783.07195.50814.30157.98082.65648,1.35131.63459.4638,1.37705.75774,2.15697.85395,1.24577.64979,2.59972,1.06639,3.99512,1.2293l1.33172.45982c.06377.0227.12979.03844.19693.04692h0l3.12293-.37536.2251-.7038Z"/>
      <path class="cls-1" d="m322.48788,89.69284c.06253-.50519.17885-1.00224.34699-1.48268.13698-1.19602.41722-2.37121.83467-3.50026.1759-.39697.40288-.76923.67523-1.10732l-3.92008.19706-.09379.32844c-.03142.12949-.03142.26464,0,.39413-.78112,2.10362-1.40799,4.26142-1.87564,6.45623l3.75128.21584.37512.28152c-.02813-.45043-.14067-1.33253-.09379-1.78297Z"/>
      <path class="cls-1" d="m312.14374,86.50226c.036-.26285.08927-.52303.15944-.77888.07619-.38113.39996-.66269.78776-.68504l.11253-.06569c.75651-.31729,1.52982-.59298,2.31641-.82579l.1688-.10323-6.83671.34721c.43142.79451.88155,1.58277,1.35046,2.36478h-3.48869c-.13222,1.16747-.32947,2.32663-.59083,3.4721l4.78288.28152c.20632-.81642.44078-1.61406.69398-2.42109.14714-.53976.32884-1.06949.54395-1.5859Z"/>
      <path class="cls-1" d="m329.66219,86.56794h0c.4783,1.54837.93782,3.07797,1.32233,4.23221h1.94129c.78857-.43523,1.48085-1.02579,2.03508-1.73605l.22507-.2346c-.75963-1.6516-1.74433-3.75362-2.579-5.63044l-2.36329.12199v1.09793c-.21571.7038-.3939,1.42638-.58147,2.14895Z"/>
      <path class="cls-1" d="m314.16943,77.24957l-7.54943.1783c0,.28152-.01875.56304-.05627.84457l7.61509-.51613c.05813-.16451.05478-.3445-.00939-.50674Zm-5.89889.40351c.04324-.05407.10898-.08522.17819-.08445-.06877.06838-.12581.14764-.1688.2346-.01374-.05179-.03257-.10209-.05627-.15015h.04688Z"/>
      <path class="cls-1" d="m325.76086,76.94928l-3.79816.08445c.00461.05621.00461.1127,0,.16891l3.79816-.25337Z"/>
      <path class="cls-1" d="m321.67198,77.24019l.14067-.1783-4.50152.10323-.22507.38475,4.58592-.30968Z"/>
      <path class="cls-1" d="m325.24507,75.79504l-7.20244.16891-.20632.33783,7.40877-.50674Z"/>
      <path class="cls-1" d="m314.40388,76.01088l-8.71235.20645c.11253.25337.22507.51613.3376.76011.09642.00846.19112.03058.28133.06569l7.98085-.54428.11256-.48797Z"/>
      <path class="cls-1" d="m326.27668,78.13168l-4.48277.11261c.00455.06561.00455.13146,0,.19706l4.48277-.30968Z"/>
      <path class="cls-1" d="m313.50359,78.76979c.03806-.10861.08191-.21511.13131-.31905l-7.12743.16891v.86333l6.97738-.47859c.00936-.07507.00936-.1783.01875-.2346Z"/>
      <path class="cls-1" d="m316.27952,78.82609l4.34211-.30029c.00157-.03126.00157-.06258,0-.09384.05627,0,.09379-.10323.14067-.15015l-4.2108.10323c-.05627.14076-.15944.28152-.27198.44105Z"/>
      <path class="cls-1" d="m315.5105,79.7645c-.12192.12199-.26259.22522-.3939.34721l4.9423-.33783.15944-.2909-4.55779.11261-.15005.16891Z"/>
      <path class="cls-1" d="m326.36108,79.33283h0l-4.7735.12199c-.01102.07596-.02667.15117-.04688.22522l4.82038-.34721Z"/>
      <path class="cls-1" d="m306.61061,79.81142c.12192.28152.24384.56304.37512.84457l6.44281-.44105v-.57243l-6.81794.16891Z"/>
      <path class="cls-1" d="m321.28747,80.89058l4.97982-.33783h0l-4.93294.12199-.04688.21584Z"/>
      <path class="cls-1" d="m314.2257,80.81552c-.28133.18768-.55331.37536-.84403.55366v-.53489l-6.25527.15953c.12192.27214.2532.55366.3939.82579l11.67586-.78826.26259-.35659-5.23305.14076Z"/>
      <path class="cls-1" d="m320.9311,82.1199l4.89542-.33783c.01912-.02607.03486-.05444.04688-.08445l-4.8579.13138-.0844.2909Z"/>
      <path class="cls-1" d="m307.69848,82.16682c.13131.28152.28133.55366.41264.82579l9.88462-.67565.44078-.42228-10.73804.27214Z"/>
      <path class="cls-1" d="m303.4783,34.38319v.6475l5.42998-.42228-5.42998-.22522Z"/>
      <path class="cls-1" d="m303.59083,71.53468c.09379.30029.17819.60058.27198.93841l19.33783-1.33253-19.6098.39413Z"/>
      <path class="cls-1" d="m314.58207,74.85663l-9.37819.21584c.12192.2909.2532.57243.37512.86333l8.99368-.61935c-.01875-.15014,0-.30967.00939-.45982Z"/>
      <path class="cls-1" d="m324.73864,74.62203l-5.77697.13138c-.0862.08944-.16763.18342-.24384.28152l6.02081-.4129Z"/>
      <path class="cls-1" d="m304.24732,73.60856l19.45975-1.35131-19.75047.44105c.09376.31905.18755.60997.29072.91025Z"/>
      <path class="cls-1" d="m304.56617,74.31236h0c.07601.03123.14588.07571.20632.13138.09447.08391.17103.18605.22507.30029l9.57513-.65688v-.33783c.21843.0729.42649.17384.61896.30029l1.41612-.10323h.07501l7.50255-.51613-19.88178.45044.12192.37536h0l.1407.0563Z"/>
      <path class="cls-1" d="m304.05974,21.37689v.33783l.22507-.06569-.22507-.27214Z"/>
      <path class="cls-1" d="m303.62835,30.7891v.61935l4.02325-.33783-4.02325-.28152Z"/>
      <path class="cls-1" d="m303.68462,29.58794v.60996l3.54496-.30029-3.54496-.30967Z"/>
      <path class="cls-1" d="m303.7315,28.39616v.59119l3.07605-.27214-3.07605-.31906Z"/>
      <path class="cls-1" d="m303.53456,33.18203v.6475l4.96107-.40351-4.96107-.24398Z"/>
      <path class="cls-1" d="m303.78776,27.21377v.59119l2.59775-.24399-2.59775-.34721Z"/>
      <path class="cls-1" d="m303.58144,31.99026v.62873l4.49216-.36598-4.49216-.26275Z"/>
      <path class="cls-1" d="m305.03508,9.59989c.93782,5.75243,6.98676,24.70823,13.34518,43.7391,2.34246,5.10024,4.95005,10.07434,7.81202,14.90189-7.28687-17.3699-16.6088-41.24294-21.27912-59.79522.01108.26701.03612.53326.07501.79765.01877.14076.02813.24398.04691.35659Z"/>
      <path class="cls-1" d="m304.00347,22.43728v.50674l.74089-.12199-.74089-.38475Z"/>
      <path class="cls-1" d="m304.64118,26.4912h0l1.30358-.13138-2.09135-.3566v.57243l.82529-.08446h-.03752Zm0,0"/>
      <path class="cls-1" d="m305.63527,69.10421h0c-.39247.08505-.79855.08505-1.19102,0h-1.50988l.2532.93841,18.99084-1.30438-16.54314.36598Z"/>
      <path class="cls-1" d="m303.85342,24.81145v.55366l1.65057-.1783-1.65057-.37536Z"/>
      <path class="cls-1" d="m303.94721,23.62906v.52551l1.17227-.15014-1.17227-.37536Z"/>
      <path class="cls-1" d="m303.2532,70.38044c.0844.30029.1688.60997.26259.93841l19.16903-1.32316-19.43161.38475Z"/>
      <path class="cls-1" d="m303.02813,47.56779v.75072l10.51295-.75072h-10.51295Z"/>
      <path class="cls-1" d="m302.9156,50.75837l11.42263-.81641-11.40388.04692c-.01875.26275-.01875.51612-.01875.76949Z"/>
      <path class="cls-1" d="m313.72865,42.14381c-1.98817-6.07149-3.85442-11.92714-5.41121-17.05084,1.50993,5.77282,3.31605,11.46397,5.41121,17.05084Z"/>
      <path class="cls-1" d="m302.9156,51.9783l11.88218-.84457-11.88218.06569v.77888Zm3.67626-.37536h-.05627.05627Z"/>
      <path class="cls-1" d="m302.85933,54.42754l12.77309-.93841-12.71683.13138c0,.26275-.05627.52551-.05627.80703Z"/>
      <path class="cls-1" d="m302.9156,53.19823l12.33232-.8821-12.31357.09384c-.01875.26276-.01875.52551-.01875.78826Z"/>
      <path class="cls-1" d="m302.97187,49.53845l10.9725-.78826h-10.95372c-.00939.28152-.00939.54427-.01877.78826Z"/>
      <path class="cls-1" d="m303.98473,68.15642c.46891-.36598.67523.43167,1.27542.21584.8159-.2909.72211,0,.5627.30968l15.84914-1.11671-18.95332.37536v.31905c.04688.19706.09379.40351.15005.60058l1.30358-.09384c-.04565-.11614-.08323-.23529-.11253-.35659.01545-.09153-.01225-.18506-.07504-.25337Z"/>
      <path class="cls-1" d="m302.71867,64.07435l16.88075-1.17301-16.88075.2909v.8821Z"/>
      <path class="cls-1" d="m302.70928,65.2849l17.41531-1.21054-17.40592.30968c-.00939.30029-.00939.60058-.00939.90087Z"/>
      <path class="cls-1" d="m302.70928,67.68721l18.43753-1.26685-18.43753.35659v.91025Z"/>
      <path class="cls-1" d="m302.72802,62.87319l16.37432-1.14486-16.36496.27214c-.00936.2909-.00936.58181-.00936.87272Z"/>
      <path class="cls-1" d="m302.70928,66.48606l17.9311-1.2387-17.9311.32844v.91025Z"/>
      <path class="cls-1" d="m302.81245,56.83924l13.7203-.93841-13.71091.15953c-.00003.24399-.00939.51613-.00939.77888Z"/>
      <path class="cls-1" d="m302.73741,61.66265l15.84914-1.09793-15.83975.2346c0,.30029-.00939.58181-.00939.86333Z"/>
      <path class="cls-1" d="m302.8312,55.6287l13.22326-.93841-13.20448.13138c-.00939.28152-.00939.54428-.01877.80703Z"/>
      <path class="cls-1" d="m302.78429,58.04979l14.26422-1.00409-14.24545.19706c-.00939.25337-.00939.53489-.01877.80703Z"/>
      <path class="cls-1" d="m302.75616,60.46149l15.31457-1.06978-15.30522.21583c-.00936.29091-.00936.57242-.00936.85395Z"/>
      <path class="cls-1" d="m302.76555,59.25095l14.79879-1.06978-14.78004.19706c-.00936.31906-.00936.60058-.01875.87272Z"/>
      <path class="cls-1" d="m298.92048,38.00544c-1.73211-.01182-3.45234-.2871-5.10174-.81641-.0844.25337-.15944.49735-.24384.74134,1.77361.22283,3.56642.24801,5.34558.07507Z"/>
      <path class="cls-1" d="m299.32376,30.73279c-1.08186-.02004-2.1542-.20678-3.17922-.55366-.05627.1783-.11253.34721-.17819.51612,1.11343.14935,2.24092.16195,3.35741.03754Z"/>
      <path class="cls-1" d="m298.71416,41.64645c-2.04553-.01071-4.078-.327-6.03017-.93841-.09379.29091-.18758.56304-.27198.84457,2.09169.25109,4.2039.28254,6.30215.09384Z"/>
      <path class="cls-1" d="m299.38939,29.52225c-.9578-.02779-1.90609-.19859-2.81346-.50674-.05627.15014-.11253.31906-.1688.47859.98931.12961,1.99066.13906,2.98226.02815Z"/>
      <path class="cls-1" d="m299.16432,33.15388c-1.30021-.01943-2.59008-.23455-3.82629-.63812l-.20632.5912c1.33744.17764,2.69139.1934,4.03261.04692Zm-2.3258-.10323h.05627-.05627Z"/>
      <path class="cls-1" d="m299.46443,28.31171c-.86209-.02742-1.71537-.18237-2.53212-.45982-.05627.14076-.10315.29091-.15005.44105.88997.11524,1.79067.12154,2.68218.01877Z"/>
      <path class="cls-1" d="m299.53009,27.09178c-.74996-.02989-1.49193-.16574-2.20388-.40351l-.14067.40351c.7776.1105,1.56694.1105,2.34455,0Z"/>
      <path class="cls-1" d="m298.77981,40.42653c-1.94169.00334-3.87197-.29746-5.7207-.89149-.0844.27214-.17819.54428-.26259.81641,1.98594.24016,3.99197.26533,5.98329.07507Z"/>
      <path class="cls-1" d="m299.16432,34.37381c-1.40819-.02772-2.80476-.26168-4.14517-.69442-.06565.21583-.14067.42228-.20632.63812,1.44371.18326,2.90352.20215,4.35149.05631Z"/>
      <path class="cls-1" d="m298.84547,39.21598c-1.83694-.00385-3.66224-.2919-5.41121-.85395l-.24384.77888c1.87644.23438,3.77306.25956,5.65505.07507Z"/>
      <path class="cls-1" d="m299.05179,35.58435c-1.51709-.00909-3.02339-.25607-4.46403-.73196-.07501.22522-.15005.45043-.21571.66627,1.55272.19439,3.12218.21642,4.67974.06569Z"/>
      <path class="cls-1" d="m298.98613,36.79489c-1.62487-.00271-3.23907-.26241-4.78288-.76949-.07501.2346-.15944.4692-.23445.7038,1.665.20579,3.34753.22782,5.01734.06569Z"/>
      <path class="cls-1" d="m303.43139,35.58435v.65688l5.89889-.45982-5.89889-.19706Zm1.51926.30029h0c-.04047-.00531-.08145-.00531-.12192,0h.12192Z"/>
      <polygon class="cls-1" points="330.06548 92.58313 331.0877 91.70102 330.06548 91.70102 330.06548 92.58313"/>
      <path class="cls-1" d="m299.59571,25.88123c-.63923-.02677-1.27113-.14691-1.87564-.35659,0,.12199-.0844.24399-.12192.36598.66278.09368,1.33567.09052,1.99756-.00938Z"/>
      <path class="cls-1" d="m301.4526,62.52598l1.60366-54.30555c-1.8475,9.04623-5.65505,32.19671-1.60366,54.30555Z"/>
      <path class="cls-1" d="m299.25811,31.9058c-1.19271-.02218-2.37523-.22466-3.50743-.60058-.05627.18768-.12192.37536-.18758.55366,1.22514.16649,2.46604.18225,3.69501.04692Z"/>
      <path class="cls-1" d="m303.09379,45.16548v.74134l9.60326-.7038-9.60326-.03754Z"/>
      <path class="cls-1" d="m303.13131,43.9737v.72257l9.14374-.66627-9.14374-.05631Z"/>
      <path class="cls-1" d="m298.63915,42.857c-2.14884.01497-4.28719-.30155-6.33967-.93841-.09379.30029-.18758.5912-.27198.8821,2.19618.2447,4.41163.26357,6.61164.05631Z"/>
      <path class="cls-1" d="m299.73638,23.46015c-.41559-.02546-.82574-.10754-1.21915-.24399,0,.09384-.06565.1783-.09379.26275.43611.05951.87869.05319,1.31294-.01877Z"/>
      <path class="cls-1" d="m303.17819,42.77254v.71319l8.68421-.63812-8.68421-.07507Z"/>
      <path class="cls-1" d="m303.34699,37.97729v.68504l6.83671-.52551-6.83671-.15953Z"/>
      <path class="cls-1" d="m299.67075,24.67069c-.53036-.02707-1.05436-.12814-1.55678-.30029,0,.10323-.06565.20645-.10315.30967.55091.07633,1.10991.07316,1.65993-.00938Z"/>
      <path class="cls-1" d="m303.21571,41.57138v.71319l8.23405-.60997-8.23405-.10322Z"/>
      <path class="cls-1" d="m304.28481,36.80428h.05627c.00507.02477.00507.05031,0,.07507h0s-.05627-.07507-.09379-.11261h-.82529v.67565l6.3678-.48797-5.50499-.15015Z"/>
      <path class="cls-1" d="m303.30011,39.17845v.68504l7.30562-.54428-7.30562-.14076Z"/>
      <path class="cls-1" d="m303.2532,40.35145v.69442l7.76514-.58181-7.76514-.11261Z"/>
      <path class="cls-1" d="m313.1003,46.3854h-10.04404v.74134l10.04404-.74134Z"/>
      <path class="cls-1" d="m298.0952,52.55073c-5.18614-.19706-7.70887-.87272-8.73109-1.24808-.11253.38475-.22507.76011-.34699,1.13547,3.01526.33127,6.05553.36898,9.07808.11261Z"/>
      <path class="cls-1" d="m298.02957,53.76127c-5.35494-.20645-7.96208-.89149-9.02182-1.27623-.12192.38475-.23445.77888-.35638,1.16362,3.11494.34295,6.25592.38067,9.37819.11261Z"/>
      <path class="cls-1" d="m298.50784,45.27808c-2.35574.00667-4.69886-.34455-6.94924-1.04163l-.30011.93841c2.40651.28315,4.83577.31774,7.24935.10323Z"/>
      <path class="cls-1" d="m298.17024,51.34019c-5.0267-.19706-7.45567-.85395-8.44037-1.21993-.11253.37536-.22507.74134-.32824,1.10732,2.91214.32487,5.84912.36258,8.76862.11261Zm-7.19309-.13138h0c-.00452-.04368-.00452-.0877,0-.13138l.09379.08446-.09379.04692Z"/>
      <path class="cls-1" d="m298.57349,44.10508c-2.25208.00465-4.49148-.33718-6.63975-1.01348-.10315.30968-.19693.61935-.29072.93841,2.30113.26795,4.62407.29311,6.93047.07507Z"/>
      <path class="cls-1" d="m290.35819,84.55976c.01946.0242.04147.04622.06565.06569,2.69119.05967,5.38365-.02804,8.06525-.26275-3.46056-.12199-6.27401-.34721-8.57168-.60997.14719.23852.27275.48977.37512.75073l.06565.0563Z"/>
      <path class="cls-1" d="m294.62528,80.88121c-.05627-.13138-.10315-.27214-.15944-.40351-2.96351-.19706-5.28931-.47859-7.10866-.76949.05627.68504.69398.58181,1.34107.47859.12633-.08616.2615-.15852.40326-.21584.07476.26222.13426.52854.17819.79764-.00541.04362-.00541.08775,0,.13138,2.04447.04692,3.8732.02815,5.34558-.01876Z"/>
      <path class="cls-1" d="m295.10358,82.10113l-.14067-.36598c-2.2414-.14076-4.13579-.31905-5.73945-.52551h0c.04688.30968.11253.60997.17819.93841,2.26012.03754,4.19202.00939,5.70193-.04692Z"/>
      <path class="cls-1" d="m289.47666,82.46711c.06565.30968.14067.61935.22507.93841,2.34455,0,4.36085,0,5.86137-.06569-.03497-.11151-.07567-.22113-.12192-.32844-2.3258-.15014-4.2952-.33783-5.96452-.54428Z"/>
      <path class="cls-1" d="m297.59815,68.36287c-.98158-.03754-1.90065-.08445-2.75719-.14076-.04714.10102-.07876.20858-.09379.31905,1.86628-.03753,2.9729-.16891,2.85098-.17829Z"/>
      <path class="cls-1" d="m297.94517,74.51882h-.58144c.00455.02796.00455.05649,0,.08445.19567-.01331.39006-.04154.58144-.08445Z"/>
      <path class="cls-1" d="m297.80447,72.0508h-.83467v.12199c.28116-.01701.56038-.05782.83467-.12199Z"/>
      <path class="cls-1" d="m297.87013,73.2895h-.69398v.10323c.23328-.01956.4651-.05404.69398-.10323Z"/>
      <path class="cls-1" d="m298.48909,85.61077h0c-3.01039-.10323-5.54251-.2909-7.67135-.50674.19015.25035.3625.51375.51579.78826,3.93885-.01876,6.67727-.22522,7.15557-.28152Z"/>
      <path class="cls-1" d="m298.07645,76.94928h-.54392v.07507c.18325-.00808.36533-.03321.54392-.07507Z"/>
      <path class="cls-1" d="m298.0108,75.74812h-.51579v.07507c.17398-.00785.34676-.033.51579-.07507Z"/>
      <path class="cls-1" d="m298.28277,80.70291l-1.36921-.06569-.05627.1783c.99409-.11261,1.52865-.11261,1.42547-.11261Z"/>
      <path class="cls-1" d="m298.35781,81.90406l-1.82876-.08445c0,.07507-.04688.15015-.06565.22522,1.2942-.06569,2.00695-.14076,1.89441-.14076Z"/>
      <path class="cls-1" d="m298.2265,79.43606h-.99409v.13138c.33431-.01738.66673-.06131.99409-.13138Z"/>
      <path class="cls-1" d="m298.15149,78.20674h-.72211v.10323c.24301-.01559.48445-.05011.72211-.10323Z"/>
      <path class="cls-1" d="m298.42344,83.13337c-.83467,0-1.62244-.06569-2.38207-.11261l-.21571.2909c1.74436-.08445,2.72909-.17829,2.59778-.17829Z"/>
      <path class="cls-1" d="m290.98654,68.50363l.10315.11261h2.6634c-.04221-.1477-.0955-.292-.15944-.43167-1.17227-.09384-2.21324-.20645-3.13231-.32844.19241.20114.36808.41769.52521.6475Z"/>
      <path class="cls-1" d="m293.20917,69.32942h-.30011c-.74941-.0986-1.50913.07811-2.13823.49735,2.29973.0651,4.60126-.00383,6.89298-.20645-1.57553-.0563-2.9729-.14076-4.22957-.24399h-.06565l-.15941-.04692Z"/>
      <path class="cls-1" d="m284.56247,84.55976c-.04946-.04223-.10684-.07413-.1688-.09384l-.0844-.16891c-.50643-1.62345-1.00347-3.2375-1.50052-4.86094l.3376-.16891h0c.3376,1.18239,1.81937.32844,2.28828,1.27623.93782-.08445.60022-.78826.62835-1.31377,0-.32844.06565-.65688.12192-1.2387.18735.57425.63101,1.02859,1.20041,1.22931-.01213.12796-.01213.25679,0,.38475,2.61652.11261,4.97043.10323,6.80858.0563l-.04688-.10323-.05627-.33783c-2.51618-.17471-5.02083-.48798-7.50255-.93841,2.81346.15953,5.40185.15953,7.39941.11261,0-.15015-.04688-.30029-.07501-.45982-2.4604-.17338-4.90893-.48669-7.33375-.93841,2.75719.15015,5.24241.15953,7.21183.12199,0-.15953,0-.30968-.06565-.4692-2.39798-.17638-4.78391-.48969-7.14618-.93841,2.61647.30029,5.08294.30029,6.95857.30029l-.05627-.47859c-2.3424-.17328-4.67238-.48664-6.97738-.93841,2.90725.1783,5.52377.1783,7.50255.13138l.49704-.12199c.06688-.07325.11794-.1595.15005-.25337-2.73618-.14373-5.45917-.47608-8.14965-.99471,3.16983.19706,5.99268.18768,8.03712.12199v-.11261c-.0148-.08066-.0148-.16333,0-.24399-2.69514-.15695-5.37692-.49238-8.02773-1.00409,3.45117.21584,6.49908.18768,8.55291.11261l.31886-.2909c-2.97101-.12823-5.92768-.48588-8.84363-1.06978,3.18449.20949,6.37839.23455,9.56577.07507.00532-.05932.00532-.11898,0-.1783l.1688.16891c.46133-.0105.92165-.0481,1.3786-.11261-2.96351-.10323-5.33619-.30029-7.23997-.54428-.02859.08518-.04748.17332-.05627.26275-.05781-.10952-.13039-.21056-.21571-.30029-1.50052-.18768-2.70092-.40351-3.62936-.60997.93782.06569,1.87564.11261,2.76658.14076v-.8821c-1.08787-.15953-1.97878-.32844-2.70092-.49735.93782.06569,1.87564.11261,2.70092.14076v-.69442h0c.05893-.04025.10984-.09118.15005-.15015-1.15353-.16891-2.08196-.35659-2.81346-.52551,1.03161.07507,2.02569.12199,2.9729.15015.00464-.06561.00464-.13146,0-.19706l.23445.20645h3.45117v-.07507h0c.06248.0288.12212.06335.17819.10323,1.34047.00464,2.68029-.06113,4.01387-.19706-3.63288-.05282-7.25167-.46459-10.80367-1.22931,3.57343.29128,7.16461.29128,10.73804,0-3.58033-.05911-7.14592-.47404-10.64425-1.2387,3.5295.29312,7.07723.29312,10.60673,0-3.55348-.04355-7.09266-.45871-10.55985-1.2387,3.5356.29734,7.08988.29735,10.62548,0-3.5113-.04223-7.00774-.46383-10.42854-1.25746,3.49155.30185,7.00265.30185,10.4942,0-3.43445-.02343-6.856-.42307-10.20351-1.19179,3.4309.31014,6.88193.32897,10.31601.0563-3.42767-.02289-6.84037-.45447-10.16596-1.28562,3.40171.32801,6.82598.34999,10.23161.06569-3.38159-.01886-6.74825-.45059-10.02529-1.28562,3.35429.33332,6.73208.35845,10.09094.07507-5.56126-.20645-8.49664-.86333-9.86585-1.30438,3.30051.3381,6.62521.36951,9.9315.09384-5.56126-.22522-8.44037-.93841-9.70643-1.31377,3.25023.33764,6.52481.3722,9.78145.10323-5.62692-.22522-8.38411-.93841-9.55638-1.33253,3.19639.34286,6.41797.3837,9.62203.12199-5.52377-.21583-8.21531-.93841-9.31254-1.31377l-.35638,1.19178c-.12192.40351-.24384.81641-.35638,1.21054s-.24384.80703-.35638,1.21054-.23445.81641-.35638,1.21054-.23445.81641-.34699,1.21054c-.11253.39413-.23445.81642-.34699,1.21054s-.23445.81642-.34699,1.21993l-.3376,1.21054c-.11253.40351-.22507.81642-.3376,1.21054l-.3376,1.21993c-.11253.4129-.22507.81642-.32824,1.21054s-.22507.82579-.32824,1.21993-.21571.81642-.32824,1.21993-.21571.82579-.31886,1.21993c-.10315.39414-.20632.81642-.30947,1.21993s-.21571.82579-.30947,1.21993-.21571.82579-.30947,1.21993-.20632.82579-.30011,1.21993-.19693.82579-.29072,1.22931-.20632.82579-.29072,1.21993-.19693.83518-.28133,1.21993-.19693.83518-.28133,1.22931l-.26259,1.21993c-.0844.4129-.1688.77888-.24384,1.13547.04688.12199.09379.24399.15005.36598.13131.67565.27198,1.34192.41264,2.01757.00527.09064.00527.1815,0,.27214,1.68806.15953,3.32925.26275,4.88603.32844-.36576-.16891-.7315-.34721-1.08787-.55366s-.49713-.43171-.7691-.65692Z"/>
      <path class="cls-1" d="m298.36717,47.69917c-2.54211-.00116-5.07017-.37744-7.50255-1.1167-.10315.33783-.21571.68504-.31886,1.01348,2.59692.29952,5.21751.3341,7.82141.10322Z"/>
      <path class="cls-1" d="m298.44221,46.48863c-2.46057.01505-4.90881-.34893-7.25871-1.07917-.10315.32844-.20632.65688-.30011.93841,2.50791.30928,5.04115.35645,7.55882.14076Z"/>
      <path class="cls-1" d="m298.2265,50.12964c-4.84854-.20645-7.19309-.84457-8.14965-1.19178-.11253.36598-.22507.72257-.32824,1.07917,2.81517.31963,5.65522.35736,8.47789.11261Z"/>
      <path class="cls-1" d="m298.30152,48.9191c-4.6891-.18768-6.9305-.80703-7.84954-1.15424-.11253.3566-.21571.69442-.31886,1.04163,2.71234.30829,5.44858.34601,8.1684.11261Z"/>
      <path class="cls-1" d="m336.2457,91.08167c-.04688-.08445-.0844-.1783-.13131-.28152h-3.18858c-.56092.42764-1.19717.74597-1.87564.93841h1.66932v4.20406h0v-.79764l-2.69154-.1783v-2.34601l-.89094.77888v1.51083h0l-1.25667-.07507h0l-23.16415-1.19177h0l-13.12947-.67565,4.79224.15953-14.38614-.93841,14.38614.93841,30.94803,1.03225-.49704-.61935h-1.93191c.23921-.30017.4615-.61346.66584-.93841h-1.69745l-1.25665-1.12608v.0563l-4.14517-.44105v-.11261l-7.50255-.44105c0,.1783-.10315.36598-.15005.55366h-4.8204c.06565-.28152.13131-.56304.18758-.83518l-4.07952-.24399v.07508l.14067.2346h-.26256v.0563h-.34699l-9.68766.69442c-.60268-.13229-1.19506-.30791-1.77249-.52551l-6.89298.83518-1.21915.45044-.19693.07507.19693-.07507h-.23445l-1.80063-3.93192,1.47238.10323.05627-.93841-11.40388-.73196-.05627.93841.75024.0563-1.68806,3.69732-.10315.2346.10315-.2346-2.50399-.15953.38451.86333,2.3258.39413,3.46994,9.38406c-1.22854-4.30728-2.40081-8.56764-2.40081-8.56764l6.83671.42228s21.68238,1.35131,24.44895,1.4733h.26256c-.09674.00818-.19399.00818-.29072,0-2.55087,0-21.49483-.15015-21.49483-.15015l37.6253,1.56714h-36.01225l40.67321,1.34193h-37.93477l40.47628,1.14486-36.42489.36598,38.76005.75073-34.38981.67565,35.68401.19706-27.97513.82579,36.21857.0563,2.38207-5.24569-.93782-.04692c-.21499-.30055-.44667-.58878-.69398-.86333h-.51579v-3.75362h.71275v-.93841h-.75963c0,.08445.06565.15953.10315.22522l-.93785.09384Zm-18.51254.93841l3.38551.20645c.25463.08779.38995.36551.3022.62031-.05561.16151-.19155.28216-.35847.3181l-3.38551-.21584c-.26714-.02002-.47037-.24828-.45952-.51613.03409-.25339.26121-.43521.51576-.41289h.00003Zm-9.83771-.48797l3.38551.21584c.25463.08779.38995.36551.3022.62031-.05561.16151-.19155.28216-.35847.3181l-3.38551-.21584c-.2633.0567-.52269-.11093-.57935-.3744-.05664-.26347.11087-.52301.37418-.5797.08695-.01872.17736-.0133.26144.01569Zm-10.02529-.67565l3.38551.20645c.26579.02003.46631.24989.45016.51613-.01468.26391-.24041.46593-.50414.45123-.00389-.00022-.00778-.00049-.01165-.00079l-3.38551-.20645c-.26579-.02003-.46631-.24989-.45016-.51613.01468-.26391.24041-.46593.50414-.45123.00389.00021.00776.00048.01162.00079h.00003Zm-23.44548.50674l-4.32333-.28152,1.70684-3.75362,2.61652.1783-.00003,3.85685Zm.93782.0563v-3.8287l3.75128.25337,1.3786,3.90376-5.12987-.32843Zm60.95825,3.91315l-2.58839-.16891v-3.46271h2.58839v3.63163Z"/>
      <path class="cls-1" d="m305.93538,91.09106h4.8204c.04688-.18768.10315-.37536.15005-.55366l-4.78288-.28152c-.0563.27214-.12192.55366-.18758.83518Z"/>
      <path class="cls-1" d="m302.17471,90.3591l-.14067-.2346v.24399l.14067-.00939Z"/>
      <path class="cls-1" d="m325.59206,92.53621c-.20435.32495-.42664.63824-.66584.93841h1.93191l-.7315-.93841h-.53456Z"/>
      <path class="cls-1" d="m301.65893,90.39664l-1.20041-.10323v-.36598l-6.92111-.4129-.21571.67565-3.12293.37536c.57744.21759,1.16981.39321,1.77249.52551l9.68766-.69442Z"/>
      <path class="cls-1" d="m331.05018,91.08167h-.93782c0-.08445-.06565-.19706-.10315-.2909h-1.38798v.93841h.55331v1.66098l.89094-.77888v-.8821h.9847c.67847-.19243,1.31472-.51076,1.87564-.93841h-1.95065c.07501.10323.07501.23461.07501.29091Z"/>
      <path class="cls-1" d="m318.44588,91.02537v.11261l4.14517.44105v-.0563l-.37512-.28152-3.77005-.21584Z"/>
      <path class="cls-1" d="m336.2457,91.08167l.93782-.0563c0-.06569-.06565-.14076-.10315-.22522h-.96598c.04691.10323.0844.22522.13131.28152Z"/>
      <path class="cls-1" d="m301.97778,90.42479v-.0563h-.35638l.35638.0563Z"/>
      <path class="cls-1" d="m302.03405,90.08697v-.11261h-.05627s0,.11261.05627.11261Z"/>
      <path class="cls-1" d="m330.11236,91.09106h.93782c0-.08445-.05627-.18768-.09379-.28152h-.93782c.09379.08446.09379.21584.09379.28152Z"/>
      <path class="cls-1" d="m300.48665,89.92744v.36598l1.20041.10323h.35638v-.24399s-.06565-.06569-.06565-.14076l-1.49113-.08445Z"/>
      <path class="cls-1" d="m318.75538,101.45106s-1.5474.80703-1.65993,4.1759c-.11253,3.36887-1.50052,7.1225-.5627,8.37058.55371.63362,1.06738,1.30118,1.53804,1.9988.15005.37536.93782.37536,2.41956,1.12608,1.23192.53529,2.52726.91058,3.85442,1.11671h-37.97232c.96332-.06569,1.91153-.27442,2.81346-.61935,1.79124-.62873.26259-.87272,1.96004-2.1208s.43139-1.12608,2.00695-3.37826c1.57556-2.25218,2.92599.06569,3.17922-2.21464.25323-2.28033-3.13231-2.14895-3.17922-3.6504-.04691-1.50145-.36576-3.07797-1.16289-3.62225-.79237-.52097-1.65861-.91956-2.56962-1.18239h6.63039c.05747.65066.33929,1.26108.79715,1.72666.50217.53997.88556,1.17934,1.12539,1.87681-.06213-.25907-.06213-.52918,0-.78826.17058-.37692.25392-.78751.24384-1.20116-.09379-.21584-.3939-.76949-.23445-.93841s0-.62873,0-.62873l20.77266-.04691Z"/>
    </g>
  </g>
</svg>