<svg viewBox="0 0 292 318.987" xmlns="http://www.w3.org/2000/svg" xmlns:xlink="http://www.w3.org/1999/xlink"><clipPath id="a"><path d="m-1684.41-276.129-31.59 191.768 36.103 82.348s21.436 33.841 25.949 36.098c4.513 2.256 38.359 12.409 44 12.409s113.949-24.817 119.59-27.073 118.462-28.201 118.462-28.201l7.897-99.268-19.179-91.372-44-111.677-144.41-12.409-112.821 47.378z"/></clipPath><g clip-path="url(#a)"><image height="1200" transform="matrix(2.079 0 0 2.079 -2806.388 -295.465)" width="1600" xlink:href="../../../../../Volumes/Untitled/221118_tasoTOP/Links/23166078.png"/></g><g fill="#001f4c"><path d="m147.097 0c-50.251 0-90.93 40.746-90.93 90.997s40.679 90.93 90.93 90.93 90.997-40.746 90.997-90.997-40.746-90.93-90.997-90.93zm0 166.041c-41.41 0-75.044-33.567-75.044-75.044s33.633-75.044 75.044-75.044 75.044 33.567 75.044 75.044-33.567 75.044-75.044 75.044z"/><path d="m165.176 133.271-11.699.598-.399-15.62c-1.994.266-3.922.465-5.916.465-2.26 0-4.52-.199-6.713-.598l-.399 15.753-10.901-.532c-4.786-7.843-18.877-24.793-48.39-14.092 0 0 18.611 41.145 47.326 20.207l11.832 1.196-.465 18.478s2.393 1.329 7.312 1.329 7.378-1.329 7.378-1.329l-.465-18.346 12.563-1.263c28.715 20.938 47.326-20.207 47.326-20.207-29.512-10.835-43.67 6.049-48.39 13.959zm-43.737 2.26c-.332.798-.798 1.196-6.846-1.064-11.699-4.453-29.845-12.097-29.512-12.962.332-.798 18.944 5.517 30.642 9.97 5.982 2.26 5.982 3.191 5.716 4.055zm58.227-1.13c-5.982 2.26-6.514 1.928-6.846 1.064-.332-.798-.266-1.728 5.716-3.988 11.699-4.453 30.31-10.835 30.642-9.97.266.798-17.88 8.442-29.512 12.895z"/><path d="m177.274 51.381c4.985 3.722 8.176 9.439 8.176 17.016 0 .465 0 .864-.066 1.329-.931-13.493-11.233-20.539-24.328-20.539-4.453 0-8.575.864-12.097 2.459-.798.332-1.529.731-2.193 1.13-.731-.399-1.462-.798-2.193-1.13-3.523-1.595-7.644-2.459-12.097-2.459-13.094 0-23.397 7.046-24.328 20.539 0-.465-.066-.864-.066-1.329 0-7.644 3.191-13.427 8.309-17.149-16.418-2.659-31.241.665-31.241.665s3.456 33.301 25.524 49.054c1.928 1.396 3.855 2.592 5.716 3.656-2.061-2.393-3.722-5.052-5.052-7.843-1.994-4.453-3.124-9.306-2.925-14.158.266 4.786 1.529 9.505 3.855 13.693 2.26 4.188 5.318 7.843 8.973 10.835 7.245 6.049 16.617 9.306 25.99 9.306s18.744-3.257 25.99-9.306c3.589-2.991 6.713-6.713 8.907-10.835 2.26-4.188 3.589-8.84 3.855-13.693.266 4.852-.864 9.705-2.925 14.158-1.329 2.925-3.124 5.65-5.251 8.109.066-.066.133-.133.266-.199 1.861-1.064 3.722-2.26 5.65-3.589 22.001-15.753 25.524-49.054 25.524-49.054s-15.354-3.523-31.972-.665zm-71.986 18.08c-.332.399-.266.997-2.925-1.462-5.251-4.852-13.227-12.829-12.895-13.227s8.907 6.979 14.158 11.898c2.659 2.459 1.994 2.393 1.662 2.792zm63.877 22.001c-2.991 5.982-7.312 11.699-11.699 15.487 2.858-3.456 5.583-7.644 7.644-11.898 5.982-12.097 4.919-20.539-.332-23.131-2.858-1.396-6.381-.798-9.904 2.061 1.861 2.659 3.058 6.381 3.058 11.034 0 6.448-2.26 12.829-5.583 16.285 1.396-3.058 2.858-8.242 2.858-13.826 0-8.176-3.589-13.294-8.109-13.294-4.453 0-8.109 5.052-8.109 13.294 0 5.583 1.396 10.768 2.858 13.826-3.323-3.456-5.583-9.837-5.583-16.285 0-4.653 1.196-8.375 3.058-11.034-3.589-2.858-7.046-3.456-9.904-2.061-5.251 2.592-6.315 11.034-.332 23.131 2.127 4.254 4.786 8.375 7.644 11.898-4.387-3.855-8.707-9.505-11.699-15.487-5.982-12.097-4.055-20.938 2.127-24.062 4.321-2.127 9.638-.931 14.49 4.121 1.595-1.196 3.456-1.861 5.384-1.861 1.994 0 3.789.665 5.384 1.861 4.852-5.052 10.17-6.315 14.49-4.121 6.315 3.124 8.242 11.964 2.26 24.062zm22.666-23.53c-2.659 2.526-2.592 1.861-2.925 1.462-.332-.399-.997-.332 1.662-2.792 5.251-4.852 13.826-12.23 14.158-11.898.399.399-7.644 8.375-12.895 13.227z"/><path d="m132.407 46.529c5.318 0 10.303 1.263 14.291 3.589 3.988-2.393 8.973-3.589 14.291-3.589 4.919 0 9.505 1.064 13.36 3.058-4.055-16.285-27.651-28.914-27.651-28.914s-23.663 12.696-27.651 28.914c3.855-1.994 8.442-3.058 13.36-3.058zm14.69-21.603c.532 0 .931 11.3.931 18.412 0 3.656-.399 3.124-.931 3.124s-.931.532-.931-3.124c.066-7.179.465-18.412.931-18.412z"/><path d="m12.097 236.897c8.176 0 12.563 5.45 12.563 10.835 0 6.248-4.852 11.632-12.097 11.632-8.176 0-12.563-5.45-12.563-10.768 0-6.315 4.919-11.699 12.097-11.699zm.665 20.938c5.185 0 7.843-4.786 7.843-8.84 0-5.849-3.191-10.635-8.707-10.635-5.185 0-7.843 4.52-7.843 8.84 0 4.852 2.925 10.635 8.707 10.635z"/><path d="m53.375 243.211c-.864-2.659-2.592-4.852-6.78-4.852-5.185 0-7.843 4.786-7.843 8.84 0 4.786 2.925 10.569 8.707 10.569 2.193 0 4.453-.665 5.583-3.257l1.13-2.592 1.196.199c-.332 1.329-.798 3.656-1.196 5.517-2.193.997-5.318 1.595-6.913 1.595-8.176 0-12.563-5.45-12.563-10.768 0-6.315 4.852-11.632 12.097-11.632 2.326 0 4.852.399 7.112 1.263.066 1.13.332 3.589.665 5.052h-1.196v.066z"/><path d="m67.001 241.55c0-2.592-.399-2.991-3.523-2.991-.332 0-.332-.066-.332-.532 0-.532.066-.731.332-.731.665 0 2.459.199 5.251.199 5.318 0 9.439-.199 12.23-.199.133 0 .199.199.199.399s-.199.731-.199 2.725c0 .931.199 1.329.199 1.462 0 .199-.066.332-.066.399h-1.196c-.332-2.925-.731-3.789-5.583-3.789-3.589 0-3.922.133-3.922 3.191v5.185h2.991c1.861 0 2.925-.199 3.589-2.393.199-.598.266-.665.798-.665.332 0 .465.066.465.266 0 .665-.133 3.323-.133 4.453 0 1.529.133 2.326.133 2.592 0 .199-.066.199-.665.199s-.665-.066-.665-.332c0-.598-.332-1.994-.864-2.393s-.931-.532-2.393-.532h-3.323v4.719c0 1.462.199 3.589.399 3.789.465.465 1.196.665 4.055.665 2.659 0 3.257-.199 3.988-.465 1.662-.665 2.592-3.722 3.058-3.722.199 0 1.064.332 1.064.465 0 .066-1.529 3.656-1.795 4.453-.199.665-.199.731-.465.731-1.861 0-8.84-.199-11.964-.199-2.725 0-4.586.199-5.251.199-.332 0-.332-.199-.332-.731 0-.465.066-.532.332-.532 3.124 0 3.523-.399 3.523-2.991v-12.895h.066z"/><path d="m98.707 239.223c.199-.598 2.858-2.326 2.925-2.326.199 0 .332.199 1.396 2.792l6.58 15.554c.798 1.861 1.928 2.393 3.589 2.393.199 0 .266.066.266.532 0 .665-.066.731-.332.731s-1.928-.199-3.722-.199c-3.39 0-5.052.199-5.716.199-.399 0-.532-.199-.532-.798 0-.332.133-.465.532-.465.199 0 .332.066.665.066 1.329 0 1.795-.266 1.795-1.13 0-.266-.133-.798-.399-1.462l-1.662-4.321h-7.777c-1.196 2.925-1.595 3.988-1.595 5.251 0 1.396 1.13 1.595 3.124 1.595.066.133.199.332.199.532 0 .532-.199.731-.465.731-.332 0-1.396-.199-3.589-.199-.665 0-4.055.199-4.453.199-.332 0-.465-.066-.465-.665 0-.199.066-.399.133-.598 1.728-.066 2.925-.332 3.656-2.393l5.849-16.019zm-1.795 10.103h6.58l-3.656-8.707-2.925 8.707z"/><path d="m123.434 240.154c-1.329-1.462-1.728-1.595-3.523-1.595-.598 0-.665-.066-.665-.532 0-.665.066-.731.665-.731.665 0 1.529.199 3.656.199 1.196 0 2.725-.199 2.991-.199.133 0 .199.066.399.266 4.52 5.716 8.109 10.635 12.496 15.487v-11.499c0-2.326-.665-2.991-2.991-2.991-.332 0-.465-.066-.465-.665 0-.465.066-.598.465-.598.731 0 2.393.199 4.055.199 1.529 0 3.456-.199 3.656-.199s.332.199.332.665-.133.665-.864.665c-2.326 0-2.526.465-2.526 2.991v17.747h-1.064c-7.578-8.442-13.959-17.88-14.889-18.013v13.36c0 2.592.399 2.991 3.523 2.991.332 0 .332.066.332.532 0 .532-.066.731-.332.731-.665 0-2.459-.199-4.453-.199-1.861 0-3.656.199-4.321.199-.332 0-.332-.199-.332-.731 0-.465.066-.532.332-.532 3.124 0 3.523-.399 3.523-2.991z"/><path d="m169.962 240.885c-.798-1.928-1.329-2.326-3.058-2.326-.199 0-.332-.133-.332-.598 0-.598.133-.665.199-.665.332 0 2.061.199 4.52.199 1.795 0 3.988-.199 4.586-.199.199 0 .266.199.266.665 0 .532-.133.665-.399.665-2.061 0-2.326.332-2.326.931 0 1.595 2.991 6.979 5.65 14.291h.066c2.393-7.312 4.919-12.43 4.919-13.826 0-.798-.465-1.396-2.725-1.396-.133 0-.332-.133-.332-.665 0-.332.133-.598.266-.598.864 0 1.462.199 3.589.199s3.058-.199 3.456-.199c.266 0 .332.133.332.598 0 .665-.066.665-.465.665-1.928 0-2.193.798-9.372 20.273-.133.332-.266.465-.665.465s-.465-.066-.665-.465l-7.511-18.013z"/><path d="m199.275 241.55c0-2.592-.399-2.991-3.523-2.991-.332 0-.332-.066-.332-.532 0-.532.066-.731.332-.731.665 0 2.459.199 5.251.199 2.725 0 4.586-.199 5.251-.199.332 0 .332.199.332.731 0 .465-.066.532-.332.532-3.124 0-3.523.399-3.523 2.991v13.094c0 2.592.399 2.991 3.523 2.991.332 0 .332.066.332.532 0 .532-.066.731-.332.731-.665 0-2.459-.199-5.251-.199-2.725 0-4.586.199-5.251.199-.332 0-.332-.199-.332-.731 0-.465.066-.532.332-.532 3.124 0 3.523-.399 3.523-2.991z"/><path d="m233.175 258.632c-.066.199-.199.266-.465.266-.731 0-4.786-.199-12.563-.199-2.725 0-4.586.199-5.251.199-.332 0-.332-.199-.332-.731 0-.465.066-.532.332-.532 3.124 0 3.523-.399 3.523-2.991v-13.094c0-2.592-.399-2.991-3.523-2.991-.332 0-.332-.066-.332-.532 0-.532.066-.731.332-.731.665 0 2.459.199 5.251.199s4.586-.199 5.251-.199c.332 0 .332.199.332.731 0 .465-.066.532-.332.532-3.124 0-3.523.399-3.523 2.991v11.964c0 3.323 1.13 3.922 4.453 3.922 4.52 0 5.45-.665 5.982-1.861l.931-1.928c.066-.199.199-.332.332-.332.665 0 1.196.133 1.196.332 0 .066-.066.266-.399 1.396l-1.196 3.589z"/><path d="m260.294 258.632c-.066.199-.199.266-.465.266-.731 0-4.786-.199-12.563-.199-2.725 0-4.586.199-5.251.199-.332 0-.332-.199-.332-.731 0-.465.066-.532.332-.532 3.124 0 3.523-.399 3.523-2.991v-13.094c0-2.592-.399-2.991-3.523-2.991-.332 0-.332-.066-.332-.532 0-.532.066-.731.332-.731.665 0 2.459.199 5.251.199 2.725 0 4.586-.199 5.251-.199.332 0 .332.199.332.731 0 .465-.066.532-.332.532-3.124 0-3.523.399-3.523 2.991v11.964c0 3.323 1.13 3.922 4.453 3.922 4.52 0 5.45-.665 5.982-1.861l.931-1.928c.066-.199.199-.332.332-.332.665 0 1.196.133 1.196.332 0 .066-.066.266-.399 1.396l-1.196 3.589z"/><path d="m277.244 239.223c.199-.598 2.858-2.326 2.925-2.326.199 0 .332.199 1.396 2.792l6.58 15.554c.798 1.861 1.928 2.393 3.589 2.393.199 0 .266.066.266.532 0 .665-.066.731-.332.731s-1.928-.199-3.722-.199c-3.39 0-5.052.199-5.716.199-.399 0-.532-.199-.532-.798 0-.332.133-.465.532-.465.199 0 .332.066.665.066 1.329 0 1.795-.266 1.795-1.13 0-.266-.133-.798-.399-1.462l-1.662-4.321h-7.777c-1.196 2.925-1.595 3.988-1.595 5.251 0 1.396 1.13 1.595 3.124 1.595.066.133.199.332.199.532 0 .532-.199.731-.465.731-.332 0-1.396-.199-3.589-.199-.665 0-4.055.199-4.453.199-.332 0-.465-.066-.465-.665 0-.199.066-.399.133-.598 1.728-.066 2.925-.332 3.656-2.393l5.849-16.019zm-1.795 10.103h6.58l-3.656-8.707-2.925 8.707z"/><path d="m82.023 206.72c0-1.529-.266-1.728-2.061-1.728q-.199 0-.199-.332c0-.332 0-.399.199-.399.399 0 1.462.133 3.058.133s2.659-.133 3.058-.133c.199 0 .199.133.199.399s0 .332-.199.332c-1.795 0-2.061.266-2.061 1.728v7.644c0 1.529.266 1.728 2.061 1.728q.199 0 .199.332c0 .332 0 .399-.199.399-.399 0-1.462-.133-3.058-.133s-2.659.133-3.058.133c-.199 0-.199-.133-.199-.399s0-.332.199-.332c1.795 0 2.061-.266 2.061-1.728z"/><path d="m98.375 207.119c0 .199-.066.266-.266.266s-.332 0-.532-.066c-.266-1.263-1.064-2.393-2.526-2.393-1.13 0-2.061.864-2.061 1.795 0 2.991 6.115 2.393 6.115 6.78 0 2.061-1.795 3.656-4.453 3.656-1.196 0-2.659-.332-3.257-.731-.133-.798-.266-1.662-.332-2.659l.133-.133h.199c.133 0 .266 0 .399.066.266 1.462 1.462 2.592 2.925 2.592 1.529 0 2.393-.931 2.393-2.26 0-2.991-5.982-2.459-5.982-6.514 0-1.662 1.13-3.456 4.055-3.456 1.329 0 2.393.332 3.058.598l.133 2.459z"/><path d="m106.085 206.72c0-1.529-.266-1.728-2.061-1.728q-.199 0-.199-.332c0-.332 0-.399.199-.399.399 0 1.462.133 3.058.133 3.058 0 5.517-.133 7.179-.133.066 0 .133.133.133.266s-.133.399-.133 1.595c0 .532.133.798.133.864 0 .133 0 .199-.066.266h-.665c-.199-1.662-.399-2.193-3.257-2.193-2.127 0-2.26.066-2.26 1.861v3.058h1.728c1.064 0 1.662-.133 2.061-1.396.133-.332.133-.399.465-.399.199 0 .266.066.266.133 0 .399-.066 1.928-.066 2.592 0 .864.066 1.396.066 1.529s0 .133-.399.133c-.332 0-.399 0-.399-.199 0-.332-.199-1.13-.532-1.396s-.532-.332-1.396-.332h-1.928v2.792c0 .864.133 2.061.266 2.193.266.266.731.399 2.326.399 1.529 0 1.928-.133 2.326-.266.997-.399 1.529-2.193 1.795-2.193.133 0 .598.199.598.266s-.864 2.127-.997 2.592q-.133.399-.266.399c-1.064 0-5.118-.133-6.979-.133-1.595 0-2.659.133-3.058.133-.199 0-.199-.133-.199-.399s0-.332.199-.332c1.795 0 2.061-.266 2.061-1.728v-7.644z"/><path d="m120.243 209.644h7.378v1.529h-7.378z"/><path d="m140.051 207.119c0 .199-.066.266-.266.266s-.332 0-.532-.066c-.266-1.263-1.064-2.393-2.526-2.393-1.13 0-2.061.864-2.061 1.795 0 2.991 6.115 2.393 6.115 6.78 0 2.061-1.795 3.656-4.453 3.656-1.196 0-2.659-.332-3.257-.731-.133-.798-.266-1.662-.332-2.659l.133-.133h.199c.133 0 .266 0 .399.066.266 1.462 1.462 2.592 2.925 2.592 1.529 0 2.393-.931 2.393-2.26 0-2.991-5.982-2.459-5.982-6.514 0-1.662 1.13-3.456 4.055-3.456 1.329 0 2.393.332 3.058.598l.133 2.459z"/><path d="m147.695 206.72c0-1.529-.266-1.728-2.061-1.728q-.199 0-.199-.332c0-.332 0-.399.199-.399.399 0 1.462.133 3.058.133s2.659-.133 3.058-.133c.199 0 .199.133.199.399s0 .332-.199.332c-1.795 0-2.061.266-2.061 1.728v2.858h7.312v-2.858c0-1.529-.266-1.728-2.061-1.728q-.199 0-.199-.332c0-.332 0-.399.199-.399.399 0 1.462.133 3.058.133s2.659-.133 3.058-.133c.199 0 .199.133.199.399s0 .332-.199.332c-1.795 0-2.061.266-2.061 1.728v7.644c0 1.529.266 1.728 2.061 1.728q.199 0 .199.332c0 .332 0 .399-.199.399-.399 0-1.462-.133-3.058-.133s-2.659.133-3.058.133c-.199 0-.199-.133-.199-.399s0-.332.199-.332c1.795 0 2.061-.266 2.061-1.728v-3.789h-7.312v3.789c0 1.529.266 1.728 2.061 1.728q.199 0 .199.332c0 .332 0 .399-.199.399-.399 0-1.462-.133-3.058-.133s-2.659.133-3.058.133c-.199 0-.199-.133-.199-.399s0-.332.199-.332c1.795 0 2.061-.266 2.061-1.728z"/><path d="m168.168 206.72c0-1.529-.266-1.728-2.061-1.728q-.199 0-.199-.332c0-.332 0-.399.199-.399.399 0 1.462.133 3.058.133s2.659-.133 3.058-.133c.199 0 .199.133.199.399s0 .332-.199.332c-1.795 0-2.061.266-2.061 1.728v7.644c0 1.529.266 1.728 2.061 1.728q.199 0 .199.332c0 .332 0 .399-.199.399-.399 0-1.462-.133-3.058-.133s-2.659.133-3.058.133c-.199 0-.199-.133-.199-.399s0-.332.199-.332c1.795 0 2.061-.266 2.061-1.728z"/><path d="m191.897 212.436c0 3.456.266 3.656 1.994 3.656.399 0 .465.133.465.332 0 .266-.066.399-.199.399-.332 0-1.064-.133-2.925-.133-.731 0-2.393.133-2.991.133-.133 0-.199 0-.199-.399 0-.332 0-.399.266-.399 1.662 0 1.795-.332 1.795-2.26 0-2.592-.066-5.251-.066-7.777h-.066c-1.13 2.526-4.055 9.306-4.586 10.967h-.532c-.532-1.795-2.792-6.846-4.321-10.369h-.066c-.066 2.459-.199 5.185-.199 7.445 0 1.595.332 1.928 1.795 1.928.266 0 .332 0 .332.399 0 .266-.066.332-.199.332-.266 0-1.529-.133-2.26-.133-2.061 0-2.659.133-2.792.133s-.133-.066-.133-.332q0-.399.266-.399c1.662 0 1.861-.598 1.928-2.326.133-1.861.266-4.586.266-6.913 0-1.595-.266-1.928-2.061-1.928-.199 0-.266 0-.266-.266 0-.399 0-.465.199-.465.332 0 1.13.133 2.326.133.798 0 .997-.133 1.263-.133.332 0 .399.066.532.266l4.188 9.173 3.922-8.907c.199-.532.266-.532.399-.532.266 0 1.595.133 2.459.133.798 0 1.13-.133 1.396-.133.199 0 .266 0 .266.399q0 .332-.199.332c-1.795 0-1.928.133-1.928 2.326v5.318h-.066z"/><path d="m203.662 205.39c.133-.332 1.662-1.329 1.728-1.329.133 0 .199.133.798 1.662l3.855 9.04c.465 1.064 1.13 1.396 2.127 1.396.133 0 .133.066.133.332q0 .399-.199.399c-.133 0-1.13-.133-2.193-.133-1.994 0-2.925.133-3.323.133-.266 0-.332-.133-.332-.465 0-.199.066-.266.332-.266h.399c.798 0 1.064-.133 1.064-.665 0-.133-.066-.465-.266-.864l-.997-2.526h-4.52c-.665 1.662-.931 2.326-.931 3.058 0 .798.665.931 1.795.931.066.066.133.199.133.332 0 .332-.133.399-.266.399-.199 0-.798-.133-2.127-.133-.399 0-2.393.133-2.592.133s-.266-.066-.266-.399c0-.133 0-.266.066-.332.997 0 1.728-.199 2.127-1.396l3.456-9.306zm-.997 5.916h3.855l-2.127-5.052z"/><path d="m135.398 286.815c.731-1.662.931-2.991.598-3.922-.266-.598-.066-.997.465-.997s1.196.266 1.994.864c.731.598 1.263 1.13 1.396 1.529.066.332.066.731-.266 1.064-.665.665-1.728 2.061-2.991 4.188-.997 1.462-2.061 2.991-3.124 4.387l.266.266 1.13 1.196c.332.399.399 1.064.266 1.795-.199 2.127-.266 7.445-.266 16.019 0 1.196-.133 2.26-.399 3.124-.332.864-.731 1.196-1.064.798-.332-.332-.731-.997-.997-1.795-.266-.864-.332-1.529-.266-2.061.665-3.058.997-5.916.997-8.575 0-2.592 0-4.586-.066-5.783-.066-1.196-.266-2.193-.532-2.725-.066-.199-.199-.399-.199-.598-.066.066-.133.133-.199.266-1.662 1.928-3.191 3.456-4.453 4.453-.665.598-1.196.997-1.595 1.064-.399.066-.598-.066-.465-.266.066-.266.332-.598.598-.798 2.193-2.526 4.121-4.985 5.783-7.312 1.462-2.526 2.725-4.52 3.39-6.182zm13.36 27.851c-1.396.997-2.991 1.728-4.786 2.26-1.795.465-3.722.598-5.65.399-.532-.066-.598-.266-.066-.399 3.656-.997 6.381-2.127 8.043-3.124.731-.598 1.529-1.196 2.193-1.728-1.728-.665-3.191-1.196-4.453-1.462-.465-.066-.731-.332-.864-.598-.066-.266 0-.731.266-1.263.598-.731 1.196-1.928 1.728-3.323-2.127.266-4.188.731-5.982 1.13-.399.066-.931.066-1.462-.066s-.997-.399-1.396-.864c-.399-.399-.266-.731.266-.731l9.106-.798.598-1.662c.266-.598.266-1.263.066-1.795-.199-.532-.133-.864.199-.931.266-.066.798.133 1.462.598.665.598 1.064 1.064 1.13 1.329.066.332 0 .665-.266.931s-.532.731-.798 1.329l3.191-.266c.665-.066 1.396-.199 1.994-.266 0-.598-.066-1.064-.266-1.396-.133-.399 0-.665.399-.731s.864 0 1.396.266c.598.266 1.064.598 1.196.864.199.199.266.465.133.665 2.459-.266 4.586-.598 6.448-.864.532-.066 1.064-.066 1.662.066.532.199 1.13.598 1.728 1.13.598.465.798.864.665 1.13-.066.266-.465.399-1.064.399-.731 0-2.858-.133-6.182-.266-1.396-.066-2.792-.066-4.188-.066-.066.199-.199.465-.266.731-.598 1.928-1.529 3.789-2.526 5.384-.199.266-.399.532-.598.798 1.861.598 4.121 1.529 6.514 2.526.798.266 1.529.931 2.127 1.861.598.864.931 1.662.931 2.193 0 .598-.266.864-.798.931-.465 0-1.13-.266-1.861-.798-3.456-2.459-6.182-4.254-8.109-5.318-.532.731-1.196 1.329-1.861 1.795zm.266-26.521c0-1.396-.066-2.26-.266-2.659l-.997.332c-1.728.598-3.124.864-4.055.997-.266.066-.532.066-.665.066-.066 0-.066-.199.066-.399 2.393-.931 4.254-1.861 5.65-2.659s2.326-1.396 2.858-1.861c.399-.266.598-.598.598-.864s.133-.465.399-.532c.199-.066.731.066 1.462.332s1.329.665 1.728 1.064c.399.332.598.665.532.798-.066.266-.532.399-1.196.532-.665.066-1.662.399-2.725.798-.598.266-1.13.465-1.662.731.399.266.665.665.665.997l-.199.731c-.066.266-.266 1.13-.266 2.393 2.393-.399 4.453-.731 6.049-1.13.465-.066 1.064-.066 1.529.066.399.199.997.532 1.529.864.532.399.731.798.598 1.064-.066.266-.399.399-.864.399s-1.795.066-3.988.066c-1.595 0-3.257.066-4.919.266v.399l2.393 1.728c1.396 1.064 2.792 1.994 4.121 2.725 1.263.731 2.725 1.263 4.121 1.728 1.396.399 2.792.864 4.055 1.13.332.066.465.199.465.332 0 .199-.598.465-1.529.665-1.064.199-2.193.399-3.39.399s-2.193-.266-2.792-.731c-2.526-2.061-4.985-4.254-7.378-6.448v6.248c0 .598-.133 1.196-.399 1.662s-.465.731-.665.731c-.133 0-.399-.266-.665-.731-.266-.399-.399-.931-.399-1.529 0-.532.066-1.329.133-2.26.066-.864.133-2.193.133-3.722-.399.731-1.196 1.662-2.127 2.659s-1.994 1.928-2.991 2.659-2.061 1.329-3.257 1.728c-.931.399-1.662.532-1.928.465-.332-.066-.266-.266.133-.532 2.061-1.396 3.789-2.592 4.852-3.589 1.064-1.064 2.127-2.061 2.925-3.191.731-1.064 1.13-1.861 1.196-2.393-1.861.266-3.656.731-5.185 1.196-.399.066-.864.066-1.329 0-.465-.133-.864-.399-1.196-.798-.399-.399-.266-.598.266-.598l8.575-1.263v-1.064zm3.988 16.551c-1.329 0-2.659.133-3.988.266l-1.662.133c-.465.864-1.064 2.127-1.861 3.589-.266.532-.199.864.399.931.997.266 2.393.598 3.855 1.13.133-.199.399-.465.598-.665.997-1.263 1.861-2.792 2.393-4.453.066-.332.199-.665.266-.931z"/></g></svg>